G04 #@! TF.GenerationSoftware,KiCad,Pcbnew,(5.1.9)-1*
G04 #@! TF.CreationDate,2021-06-19T22:19:12+01:00*
G04 #@! TF.ProjectId,temp_sensor,74656d70-5f73-4656-9e73-6f722e6b6963,rev?*
G04 #@! TF.SameCoordinates,Original*
G04 #@! TF.FileFunction,Soldermask,Top*
G04 #@! TF.FilePolarity,Negative*
%FSLAX46Y46*%
G04 Gerber Fmt 4.6, Leading zero omitted, Abs format (unit mm)*
G04 Created by KiCad (PCBNEW (5.1.9)-1) date 2021-06-19 22:19:12*
%MOMM*%
%LPD*%
G01*
G04 APERTURE LIST*
%ADD10O,2.000000X3.500000*%
%ADD11R,1.200000X2.000000*%
%ADD12C,1.000000*%
%ADD13R,0.550000X0.250000*%
%ADD14C,0.100000*%
%ADD15R,2.000000X0.900000*%
%ADD16R,0.900000X2.000000*%
%ADD17R,5.000000X5.000000*%
%ADD18R,1.500000X2.000000*%
%ADD19R,3.800000X2.000000*%
%ADD20R,0.800000X0.900000*%
G04 APERTURE END LIST*
G36*
G01*
X60860000Y-62915000D02*
X60860000Y-63285000D01*
G75*
G02*
X60725000Y-63420000I-135000J0D01*
G01*
X60455000Y-63420000D01*
G75*
G02*
X60320000Y-63285000I0J135000D01*
G01*
X60320000Y-62915000D01*
G75*
G02*
X60455000Y-62780000I135000J0D01*
G01*
X60725000Y-62780000D01*
G75*
G02*
X60860000Y-62915000I0J-135000D01*
G01*
G37*
G36*
G01*
X61880000Y-62915000D02*
X61880000Y-63285000D01*
G75*
G02*
X61745000Y-63420000I-135000J0D01*
G01*
X61475000Y-63420000D01*
G75*
G02*
X61340000Y-63285000I0J135000D01*
G01*
X61340000Y-62915000D01*
G75*
G02*
X61475000Y-62780000I135000J0D01*
G01*
X61745000Y-62780000D01*
G75*
G02*
X61880000Y-62915000I0J-135000D01*
G01*
G37*
G36*
G01*
X60860000Y-61815000D02*
X60860000Y-62185000D01*
G75*
G02*
X60725000Y-62320000I-135000J0D01*
G01*
X60455000Y-62320000D01*
G75*
G02*
X60320000Y-62185000I0J135000D01*
G01*
X60320000Y-61815000D01*
G75*
G02*
X60455000Y-61680000I135000J0D01*
G01*
X60725000Y-61680000D01*
G75*
G02*
X60860000Y-61815000I0J-135000D01*
G01*
G37*
G36*
G01*
X61880000Y-61815000D02*
X61880000Y-62185000D01*
G75*
G02*
X61745000Y-62320000I-135000J0D01*
G01*
X61475000Y-62320000D01*
G75*
G02*
X61340000Y-62185000I0J135000D01*
G01*
X61340000Y-61815000D01*
G75*
G02*
X61475000Y-61680000I135000J0D01*
G01*
X61745000Y-61680000D01*
G75*
G02*
X61880000Y-61815000I0J-135000D01*
G01*
G37*
G36*
G01*
X65515000Y-63740000D02*
X65885000Y-63740000D01*
G75*
G02*
X66020000Y-63875000I0J-135000D01*
G01*
X66020000Y-64145000D01*
G75*
G02*
X65885000Y-64280000I-135000J0D01*
G01*
X65515000Y-64280000D01*
G75*
G02*
X65380000Y-64145000I0J135000D01*
G01*
X65380000Y-63875000D01*
G75*
G02*
X65515000Y-63740000I135000J0D01*
G01*
G37*
G36*
G01*
X65515000Y-62720000D02*
X65885000Y-62720000D01*
G75*
G02*
X66020000Y-62855000I0J-135000D01*
G01*
X66020000Y-63125000D01*
G75*
G02*
X65885000Y-63260000I-135000J0D01*
G01*
X65515000Y-63260000D01*
G75*
G02*
X65380000Y-63125000I0J135000D01*
G01*
X65380000Y-62855000D01*
G75*
G02*
X65515000Y-62720000I135000J0D01*
G01*
G37*
G36*
G01*
X51156250Y-63950000D02*
X50643750Y-63950000D01*
G75*
G02*
X50425000Y-63731250I0J218750D01*
G01*
X50425000Y-63293750D01*
G75*
G02*
X50643750Y-63075000I218750J0D01*
G01*
X51156250Y-63075000D01*
G75*
G02*
X51375000Y-63293750I0J-218750D01*
G01*
X51375000Y-63731250D01*
G75*
G02*
X51156250Y-63950000I-218750J0D01*
G01*
G37*
G36*
G01*
X51156250Y-65525000D02*
X50643750Y-65525000D01*
G75*
G02*
X50425000Y-65306250I0J218750D01*
G01*
X50425000Y-64868750D01*
G75*
G02*
X50643750Y-64650000I218750J0D01*
G01*
X51156250Y-64650000D01*
G75*
G02*
X51375000Y-64868750I0J-218750D01*
G01*
X51375000Y-65306250D01*
G75*
G02*
X51156250Y-65525000I-218750J0D01*
G01*
G37*
G36*
G01*
X50185000Y-42560000D02*
X49815000Y-42560000D01*
G75*
G02*
X49680000Y-42425000I0J135000D01*
G01*
X49680000Y-42155000D01*
G75*
G02*
X49815000Y-42020000I135000J0D01*
G01*
X50185000Y-42020000D01*
G75*
G02*
X50320000Y-42155000I0J-135000D01*
G01*
X50320000Y-42425000D01*
G75*
G02*
X50185000Y-42560000I-135000J0D01*
G01*
G37*
G36*
G01*
X50185000Y-43580000D02*
X49815000Y-43580000D01*
G75*
G02*
X49680000Y-43445000I0J135000D01*
G01*
X49680000Y-43175000D01*
G75*
G02*
X49815000Y-43040000I135000J0D01*
G01*
X50185000Y-43040000D01*
G75*
G02*
X50320000Y-43175000I0J-135000D01*
G01*
X50320000Y-43445000D01*
G75*
G02*
X50185000Y-43580000I-135000J0D01*
G01*
G37*
G36*
G01*
X60605000Y-69500000D02*
X60305000Y-69500000D01*
G75*
G02*
X60155000Y-69350000I0J150000D01*
G01*
X60155000Y-67700000D01*
G75*
G02*
X60305000Y-67550000I150000J0D01*
G01*
X60605000Y-67550000D01*
G75*
G02*
X60755000Y-67700000I0J-150000D01*
G01*
X60755000Y-69350000D01*
G75*
G02*
X60605000Y-69500000I-150000J0D01*
G01*
G37*
G36*
G01*
X61875000Y-69500000D02*
X61575000Y-69500000D01*
G75*
G02*
X61425000Y-69350000I0J150000D01*
G01*
X61425000Y-67700000D01*
G75*
G02*
X61575000Y-67550000I150000J0D01*
G01*
X61875000Y-67550000D01*
G75*
G02*
X62025000Y-67700000I0J-150000D01*
G01*
X62025000Y-69350000D01*
G75*
G02*
X61875000Y-69500000I-150000J0D01*
G01*
G37*
G36*
G01*
X63145000Y-69500000D02*
X62845000Y-69500000D01*
G75*
G02*
X62695000Y-69350000I0J150000D01*
G01*
X62695000Y-67700000D01*
G75*
G02*
X62845000Y-67550000I150000J0D01*
G01*
X63145000Y-67550000D01*
G75*
G02*
X63295000Y-67700000I0J-150000D01*
G01*
X63295000Y-69350000D01*
G75*
G02*
X63145000Y-69500000I-150000J0D01*
G01*
G37*
G36*
G01*
X64415000Y-69500000D02*
X64115000Y-69500000D01*
G75*
G02*
X63965000Y-69350000I0J150000D01*
G01*
X63965000Y-67700000D01*
G75*
G02*
X64115000Y-67550000I150000J0D01*
G01*
X64415000Y-67550000D01*
G75*
G02*
X64565000Y-67700000I0J-150000D01*
G01*
X64565000Y-69350000D01*
G75*
G02*
X64415000Y-69500000I-150000J0D01*
G01*
G37*
G36*
G01*
X65685000Y-69500000D02*
X65385000Y-69500000D01*
G75*
G02*
X65235000Y-69350000I0J150000D01*
G01*
X65235000Y-67700000D01*
G75*
G02*
X65385000Y-67550000I150000J0D01*
G01*
X65685000Y-67550000D01*
G75*
G02*
X65835000Y-67700000I0J-150000D01*
G01*
X65835000Y-69350000D01*
G75*
G02*
X65685000Y-69500000I-150000J0D01*
G01*
G37*
G36*
G01*
X66955000Y-69500000D02*
X66655000Y-69500000D01*
G75*
G02*
X66505000Y-69350000I0J150000D01*
G01*
X66505000Y-67700000D01*
G75*
G02*
X66655000Y-67550000I150000J0D01*
G01*
X66955000Y-67550000D01*
G75*
G02*
X67105000Y-67700000I0J-150000D01*
G01*
X67105000Y-69350000D01*
G75*
G02*
X66955000Y-69500000I-150000J0D01*
G01*
G37*
G36*
G01*
X68225000Y-69500000D02*
X67925000Y-69500000D01*
G75*
G02*
X67775000Y-69350000I0J150000D01*
G01*
X67775000Y-67700000D01*
G75*
G02*
X67925000Y-67550000I150000J0D01*
G01*
X68225000Y-67550000D01*
G75*
G02*
X68375000Y-67700000I0J-150000D01*
G01*
X68375000Y-69350000D01*
G75*
G02*
X68225000Y-69500000I-150000J0D01*
G01*
G37*
G36*
G01*
X69495000Y-69500000D02*
X69195000Y-69500000D01*
G75*
G02*
X69045000Y-69350000I0J150000D01*
G01*
X69045000Y-67700000D01*
G75*
G02*
X69195000Y-67550000I150000J0D01*
G01*
X69495000Y-67550000D01*
G75*
G02*
X69645000Y-67700000I0J-150000D01*
G01*
X69645000Y-69350000D01*
G75*
G02*
X69495000Y-69500000I-150000J0D01*
G01*
G37*
G36*
G01*
X69495000Y-74450000D02*
X69195000Y-74450000D01*
G75*
G02*
X69045000Y-74300000I0J150000D01*
G01*
X69045000Y-72650000D01*
G75*
G02*
X69195000Y-72500000I150000J0D01*
G01*
X69495000Y-72500000D01*
G75*
G02*
X69645000Y-72650000I0J-150000D01*
G01*
X69645000Y-74300000D01*
G75*
G02*
X69495000Y-74450000I-150000J0D01*
G01*
G37*
G36*
G01*
X68225000Y-74450000D02*
X67925000Y-74450000D01*
G75*
G02*
X67775000Y-74300000I0J150000D01*
G01*
X67775000Y-72650000D01*
G75*
G02*
X67925000Y-72500000I150000J0D01*
G01*
X68225000Y-72500000D01*
G75*
G02*
X68375000Y-72650000I0J-150000D01*
G01*
X68375000Y-74300000D01*
G75*
G02*
X68225000Y-74450000I-150000J0D01*
G01*
G37*
G36*
G01*
X66955000Y-74450000D02*
X66655000Y-74450000D01*
G75*
G02*
X66505000Y-74300000I0J150000D01*
G01*
X66505000Y-72650000D01*
G75*
G02*
X66655000Y-72500000I150000J0D01*
G01*
X66955000Y-72500000D01*
G75*
G02*
X67105000Y-72650000I0J-150000D01*
G01*
X67105000Y-74300000D01*
G75*
G02*
X66955000Y-74450000I-150000J0D01*
G01*
G37*
G36*
G01*
X65685000Y-74450000D02*
X65385000Y-74450000D01*
G75*
G02*
X65235000Y-74300000I0J150000D01*
G01*
X65235000Y-72650000D01*
G75*
G02*
X65385000Y-72500000I150000J0D01*
G01*
X65685000Y-72500000D01*
G75*
G02*
X65835000Y-72650000I0J-150000D01*
G01*
X65835000Y-74300000D01*
G75*
G02*
X65685000Y-74450000I-150000J0D01*
G01*
G37*
G36*
G01*
X64415000Y-74450000D02*
X64115000Y-74450000D01*
G75*
G02*
X63965000Y-74300000I0J150000D01*
G01*
X63965000Y-72650000D01*
G75*
G02*
X64115000Y-72500000I150000J0D01*
G01*
X64415000Y-72500000D01*
G75*
G02*
X64565000Y-72650000I0J-150000D01*
G01*
X64565000Y-74300000D01*
G75*
G02*
X64415000Y-74450000I-150000J0D01*
G01*
G37*
G36*
G01*
X63145000Y-74450000D02*
X62845000Y-74450000D01*
G75*
G02*
X62695000Y-74300000I0J150000D01*
G01*
X62695000Y-72650000D01*
G75*
G02*
X62845000Y-72500000I150000J0D01*
G01*
X63145000Y-72500000D01*
G75*
G02*
X63295000Y-72650000I0J-150000D01*
G01*
X63295000Y-74300000D01*
G75*
G02*
X63145000Y-74450000I-150000J0D01*
G01*
G37*
G36*
G01*
X61875000Y-74450000D02*
X61575000Y-74450000D01*
G75*
G02*
X61425000Y-74300000I0J150000D01*
G01*
X61425000Y-72650000D01*
G75*
G02*
X61575000Y-72500000I150000J0D01*
G01*
X61875000Y-72500000D01*
G75*
G02*
X62025000Y-72650000I0J-150000D01*
G01*
X62025000Y-74300000D01*
G75*
G02*
X61875000Y-74450000I-150000J0D01*
G01*
G37*
G36*
G01*
X60605000Y-74450000D02*
X60305000Y-74450000D01*
G75*
G02*
X60155000Y-74300000I0J150000D01*
G01*
X60155000Y-72650000D01*
G75*
G02*
X60305000Y-72500000I150000J0D01*
G01*
X60605000Y-72500000D01*
G75*
G02*
X60755000Y-72650000I0J-150000D01*
G01*
X60755000Y-74300000D01*
G75*
G02*
X60605000Y-74450000I-150000J0D01*
G01*
G37*
D10*
X54050000Y-79400000D03*
X65450000Y-79400000D03*
D11*
X56250000Y-76800000D03*
X58750000Y-76800000D03*
X60750000Y-76800000D03*
X63250000Y-76800000D03*
D12*
X62000000Y-79400000D03*
X57500000Y-79400000D03*
D13*
X69175000Y-64850000D03*
X69175000Y-64350000D03*
X69175000Y-63850000D03*
X69175000Y-63350000D03*
X66825000Y-63350000D03*
X66825000Y-63850000D03*
X66825000Y-64350000D03*
X66825000Y-64850000D03*
D14*
G36*
X67500000Y-63250000D02*
G01*
X68500000Y-63250000D01*
X68500000Y-64650000D01*
X68200000Y-64950000D01*
X67500000Y-64950000D01*
X67500000Y-63250000D01*
G37*
G36*
G01*
X50172500Y-55810000D02*
X49827500Y-55810000D01*
G75*
G02*
X49680000Y-55662500I0J147500D01*
G01*
X49680000Y-55367500D01*
G75*
G02*
X49827500Y-55220000I147500J0D01*
G01*
X50172500Y-55220000D01*
G75*
G02*
X50320000Y-55367500I0J-147500D01*
G01*
X50320000Y-55662500D01*
G75*
G02*
X50172500Y-55810000I-147500J0D01*
G01*
G37*
G36*
G01*
X50172500Y-56780000D02*
X49827500Y-56780000D01*
G75*
G02*
X49680000Y-56632500I0J147500D01*
G01*
X49680000Y-56337500D01*
G75*
G02*
X49827500Y-56190000I147500J0D01*
G01*
X50172500Y-56190000D01*
G75*
G02*
X50320000Y-56337500I0J-147500D01*
G01*
X50320000Y-56632500D01*
G75*
G02*
X50172500Y-56780000I-147500J0D01*
G01*
G37*
G36*
G01*
X49643750Y-53750000D02*
X50156250Y-53750000D01*
G75*
G02*
X50375000Y-53968750I0J-218750D01*
G01*
X50375000Y-54406250D01*
G75*
G02*
X50156250Y-54625000I-218750J0D01*
G01*
X49643750Y-54625000D01*
G75*
G02*
X49425000Y-54406250I0J218750D01*
G01*
X49425000Y-53968750D01*
G75*
G02*
X49643750Y-53750000I218750J0D01*
G01*
G37*
G36*
G01*
X49643750Y-52175000D02*
X50156250Y-52175000D01*
G75*
G02*
X50375000Y-52393750I0J-218750D01*
G01*
X50375000Y-52831250D01*
G75*
G02*
X50156250Y-53050000I-218750J0D01*
G01*
X49643750Y-53050000D01*
G75*
G02*
X49425000Y-52831250I0J218750D01*
G01*
X49425000Y-52393750D01*
G75*
G02*
X49643750Y-52175000I218750J0D01*
G01*
G37*
D15*
X68900000Y-42645000D03*
X68900000Y-43915000D03*
X68900000Y-45185000D03*
X68900000Y-46455000D03*
X68900000Y-47725000D03*
X68900000Y-48995000D03*
X68900000Y-50265000D03*
X68900000Y-51535000D03*
X68900000Y-52805000D03*
X68900000Y-54075000D03*
X68900000Y-55345000D03*
X68900000Y-56615000D03*
X68900000Y-57885000D03*
X68900000Y-59155000D03*
D16*
X66115000Y-60155000D03*
X64845000Y-60155000D03*
X63575000Y-60155000D03*
X62305000Y-60155000D03*
X61035000Y-60155000D03*
X59765000Y-60155000D03*
X58495000Y-60155000D03*
X57225000Y-60155000D03*
X55955000Y-60155000D03*
X54685000Y-60155000D03*
D15*
X51900000Y-59155000D03*
X51900000Y-57885000D03*
X51900000Y-56615000D03*
X51900000Y-55345000D03*
X51900000Y-54075000D03*
X51900000Y-52805000D03*
X51900000Y-51535000D03*
X51900000Y-50265000D03*
X51900000Y-48995000D03*
X51900000Y-47725000D03*
X51900000Y-46455000D03*
X51900000Y-45185000D03*
X51900000Y-43915000D03*
X51900000Y-42645000D03*
D17*
X59400000Y-50145000D03*
D18*
X52000000Y-73450000D03*
X56600000Y-73450000D03*
X54300000Y-73450000D03*
D19*
X54300000Y-67150000D03*
G36*
G01*
X50172500Y-44710000D02*
X49827500Y-44710000D01*
G75*
G02*
X49680000Y-44562500I0J147500D01*
G01*
X49680000Y-44267500D01*
G75*
G02*
X49827500Y-44120000I147500J0D01*
G01*
X50172500Y-44120000D01*
G75*
G02*
X50320000Y-44267500I0J-147500D01*
G01*
X50320000Y-44562500D01*
G75*
G02*
X50172500Y-44710000I-147500J0D01*
G01*
G37*
G36*
G01*
X50172500Y-45680000D02*
X49827500Y-45680000D01*
G75*
G02*
X49680000Y-45532500I0J147500D01*
G01*
X49680000Y-45237500D01*
G75*
G02*
X49827500Y-45090000I147500J0D01*
G01*
X50172500Y-45090000D01*
G75*
G02*
X50320000Y-45237500I0J-147500D01*
G01*
X50320000Y-45532500D01*
G75*
G02*
X50172500Y-45680000I-147500J0D01*
G01*
G37*
G36*
G01*
X58810000Y-66227500D02*
X58810000Y-66572500D01*
G75*
G02*
X58662500Y-66720000I-147500J0D01*
G01*
X58367500Y-66720000D01*
G75*
G02*
X58220000Y-66572500I0J147500D01*
G01*
X58220000Y-66227500D01*
G75*
G02*
X58367500Y-66080000I147500J0D01*
G01*
X58662500Y-66080000D01*
G75*
G02*
X58810000Y-66227500I0J-147500D01*
G01*
G37*
G36*
G01*
X59780000Y-66227500D02*
X59780000Y-66572500D01*
G75*
G02*
X59632500Y-66720000I-147500J0D01*
G01*
X59337500Y-66720000D01*
G75*
G02*
X59190000Y-66572500I0J147500D01*
G01*
X59190000Y-66227500D01*
G75*
G02*
X59337500Y-66080000I147500J0D01*
G01*
X59632500Y-66080000D01*
G75*
G02*
X59780000Y-66227500I0J-147500D01*
G01*
G37*
G36*
G01*
X59227500Y-64890000D02*
X59572500Y-64890000D01*
G75*
G02*
X59720000Y-65037500I0J-147500D01*
G01*
X59720000Y-65332500D01*
G75*
G02*
X59572500Y-65480000I-147500J0D01*
G01*
X59227500Y-65480000D01*
G75*
G02*
X59080000Y-65332500I0J147500D01*
G01*
X59080000Y-65037500D01*
G75*
G02*
X59227500Y-64890000I147500J0D01*
G01*
G37*
G36*
G01*
X59227500Y-63920000D02*
X59572500Y-63920000D01*
G75*
G02*
X59720000Y-64067500I0J-147500D01*
G01*
X59720000Y-64362500D01*
G75*
G02*
X59572500Y-64510000I-147500J0D01*
G01*
X59227500Y-64510000D01*
G75*
G02*
X59080000Y-64362500I0J147500D01*
G01*
X59080000Y-64067500D01*
G75*
G02*
X59227500Y-63920000I147500J0D01*
G01*
G37*
D20*
X57100000Y-63000000D03*
X58050000Y-65000000D03*
X56150000Y-65000000D03*
X53500000Y-63000000D03*
X54450000Y-65000000D03*
X52550000Y-65000000D03*
G36*
G01*
X49827500Y-47190000D02*
X50172500Y-47190000D01*
G75*
G02*
X50320000Y-47337500I0J-147500D01*
G01*
X50320000Y-47632500D01*
G75*
G02*
X50172500Y-47780000I-147500J0D01*
G01*
X49827500Y-47780000D01*
G75*
G02*
X49680000Y-47632500I0J147500D01*
G01*
X49680000Y-47337500D01*
G75*
G02*
X49827500Y-47190000I147500J0D01*
G01*
G37*
G36*
G01*
X49827500Y-46220000D02*
X50172500Y-46220000D01*
G75*
G02*
X50320000Y-46367500I0J-147500D01*
G01*
X50320000Y-46662500D01*
G75*
G02*
X50172500Y-46810000I-147500J0D01*
G01*
X49827500Y-46810000D01*
G75*
G02*
X49680000Y-46662500I0J147500D01*
G01*
X49680000Y-46367500D01*
G75*
G02*
X49827500Y-46220000I147500J0D01*
G01*
G37*
G36*
G01*
X59056250Y-70450000D02*
X58543750Y-70450000D01*
G75*
G02*
X58325000Y-70231250I0J218750D01*
G01*
X58325000Y-69793750D01*
G75*
G02*
X58543750Y-69575000I218750J0D01*
G01*
X59056250Y-69575000D01*
G75*
G02*
X59275000Y-69793750I0J-218750D01*
G01*
X59275000Y-70231250D01*
G75*
G02*
X59056250Y-70450000I-218750J0D01*
G01*
G37*
G36*
G01*
X59056250Y-72025000D02*
X58543750Y-72025000D01*
G75*
G02*
X58325000Y-71806250I0J218750D01*
G01*
X58325000Y-71368750D01*
G75*
G02*
X58543750Y-71150000I218750J0D01*
G01*
X59056250Y-71150000D01*
G75*
G02*
X59275000Y-71368750I0J-218750D01*
G01*
X59275000Y-71806250D01*
G75*
G02*
X59056250Y-72025000I-218750J0D01*
G01*
G37*
G36*
G01*
X58627500Y-68490000D02*
X58972500Y-68490000D01*
G75*
G02*
X59120000Y-68637500I0J-147500D01*
G01*
X59120000Y-68932500D01*
G75*
G02*
X58972500Y-69080000I-147500J0D01*
G01*
X58627500Y-69080000D01*
G75*
G02*
X58480000Y-68932500I0J147500D01*
G01*
X58480000Y-68637500D01*
G75*
G02*
X58627500Y-68490000I147500J0D01*
G01*
G37*
G36*
G01*
X58627500Y-67520000D02*
X58972500Y-67520000D01*
G75*
G02*
X59120000Y-67667500I0J-147500D01*
G01*
X59120000Y-67962500D01*
G75*
G02*
X58972500Y-68110000I-147500J0D01*
G01*
X58627500Y-68110000D01*
G75*
G02*
X58480000Y-67962500I0J147500D01*
G01*
X58480000Y-67667500D01*
G75*
G02*
X58627500Y-67520000I147500J0D01*
G01*
G37*
M02*
