G04 #@! TF.GenerationSoftware,KiCad,Pcbnew,(5.1.9)-1*
G04 #@! TF.CreationDate,2021-06-19T22:19:12+01:00*
G04 #@! TF.ProjectId,temp_sensor,74656d70-5f73-4656-9e73-6f722e6b6963,rev?*
G04 #@! TF.SameCoordinates,Original*
G04 #@! TF.FileFunction,Legend,Bot*
G04 #@! TF.FilePolarity,Positive*
%FSLAX46Y46*%
G04 Gerber Fmt 4.6, Leading zero omitted, Abs format (unit mm)*
G04 Created by KiCad (PCBNEW (5.1.9)-1) date 2021-06-19 22:19:12*
%MOMM*%
%LPD*%
G01*
G04 APERTURE LIST*
%ADD10C,0.150000*%
G04 APERTURE END LIST*
D10*
X59602380Y-52833333D02*
X60602380Y-53071428D01*
X59888095Y-53261904D01*
X60602380Y-53452380D01*
X59602380Y-53690476D01*
X60602380Y-54071428D02*
X59935714Y-54071428D01*
X59602380Y-54071428D02*
X59650000Y-54023809D01*
X59697619Y-54071428D01*
X59650000Y-54119047D01*
X59602380Y-54071428D01*
X59697619Y-54071428D01*
X59935714Y-54404761D02*
X59935714Y-54785714D01*
X60602380Y-54547619D02*
X59745238Y-54547619D01*
X59650000Y-54595238D01*
X59602380Y-54690476D01*
X59602380Y-54785714D01*
X60602380Y-55119047D02*
X59935714Y-55119047D01*
X59602380Y-55119047D02*
X59650000Y-55071428D01*
X59697619Y-55119047D01*
X59650000Y-55166666D01*
X59602380Y-55119047D01*
X59697619Y-55119047D01*
X59602380Y-56214285D02*
X59602380Y-56785714D01*
X60602380Y-56500000D02*
X59602380Y-56500000D01*
X60554761Y-57500000D02*
X60602380Y-57404761D01*
X60602380Y-57214285D01*
X60554761Y-57119047D01*
X60459523Y-57071428D01*
X60078571Y-57071428D01*
X59983333Y-57119047D01*
X59935714Y-57214285D01*
X59935714Y-57404761D01*
X59983333Y-57500000D01*
X60078571Y-57547619D01*
X60173809Y-57547619D01*
X60269047Y-57071428D01*
X60602380Y-57976190D02*
X59935714Y-57976190D01*
X60030952Y-57976190D02*
X59983333Y-58023809D01*
X59935714Y-58119047D01*
X59935714Y-58261904D01*
X59983333Y-58357142D01*
X60078571Y-58404761D01*
X60602380Y-58404761D01*
X60078571Y-58404761D02*
X59983333Y-58452380D01*
X59935714Y-58547619D01*
X59935714Y-58690476D01*
X59983333Y-58785714D01*
X60078571Y-58833333D01*
X60602380Y-58833333D01*
X59935714Y-59309523D02*
X60935714Y-59309523D01*
X59983333Y-59309523D02*
X59935714Y-59404761D01*
X59935714Y-59595238D01*
X59983333Y-59690476D01*
X60030952Y-59738095D01*
X60126190Y-59785714D01*
X60411904Y-59785714D01*
X60507142Y-59738095D01*
X60554761Y-59690476D01*
X60602380Y-59595238D01*
X60602380Y-59404761D01*
X60554761Y-59309523D01*
X59554761Y-60928571D02*
X60840476Y-60071428D01*
X60602380Y-61261904D02*
X59602380Y-61261904D01*
X60078571Y-61261904D02*
X60078571Y-61833333D01*
X60602380Y-61833333D02*
X59602380Y-61833333D01*
X59935714Y-62738095D02*
X60602380Y-62738095D01*
X59935714Y-62309523D02*
X60459523Y-62309523D01*
X60554761Y-62357142D01*
X60602380Y-62452380D01*
X60602380Y-62595238D01*
X60554761Y-62690476D01*
X60507142Y-62738095D01*
X60602380Y-63214285D02*
X59935714Y-63214285D01*
X60030952Y-63214285D02*
X59983333Y-63261904D01*
X59935714Y-63357142D01*
X59935714Y-63500000D01*
X59983333Y-63595238D01*
X60078571Y-63642857D01*
X60602380Y-63642857D01*
X60078571Y-63642857D02*
X59983333Y-63690476D01*
X59935714Y-63785714D01*
X59935714Y-63928571D01*
X59983333Y-64023809D01*
X60078571Y-64071428D01*
X60602380Y-64071428D01*
X60602380Y-64547619D02*
X59935714Y-64547619D01*
X59602380Y-64547619D02*
X59650000Y-64500000D01*
X59697619Y-64547619D01*
X59650000Y-64595238D01*
X59602380Y-64547619D01*
X59697619Y-64547619D01*
X60602380Y-65452380D02*
X59602380Y-65452380D01*
X60554761Y-65452380D02*
X60602380Y-65357142D01*
X60602380Y-65166666D01*
X60554761Y-65071428D01*
X60507142Y-65023809D01*
X60411904Y-64976190D01*
X60126190Y-64976190D01*
X60030952Y-65023809D01*
X59983333Y-65071428D01*
X59935714Y-65166666D01*
X59935714Y-65357142D01*
X59983333Y-65452380D01*
X60602380Y-65928571D02*
X59935714Y-65928571D01*
X59602380Y-65928571D02*
X59650000Y-65880952D01*
X59697619Y-65928571D01*
X59650000Y-65976190D01*
X59602380Y-65928571D01*
X59697619Y-65928571D01*
X59935714Y-66261904D02*
X59935714Y-66642857D01*
X59602380Y-66404761D02*
X60459523Y-66404761D01*
X60554761Y-66452380D01*
X60602380Y-66547619D01*
X60602380Y-66642857D01*
X59935714Y-66880952D02*
X60602380Y-67119047D01*
X59935714Y-67357142D02*
X60602380Y-67119047D01*
X60840476Y-67023809D01*
X60888095Y-66976190D01*
X60935714Y-66880952D01*
X60554761Y-68452380D02*
X60602380Y-68595238D01*
X60602380Y-68833333D01*
X60554761Y-68928571D01*
X60507142Y-68976190D01*
X60411904Y-69023809D01*
X60316666Y-69023809D01*
X60221428Y-68976190D01*
X60173809Y-68928571D01*
X60126190Y-68833333D01*
X60078571Y-68642857D01*
X60030952Y-68547619D01*
X59983333Y-68500000D01*
X59888095Y-68452380D01*
X59792857Y-68452380D01*
X59697619Y-68500000D01*
X59650000Y-68547619D01*
X59602380Y-68642857D01*
X59602380Y-68880952D01*
X59650000Y-69023809D01*
X60554761Y-69833333D02*
X60602380Y-69738095D01*
X60602380Y-69547619D01*
X60554761Y-69452380D01*
X60459523Y-69404761D01*
X60078571Y-69404761D01*
X59983333Y-69452380D01*
X59935714Y-69547619D01*
X59935714Y-69738095D01*
X59983333Y-69833333D01*
X60078571Y-69880952D01*
X60173809Y-69880952D01*
X60269047Y-69404761D01*
X59935714Y-70309523D02*
X60602380Y-70309523D01*
X60030952Y-70309523D02*
X59983333Y-70357142D01*
X59935714Y-70452380D01*
X59935714Y-70595238D01*
X59983333Y-70690476D01*
X60078571Y-70738095D01*
X60602380Y-70738095D01*
X60554761Y-71166666D02*
X60602380Y-71261904D01*
X60602380Y-71452380D01*
X60554761Y-71547619D01*
X60459523Y-71595238D01*
X60411904Y-71595238D01*
X60316666Y-71547619D01*
X60269047Y-71452380D01*
X60269047Y-71309523D01*
X60221428Y-71214285D01*
X60126190Y-71166666D01*
X60078571Y-71166666D01*
X59983333Y-71214285D01*
X59935714Y-71309523D01*
X59935714Y-71452380D01*
X59983333Y-71547619D01*
X60602380Y-72166666D02*
X60554761Y-72071428D01*
X60507142Y-72023809D01*
X60411904Y-71976190D01*
X60126190Y-71976190D01*
X60030952Y-72023809D01*
X59983333Y-72071428D01*
X59935714Y-72166666D01*
X59935714Y-72309523D01*
X59983333Y-72404761D01*
X60030952Y-72452380D01*
X60126190Y-72500000D01*
X60411904Y-72500000D01*
X60507142Y-72452380D01*
X60554761Y-72404761D01*
X60602380Y-72309523D01*
X60602380Y-72166666D01*
X60602380Y-72928571D02*
X59935714Y-72928571D01*
X60126190Y-72928571D02*
X60030952Y-72976190D01*
X59983333Y-73023809D01*
X59935714Y-73119047D01*
X59935714Y-73214285D01*
X62252380Y-56380952D02*
X61252380Y-56380952D01*
X61252380Y-56619047D01*
X61300000Y-56761904D01*
X61395238Y-56857142D01*
X61490476Y-56904761D01*
X61680952Y-56952380D01*
X61823809Y-56952380D01*
X62014285Y-56904761D01*
X62109523Y-56857142D01*
X62204761Y-56761904D01*
X62252380Y-56619047D01*
X62252380Y-56380952D01*
X61585714Y-57809523D02*
X62252380Y-57809523D01*
X61585714Y-57380952D02*
X62109523Y-57380952D01*
X62204761Y-57428571D01*
X62252380Y-57523809D01*
X62252380Y-57666666D01*
X62204761Y-57761904D01*
X62157142Y-57809523D01*
X62252380Y-58285714D02*
X61252380Y-58285714D01*
X61633333Y-58285714D02*
X61585714Y-58380952D01*
X61585714Y-58571428D01*
X61633333Y-58666666D01*
X61680952Y-58714285D01*
X61776190Y-58761904D01*
X62061904Y-58761904D01*
X62157142Y-58714285D01*
X62204761Y-58666666D01*
X62252380Y-58571428D01*
X62252380Y-58380952D01*
X62204761Y-58285714D01*
X62252380Y-59190476D02*
X61585714Y-59190476D01*
X61252380Y-59190476D02*
X61300000Y-59142857D01*
X61347619Y-59190476D01*
X61300000Y-59238095D01*
X61252380Y-59190476D01*
X61347619Y-59190476D01*
X62252380Y-59809523D02*
X62204761Y-59714285D01*
X62157142Y-59666666D01*
X62061904Y-59619047D01*
X61776190Y-59619047D01*
X61680952Y-59666666D01*
X61633333Y-59714285D01*
X61585714Y-59809523D01*
X61585714Y-59952380D01*
X61633333Y-60047619D01*
X61680952Y-60095238D01*
X61776190Y-60142857D01*
X62061904Y-60142857D01*
X62157142Y-60095238D01*
X62204761Y-60047619D01*
X62252380Y-59952380D01*
X62252380Y-59809523D01*
X61585714Y-61000000D02*
X62252380Y-61000000D01*
X61585714Y-60571428D02*
X62109523Y-60571428D01*
X62204761Y-60619047D01*
X62252380Y-60714285D01*
X62252380Y-60857142D01*
X62204761Y-60952380D01*
X62157142Y-61000000D01*
X62204761Y-61428571D02*
X62252380Y-61523809D01*
X62252380Y-61714285D01*
X62204761Y-61809523D01*
X62109523Y-61857142D01*
X62061904Y-61857142D01*
X61966666Y-61809523D01*
X61919047Y-61714285D01*
X61919047Y-61571428D01*
X61871428Y-61476190D01*
X61776190Y-61428571D01*
X61728571Y-61428571D01*
X61633333Y-61476190D01*
X61585714Y-61571428D01*
X61585714Y-61714285D01*
X61633333Y-61809523D01*
X62157142Y-63619047D02*
X62204761Y-63571428D01*
X62252380Y-63428571D01*
X62252380Y-63333333D01*
X62204761Y-63190476D01*
X62109523Y-63095238D01*
X62014285Y-63047619D01*
X61823809Y-63000000D01*
X61680952Y-63000000D01*
X61490476Y-63047619D01*
X61395238Y-63095238D01*
X61300000Y-63190476D01*
X61252380Y-63333333D01*
X61252380Y-63428571D01*
X61300000Y-63571428D01*
X61347619Y-63619047D01*
X62252380Y-64047619D02*
X61585714Y-64047619D01*
X61776190Y-64047619D02*
X61680952Y-64095238D01*
X61633333Y-64142857D01*
X61585714Y-64238095D01*
X61585714Y-64333333D01*
X62204761Y-65047619D02*
X62252380Y-64952380D01*
X62252380Y-64761904D01*
X62204761Y-64666666D01*
X62109523Y-64619047D01*
X61728571Y-64619047D01*
X61633333Y-64666666D01*
X61585714Y-64761904D01*
X61585714Y-64952380D01*
X61633333Y-65047619D01*
X61728571Y-65095238D01*
X61823809Y-65095238D01*
X61919047Y-64619047D01*
X62252380Y-65952380D02*
X61728571Y-65952380D01*
X61633333Y-65904761D01*
X61585714Y-65809523D01*
X61585714Y-65619047D01*
X61633333Y-65523809D01*
X62204761Y-65952380D02*
X62252380Y-65857142D01*
X62252380Y-65619047D01*
X62204761Y-65523809D01*
X62109523Y-65476190D01*
X62014285Y-65476190D01*
X61919047Y-65523809D01*
X61871428Y-65619047D01*
X61871428Y-65857142D01*
X61823809Y-65952380D01*
X61585714Y-66285714D02*
X61585714Y-66666666D01*
X61252380Y-66428571D02*
X62109523Y-66428571D01*
X62204761Y-66476190D01*
X62252380Y-66571428D01*
X62252380Y-66666666D01*
X62252380Y-67000000D02*
X61585714Y-67000000D01*
X61252380Y-67000000D02*
X61300000Y-66952380D01*
X61347619Y-67000000D01*
X61300000Y-67047619D01*
X61252380Y-67000000D01*
X61347619Y-67000000D01*
X62252380Y-67619047D02*
X62204761Y-67523809D01*
X62157142Y-67476190D01*
X62061904Y-67428571D01*
X61776190Y-67428571D01*
X61680952Y-67476190D01*
X61633333Y-67523809D01*
X61585714Y-67619047D01*
X61585714Y-67761904D01*
X61633333Y-67857142D01*
X61680952Y-67904761D01*
X61776190Y-67952380D01*
X62061904Y-67952380D01*
X62157142Y-67904761D01*
X62204761Y-67857142D01*
X62252380Y-67761904D01*
X62252380Y-67619047D01*
X61585714Y-68380952D02*
X62252380Y-68380952D01*
X61680952Y-68380952D02*
X61633333Y-68428571D01*
X61585714Y-68523809D01*
X61585714Y-68666666D01*
X61633333Y-68761904D01*
X61728571Y-68809523D01*
X62252380Y-68809523D01*
X62204761Y-69238095D02*
X62252380Y-69333333D01*
X62252380Y-69523809D01*
X62204761Y-69619047D01*
X62109523Y-69666666D01*
X62061904Y-69666666D01*
X61966666Y-69619047D01*
X61919047Y-69523809D01*
X61919047Y-69380952D01*
X61871428Y-69285714D01*
X61776190Y-69238095D01*
X61728571Y-69238095D01*
X61633333Y-69285714D01*
X61585714Y-69380952D01*
X61585714Y-69523809D01*
X61633333Y-69619047D01*
X63902380Y-51928571D02*
X62902380Y-51928571D01*
X63902380Y-52357142D02*
X63378571Y-52357142D01*
X63283333Y-52309523D01*
X63235714Y-52214285D01*
X63235714Y-52071428D01*
X63283333Y-51976190D01*
X63330952Y-51928571D01*
X63235714Y-52690476D02*
X63235714Y-53071428D01*
X62902380Y-52833333D02*
X63759523Y-52833333D01*
X63854761Y-52880952D01*
X63902380Y-52976190D01*
X63902380Y-53071428D01*
X63235714Y-53261904D02*
X63235714Y-53642857D01*
X62902380Y-53404761D02*
X63759523Y-53404761D01*
X63854761Y-53452380D01*
X63902380Y-53547619D01*
X63902380Y-53642857D01*
X63235714Y-53976190D02*
X64235714Y-53976190D01*
X63283333Y-53976190D02*
X63235714Y-54071428D01*
X63235714Y-54261904D01*
X63283333Y-54357142D01*
X63330952Y-54404761D01*
X63426190Y-54452380D01*
X63711904Y-54452380D01*
X63807142Y-54404761D01*
X63854761Y-54357142D01*
X63902380Y-54261904D01*
X63902380Y-54071428D01*
X63854761Y-53976190D01*
X63854761Y-54833333D02*
X63902380Y-54928571D01*
X63902380Y-55119047D01*
X63854761Y-55214285D01*
X63759523Y-55261904D01*
X63711904Y-55261904D01*
X63616666Y-55214285D01*
X63569047Y-55119047D01*
X63569047Y-54976190D01*
X63521428Y-54880952D01*
X63426190Y-54833333D01*
X63378571Y-54833333D01*
X63283333Y-54880952D01*
X63235714Y-54976190D01*
X63235714Y-55119047D01*
X63283333Y-55214285D01*
X63807142Y-55690476D02*
X63854761Y-55738095D01*
X63902380Y-55690476D01*
X63854761Y-55642857D01*
X63807142Y-55690476D01*
X63902380Y-55690476D01*
X63283333Y-55690476D02*
X63330952Y-55738095D01*
X63378571Y-55690476D01*
X63330952Y-55642857D01*
X63283333Y-55690476D01*
X63378571Y-55690476D01*
X62854761Y-56880952D02*
X64140476Y-56023809D01*
X62854761Y-57928571D02*
X64140476Y-57071428D01*
X63902380Y-58690476D02*
X62902380Y-58690476D01*
X63854761Y-58690476D02*
X63902380Y-58595238D01*
X63902380Y-58404761D01*
X63854761Y-58309523D01*
X63807142Y-58261904D01*
X63711904Y-58214285D01*
X63426190Y-58214285D01*
X63330952Y-58261904D01*
X63283333Y-58309523D01*
X63235714Y-58404761D01*
X63235714Y-58595238D01*
X63283333Y-58690476D01*
X63235714Y-59595238D02*
X63902380Y-59595238D01*
X63235714Y-59166666D02*
X63759523Y-59166666D01*
X63854761Y-59214285D01*
X63902380Y-59309523D01*
X63902380Y-59452380D01*
X63854761Y-59547619D01*
X63807142Y-59595238D01*
X63902380Y-60071428D02*
X62902380Y-60071428D01*
X63283333Y-60071428D02*
X63235714Y-60166666D01*
X63235714Y-60357142D01*
X63283333Y-60452380D01*
X63330952Y-60499999D01*
X63426190Y-60547619D01*
X63711904Y-60547619D01*
X63807142Y-60499999D01*
X63854761Y-60452380D01*
X63902380Y-60357142D01*
X63902380Y-60166666D01*
X63854761Y-60071428D01*
X63902380Y-60976190D02*
X63235714Y-60976190D01*
X62902380Y-60976190D02*
X62950000Y-60928571D01*
X62997619Y-60976190D01*
X62950000Y-61023809D01*
X62902380Y-60976190D01*
X62997619Y-60976190D01*
X63902380Y-61595238D02*
X63854761Y-61499999D01*
X63807142Y-61452380D01*
X63711904Y-61404761D01*
X63426190Y-61404761D01*
X63330952Y-61452380D01*
X63283333Y-61499999D01*
X63235714Y-61595238D01*
X63235714Y-61738095D01*
X63283333Y-61833333D01*
X63330952Y-61880952D01*
X63426190Y-61928571D01*
X63711904Y-61928571D01*
X63807142Y-61880952D01*
X63854761Y-61833333D01*
X63902380Y-61738095D01*
X63902380Y-61595238D01*
X63235714Y-62785714D02*
X63902380Y-62785714D01*
X63235714Y-62357142D02*
X63759523Y-62357142D01*
X63854761Y-62404761D01*
X63902380Y-62499999D01*
X63902380Y-62642857D01*
X63854761Y-62738095D01*
X63807142Y-62785714D01*
X63854761Y-63214285D02*
X63902380Y-63309523D01*
X63902380Y-63499999D01*
X63854761Y-63595238D01*
X63759523Y-63642857D01*
X63711904Y-63642857D01*
X63616666Y-63595238D01*
X63569047Y-63499999D01*
X63569047Y-63357142D01*
X63521428Y-63261904D01*
X63426190Y-63214285D01*
X63378571Y-63214285D01*
X63283333Y-63261904D01*
X63235714Y-63357142D01*
X63235714Y-63499999D01*
X63283333Y-63595238D01*
X63854761Y-64499999D02*
X63902380Y-64404761D01*
X63902380Y-64214285D01*
X63854761Y-64119047D01*
X63807142Y-64071428D01*
X63711904Y-64023809D01*
X63426190Y-64023809D01*
X63330952Y-64071428D01*
X63283333Y-64119047D01*
X63235714Y-64214285D01*
X63235714Y-64404761D01*
X63283333Y-64499999D01*
X63902380Y-64928571D02*
X63235714Y-64928571D01*
X63426190Y-64928571D02*
X63330952Y-64976190D01*
X63283333Y-65023809D01*
X63235714Y-65119047D01*
X63235714Y-65214285D01*
X63854761Y-65928571D02*
X63902380Y-65833333D01*
X63902380Y-65642857D01*
X63854761Y-65547619D01*
X63759523Y-65499999D01*
X63378571Y-65499999D01*
X63283333Y-65547619D01*
X63235714Y-65642857D01*
X63235714Y-65833333D01*
X63283333Y-65928571D01*
X63378571Y-65976190D01*
X63473809Y-65976190D01*
X63569047Y-65499999D01*
X63902380Y-66833333D02*
X63378571Y-66833333D01*
X63283333Y-66785714D01*
X63235714Y-66690476D01*
X63235714Y-66499999D01*
X63283333Y-66404761D01*
X63854761Y-66833333D02*
X63902380Y-66738095D01*
X63902380Y-66499999D01*
X63854761Y-66404761D01*
X63759523Y-66357142D01*
X63664285Y-66357142D01*
X63569047Y-66404761D01*
X63521428Y-66499999D01*
X63521428Y-66738095D01*
X63473809Y-66833333D01*
X63235714Y-67166666D02*
X63235714Y-67547619D01*
X62902380Y-67309523D02*
X63759523Y-67309523D01*
X63854761Y-67357142D01*
X63902380Y-67452380D01*
X63902380Y-67547619D01*
X63902380Y-67880952D02*
X63235714Y-67880952D01*
X62902380Y-67880952D02*
X62950000Y-67833333D01*
X62997619Y-67880952D01*
X62950000Y-67928571D01*
X62902380Y-67880952D01*
X62997619Y-67880952D01*
X63902380Y-68500000D02*
X63854761Y-68404761D01*
X63807142Y-68357142D01*
X63711904Y-68309523D01*
X63426190Y-68309523D01*
X63330952Y-68357142D01*
X63283333Y-68404761D01*
X63235714Y-68500000D01*
X63235714Y-68642857D01*
X63283333Y-68738095D01*
X63330952Y-68785714D01*
X63426190Y-68833333D01*
X63711904Y-68833333D01*
X63807142Y-68785714D01*
X63854761Y-68738095D01*
X63902380Y-68642857D01*
X63902380Y-68500000D01*
X63235714Y-69261904D02*
X63902380Y-69261904D01*
X63330952Y-69261904D02*
X63283333Y-69309523D01*
X63235714Y-69404761D01*
X63235714Y-69547619D01*
X63283333Y-69642857D01*
X63378571Y-69690476D01*
X63902380Y-69690476D01*
X63854761Y-70119047D02*
X63902380Y-70214285D01*
X63902380Y-70404761D01*
X63854761Y-70500000D01*
X63759523Y-70547619D01*
X63711904Y-70547619D01*
X63616666Y-70500000D01*
X63569047Y-70404761D01*
X63569047Y-70261904D01*
X63521428Y-70166666D01*
X63426190Y-70119047D01*
X63378571Y-70119047D01*
X63283333Y-70166666D01*
X63235714Y-70261904D01*
X63235714Y-70404761D01*
X63283333Y-70500000D01*
X63807142Y-70976190D02*
X63854761Y-71023809D01*
X63902380Y-70976190D01*
X63854761Y-70928571D01*
X63807142Y-70976190D01*
X63902380Y-70976190D01*
X63854761Y-71880952D02*
X63902380Y-71785714D01*
X63902380Y-71595238D01*
X63854761Y-71500000D01*
X63807142Y-71452380D01*
X63711904Y-71404761D01*
X63426190Y-71404761D01*
X63330952Y-71452380D01*
X63283333Y-71500000D01*
X63235714Y-71595238D01*
X63235714Y-71785714D01*
X63283333Y-71880952D01*
X63902380Y-72452380D02*
X63854761Y-72357142D01*
X63807142Y-72309523D01*
X63711904Y-72261904D01*
X63426190Y-72261904D01*
X63330952Y-72309523D01*
X63283333Y-72357142D01*
X63235714Y-72452380D01*
X63235714Y-72595238D01*
X63283333Y-72690476D01*
X63330952Y-72738095D01*
X63426190Y-72785714D01*
X63711904Y-72785714D01*
X63807142Y-72738095D01*
X63854761Y-72690476D01*
X63902380Y-72595238D01*
X63902380Y-72452380D01*
X63902380Y-73214285D02*
X63235714Y-73214285D01*
X63330952Y-73214285D02*
X63283333Y-73261904D01*
X63235714Y-73357142D01*
X63235714Y-73500000D01*
X63283333Y-73595238D01*
X63378571Y-73642857D01*
X63902380Y-73642857D01*
X63378571Y-73642857D02*
X63283333Y-73690476D01*
X63235714Y-73785714D01*
X63235714Y-73928571D01*
X63283333Y-74023809D01*
X63378571Y-74071428D01*
X63902380Y-74071428D01*
X66057142Y-63433333D02*
X66104761Y-63385714D01*
X66152380Y-63242857D01*
X66152380Y-63147619D01*
X66104761Y-63004761D01*
X66009523Y-62909523D01*
X65914285Y-62861904D01*
X65723809Y-62814285D01*
X65580952Y-62814285D01*
X65390476Y-62861904D01*
X65295238Y-62909523D01*
X65200000Y-63004761D01*
X65152380Y-63147619D01*
X65152380Y-63242857D01*
X65200000Y-63385714D01*
X65247619Y-63433333D01*
X65152380Y-63766666D02*
X65152380Y-64385714D01*
X65533333Y-64052380D01*
X65533333Y-64195238D01*
X65580952Y-64290476D01*
X65628571Y-64338095D01*
X65723809Y-64385714D01*
X65961904Y-64385714D01*
X66057142Y-64338095D01*
X66104761Y-64290476D01*
X66152380Y-64195238D01*
X66152380Y-63909523D01*
X66104761Y-63814285D01*
X66057142Y-63766666D01*
X50457142Y-42833333D02*
X50504761Y-42785714D01*
X50552380Y-42642857D01*
X50552380Y-42547619D01*
X50504761Y-42404761D01*
X50409523Y-42309523D01*
X50314285Y-42261904D01*
X50123809Y-42214285D01*
X49980952Y-42214285D01*
X49790476Y-42261904D01*
X49695238Y-42309523D01*
X49600000Y-42404761D01*
X49552380Y-42547619D01*
X49552380Y-42642857D01*
X49600000Y-42785714D01*
X49647619Y-42833333D01*
X50552380Y-43785714D02*
X50552380Y-43214285D01*
X50552380Y-43500000D02*
X49552380Y-43500000D01*
X49695238Y-43404761D01*
X49790476Y-43309523D01*
X49838095Y-43214285D01*
X50452380Y-55557142D02*
X49976190Y-55223809D01*
X50452380Y-54985714D02*
X49452380Y-54985714D01*
X49452380Y-55366666D01*
X49500000Y-55461904D01*
X49547619Y-55509523D01*
X49642857Y-55557142D01*
X49785714Y-55557142D01*
X49880952Y-55509523D01*
X49928571Y-55461904D01*
X49976190Y-55366666D01*
X49976190Y-54985714D01*
X50452380Y-56509523D02*
X50452380Y-55938095D01*
X50452380Y-56223809D02*
X49452380Y-56223809D01*
X49595238Y-56128571D01*
X49690476Y-56033333D01*
X49738095Y-55938095D01*
X49547619Y-56890476D02*
X49500000Y-56938095D01*
X49452380Y-57033333D01*
X49452380Y-57271428D01*
X49500000Y-57366666D01*
X49547619Y-57414285D01*
X49642857Y-57461904D01*
X49738095Y-57461904D01*
X49880952Y-57414285D01*
X50452380Y-56842857D01*
X50452380Y-57461904D01*
X50452380Y-52285714D02*
X49452380Y-52285714D01*
X49452380Y-52523809D01*
X49500000Y-52666666D01*
X49595238Y-52761904D01*
X49690476Y-52809523D01*
X49880952Y-52857142D01*
X50023809Y-52857142D01*
X50214285Y-52809523D01*
X50309523Y-52761904D01*
X50404761Y-52666666D01*
X50452380Y-52523809D01*
X50452380Y-52285714D01*
X50452380Y-53809523D02*
X50452380Y-53238095D01*
X50452380Y-53523809D02*
X49452380Y-53523809D01*
X49595238Y-53428571D01*
X49690476Y-53333333D01*
X49738095Y-53238095D01*
X50452380Y-54761904D02*
X50452380Y-54190476D01*
X50452380Y-54476190D02*
X49452380Y-54476190D01*
X49595238Y-54380952D01*
X49690476Y-54285714D01*
X49738095Y-54190476D01*
X50552380Y-44733333D02*
X50076190Y-44400000D01*
X50552380Y-44161904D02*
X49552380Y-44161904D01*
X49552380Y-44542857D01*
X49600000Y-44638095D01*
X49647619Y-44685714D01*
X49742857Y-44733333D01*
X49885714Y-44733333D01*
X49980952Y-44685714D01*
X50028571Y-44638095D01*
X50076190Y-44542857D01*
X50076190Y-44161904D01*
X49552380Y-45066666D02*
X49552380Y-45685714D01*
X49933333Y-45352380D01*
X49933333Y-45495238D01*
X49980952Y-45590476D01*
X50028571Y-45638095D01*
X50123809Y-45685714D01*
X50361904Y-45685714D01*
X50457142Y-45638095D01*
X50504761Y-45590476D01*
X50552380Y-45495238D01*
X50552380Y-45209523D01*
X50504761Y-45114285D01*
X50457142Y-45066666D01*
X50457142Y-46733333D02*
X50504761Y-46685714D01*
X50552380Y-46542857D01*
X50552380Y-46447619D01*
X50504761Y-46304761D01*
X50409523Y-46209523D01*
X50314285Y-46161904D01*
X50123809Y-46114285D01*
X49980952Y-46114285D01*
X49790476Y-46161904D01*
X49695238Y-46209523D01*
X49600000Y-46304761D01*
X49552380Y-46447619D01*
X49552380Y-46542857D01*
X49600000Y-46685714D01*
X49647619Y-46733333D01*
X49552380Y-47590476D02*
X49552380Y-47400000D01*
X49600000Y-47304761D01*
X49647619Y-47257142D01*
X49790476Y-47161904D01*
X49980952Y-47114285D01*
X50361904Y-47114285D01*
X50457142Y-47161904D01*
X50504761Y-47209523D01*
X50552380Y-47304761D01*
X50552380Y-47495238D01*
X50504761Y-47590476D01*
X50457142Y-47638095D01*
X50361904Y-47685714D01*
X50123809Y-47685714D01*
X50028571Y-47638095D01*
X49980952Y-47590476D01*
X49933333Y-47495238D01*
X49933333Y-47304761D01*
X49980952Y-47209523D01*
X50028571Y-47161904D01*
X50123809Y-47114285D01*
M02*
