M48
; DRILL file {KiCad (5.1.9)-1} date 06/19/21 22:19:17
; FORMAT={-:-/ absolute / inch / decimal}
; #@! TF.CreationDate,2021-06-19T22:19:17+01:00
; #@! TF.GenerationSoftware,Kicad,Pcbnew,(5.1.9)-1
; #@! TF.FileFunction,Plated,1,4,PTH
FMAT,2
INCH
T1C0.0100
T2C0.0200
T3C0.0394
%
G90
G05
T1
X2.0748Y-2.4331
X2.126Y-2.4331
X2.2126Y-2.4803
X2.2598Y-2.3071
X2.4094Y-2.5197
X2.437Y-2.8031
X2.4921Y-2.7953
X2.5Y-2.4449
X2.6142Y-2.4803
X2.6299Y-2.2441
X2.6299Y-2.2795
X2.6339Y-1.8819
X2.6575Y-1.8307
X2.6772Y-2.5236
X2.7323Y-2.7677
T2
X1.9685Y-1.9094
X1.9685Y-2.0276
X1.9685Y-2.2756
X2.0079Y-2.4606
X2.0531Y-2.9783
X2.1102Y-1.7323
X2.1161Y-1.6831
X2.1417Y-2.7244
X2.1417Y-2.815
X2.1555Y-2.3031
X2.2539Y-2.7559
X2.2835Y-1.9291
X2.2835Y-2.0472
X2.311Y-2.9449
X2.4016Y-1.9291
X2.4016Y-2.0472
X2.5748Y-3.0039
T3
G00X2.128Y-3.0965
M15
G01X2.128Y-3.1555
M16
G05
G00X2.5768Y-3.0965
M15
G01X2.5768Y-3.1555
M16
G05
T0
M30
