G04 #@! TF.GenerationSoftware,KiCad,Pcbnew,(5.1.9)-1*
G04 #@! TF.CreationDate,2021-06-19T22:19:12+01:00*
G04 #@! TF.ProjectId,temp_sensor,74656d70-5f73-4656-9e73-6f722e6b6963,rev?*
G04 #@! TF.SameCoordinates,Original*
G04 #@! TF.FileFunction,Other,Fab,Top*
%FSLAX46Y46*%
G04 Gerber Fmt 4.6, Leading zero omitted, Abs format (unit mm)*
G04 Created by KiCad (PCBNEW (5.1.9)-1) date 2021-06-19 22:19:12*
%MOMM*%
%LPD*%
G01*
G04 APERTURE LIST*
%ADD10C,0.100000*%
%ADD11C,0.150000*%
%ADD12C,0.040000*%
%ADD13C,0.060000*%
%ADD14C,0.120000*%
%ADD15C,0.075000*%
G04 APERTURE END LIST*
D10*
X60575000Y-62830000D02*
X61625000Y-62830000D01*
X60575000Y-63370000D02*
X60575000Y-62830000D01*
X61625000Y-63370000D02*
X60575000Y-63370000D01*
X61625000Y-62830000D02*
X61625000Y-63370000D01*
X60575000Y-61730000D02*
X61625000Y-61730000D01*
X60575000Y-62270000D02*
X60575000Y-61730000D01*
X61625000Y-62270000D02*
X60575000Y-62270000D01*
X61625000Y-61730000D02*
X61625000Y-62270000D01*
X65430000Y-64025000D02*
X65430000Y-62975000D01*
X65970000Y-64025000D02*
X65430000Y-64025000D01*
X65970000Y-62975000D02*
X65970000Y-64025000D01*
X65430000Y-62975000D02*
X65970000Y-62975000D01*
X51300000Y-63500000D02*
X51300000Y-65100000D01*
X50500000Y-63500000D02*
X51300000Y-63500000D01*
X50500000Y-65100000D02*
X50500000Y-63500000D01*
X51300000Y-65100000D02*
X50500000Y-65100000D01*
X50270000Y-42275000D02*
X50270000Y-43325000D01*
X49730000Y-42275000D02*
X50270000Y-42275000D01*
X49730000Y-43325000D02*
X49730000Y-42275000D01*
X50270000Y-43325000D02*
X49730000Y-43325000D01*
X60925000Y-72950000D02*
X59950000Y-71975000D01*
X69850000Y-72950000D02*
X60925000Y-72950000D01*
X69850000Y-69050000D02*
X69850000Y-72950000D01*
X59950000Y-69050000D02*
X69850000Y-69050000D01*
X59950000Y-71975000D02*
X59950000Y-69050000D01*
X68750000Y-65350000D02*
X66750000Y-65350000D01*
X66750000Y-65350000D02*
X66750000Y-62850000D01*
X66750000Y-62850000D02*
X69250000Y-62850000D01*
X69250000Y-62850000D02*
X69250000Y-64850000D01*
X69250000Y-64850000D02*
X68750000Y-65350000D01*
X50250000Y-55500000D02*
X50250000Y-56500000D01*
X49750000Y-55500000D02*
X50250000Y-55500000D01*
X49750000Y-56500000D02*
X49750000Y-55500000D01*
X50250000Y-56500000D02*
X49750000Y-56500000D01*
X49500000Y-54200000D02*
X50300000Y-54200000D01*
X49500000Y-52600000D02*
X49500000Y-54200000D01*
X50000000Y-52600000D02*
X49500000Y-52600000D01*
X50300000Y-52900000D02*
X50000000Y-52600000D01*
X50300000Y-54200000D02*
X50300000Y-52900000D01*
X51400000Y-41880000D02*
X51900000Y-41380000D01*
X51900000Y-41380000D02*
X51400000Y-40880000D01*
X51400000Y-41880000D02*
X51400000Y-60660000D01*
X51400000Y-35155000D02*
X69400000Y-35155000D01*
X51400000Y-35155000D02*
X51400000Y-40880000D01*
X51400000Y-60660000D02*
X69400000Y-60660000D01*
X69400000Y-60660000D02*
X69400000Y-35155000D01*
X50950000Y-68450000D02*
X57650000Y-68450000D01*
X57650000Y-72150000D02*
X57650000Y-68450000D01*
X50950000Y-71150000D02*
X50950000Y-68450000D01*
X51950000Y-72150000D02*
X57650000Y-72150000D01*
X51950000Y-72150000D02*
X50950000Y-71150000D01*
X50250000Y-44400000D02*
X50250000Y-45400000D01*
X49750000Y-44400000D02*
X50250000Y-44400000D01*
X49750000Y-45400000D02*
X49750000Y-44400000D01*
X50250000Y-45400000D02*
X49750000Y-45400000D01*
X58500000Y-66150000D02*
X59500000Y-66150000D01*
X58500000Y-66650000D02*
X58500000Y-66150000D01*
X59500000Y-66650000D02*
X58500000Y-66650000D01*
X59500000Y-66150000D02*
X59500000Y-66650000D01*
X59150000Y-65200000D02*
X59150000Y-64200000D01*
X59650000Y-65200000D02*
X59150000Y-65200000D01*
X59650000Y-64200000D02*
X59650000Y-65200000D01*
X59150000Y-64200000D02*
X59650000Y-64200000D01*
X58620000Y-64700000D02*
X58620000Y-63300000D01*
X55580000Y-63300000D02*
X58620000Y-63300000D01*
X56150000Y-64700000D02*
X55580000Y-64150000D01*
X55580000Y-64150000D02*
X55580000Y-63300000D01*
X56150000Y-64700000D02*
X58600000Y-64700000D01*
X55020000Y-64700000D02*
X55020000Y-63300000D01*
X51980000Y-63300000D02*
X55020000Y-63300000D01*
X52550000Y-64700000D02*
X51980000Y-64150000D01*
X51980000Y-64150000D02*
X51980000Y-63300000D01*
X52550000Y-64700000D02*
X55000000Y-64700000D01*
X49750000Y-47500000D02*
X49750000Y-46500000D01*
X50250000Y-47500000D02*
X49750000Y-47500000D01*
X50250000Y-46500000D02*
X50250000Y-47500000D01*
X49750000Y-46500000D02*
X50250000Y-46500000D01*
X59200000Y-70000000D02*
X59200000Y-71600000D01*
X58400000Y-70000000D02*
X59200000Y-70000000D01*
X58400000Y-71600000D02*
X58400000Y-70000000D01*
X59200000Y-71600000D02*
X58400000Y-71600000D01*
X58550000Y-68800000D02*
X58550000Y-67800000D01*
X59050000Y-68800000D02*
X58550000Y-68800000D01*
X59050000Y-67800000D02*
X59050000Y-68800000D01*
X58550000Y-67800000D02*
X59050000Y-67800000D01*
D11*
X60004761Y-62382380D02*
X59433333Y-62382380D01*
X59719047Y-62382380D02*
X59719047Y-61382380D01*
X59623809Y-61525238D01*
X59528571Y-61620476D01*
X59433333Y-61668095D01*
X60623809Y-61382380D02*
X60719047Y-61382380D01*
X60814285Y-61430000D01*
X60861904Y-61477619D01*
X60909523Y-61572857D01*
X60957142Y-61763333D01*
X60957142Y-62001428D01*
X60909523Y-62191904D01*
X60861904Y-62287142D01*
X60814285Y-62334761D01*
X60719047Y-62382380D01*
X60623809Y-62382380D01*
X60528571Y-62334761D01*
X60480952Y-62287142D01*
X60433333Y-62191904D01*
X60385714Y-62001428D01*
X60385714Y-61763333D01*
X60433333Y-61572857D01*
X60480952Y-61477619D01*
X60528571Y-61430000D01*
X60623809Y-61382380D01*
X61385714Y-62382380D02*
X61385714Y-61382380D01*
X61480952Y-62001428D02*
X61766666Y-62382380D01*
X61766666Y-61715714D02*
X61385714Y-62096666D01*
X62766666Y-62382380D02*
X62433333Y-61906190D01*
X62195238Y-62382380D02*
X62195238Y-61382380D01*
X62576190Y-61382380D01*
X62671428Y-61430000D01*
X62719047Y-61477619D01*
X62766666Y-61572857D01*
X62766666Y-61715714D01*
X62719047Y-61810952D01*
X62671428Y-61858571D01*
X62576190Y-61906190D01*
X62195238Y-61906190D01*
D12*
X61056666Y-63217619D02*
X60970000Y-63093809D01*
X60908095Y-63217619D02*
X60908095Y-62957619D01*
X61007142Y-62957619D01*
X61031904Y-62970000D01*
X61044285Y-62982380D01*
X61056666Y-63007142D01*
X61056666Y-63044285D01*
X61044285Y-63069047D01*
X61031904Y-63081428D01*
X61007142Y-63093809D01*
X60908095Y-63093809D01*
X61291904Y-62957619D02*
X61168095Y-62957619D01*
X61155714Y-63081428D01*
X61168095Y-63069047D01*
X61192857Y-63056666D01*
X61254761Y-63056666D01*
X61279523Y-63069047D01*
X61291904Y-63081428D01*
X61304285Y-63106190D01*
X61304285Y-63168095D01*
X61291904Y-63192857D01*
X61279523Y-63205238D01*
X61254761Y-63217619D01*
X61192857Y-63217619D01*
X61168095Y-63205238D01*
X61155714Y-63192857D01*
D11*
X60004761Y-61282380D02*
X59433333Y-61282380D01*
X59719047Y-61282380D02*
X59719047Y-60282380D01*
X59623809Y-60425238D01*
X59528571Y-60520476D01*
X59433333Y-60568095D01*
X60623809Y-60282380D02*
X60719047Y-60282380D01*
X60814285Y-60330000D01*
X60861904Y-60377619D01*
X60909523Y-60472857D01*
X60957142Y-60663333D01*
X60957142Y-60901428D01*
X60909523Y-61091904D01*
X60861904Y-61187142D01*
X60814285Y-61234761D01*
X60719047Y-61282380D01*
X60623809Y-61282380D01*
X60528571Y-61234761D01*
X60480952Y-61187142D01*
X60433333Y-61091904D01*
X60385714Y-60901428D01*
X60385714Y-60663333D01*
X60433333Y-60472857D01*
X60480952Y-60377619D01*
X60528571Y-60330000D01*
X60623809Y-60282380D01*
X61385714Y-61282380D02*
X61385714Y-60282380D01*
X61480952Y-60901428D02*
X61766666Y-61282380D01*
X61766666Y-60615714D02*
X61385714Y-60996666D01*
X62766666Y-61282380D02*
X62433333Y-60806190D01*
X62195238Y-61282380D02*
X62195238Y-60282380D01*
X62576190Y-60282380D01*
X62671428Y-60330000D01*
X62719047Y-60377619D01*
X62766666Y-60472857D01*
X62766666Y-60615714D01*
X62719047Y-60710952D01*
X62671428Y-60758571D01*
X62576190Y-60806190D01*
X62195238Y-60806190D01*
D12*
X61056666Y-62117619D02*
X60970000Y-61993809D01*
X60908095Y-62117619D02*
X60908095Y-61857619D01*
X61007142Y-61857619D01*
X61031904Y-61870000D01*
X61044285Y-61882380D01*
X61056666Y-61907142D01*
X61056666Y-61944285D01*
X61044285Y-61969047D01*
X61031904Y-61981428D01*
X61007142Y-61993809D01*
X60908095Y-61993809D01*
X61279523Y-61944285D02*
X61279523Y-62117619D01*
X61217619Y-61845238D02*
X61155714Y-62030952D01*
X61316666Y-62030952D01*
D11*
X63982380Y-65142857D02*
X63982380Y-65047619D01*
X64030000Y-64952380D01*
X64077619Y-64904761D01*
X64172857Y-64857142D01*
X64363333Y-64809523D01*
X64601428Y-64809523D01*
X64791904Y-64857142D01*
X64887142Y-64904761D01*
X64934761Y-64952380D01*
X64982380Y-65047619D01*
X64982380Y-65142857D01*
X64934761Y-65238095D01*
X64887142Y-65285714D01*
X64791904Y-65333333D01*
X64601428Y-65380952D01*
X64363333Y-65380952D01*
X64172857Y-65333333D01*
X64077619Y-65285714D01*
X64030000Y-65238095D01*
X63982380Y-65142857D01*
X64887142Y-64380952D02*
X64934761Y-64333333D01*
X64982380Y-64380952D01*
X64934761Y-64428571D01*
X64887142Y-64380952D01*
X64982380Y-64380952D01*
X64982380Y-63380952D02*
X64982380Y-63952380D01*
X64982380Y-63666666D02*
X63982380Y-63666666D01*
X64125238Y-63761904D01*
X64220476Y-63857142D01*
X64268095Y-63952380D01*
X64315714Y-62523809D02*
X64982380Y-62523809D01*
X64315714Y-62952380D02*
X64839523Y-62952380D01*
X64934761Y-62904761D01*
X64982380Y-62809523D01*
X64982380Y-62666666D01*
X64934761Y-62571428D01*
X64887142Y-62523809D01*
X64458571Y-61714285D02*
X64458571Y-62047619D01*
X64982380Y-62047619D02*
X63982380Y-62047619D01*
X63982380Y-61571428D01*
D12*
X65792857Y-63543333D02*
X65805238Y-63555714D01*
X65817619Y-63592857D01*
X65817619Y-63617619D01*
X65805238Y-63654761D01*
X65780476Y-63679523D01*
X65755714Y-63691904D01*
X65706190Y-63704285D01*
X65669047Y-63704285D01*
X65619523Y-63691904D01*
X65594761Y-63679523D01*
X65570000Y-63654761D01*
X65557619Y-63617619D01*
X65557619Y-63592857D01*
X65570000Y-63555714D01*
X65582380Y-63543333D01*
X65557619Y-63456666D02*
X65557619Y-63295714D01*
X65656666Y-63382380D01*
X65656666Y-63345238D01*
X65669047Y-63320476D01*
X65681428Y-63308095D01*
X65706190Y-63295714D01*
X65768095Y-63295714D01*
X65792857Y-63308095D01*
X65805238Y-63320476D01*
X65817619Y-63345238D01*
X65817619Y-63419523D01*
X65805238Y-63444285D01*
X65792857Y-63456666D01*
D11*
X51877619Y-65942857D02*
X51830000Y-65895238D01*
X51782380Y-65800000D01*
X51782380Y-65561904D01*
X51830000Y-65466666D01*
X51877619Y-65419047D01*
X51972857Y-65371428D01*
X52068095Y-65371428D01*
X52210952Y-65419047D01*
X52782380Y-65990476D01*
X52782380Y-65371428D01*
X51877619Y-64990476D02*
X51830000Y-64942857D01*
X51782380Y-64847619D01*
X51782380Y-64609523D01*
X51830000Y-64514285D01*
X51877619Y-64466666D01*
X51972857Y-64419047D01*
X52068095Y-64419047D01*
X52210952Y-64466666D01*
X52782380Y-65038095D01*
X52782380Y-64419047D01*
X52115714Y-63561904D02*
X52782380Y-63561904D01*
X52115714Y-63990476D02*
X52639523Y-63990476D01*
X52734761Y-63942857D01*
X52782380Y-63847619D01*
X52782380Y-63704761D01*
X52734761Y-63609523D01*
X52687142Y-63561904D01*
X52258571Y-62752380D02*
X52258571Y-63085714D01*
X52782380Y-63085714D02*
X51782380Y-63085714D01*
X51782380Y-62609523D01*
D13*
X51042857Y-64366666D02*
X51061904Y-64385714D01*
X51080952Y-64442857D01*
X51080952Y-64480952D01*
X51061904Y-64538095D01*
X51023809Y-64576190D01*
X50985714Y-64595238D01*
X50909523Y-64614285D01*
X50852380Y-64614285D01*
X50776190Y-64595238D01*
X50738095Y-64576190D01*
X50700000Y-64538095D01*
X50680952Y-64480952D01*
X50680952Y-64442857D01*
X50700000Y-64385714D01*
X50719047Y-64366666D01*
X50680952Y-64004761D02*
X50680952Y-64195238D01*
X50871428Y-64214285D01*
X50852380Y-64195238D01*
X50833333Y-64157142D01*
X50833333Y-64061904D01*
X50852380Y-64023809D01*
X50871428Y-64004761D01*
X50909523Y-63985714D01*
X51004761Y-63985714D01*
X51042857Y-64004761D01*
X51061904Y-64023809D01*
X51080952Y-64061904D01*
X51080952Y-64157142D01*
X51061904Y-64195238D01*
X51042857Y-64214285D01*
D11*
X51622380Y-43871428D02*
X51622380Y-44442857D01*
X51622380Y-44157142D02*
X50622380Y-44157142D01*
X50765238Y-44252380D01*
X50860476Y-44347619D01*
X50908095Y-44442857D01*
X50622380Y-43252380D02*
X50622380Y-43157142D01*
X50670000Y-43061904D01*
X50717619Y-43014285D01*
X50812857Y-42966666D01*
X51003333Y-42919047D01*
X51241428Y-42919047D01*
X51431904Y-42966666D01*
X51527142Y-43014285D01*
X51574761Y-43061904D01*
X51622380Y-43157142D01*
X51622380Y-43252380D01*
X51574761Y-43347619D01*
X51527142Y-43395238D01*
X51431904Y-43442857D01*
X51241428Y-43490476D01*
X51003333Y-43490476D01*
X50812857Y-43442857D01*
X50717619Y-43395238D01*
X50670000Y-43347619D01*
X50622380Y-43252380D01*
X50955714Y-42061904D02*
X51622380Y-42061904D01*
X50955714Y-42490476D02*
X51479523Y-42490476D01*
X51574761Y-42442857D01*
X51622380Y-42347619D01*
X51622380Y-42204761D01*
X51574761Y-42109523D01*
X51527142Y-42061904D01*
X51098571Y-41252380D02*
X51098571Y-41585714D01*
X51622380Y-41585714D02*
X50622380Y-41585714D01*
X50622380Y-41109523D01*
D12*
X50092857Y-42843333D02*
X50105238Y-42855714D01*
X50117619Y-42892857D01*
X50117619Y-42917619D01*
X50105238Y-42954761D01*
X50080476Y-42979523D01*
X50055714Y-42991904D01*
X50006190Y-43004285D01*
X49969047Y-43004285D01*
X49919523Y-42991904D01*
X49894761Y-42979523D01*
X49870000Y-42954761D01*
X49857619Y-42917619D01*
X49857619Y-42892857D01*
X49870000Y-42855714D01*
X49882380Y-42843333D01*
X50117619Y-42595714D02*
X50117619Y-42744285D01*
X50117619Y-42670000D02*
X49857619Y-42670000D01*
X49894761Y-42694761D01*
X49919523Y-42719523D01*
X49931904Y-42744285D01*
D11*
X71157142Y-73142857D02*
X71204761Y-73190476D01*
X71252380Y-73333333D01*
X71252380Y-73428571D01*
X71204761Y-73571428D01*
X71109523Y-73666666D01*
X71014285Y-73714285D01*
X70823809Y-73761904D01*
X70680952Y-73761904D01*
X70490476Y-73714285D01*
X70395238Y-73666666D01*
X70300000Y-73571428D01*
X70252380Y-73428571D01*
X70252380Y-73333333D01*
X70300000Y-73190476D01*
X70347619Y-73142857D01*
X71252380Y-72714285D02*
X70252380Y-72714285D01*
X70728571Y-72714285D02*
X70728571Y-72142857D01*
X71252380Y-72142857D02*
X70252380Y-72142857D01*
X70252380Y-71761904D02*
X70252380Y-71142857D01*
X70633333Y-71476190D01*
X70633333Y-71333333D01*
X70680952Y-71238095D01*
X70728571Y-71190476D01*
X70823809Y-71142857D01*
X71061904Y-71142857D01*
X71157142Y-71190476D01*
X71204761Y-71238095D01*
X71252380Y-71333333D01*
X71252380Y-71619047D01*
X71204761Y-71714285D01*
X71157142Y-71761904D01*
X70585714Y-70285714D02*
X71252380Y-70285714D01*
X70204761Y-70523809D02*
X70919047Y-70761904D01*
X70919047Y-70142857D01*
X70252380Y-69571428D02*
X70252380Y-69476190D01*
X70300000Y-69380952D01*
X70347619Y-69333333D01*
X70442857Y-69285714D01*
X70633333Y-69238095D01*
X70871428Y-69238095D01*
X71061904Y-69285714D01*
X71157142Y-69333333D01*
X71204761Y-69380952D01*
X71252380Y-69476190D01*
X71252380Y-69571428D01*
X71204761Y-69666666D01*
X71157142Y-69714285D01*
X71061904Y-69761904D01*
X70871428Y-69809523D01*
X70633333Y-69809523D01*
X70442857Y-69761904D01*
X70347619Y-69714285D01*
X70300000Y-69666666D01*
X70252380Y-69571428D01*
X71157142Y-68238095D02*
X71204761Y-68285714D01*
X71252380Y-68428571D01*
X71252380Y-68523809D01*
X71204761Y-68666666D01*
X71109523Y-68761904D01*
X71014285Y-68809523D01*
X70823809Y-68857142D01*
X70680952Y-68857142D01*
X70490476Y-68809523D01*
X70395238Y-68761904D01*
X70300000Y-68666666D01*
X70252380Y-68523809D01*
X70252380Y-68428571D01*
X70300000Y-68285714D01*
X70347619Y-68238095D01*
X64363333Y-71746666D02*
X65156666Y-71746666D01*
X65250000Y-71700000D01*
X65296666Y-71653333D01*
X65343333Y-71560000D01*
X65343333Y-71373333D01*
X65296666Y-71280000D01*
X65250000Y-71233333D01*
X65156666Y-71186666D01*
X64363333Y-71186666D01*
X64690000Y-70300000D02*
X65343333Y-70300000D01*
X64316666Y-70533333D02*
X65016666Y-70766666D01*
X65016666Y-70160000D01*
X57678571Y-78952380D02*
X57678571Y-79761904D01*
X57726190Y-79857142D01*
X57773809Y-79904761D01*
X57869047Y-79952380D01*
X58059523Y-79952380D01*
X58154761Y-79904761D01*
X58202380Y-79857142D01*
X58250000Y-79761904D01*
X58250000Y-78952380D01*
X58678571Y-79904761D02*
X58821428Y-79952380D01*
X59059523Y-79952380D01*
X59154761Y-79904761D01*
X59202380Y-79857142D01*
X59250000Y-79761904D01*
X59250000Y-79666666D01*
X59202380Y-79571428D01*
X59154761Y-79523809D01*
X59059523Y-79476190D01*
X58869047Y-79428571D01*
X58773809Y-79380952D01*
X58726190Y-79333333D01*
X58678571Y-79238095D01*
X58678571Y-79142857D01*
X58726190Y-79047619D01*
X58773809Y-79000000D01*
X58869047Y-78952380D01*
X59107142Y-78952380D01*
X59250000Y-79000000D01*
X60011904Y-79428571D02*
X60154761Y-79476190D01*
X60202380Y-79523809D01*
X60250000Y-79619047D01*
X60250000Y-79761904D01*
X60202380Y-79857142D01*
X60154761Y-79904761D01*
X60059523Y-79952380D01*
X59678571Y-79952380D01*
X59678571Y-78952380D01*
X60011904Y-78952380D01*
X60107142Y-79000000D01*
X60154761Y-79047619D01*
X60202380Y-79142857D01*
X60202380Y-79238095D01*
X60154761Y-79333333D01*
X60107142Y-79380952D01*
X60011904Y-79428571D01*
X59678571Y-79428571D01*
X60440476Y-80047619D02*
X61202380Y-80047619D01*
X61392857Y-79666666D02*
X61869047Y-79666666D01*
X61297619Y-79952380D02*
X61630952Y-78952380D01*
X61964285Y-79952380D01*
X64023809Y-62004761D02*
X64166666Y-62052380D01*
X64404761Y-62052380D01*
X64500000Y-62004761D01*
X64547619Y-61957142D01*
X64595238Y-61861904D01*
X64595238Y-61766666D01*
X64547619Y-61671428D01*
X64500000Y-61623809D01*
X64404761Y-61576190D01*
X64214285Y-61528571D01*
X64119047Y-61480952D01*
X64071428Y-61433333D01*
X64023809Y-61338095D01*
X64023809Y-61242857D01*
X64071428Y-61147619D01*
X64119047Y-61100000D01*
X64214285Y-61052380D01*
X64452380Y-61052380D01*
X64595238Y-61100000D01*
X65023809Y-62052380D02*
X65023809Y-61052380D01*
X65023809Y-61528571D02*
X65595238Y-61528571D01*
X65595238Y-62052380D02*
X65595238Y-61052380D01*
X65928571Y-61052380D02*
X66500000Y-61052380D01*
X66214285Y-62052380D02*
X66214285Y-61052380D01*
X66738095Y-61052380D02*
X67357142Y-61052380D01*
X67023809Y-61433333D01*
X67166666Y-61433333D01*
X67261904Y-61480952D01*
X67309523Y-61528571D01*
X67357142Y-61623809D01*
X67357142Y-61861904D01*
X67309523Y-61957142D01*
X67261904Y-62004761D01*
X67166666Y-62052380D01*
X66880952Y-62052380D01*
X66785714Y-62004761D01*
X66738095Y-61957142D01*
X68309523Y-62052380D02*
X67738095Y-62052380D01*
X68023809Y-62052380D02*
X68023809Y-61052380D01*
X67928571Y-61195238D01*
X67833333Y-61290476D01*
X67738095Y-61338095D01*
X68738095Y-61671428D02*
X69500000Y-61671428D01*
X69976190Y-62052380D02*
X69976190Y-61052380D01*
X70214285Y-61052380D01*
X70357142Y-61100000D01*
X70452380Y-61195238D01*
X70500000Y-61290476D01*
X70547619Y-61480952D01*
X70547619Y-61623809D01*
X70500000Y-61814285D01*
X70452380Y-61909523D01*
X70357142Y-62004761D01*
X70214285Y-62052380D01*
X69976190Y-62052380D01*
X70976190Y-62052380D02*
X70976190Y-61052380D01*
X71404761Y-62004761D02*
X71547619Y-62052380D01*
X71785714Y-62052380D01*
X71880952Y-62004761D01*
X71928571Y-61957142D01*
X71976190Y-61861904D01*
X71976190Y-61766666D01*
X71928571Y-61671428D01*
X71880952Y-61623809D01*
X71785714Y-61576190D01*
X71595238Y-61528571D01*
X71500000Y-61480952D01*
X71452380Y-61433333D01*
X71404761Y-61338095D01*
X71404761Y-61242857D01*
X71452380Y-61147619D01*
X71500000Y-61100000D01*
X71595238Y-61052380D01*
X71833333Y-61052380D01*
X71976190Y-61100000D01*
D13*
X67695238Y-63880952D02*
X67695238Y-64204761D01*
X67714285Y-64242857D01*
X67733333Y-64261904D01*
X67771428Y-64280952D01*
X67847619Y-64280952D01*
X67885714Y-64261904D01*
X67904761Y-64242857D01*
X67923809Y-64204761D01*
X67923809Y-63880952D01*
X68095238Y-63919047D02*
X68114285Y-63900000D01*
X68152380Y-63880952D01*
X68247619Y-63880952D01*
X68285714Y-63900000D01*
X68304761Y-63919047D01*
X68323809Y-63957142D01*
X68323809Y-63995238D01*
X68304761Y-64052380D01*
X68076190Y-64280952D01*
X68323809Y-64280952D01*
D11*
X50955714Y-56785714D02*
X51622380Y-56785714D01*
X50574761Y-57023809D02*
X51289047Y-57261904D01*
X51289047Y-56642857D01*
X50622380Y-56357142D02*
X50622380Y-55690476D01*
X51622380Y-56119047D01*
X51622380Y-54738095D02*
X51146190Y-55071428D01*
X51622380Y-55309523D02*
X50622380Y-55309523D01*
X50622380Y-54928571D01*
X50670000Y-54833333D01*
X50717619Y-54785714D01*
X50812857Y-54738095D01*
X50955714Y-54738095D01*
X51050952Y-54785714D01*
X51098571Y-54833333D01*
X51146190Y-54928571D01*
X51146190Y-55309523D01*
D12*
X50113095Y-56160714D02*
X49994047Y-56244047D01*
X50113095Y-56303571D02*
X49863095Y-56303571D01*
X49863095Y-56208333D01*
X49875000Y-56184523D01*
X49886904Y-56172619D01*
X49910714Y-56160714D01*
X49946428Y-56160714D01*
X49970238Y-56172619D01*
X49982142Y-56184523D01*
X49994047Y-56208333D01*
X49994047Y-56303571D01*
X50113095Y-55922619D02*
X50113095Y-56065476D01*
X50113095Y-55994047D02*
X49863095Y-55994047D01*
X49898809Y-56017857D01*
X49922619Y-56041666D01*
X49934523Y-56065476D01*
X49886904Y-55827380D02*
X49875000Y-55815476D01*
X49863095Y-55791666D01*
X49863095Y-55732142D01*
X49875000Y-55708333D01*
X49886904Y-55696428D01*
X49910714Y-55684523D01*
X49934523Y-55684523D01*
X49970238Y-55696428D01*
X50113095Y-55839285D01*
X50113095Y-55684523D01*
D11*
X47970000Y-54757142D02*
X47922380Y-54852380D01*
X47922380Y-54995238D01*
X47970000Y-55138095D01*
X48065238Y-55233333D01*
X48160476Y-55280952D01*
X48350952Y-55328571D01*
X48493809Y-55328571D01*
X48684285Y-55280952D01*
X48779523Y-55233333D01*
X48874761Y-55138095D01*
X48922380Y-54995238D01*
X48922380Y-54900000D01*
X48874761Y-54757142D01*
X48827142Y-54709523D01*
X48493809Y-54709523D01*
X48493809Y-54900000D01*
X48922380Y-54280952D02*
X48255714Y-54280952D01*
X48446190Y-54280952D02*
X48350952Y-54233333D01*
X48303333Y-54185714D01*
X48255714Y-54090476D01*
X48255714Y-53995238D01*
X48874761Y-53280952D02*
X48922380Y-53376190D01*
X48922380Y-53566666D01*
X48874761Y-53661904D01*
X48779523Y-53709523D01*
X48398571Y-53709523D01*
X48303333Y-53661904D01*
X48255714Y-53566666D01*
X48255714Y-53376190D01*
X48303333Y-53280952D01*
X48398571Y-53233333D01*
X48493809Y-53233333D01*
X48589047Y-53709523D01*
X48874761Y-52423809D02*
X48922380Y-52519047D01*
X48922380Y-52709523D01*
X48874761Y-52804761D01*
X48779523Y-52852380D01*
X48398571Y-52852380D01*
X48303333Y-52804761D01*
X48255714Y-52709523D01*
X48255714Y-52519047D01*
X48303333Y-52423809D01*
X48398571Y-52376190D01*
X48493809Y-52376190D01*
X48589047Y-52852380D01*
X48255714Y-51947619D02*
X48922380Y-51947619D01*
X48350952Y-51947619D02*
X48303333Y-51900000D01*
X48255714Y-51804761D01*
X48255714Y-51661904D01*
X48303333Y-51566666D01*
X48398571Y-51519047D01*
X48922380Y-51519047D01*
D13*
X50080952Y-53885714D02*
X49680952Y-53885714D01*
X49680952Y-53790476D01*
X49700000Y-53733333D01*
X49738095Y-53695238D01*
X49776190Y-53676190D01*
X49852380Y-53657142D01*
X49909523Y-53657142D01*
X49985714Y-53676190D01*
X50023809Y-53695238D01*
X50061904Y-53733333D01*
X50080952Y-53790476D01*
X50080952Y-53885714D01*
X50080952Y-53276190D02*
X50080952Y-53504761D01*
X50080952Y-53390476D02*
X49680952Y-53390476D01*
X49738095Y-53428571D01*
X49776190Y-53466666D01*
X49795238Y-53504761D01*
X50080952Y-52895238D02*
X50080952Y-53123809D01*
X50080952Y-53009523D02*
X49680952Y-53009523D01*
X49738095Y-53047619D01*
X49776190Y-53085714D01*
X49795238Y-53123809D01*
D11*
X53376190Y-62328571D02*
X53709523Y-62328571D01*
X53852380Y-62852380D02*
X53376190Y-62852380D01*
X53376190Y-61852380D01*
X53852380Y-61852380D01*
X54233333Y-62804761D02*
X54376190Y-62852380D01*
X54614285Y-62852380D01*
X54709523Y-62804761D01*
X54757142Y-62757142D01*
X54804761Y-62661904D01*
X54804761Y-62566666D01*
X54757142Y-62471428D01*
X54709523Y-62423809D01*
X54614285Y-62376190D01*
X54423809Y-62328571D01*
X54328571Y-62280952D01*
X54280952Y-62233333D01*
X54233333Y-62138095D01*
X54233333Y-62042857D01*
X54280952Y-61947619D01*
X54328571Y-61900000D01*
X54423809Y-61852380D01*
X54661904Y-61852380D01*
X54804761Y-61900000D01*
X55233333Y-62852380D02*
X55233333Y-61852380D01*
X55614285Y-61852380D01*
X55709523Y-61900000D01*
X55757142Y-61947619D01*
X55804761Y-62042857D01*
X55804761Y-62185714D01*
X55757142Y-62280952D01*
X55709523Y-62328571D01*
X55614285Y-62376190D01*
X55233333Y-62376190D01*
X56138095Y-61852380D02*
X56757142Y-61852380D01*
X56423809Y-62233333D01*
X56566666Y-62233333D01*
X56661904Y-62280952D01*
X56709523Y-62328571D01*
X56757142Y-62423809D01*
X56757142Y-62661904D01*
X56709523Y-62757142D01*
X56661904Y-62804761D01*
X56566666Y-62852380D01*
X56280952Y-62852380D01*
X56185714Y-62804761D01*
X56138095Y-62757142D01*
X57138095Y-61947619D02*
X57185714Y-61900000D01*
X57280952Y-61852380D01*
X57519047Y-61852380D01*
X57614285Y-61900000D01*
X57661904Y-61947619D01*
X57709523Y-62042857D01*
X57709523Y-62138095D01*
X57661904Y-62280952D01*
X57090476Y-62852380D01*
X57709523Y-62852380D01*
X58138095Y-62471428D02*
X58900000Y-62471428D01*
X59280952Y-61852380D02*
X59519047Y-62852380D01*
X59709523Y-62138095D01*
X59900000Y-62852380D01*
X60138095Y-61852380D01*
X61090476Y-62852380D02*
X60757142Y-62376190D01*
X60519047Y-62852380D02*
X60519047Y-61852380D01*
X60900000Y-61852380D01*
X60995238Y-61900000D01*
X61042857Y-61947619D01*
X61090476Y-62042857D01*
X61090476Y-62185714D01*
X61042857Y-62280952D01*
X60995238Y-62328571D01*
X60900000Y-62376190D01*
X60519047Y-62376190D01*
X61709523Y-61852380D02*
X61900000Y-61852380D01*
X61995238Y-61900000D01*
X62090476Y-61995238D01*
X62138095Y-62185714D01*
X62138095Y-62519047D01*
X62090476Y-62709523D01*
X61995238Y-62804761D01*
X61900000Y-62852380D01*
X61709523Y-62852380D01*
X61614285Y-62804761D01*
X61519047Y-62709523D01*
X61471428Y-62519047D01*
X61471428Y-62185714D01*
X61519047Y-61995238D01*
X61614285Y-61900000D01*
X61709523Y-61852380D01*
X62757142Y-61852380D02*
X62947619Y-61852380D01*
X63042857Y-61900000D01*
X63138095Y-61995238D01*
X63185714Y-62185714D01*
X63185714Y-62519047D01*
X63138095Y-62709523D01*
X63042857Y-62804761D01*
X62947619Y-62852380D01*
X62757142Y-62852380D01*
X62661904Y-62804761D01*
X62566666Y-62709523D01*
X62519047Y-62519047D01*
X62519047Y-62185714D01*
X62566666Y-61995238D01*
X62661904Y-61900000D01*
X62757142Y-61852380D01*
X63614285Y-62852380D02*
X63614285Y-61852380D01*
X63947619Y-62566666D01*
X64280952Y-61852380D01*
X64280952Y-62852380D01*
X64757142Y-62471428D02*
X65519047Y-62471428D01*
X65900000Y-61852380D02*
X66519047Y-61852380D01*
X66185714Y-62233333D01*
X66328571Y-62233333D01*
X66423809Y-62280952D01*
X66471428Y-62328571D01*
X66519047Y-62423809D01*
X66519047Y-62661904D01*
X66471428Y-62757142D01*
X66423809Y-62804761D01*
X66328571Y-62852380D01*
X66042857Y-62852380D01*
X65947619Y-62804761D01*
X65900000Y-62757142D01*
X66900000Y-61947619D02*
X66947619Y-61900000D01*
X67042857Y-61852380D01*
X67280952Y-61852380D01*
X67376190Y-61900000D01*
X67423809Y-61947619D01*
X67471428Y-62042857D01*
X67471428Y-62138095D01*
X67423809Y-62280952D01*
X66852380Y-62852380D01*
X67471428Y-62852380D01*
X59638095Y-50352380D02*
X59638095Y-51161904D01*
X59685714Y-51257142D01*
X59733333Y-51304761D01*
X59828571Y-51352380D01*
X60019047Y-51352380D01*
X60114285Y-51304761D01*
X60161904Y-51257142D01*
X60209523Y-51161904D01*
X60209523Y-50352380D01*
X60590476Y-50352380D02*
X61209523Y-50352380D01*
X60876190Y-50733333D01*
X61019047Y-50733333D01*
X61114285Y-50780952D01*
X61161904Y-50828571D01*
X61209523Y-50923809D01*
X61209523Y-51161904D01*
X61161904Y-51257142D01*
X61114285Y-51304761D01*
X61019047Y-51352380D01*
X60733333Y-51352380D01*
X60638095Y-51304761D01*
X60590476Y-51257142D01*
X58966666Y-74728571D02*
X58966666Y-74252380D01*
X59252380Y-74823809D02*
X58252380Y-74490476D01*
X59252380Y-74157142D01*
X58252380Y-73919047D02*
X58252380Y-73252380D01*
X59252380Y-73919047D01*
X59252380Y-73252380D01*
X59252380Y-72347619D02*
X59252380Y-72919047D01*
X59252380Y-72633333D02*
X58252380Y-72633333D01*
X58395238Y-72728571D01*
X58490476Y-72823809D01*
X58538095Y-72919047D01*
X59252380Y-71395238D02*
X59252380Y-71966666D01*
X59252380Y-71680952D02*
X58252380Y-71680952D01*
X58395238Y-71776190D01*
X58490476Y-71871428D01*
X58538095Y-71966666D01*
X59252380Y-70442857D02*
X59252380Y-71014285D01*
X59252380Y-70728571D02*
X58252380Y-70728571D01*
X58395238Y-70823809D01*
X58490476Y-70919047D01*
X58538095Y-71014285D01*
X58252380Y-70109523D02*
X58252380Y-69442857D01*
X59252380Y-69871428D01*
X58871428Y-69061904D02*
X58871428Y-68300000D01*
X58252380Y-67919047D02*
X58252380Y-67300000D01*
X58633333Y-67633333D01*
X58633333Y-67490476D01*
X58680952Y-67395238D01*
X58728571Y-67347619D01*
X58823809Y-67300000D01*
X59061904Y-67300000D01*
X59157142Y-67347619D01*
X59204761Y-67395238D01*
X59252380Y-67490476D01*
X59252380Y-67776190D01*
X59204761Y-67871428D01*
X59157142Y-67919047D01*
X59157142Y-66871428D02*
X59204761Y-66823809D01*
X59252380Y-66871428D01*
X59204761Y-66919047D01*
X59157142Y-66871428D01*
X59252380Y-66871428D01*
X58252380Y-66490476D02*
X58252380Y-65871428D01*
X58633333Y-66204761D01*
X58633333Y-66061904D01*
X58680952Y-65966666D01*
X58728571Y-65919047D01*
X58823809Y-65871428D01*
X59061904Y-65871428D01*
X59157142Y-65919047D01*
X59204761Y-65966666D01*
X59252380Y-66061904D01*
X59252380Y-66347619D01*
X59204761Y-66442857D01*
X59157142Y-66490476D01*
D14*
X53690476Y-69861904D02*
X53690476Y-70509523D01*
X53728571Y-70585714D01*
X53766666Y-70623809D01*
X53842857Y-70661904D01*
X53995238Y-70661904D01*
X54071428Y-70623809D01*
X54109523Y-70585714D01*
X54147619Y-70509523D01*
X54147619Y-69861904D01*
X54947619Y-70661904D02*
X54490476Y-70661904D01*
X54719047Y-70661904D02*
X54719047Y-69861904D01*
X54642857Y-69976190D01*
X54566666Y-70052380D01*
X54490476Y-70090476D01*
D11*
X51622380Y-45995238D02*
X51622380Y-46566666D01*
X51622380Y-46280952D02*
X50622380Y-46280952D01*
X50765238Y-46376190D01*
X50860476Y-46471428D01*
X50908095Y-46566666D01*
X50622380Y-45376190D02*
X50622380Y-45280952D01*
X50670000Y-45185714D01*
X50717619Y-45138095D01*
X50812857Y-45090476D01*
X51003333Y-45042857D01*
X51241428Y-45042857D01*
X51431904Y-45090476D01*
X51527142Y-45138095D01*
X51574761Y-45185714D01*
X51622380Y-45280952D01*
X51622380Y-45376190D01*
X51574761Y-45471428D01*
X51527142Y-45519047D01*
X51431904Y-45566666D01*
X51241428Y-45614285D01*
X51003333Y-45614285D01*
X50812857Y-45566666D01*
X50717619Y-45519047D01*
X50670000Y-45471428D01*
X50622380Y-45376190D01*
X51622380Y-44614285D02*
X50622380Y-44614285D01*
X51241428Y-44519047D02*
X51622380Y-44233333D01*
X50955714Y-44233333D02*
X51336666Y-44614285D01*
X51622380Y-43233333D02*
X51146190Y-43566666D01*
X51622380Y-43804761D02*
X50622380Y-43804761D01*
X50622380Y-43423809D01*
X50670000Y-43328571D01*
X50717619Y-43280952D01*
X50812857Y-43233333D01*
X50955714Y-43233333D01*
X51050952Y-43280952D01*
X51098571Y-43328571D01*
X51146190Y-43423809D01*
X51146190Y-43804761D01*
D12*
X50043095Y-44965666D02*
X49924047Y-45049000D01*
X50043095Y-45108523D02*
X49793095Y-45108523D01*
X49793095Y-45013285D01*
X49805000Y-44989476D01*
X49816904Y-44977571D01*
X49840714Y-44965666D01*
X49876428Y-44965666D01*
X49900238Y-44977571D01*
X49912142Y-44989476D01*
X49924047Y-45013285D01*
X49924047Y-45108523D01*
X49793095Y-44882333D02*
X49793095Y-44727571D01*
X49888333Y-44810904D01*
X49888333Y-44775190D01*
X49900238Y-44751380D01*
X49912142Y-44739476D01*
X49935952Y-44727571D01*
X49995476Y-44727571D01*
X50019285Y-44739476D01*
X50031190Y-44751380D01*
X50043095Y-44775190D01*
X50043095Y-44846619D01*
X50031190Y-44870428D01*
X50019285Y-44882333D01*
D11*
X57904761Y-65682380D02*
X57333333Y-65682380D01*
X57619047Y-65682380D02*
X57619047Y-64682380D01*
X57523809Y-64825238D01*
X57428571Y-64920476D01*
X57333333Y-64968095D01*
X58523809Y-64682380D02*
X58619047Y-64682380D01*
X58714285Y-64730000D01*
X58761904Y-64777619D01*
X58809523Y-64872857D01*
X58857142Y-65063333D01*
X58857142Y-65301428D01*
X58809523Y-65491904D01*
X58761904Y-65587142D01*
X58714285Y-65634761D01*
X58619047Y-65682380D01*
X58523809Y-65682380D01*
X58428571Y-65634761D01*
X58380952Y-65587142D01*
X58333333Y-65491904D01*
X58285714Y-65301428D01*
X58285714Y-65063333D01*
X58333333Y-64872857D01*
X58380952Y-64777619D01*
X58428571Y-64730000D01*
X58523809Y-64682380D01*
X59285714Y-65682380D02*
X59285714Y-64682380D01*
X59380952Y-65301428D02*
X59666666Y-65682380D01*
X59666666Y-65015714D02*
X59285714Y-65396666D01*
X60666666Y-65682380D02*
X60333333Y-65206190D01*
X60095238Y-65682380D02*
X60095238Y-64682380D01*
X60476190Y-64682380D01*
X60571428Y-64730000D01*
X60619047Y-64777619D01*
X60666666Y-64872857D01*
X60666666Y-65015714D01*
X60619047Y-65110952D01*
X60571428Y-65158571D01*
X60476190Y-65206190D01*
X60095238Y-65206190D01*
D12*
X58958333Y-66513095D02*
X58875000Y-66394047D01*
X58815476Y-66513095D02*
X58815476Y-66263095D01*
X58910714Y-66263095D01*
X58934523Y-66275000D01*
X58946428Y-66286904D01*
X58958333Y-66310714D01*
X58958333Y-66346428D01*
X58946428Y-66370238D01*
X58934523Y-66382142D01*
X58910714Y-66394047D01*
X58815476Y-66394047D01*
X59053571Y-66286904D02*
X59065476Y-66275000D01*
X59089285Y-66263095D01*
X59148809Y-66263095D01*
X59172619Y-66275000D01*
X59184523Y-66286904D01*
X59196428Y-66310714D01*
X59196428Y-66334523D01*
X59184523Y-66370238D01*
X59041666Y-66513095D01*
X59196428Y-66513095D01*
D11*
X58682380Y-65795238D02*
X58682380Y-66366666D01*
X58682380Y-66080952D02*
X57682380Y-66080952D01*
X57825238Y-66176190D01*
X57920476Y-66271428D01*
X57968095Y-66366666D01*
X57682380Y-65176190D02*
X57682380Y-65080952D01*
X57730000Y-64985714D01*
X57777619Y-64938095D01*
X57872857Y-64890476D01*
X58063333Y-64842857D01*
X58301428Y-64842857D01*
X58491904Y-64890476D01*
X58587142Y-64938095D01*
X58634761Y-64985714D01*
X58682380Y-65080952D01*
X58682380Y-65176190D01*
X58634761Y-65271428D01*
X58587142Y-65319047D01*
X58491904Y-65366666D01*
X58301428Y-65414285D01*
X58063333Y-65414285D01*
X57872857Y-65366666D01*
X57777619Y-65319047D01*
X57730000Y-65271428D01*
X57682380Y-65176190D01*
X58682380Y-64414285D02*
X57682380Y-64414285D01*
X58301428Y-64319047D02*
X58682380Y-64033333D01*
X58015714Y-64033333D02*
X58396666Y-64414285D01*
X58682380Y-63033333D02*
X58206190Y-63366666D01*
X58682380Y-63604761D02*
X57682380Y-63604761D01*
X57682380Y-63223809D01*
X57730000Y-63128571D01*
X57777619Y-63080952D01*
X57872857Y-63033333D01*
X58015714Y-63033333D01*
X58110952Y-63080952D01*
X58158571Y-63128571D01*
X58206190Y-63223809D01*
X58206190Y-63604761D01*
D12*
X59513095Y-64741666D02*
X59394047Y-64825000D01*
X59513095Y-64884523D02*
X59263095Y-64884523D01*
X59263095Y-64789285D01*
X59275000Y-64765476D01*
X59286904Y-64753571D01*
X59310714Y-64741666D01*
X59346428Y-64741666D01*
X59370238Y-64753571D01*
X59382142Y-64765476D01*
X59394047Y-64789285D01*
X59394047Y-64884523D01*
X59513095Y-64503571D02*
X59513095Y-64646428D01*
X59513095Y-64575000D02*
X59263095Y-64575000D01*
X59298809Y-64598809D01*
X59322619Y-64622619D01*
X59334523Y-64646428D01*
D11*
X60147619Y-67380952D02*
X60100000Y-67476190D01*
X60004761Y-67571428D01*
X59861904Y-67714285D01*
X59814285Y-67809523D01*
X59814285Y-67904761D01*
X60052380Y-67857142D02*
X60004761Y-67952380D01*
X59909523Y-68047619D01*
X59719047Y-68095238D01*
X59385714Y-68095238D01*
X59195238Y-68047619D01*
X59100000Y-67952380D01*
X59052380Y-67857142D01*
X59052380Y-67666666D01*
X59100000Y-67571428D01*
X59195238Y-67476190D01*
X59385714Y-67428571D01*
X59719047Y-67428571D01*
X59909523Y-67476190D01*
X60004761Y-67571428D01*
X60052380Y-67666666D01*
X60052380Y-67857142D01*
X60147619Y-67238095D02*
X60147619Y-66476190D01*
X60052380Y-66238095D02*
X59052380Y-66238095D01*
X60052380Y-65666666D01*
X59052380Y-65666666D01*
X60052380Y-65190476D02*
X59052380Y-65190476D01*
X59052380Y-64809523D01*
X59100000Y-64714285D01*
X59147619Y-64666666D01*
X59242857Y-64619047D01*
X59385714Y-64619047D01*
X59480952Y-64666666D01*
X59528571Y-64714285D01*
X59576190Y-64809523D01*
X59576190Y-65190476D01*
X60052380Y-64190476D02*
X59052380Y-64190476D01*
X60052380Y-63619047D01*
X59052380Y-63619047D01*
X60147619Y-63380952D02*
X60147619Y-62619047D01*
X59528571Y-62047619D02*
X59576190Y-61904761D01*
X59623809Y-61857142D01*
X59719047Y-61809523D01*
X59861904Y-61809523D01*
X59957142Y-61857142D01*
X60004761Y-61904761D01*
X60052380Y-62000000D01*
X60052380Y-62380952D01*
X59052380Y-62380952D01*
X59052380Y-62047619D01*
X59100000Y-61952380D01*
X59147619Y-61904761D01*
X59242857Y-61857142D01*
X59338095Y-61857142D01*
X59433333Y-61904761D01*
X59480952Y-61952380D01*
X59528571Y-62047619D01*
X59528571Y-62380952D01*
X59528571Y-61380952D02*
X59528571Y-61047619D01*
X60052380Y-60904761D02*
X60052380Y-61380952D01*
X59052380Y-61380952D01*
X59052380Y-60904761D01*
X59957142Y-59904761D02*
X60004761Y-59952380D01*
X60052380Y-60095238D01*
X60052380Y-60190476D01*
X60004761Y-60333333D01*
X59909523Y-60428571D01*
X59814285Y-60476190D01*
X59623809Y-60523809D01*
X59480952Y-60523809D01*
X59290476Y-60476190D01*
X59195238Y-60428571D01*
X59100000Y-60333333D01*
X59052380Y-60190476D01*
X59052380Y-60095238D01*
X59100000Y-59952380D01*
X59147619Y-59904761D01*
D15*
X57052380Y-64273809D02*
X57004761Y-64250000D01*
X56957142Y-64202380D01*
X56885714Y-64130952D01*
X56838095Y-64107142D01*
X56790476Y-64107142D01*
X56814285Y-64226190D02*
X56766666Y-64202380D01*
X56719047Y-64154761D01*
X56695238Y-64059523D01*
X56695238Y-63892857D01*
X56719047Y-63797619D01*
X56766666Y-63750000D01*
X56814285Y-63726190D01*
X56909523Y-63726190D01*
X56957142Y-63750000D01*
X57004761Y-63797619D01*
X57028571Y-63892857D01*
X57028571Y-64059523D01*
X57004761Y-64154761D01*
X56957142Y-64202380D01*
X56909523Y-64226190D01*
X56814285Y-64226190D01*
X57219047Y-63773809D02*
X57242857Y-63750000D01*
X57290476Y-63726190D01*
X57409523Y-63726190D01*
X57457142Y-63750000D01*
X57480952Y-63773809D01*
X57504761Y-63821428D01*
X57504761Y-63869047D01*
X57480952Y-63940476D01*
X57195238Y-64226190D01*
X57504761Y-64226190D01*
D11*
X56547619Y-67380952D02*
X56500000Y-67476190D01*
X56404761Y-67571428D01*
X56261904Y-67714285D01*
X56214285Y-67809523D01*
X56214285Y-67904761D01*
X56452380Y-67857142D02*
X56404761Y-67952380D01*
X56309523Y-68047619D01*
X56119047Y-68095238D01*
X55785714Y-68095238D01*
X55595238Y-68047619D01*
X55500000Y-67952380D01*
X55452380Y-67857142D01*
X55452380Y-67666666D01*
X55500000Y-67571428D01*
X55595238Y-67476190D01*
X55785714Y-67428571D01*
X56119047Y-67428571D01*
X56309523Y-67476190D01*
X56404761Y-67571428D01*
X56452380Y-67666666D01*
X56452380Y-67857142D01*
X56547619Y-67238095D02*
X56547619Y-66476190D01*
X56452380Y-66238095D02*
X55452380Y-66238095D01*
X56452380Y-65666666D01*
X55452380Y-65666666D01*
X56452380Y-65190476D02*
X55452380Y-65190476D01*
X55452380Y-64809523D01*
X55500000Y-64714285D01*
X55547619Y-64666666D01*
X55642857Y-64619047D01*
X55785714Y-64619047D01*
X55880952Y-64666666D01*
X55928571Y-64714285D01*
X55976190Y-64809523D01*
X55976190Y-65190476D01*
X56452380Y-64190476D02*
X55452380Y-64190476D01*
X56452380Y-63619047D01*
X55452380Y-63619047D01*
X56547619Y-63380952D02*
X56547619Y-62619047D01*
X55928571Y-62047619D02*
X55976190Y-61904761D01*
X56023809Y-61857142D01*
X56119047Y-61809523D01*
X56261904Y-61809523D01*
X56357142Y-61857142D01*
X56404761Y-61904761D01*
X56452380Y-62000000D01*
X56452380Y-62380952D01*
X55452380Y-62380952D01*
X55452380Y-62047619D01*
X55500000Y-61952380D01*
X55547619Y-61904761D01*
X55642857Y-61857142D01*
X55738095Y-61857142D01*
X55833333Y-61904761D01*
X55880952Y-61952380D01*
X55928571Y-62047619D01*
X55928571Y-62380952D01*
X55928571Y-61380952D02*
X55928571Y-61047619D01*
X56452380Y-60904761D02*
X56452380Y-61380952D01*
X55452380Y-61380952D01*
X55452380Y-60904761D01*
X56357142Y-59904761D02*
X56404761Y-59952380D01*
X56452380Y-60095238D01*
X56452380Y-60190476D01*
X56404761Y-60333333D01*
X56309523Y-60428571D01*
X56214285Y-60476190D01*
X56023809Y-60523809D01*
X55880952Y-60523809D01*
X55690476Y-60476190D01*
X55595238Y-60428571D01*
X55500000Y-60333333D01*
X55452380Y-60190476D01*
X55452380Y-60095238D01*
X55500000Y-59952380D01*
X55547619Y-59904761D01*
D15*
X53452380Y-64273809D02*
X53404761Y-64250000D01*
X53357142Y-64202380D01*
X53285714Y-64130952D01*
X53238095Y-64107142D01*
X53190476Y-64107142D01*
X53214285Y-64226190D02*
X53166666Y-64202380D01*
X53119047Y-64154761D01*
X53095238Y-64059523D01*
X53095238Y-63892857D01*
X53119047Y-63797619D01*
X53166666Y-63750000D01*
X53214285Y-63726190D01*
X53309523Y-63726190D01*
X53357142Y-63750000D01*
X53404761Y-63797619D01*
X53428571Y-63892857D01*
X53428571Y-64059523D01*
X53404761Y-64154761D01*
X53357142Y-64202380D01*
X53309523Y-64226190D01*
X53214285Y-64226190D01*
X53904761Y-64226190D02*
X53619047Y-64226190D01*
X53761904Y-64226190D02*
X53761904Y-63726190D01*
X53714285Y-63797619D01*
X53666666Y-63845238D01*
X53619047Y-63869047D01*
D11*
X48615714Y-48404761D02*
X49282380Y-48404761D01*
X48234761Y-48642857D02*
X48949047Y-48880952D01*
X48949047Y-48261904D01*
X49187142Y-47880952D02*
X49234761Y-47833333D01*
X49282380Y-47880952D01*
X49234761Y-47928571D01*
X49187142Y-47880952D01*
X49282380Y-47880952D01*
X48282380Y-47499999D02*
X48282380Y-46833333D01*
X49282380Y-47261904D01*
X48615714Y-46023809D02*
X49282380Y-46023809D01*
X48615714Y-46452380D02*
X49139523Y-46452380D01*
X49234761Y-46404761D01*
X49282380Y-46309523D01*
X49282380Y-46166666D01*
X49234761Y-46071428D01*
X49187142Y-46023809D01*
X48758571Y-45214285D02*
X48758571Y-45547619D01*
X49282380Y-45547619D02*
X48282380Y-45547619D01*
X48282380Y-45071428D01*
D12*
X50089285Y-47041666D02*
X50101190Y-47053571D01*
X50113095Y-47089285D01*
X50113095Y-47113095D01*
X50101190Y-47148809D01*
X50077380Y-47172619D01*
X50053571Y-47184523D01*
X50005952Y-47196428D01*
X49970238Y-47196428D01*
X49922619Y-47184523D01*
X49898809Y-47172619D01*
X49875000Y-47148809D01*
X49863095Y-47113095D01*
X49863095Y-47089285D01*
X49875000Y-47053571D01*
X49886904Y-47041666D01*
X49863095Y-46827380D02*
X49863095Y-46875000D01*
X49875000Y-46898809D01*
X49886904Y-46910714D01*
X49922619Y-46934523D01*
X49970238Y-46946428D01*
X50065476Y-46946428D01*
X50089285Y-46934523D01*
X50101190Y-46922619D01*
X50113095Y-46898809D01*
X50113095Y-46851190D01*
X50101190Y-46827380D01*
X50089285Y-46815476D01*
X50065476Y-46803571D01*
X50005952Y-46803571D01*
X49982142Y-46815476D01*
X49970238Y-46827380D01*
X49958333Y-46851190D01*
X49958333Y-46898809D01*
X49970238Y-46922619D01*
X49982142Y-46934523D01*
X50005952Y-46946428D01*
D11*
X60682380Y-71395238D02*
X60682380Y-71966666D01*
X60682380Y-71680952D02*
X59682380Y-71680952D01*
X59825238Y-71776190D01*
X59920476Y-71871428D01*
X59968095Y-71966666D01*
X60015714Y-70538095D02*
X60682380Y-70538095D01*
X60015714Y-70966666D02*
X60539523Y-70966666D01*
X60634761Y-70919047D01*
X60682380Y-70823809D01*
X60682380Y-70680952D01*
X60634761Y-70585714D01*
X60587142Y-70538095D01*
X60158571Y-69728571D02*
X60158571Y-70061904D01*
X60682380Y-70061904D02*
X59682380Y-70061904D01*
X59682380Y-69585714D01*
D13*
X58942857Y-70866666D02*
X58961904Y-70885714D01*
X58980952Y-70942857D01*
X58980952Y-70980952D01*
X58961904Y-71038095D01*
X58923809Y-71076190D01*
X58885714Y-71095238D01*
X58809523Y-71114285D01*
X58752380Y-71114285D01*
X58676190Y-71095238D01*
X58638095Y-71076190D01*
X58600000Y-71038095D01*
X58580952Y-70980952D01*
X58580952Y-70942857D01*
X58600000Y-70885714D01*
X58619047Y-70866666D01*
X58714285Y-70523809D02*
X58980952Y-70523809D01*
X58561904Y-70619047D02*
X58847619Y-70714285D01*
X58847619Y-70466666D01*
D11*
X54352380Y-69742857D02*
X54352380Y-69647619D01*
X54400000Y-69552380D01*
X54447619Y-69504761D01*
X54542857Y-69457142D01*
X54733333Y-69409523D01*
X54971428Y-69409523D01*
X55161904Y-69457142D01*
X55257142Y-69504761D01*
X55304761Y-69552380D01*
X55352380Y-69647619D01*
X55352380Y-69742857D01*
X55304761Y-69838095D01*
X55257142Y-69885714D01*
X55161904Y-69933333D01*
X54971428Y-69980952D01*
X54733333Y-69980952D01*
X54542857Y-69933333D01*
X54447619Y-69885714D01*
X54400000Y-69838095D01*
X54352380Y-69742857D01*
X55257142Y-68980952D02*
X55304761Y-68933333D01*
X55352380Y-68980952D01*
X55304761Y-69028571D01*
X55257142Y-68980952D01*
X55352380Y-68980952D01*
X55352380Y-67980952D02*
X55352380Y-68552380D01*
X55352380Y-68266666D02*
X54352380Y-68266666D01*
X54495238Y-68361904D01*
X54590476Y-68457142D01*
X54638095Y-68552380D01*
X54685714Y-67123809D02*
X55352380Y-67123809D01*
X54685714Y-67552380D02*
X55209523Y-67552380D01*
X55304761Y-67504761D01*
X55352380Y-67409523D01*
X55352380Y-67266666D01*
X55304761Y-67171428D01*
X55257142Y-67123809D01*
X54828571Y-66314285D02*
X54828571Y-66647619D01*
X55352380Y-66647619D02*
X54352380Y-66647619D01*
X54352380Y-66171428D01*
D12*
X58889285Y-68341666D02*
X58901190Y-68353571D01*
X58913095Y-68389285D01*
X58913095Y-68413095D01*
X58901190Y-68448809D01*
X58877380Y-68472619D01*
X58853571Y-68484523D01*
X58805952Y-68496428D01*
X58770238Y-68496428D01*
X58722619Y-68484523D01*
X58698809Y-68472619D01*
X58675000Y-68448809D01*
X58663095Y-68413095D01*
X58663095Y-68389285D01*
X58675000Y-68353571D01*
X58686904Y-68341666D01*
X58686904Y-68246428D02*
X58675000Y-68234523D01*
X58663095Y-68210714D01*
X58663095Y-68151190D01*
X58675000Y-68127380D01*
X58686904Y-68115476D01*
X58710714Y-68103571D01*
X58734523Y-68103571D01*
X58770238Y-68115476D01*
X58913095Y-68258333D01*
X58913095Y-68103571D01*
M02*
