G04 #@! TF.GenerationSoftware,KiCad,Pcbnew,(5.1.9)-1*
G04 #@! TF.CreationDate,2021-06-19T22:19:12+01:00*
G04 #@! TF.ProjectId,temp_sensor,74656d70-5f73-4656-9e73-6f722e6b6963,rev?*
G04 #@! TF.SameCoordinates,Original*
G04 #@! TF.FileFunction,Copper,L1,Top*
G04 #@! TF.FilePolarity,Positive*
%FSLAX46Y46*%
G04 Gerber Fmt 4.6, Leading zero omitted, Abs format (unit mm)*
G04 Created by KiCad (PCBNEW (5.1.9)-1) date 2021-06-19 22:19:12*
%MOMM*%
%LPD*%
G01*
G04 APERTURE LIST*
G04 #@! TA.AperFunction,ComponentPad*
%ADD10O,2.000000X3.500000*%
G04 #@! TD*
G04 #@! TA.AperFunction,SMDPad,CuDef*
%ADD11R,1.200000X2.000000*%
G04 #@! TD*
G04 #@! TA.AperFunction,WasherPad*
%ADD12C,1.000000*%
G04 #@! TD*
G04 #@! TA.AperFunction,SMDPad,CuDef*
%ADD13R,0.550000X0.250000*%
G04 #@! TD*
G04 #@! TA.AperFunction,SMDPad,CuDef*
%ADD14C,0.100000*%
G04 #@! TD*
G04 #@! TA.AperFunction,SMDPad,CuDef*
%ADD15R,2.000000X0.900000*%
G04 #@! TD*
G04 #@! TA.AperFunction,SMDPad,CuDef*
%ADD16R,0.900000X2.000000*%
G04 #@! TD*
G04 #@! TA.AperFunction,SMDPad,CuDef*
%ADD17R,5.000000X5.000000*%
G04 #@! TD*
G04 #@! TA.AperFunction,SMDPad,CuDef*
%ADD18R,1.500000X2.000000*%
G04 #@! TD*
G04 #@! TA.AperFunction,SMDPad,CuDef*
%ADD19R,3.800000X2.000000*%
G04 #@! TD*
G04 #@! TA.AperFunction,SMDPad,CuDef*
%ADD20R,0.800000X0.900000*%
G04 #@! TD*
G04 #@! TA.AperFunction,ViaPad*
%ADD21C,0.889000*%
G04 #@! TD*
G04 #@! TA.AperFunction,ViaPad*
%ADD22C,0.508000*%
G04 #@! TD*
G04 #@! TA.AperFunction,Conductor*
%ADD23C,0.635000*%
G04 #@! TD*
G04 #@! TA.AperFunction,Conductor*
%ADD24C,0.203200*%
G04 #@! TD*
G04 #@! TA.AperFunction,Conductor*
%ADD25C,0.304800*%
G04 #@! TD*
G04 #@! TA.AperFunction,Conductor*
%ADD26C,0.152400*%
G04 #@! TD*
G04 APERTURE END LIST*
G04 #@! TA.AperFunction,SMDPad,CuDef*
G36*
G01*
X60860000Y-62915000D02*
X60860000Y-63285000D01*
G75*
G02*
X60725000Y-63420000I-135000J0D01*
G01*
X60455000Y-63420000D01*
G75*
G02*
X60320000Y-63285000I0J135000D01*
G01*
X60320000Y-62915000D01*
G75*
G02*
X60455000Y-62780000I135000J0D01*
G01*
X60725000Y-62780000D01*
G75*
G02*
X60860000Y-62915000I0J-135000D01*
G01*
G37*
G04 #@! TD.AperFunction*
G04 #@! TA.AperFunction,SMDPad,CuDef*
G36*
G01*
X61880000Y-62915000D02*
X61880000Y-63285000D01*
G75*
G02*
X61745000Y-63420000I-135000J0D01*
G01*
X61475000Y-63420000D01*
G75*
G02*
X61340000Y-63285000I0J135000D01*
G01*
X61340000Y-62915000D01*
G75*
G02*
X61475000Y-62780000I135000J0D01*
G01*
X61745000Y-62780000D01*
G75*
G02*
X61880000Y-62915000I0J-135000D01*
G01*
G37*
G04 #@! TD.AperFunction*
G04 #@! TA.AperFunction,SMDPad,CuDef*
G36*
G01*
X60860000Y-61815000D02*
X60860000Y-62185000D01*
G75*
G02*
X60725000Y-62320000I-135000J0D01*
G01*
X60455000Y-62320000D01*
G75*
G02*
X60320000Y-62185000I0J135000D01*
G01*
X60320000Y-61815000D01*
G75*
G02*
X60455000Y-61680000I135000J0D01*
G01*
X60725000Y-61680000D01*
G75*
G02*
X60860000Y-61815000I0J-135000D01*
G01*
G37*
G04 #@! TD.AperFunction*
G04 #@! TA.AperFunction,SMDPad,CuDef*
G36*
G01*
X61880000Y-61815000D02*
X61880000Y-62185000D01*
G75*
G02*
X61745000Y-62320000I-135000J0D01*
G01*
X61475000Y-62320000D01*
G75*
G02*
X61340000Y-62185000I0J135000D01*
G01*
X61340000Y-61815000D01*
G75*
G02*
X61475000Y-61680000I135000J0D01*
G01*
X61745000Y-61680000D01*
G75*
G02*
X61880000Y-61815000I0J-135000D01*
G01*
G37*
G04 #@! TD.AperFunction*
G04 #@! TA.AperFunction,SMDPad,CuDef*
G36*
G01*
X65515000Y-63740000D02*
X65885000Y-63740000D01*
G75*
G02*
X66020000Y-63875000I0J-135000D01*
G01*
X66020000Y-64145000D01*
G75*
G02*
X65885000Y-64280000I-135000J0D01*
G01*
X65515000Y-64280000D01*
G75*
G02*
X65380000Y-64145000I0J135000D01*
G01*
X65380000Y-63875000D01*
G75*
G02*
X65515000Y-63740000I135000J0D01*
G01*
G37*
G04 #@! TD.AperFunction*
G04 #@! TA.AperFunction,SMDPad,CuDef*
G36*
G01*
X65515000Y-62720000D02*
X65885000Y-62720000D01*
G75*
G02*
X66020000Y-62855000I0J-135000D01*
G01*
X66020000Y-63125000D01*
G75*
G02*
X65885000Y-63260000I-135000J0D01*
G01*
X65515000Y-63260000D01*
G75*
G02*
X65380000Y-63125000I0J135000D01*
G01*
X65380000Y-62855000D01*
G75*
G02*
X65515000Y-62720000I135000J0D01*
G01*
G37*
G04 #@! TD.AperFunction*
G04 #@! TA.AperFunction,SMDPad,CuDef*
G36*
G01*
X51156250Y-63950000D02*
X50643750Y-63950000D01*
G75*
G02*
X50425000Y-63731250I0J218750D01*
G01*
X50425000Y-63293750D01*
G75*
G02*
X50643750Y-63075000I218750J0D01*
G01*
X51156250Y-63075000D01*
G75*
G02*
X51375000Y-63293750I0J-218750D01*
G01*
X51375000Y-63731250D01*
G75*
G02*
X51156250Y-63950000I-218750J0D01*
G01*
G37*
G04 #@! TD.AperFunction*
G04 #@! TA.AperFunction,SMDPad,CuDef*
G36*
G01*
X51156250Y-65525000D02*
X50643750Y-65525000D01*
G75*
G02*
X50425000Y-65306250I0J218750D01*
G01*
X50425000Y-64868750D01*
G75*
G02*
X50643750Y-64650000I218750J0D01*
G01*
X51156250Y-64650000D01*
G75*
G02*
X51375000Y-64868750I0J-218750D01*
G01*
X51375000Y-65306250D01*
G75*
G02*
X51156250Y-65525000I-218750J0D01*
G01*
G37*
G04 #@! TD.AperFunction*
G04 #@! TA.AperFunction,SMDPad,CuDef*
G36*
G01*
X50185000Y-42560000D02*
X49815000Y-42560000D01*
G75*
G02*
X49680000Y-42425000I0J135000D01*
G01*
X49680000Y-42155000D01*
G75*
G02*
X49815000Y-42020000I135000J0D01*
G01*
X50185000Y-42020000D01*
G75*
G02*
X50320000Y-42155000I0J-135000D01*
G01*
X50320000Y-42425000D01*
G75*
G02*
X50185000Y-42560000I-135000J0D01*
G01*
G37*
G04 #@! TD.AperFunction*
G04 #@! TA.AperFunction,SMDPad,CuDef*
G36*
G01*
X50185000Y-43580000D02*
X49815000Y-43580000D01*
G75*
G02*
X49680000Y-43445000I0J135000D01*
G01*
X49680000Y-43175000D01*
G75*
G02*
X49815000Y-43040000I135000J0D01*
G01*
X50185000Y-43040000D01*
G75*
G02*
X50320000Y-43175000I0J-135000D01*
G01*
X50320000Y-43445000D01*
G75*
G02*
X50185000Y-43580000I-135000J0D01*
G01*
G37*
G04 #@! TD.AperFunction*
G04 #@! TA.AperFunction,SMDPad,CuDef*
G36*
G01*
X60605000Y-69500000D02*
X60305000Y-69500000D01*
G75*
G02*
X60155000Y-69350000I0J150000D01*
G01*
X60155000Y-67700000D01*
G75*
G02*
X60305000Y-67550000I150000J0D01*
G01*
X60605000Y-67550000D01*
G75*
G02*
X60755000Y-67700000I0J-150000D01*
G01*
X60755000Y-69350000D01*
G75*
G02*
X60605000Y-69500000I-150000J0D01*
G01*
G37*
G04 #@! TD.AperFunction*
G04 #@! TA.AperFunction,SMDPad,CuDef*
G36*
G01*
X61875000Y-69500000D02*
X61575000Y-69500000D01*
G75*
G02*
X61425000Y-69350000I0J150000D01*
G01*
X61425000Y-67700000D01*
G75*
G02*
X61575000Y-67550000I150000J0D01*
G01*
X61875000Y-67550000D01*
G75*
G02*
X62025000Y-67700000I0J-150000D01*
G01*
X62025000Y-69350000D01*
G75*
G02*
X61875000Y-69500000I-150000J0D01*
G01*
G37*
G04 #@! TD.AperFunction*
G04 #@! TA.AperFunction,SMDPad,CuDef*
G36*
G01*
X63145000Y-69500000D02*
X62845000Y-69500000D01*
G75*
G02*
X62695000Y-69350000I0J150000D01*
G01*
X62695000Y-67700000D01*
G75*
G02*
X62845000Y-67550000I150000J0D01*
G01*
X63145000Y-67550000D01*
G75*
G02*
X63295000Y-67700000I0J-150000D01*
G01*
X63295000Y-69350000D01*
G75*
G02*
X63145000Y-69500000I-150000J0D01*
G01*
G37*
G04 #@! TD.AperFunction*
G04 #@! TA.AperFunction,SMDPad,CuDef*
G36*
G01*
X64415000Y-69500000D02*
X64115000Y-69500000D01*
G75*
G02*
X63965000Y-69350000I0J150000D01*
G01*
X63965000Y-67700000D01*
G75*
G02*
X64115000Y-67550000I150000J0D01*
G01*
X64415000Y-67550000D01*
G75*
G02*
X64565000Y-67700000I0J-150000D01*
G01*
X64565000Y-69350000D01*
G75*
G02*
X64415000Y-69500000I-150000J0D01*
G01*
G37*
G04 #@! TD.AperFunction*
G04 #@! TA.AperFunction,SMDPad,CuDef*
G36*
G01*
X65685000Y-69500000D02*
X65385000Y-69500000D01*
G75*
G02*
X65235000Y-69350000I0J150000D01*
G01*
X65235000Y-67700000D01*
G75*
G02*
X65385000Y-67550000I150000J0D01*
G01*
X65685000Y-67550000D01*
G75*
G02*
X65835000Y-67700000I0J-150000D01*
G01*
X65835000Y-69350000D01*
G75*
G02*
X65685000Y-69500000I-150000J0D01*
G01*
G37*
G04 #@! TD.AperFunction*
G04 #@! TA.AperFunction,SMDPad,CuDef*
G36*
G01*
X66955000Y-69500000D02*
X66655000Y-69500000D01*
G75*
G02*
X66505000Y-69350000I0J150000D01*
G01*
X66505000Y-67700000D01*
G75*
G02*
X66655000Y-67550000I150000J0D01*
G01*
X66955000Y-67550000D01*
G75*
G02*
X67105000Y-67700000I0J-150000D01*
G01*
X67105000Y-69350000D01*
G75*
G02*
X66955000Y-69500000I-150000J0D01*
G01*
G37*
G04 #@! TD.AperFunction*
G04 #@! TA.AperFunction,SMDPad,CuDef*
G36*
G01*
X68225000Y-69500000D02*
X67925000Y-69500000D01*
G75*
G02*
X67775000Y-69350000I0J150000D01*
G01*
X67775000Y-67700000D01*
G75*
G02*
X67925000Y-67550000I150000J0D01*
G01*
X68225000Y-67550000D01*
G75*
G02*
X68375000Y-67700000I0J-150000D01*
G01*
X68375000Y-69350000D01*
G75*
G02*
X68225000Y-69500000I-150000J0D01*
G01*
G37*
G04 #@! TD.AperFunction*
G04 #@! TA.AperFunction,SMDPad,CuDef*
G36*
G01*
X69495000Y-69500000D02*
X69195000Y-69500000D01*
G75*
G02*
X69045000Y-69350000I0J150000D01*
G01*
X69045000Y-67700000D01*
G75*
G02*
X69195000Y-67550000I150000J0D01*
G01*
X69495000Y-67550000D01*
G75*
G02*
X69645000Y-67700000I0J-150000D01*
G01*
X69645000Y-69350000D01*
G75*
G02*
X69495000Y-69500000I-150000J0D01*
G01*
G37*
G04 #@! TD.AperFunction*
G04 #@! TA.AperFunction,SMDPad,CuDef*
G36*
G01*
X69495000Y-74450000D02*
X69195000Y-74450000D01*
G75*
G02*
X69045000Y-74300000I0J150000D01*
G01*
X69045000Y-72650000D01*
G75*
G02*
X69195000Y-72500000I150000J0D01*
G01*
X69495000Y-72500000D01*
G75*
G02*
X69645000Y-72650000I0J-150000D01*
G01*
X69645000Y-74300000D01*
G75*
G02*
X69495000Y-74450000I-150000J0D01*
G01*
G37*
G04 #@! TD.AperFunction*
G04 #@! TA.AperFunction,SMDPad,CuDef*
G36*
G01*
X68225000Y-74450000D02*
X67925000Y-74450000D01*
G75*
G02*
X67775000Y-74300000I0J150000D01*
G01*
X67775000Y-72650000D01*
G75*
G02*
X67925000Y-72500000I150000J0D01*
G01*
X68225000Y-72500000D01*
G75*
G02*
X68375000Y-72650000I0J-150000D01*
G01*
X68375000Y-74300000D01*
G75*
G02*
X68225000Y-74450000I-150000J0D01*
G01*
G37*
G04 #@! TD.AperFunction*
G04 #@! TA.AperFunction,SMDPad,CuDef*
G36*
G01*
X66955000Y-74450000D02*
X66655000Y-74450000D01*
G75*
G02*
X66505000Y-74300000I0J150000D01*
G01*
X66505000Y-72650000D01*
G75*
G02*
X66655000Y-72500000I150000J0D01*
G01*
X66955000Y-72500000D01*
G75*
G02*
X67105000Y-72650000I0J-150000D01*
G01*
X67105000Y-74300000D01*
G75*
G02*
X66955000Y-74450000I-150000J0D01*
G01*
G37*
G04 #@! TD.AperFunction*
G04 #@! TA.AperFunction,SMDPad,CuDef*
G36*
G01*
X65685000Y-74450000D02*
X65385000Y-74450000D01*
G75*
G02*
X65235000Y-74300000I0J150000D01*
G01*
X65235000Y-72650000D01*
G75*
G02*
X65385000Y-72500000I150000J0D01*
G01*
X65685000Y-72500000D01*
G75*
G02*
X65835000Y-72650000I0J-150000D01*
G01*
X65835000Y-74300000D01*
G75*
G02*
X65685000Y-74450000I-150000J0D01*
G01*
G37*
G04 #@! TD.AperFunction*
G04 #@! TA.AperFunction,SMDPad,CuDef*
G36*
G01*
X64415000Y-74450000D02*
X64115000Y-74450000D01*
G75*
G02*
X63965000Y-74300000I0J150000D01*
G01*
X63965000Y-72650000D01*
G75*
G02*
X64115000Y-72500000I150000J0D01*
G01*
X64415000Y-72500000D01*
G75*
G02*
X64565000Y-72650000I0J-150000D01*
G01*
X64565000Y-74300000D01*
G75*
G02*
X64415000Y-74450000I-150000J0D01*
G01*
G37*
G04 #@! TD.AperFunction*
G04 #@! TA.AperFunction,SMDPad,CuDef*
G36*
G01*
X63145000Y-74450000D02*
X62845000Y-74450000D01*
G75*
G02*
X62695000Y-74300000I0J150000D01*
G01*
X62695000Y-72650000D01*
G75*
G02*
X62845000Y-72500000I150000J0D01*
G01*
X63145000Y-72500000D01*
G75*
G02*
X63295000Y-72650000I0J-150000D01*
G01*
X63295000Y-74300000D01*
G75*
G02*
X63145000Y-74450000I-150000J0D01*
G01*
G37*
G04 #@! TD.AperFunction*
G04 #@! TA.AperFunction,SMDPad,CuDef*
G36*
G01*
X61875000Y-74450000D02*
X61575000Y-74450000D01*
G75*
G02*
X61425000Y-74300000I0J150000D01*
G01*
X61425000Y-72650000D01*
G75*
G02*
X61575000Y-72500000I150000J0D01*
G01*
X61875000Y-72500000D01*
G75*
G02*
X62025000Y-72650000I0J-150000D01*
G01*
X62025000Y-74300000D01*
G75*
G02*
X61875000Y-74450000I-150000J0D01*
G01*
G37*
G04 #@! TD.AperFunction*
G04 #@! TA.AperFunction,SMDPad,CuDef*
G36*
G01*
X60605000Y-74450000D02*
X60305000Y-74450000D01*
G75*
G02*
X60155000Y-74300000I0J150000D01*
G01*
X60155000Y-72650000D01*
G75*
G02*
X60305000Y-72500000I150000J0D01*
G01*
X60605000Y-72500000D01*
G75*
G02*
X60755000Y-72650000I0J-150000D01*
G01*
X60755000Y-74300000D01*
G75*
G02*
X60605000Y-74450000I-150000J0D01*
G01*
G37*
G04 #@! TD.AperFunction*
D10*
X54050000Y-79400000D03*
X65450000Y-79400000D03*
D11*
X56250000Y-76800000D03*
X58750000Y-76800000D03*
X60750000Y-76800000D03*
X63250000Y-76800000D03*
D12*
X62000000Y-79400000D03*
X57500000Y-79400000D03*
D13*
X69175000Y-64850000D03*
X69175000Y-64350000D03*
X69175000Y-63850000D03*
X69175000Y-63350000D03*
X66825000Y-63350000D03*
X66825000Y-63850000D03*
X66825000Y-64350000D03*
X66825000Y-64850000D03*
G04 #@! TA.AperFunction,SMDPad,CuDef*
D14*
G36*
X67500000Y-63250000D02*
G01*
X68500000Y-63250000D01*
X68500000Y-64650000D01*
X68200000Y-64950000D01*
X67500000Y-64950000D01*
X67500000Y-63250000D01*
G37*
G04 #@! TD.AperFunction*
G04 #@! TA.AperFunction,SMDPad,CuDef*
G36*
G01*
X50172500Y-55810000D02*
X49827500Y-55810000D01*
G75*
G02*
X49680000Y-55662500I0J147500D01*
G01*
X49680000Y-55367500D01*
G75*
G02*
X49827500Y-55220000I147500J0D01*
G01*
X50172500Y-55220000D01*
G75*
G02*
X50320000Y-55367500I0J-147500D01*
G01*
X50320000Y-55662500D01*
G75*
G02*
X50172500Y-55810000I-147500J0D01*
G01*
G37*
G04 #@! TD.AperFunction*
G04 #@! TA.AperFunction,SMDPad,CuDef*
G36*
G01*
X50172500Y-56780000D02*
X49827500Y-56780000D01*
G75*
G02*
X49680000Y-56632500I0J147500D01*
G01*
X49680000Y-56337500D01*
G75*
G02*
X49827500Y-56190000I147500J0D01*
G01*
X50172500Y-56190000D01*
G75*
G02*
X50320000Y-56337500I0J-147500D01*
G01*
X50320000Y-56632500D01*
G75*
G02*
X50172500Y-56780000I-147500J0D01*
G01*
G37*
G04 #@! TD.AperFunction*
G04 #@! TA.AperFunction,SMDPad,CuDef*
G36*
G01*
X49643750Y-53750000D02*
X50156250Y-53750000D01*
G75*
G02*
X50375000Y-53968750I0J-218750D01*
G01*
X50375000Y-54406250D01*
G75*
G02*
X50156250Y-54625000I-218750J0D01*
G01*
X49643750Y-54625000D01*
G75*
G02*
X49425000Y-54406250I0J218750D01*
G01*
X49425000Y-53968750D01*
G75*
G02*
X49643750Y-53750000I218750J0D01*
G01*
G37*
G04 #@! TD.AperFunction*
G04 #@! TA.AperFunction,SMDPad,CuDef*
G36*
G01*
X49643750Y-52175000D02*
X50156250Y-52175000D01*
G75*
G02*
X50375000Y-52393750I0J-218750D01*
G01*
X50375000Y-52831250D01*
G75*
G02*
X50156250Y-53050000I-218750J0D01*
G01*
X49643750Y-53050000D01*
G75*
G02*
X49425000Y-52831250I0J218750D01*
G01*
X49425000Y-52393750D01*
G75*
G02*
X49643750Y-52175000I218750J0D01*
G01*
G37*
G04 #@! TD.AperFunction*
D15*
X68900000Y-42645000D03*
X68900000Y-43915000D03*
X68900000Y-45185000D03*
X68900000Y-46455000D03*
X68900000Y-47725000D03*
X68900000Y-48995000D03*
X68900000Y-50265000D03*
X68900000Y-51535000D03*
X68900000Y-52805000D03*
X68900000Y-54075000D03*
X68900000Y-55345000D03*
X68900000Y-56615000D03*
X68900000Y-57885000D03*
X68900000Y-59155000D03*
D16*
X66115000Y-60155000D03*
X64845000Y-60155000D03*
X63575000Y-60155000D03*
X62305000Y-60155000D03*
X61035000Y-60155000D03*
X59765000Y-60155000D03*
X58495000Y-60155000D03*
X57225000Y-60155000D03*
X55955000Y-60155000D03*
X54685000Y-60155000D03*
D15*
X51900000Y-59155000D03*
X51900000Y-57885000D03*
X51900000Y-56615000D03*
X51900000Y-55345000D03*
X51900000Y-54075000D03*
X51900000Y-52805000D03*
X51900000Y-51535000D03*
X51900000Y-50265000D03*
X51900000Y-48995000D03*
X51900000Y-47725000D03*
X51900000Y-46455000D03*
X51900000Y-45185000D03*
X51900000Y-43915000D03*
X51900000Y-42645000D03*
D17*
X59400000Y-50145000D03*
D18*
X52000000Y-73450000D03*
X56600000Y-73450000D03*
X54300000Y-73450000D03*
D19*
X54300000Y-67150000D03*
G04 #@! TA.AperFunction,SMDPad,CuDef*
G36*
G01*
X50172500Y-44710000D02*
X49827500Y-44710000D01*
G75*
G02*
X49680000Y-44562500I0J147500D01*
G01*
X49680000Y-44267500D01*
G75*
G02*
X49827500Y-44120000I147500J0D01*
G01*
X50172500Y-44120000D01*
G75*
G02*
X50320000Y-44267500I0J-147500D01*
G01*
X50320000Y-44562500D01*
G75*
G02*
X50172500Y-44710000I-147500J0D01*
G01*
G37*
G04 #@! TD.AperFunction*
G04 #@! TA.AperFunction,SMDPad,CuDef*
G36*
G01*
X50172500Y-45680000D02*
X49827500Y-45680000D01*
G75*
G02*
X49680000Y-45532500I0J147500D01*
G01*
X49680000Y-45237500D01*
G75*
G02*
X49827500Y-45090000I147500J0D01*
G01*
X50172500Y-45090000D01*
G75*
G02*
X50320000Y-45237500I0J-147500D01*
G01*
X50320000Y-45532500D01*
G75*
G02*
X50172500Y-45680000I-147500J0D01*
G01*
G37*
G04 #@! TD.AperFunction*
G04 #@! TA.AperFunction,SMDPad,CuDef*
G36*
G01*
X58810000Y-66227500D02*
X58810000Y-66572500D01*
G75*
G02*
X58662500Y-66720000I-147500J0D01*
G01*
X58367500Y-66720000D01*
G75*
G02*
X58220000Y-66572500I0J147500D01*
G01*
X58220000Y-66227500D01*
G75*
G02*
X58367500Y-66080000I147500J0D01*
G01*
X58662500Y-66080000D01*
G75*
G02*
X58810000Y-66227500I0J-147500D01*
G01*
G37*
G04 #@! TD.AperFunction*
G04 #@! TA.AperFunction,SMDPad,CuDef*
G36*
G01*
X59780000Y-66227500D02*
X59780000Y-66572500D01*
G75*
G02*
X59632500Y-66720000I-147500J0D01*
G01*
X59337500Y-66720000D01*
G75*
G02*
X59190000Y-66572500I0J147500D01*
G01*
X59190000Y-66227500D01*
G75*
G02*
X59337500Y-66080000I147500J0D01*
G01*
X59632500Y-66080000D01*
G75*
G02*
X59780000Y-66227500I0J-147500D01*
G01*
G37*
G04 #@! TD.AperFunction*
G04 #@! TA.AperFunction,SMDPad,CuDef*
G36*
G01*
X59227500Y-64890000D02*
X59572500Y-64890000D01*
G75*
G02*
X59720000Y-65037500I0J-147500D01*
G01*
X59720000Y-65332500D01*
G75*
G02*
X59572500Y-65480000I-147500J0D01*
G01*
X59227500Y-65480000D01*
G75*
G02*
X59080000Y-65332500I0J147500D01*
G01*
X59080000Y-65037500D01*
G75*
G02*
X59227500Y-64890000I147500J0D01*
G01*
G37*
G04 #@! TD.AperFunction*
G04 #@! TA.AperFunction,SMDPad,CuDef*
G36*
G01*
X59227500Y-63920000D02*
X59572500Y-63920000D01*
G75*
G02*
X59720000Y-64067500I0J-147500D01*
G01*
X59720000Y-64362500D01*
G75*
G02*
X59572500Y-64510000I-147500J0D01*
G01*
X59227500Y-64510000D01*
G75*
G02*
X59080000Y-64362500I0J147500D01*
G01*
X59080000Y-64067500D01*
G75*
G02*
X59227500Y-63920000I147500J0D01*
G01*
G37*
G04 #@! TD.AperFunction*
D20*
X57100000Y-63000000D03*
X58050000Y-65000000D03*
X56150000Y-65000000D03*
X53500000Y-63000000D03*
X54450000Y-65000000D03*
X52550000Y-65000000D03*
G04 #@! TA.AperFunction,SMDPad,CuDef*
G36*
G01*
X49827500Y-47190000D02*
X50172500Y-47190000D01*
G75*
G02*
X50320000Y-47337500I0J-147500D01*
G01*
X50320000Y-47632500D01*
G75*
G02*
X50172500Y-47780000I-147500J0D01*
G01*
X49827500Y-47780000D01*
G75*
G02*
X49680000Y-47632500I0J147500D01*
G01*
X49680000Y-47337500D01*
G75*
G02*
X49827500Y-47190000I147500J0D01*
G01*
G37*
G04 #@! TD.AperFunction*
G04 #@! TA.AperFunction,SMDPad,CuDef*
G36*
G01*
X49827500Y-46220000D02*
X50172500Y-46220000D01*
G75*
G02*
X50320000Y-46367500I0J-147500D01*
G01*
X50320000Y-46662500D01*
G75*
G02*
X50172500Y-46810000I-147500J0D01*
G01*
X49827500Y-46810000D01*
G75*
G02*
X49680000Y-46662500I0J147500D01*
G01*
X49680000Y-46367500D01*
G75*
G02*
X49827500Y-46220000I147500J0D01*
G01*
G37*
G04 #@! TD.AperFunction*
G04 #@! TA.AperFunction,SMDPad,CuDef*
G36*
G01*
X59056250Y-70450000D02*
X58543750Y-70450000D01*
G75*
G02*
X58325000Y-70231250I0J218750D01*
G01*
X58325000Y-69793750D01*
G75*
G02*
X58543750Y-69575000I218750J0D01*
G01*
X59056250Y-69575000D01*
G75*
G02*
X59275000Y-69793750I0J-218750D01*
G01*
X59275000Y-70231250D01*
G75*
G02*
X59056250Y-70450000I-218750J0D01*
G01*
G37*
G04 #@! TD.AperFunction*
G04 #@! TA.AperFunction,SMDPad,CuDef*
G36*
G01*
X59056250Y-72025000D02*
X58543750Y-72025000D01*
G75*
G02*
X58325000Y-71806250I0J218750D01*
G01*
X58325000Y-71368750D01*
G75*
G02*
X58543750Y-71150000I218750J0D01*
G01*
X59056250Y-71150000D01*
G75*
G02*
X59275000Y-71368750I0J-218750D01*
G01*
X59275000Y-71806250D01*
G75*
G02*
X59056250Y-72025000I-218750J0D01*
G01*
G37*
G04 #@! TD.AperFunction*
G04 #@! TA.AperFunction,SMDPad,CuDef*
G36*
G01*
X58627500Y-68490000D02*
X58972500Y-68490000D01*
G75*
G02*
X59120000Y-68637500I0J-147500D01*
G01*
X59120000Y-68932500D01*
G75*
G02*
X58972500Y-69080000I-147500J0D01*
G01*
X58627500Y-69080000D01*
G75*
G02*
X58480000Y-68932500I0J147500D01*
G01*
X58480000Y-68637500D01*
G75*
G02*
X58627500Y-68490000I147500J0D01*
G01*
G37*
G04 #@! TD.AperFunction*
G04 #@! TA.AperFunction,SMDPad,CuDef*
G36*
G01*
X58627500Y-67520000D02*
X58972500Y-67520000D01*
G75*
G02*
X59120000Y-67667500I0J-147500D01*
G01*
X59120000Y-67962500D01*
G75*
G02*
X58972500Y-68110000I-147500J0D01*
G01*
X58627500Y-68110000D01*
G75*
G02*
X58480000Y-67962500I0J147500D01*
G01*
X58480000Y-67667500D01*
G75*
G02*
X58627500Y-67520000I147500J0D01*
G01*
G37*
G04 #@! TD.AperFunction*
D21*
X57250000Y-70000000D03*
X53750000Y-42750000D03*
X50000000Y-48500000D03*
X50000000Y-51500000D03*
X54750000Y-58500000D03*
X51000000Y-62500000D03*
X52150000Y-75650000D03*
D22*
X68000000Y-64100000D03*
D21*
X58000000Y-49000000D03*
X61000000Y-49000000D03*
X61000000Y-52000000D03*
X58000000Y-52000000D03*
X54400000Y-71500000D03*
X54400000Y-69200000D03*
D22*
X69400000Y-70300000D03*
D21*
X53600000Y-44000000D03*
X50000000Y-57800000D03*
D22*
X54000000Y-61800000D03*
X52700000Y-61800000D03*
X66400000Y-63000000D03*
D21*
X65400000Y-76300000D03*
X58700000Y-74800000D03*
D22*
X57400000Y-58600000D03*
X56200000Y-63000000D03*
X66900000Y-47800000D03*
X61900000Y-71200000D03*
X63300000Y-71000000D03*
X67500000Y-46500000D03*
X66800000Y-57900000D03*
X63500000Y-62100000D03*
X66800000Y-57000000D03*
X61200000Y-64000000D03*
D23*
X58800000Y-68785000D02*
X58800000Y-70012500D01*
D24*
X65700000Y-64010000D02*
X66010000Y-64010000D01*
X66350000Y-64350000D02*
X66825000Y-64350000D01*
X66010000Y-64010000D02*
X66350000Y-64350000D01*
X66825000Y-64850000D02*
X66550000Y-64850000D01*
X66350000Y-64650000D02*
X66350000Y-64350000D01*
X66550000Y-64850000D02*
X66350000Y-64650000D01*
D25*
X59781890Y-72801890D02*
X60455000Y-73475000D01*
X59781890Y-70519390D02*
X59781890Y-72801890D01*
X59275000Y-70012500D02*
X59781890Y-70519390D01*
X58800000Y-70012500D02*
X59275000Y-70012500D01*
D23*
X56250000Y-77200000D02*
X54050000Y-79400000D01*
X56250000Y-76800000D02*
X56250000Y-77200000D01*
X56250000Y-76800000D02*
X53300000Y-76800000D01*
X57262500Y-70012500D02*
X57250000Y-70000000D01*
X58800000Y-70012500D02*
X57262500Y-70012500D01*
X51545000Y-42290000D02*
X51900000Y-42645000D01*
X50000000Y-42290000D02*
X51545000Y-42290000D01*
X53645000Y-42645000D02*
X53750000Y-42750000D01*
X51900000Y-42645000D02*
X53645000Y-42645000D01*
X50000000Y-47485000D02*
X50000000Y-48500000D01*
X49900000Y-51600000D02*
X50000000Y-51500000D01*
X49900000Y-52612500D02*
X49900000Y-51600000D01*
X54685000Y-58565000D02*
X54750000Y-58500000D01*
X54685000Y-60155000D02*
X54685000Y-58565000D01*
X50900000Y-62600000D02*
X51000000Y-62500000D01*
X50900000Y-63512500D02*
X50900000Y-62600000D01*
X52000000Y-75500000D02*
X52150000Y-75650000D01*
X52000000Y-73450000D02*
X52000000Y-75500000D01*
X53300000Y-76800000D02*
X52150000Y-75650000D01*
D24*
X68250000Y-64350000D02*
X68000000Y-64100000D01*
X69175000Y-64350000D02*
X68250000Y-64350000D01*
X67750000Y-64350000D02*
X68000000Y-64100000D01*
X66825000Y-64350000D02*
X67750000Y-64350000D01*
X67250000Y-64850000D02*
X68000000Y-64100000D01*
X66825000Y-64850000D02*
X67250000Y-64850000D01*
D23*
X53750000Y-42750000D02*
X56550000Y-42750000D01*
X59400000Y-45600000D02*
X59400000Y-50145000D01*
X56550000Y-42750000D02*
X59400000Y-45600000D01*
X62355000Y-42645000D02*
X59400000Y-45600000D01*
X68900000Y-42645000D02*
X62355000Y-42645000D01*
X59145000Y-50145000D02*
X58000000Y-49000000D01*
X59400000Y-50145000D02*
X59145000Y-50145000D01*
X59855000Y-50145000D02*
X61000000Y-49000000D01*
X59400000Y-50145000D02*
X59855000Y-50145000D01*
X59400000Y-50400000D02*
X61000000Y-52000000D01*
X59400000Y-50145000D02*
X59400000Y-50400000D01*
X59400000Y-50600000D02*
X58000000Y-52000000D01*
X59400000Y-50145000D02*
X59400000Y-50600000D01*
X54300000Y-71600000D02*
X54400000Y-71500000D01*
X54300000Y-73450000D02*
X54300000Y-71600000D01*
X54400000Y-67250000D02*
X54300000Y-67150000D01*
X54400000Y-69200000D02*
X54400000Y-67250000D01*
X58800000Y-67815000D02*
X58800000Y-67900000D01*
X60455000Y-68525000D02*
X59830000Y-67900000D01*
X58885000Y-67900000D02*
X58800000Y-67815000D01*
X59830000Y-67900000D02*
X58885000Y-67900000D01*
X54965000Y-67815000D02*
X58800000Y-67815000D01*
X54300000Y-67150000D02*
X54965000Y-67815000D01*
D24*
X50000000Y-44415000D02*
X50000000Y-43310000D01*
X50605000Y-43915000D02*
X50000000Y-43310000D01*
X51900000Y-43915000D02*
X50605000Y-43915000D01*
X66060000Y-63350000D02*
X65700000Y-62990000D01*
X66825000Y-63350000D02*
X66060000Y-63350000D01*
D25*
X60455000Y-68525000D02*
X60455000Y-69555000D01*
X60455000Y-69555000D02*
X61000000Y-70100000D01*
X61000000Y-70100000D02*
X63700000Y-70100000D01*
X64265000Y-70665000D02*
X64265000Y-73475000D01*
X63700000Y-70100000D02*
X64265000Y-70665000D01*
X69035000Y-70665000D02*
X69400000Y-70300000D01*
X64265000Y-70665000D02*
X69035000Y-70665000D01*
D23*
X53515000Y-43915000D02*
X53600000Y-44000000D01*
X51900000Y-43915000D02*
X53515000Y-43915000D01*
X50900000Y-65087500D02*
X50900000Y-66200000D01*
X51850000Y-67150000D02*
X54300000Y-67150000D01*
X50900000Y-66200000D02*
X51850000Y-67150000D01*
X50900000Y-65087500D02*
X50287500Y-65087500D01*
X50287500Y-65087500D02*
X49800000Y-64600000D01*
X49800000Y-58000000D02*
X50000000Y-57800000D01*
D24*
X54200000Y-62000000D02*
X54000000Y-61800000D01*
X60490000Y-62000000D02*
X54200000Y-62000000D01*
X49953999Y-61546001D02*
X49800000Y-61700000D01*
X52446001Y-61546001D02*
X49953999Y-61546001D01*
X52700000Y-61800000D02*
X52446001Y-61546001D01*
D23*
X49800000Y-61700000D02*
X49800000Y-58000000D01*
X49800000Y-64600000D02*
X49800000Y-61700000D01*
D24*
X60590000Y-62000000D02*
X60590000Y-63100000D01*
D25*
X65710000Y-63000000D02*
X65700000Y-62990000D01*
X66400000Y-63000000D02*
X65710000Y-63000000D01*
D24*
X51700000Y-45385000D02*
X51900000Y-45185000D01*
X50000000Y-45385000D02*
X51700000Y-45385000D01*
X50000000Y-45385000D02*
X50000000Y-46515000D01*
X51900000Y-45185000D02*
X53085000Y-45185000D01*
X53085000Y-45185000D02*
X53300000Y-45400000D01*
X53300000Y-62800000D02*
X53500000Y-63000000D01*
X53300000Y-45400000D02*
X53300000Y-62800000D01*
D23*
X57950000Y-74800000D02*
X56600000Y-73450000D01*
X58700000Y-74800000D02*
X57950000Y-74800000D01*
X58462500Y-71587500D02*
X56600000Y-73450000D01*
X58800000Y-71587500D02*
X58462500Y-71587500D01*
X64900000Y-76800000D02*
X65400000Y-76300000D01*
X63250000Y-76800000D02*
X64900000Y-76800000D01*
D24*
X54450000Y-65000000D02*
X54450000Y-65350000D01*
X54450000Y-65350000D02*
X54900000Y-65800000D01*
X54900000Y-65800000D02*
X56375250Y-65800000D01*
X56975250Y-66400000D02*
X58515000Y-66400000D01*
X56375250Y-65800000D02*
X56975250Y-66400000D01*
X58515000Y-66815000D02*
X58515000Y-66400000D01*
X58800000Y-67100000D02*
X58515000Y-66815000D01*
X59392690Y-67192690D02*
X59300000Y-67100000D01*
X59300000Y-67100000D02*
X58800000Y-67100000D01*
X62329810Y-68229810D02*
X62329810Y-67429810D01*
X62625000Y-68525000D02*
X62329810Y-68229810D01*
X62092690Y-67192690D02*
X59392690Y-67192690D01*
X62329810Y-67429810D02*
X62092690Y-67192690D01*
X62995000Y-68525000D02*
X62625000Y-68525000D01*
X59400000Y-64215000D02*
X58915000Y-64215000D01*
X58915000Y-64215000D02*
X58700000Y-64000000D01*
X58700000Y-64000000D02*
X53200000Y-64000000D01*
X52550000Y-64650000D02*
X52550000Y-65000000D01*
X53200000Y-64000000D02*
X52550000Y-64650000D01*
X68900000Y-59155000D02*
X67655000Y-59155000D01*
X67655000Y-59155000D02*
X67100000Y-58600000D01*
X67100000Y-58600000D02*
X57400000Y-58600000D01*
X57100000Y-63000000D02*
X56200000Y-63000000D01*
X59215000Y-65000000D02*
X59400000Y-65185000D01*
X58050000Y-65000000D02*
X59215000Y-65000000D01*
X64265000Y-68525000D02*
X63600000Y-67860000D01*
X63600000Y-67511800D02*
X63288200Y-67200000D01*
X63600000Y-67860000D02*
X63600000Y-67511800D01*
X62674750Y-67200000D02*
X62261030Y-66786280D01*
X63288200Y-67200000D02*
X62674750Y-67200000D01*
X61001280Y-66786280D02*
X59400000Y-65185000D01*
X62261030Y-66786280D02*
X61001280Y-66786280D01*
X59485000Y-66400000D02*
X59485000Y-66285000D01*
X58974664Y-65900000D02*
X58849854Y-65775190D01*
X59100000Y-65900000D02*
X58974664Y-65900000D01*
X59485000Y-66285000D02*
X59100000Y-65900000D01*
X56925190Y-65775190D02*
X56150000Y-65000000D01*
X58849854Y-65775190D02*
X56925190Y-65775190D01*
X66975000Y-47725000D02*
X66900000Y-47800000D01*
X68900000Y-47725000D02*
X66975000Y-47725000D01*
X61900000Y-73300000D02*
X61725000Y-73475000D01*
X61900000Y-71200000D02*
X61900000Y-73300000D01*
X62995000Y-71305000D02*
X63300000Y-71000000D01*
X62995000Y-73475000D02*
X62995000Y-71305000D01*
X68855000Y-46500000D02*
X68900000Y-46455000D01*
X67500000Y-46500000D02*
X68855000Y-46500000D01*
X49900000Y-55415000D02*
X50000000Y-55515000D01*
X49900000Y-54187500D02*
X49900000Y-55415000D01*
X51770000Y-56485000D02*
X51900000Y-56615000D01*
X50000000Y-56485000D02*
X51770000Y-56485000D01*
X60750000Y-76800000D02*
X60800000Y-76800000D01*
X60800000Y-76800000D02*
X62300000Y-75300000D01*
X62300000Y-75300000D02*
X66500000Y-75300000D01*
X66805000Y-74995000D02*
X66805000Y-73475000D01*
X66500000Y-75300000D02*
X66805000Y-74995000D01*
X65535000Y-73475000D02*
X65535000Y-74665000D01*
X65535000Y-74665000D02*
X65306410Y-74893590D01*
X58750000Y-76400000D02*
X58750000Y-76800000D01*
X60256410Y-74893590D02*
X58750000Y-76400000D01*
X65306410Y-74893590D02*
X60256410Y-74893590D01*
X68885000Y-57900000D02*
X68900000Y-57885000D01*
X66800000Y-57900000D02*
X68885000Y-57900000D01*
D26*
X69175000Y-64850000D02*
X69750000Y-64850000D01*
X69800000Y-64900000D02*
X69800000Y-66668934D01*
X69750000Y-64850000D02*
X69800000Y-64900000D01*
X63981443Y-66995190D02*
X63551233Y-66564980D01*
X69473744Y-66995190D02*
X63981443Y-66995190D01*
X69800000Y-66668934D02*
X69473744Y-66995190D01*
X63551233Y-66564980D02*
X62964980Y-66564980D01*
X62964980Y-66564980D02*
X62400000Y-66000000D01*
X62400000Y-66000000D02*
X62400000Y-62300000D01*
X62100000Y-62000000D02*
X61610000Y-62000000D01*
X62400000Y-62300000D02*
X62100000Y-62000000D01*
X63400000Y-62000000D02*
X63500000Y-62100000D01*
X61610000Y-62000000D02*
X63400000Y-62000000D01*
D24*
X67185000Y-56615000D02*
X68900000Y-56615000D01*
X66800000Y-57000000D02*
X67185000Y-56615000D01*
D26*
X69602400Y-63350000D02*
X70246390Y-63993990D01*
X69175000Y-63350000D02*
X69602400Y-63350000D01*
X70246390Y-63993990D02*
X70246390Y-66653610D01*
X70246390Y-66653610D02*
X69600000Y-67300000D01*
X63855187Y-67300000D02*
X63424977Y-66869790D01*
X69600000Y-67300000D02*
X63855187Y-67300000D01*
X61610000Y-65668264D02*
X61610000Y-63100000D01*
X62811526Y-66869790D02*
X61610000Y-65668264D01*
X63424977Y-66869790D02*
X62811526Y-66869790D01*
X61610000Y-63590000D02*
X61200000Y-64000000D01*
X61610000Y-63100000D02*
X61610000Y-63590000D01*
M02*
