G04 #@! TF.GenerationSoftware,KiCad,Pcbnew,(5.1.4)-1*
G04 #@! TF.CreationDate,2019-10-13T15:27:17+01:00*
G04 #@! TF.ProjectId,light_control,6c696768-745f-4636-9f6e-74726f6c2e6b,rev?*
G04 #@! TF.SameCoordinates,Original*
G04 #@! TF.FileFunction,Copper,L1,Top*
G04 #@! TF.FilePolarity,Positive*
%FSLAX46Y46*%
G04 Gerber Fmt 4.6, Leading zero omitted, Abs format (unit mm)*
G04 Created by KiCad (PCBNEW (5.1.4)-1) date 2019-10-13 15:27:17*
%MOMM*%
%LPD*%
G04 APERTURE LIST*
%ADD10C,0.100000*%
%ADD11C,0.590000*%
%ADD12C,1.500000*%
%ADD13R,1.500000X1.500000*%
%ADD14C,0.875000*%
%ADD15C,2.400000*%
%ADD16R,2.400000X2.400000*%
%ADD17O,1.700000X1.950000*%
%ADD18C,1.700000*%
%ADD19R,0.800000X0.900000*%
%ADD20R,0.900000X0.800000*%
%ADD21R,0.900000X1.200000*%
%ADD22R,1.200000X0.900000*%
%ADD23R,1.900000X1.200000*%
%ADD24O,1.900000X1.200000*%
%ADD25R,1.900000X1.500000*%
%ADD26C,1.450000*%
%ADD27R,1.350000X0.400000*%
%ADD28R,2.000000X0.900000*%
%ADD29R,0.900000X2.000000*%
%ADD30R,5.000000X5.000000*%
%ADD31C,0.250000*%
%ADD32C,2.600000*%
%ADD33R,2.000000X1.500000*%
%ADD34R,2.000000X3.800000*%
%ADD35R,1.000000X0.750000*%
%ADD36C,0.889000*%
%ADD37C,0.508000*%
%ADD38C,0.635000*%
%ADD39C,0.304800*%
%ADD40C,0.152400*%
G04 APERTURE END LIST*
D10*
G36*
X125876958Y-83280710D02*
G01*
X125891276Y-83282834D01*
X125905317Y-83286351D01*
X125918946Y-83291228D01*
X125932031Y-83297417D01*
X125944447Y-83304858D01*
X125956073Y-83313481D01*
X125966798Y-83323202D01*
X125976519Y-83333927D01*
X125985142Y-83345553D01*
X125992583Y-83357969D01*
X125998772Y-83371054D01*
X126003649Y-83384683D01*
X126007166Y-83398724D01*
X126009290Y-83413042D01*
X126010000Y-83427500D01*
X126010000Y-83772500D01*
X126009290Y-83786958D01*
X126007166Y-83801276D01*
X126003649Y-83815317D01*
X125998772Y-83828946D01*
X125992583Y-83842031D01*
X125985142Y-83854447D01*
X125976519Y-83866073D01*
X125966798Y-83876798D01*
X125956073Y-83886519D01*
X125944447Y-83895142D01*
X125932031Y-83902583D01*
X125918946Y-83908772D01*
X125905317Y-83913649D01*
X125891276Y-83917166D01*
X125876958Y-83919290D01*
X125862500Y-83920000D01*
X125567500Y-83920000D01*
X125553042Y-83919290D01*
X125538724Y-83917166D01*
X125524683Y-83913649D01*
X125511054Y-83908772D01*
X125497969Y-83902583D01*
X125485553Y-83895142D01*
X125473927Y-83886519D01*
X125463202Y-83876798D01*
X125453481Y-83866073D01*
X125444858Y-83854447D01*
X125437417Y-83842031D01*
X125431228Y-83828946D01*
X125426351Y-83815317D01*
X125422834Y-83801276D01*
X125420710Y-83786958D01*
X125420000Y-83772500D01*
X125420000Y-83427500D01*
X125420710Y-83413042D01*
X125422834Y-83398724D01*
X125426351Y-83384683D01*
X125431228Y-83371054D01*
X125437417Y-83357969D01*
X125444858Y-83345553D01*
X125453481Y-83333927D01*
X125463202Y-83323202D01*
X125473927Y-83313481D01*
X125485553Y-83304858D01*
X125497969Y-83297417D01*
X125511054Y-83291228D01*
X125524683Y-83286351D01*
X125538724Y-83282834D01*
X125553042Y-83280710D01*
X125567500Y-83280000D01*
X125862500Y-83280000D01*
X125876958Y-83280710D01*
X125876958Y-83280710D01*
G37*
D11*
X125715000Y-83600000D03*
D10*
G36*
X126846958Y-83280710D02*
G01*
X126861276Y-83282834D01*
X126875317Y-83286351D01*
X126888946Y-83291228D01*
X126902031Y-83297417D01*
X126914447Y-83304858D01*
X126926073Y-83313481D01*
X126936798Y-83323202D01*
X126946519Y-83333927D01*
X126955142Y-83345553D01*
X126962583Y-83357969D01*
X126968772Y-83371054D01*
X126973649Y-83384683D01*
X126977166Y-83398724D01*
X126979290Y-83413042D01*
X126980000Y-83427500D01*
X126980000Y-83772500D01*
X126979290Y-83786958D01*
X126977166Y-83801276D01*
X126973649Y-83815317D01*
X126968772Y-83828946D01*
X126962583Y-83842031D01*
X126955142Y-83854447D01*
X126946519Y-83866073D01*
X126936798Y-83876798D01*
X126926073Y-83886519D01*
X126914447Y-83895142D01*
X126902031Y-83902583D01*
X126888946Y-83908772D01*
X126875317Y-83913649D01*
X126861276Y-83917166D01*
X126846958Y-83919290D01*
X126832500Y-83920000D01*
X126537500Y-83920000D01*
X126523042Y-83919290D01*
X126508724Y-83917166D01*
X126494683Y-83913649D01*
X126481054Y-83908772D01*
X126467969Y-83902583D01*
X126455553Y-83895142D01*
X126443927Y-83886519D01*
X126433202Y-83876798D01*
X126423481Y-83866073D01*
X126414858Y-83854447D01*
X126407417Y-83842031D01*
X126401228Y-83828946D01*
X126396351Y-83815317D01*
X126392834Y-83801276D01*
X126390710Y-83786958D01*
X126390000Y-83772500D01*
X126390000Y-83427500D01*
X126390710Y-83413042D01*
X126392834Y-83398724D01*
X126396351Y-83384683D01*
X126401228Y-83371054D01*
X126407417Y-83357969D01*
X126414858Y-83345553D01*
X126423481Y-83333927D01*
X126433202Y-83323202D01*
X126443927Y-83313481D01*
X126455553Y-83304858D01*
X126467969Y-83297417D01*
X126481054Y-83291228D01*
X126494683Y-83286351D01*
X126508724Y-83282834D01*
X126523042Y-83280710D01*
X126537500Y-83280000D01*
X126832500Y-83280000D01*
X126846958Y-83280710D01*
X126846958Y-83280710D01*
G37*
D11*
X126685000Y-83600000D03*
D12*
X137520000Y-84100000D03*
X134980000Y-84100000D03*
X132440000Y-84100000D03*
D13*
X129900000Y-84100000D03*
D10*
G36*
X159646958Y-64980710D02*
G01*
X159661276Y-64982834D01*
X159675317Y-64986351D01*
X159688946Y-64991228D01*
X159702031Y-64997417D01*
X159714447Y-65004858D01*
X159726073Y-65013481D01*
X159736798Y-65023202D01*
X159746519Y-65033927D01*
X159755142Y-65045553D01*
X159762583Y-65057969D01*
X159768772Y-65071054D01*
X159773649Y-65084683D01*
X159777166Y-65098724D01*
X159779290Y-65113042D01*
X159780000Y-65127500D01*
X159780000Y-65472500D01*
X159779290Y-65486958D01*
X159777166Y-65501276D01*
X159773649Y-65515317D01*
X159768772Y-65528946D01*
X159762583Y-65542031D01*
X159755142Y-65554447D01*
X159746519Y-65566073D01*
X159736798Y-65576798D01*
X159726073Y-65586519D01*
X159714447Y-65595142D01*
X159702031Y-65602583D01*
X159688946Y-65608772D01*
X159675317Y-65613649D01*
X159661276Y-65617166D01*
X159646958Y-65619290D01*
X159632500Y-65620000D01*
X159337500Y-65620000D01*
X159323042Y-65619290D01*
X159308724Y-65617166D01*
X159294683Y-65613649D01*
X159281054Y-65608772D01*
X159267969Y-65602583D01*
X159255553Y-65595142D01*
X159243927Y-65586519D01*
X159233202Y-65576798D01*
X159223481Y-65566073D01*
X159214858Y-65554447D01*
X159207417Y-65542031D01*
X159201228Y-65528946D01*
X159196351Y-65515317D01*
X159192834Y-65501276D01*
X159190710Y-65486958D01*
X159190000Y-65472500D01*
X159190000Y-65127500D01*
X159190710Y-65113042D01*
X159192834Y-65098724D01*
X159196351Y-65084683D01*
X159201228Y-65071054D01*
X159207417Y-65057969D01*
X159214858Y-65045553D01*
X159223481Y-65033927D01*
X159233202Y-65023202D01*
X159243927Y-65013481D01*
X159255553Y-65004858D01*
X159267969Y-64997417D01*
X159281054Y-64991228D01*
X159294683Y-64986351D01*
X159308724Y-64982834D01*
X159323042Y-64980710D01*
X159337500Y-64980000D01*
X159632500Y-64980000D01*
X159646958Y-64980710D01*
X159646958Y-64980710D01*
G37*
D11*
X159485000Y-65300000D03*
D10*
G36*
X158676958Y-64980710D02*
G01*
X158691276Y-64982834D01*
X158705317Y-64986351D01*
X158718946Y-64991228D01*
X158732031Y-64997417D01*
X158744447Y-65004858D01*
X158756073Y-65013481D01*
X158766798Y-65023202D01*
X158776519Y-65033927D01*
X158785142Y-65045553D01*
X158792583Y-65057969D01*
X158798772Y-65071054D01*
X158803649Y-65084683D01*
X158807166Y-65098724D01*
X158809290Y-65113042D01*
X158810000Y-65127500D01*
X158810000Y-65472500D01*
X158809290Y-65486958D01*
X158807166Y-65501276D01*
X158803649Y-65515317D01*
X158798772Y-65528946D01*
X158792583Y-65542031D01*
X158785142Y-65554447D01*
X158776519Y-65566073D01*
X158766798Y-65576798D01*
X158756073Y-65586519D01*
X158744447Y-65595142D01*
X158732031Y-65602583D01*
X158718946Y-65608772D01*
X158705317Y-65613649D01*
X158691276Y-65617166D01*
X158676958Y-65619290D01*
X158662500Y-65620000D01*
X158367500Y-65620000D01*
X158353042Y-65619290D01*
X158338724Y-65617166D01*
X158324683Y-65613649D01*
X158311054Y-65608772D01*
X158297969Y-65602583D01*
X158285553Y-65595142D01*
X158273927Y-65586519D01*
X158263202Y-65576798D01*
X158253481Y-65566073D01*
X158244858Y-65554447D01*
X158237417Y-65542031D01*
X158231228Y-65528946D01*
X158226351Y-65515317D01*
X158222834Y-65501276D01*
X158220710Y-65486958D01*
X158220000Y-65472500D01*
X158220000Y-65127500D01*
X158220710Y-65113042D01*
X158222834Y-65098724D01*
X158226351Y-65084683D01*
X158231228Y-65071054D01*
X158237417Y-65057969D01*
X158244858Y-65045553D01*
X158253481Y-65033927D01*
X158263202Y-65023202D01*
X158273927Y-65013481D01*
X158285553Y-65004858D01*
X158297969Y-64997417D01*
X158311054Y-64991228D01*
X158324683Y-64986351D01*
X158338724Y-64982834D01*
X158353042Y-64980710D01*
X158367500Y-64980000D01*
X158662500Y-64980000D01*
X158676958Y-64980710D01*
X158676958Y-64980710D01*
G37*
D11*
X158515000Y-65300000D03*
D10*
G36*
X156546958Y-64980710D02*
G01*
X156561276Y-64982834D01*
X156575317Y-64986351D01*
X156588946Y-64991228D01*
X156602031Y-64997417D01*
X156614447Y-65004858D01*
X156626073Y-65013481D01*
X156636798Y-65023202D01*
X156646519Y-65033927D01*
X156655142Y-65045553D01*
X156662583Y-65057969D01*
X156668772Y-65071054D01*
X156673649Y-65084683D01*
X156677166Y-65098724D01*
X156679290Y-65113042D01*
X156680000Y-65127500D01*
X156680000Y-65472500D01*
X156679290Y-65486958D01*
X156677166Y-65501276D01*
X156673649Y-65515317D01*
X156668772Y-65528946D01*
X156662583Y-65542031D01*
X156655142Y-65554447D01*
X156646519Y-65566073D01*
X156636798Y-65576798D01*
X156626073Y-65586519D01*
X156614447Y-65595142D01*
X156602031Y-65602583D01*
X156588946Y-65608772D01*
X156575317Y-65613649D01*
X156561276Y-65617166D01*
X156546958Y-65619290D01*
X156532500Y-65620000D01*
X156237500Y-65620000D01*
X156223042Y-65619290D01*
X156208724Y-65617166D01*
X156194683Y-65613649D01*
X156181054Y-65608772D01*
X156167969Y-65602583D01*
X156155553Y-65595142D01*
X156143927Y-65586519D01*
X156133202Y-65576798D01*
X156123481Y-65566073D01*
X156114858Y-65554447D01*
X156107417Y-65542031D01*
X156101228Y-65528946D01*
X156096351Y-65515317D01*
X156092834Y-65501276D01*
X156090710Y-65486958D01*
X156090000Y-65472500D01*
X156090000Y-65127500D01*
X156090710Y-65113042D01*
X156092834Y-65098724D01*
X156096351Y-65084683D01*
X156101228Y-65071054D01*
X156107417Y-65057969D01*
X156114858Y-65045553D01*
X156123481Y-65033927D01*
X156133202Y-65023202D01*
X156143927Y-65013481D01*
X156155553Y-65004858D01*
X156167969Y-64997417D01*
X156181054Y-64991228D01*
X156194683Y-64986351D01*
X156208724Y-64982834D01*
X156223042Y-64980710D01*
X156237500Y-64980000D01*
X156532500Y-64980000D01*
X156546958Y-64980710D01*
X156546958Y-64980710D01*
G37*
D11*
X156385000Y-65300000D03*
D10*
G36*
X155576958Y-64980710D02*
G01*
X155591276Y-64982834D01*
X155605317Y-64986351D01*
X155618946Y-64991228D01*
X155632031Y-64997417D01*
X155644447Y-65004858D01*
X155656073Y-65013481D01*
X155666798Y-65023202D01*
X155676519Y-65033927D01*
X155685142Y-65045553D01*
X155692583Y-65057969D01*
X155698772Y-65071054D01*
X155703649Y-65084683D01*
X155707166Y-65098724D01*
X155709290Y-65113042D01*
X155710000Y-65127500D01*
X155710000Y-65472500D01*
X155709290Y-65486958D01*
X155707166Y-65501276D01*
X155703649Y-65515317D01*
X155698772Y-65528946D01*
X155692583Y-65542031D01*
X155685142Y-65554447D01*
X155676519Y-65566073D01*
X155666798Y-65576798D01*
X155656073Y-65586519D01*
X155644447Y-65595142D01*
X155632031Y-65602583D01*
X155618946Y-65608772D01*
X155605317Y-65613649D01*
X155591276Y-65617166D01*
X155576958Y-65619290D01*
X155562500Y-65620000D01*
X155267500Y-65620000D01*
X155253042Y-65619290D01*
X155238724Y-65617166D01*
X155224683Y-65613649D01*
X155211054Y-65608772D01*
X155197969Y-65602583D01*
X155185553Y-65595142D01*
X155173927Y-65586519D01*
X155163202Y-65576798D01*
X155153481Y-65566073D01*
X155144858Y-65554447D01*
X155137417Y-65542031D01*
X155131228Y-65528946D01*
X155126351Y-65515317D01*
X155122834Y-65501276D01*
X155120710Y-65486958D01*
X155120000Y-65472500D01*
X155120000Y-65127500D01*
X155120710Y-65113042D01*
X155122834Y-65098724D01*
X155126351Y-65084683D01*
X155131228Y-65071054D01*
X155137417Y-65057969D01*
X155144858Y-65045553D01*
X155153481Y-65033927D01*
X155163202Y-65023202D01*
X155173927Y-65013481D01*
X155185553Y-65004858D01*
X155197969Y-64997417D01*
X155211054Y-64991228D01*
X155224683Y-64986351D01*
X155238724Y-64982834D01*
X155253042Y-64980710D01*
X155267500Y-64980000D01*
X155562500Y-64980000D01*
X155576958Y-64980710D01*
X155576958Y-64980710D01*
G37*
D11*
X155415000Y-65300000D03*
D10*
G36*
X153646958Y-64980710D02*
G01*
X153661276Y-64982834D01*
X153675317Y-64986351D01*
X153688946Y-64991228D01*
X153702031Y-64997417D01*
X153714447Y-65004858D01*
X153726073Y-65013481D01*
X153736798Y-65023202D01*
X153746519Y-65033927D01*
X153755142Y-65045553D01*
X153762583Y-65057969D01*
X153768772Y-65071054D01*
X153773649Y-65084683D01*
X153777166Y-65098724D01*
X153779290Y-65113042D01*
X153780000Y-65127500D01*
X153780000Y-65472500D01*
X153779290Y-65486958D01*
X153777166Y-65501276D01*
X153773649Y-65515317D01*
X153768772Y-65528946D01*
X153762583Y-65542031D01*
X153755142Y-65554447D01*
X153746519Y-65566073D01*
X153736798Y-65576798D01*
X153726073Y-65586519D01*
X153714447Y-65595142D01*
X153702031Y-65602583D01*
X153688946Y-65608772D01*
X153675317Y-65613649D01*
X153661276Y-65617166D01*
X153646958Y-65619290D01*
X153632500Y-65620000D01*
X153337500Y-65620000D01*
X153323042Y-65619290D01*
X153308724Y-65617166D01*
X153294683Y-65613649D01*
X153281054Y-65608772D01*
X153267969Y-65602583D01*
X153255553Y-65595142D01*
X153243927Y-65586519D01*
X153233202Y-65576798D01*
X153223481Y-65566073D01*
X153214858Y-65554447D01*
X153207417Y-65542031D01*
X153201228Y-65528946D01*
X153196351Y-65515317D01*
X153192834Y-65501276D01*
X153190710Y-65486958D01*
X153190000Y-65472500D01*
X153190000Y-65127500D01*
X153190710Y-65113042D01*
X153192834Y-65098724D01*
X153196351Y-65084683D01*
X153201228Y-65071054D01*
X153207417Y-65057969D01*
X153214858Y-65045553D01*
X153223481Y-65033927D01*
X153233202Y-65023202D01*
X153243927Y-65013481D01*
X153255553Y-65004858D01*
X153267969Y-64997417D01*
X153281054Y-64991228D01*
X153294683Y-64986351D01*
X153308724Y-64982834D01*
X153323042Y-64980710D01*
X153337500Y-64980000D01*
X153632500Y-64980000D01*
X153646958Y-64980710D01*
X153646958Y-64980710D01*
G37*
D11*
X153485000Y-65300000D03*
D10*
G36*
X152676958Y-64980710D02*
G01*
X152691276Y-64982834D01*
X152705317Y-64986351D01*
X152718946Y-64991228D01*
X152732031Y-64997417D01*
X152744447Y-65004858D01*
X152756073Y-65013481D01*
X152766798Y-65023202D01*
X152776519Y-65033927D01*
X152785142Y-65045553D01*
X152792583Y-65057969D01*
X152798772Y-65071054D01*
X152803649Y-65084683D01*
X152807166Y-65098724D01*
X152809290Y-65113042D01*
X152810000Y-65127500D01*
X152810000Y-65472500D01*
X152809290Y-65486958D01*
X152807166Y-65501276D01*
X152803649Y-65515317D01*
X152798772Y-65528946D01*
X152792583Y-65542031D01*
X152785142Y-65554447D01*
X152776519Y-65566073D01*
X152766798Y-65576798D01*
X152756073Y-65586519D01*
X152744447Y-65595142D01*
X152732031Y-65602583D01*
X152718946Y-65608772D01*
X152705317Y-65613649D01*
X152691276Y-65617166D01*
X152676958Y-65619290D01*
X152662500Y-65620000D01*
X152367500Y-65620000D01*
X152353042Y-65619290D01*
X152338724Y-65617166D01*
X152324683Y-65613649D01*
X152311054Y-65608772D01*
X152297969Y-65602583D01*
X152285553Y-65595142D01*
X152273927Y-65586519D01*
X152263202Y-65576798D01*
X152253481Y-65566073D01*
X152244858Y-65554447D01*
X152237417Y-65542031D01*
X152231228Y-65528946D01*
X152226351Y-65515317D01*
X152222834Y-65501276D01*
X152220710Y-65486958D01*
X152220000Y-65472500D01*
X152220000Y-65127500D01*
X152220710Y-65113042D01*
X152222834Y-65098724D01*
X152226351Y-65084683D01*
X152231228Y-65071054D01*
X152237417Y-65057969D01*
X152244858Y-65045553D01*
X152253481Y-65033927D01*
X152263202Y-65023202D01*
X152273927Y-65013481D01*
X152285553Y-65004858D01*
X152297969Y-64997417D01*
X152311054Y-64991228D01*
X152324683Y-64986351D01*
X152338724Y-64982834D01*
X152353042Y-64980710D01*
X152367500Y-64980000D01*
X152662500Y-64980000D01*
X152676958Y-64980710D01*
X152676958Y-64980710D01*
G37*
D11*
X152515000Y-65300000D03*
D10*
G36*
X150846958Y-64980710D02*
G01*
X150861276Y-64982834D01*
X150875317Y-64986351D01*
X150888946Y-64991228D01*
X150902031Y-64997417D01*
X150914447Y-65004858D01*
X150926073Y-65013481D01*
X150936798Y-65023202D01*
X150946519Y-65033927D01*
X150955142Y-65045553D01*
X150962583Y-65057969D01*
X150968772Y-65071054D01*
X150973649Y-65084683D01*
X150977166Y-65098724D01*
X150979290Y-65113042D01*
X150980000Y-65127500D01*
X150980000Y-65472500D01*
X150979290Y-65486958D01*
X150977166Y-65501276D01*
X150973649Y-65515317D01*
X150968772Y-65528946D01*
X150962583Y-65542031D01*
X150955142Y-65554447D01*
X150946519Y-65566073D01*
X150936798Y-65576798D01*
X150926073Y-65586519D01*
X150914447Y-65595142D01*
X150902031Y-65602583D01*
X150888946Y-65608772D01*
X150875317Y-65613649D01*
X150861276Y-65617166D01*
X150846958Y-65619290D01*
X150832500Y-65620000D01*
X150537500Y-65620000D01*
X150523042Y-65619290D01*
X150508724Y-65617166D01*
X150494683Y-65613649D01*
X150481054Y-65608772D01*
X150467969Y-65602583D01*
X150455553Y-65595142D01*
X150443927Y-65586519D01*
X150433202Y-65576798D01*
X150423481Y-65566073D01*
X150414858Y-65554447D01*
X150407417Y-65542031D01*
X150401228Y-65528946D01*
X150396351Y-65515317D01*
X150392834Y-65501276D01*
X150390710Y-65486958D01*
X150390000Y-65472500D01*
X150390000Y-65127500D01*
X150390710Y-65113042D01*
X150392834Y-65098724D01*
X150396351Y-65084683D01*
X150401228Y-65071054D01*
X150407417Y-65057969D01*
X150414858Y-65045553D01*
X150423481Y-65033927D01*
X150433202Y-65023202D01*
X150443927Y-65013481D01*
X150455553Y-65004858D01*
X150467969Y-64997417D01*
X150481054Y-64991228D01*
X150494683Y-64986351D01*
X150508724Y-64982834D01*
X150523042Y-64980710D01*
X150537500Y-64980000D01*
X150832500Y-64980000D01*
X150846958Y-64980710D01*
X150846958Y-64980710D01*
G37*
D11*
X150685000Y-65300000D03*
D10*
G36*
X149876958Y-64980710D02*
G01*
X149891276Y-64982834D01*
X149905317Y-64986351D01*
X149918946Y-64991228D01*
X149932031Y-64997417D01*
X149944447Y-65004858D01*
X149956073Y-65013481D01*
X149966798Y-65023202D01*
X149976519Y-65033927D01*
X149985142Y-65045553D01*
X149992583Y-65057969D01*
X149998772Y-65071054D01*
X150003649Y-65084683D01*
X150007166Y-65098724D01*
X150009290Y-65113042D01*
X150010000Y-65127500D01*
X150010000Y-65472500D01*
X150009290Y-65486958D01*
X150007166Y-65501276D01*
X150003649Y-65515317D01*
X149998772Y-65528946D01*
X149992583Y-65542031D01*
X149985142Y-65554447D01*
X149976519Y-65566073D01*
X149966798Y-65576798D01*
X149956073Y-65586519D01*
X149944447Y-65595142D01*
X149932031Y-65602583D01*
X149918946Y-65608772D01*
X149905317Y-65613649D01*
X149891276Y-65617166D01*
X149876958Y-65619290D01*
X149862500Y-65620000D01*
X149567500Y-65620000D01*
X149553042Y-65619290D01*
X149538724Y-65617166D01*
X149524683Y-65613649D01*
X149511054Y-65608772D01*
X149497969Y-65602583D01*
X149485553Y-65595142D01*
X149473927Y-65586519D01*
X149463202Y-65576798D01*
X149453481Y-65566073D01*
X149444858Y-65554447D01*
X149437417Y-65542031D01*
X149431228Y-65528946D01*
X149426351Y-65515317D01*
X149422834Y-65501276D01*
X149420710Y-65486958D01*
X149420000Y-65472500D01*
X149420000Y-65127500D01*
X149420710Y-65113042D01*
X149422834Y-65098724D01*
X149426351Y-65084683D01*
X149431228Y-65071054D01*
X149437417Y-65057969D01*
X149444858Y-65045553D01*
X149453481Y-65033927D01*
X149463202Y-65023202D01*
X149473927Y-65013481D01*
X149485553Y-65004858D01*
X149497969Y-64997417D01*
X149511054Y-64991228D01*
X149524683Y-64986351D01*
X149538724Y-64982834D01*
X149553042Y-64980710D01*
X149567500Y-64980000D01*
X149862500Y-64980000D01*
X149876958Y-64980710D01*
X149876958Y-64980710D01*
G37*
D11*
X149715000Y-65300000D03*
D10*
G36*
X160727691Y-63326053D02*
G01*
X160748926Y-63329203D01*
X160769750Y-63334419D01*
X160789962Y-63341651D01*
X160809368Y-63350830D01*
X160827781Y-63361866D01*
X160845024Y-63374654D01*
X160860930Y-63389070D01*
X160875346Y-63404976D01*
X160888134Y-63422219D01*
X160899170Y-63440632D01*
X160908349Y-63460038D01*
X160915581Y-63480250D01*
X160920797Y-63501074D01*
X160923947Y-63522309D01*
X160925000Y-63543750D01*
X160925000Y-64056250D01*
X160923947Y-64077691D01*
X160920797Y-64098926D01*
X160915581Y-64119750D01*
X160908349Y-64139962D01*
X160899170Y-64159368D01*
X160888134Y-64177781D01*
X160875346Y-64195024D01*
X160860930Y-64210930D01*
X160845024Y-64225346D01*
X160827781Y-64238134D01*
X160809368Y-64249170D01*
X160789962Y-64258349D01*
X160769750Y-64265581D01*
X160748926Y-64270797D01*
X160727691Y-64273947D01*
X160706250Y-64275000D01*
X160268750Y-64275000D01*
X160247309Y-64273947D01*
X160226074Y-64270797D01*
X160205250Y-64265581D01*
X160185038Y-64258349D01*
X160165632Y-64249170D01*
X160147219Y-64238134D01*
X160129976Y-64225346D01*
X160114070Y-64210930D01*
X160099654Y-64195024D01*
X160086866Y-64177781D01*
X160075830Y-64159368D01*
X160066651Y-64139962D01*
X160059419Y-64119750D01*
X160054203Y-64098926D01*
X160051053Y-64077691D01*
X160050000Y-64056250D01*
X160050000Y-63543750D01*
X160051053Y-63522309D01*
X160054203Y-63501074D01*
X160059419Y-63480250D01*
X160066651Y-63460038D01*
X160075830Y-63440632D01*
X160086866Y-63422219D01*
X160099654Y-63404976D01*
X160114070Y-63389070D01*
X160129976Y-63374654D01*
X160147219Y-63361866D01*
X160165632Y-63350830D01*
X160185038Y-63341651D01*
X160205250Y-63334419D01*
X160226074Y-63329203D01*
X160247309Y-63326053D01*
X160268750Y-63325000D01*
X160706250Y-63325000D01*
X160727691Y-63326053D01*
X160727691Y-63326053D01*
G37*
D14*
X160487500Y-63800000D03*
D10*
G36*
X159152691Y-63326053D02*
G01*
X159173926Y-63329203D01*
X159194750Y-63334419D01*
X159214962Y-63341651D01*
X159234368Y-63350830D01*
X159252781Y-63361866D01*
X159270024Y-63374654D01*
X159285930Y-63389070D01*
X159300346Y-63404976D01*
X159313134Y-63422219D01*
X159324170Y-63440632D01*
X159333349Y-63460038D01*
X159340581Y-63480250D01*
X159345797Y-63501074D01*
X159348947Y-63522309D01*
X159350000Y-63543750D01*
X159350000Y-64056250D01*
X159348947Y-64077691D01*
X159345797Y-64098926D01*
X159340581Y-64119750D01*
X159333349Y-64139962D01*
X159324170Y-64159368D01*
X159313134Y-64177781D01*
X159300346Y-64195024D01*
X159285930Y-64210930D01*
X159270024Y-64225346D01*
X159252781Y-64238134D01*
X159234368Y-64249170D01*
X159214962Y-64258349D01*
X159194750Y-64265581D01*
X159173926Y-64270797D01*
X159152691Y-64273947D01*
X159131250Y-64275000D01*
X158693750Y-64275000D01*
X158672309Y-64273947D01*
X158651074Y-64270797D01*
X158630250Y-64265581D01*
X158610038Y-64258349D01*
X158590632Y-64249170D01*
X158572219Y-64238134D01*
X158554976Y-64225346D01*
X158539070Y-64210930D01*
X158524654Y-64195024D01*
X158511866Y-64177781D01*
X158500830Y-64159368D01*
X158491651Y-64139962D01*
X158484419Y-64119750D01*
X158479203Y-64098926D01*
X158476053Y-64077691D01*
X158475000Y-64056250D01*
X158475000Y-63543750D01*
X158476053Y-63522309D01*
X158479203Y-63501074D01*
X158484419Y-63480250D01*
X158491651Y-63460038D01*
X158500830Y-63440632D01*
X158511866Y-63422219D01*
X158524654Y-63404976D01*
X158539070Y-63389070D01*
X158554976Y-63374654D01*
X158572219Y-63361866D01*
X158590632Y-63350830D01*
X158610038Y-63341651D01*
X158630250Y-63334419D01*
X158651074Y-63329203D01*
X158672309Y-63326053D01*
X158693750Y-63325000D01*
X159131250Y-63325000D01*
X159152691Y-63326053D01*
X159152691Y-63326053D01*
G37*
D14*
X158912500Y-63800000D03*
D10*
G36*
X157527691Y-63326053D02*
G01*
X157548926Y-63329203D01*
X157569750Y-63334419D01*
X157589962Y-63341651D01*
X157609368Y-63350830D01*
X157627781Y-63361866D01*
X157645024Y-63374654D01*
X157660930Y-63389070D01*
X157675346Y-63404976D01*
X157688134Y-63422219D01*
X157699170Y-63440632D01*
X157708349Y-63460038D01*
X157715581Y-63480250D01*
X157720797Y-63501074D01*
X157723947Y-63522309D01*
X157725000Y-63543750D01*
X157725000Y-64056250D01*
X157723947Y-64077691D01*
X157720797Y-64098926D01*
X157715581Y-64119750D01*
X157708349Y-64139962D01*
X157699170Y-64159368D01*
X157688134Y-64177781D01*
X157675346Y-64195024D01*
X157660930Y-64210930D01*
X157645024Y-64225346D01*
X157627781Y-64238134D01*
X157609368Y-64249170D01*
X157589962Y-64258349D01*
X157569750Y-64265581D01*
X157548926Y-64270797D01*
X157527691Y-64273947D01*
X157506250Y-64275000D01*
X157068750Y-64275000D01*
X157047309Y-64273947D01*
X157026074Y-64270797D01*
X157005250Y-64265581D01*
X156985038Y-64258349D01*
X156965632Y-64249170D01*
X156947219Y-64238134D01*
X156929976Y-64225346D01*
X156914070Y-64210930D01*
X156899654Y-64195024D01*
X156886866Y-64177781D01*
X156875830Y-64159368D01*
X156866651Y-64139962D01*
X156859419Y-64119750D01*
X156854203Y-64098926D01*
X156851053Y-64077691D01*
X156850000Y-64056250D01*
X156850000Y-63543750D01*
X156851053Y-63522309D01*
X156854203Y-63501074D01*
X156859419Y-63480250D01*
X156866651Y-63460038D01*
X156875830Y-63440632D01*
X156886866Y-63422219D01*
X156899654Y-63404976D01*
X156914070Y-63389070D01*
X156929976Y-63374654D01*
X156947219Y-63361866D01*
X156965632Y-63350830D01*
X156985038Y-63341651D01*
X157005250Y-63334419D01*
X157026074Y-63329203D01*
X157047309Y-63326053D01*
X157068750Y-63325000D01*
X157506250Y-63325000D01*
X157527691Y-63326053D01*
X157527691Y-63326053D01*
G37*
D14*
X157287500Y-63800000D03*
D10*
G36*
X155952691Y-63326053D02*
G01*
X155973926Y-63329203D01*
X155994750Y-63334419D01*
X156014962Y-63341651D01*
X156034368Y-63350830D01*
X156052781Y-63361866D01*
X156070024Y-63374654D01*
X156085930Y-63389070D01*
X156100346Y-63404976D01*
X156113134Y-63422219D01*
X156124170Y-63440632D01*
X156133349Y-63460038D01*
X156140581Y-63480250D01*
X156145797Y-63501074D01*
X156148947Y-63522309D01*
X156150000Y-63543750D01*
X156150000Y-64056250D01*
X156148947Y-64077691D01*
X156145797Y-64098926D01*
X156140581Y-64119750D01*
X156133349Y-64139962D01*
X156124170Y-64159368D01*
X156113134Y-64177781D01*
X156100346Y-64195024D01*
X156085930Y-64210930D01*
X156070024Y-64225346D01*
X156052781Y-64238134D01*
X156034368Y-64249170D01*
X156014962Y-64258349D01*
X155994750Y-64265581D01*
X155973926Y-64270797D01*
X155952691Y-64273947D01*
X155931250Y-64275000D01*
X155493750Y-64275000D01*
X155472309Y-64273947D01*
X155451074Y-64270797D01*
X155430250Y-64265581D01*
X155410038Y-64258349D01*
X155390632Y-64249170D01*
X155372219Y-64238134D01*
X155354976Y-64225346D01*
X155339070Y-64210930D01*
X155324654Y-64195024D01*
X155311866Y-64177781D01*
X155300830Y-64159368D01*
X155291651Y-64139962D01*
X155284419Y-64119750D01*
X155279203Y-64098926D01*
X155276053Y-64077691D01*
X155275000Y-64056250D01*
X155275000Y-63543750D01*
X155276053Y-63522309D01*
X155279203Y-63501074D01*
X155284419Y-63480250D01*
X155291651Y-63460038D01*
X155300830Y-63440632D01*
X155311866Y-63422219D01*
X155324654Y-63404976D01*
X155339070Y-63389070D01*
X155354976Y-63374654D01*
X155372219Y-63361866D01*
X155390632Y-63350830D01*
X155410038Y-63341651D01*
X155430250Y-63334419D01*
X155451074Y-63329203D01*
X155472309Y-63326053D01*
X155493750Y-63325000D01*
X155931250Y-63325000D01*
X155952691Y-63326053D01*
X155952691Y-63326053D01*
G37*
D14*
X155712500Y-63800000D03*
D10*
G36*
X154227691Y-63326053D02*
G01*
X154248926Y-63329203D01*
X154269750Y-63334419D01*
X154289962Y-63341651D01*
X154309368Y-63350830D01*
X154327781Y-63361866D01*
X154345024Y-63374654D01*
X154360930Y-63389070D01*
X154375346Y-63404976D01*
X154388134Y-63422219D01*
X154399170Y-63440632D01*
X154408349Y-63460038D01*
X154415581Y-63480250D01*
X154420797Y-63501074D01*
X154423947Y-63522309D01*
X154425000Y-63543750D01*
X154425000Y-64056250D01*
X154423947Y-64077691D01*
X154420797Y-64098926D01*
X154415581Y-64119750D01*
X154408349Y-64139962D01*
X154399170Y-64159368D01*
X154388134Y-64177781D01*
X154375346Y-64195024D01*
X154360930Y-64210930D01*
X154345024Y-64225346D01*
X154327781Y-64238134D01*
X154309368Y-64249170D01*
X154289962Y-64258349D01*
X154269750Y-64265581D01*
X154248926Y-64270797D01*
X154227691Y-64273947D01*
X154206250Y-64275000D01*
X153768750Y-64275000D01*
X153747309Y-64273947D01*
X153726074Y-64270797D01*
X153705250Y-64265581D01*
X153685038Y-64258349D01*
X153665632Y-64249170D01*
X153647219Y-64238134D01*
X153629976Y-64225346D01*
X153614070Y-64210930D01*
X153599654Y-64195024D01*
X153586866Y-64177781D01*
X153575830Y-64159368D01*
X153566651Y-64139962D01*
X153559419Y-64119750D01*
X153554203Y-64098926D01*
X153551053Y-64077691D01*
X153550000Y-64056250D01*
X153550000Y-63543750D01*
X153551053Y-63522309D01*
X153554203Y-63501074D01*
X153559419Y-63480250D01*
X153566651Y-63460038D01*
X153575830Y-63440632D01*
X153586866Y-63422219D01*
X153599654Y-63404976D01*
X153614070Y-63389070D01*
X153629976Y-63374654D01*
X153647219Y-63361866D01*
X153665632Y-63350830D01*
X153685038Y-63341651D01*
X153705250Y-63334419D01*
X153726074Y-63329203D01*
X153747309Y-63326053D01*
X153768750Y-63325000D01*
X154206250Y-63325000D01*
X154227691Y-63326053D01*
X154227691Y-63326053D01*
G37*
D14*
X153987500Y-63800000D03*
D10*
G36*
X152652691Y-63326053D02*
G01*
X152673926Y-63329203D01*
X152694750Y-63334419D01*
X152714962Y-63341651D01*
X152734368Y-63350830D01*
X152752781Y-63361866D01*
X152770024Y-63374654D01*
X152785930Y-63389070D01*
X152800346Y-63404976D01*
X152813134Y-63422219D01*
X152824170Y-63440632D01*
X152833349Y-63460038D01*
X152840581Y-63480250D01*
X152845797Y-63501074D01*
X152848947Y-63522309D01*
X152850000Y-63543750D01*
X152850000Y-64056250D01*
X152848947Y-64077691D01*
X152845797Y-64098926D01*
X152840581Y-64119750D01*
X152833349Y-64139962D01*
X152824170Y-64159368D01*
X152813134Y-64177781D01*
X152800346Y-64195024D01*
X152785930Y-64210930D01*
X152770024Y-64225346D01*
X152752781Y-64238134D01*
X152734368Y-64249170D01*
X152714962Y-64258349D01*
X152694750Y-64265581D01*
X152673926Y-64270797D01*
X152652691Y-64273947D01*
X152631250Y-64275000D01*
X152193750Y-64275000D01*
X152172309Y-64273947D01*
X152151074Y-64270797D01*
X152130250Y-64265581D01*
X152110038Y-64258349D01*
X152090632Y-64249170D01*
X152072219Y-64238134D01*
X152054976Y-64225346D01*
X152039070Y-64210930D01*
X152024654Y-64195024D01*
X152011866Y-64177781D01*
X152000830Y-64159368D01*
X151991651Y-64139962D01*
X151984419Y-64119750D01*
X151979203Y-64098926D01*
X151976053Y-64077691D01*
X151975000Y-64056250D01*
X151975000Y-63543750D01*
X151976053Y-63522309D01*
X151979203Y-63501074D01*
X151984419Y-63480250D01*
X151991651Y-63460038D01*
X152000830Y-63440632D01*
X152011866Y-63422219D01*
X152024654Y-63404976D01*
X152039070Y-63389070D01*
X152054976Y-63374654D01*
X152072219Y-63361866D01*
X152090632Y-63350830D01*
X152110038Y-63341651D01*
X152130250Y-63334419D01*
X152151074Y-63329203D01*
X152172309Y-63326053D01*
X152193750Y-63325000D01*
X152631250Y-63325000D01*
X152652691Y-63326053D01*
X152652691Y-63326053D01*
G37*
D14*
X152412500Y-63800000D03*
D10*
G36*
X150927691Y-63326053D02*
G01*
X150948926Y-63329203D01*
X150969750Y-63334419D01*
X150989962Y-63341651D01*
X151009368Y-63350830D01*
X151027781Y-63361866D01*
X151045024Y-63374654D01*
X151060930Y-63389070D01*
X151075346Y-63404976D01*
X151088134Y-63422219D01*
X151099170Y-63440632D01*
X151108349Y-63460038D01*
X151115581Y-63480250D01*
X151120797Y-63501074D01*
X151123947Y-63522309D01*
X151125000Y-63543750D01*
X151125000Y-64056250D01*
X151123947Y-64077691D01*
X151120797Y-64098926D01*
X151115581Y-64119750D01*
X151108349Y-64139962D01*
X151099170Y-64159368D01*
X151088134Y-64177781D01*
X151075346Y-64195024D01*
X151060930Y-64210930D01*
X151045024Y-64225346D01*
X151027781Y-64238134D01*
X151009368Y-64249170D01*
X150989962Y-64258349D01*
X150969750Y-64265581D01*
X150948926Y-64270797D01*
X150927691Y-64273947D01*
X150906250Y-64275000D01*
X150468750Y-64275000D01*
X150447309Y-64273947D01*
X150426074Y-64270797D01*
X150405250Y-64265581D01*
X150385038Y-64258349D01*
X150365632Y-64249170D01*
X150347219Y-64238134D01*
X150329976Y-64225346D01*
X150314070Y-64210930D01*
X150299654Y-64195024D01*
X150286866Y-64177781D01*
X150275830Y-64159368D01*
X150266651Y-64139962D01*
X150259419Y-64119750D01*
X150254203Y-64098926D01*
X150251053Y-64077691D01*
X150250000Y-64056250D01*
X150250000Y-63543750D01*
X150251053Y-63522309D01*
X150254203Y-63501074D01*
X150259419Y-63480250D01*
X150266651Y-63460038D01*
X150275830Y-63440632D01*
X150286866Y-63422219D01*
X150299654Y-63404976D01*
X150314070Y-63389070D01*
X150329976Y-63374654D01*
X150347219Y-63361866D01*
X150365632Y-63350830D01*
X150385038Y-63341651D01*
X150405250Y-63334419D01*
X150426074Y-63329203D01*
X150447309Y-63326053D01*
X150468750Y-63325000D01*
X150906250Y-63325000D01*
X150927691Y-63326053D01*
X150927691Y-63326053D01*
G37*
D14*
X150687500Y-63800000D03*
D10*
G36*
X149352691Y-63326053D02*
G01*
X149373926Y-63329203D01*
X149394750Y-63334419D01*
X149414962Y-63341651D01*
X149434368Y-63350830D01*
X149452781Y-63361866D01*
X149470024Y-63374654D01*
X149485930Y-63389070D01*
X149500346Y-63404976D01*
X149513134Y-63422219D01*
X149524170Y-63440632D01*
X149533349Y-63460038D01*
X149540581Y-63480250D01*
X149545797Y-63501074D01*
X149548947Y-63522309D01*
X149550000Y-63543750D01*
X149550000Y-64056250D01*
X149548947Y-64077691D01*
X149545797Y-64098926D01*
X149540581Y-64119750D01*
X149533349Y-64139962D01*
X149524170Y-64159368D01*
X149513134Y-64177781D01*
X149500346Y-64195024D01*
X149485930Y-64210930D01*
X149470024Y-64225346D01*
X149452781Y-64238134D01*
X149434368Y-64249170D01*
X149414962Y-64258349D01*
X149394750Y-64265581D01*
X149373926Y-64270797D01*
X149352691Y-64273947D01*
X149331250Y-64275000D01*
X148893750Y-64275000D01*
X148872309Y-64273947D01*
X148851074Y-64270797D01*
X148830250Y-64265581D01*
X148810038Y-64258349D01*
X148790632Y-64249170D01*
X148772219Y-64238134D01*
X148754976Y-64225346D01*
X148739070Y-64210930D01*
X148724654Y-64195024D01*
X148711866Y-64177781D01*
X148700830Y-64159368D01*
X148691651Y-64139962D01*
X148684419Y-64119750D01*
X148679203Y-64098926D01*
X148676053Y-64077691D01*
X148675000Y-64056250D01*
X148675000Y-63543750D01*
X148676053Y-63522309D01*
X148679203Y-63501074D01*
X148684419Y-63480250D01*
X148691651Y-63460038D01*
X148700830Y-63440632D01*
X148711866Y-63422219D01*
X148724654Y-63404976D01*
X148739070Y-63389070D01*
X148754976Y-63374654D01*
X148772219Y-63361866D01*
X148790632Y-63350830D01*
X148810038Y-63341651D01*
X148830250Y-63334419D01*
X148851074Y-63329203D01*
X148872309Y-63326053D01*
X148893750Y-63325000D01*
X149331250Y-63325000D01*
X149352691Y-63326053D01*
X149352691Y-63326053D01*
G37*
D14*
X149112500Y-63800000D03*
D15*
X144650000Y-96000000D03*
D16*
X141150000Y-96000000D03*
D17*
X106000000Y-91450000D03*
X108500000Y-91450000D03*
D10*
G36*
X111624504Y-90476204D02*
G01*
X111648773Y-90479804D01*
X111672571Y-90485765D01*
X111695671Y-90494030D01*
X111717849Y-90504520D01*
X111738893Y-90517133D01*
X111758598Y-90531747D01*
X111776777Y-90548223D01*
X111793253Y-90566402D01*
X111807867Y-90586107D01*
X111820480Y-90607151D01*
X111830970Y-90629329D01*
X111839235Y-90652429D01*
X111845196Y-90676227D01*
X111848796Y-90700496D01*
X111850000Y-90725000D01*
X111850000Y-92175000D01*
X111848796Y-92199504D01*
X111845196Y-92223773D01*
X111839235Y-92247571D01*
X111830970Y-92270671D01*
X111820480Y-92292849D01*
X111807867Y-92313893D01*
X111793253Y-92333598D01*
X111776777Y-92351777D01*
X111758598Y-92368253D01*
X111738893Y-92382867D01*
X111717849Y-92395480D01*
X111695671Y-92405970D01*
X111672571Y-92414235D01*
X111648773Y-92420196D01*
X111624504Y-92423796D01*
X111600000Y-92425000D01*
X110400000Y-92425000D01*
X110375496Y-92423796D01*
X110351227Y-92420196D01*
X110327429Y-92414235D01*
X110304329Y-92405970D01*
X110282151Y-92395480D01*
X110261107Y-92382867D01*
X110241402Y-92368253D01*
X110223223Y-92351777D01*
X110206747Y-92333598D01*
X110192133Y-92313893D01*
X110179520Y-92292849D01*
X110169030Y-92270671D01*
X110160765Y-92247571D01*
X110154804Y-92223773D01*
X110151204Y-92199504D01*
X110150000Y-92175000D01*
X110150000Y-90725000D01*
X110151204Y-90700496D01*
X110154804Y-90676227D01*
X110160765Y-90652429D01*
X110169030Y-90629329D01*
X110179520Y-90607151D01*
X110192133Y-90586107D01*
X110206747Y-90566402D01*
X110223223Y-90548223D01*
X110241402Y-90531747D01*
X110261107Y-90517133D01*
X110282151Y-90504520D01*
X110304329Y-90494030D01*
X110327429Y-90485765D01*
X110351227Y-90479804D01*
X110375496Y-90476204D01*
X110400000Y-90475000D01*
X111600000Y-90475000D01*
X111624504Y-90476204D01*
X111624504Y-90476204D01*
G37*
D18*
X111000000Y-91450000D03*
D15*
X109000000Y-85000000D03*
D16*
X109000000Y-81500000D03*
D10*
G36*
X121646958Y-86480710D02*
G01*
X121661276Y-86482834D01*
X121675317Y-86486351D01*
X121688946Y-86491228D01*
X121702031Y-86497417D01*
X121714447Y-86504858D01*
X121726073Y-86513481D01*
X121736798Y-86523202D01*
X121746519Y-86533927D01*
X121755142Y-86545553D01*
X121762583Y-86557969D01*
X121768772Y-86571054D01*
X121773649Y-86584683D01*
X121777166Y-86598724D01*
X121779290Y-86613042D01*
X121780000Y-86627500D01*
X121780000Y-86972500D01*
X121779290Y-86986958D01*
X121777166Y-87001276D01*
X121773649Y-87015317D01*
X121768772Y-87028946D01*
X121762583Y-87042031D01*
X121755142Y-87054447D01*
X121746519Y-87066073D01*
X121736798Y-87076798D01*
X121726073Y-87086519D01*
X121714447Y-87095142D01*
X121702031Y-87102583D01*
X121688946Y-87108772D01*
X121675317Y-87113649D01*
X121661276Y-87117166D01*
X121646958Y-87119290D01*
X121632500Y-87120000D01*
X121337500Y-87120000D01*
X121323042Y-87119290D01*
X121308724Y-87117166D01*
X121294683Y-87113649D01*
X121281054Y-87108772D01*
X121267969Y-87102583D01*
X121255553Y-87095142D01*
X121243927Y-87086519D01*
X121233202Y-87076798D01*
X121223481Y-87066073D01*
X121214858Y-87054447D01*
X121207417Y-87042031D01*
X121201228Y-87028946D01*
X121196351Y-87015317D01*
X121192834Y-87001276D01*
X121190710Y-86986958D01*
X121190000Y-86972500D01*
X121190000Y-86627500D01*
X121190710Y-86613042D01*
X121192834Y-86598724D01*
X121196351Y-86584683D01*
X121201228Y-86571054D01*
X121207417Y-86557969D01*
X121214858Y-86545553D01*
X121223481Y-86533927D01*
X121233202Y-86523202D01*
X121243927Y-86513481D01*
X121255553Y-86504858D01*
X121267969Y-86497417D01*
X121281054Y-86491228D01*
X121294683Y-86486351D01*
X121308724Y-86482834D01*
X121323042Y-86480710D01*
X121337500Y-86480000D01*
X121632500Y-86480000D01*
X121646958Y-86480710D01*
X121646958Y-86480710D01*
G37*
D11*
X121485000Y-86800000D03*
D10*
G36*
X120676958Y-86480710D02*
G01*
X120691276Y-86482834D01*
X120705317Y-86486351D01*
X120718946Y-86491228D01*
X120732031Y-86497417D01*
X120744447Y-86504858D01*
X120756073Y-86513481D01*
X120766798Y-86523202D01*
X120776519Y-86533927D01*
X120785142Y-86545553D01*
X120792583Y-86557969D01*
X120798772Y-86571054D01*
X120803649Y-86584683D01*
X120807166Y-86598724D01*
X120809290Y-86613042D01*
X120810000Y-86627500D01*
X120810000Y-86972500D01*
X120809290Y-86986958D01*
X120807166Y-87001276D01*
X120803649Y-87015317D01*
X120798772Y-87028946D01*
X120792583Y-87042031D01*
X120785142Y-87054447D01*
X120776519Y-87066073D01*
X120766798Y-87076798D01*
X120756073Y-87086519D01*
X120744447Y-87095142D01*
X120732031Y-87102583D01*
X120718946Y-87108772D01*
X120705317Y-87113649D01*
X120691276Y-87117166D01*
X120676958Y-87119290D01*
X120662500Y-87120000D01*
X120367500Y-87120000D01*
X120353042Y-87119290D01*
X120338724Y-87117166D01*
X120324683Y-87113649D01*
X120311054Y-87108772D01*
X120297969Y-87102583D01*
X120285553Y-87095142D01*
X120273927Y-87086519D01*
X120263202Y-87076798D01*
X120253481Y-87066073D01*
X120244858Y-87054447D01*
X120237417Y-87042031D01*
X120231228Y-87028946D01*
X120226351Y-87015317D01*
X120222834Y-87001276D01*
X120220710Y-86986958D01*
X120220000Y-86972500D01*
X120220000Y-86627500D01*
X120220710Y-86613042D01*
X120222834Y-86598724D01*
X120226351Y-86584683D01*
X120231228Y-86571054D01*
X120237417Y-86557969D01*
X120244858Y-86545553D01*
X120253481Y-86533927D01*
X120263202Y-86523202D01*
X120273927Y-86513481D01*
X120285553Y-86504858D01*
X120297969Y-86497417D01*
X120311054Y-86491228D01*
X120324683Y-86486351D01*
X120338724Y-86482834D01*
X120353042Y-86480710D01*
X120367500Y-86480000D01*
X120662500Y-86480000D01*
X120676958Y-86480710D01*
X120676958Y-86480710D01*
G37*
D11*
X120515000Y-86800000D03*
D15*
X155448000Y-69300000D03*
D16*
X155448000Y-72800000D03*
D15*
X155448000Y-86000000D03*
D16*
X155448000Y-89500000D03*
D15*
X128350000Y-96000000D03*
D16*
X124850000Y-96000000D03*
D15*
X155448000Y-77600000D03*
D16*
X155448000Y-81100000D03*
D15*
X152850000Y-96000000D03*
D16*
X149350000Y-96000000D03*
D15*
X136478000Y-96000000D03*
D16*
X132978000Y-96000000D03*
D19*
X149800000Y-69300000D03*
X150750000Y-71300000D03*
X148850000Y-71300000D03*
X149800000Y-81500000D03*
X150750000Y-83500000D03*
X148850000Y-83500000D03*
D20*
X142900000Y-89392000D03*
X140900000Y-90342000D03*
X140900000Y-88442000D03*
X129200000Y-90500000D03*
X127200000Y-91450000D03*
X127200000Y-89550000D03*
D19*
X149800000Y-75400000D03*
X150750000Y-77400000D03*
X148850000Y-77400000D03*
D20*
X149590000Y-88646000D03*
X147590000Y-89596000D03*
X147590000Y-87696000D03*
X135600000Y-90500000D03*
X133600000Y-91450000D03*
X133600000Y-89550000D03*
X122800000Y-89200000D03*
X120800000Y-90150000D03*
X120800000Y-88250000D03*
D21*
X150850000Y-73300000D03*
X147550000Y-73300000D03*
X150850000Y-85500000D03*
X147550000Y-85500000D03*
D22*
X138900000Y-91650000D03*
X138900000Y-88350000D03*
X125200000Y-90534000D03*
X125200000Y-87234000D03*
D21*
X150950000Y-79400000D03*
X147650000Y-79400000D03*
D22*
X145288000Y-89534000D03*
X145288000Y-86234000D03*
X131500000Y-91550000D03*
X131500000Y-88250000D03*
X118800000Y-90534000D03*
X118800000Y-87234000D03*
X109400000Y-67150000D03*
X109400000Y-70450000D03*
D21*
X113650000Y-81000000D03*
X116950000Y-81000000D03*
D15*
X120200000Y-96000000D03*
D16*
X116700000Y-96000000D03*
D15*
X109000000Y-76900000D03*
D16*
X109000000Y-73400000D03*
D10*
G36*
X147506958Y-70120710D02*
G01*
X147521276Y-70122834D01*
X147535317Y-70126351D01*
X147548946Y-70131228D01*
X147562031Y-70137417D01*
X147574447Y-70144858D01*
X147586073Y-70153481D01*
X147596798Y-70163202D01*
X147606519Y-70173927D01*
X147615142Y-70185553D01*
X147622583Y-70197969D01*
X147628772Y-70211054D01*
X147633649Y-70224683D01*
X147637166Y-70238724D01*
X147639290Y-70253042D01*
X147640000Y-70267500D01*
X147640000Y-70562500D01*
X147639290Y-70576958D01*
X147637166Y-70591276D01*
X147633649Y-70605317D01*
X147628772Y-70618946D01*
X147622583Y-70632031D01*
X147615142Y-70644447D01*
X147606519Y-70656073D01*
X147596798Y-70666798D01*
X147586073Y-70676519D01*
X147574447Y-70685142D01*
X147562031Y-70692583D01*
X147548946Y-70698772D01*
X147535317Y-70703649D01*
X147521276Y-70707166D01*
X147506958Y-70709290D01*
X147492500Y-70710000D01*
X147147500Y-70710000D01*
X147133042Y-70709290D01*
X147118724Y-70707166D01*
X147104683Y-70703649D01*
X147091054Y-70698772D01*
X147077969Y-70692583D01*
X147065553Y-70685142D01*
X147053927Y-70676519D01*
X147043202Y-70666798D01*
X147033481Y-70656073D01*
X147024858Y-70644447D01*
X147017417Y-70632031D01*
X147011228Y-70618946D01*
X147006351Y-70605317D01*
X147002834Y-70591276D01*
X147000710Y-70576958D01*
X147000000Y-70562500D01*
X147000000Y-70267500D01*
X147000710Y-70253042D01*
X147002834Y-70238724D01*
X147006351Y-70224683D01*
X147011228Y-70211054D01*
X147017417Y-70197969D01*
X147024858Y-70185553D01*
X147033481Y-70173927D01*
X147043202Y-70163202D01*
X147053927Y-70153481D01*
X147065553Y-70144858D01*
X147077969Y-70137417D01*
X147091054Y-70131228D01*
X147104683Y-70126351D01*
X147118724Y-70122834D01*
X147133042Y-70120710D01*
X147147500Y-70120000D01*
X147492500Y-70120000D01*
X147506958Y-70120710D01*
X147506958Y-70120710D01*
G37*
D11*
X147320000Y-70415000D03*
D10*
G36*
X147506958Y-71090710D02*
G01*
X147521276Y-71092834D01*
X147535317Y-71096351D01*
X147548946Y-71101228D01*
X147562031Y-71107417D01*
X147574447Y-71114858D01*
X147586073Y-71123481D01*
X147596798Y-71133202D01*
X147606519Y-71143927D01*
X147615142Y-71155553D01*
X147622583Y-71167969D01*
X147628772Y-71181054D01*
X147633649Y-71194683D01*
X147637166Y-71208724D01*
X147639290Y-71223042D01*
X147640000Y-71237500D01*
X147640000Y-71532500D01*
X147639290Y-71546958D01*
X147637166Y-71561276D01*
X147633649Y-71575317D01*
X147628772Y-71588946D01*
X147622583Y-71602031D01*
X147615142Y-71614447D01*
X147606519Y-71626073D01*
X147596798Y-71636798D01*
X147586073Y-71646519D01*
X147574447Y-71655142D01*
X147562031Y-71662583D01*
X147548946Y-71668772D01*
X147535317Y-71673649D01*
X147521276Y-71677166D01*
X147506958Y-71679290D01*
X147492500Y-71680000D01*
X147147500Y-71680000D01*
X147133042Y-71679290D01*
X147118724Y-71677166D01*
X147104683Y-71673649D01*
X147091054Y-71668772D01*
X147077969Y-71662583D01*
X147065553Y-71655142D01*
X147053927Y-71646519D01*
X147043202Y-71636798D01*
X147033481Y-71626073D01*
X147024858Y-71614447D01*
X147017417Y-71602031D01*
X147011228Y-71588946D01*
X147006351Y-71575317D01*
X147002834Y-71561276D01*
X147000710Y-71546958D01*
X147000000Y-71532500D01*
X147000000Y-71237500D01*
X147000710Y-71223042D01*
X147002834Y-71208724D01*
X147006351Y-71194683D01*
X147011228Y-71181054D01*
X147017417Y-71167969D01*
X147024858Y-71155553D01*
X147033481Y-71143927D01*
X147043202Y-71133202D01*
X147053927Y-71123481D01*
X147065553Y-71114858D01*
X147077969Y-71107417D01*
X147091054Y-71101228D01*
X147104683Y-71096351D01*
X147118724Y-71092834D01*
X147133042Y-71090710D01*
X147147500Y-71090000D01*
X147492500Y-71090000D01*
X147506958Y-71090710D01*
X147506958Y-71090710D01*
G37*
D11*
X147320000Y-71385000D03*
D10*
G36*
X147586958Y-82420710D02*
G01*
X147601276Y-82422834D01*
X147615317Y-82426351D01*
X147628946Y-82431228D01*
X147642031Y-82437417D01*
X147654447Y-82444858D01*
X147666073Y-82453481D01*
X147676798Y-82463202D01*
X147686519Y-82473927D01*
X147695142Y-82485553D01*
X147702583Y-82497969D01*
X147708772Y-82511054D01*
X147713649Y-82524683D01*
X147717166Y-82538724D01*
X147719290Y-82553042D01*
X147720000Y-82567500D01*
X147720000Y-82862500D01*
X147719290Y-82876958D01*
X147717166Y-82891276D01*
X147713649Y-82905317D01*
X147708772Y-82918946D01*
X147702583Y-82932031D01*
X147695142Y-82944447D01*
X147686519Y-82956073D01*
X147676798Y-82966798D01*
X147666073Y-82976519D01*
X147654447Y-82985142D01*
X147642031Y-82992583D01*
X147628946Y-82998772D01*
X147615317Y-83003649D01*
X147601276Y-83007166D01*
X147586958Y-83009290D01*
X147572500Y-83010000D01*
X147227500Y-83010000D01*
X147213042Y-83009290D01*
X147198724Y-83007166D01*
X147184683Y-83003649D01*
X147171054Y-82998772D01*
X147157969Y-82992583D01*
X147145553Y-82985142D01*
X147133927Y-82976519D01*
X147123202Y-82966798D01*
X147113481Y-82956073D01*
X147104858Y-82944447D01*
X147097417Y-82932031D01*
X147091228Y-82918946D01*
X147086351Y-82905317D01*
X147082834Y-82891276D01*
X147080710Y-82876958D01*
X147080000Y-82862500D01*
X147080000Y-82567500D01*
X147080710Y-82553042D01*
X147082834Y-82538724D01*
X147086351Y-82524683D01*
X147091228Y-82511054D01*
X147097417Y-82497969D01*
X147104858Y-82485553D01*
X147113481Y-82473927D01*
X147123202Y-82463202D01*
X147133927Y-82453481D01*
X147145553Y-82444858D01*
X147157969Y-82437417D01*
X147171054Y-82431228D01*
X147184683Y-82426351D01*
X147198724Y-82422834D01*
X147213042Y-82420710D01*
X147227500Y-82420000D01*
X147572500Y-82420000D01*
X147586958Y-82420710D01*
X147586958Y-82420710D01*
G37*
D11*
X147400000Y-82715000D03*
D10*
G36*
X147586958Y-83390710D02*
G01*
X147601276Y-83392834D01*
X147615317Y-83396351D01*
X147628946Y-83401228D01*
X147642031Y-83407417D01*
X147654447Y-83414858D01*
X147666073Y-83423481D01*
X147676798Y-83433202D01*
X147686519Y-83443927D01*
X147695142Y-83455553D01*
X147702583Y-83467969D01*
X147708772Y-83481054D01*
X147713649Y-83494683D01*
X147717166Y-83508724D01*
X147719290Y-83523042D01*
X147720000Y-83537500D01*
X147720000Y-83832500D01*
X147719290Y-83846958D01*
X147717166Y-83861276D01*
X147713649Y-83875317D01*
X147708772Y-83888946D01*
X147702583Y-83902031D01*
X147695142Y-83914447D01*
X147686519Y-83926073D01*
X147676798Y-83936798D01*
X147666073Y-83946519D01*
X147654447Y-83955142D01*
X147642031Y-83962583D01*
X147628946Y-83968772D01*
X147615317Y-83973649D01*
X147601276Y-83977166D01*
X147586958Y-83979290D01*
X147572500Y-83980000D01*
X147227500Y-83980000D01*
X147213042Y-83979290D01*
X147198724Y-83977166D01*
X147184683Y-83973649D01*
X147171054Y-83968772D01*
X147157969Y-83962583D01*
X147145553Y-83955142D01*
X147133927Y-83946519D01*
X147123202Y-83936798D01*
X147113481Y-83926073D01*
X147104858Y-83914447D01*
X147097417Y-83902031D01*
X147091228Y-83888946D01*
X147086351Y-83875317D01*
X147082834Y-83861276D01*
X147080710Y-83846958D01*
X147080000Y-83832500D01*
X147080000Y-83537500D01*
X147080710Y-83523042D01*
X147082834Y-83508724D01*
X147086351Y-83494683D01*
X147091228Y-83481054D01*
X147097417Y-83467969D01*
X147104858Y-83455553D01*
X147113481Y-83443927D01*
X147123202Y-83433202D01*
X147133927Y-83423481D01*
X147145553Y-83414858D01*
X147157969Y-83407417D01*
X147171054Y-83401228D01*
X147184683Y-83396351D01*
X147198724Y-83392834D01*
X147213042Y-83390710D01*
X147227500Y-83390000D01*
X147572500Y-83390000D01*
X147586958Y-83390710D01*
X147586958Y-83390710D01*
G37*
D11*
X147400000Y-83685000D03*
D10*
G36*
X141784958Y-86532710D02*
G01*
X141799276Y-86534834D01*
X141813317Y-86538351D01*
X141826946Y-86543228D01*
X141840031Y-86549417D01*
X141852447Y-86556858D01*
X141864073Y-86565481D01*
X141874798Y-86575202D01*
X141884519Y-86585927D01*
X141893142Y-86597553D01*
X141900583Y-86609969D01*
X141906772Y-86623054D01*
X141911649Y-86636683D01*
X141915166Y-86650724D01*
X141917290Y-86665042D01*
X141918000Y-86679500D01*
X141918000Y-87024500D01*
X141917290Y-87038958D01*
X141915166Y-87053276D01*
X141911649Y-87067317D01*
X141906772Y-87080946D01*
X141900583Y-87094031D01*
X141893142Y-87106447D01*
X141884519Y-87118073D01*
X141874798Y-87128798D01*
X141864073Y-87138519D01*
X141852447Y-87147142D01*
X141840031Y-87154583D01*
X141826946Y-87160772D01*
X141813317Y-87165649D01*
X141799276Y-87169166D01*
X141784958Y-87171290D01*
X141770500Y-87172000D01*
X141475500Y-87172000D01*
X141461042Y-87171290D01*
X141446724Y-87169166D01*
X141432683Y-87165649D01*
X141419054Y-87160772D01*
X141405969Y-87154583D01*
X141393553Y-87147142D01*
X141381927Y-87138519D01*
X141371202Y-87128798D01*
X141361481Y-87118073D01*
X141352858Y-87106447D01*
X141345417Y-87094031D01*
X141339228Y-87080946D01*
X141334351Y-87067317D01*
X141330834Y-87053276D01*
X141328710Y-87038958D01*
X141328000Y-87024500D01*
X141328000Y-86679500D01*
X141328710Y-86665042D01*
X141330834Y-86650724D01*
X141334351Y-86636683D01*
X141339228Y-86623054D01*
X141345417Y-86609969D01*
X141352858Y-86597553D01*
X141361481Y-86585927D01*
X141371202Y-86575202D01*
X141381927Y-86565481D01*
X141393553Y-86556858D01*
X141405969Y-86549417D01*
X141419054Y-86543228D01*
X141432683Y-86538351D01*
X141446724Y-86534834D01*
X141461042Y-86532710D01*
X141475500Y-86532000D01*
X141770500Y-86532000D01*
X141784958Y-86532710D01*
X141784958Y-86532710D01*
G37*
D11*
X141623000Y-86852000D03*
D10*
G36*
X140814958Y-86532710D02*
G01*
X140829276Y-86534834D01*
X140843317Y-86538351D01*
X140856946Y-86543228D01*
X140870031Y-86549417D01*
X140882447Y-86556858D01*
X140894073Y-86565481D01*
X140904798Y-86575202D01*
X140914519Y-86585927D01*
X140923142Y-86597553D01*
X140930583Y-86609969D01*
X140936772Y-86623054D01*
X140941649Y-86636683D01*
X140945166Y-86650724D01*
X140947290Y-86665042D01*
X140948000Y-86679500D01*
X140948000Y-87024500D01*
X140947290Y-87038958D01*
X140945166Y-87053276D01*
X140941649Y-87067317D01*
X140936772Y-87080946D01*
X140930583Y-87094031D01*
X140923142Y-87106447D01*
X140914519Y-87118073D01*
X140904798Y-87128798D01*
X140894073Y-87138519D01*
X140882447Y-87147142D01*
X140870031Y-87154583D01*
X140856946Y-87160772D01*
X140843317Y-87165649D01*
X140829276Y-87169166D01*
X140814958Y-87171290D01*
X140800500Y-87172000D01*
X140505500Y-87172000D01*
X140491042Y-87171290D01*
X140476724Y-87169166D01*
X140462683Y-87165649D01*
X140449054Y-87160772D01*
X140435969Y-87154583D01*
X140423553Y-87147142D01*
X140411927Y-87138519D01*
X140401202Y-87128798D01*
X140391481Y-87118073D01*
X140382858Y-87106447D01*
X140375417Y-87094031D01*
X140369228Y-87080946D01*
X140364351Y-87067317D01*
X140360834Y-87053276D01*
X140358710Y-87038958D01*
X140358000Y-87024500D01*
X140358000Y-86679500D01*
X140358710Y-86665042D01*
X140360834Y-86650724D01*
X140364351Y-86636683D01*
X140369228Y-86623054D01*
X140375417Y-86609969D01*
X140382858Y-86597553D01*
X140391481Y-86585927D01*
X140401202Y-86575202D01*
X140411927Y-86565481D01*
X140423553Y-86556858D01*
X140435969Y-86549417D01*
X140449054Y-86543228D01*
X140462683Y-86538351D01*
X140476724Y-86534834D01*
X140491042Y-86532710D01*
X140505500Y-86532000D01*
X140800500Y-86532000D01*
X140814958Y-86532710D01*
X140814958Y-86532710D01*
G37*
D11*
X140653000Y-86852000D03*
D10*
G36*
X128046958Y-87880710D02*
G01*
X128061276Y-87882834D01*
X128075317Y-87886351D01*
X128088946Y-87891228D01*
X128102031Y-87897417D01*
X128114447Y-87904858D01*
X128126073Y-87913481D01*
X128136798Y-87923202D01*
X128146519Y-87933927D01*
X128155142Y-87945553D01*
X128162583Y-87957969D01*
X128168772Y-87971054D01*
X128173649Y-87984683D01*
X128177166Y-87998724D01*
X128179290Y-88013042D01*
X128180000Y-88027500D01*
X128180000Y-88372500D01*
X128179290Y-88386958D01*
X128177166Y-88401276D01*
X128173649Y-88415317D01*
X128168772Y-88428946D01*
X128162583Y-88442031D01*
X128155142Y-88454447D01*
X128146519Y-88466073D01*
X128136798Y-88476798D01*
X128126073Y-88486519D01*
X128114447Y-88495142D01*
X128102031Y-88502583D01*
X128088946Y-88508772D01*
X128075317Y-88513649D01*
X128061276Y-88517166D01*
X128046958Y-88519290D01*
X128032500Y-88520000D01*
X127737500Y-88520000D01*
X127723042Y-88519290D01*
X127708724Y-88517166D01*
X127694683Y-88513649D01*
X127681054Y-88508772D01*
X127667969Y-88502583D01*
X127655553Y-88495142D01*
X127643927Y-88486519D01*
X127633202Y-88476798D01*
X127623481Y-88466073D01*
X127614858Y-88454447D01*
X127607417Y-88442031D01*
X127601228Y-88428946D01*
X127596351Y-88415317D01*
X127592834Y-88401276D01*
X127590710Y-88386958D01*
X127590000Y-88372500D01*
X127590000Y-88027500D01*
X127590710Y-88013042D01*
X127592834Y-87998724D01*
X127596351Y-87984683D01*
X127601228Y-87971054D01*
X127607417Y-87957969D01*
X127614858Y-87945553D01*
X127623481Y-87933927D01*
X127633202Y-87923202D01*
X127643927Y-87913481D01*
X127655553Y-87904858D01*
X127667969Y-87897417D01*
X127681054Y-87891228D01*
X127694683Y-87886351D01*
X127708724Y-87882834D01*
X127723042Y-87880710D01*
X127737500Y-87880000D01*
X128032500Y-87880000D01*
X128046958Y-87880710D01*
X128046958Y-87880710D01*
G37*
D11*
X127885000Y-88200000D03*
D10*
G36*
X127076958Y-87880710D02*
G01*
X127091276Y-87882834D01*
X127105317Y-87886351D01*
X127118946Y-87891228D01*
X127132031Y-87897417D01*
X127144447Y-87904858D01*
X127156073Y-87913481D01*
X127166798Y-87923202D01*
X127176519Y-87933927D01*
X127185142Y-87945553D01*
X127192583Y-87957969D01*
X127198772Y-87971054D01*
X127203649Y-87984683D01*
X127207166Y-87998724D01*
X127209290Y-88013042D01*
X127210000Y-88027500D01*
X127210000Y-88372500D01*
X127209290Y-88386958D01*
X127207166Y-88401276D01*
X127203649Y-88415317D01*
X127198772Y-88428946D01*
X127192583Y-88442031D01*
X127185142Y-88454447D01*
X127176519Y-88466073D01*
X127166798Y-88476798D01*
X127156073Y-88486519D01*
X127144447Y-88495142D01*
X127132031Y-88502583D01*
X127118946Y-88508772D01*
X127105317Y-88513649D01*
X127091276Y-88517166D01*
X127076958Y-88519290D01*
X127062500Y-88520000D01*
X126767500Y-88520000D01*
X126753042Y-88519290D01*
X126738724Y-88517166D01*
X126724683Y-88513649D01*
X126711054Y-88508772D01*
X126697969Y-88502583D01*
X126685553Y-88495142D01*
X126673927Y-88486519D01*
X126663202Y-88476798D01*
X126653481Y-88466073D01*
X126644858Y-88454447D01*
X126637417Y-88442031D01*
X126631228Y-88428946D01*
X126626351Y-88415317D01*
X126622834Y-88401276D01*
X126620710Y-88386958D01*
X126620000Y-88372500D01*
X126620000Y-88027500D01*
X126620710Y-88013042D01*
X126622834Y-87998724D01*
X126626351Y-87984683D01*
X126631228Y-87971054D01*
X126637417Y-87957969D01*
X126644858Y-87945553D01*
X126653481Y-87933927D01*
X126663202Y-87923202D01*
X126673927Y-87913481D01*
X126685553Y-87904858D01*
X126697969Y-87897417D01*
X126711054Y-87891228D01*
X126724683Y-87886351D01*
X126738724Y-87882834D01*
X126753042Y-87880710D01*
X126767500Y-87880000D01*
X127062500Y-87880000D01*
X127076958Y-87880710D01*
X127076958Y-87880710D01*
G37*
D11*
X126915000Y-88200000D03*
D10*
G36*
X147586958Y-76335710D02*
G01*
X147601276Y-76337834D01*
X147615317Y-76341351D01*
X147628946Y-76346228D01*
X147642031Y-76352417D01*
X147654447Y-76359858D01*
X147666073Y-76368481D01*
X147676798Y-76378202D01*
X147686519Y-76388927D01*
X147695142Y-76400553D01*
X147702583Y-76412969D01*
X147708772Y-76426054D01*
X147713649Y-76439683D01*
X147717166Y-76453724D01*
X147719290Y-76468042D01*
X147720000Y-76482500D01*
X147720000Y-76777500D01*
X147719290Y-76791958D01*
X147717166Y-76806276D01*
X147713649Y-76820317D01*
X147708772Y-76833946D01*
X147702583Y-76847031D01*
X147695142Y-76859447D01*
X147686519Y-76871073D01*
X147676798Y-76881798D01*
X147666073Y-76891519D01*
X147654447Y-76900142D01*
X147642031Y-76907583D01*
X147628946Y-76913772D01*
X147615317Y-76918649D01*
X147601276Y-76922166D01*
X147586958Y-76924290D01*
X147572500Y-76925000D01*
X147227500Y-76925000D01*
X147213042Y-76924290D01*
X147198724Y-76922166D01*
X147184683Y-76918649D01*
X147171054Y-76913772D01*
X147157969Y-76907583D01*
X147145553Y-76900142D01*
X147133927Y-76891519D01*
X147123202Y-76881798D01*
X147113481Y-76871073D01*
X147104858Y-76859447D01*
X147097417Y-76847031D01*
X147091228Y-76833946D01*
X147086351Y-76820317D01*
X147082834Y-76806276D01*
X147080710Y-76791958D01*
X147080000Y-76777500D01*
X147080000Y-76482500D01*
X147080710Y-76468042D01*
X147082834Y-76453724D01*
X147086351Y-76439683D01*
X147091228Y-76426054D01*
X147097417Y-76412969D01*
X147104858Y-76400553D01*
X147113481Y-76388927D01*
X147123202Y-76378202D01*
X147133927Y-76368481D01*
X147145553Y-76359858D01*
X147157969Y-76352417D01*
X147171054Y-76346228D01*
X147184683Y-76341351D01*
X147198724Y-76337834D01*
X147213042Y-76335710D01*
X147227500Y-76335000D01*
X147572500Y-76335000D01*
X147586958Y-76335710D01*
X147586958Y-76335710D01*
G37*
D11*
X147400000Y-76630000D03*
D10*
G36*
X147586958Y-77305710D02*
G01*
X147601276Y-77307834D01*
X147615317Y-77311351D01*
X147628946Y-77316228D01*
X147642031Y-77322417D01*
X147654447Y-77329858D01*
X147666073Y-77338481D01*
X147676798Y-77348202D01*
X147686519Y-77358927D01*
X147695142Y-77370553D01*
X147702583Y-77382969D01*
X147708772Y-77396054D01*
X147713649Y-77409683D01*
X147717166Y-77423724D01*
X147719290Y-77438042D01*
X147720000Y-77452500D01*
X147720000Y-77747500D01*
X147719290Y-77761958D01*
X147717166Y-77776276D01*
X147713649Y-77790317D01*
X147708772Y-77803946D01*
X147702583Y-77817031D01*
X147695142Y-77829447D01*
X147686519Y-77841073D01*
X147676798Y-77851798D01*
X147666073Y-77861519D01*
X147654447Y-77870142D01*
X147642031Y-77877583D01*
X147628946Y-77883772D01*
X147615317Y-77888649D01*
X147601276Y-77892166D01*
X147586958Y-77894290D01*
X147572500Y-77895000D01*
X147227500Y-77895000D01*
X147213042Y-77894290D01*
X147198724Y-77892166D01*
X147184683Y-77888649D01*
X147171054Y-77883772D01*
X147157969Y-77877583D01*
X147145553Y-77870142D01*
X147133927Y-77861519D01*
X147123202Y-77851798D01*
X147113481Y-77841073D01*
X147104858Y-77829447D01*
X147097417Y-77817031D01*
X147091228Y-77803946D01*
X147086351Y-77790317D01*
X147082834Y-77776276D01*
X147080710Y-77761958D01*
X147080000Y-77747500D01*
X147080000Y-77452500D01*
X147080710Y-77438042D01*
X147082834Y-77423724D01*
X147086351Y-77409683D01*
X147091228Y-77396054D01*
X147097417Y-77382969D01*
X147104858Y-77370553D01*
X147113481Y-77358927D01*
X147123202Y-77348202D01*
X147133927Y-77338481D01*
X147145553Y-77329858D01*
X147157969Y-77322417D01*
X147171054Y-77316228D01*
X147184683Y-77311351D01*
X147198724Y-77307834D01*
X147213042Y-77305710D01*
X147227500Y-77305000D01*
X147572500Y-77305000D01*
X147586958Y-77305710D01*
X147586958Y-77305710D01*
G37*
D11*
X147400000Y-77600000D03*
D10*
G36*
X144976958Y-84580710D02*
G01*
X144991276Y-84582834D01*
X145005317Y-84586351D01*
X145018946Y-84591228D01*
X145032031Y-84597417D01*
X145044447Y-84604858D01*
X145056073Y-84613481D01*
X145066798Y-84623202D01*
X145076519Y-84633927D01*
X145085142Y-84645553D01*
X145092583Y-84657969D01*
X145098772Y-84671054D01*
X145103649Y-84684683D01*
X145107166Y-84698724D01*
X145109290Y-84713042D01*
X145110000Y-84727500D01*
X145110000Y-85072500D01*
X145109290Y-85086958D01*
X145107166Y-85101276D01*
X145103649Y-85115317D01*
X145098772Y-85128946D01*
X145092583Y-85142031D01*
X145085142Y-85154447D01*
X145076519Y-85166073D01*
X145066798Y-85176798D01*
X145056073Y-85186519D01*
X145044447Y-85195142D01*
X145032031Y-85202583D01*
X145018946Y-85208772D01*
X145005317Y-85213649D01*
X144991276Y-85217166D01*
X144976958Y-85219290D01*
X144962500Y-85220000D01*
X144667500Y-85220000D01*
X144653042Y-85219290D01*
X144638724Y-85217166D01*
X144624683Y-85213649D01*
X144611054Y-85208772D01*
X144597969Y-85202583D01*
X144585553Y-85195142D01*
X144573927Y-85186519D01*
X144563202Y-85176798D01*
X144553481Y-85166073D01*
X144544858Y-85154447D01*
X144537417Y-85142031D01*
X144531228Y-85128946D01*
X144526351Y-85115317D01*
X144522834Y-85101276D01*
X144520710Y-85086958D01*
X144520000Y-85072500D01*
X144520000Y-84727500D01*
X144520710Y-84713042D01*
X144522834Y-84698724D01*
X144526351Y-84684683D01*
X144531228Y-84671054D01*
X144537417Y-84657969D01*
X144544858Y-84645553D01*
X144553481Y-84633927D01*
X144563202Y-84623202D01*
X144573927Y-84613481D01*
X144585553Y-84604858D01*
X144597969Y-84597417D01*
X144611054Y-84591228D01*
X144624683Y-84586351D01*
X144638724Y-84582834D01*
X144653042Y-84580710D01*
X144667500Y-84580000D01*
X144962500Y-84580000D01*
X144976958Y-84580710D01*
X144976958Y-84580710D01*
G37*
D11*
X144815000Y-84900000D03*
D10*
G36*
X145946958Y-84580710D02*
G01*
X145961276Y-84582834D01*
X145975317Y-84586351D01*
X145988946Y-84591228D01*
X146002031Y-84597417D01*
X146014447Y-84604858D01*
X146026073Y-84613481D01*
X146036798Y-84623202D01*
X146046519Y-84633927D01*
X146055142Y-84645553D01*
X146062583Y-84657969D01*
X146068772Y-84671054D01*
X146073649Y-84684683D01*
X146077166Y-84698724D01*
X146079290Y-84713042D01*
X146080000Y-84727500D01*
X146080000Y-85072500D01*
X146079290Y-85086958D01*
X146077166Y-85101276D01*
X146073649Y-85115317D01*
X146068772Y-85128946D01*
X146062583Y-85142031D01*
X146055142Y-85154447D01*
X146046519Y-85166073D01*
X146036798Y-85176798D01*
X146026073Y-85186519D01*
X146014447Y-85195142D01*
X146002031Y-85202583D01*
X145988946Y-85208772D01*
X145975317Y-85213649D01*
X145961276Y-85217166D01*
X145946958Y-85219290D01*
X145932500Y-85220000D01*
X145637500Y-85220000D01*
X145623042Y-85219290D01*
X145608724Y-85217166D01*
X145594683Y-85213649D01*
X145581054Y-85208772D01*
X145567969Y-85202583D01*
X145555553Y-85195142D01*
X145543927Y-85186519D01*
X145533202Y-85176798D01*
X145523481Y-85166073D01*
X145514858Y-85154447D01*
X145507417Y-85142031D01*
X145501228Y-85128946D01*
X145496351Y-85115317D01*
X145492834Y-85101276D01*
X145490710Y-85086958D01*
X145490000Y-85072500D01*
X145490000Y-84727500D01*
X145490710Y-84713042D01*
X145492834Y-84698724D01*
X145496351Y-84684683D01*
X145501228Y-84671054D01*
X145507417Y-84657969D01*
X145514858Y-84645553D01*
X145523481Y-84633927D01*
X145533202Y-84623202D01*
X145543927Y-84613481D01*
X145555553Y-84604858D01*
X145567969Y-84597417D01*
X145581054Y-84591228D01*
X145594683Y-84586351D01*
X145608724Y-84582834D01*
X145623042Y-84580710D01*
X145637500Y-84580000D01*
X145932500Y-84580000D01*
X145946958Y-84580710D01*
X145946958Y-84580710D01*
G37*
D11*
X145785000Y-84900000D03*
D10*
G36*
X134846958Y-87880710D02*
G01*
X134861276Y-87882834D01*
X134875317Y-87886351D01*
X134888946Y-87891228D01*
X134902031Y-87897417D01*
X134914447Y-87904858D01*
X134926073Y-87913481D01*
X134936798Y-87923202D01*
X134946519Y-87933927D01*
X134955142Y-87945553D01*
X134962583Y-87957969D01*
X134968772Y-87971054D01*
X134973649Y-87984683D01*
X134977166Y-87998724D01*
X134979290Y-88013042D01*
X134980000Y-88027500D01*
X134980000Y-88372500D01*
X134979290Y-88386958D01*
X134977166Y-88401276D01*
X134973649Y-88415317D01*
X134968772Y-88428946D01*
X134962583Y-88442031D01*
X134955142Y-88454447D01*
X134946519Y-88466073D01*
X134936798Y-88476798D01*
X134926073Y-88486519D01*
X134914447Y-88495142D01*
X134902031Y-88502583D01*
X134888946Y-88508772D01*
X134875317Y-88513649D01*
X134861276Y-88517166D01*
X134846958Y-88519290D01*
X134832500Y-88520000D01*
X134537500Y-88520000D01*
X134523042Y-88519290D01*
X134508724Y-88517166D01*
X134494683Y-88513649D01*
X134481054Y-88508772D01*
X134467969Y-88502583D01*
X134455553Y-88495142D01*
X134443927Y-88486519D01*
X134433202Y-88476798D01*
X134423481Y-88466073D01*
X134414858Y-88454447D01*
X134407417Y-88442031D01*
X134401228Y-88428946D01*
X134396351Y-88415317D01*
X134392834Y-88401276D01*
X134390710Y-88386958D01*
X134390000Y-88372500D01*
X134390000Y-88027500D01*
X134390710Y-88013042D01*
X134392834Y-87998724D01*
X134396351Y-87984683D01*
X134401228Y-87971054D01*
X134407417Y-87957969D01*
X134414858Y-87945553D01*
X134423481Y-87933927D01*
X134433202Y-87923202D01*
X134443927Y-87913481D01*
X134455553Y-87904858D01*
X134467969Y-87897417D01*
X134481054Y-87891228D01*
X134494683Y-87886351D01*
X134508724Y-87882834D01*
X134523042Y-87880710D01*
X134537500Y-87880000D01*
X134832500Y-87880000D01*
X134846958Y-87880710D01*
X134846958Y-87880710D01*
G37*
D11*
X134685000Y-88200000D03*
D10*
G36*
X133876958Y-87880710D02*
G01*
X133891276Y-87882834D01*
X133905317Y-87886351D01*
X133918946Y-87891228D01*
X133932031Y-87897417D01*
X133944447Y-87904858D01*
X133956073Y-87913481D01*
X133966798Y-87923202D01*
X133976519Y-87933927D01*
X133985142Y-87945553D01*
X133992583Y-87957969D01*
X133998772Y-87971054D01*
X134003649Y-87984683D01*
X134007166Y-87998724D01*
X134009290Y-88013042D01*
X134010000Y-88027500D01*
X134010000Y-88372500D01*
X134009290Y-88386958D01*
X134007166Y-88401276D01*
X134003649Y-88415317D01*
X133998772Y-88428946D01*
X133992583Y-88442031D01*
X133985142Y-88454447D01*
X133976519Y-88466073D01*
X133966798Y-88476798D01*
X133956073Y-88486519D01*
X133944447Y-88495142D01*
X133932031Y-88502583D01*
X133918946Y-88508772D01*
X133905317Y-88513649D01*
X133891276Y-88517166D01*
X133876958Y-88519290D01*
X133862500Y-88520000D01*
X133567500Y-88520000D01*
X133553042Y-88519290D01*
X133538724Y-88517166D01*
X133524683Y-88513649D01*
X133511054Y-88508772D01*
X133497969Y-88502583D01*
X133485553Y-88495142D01*
X133473927Y-88486519D01*
X133463202Y-88476798D01*
X133453481Y-88466073D01*
X133444858Y-88454447D01*
X133437417Y-88442031D01*
X133431228Y-88428946D01*
X133426351Y-88415317D01*
X133422834Y-88401276D01*
X133420710Y-88386958D01*
X133420000Y-88372500D01*
X133420000Y-88027500D01*
X133420710Y-88013042D01*
X133422834Y-87998724D01*
X133426351Y-87984683D01*
X133431228Y-87971054D01*
X133437417Y-87957969D01*
X133444858Y-87945553D01*
X133453481Y-87933927D01*
X133463202Y-87923202D01*
X133473927Y-87913481D01*
X133485553Y-87904858D01*
X133497969Y-87897417D01*
X133511054Y-87891228D01*
X133524683Y-87886351D01*
X133538724Y-87882834D01*
X133553042Y-87880710D01*
X133567500Y-87880000D01*
X133862500Y-87880000D01*
X133876958Y-87880710D01*
X133876958Y-87880710D01*
G37*
D11*
X133715000Y-88200000D03*
D23*
X104172500Y-63140000D03*
X104172500Y-68940000D03*
D24*
X104172500Y-69540000D03*
X104172500Y-62540000D03*
D25*
X104172500Y-65040000D03*
D26*
X106872500Y-68540000D03*
D27*
X106872500Y-66040000D03*
X106872500Y-66690000D03*
X106872500Y-67340000D03*
X106872500Y-64740000D03*
X106872500Y-65390000D03*
D26*
X106872500Y-63540000D03*
D25*
X104172500Y-67040000D03*
D28*
X142866000Y-62103000D03*
X142866000Y-63373000D03*
X142866000Y-64643000D03*
X142866000Y-65913000D03*
X142866000Y-67183000D03*
X142866000Y-68453000D03*
X142866000Y-69723000D03*
X142866000Y-70993000D03*
X142866000Y-72263000D03*
X142866000Y-73533000D03*
X142866000Y-74803000D03*
X142866000Y-76073000D03*
X142866000Y-77343000D03*
X142866000Y-78613000D03*
D29*
X140081000Y-79613000D03*
X138811000Y-79613000D03*
X137541000Y-79613000D03*
X136271000Y-79613000D03*
X135001000Y-79613000D03*
X133731000Y-79613000D03*
X132461000Y-79613000D03*
X131191000Y-79613000D03*
X129921000Y-79613000D03*
X128651000Y-79613000D03*
D28*
X125866000Y-78613000D03*
X125866000Y-77343000D03*
X125866000Y-76073000D03*
X125866000Y-74803000D03*
X125866000Y-73533000D03*
X125866000Y-72263000D03*
X125866000Y-70993000D03*
X125866000Y-69723000D03*
X125866000Y-68453000D03*
X125866000Y-67183000D03*
X125866000Y-65913000D03*
X125866000Y-64643000D03*
X125866000Y-63373000D03*
X125866000Y-62103000D03*
D30*
X133366000Y-69603000D03*
D10*
G36*
X112722626Y-63690301D02*
G01*
X112728693Y-63691201D01*
X112734643Y-63692691D01*
X112740418Y-63694758D01*
X112745962Y-63697380D01*
X112751223Y-63700533D01*
X112756150Y-63704187D01*
X112760694Y-63708306D01*
X112764813Y-63712850D01*
X112768467Y-63717777D01*
X112771620Y-63723038D01*
X112774242Y-63728582D01*
X112776309Y-63734357D01*
X112777799Y-63740307D01*
X112778699Y-63746374D01*
X112779000Y-63752500D01*
X112779000Y-64452500D01*
X112778699Y-64458626D01*
X112777799Y-64464693D01*
X112776309Y-64470643D01*
X112774242Y-64476418D01*
X112771620Y-64481962D01*
X112768467Y-64487223D01*
X112764813Y-64492150D01*
X112760694Y-64496694D01*
X112756150Y-64500813D01*
X112751223Y-64504467D01*
X112745962Y-64507620D01*
X112740418Y-64510242D01*
X112734643Y-64512309D01*
X112728693Y-64513799D01*
X112722626Y-64514699D01*
X112716500Y-64515000D01*
X112591500Y-64515000D01*
X112585374Y-64514699D01*
X112579307Y-64513799D01*
X112573357Y-64512309D01*
X112567582Y-64510242D01*
X112562038Y-64507620D01*
X112556777Y-64504467D01*
X112551850Y-64500813D01*
X112547306Y-64496694D01*
X112543187Y-64492150D01*
X112539533Y-64487223D01*
X112536380Y-64481962D01*
X112533758Y-64476418D01*
X112531691Y-64470643D01*
X112530201Y-64464693D01*
X112529301Y-64458626D01*
X112529000Y-64452500D01*
X112529000Y-63752500D01*
X112529301Y-63746374D01*
X112530201Y-63740307D01*
X112531691Y-63734357D01*
X112533758Y-63728582D01*
X112536380Y-63723038D01*
X112539533Y-63717777D01*
X112543187Y-63712850D01*
X112547306Y-63708306D01*
X112551850Y-63704187D01*
X112556777Y-63700533D01*
X112562038Y-63697380D01*
X112567582Y-63694758D01*
X112573357Y-63692691D01*
X112579307Y-63691201D01*
X112585374Y-63690301D01*
X112591500Y-63690000D01*
X112716500Y-63690000D01*
X112722626Y-63690301D01*
X112722626Y-63690301D01*
G37*
D31*
X112654000Y-64102500D03*
D10*
G36*
X113222626Y-63690301D02*
G01*
X113228693Y-63691201D01*
X113234643Y-63692691D01*
X113240418Y-63694758D01*
X113245962Y-63697380D01*
X113251223Y-63700533D01*
X113256150Y-63704187D01*
X113260694Y-63708306D01*
X113264813Y-63712850D01*
X113268467Y-63717777D01*
X113271620Y-63723038D01*
X113274242Y-63728582D01*
X113276309Y-63734357D01*
X113277799Y-63740307D01*
X113278699Y-63746374D01*
X113279000Y-63752500D01*
X113279000Y-64452500D01*
X113278699Y-64458626D01*
X113277799Y-64464693D01*
X113276309Y-64470643D01*
X113274242Y-64476418D01*
X113271620Y-64481962D01*
X113268467Y-64487223D01*
X113264813Y-64492150D01*
X113260694Y-64496694D01*
X113256150Y-64500813D01*
X113251223Y-64504467D01*
X113245962Y-64507620D01*
X113240418Y-64510242D01*
X113234643Y-64512309D01*
X113228693Y-64513799D01*
X113222626Y-64514699D01*
X113216500Y-64515000D01*
X113091500Y-64515000D01*
X113085374Y-64514699D01*
X113079307Y-64513799D01*
X113073357Y-64512309D01*
X113067582Y-64510242D01*
X113062038Y-64507620D01*
X113056777Y-64504467D01*
X113051850Y-64500813D01*
X113047306Y-64496694D01*
X113043187Y-64492150D01*
X113039533Y-64487223D01*
X113036380Y-64481962D01*
X113033758Y-64476418D01*
X113031691Y-64470643D01*
X113030201Y-64464693D01*
X113029301Y-64458626D01*
X113029000Y-64452500D01*
X113029000Y-63752500D01*
X113029301Y-63746374D01*
X113030201Y-63740307D01*
X113031691Y-63734357D01*
X113033758Y-63728582D01*
X113036380Y-63723038D01*
X113039533Y-63717777D01*
X113043187Y-63712850D01*
X113047306Y-63708306D01*
X113051850Y-63704187D01*
X113056777Y-63700533D01*
X113062038Y-63697380D01*
X113067582Y-63694758D01*
X113073357Y-63692691D01*
X113079307Y-63691201D01*
X113085374Y-63690301D01*
X113091500Y-63690000D01*
X113216500Y-63690000D01*
X113222626Y-63690301D01*
X113222626Y-63690301D01*
G37*
D31*
X113154000Y-64102500D03*
D10*
G36*
X113722626Y-63690301D02*
G01*
X113728693Y-63691201D01*
X113734643Y-63692691D01*
X113740418Y-63694758D01*
X113745962Y-63697380D01*
X113751223Y-63700533D01*
X113756150Y-63704187D01*
X113760694Y-63708306D01*
X113764813Y-63712850D01*
X113768467Y-63717777D01*
X113771620Y-63723038D01*
X113774242Y-63728582D01*
X113776309Y-63734357D01*
X113777799Y-63740307D01*
X113778699Y-63746374D01*
X113779000Y-63752500D01*
X113779000Y-64452500D01*
X113778699Y-64458626D01*
X113777799Y-64464693D01*
X113776309Y-64470643D01*
X113774242Y-64476418D01*
X113771620Y-64481962D01*
X113768467Y-64487223D01*
X113764813Y-64492150D01*
X113760694Y-64496694D01*
X113756150Y-64500813D01*
X113751223Y-64504467D01*
X113745962Y-64507620D01*
X113740418Y-64510242D01*
X113734643Y-64512309D01*
X113728693Y-64513799D01*
X113722626Y-64514699D01*
X113716500Y-64515000D01*
X113591500Y-64515000D01*
X113585374Y-64514699D01*
X113579307Y-64513799D01*
X113573357Y-64512309D01*
X113567582Y-64510242D01*
X113562038Y-64507620D01*
X113556777Y-64504467D01*
X113551850Y-64500813D01*
X113547306Y-64496694D01*
X113543187Y-64492150D01*
X113539533Y-64487223D01*
X113536380Y-64481962D01*
X113533758Y-64476418D01*
X113531691Y-64470643D01*
X113530201Y-64464693D01*
X113529301Y-64458626D01*
X113529000Y-64452500D01*
X113529000Y-63752500D01*
X113529301Y-63746374D01*
X113530201Y-63740307D01*
X113531691Y-63734357D01*
X113533758Y-63728582D01*
X113536380Y-63723038D01*
X113539533Y-63717777D01*
X113543187Y-63712850D01*
X113547306Y-63708306D01*
X113551850Y-63704187D01*
X113556777Y-63700533D01*
X113562038Y-63697380D01*
X113567582Y-63694758D01*
X113573357Y-63692691D01*
X113579307Y-63691201D01*
X113585374Y-63690301D01*
X113591500Y-63690000D01*
X113716500Y-63690000D01*
X113722626Y-63690301D01*
X113722626Y-63690301D01*
G37*
D31*
X113654000Y-64102500D03*
D10*
G36*
X114222626Y-63690301D02*
G01*
X114228693Y-63691201D01*
X114234643Y-63692691D01*
X114240418Y-63694758D01*
X114245962Y-63697380D01*
X114251223Y-63700533D01*
X114256150Y-63704187D01*
X114260694Y-63708306D01*
X114264813Y-63712850D01*
X114268467Y-63717777D01*
X114271620Y-63723038D01*
X114274242Y-63728582D01*
X114276309Y-63734357D01*
X114277799Y-63740307D01*
X114278699Y-63746374D01*
X114279000Y-63752500D01*
X114279000Y-64452500D01*
X114278699Y-64458626D01*
X114277799Y-64464693D01*
X114276309Y-64470643D01*
X114274242Y-64476418D01*
X114271620Y-64481962D01*
X114268467Y-64487223D01*
X114264813Y-64492150D01*
X114260694Y-64496694D01*
X114256150Y-64500813D01*
X114251223Y-64504467D01*
X114245962Y-64507620D01*
X114240418Y-64510242D01*
X114234643Y-64512309D01*
X114228693Y-64513799D01*
X114222626Y-64514699D01*
X114216500Y-64515000D01*
X114091500Y-64515000D01*
X114085374Y-64514699D01*
X114079307Y-64513799D01*
X114073357Y-64512309D01*
X114067582Y-64510242D01*
X114062038Y-64507620D01*
X114056777Y-64504467D01*
X114051850Y-64500813D01*
X114047306Y-64496694D01*
X114043187Y-64492150D01*
X114039533Y-64487223D01*
X114036380Y-64481962D01*
X114033758Y-64476418D01*
X114031691Y-64470643D01*
X114030201Y-64464693D01*
X114029301Y-64458626D01*
X114029000Y-64452500D01*
X114029000Y-63752500D01*
X114029301Y-63746374D01*
X114030201Y-63740307D01*
X114031691Y-63734357D01*
X114033758Y-63728582D01*
X114036380Y-63723038D01*
X114039533Y-63717777D01*
X114043187Y-63712850D01*
X114047306Y-63708306D01*
X114051850Y-63704187D01*
X114056777Y-63700533D01*
X114062038Y-63697380D01*
X114067582Y-63694758D01*
X114073357Y-63692691D01*
X114079307Y-63691201D01*
X114085374Y-63690301D01*
X114091500Y-63690000D01*
X114216500Y-63690000D01*
X114222626Y-63690301D01*
X114222626Y-63690301D01*
G37*
D31*
X114154000Y-64102500D03*
D10*
G36*
X114722626Y-63690301D02*
G01*
X114728693Y-63691201D01*
X114734643Y-63692691D01*
X114740418Y-63694758D01*
X114745962Y-63697380D01*
X114751223Y-63700533D01*
X114756150Y-63704187D01*
X114760694Y-63708306D01*
X114764813Y-63712850D01*
X114768467Y-63717777D01*
X114771620Y-63723038D01*
X114774242Y-63728582D01*
X114776309Y-63734357D01*
X114777799Y-63740307D01*
X114778699Y-63746374D01*
X114779000Y-63752500D01*
X114779000Y-64452500D01*
X114778699Y-64458626D01*
X114777799Y-64464693D01*
X114776309Y-64470643D01*
X114774242Y-64476418D01*
X114771620Y-64481962D01*
X114768467Y-64487223D01*
X114764813Y-64492150D01*
X114760694Y-64496694D01*
X114756150Y-64500813D01*
X114751223Y-64504467D01*
X114745962Y-64507620D01*
X114740418Y-64510242D01*
X114734643Y-64512309D01*
X114728693Y-64513799D01*
X114722626Y-64514699D01*
X114716500Y-64515000D01*
X114591500Y-64515000D01*
X114585374Y-64514699D01*
X114579307Y-64513799D01*
X114573357Y-64512309D01*
X114567582Y-64510242D01*
X114562038Y-64507620D01*
X114556777Y-64504467D01*
X114551850Y-64500813D01*
X114547306Y-64496694D01*
X114543187Y-64492150D01*
X114539533Y-64487223D01*
X114536380Y-64481962D01*
X114533758Y-64476418D01*
X114531691Y-64470643D01*
X114530201Y-64464693D01*
X114529301Y-64458626D01*
X114529000Y-64452500D01*
X114529000Y-63752500D01*
X114529301Y-63746374D01*
X114530201Y-63740307D01*
X114531691Y-63734357D01*
X114533758Y-63728582D01*
X114536380Y-63723038D01*
X114539533Y-63717777D01*
X114543187Y-63712850D01*
X114547306Y-63708306D01*
X114551850Y-63704187D01*
X114556777Y-63700533D01*
X114562038Y-63697380D01*
X114567582Y-63694758D01*
X114573357Y-63692691D01*
X114579307Y-63691201D01*
X114585374Y-63690301D01*
X114591500Y-63690000D01*
X114716500Y-63690000D01*
X114722626Y-63690301D01*
X114722626Y-63690301D01*
G37*
D31*
X114654000Y-64102500D03*
D10*
G36*
X115222626Y-63690301D02*
G01*
X115228693Y-63691201D01*
X115234643Y-63692691D01*
X115240418Y-63694758D01*
X115245962Y-63697380D01*
X115251223Y-63700533D01*
X115256150Y-63704187D01*
X115260694Y-63708306D01*
X115264813Y-63712850D01*
X115268467Y-63717777D01*
X115271620Y-63723038D01*
X115274242Y-63728582D01*
X115276309Y-63734357D01*
X115277799Y-63740307D01*
X115278699Y-63746374D01*
X115279000Y-63752500D01*
X115279000Y-64452500D01*
X115278699Y-64458626D01*
X115277799Y-64464693D01*
X115276309Y-64470643D01*
X115274242Y-64476418D01*
X115271620Y-64481962D01*
X115268467Y-64487223D01*
X115264813Y-64492150D01*
X115260694Y-64496694D01*
X115256150Y-64500813D01*
X115251223Y-64504467D01*
X115245962Y-64507620D01*
X115240418Y-64510242D01*
X115234643Y-64512309D01*
X115228693Y-64513799D01*
X115222626Y-64514699D01*
X115216500Y-64515000D01*
X115091500Y-64515000D01*
X115085374Y-64514699D01*
X115079307Y-64513799D01*
X115073357Y-64512309D01*
X115067582Y-64510242D01*
X115062038Y-64507620D01*
X115056777Y-64504467D01*
X115051850Y-64500813D01*
X115047306Y-64496694D01*
X115043187Y-64492150D01*
X115039533Y-64487223D01*
X115036380Y-64481962D01*
X115033758Y-64476418D01*
X115031691Y-64470643D01*
X115030201Y-64464693D01*
X115029301Y-64458626D01*
X115029000Y-64452500D01*
X115029000Y-63752500D01*
X115029301Y-63746374D01*
X115030201Y-63740307D01*
X115031691Y-63734357D01*
X115033758Y-63728582D01*
X115036380Y-63723038D01*
X115039533Y-63717777D01*
X115043187Y-63712850D01*
X115047306Y-63708306D01*
X115051850Y-63704187D01*
X115056777Y-63700533D01*
X115062038Y-63697380D01*
X115067582Y-63694758D01*
X115073357Y-63692691D01*
X115079307Y-63691201D01*
X115085374Y-63690301D01*
X115091500Y-63690000D01*
X115216500Y-63690000D01*
X115222626Y-63690301D01*
X115222626Y-63690301D01*
G37*
D31*
X115154000Y-64102500D03*
D10*
G36*
X116197626Y-64665301D02*
G01*
X116203693Y-64666201D01*
X116209643Y-64667691D01*
X116215418Y-64669758D01*
X116220962Y-64672380D01*
X116226223Y-64675533D01*
X116231150Y-64679187D01*
X116235694Y-64683306D01*
X116239813Y-64687850D01*
X116243467Y-64692777D01*
X116246620Y-64698038D01*
X116249242Y-64703582D01*
X116251309Y-64709357D01*
X116252799Y-64715307D01*
X116253699Y-64721374D01*
X116254000Y-64727500D01*
X116254000Y-64852500D01*
X116253699Y-64858626D01*
X116252799Y-64864693D01*
X116251309Y-64870643D01*
X116249242Y-64876418D01*
X116246620Y-64881962D01*
X116243467Y-64887223D01*
X116239813Y-64892150D01*
X116235694Y-64896694D01*
X116231150Y-64900813D01*
X116226223Y-64904467D01*
X116220962Y-64907620D01*
X116215418Y-64910242D01*
X116209643Y-64912309D01*
X116203693Y-64913799D01*
X116197626Y-64914699D01*
X116191500Y-64915000D01*
X115491500Y-64915000D01*
X115485374Y-64914699D01*
X115479307Y-64913799D01*
X115473357Y-64912309D01*
X115467582Y-64910242D01*
X115462038Y-64907620D01*
X115456777Y-64904467D01*
X115451850Y-64900813D01*
X115447306Y-64896694D01*
X115443187Y-64892150D01*
X115439533Y-64887223D01*
X115436380Y-64881962D01*
X115433758Y-64876418D01*
X115431691Y-64870643D01*
X115430201Y-64864693D01*
X115429301Y-64858626D01*
X115429000Y-64852500D01*
X115429000Y-64727500D01*
X115429301Y-64721374D01*
X115430201Y-64715307D01*
X115431691Y-64709357D01*
X115433758Y-64703582D01*
X115436380Y-64698038D01*
X115439533Y-64692777D01*
X115443187Y-64687850D01*
X115447306Y-64683306D01*
X115451850Y-64679187D01*
X115456777Y-64675533D01*
X115462038Y-64672380D01*
X115467582Y-64669758D01*
X115473357Y-64667691D01*
X115479307Y-64666201D01*
X115485374Y-64665301D01*
X115491500Y-64665000D01*
X116191500Y-64665000D01*
X116197626Y-64665301D01*
X116197626Y-64665301D01*
G37*
D31*
X115841500Y-64790000D03*
D10*
G36*
X116197626Y-65165301D02*
G01*
X116203693Y-65166201D01*
X116209643Y-65167691D01*
X116215418Y-65169758D01*
X116220962Y-65172380D01*
X116226223Y-65175533D01*
X116231150Y-65179187D01*
X116235694Y-65183306D01*
X116239813Y-65187850D01*
X116243467Y-65192777D01*
X116246620Y-65198038D01*
X116249242Y-65203582D01*
X116251309Y-65209357D01*
X116252799Y-65215307D01*
X116253699Y-65221374D01*
X116254000Y-65227500D01*
X116254000Y-65352500D01*
X116253699Y-65358626D01*
X116252799Y-65364693D01*
X116251309Y-65370643D01*
X116249242Y-65376418D01*
X116246620Y-65381962D01*
X116243467Y-65387223D01*
X116239813Y-65392150D01*
X116235694Y-65396694D01*
X116231150Y-65400813D01*
X116226223Y-65404467D01*
X116220962Y-65407620D01*
X116215418Y-65410242D01*
X116209643Y-65412309D01*
X116203693Y-65413799D01*
X116197626Y-65414699D01*
X116191500Y-65415000D01*
X115491500Y-65415000D01*
X115485374Y-65414699D01*
X115479307Y-65413799D01*
X115473357Y-65412309D01*
X115467582Y-65410242D01*
X115462038Y-65407620D01*
X115456777Y-65404467D01*
X115451850Y-65400813D01*
X115447306Y-65396694D01*
X115443187Y-65392150D01*
X115439533Y-65387223D01*
X115436380Y-65381962D01*
X115433758Y-65376418D01*
X115431691Y-65370643D01*
X115430201Y-65364693D01*
X115429301Y-65358626D01*
X115429000Y-65352500D01*
X115429000Y-65227500D01*
X115429301Y-65221374D01*
X115430201Y-65215307D01*
X115431691Y-65209357D01*
X115433758Y-65203582D01*
X115436380Y-65198038D01*
X115439533Y-65192777D01*
X115443187Y-65187850D01*
X115447306Y-65183306D01*
X115451850Y-65179187D01*
X115456777Y-65175533D01*
X115462038Y-65172380D01*
X115467582Y-65169758D01*
X115473357Y-65167691D01*
X115479307Y-65166201D01*
X115485374Y-65165301D01*
X115491500Y-65165000D01*
X116191500Y-65165000D01*
X116197626Y-65165301D01*
X116197626Y-65165301D01*
G37*
D31*
X115841500Y-65290000D03*
D10*
G36*
X116197626Y-65665301D02*
G01*
X116203693Y-65666201D01*
X116209643Y-65667691D01*
X116215418Y-65669758D01*
X116220962Y-65672380D01*
X116226223Y-65675533D01*
X116231150Y-65679187D01*
X116235694Y-65683306D01*
X116239813Y-65687850D01*
X116243467Y-65692777D01*
X116246620Y-65698038D01*
X116249242Y-65703582D01*
X116251309Y-65709357D01*
X116252799Y-65715307D01*
X116253699Y-65721374D01*
X116254000Y-65727500D01*
X116254000Y-65852500D01*
X116253699Y-65858626D01*
X116252799Y-65864693D01*
X116251309Y-65870643D01*
X116249242Y-65876418D01*
X116246620Y-65881962D01*
X116243467Y-65887223D01*
X116239813Y-65892150D01*
X116235694Y-65896694D01*
X116231150Y-65900813D01*
X116226223Y-65904467D01*
X116220962Y-65907620D01*
X116215418Y-65910242D01*
X116209643Y-65912309D01*
X116203693Y-65913799D01*
X116197626Y-65914699D01*
X116191500Y-65915000D01*
X115491500Y-65915000D01*
X115485374Y-65914699D01*
X115479307Y-65913799D01*
X115473357Y-65912309D01*
X115467582Y-65910242D01*
X115462038Y-65907620D01*
X115456777Y-65904467D01*
X115451850Y-65900813D01*
X115447306Y-65896694D01*
X115443187Y-65892150D01*
X115439533Y-65887223D01*
X115436380Y-65881962D01*
X115433758Y-65876418D01*
X115431691Y-65870643D01*
X115430201Y-65864693D01*
X115429301Y-65858626D01*
X115429000Y-65852500D01*
X115429000Y-65727500D01*
X115429301Y-65721374D01*
X115430201Y-65715307D01*
X115431691Y-65709357D01*
X115433758Y-65703582D01*
X115436380Y-65698038D01*
X115439533Y-65692777D01*
X115443187Y-65687850D01*
X115447306Y-65683306D01*
X115451850Y-65679187D01*
X115456777Y-65675533D01*
X115462038Y-65672380D01*
X115467582Y-65669758D01*
X115473357Y-65667691D01*
X115479307Y-65666201D01*
X115485374Y-65665301D01*
X115491500Y-65665000D01*
X116191500Y-65665000D01*
X116197626Y-65665301D01*
X116197626Y-65665301D01*
G37*
D31*
X115841500Y-65790000D03*
D10*
G36*
X116197626Y-66165301D02*
G01*
X116203693Y-66166201D01*
X116209643Y-66167691D01*
X116215418Y-66169758D01*
X116220962Y-66172380D01*
X116226223Y-66175533D01*
X116231150Y-66179187D01*
X116235694Y-66183306D01*
X116239813Y-66187850D01*
X116243467Y-66192777D01*
X116246620Y-66198038D01*
X116249242Y-66203582D01*
X116251309Y-66209357D01*
X116252799Y-66215307D01*
X116253699Y-66221374D01*
X116254000Y-66227500D01*
X116254000Y-66352500D01*
X116253699Y-66358626D01*
X116252799Y-66364693D01*
X116251309Y-66370643D01*
X116249242Y-66376418D01*
X116246620Y-66381962D01*
X116243467Y-66387223D01*
X116239813Y-66392150D01*
X116235694Y-66396694D01*
X116231150Y-66400813D01*
X116226223Y-66404467D01*
X116220962Y-66407620D01*
X116215418Y-66410242D01*
X116209643Y-66412309D01*
X116203693Y-66413799D01*
X116197626Y-66414699D01*
X116191500Y-66415000D01*
X115491500Y-66415000D01*
X115485374Y-66414699D01*
X115479307Y-66413799D01*
X115473357Y-66412309D01*
X115467582Y-66410242D01*
X115462038Y-66407620D01*
X115456777Y-66404467D01*
X115451850Y-66400813D01*
X115447306Y-66396694D01*
X115443187Y-66392150D01*
X115439533Y-66387223D01*
X115436380Y-66381962D01*
X115433758Y-66376418D01*
X115431691Y-66370643D01*
X115430201Y-66364693D01*
X115429301Y-66358626D01*
X115429000Y-66352500D01*
X115429000Y-66227500D01*
X115429301Y-66221374D01*
X115430201Y-66215307D01*
X115431691Y-66209357D01*
X115433758Y-66203582D01*
X115436380Y-66198038D01*
X115439533Y-66192777D01*
X115443187Y-66187850D01*
X115447306Y-66183306D01*
X115451850Y-66179187D01*
X115456777Y-66175533D01*
X115462038Y-66172380D01*
X115467582Y-66169758D01*
X115473357Y-66167691D01*
X115479307Y-66166201D01*
X115485374Y-66165301D01*
X115491500Y-66165000D01*
X116191500Y-66165000D01*
X116197626Y-66165301D01*
X116197626Y-66165301D01*
G37*
D31*
X115841500Y-66290000D03*
D10*
G36*
X116197626Y-66665301D02*
G01*
X116203693Y-66666201D01*
X116209643Y-66667691D01*
X116215418Y-66669758D01*
X116220962Y-66672380D01*
X116226223Y-66675533D01*
X116231150Y-66679187D01*
X116235694Y-66683306D01*
X116239813Y-66687850D01*
X116243467Y-66692777D01*
X116246620Y-66698038D01*
X116249242Y-66703582D01*
X116251309Y-66709357D01*
X116252799Y-66715307D01*
X116253699Y-66721374D01*
X116254000Y-66727500D01*
X116254000Y-66852500D01*
X116253699Y-66858626D01*
X116252799Y-66864693D01*
X116251309Y-66870643D01*
X116249242Y-66876418D01*
X116246620Y-66881962D01*
X116243467Y-66887223D01*
X116239813Y-66892150D01*
X116235694Y-66896694D01*
X116231150Y-66900813D01*
X116226223Y-66904467D01*
X116220962Y-66907620D01*
X116215418Y-66910242D01*
X116209643Y-66912309D01*
X116203693Y-66913799D01*
X116197626Y-66914699D01*
X116191500Y-66915000D01*
X115491500Y-66915000D01*
X115485374Y-66914699D01*
X115479307Y-66913799D01*
X115473357Y-66912309D01*
X115467582Y-66910242D01*
X115462038Y-66907620D01*
X115456777Y-66904467D01*
X115451850Y-66900813D01*
X115447306Y-66896694D01*
X115443187Y-66892150D01*
X115439533Y-66887223D01*
X115436380Y-66881962D01*
X115433758Y-66876418D01*
X115431691Y-66870643D01*
X115430201Y-66864693D01*
X115429301Y-66858626D01*
X115429000Y-66852500D01*
X115429000Y-66727500D01*
X115429301Y-66721374D01*
X115430201Y-66715307D01*
X115431691Y-66709357D01*
X115433758Y-66703582D01*
X115436380Y-66698038D01*
X115439533Y-66692777D01*
X115443187Y-66687850D01*
X115447306Y-66683306D01*
X115451850Y-66679187D01*
X115456777Y-66675533D01*
X115462038Y-66672380D01*
X115467582Y-66669758D01*
X115473357Y-66667691D01*
X115479307Y-66666201D01*
X115485374Y-66665301D01*
X115491500Y-66665000D01*
X116191500Y-66665000D01*
X116197626Y-66665301D01*
X116197626Y-66665301D01*
G37*
D31*
X115841500Y-66790000D03*
D10*
G36*
X116197626Y-67165301D02*
G01*
X116203693Y-67166201D01*
X116209643Y-67167691D01*
X116215418Y-67169758D01*
X116220962Y-67172380D01*
X116226223Y-67175533D01*
X116231150Y-67179187D01*
X116235694Y-67183306D01*
X116239813Y-67187850D01*
X116243467Y-67192777D01*
X116246620Y-67198038D01*
X116249242Y-67203582D01*
X116251309Y-67209357D01*
X116252799Y-67215307D01*
X116253699Y-67221374D01*
X116254000Y-67227500D01*
X116254000Y-67352500D01*
X116253699Y-67358626D01*
X116252799Y-67364693D01*
X116251309Y-67370643D01*
X116249242Y-67376418D01*
X116246620Y-67381962D01*
X116243467Y-67387223D01*
X116239813Y-67392150D01*
X116235694Y-67396694D01*
X116231150Y-67400813D01*
X116226223Y-67404467D01*
X116220962Y-67407620D01*
X116215418Y-67410242D01*
X116209643Y-67412309D01*
X116203693Y-67413799D01*
X116197626Y-67414699D01*
X116191500Y-67415000D01*
X115491500Y-67415000D01*
X115485374Y-67414699D01*
X115479307Y-67413799D01*
X115473357Y-67412309D01*
X115467582Y-67410242D01*
X115462038Y-67407620D01*
X115456777Y-67404467D01*
X115451850Y-67400813D01*
X115447306Y-67396694D01*
X115443187Y-67392150D01*
X115439533Y-67387223D01*
X115436380Y-67381962D01*
X115433758Y-67376418D01*
X115431691Y-67370643D01*
X115430201Y-67364693D01*
X115429301Y-67358626D01*
X115429000Y-67352500D01*
X115429000Y-67227500D01*
X115429301Y-67221374D01*
X115430201Y-67215307D01*
X115431691Y-67209357D01*
X115433758Y-67203582D01*
X115436380Y-67198038D01*
X115439533Y-67192777D01*
X115443187Y-67187850D01*
X115447306Y-67183306D01*
X115451850Y-67179187D01*
X115456777Y-67175533D01*
X115462038Y-67172380D01*
X115467582Y-67169758D01*
X115473357Y-67167691D01*
X115479307Y-67166201D01*
X115485374Y-67165301D01*
X115491500Y-67165000D01*
X116191500Y-67165000D01*
X116197626Y-67165301D01*
X116197626Y-67165301D01*
G37*
D31*
X115841500Y-67290000D03*
D10*
G36*
X115222626Y-67565301D02*
G01*
X115228693Y-67566201D01*
X115234643Y-67567691D01*
X115240418Y-67569758D01*
X115245962Y-67572380D01*
X115251223Y-67575533D01*
X115256150Y-67579187D01*
X115260694Y-67583306D01*
X115264813Y-67587850D01*
X115268467Y-67592777D01*
X115271620Y-67598038D01*
X115274242Y-67603582D01*
X115276309Y-67609357D01*
X115277799Y-67615307D01*
X115278699Y-67621374D01*
X115279000Y-67627500D01*
X115279000Y-68327500D01*
X115278699Y-68333626D01*
X115277799Y-68339693D01*
X115276309Y-68345643D01*
X115274242Y-68351418D01*
X115271620Y-68356962D01*
X115268467Y-68362223D01*
X115264813Y-68367150D01*
X115260694Y-68371694D01*
X115256150Y-68375813D01*
X115251223Y-68379467D01*
X115245962Y-68382620D01*
X115240418Y-68385242D01*
X115234643Y-68387309D01*
X115228693Y-68388799D01*
X115222626Y-68389699D01*
X115216500Y-68390000D01*
X115091500Y-68390000D01*
X115085374Y-68389699D01*
X115079307Y-68388799D01*
X115073357Y-68387309D01*
X115067582Y-68385242D01*
X115062038Y-68382620D01*
X115056777Y-68379467D01*
X115051850Y-68375813D01*
X115047306Y-68371694D01*
X115043187Y-68367150D01*
X115039533Y-68362223D01*
X115036380Y-68356962D01*
X115033758Y-68351418D01*
X115031691Y-68345643D01*
X115030201Y-68339693D01*
X115029301Y-68333626D01*
X115029000Y-68327500D01*
X115029000Y-67627500D01*
X115029301Y-67621374D01*
X115030201Y-67615307D01*
X115031691Y-67609357D01*
X115033758Y-67603582D01*
X115036380Y-67598038D01*
X115039533Y-67592777D01*
X115043187Y-67587850D01*
X115047306Y-67583306D01*
X115051850Y-67579187D01*
X115056777Y-67575533D01*
X115062038Y-67572380D01*
X115067582Y-67569758D01*
X115073357Y-67567691D01*
X115079307Y-67566201D01*
X115085374Y-67565301D01*
X115091500Y-67565000D01*
X115216500Y-67565000D01*
X115222626Y-67565301D01*
X115222626Y-67565301D01*
G37*
D31*
X115154000Y-67977500D03*
D10*
G36*
X114722626Y-67565301D02*
G01*
X114728693Y-67566201D01*
X114734643Y-67567691D01*
X114740418Y-67569758D01*
X114745962Y-67572380D01*
X114751223Y-67575533D01*
X114756150Y-67579187D01*
X114760694Y-67583306D01*
X114764813Y-67587850D01*
X114768467Y-67592777D01*
X114771620Y-67598038D01*
X114774242Y-67603582D01*
X114776309Y-67609357D01*
X114777799Y-67615307D01*
X114778699Y-67621374D01*
X114779000Y-67627500D01*
X114779000Y-68327500D01*
X114778699Y-68333626D01*
X114777799Y-68339693D01*
X114776309Y-68345643D01*
X114774242Y-68351418D01*
X114771620Y-68356962D01*
X114768467Y-68362223D01*
X114764813Y-68367150D01*
X114760694Y-68371694D01*
X114756150Y-68375813D01*
X114751223Y-68379467D01*
X114745962Y-68382620D01*
X114740418Y-68385242D01*
X114734643Y-68387309D01*
X114728693Y-68388799D01*
X114722626Y-68389699D01*
X114716500Y-68390000D01*
X114591500Y-68390000D01*
X114585374Y-68389699D01*
X114579307Y-68388799D01*
X114573357Y-68387309D01*
X114567582Y-68385242D01*
X114562038Y-68382620D01*
X114556777Y-68379467D01*
X114551850Y-68375813D01*
X114547306Y-68371694D01*
X114543187Y-68367150D01*
X114539533Y-68362223D01*
X114536380Y-68356962D01*
X114533758Y-68351418D01*
X114531691Y-68345643D01*
X114530201Y-68339693D01*
X114529301Y-68333626D01*
X114529000Y-68327500D01*
X114529000Y-67627500D01*
X114529301Y-67621374D01*
X114530201Y-67615307D01*
X114531691Y-67609357D01*
X114533758Y-67603582D01*
X114536380Y-67598038D01*
X114539533Y-67592777D01*
X114543187Y-67587850D01*
X114547306Y-67583306D01*
X114551850Y-67579187D01*
X114556777Y-67575533D01*
X114562038Y-67572380D01*
X114567582Y-67569758D01*
X114573357Y-67567691D01*
X114579307Y-67566201D01*
X114585374Y-67565301D01*
X114591500Y-67565000D01*
X114716500Y-67565000D01*
X114722626Y-67565301D01*
X114722626Y-67565301D01*
G37*
D31*
X114654000Y-67977500D03*
D10*
G36*
X114222626Y-67565301D02*
G01*
X114228693Y-67566201D01*
X114234643Y-67567691D01*
X114240418Y-67569758D01*
X114245962Y-67572380D01*
X114251223Y-67575533D01*
X114256150Y-67579187D01*
X114260694Y-67583306D01*
X114264813Y-67587850D01*
X114268467Y-67592777D01*
X114271620Y-67598038D01*
X114274242Y-67603582D01*
X114276309Y-67609357D01*
X114277799Y-67615307D01*
X114278699Y-67621374D01*
X114279000Y-67627500D01*
X114279000Y-68327500D01*
X114278699Y-68333626D01*
X114277799Y-68339693D01*
X114276309Y-68345643D01*
X114274242Y-68351418D01*
X114271620Y-68356962D01*
X114268467Y-68362223D01*
X114264813Y-68367150D01*
X114260694Y-68371694D01*
X114256150Y-68375813D01*
X114251223Y-68379467D01*
X114245962Y-68382620D01*
X114240418Y-68385242D01*
X114234643Y-68387309D01*
X114228693Y-68388799D01*
X114222626Y-68389699D01*
X114216500Y-68390000D01*
X114091500Y-68390000D01*
X114085374Y-68389699D01*
X114079307Y-68388799D01*
X114073357Y-68387309D01*
X114067582Y-68385242D01*
X114062038Y-68382620D01*
X114056777Y-68379467D01*
X114051850Y-68375813D01*
X114047306Y-68371694D01*
X114043187Y-68367150D01*
X114039533Y-68362223D01*
X114036380Y-68356962D01*
X114033758Y-68351418D01*
X114031691Y-68345643D01*
X114030201Y-68339693D01*
X114029301Y-68333626D01*
X114029000Y-68327500D01*
X114029000Y-67627500D01*
X114029301Y-67621374D01*
X114030201Y-67615307D01*
X114031691Y-67609357D01*
X114033758Y-67603582D01*
X114036380Y-67598038D01*
X114039533Y-67592777D01*
X114043187Y-67587850D01*
X114047306Y-67583306D01*
X114051850Y-67579187D01*
X114056777Y-67575533D01*
X114062038Y-67572380D01*
X114067582Y-67569758D01*
X114073357Y-67567691D01*
X114079307Y-67566201D01*
X114085374Y-67565301D01*
X114091500Y-67565000D01*
X114216500Y-67565000D01*
X114222626Y-67565301D01*
X114222626Y-67565301D01*
G37*
D31*
X114154000Y-67977500D03*
D10*
G36*
X113722626Y-67565301D02*
G01*
X113728693Y-67566201D01*
X113734643Y-67567691D01*
X113740418Y-67569758D01*
X113745962Y-67572380D01*
X113751223Y-67575533D01*
X113756150Y-67579187D01*
X113760694Y-67583306D01*
X113764813Y-67587850D01*
X113768467Y-67592777D01*
X113771620Y-67598038D01*
X113774242Y-67603582D01*
X113776309Y-67609357D01*
X113777799Y-67615307D01*
X113778699Y-67621374D01*
X113779000Y-67627500D01*
X113779000Y-68327500D01*
X113778699Y-68333626D01*
X113777799Y-68339693D01*
X113776309Y-68345643D01*
X113774242Y-68351418D01*
X113771620Y-68356962D01*
X113768467Y-68362223D01*
X113764813Y-68367150D01*
X113760694Y-68371694D01*
X113756150Y-68375813D01*
X113751223Y-68379467D01*
X113745962Y-68382620D01*
X113740418Y-68385242D01*
X113734643Y-68387309D01*
X113728693Y-68388799D01*
X113722626Y-68389699D01*
X113716500Y-68390000D01*
X113591500Y-68390000D01*
X113585374Y-68389699D01*
X113579307Y-68388799D01*
X113573357Y-68387309D01*
X113567582Y-68385242D01*
X113562038Y-68382620D01*
X113556777Y-68379467D01*
X113551850Y-68375813D01*
X113547306Y-68371694D01*
X113543187Y-68367150D01*
X113539533Y-68362223D01*
X113536380Y-68356962D01*
X113533758Y-68351418D01*
X113531691Y-68345643D01*
X113530201Y-68339693D01*
X113529301Y-68333626D01*
X113529000Y-68327500D01*
X113529000Y-67627500D01*
X113529301Y-67621374D01*
X113530201Y-67615307D01*
X113531691Y-67609357D01*
X113533758Y-67603582D01*
X113536380Y-67598038D01*
X113539533Y-67592777D01*
X113543187Y-67587850D01*
X113547306Y-67583306D01*
X113551850Y-67579187D01*
X113556777Y-67575533D01*
X113562038Y-67572380D01*
X113567582Y-67569758D01*
X113573357Y-67567691D01*
X113579307Y-67566201D01*
X113585374Y-67565301D01*
X113591500Y-67565000D01*
X113716500Y-67565000D01*
X113722626Y-67565301D01*
X113722626Y-67565301D01*
G37*
D31*
X113654000Y-67977500D03*
D10*
G36*
X113222626Y-67565301D02*
G01*
X113228693Y-67566201D01*
X113234643Y-67567691D01*
X113240418Y-67569758D01*
X113245962Y-67572380D01*
X113251223Y-67575533D01*
X113256150Y-67579187D01*
X113260694Y-67583306D01*
X113264813Y-67587850D01*
X113268467Y-67592777D01*
X113271620Y-67598038D01*
X113274242Y-67603582D01*
X113276309Y-67609357D01*
X113277799Y-67615307D01*
X113278699Y-67621374D01*
X113279000Y-67627500D01*
X113279000Y-68327500D01*
X113278699Y-68333626D01*
X113277799Y-68339693D01*
X113276309Y-68345643D01*
X113274242Y-68351418D01*
X113271620Y-68356962D01*
X113268467Y-68362223D01*
X113264813Y-68367150D01*
X113260694Y-68371694D01*
X113256150Y-68375813D01*
X113251223Y-68379467D01*
X113245962Y-68382620D01*
X113240418Y-68385242D01*
X113234643Y-68387309D01*
X113228693Y-68388799D01*
X113222626Y-68389699D01*
X113216500Y-68390000D01*
X113091500Y-68390000D01*
X113085374Y-68389699D01*
X113079307Y-68388799D01*
X113073357Y-68387309D01*
X113067582Y-68385242D01*
X113062038Y-68382620D01*
X113056777Y-68379467D01*
X113051850Y-68375813D01*
X113047306Y-68371694D01*
X113043187Y-68367150D01*
X113039533Y-68362223D01*
X113036380Y-68356962D01*
X113033758Y-68351418D01*
X113031691Y-68345643D01*
X113030201Y-68339693D01*
X113029301Y-68333626D01*
X113029000Y-68327500D01*
X113029000Y-67627500D01*
X113029301Y-67621374D01*
X113030201Y-67615307D01*
X113031691Y-67609357D01*
X113033758Y-67603582D01*
X113036380Y-67598038D01*
X113039533Y-67592777D01*
X113043187Y-67587850D01*
X113047306Y-67583306D01*
X113051850Y-67579187D01*
X113056777Y-67575533D01*
X113062038Y-67572380D01*
X113067582Y-67569758D01*
X113073357Y-67567691D01*
X113079307Y-67566201D01*
X113085374Y-67565301D01*
X113091500Y-67565000D01*
X113216500Y-67565000D01*
X113222626Y-67565301D01*
X113222626Y-67565301D01*
G37*
D31*
X113154000Y-67977500D03*
D10*
G36*
X112722626Y-67565301D02*
G01*
X112728693Y-67566201D01*
X112734643Y-67567691D01*
X112740418Y-67569758D01*
X112745962Y-67572380D01*
X112751223Y-67575533D01*
X112756150Y-67579187D01*
X112760694Y-67583306D01*
X112764813Y-67587850D01*
X112768467Y-67592777D01*
X112771620Y-67598038D01*
X112774242Y-67603582D01*
X112776309Y-67609357D01*
X112777799Y-67615307D01*
X112778699Y-67621374D01*
X112779000Y-67627500D01*
X112779000Y-68327500D01*
X112778699Y-68333626D01*
X112777799Y-68339693D01*
X112776309Y-68345643D01*
X112774242Y-68351418D01*
X112771620Y-68356962D01*
X112768467Y-68362223D01*
X112764813Y-68367150D01*
X112760694Y-68371694D01*
X112756150Y-68375813D01*
X112751223Y-68379467D01*
X112745962Y-68382620D01*
X112740418Y-68385242D01*
X112734643Y-68387309D01*
X112728693Y-68388799D01*
X112722626Y-68389699D01*
X112716500Y-68390000D01*
X112591500Y-68390000D01*
X112585374Y-68389699D01*
X112579307Y-68388799D01*
X112573357Y-68387309D01*
X112567582Y-68385242D01*
X112562038Y-68382620D01*
X112556777Y-68379467D01*
X112551850Y-68375813D01*
X112547306Y-68371694D01*
X112543187Y-68367150D01*
X112539533Y-68362223D01*
X112536380Y-68356962D01*
X112533758Y-68351418D01*
X112531691Y-68345643D01*
X112530201Y-68339693D01*
X112529301Y-68333626D01*
X112529000Y-68327500D01*
X112529000Y-67627500D01*
X112529301Y-67621374D01*
X112530201Y-67615307D01*
X112531691Y-67609357D01*
X112533758Y-67603582D01*
X112536380Y-67598038D01*
X112539533Y-67592777D01*
X112543187Y-67587850D01*
X112547306Y-67583306D01*
X112551850Y-67579187D01*
X112556777Y-67575533D01*
X112562038Y-67572380D01*
X112567582Y-67569758D01*
X112573357Y-67567691D01*
X112579307Y-67566201D01*
X112585374Y-67565301D01*
X112591500Y-67565000D01*
X112716500Y-67565000D01*
X112722626Y-67565301D01*
X112722626Y-67565301D01*
G37*
D31*
X112654000Y-67977500D03*
D10*
G36*
X112322626Y-67165301D02*
G01*
X112328693Y-67166201D01*
X112334643Y-67167691D01*
X112340418Y-67169758D01*
X112345962Y-67172380D01*
X112351223Y-67175533D01*
X112356150Y-67179187D01*
X112360694Y-67183306D01*
X112364813Y-67187850D01*
X112368467Y-67192777D01*
X112371620Y-67198038D01*
X112374242Y-67203582D01*
X112376309Y-67209357D01*
X112377799Y-67215307D01*
X112378699Y-67221374D01*
X112379000Y-67227500D01*
X112379000Y-67352500D01*
X112378699Y-67358626D01*
X112377799Y-67364693D01*
X112376309Y-67370643D01*
X112374242Y-67376418D01*
X112371620Y-67381962D01*
X112368467Y-67387223D01*
X112364813Y-67392150D01*
X112360694Y-67396694D01*
X112356150Y-67400813D01*
X112351223Y-67404467D01*
X112345962Y-67407620D01*
X112340418Y-67410242D01*
X112334643Y-67412309D01*
X112328693Y-67413799D01*
X112322626Y-67414699D01*
X112316500Y-67415000D01*
X111616500Y-67415000D01*
X111610374Y-67414699D01*
X111604307Y-67413799D01*
X111598357Y-67412309D01*
X111592582Y-67410242D01*
X111587038Y-67407620D01*
X111581777Y-67404467D01*
X111576850Y-67400813D01*
X111572306Y-67396694D01*
X111568187Y-67392150D01*
X111564533Y-67387223D01*
X111561380Y-67381962D01*
X111558758Y-67376418D01*
X111556691Y-67370643D01*
X111555201Y-67364693D01*
X111554301Y-67358626D01*
X111554000Y-67352500D01*
X111554000Y-67227500D01*
X111554301Y-67221374D01*
X111555201Y-67215307D01*
X111556691Y-67209357D01*
X111558758Y-67203582D01*
X111561380Y-67198038D01*
X111564533Y-67192777D01*
X111568187Y-67187850D01*
X111572306Y-67183306D01*
X111576850Y-67179187D01*
X111581777Y-67175533D01*
X111587038Y-67172380D01*
X111592582Y-67169758D01*
X111598357Y-67167691D01*
X111604307Y-67166201D01*
X111610374Y-67165301D01*
X111616500Y-67165000D01*
X112316500Y-67165000D01*
X112322626Y-67165301D01*
X112322626Y-67165301D01*
G37*
D31*
X111966500Y-67290000D03*
D10*
G36*
X112322626Y-66665301D02*
G01*
X112328693Y-66666201D01*
X112334643Y-66667691D01*
X112340418Y-66669758D01*
X112345962Y-66672380D01*
X112351223Y-66675533D01*
X112356150Y-66679187D01*
X112360694Y-66683306D01*
X112364813Y-66687850D01*
X112368467Y-66692777D01*
X112371620Y-66698038D01*
X112374242Y-66703582D01*
X112376309Y-66709357D01*
X112377799Y-66715307D01*
X112378699Y-66721374D01*
X112379000Y-66727500D01*
X112379000Y-66852500D01*
X112378699Y-66858626D01*
X112377799Y-66864693D01*
X112376309Y-66870643D01*
X112374242Y-66876418D01*
X112371620Y-66881962D01*
X112368467Y-66887223D01*
X112364813Y-66892150D01*
X112360694Y-66896694D01*
X112356150Y-66900813D01*
X112351223Y-66904467D01*
X112345962Y-66907620D01*
X112340418Y-66910242D01*
X112334643Y-66912309D01*
X112328693Y-66913799D01*
X112322626Y-66914699D01*
X112316500Y-66915000D01*
X111616500Y-66915000D01*
X111610374Y-66914699D01*
X111604307Y-66913799D01*
X111598357Y-66912309D01*
X111592582Y-66910242D01*
X111587038Y-66907620D01*
X111581777Y-66904467D01*
X111576850Y-66900813D01*
X111572306Y-66896694D01*
X111568187Y-66892150D01*
X111564533Y-66887223D01*
X111561380Y-66881962D01*
X111558758Y-66876418D01*
X111556691Y-66870643D01*
X111555201Y-66864693D01*
X111554301Y-66858626D01*
X111554000Y-66852500D01*
X111554000Y-66727500D01*
X111554301Y-66721374D01*
X111555201Y-66715307D01*
X111556691Y-66709357D01*
X111558758Y-66703582D01*
X111561380Y-66698038D01*
X111564533Y-66692777D01*
X111568187Y-66687850D01*
X111572306Y-66683306D01*
X111576850Y-66679187D01*
X111581777Y-66675533D01*
X111587038Y-66672380D01*
X111592582Y-66669758D01*
X111598357Y-66667691D01*
X111604307Y-66666201D01*
X111610374Y-66665301D01*
X111616500Y-66665000D01*
X112316500Y-66665000D01*
X112322626Y-66665301D01*
X112322626Y-66665301D01*
G37*
D31*
X111966500Y-66790000D03*
D10*
G36*
X112322626Y-66165301D02*
G01*
X112328693Y-66166201D01*
X112334643Y-66167691D01*
X112340418Y-66169758D01*
X112345962Y-66172380D01*
X112351223Y-66175533D01*
X112356150Y-66179187D01*
X112360694Y-66183306D01*
X112364813Y-66187850D01*
X112368467Y-66192777D01*
X112371620Y-66198038D01*
X112374242Y-66203582D01*
X112376309Y-66209357D01*
X112377799Y-66215307D01*
X112378699Y-66221374D01*
X112379000Y-66227500D01*
X112379000Y-66352500D01*
X112378699Y-66358626D01*
X112377799Y-66364693D01*
X112376309Y-66370643D01*
X112374242Y-66376418D01*
X112371620Y-66381962D01*
X112368467Y-66387223D01*
X112364813Y-66392150D01*
X112360694Y-66396694D01*
X112356150Y-66400813D01*
X112351223Y-66404467D01*
X112345962Y-66407620D01*
X112340418Y-66410242D01*
X112334643Y-66412309D01*
X112328693Y-66413799D01*
X112322626Y-66414699D01*
X112316500Y-66415000D01*
X111616500Y-66415000D01*
X111610374Y-66414699D01*
X111604307Y-66413799D01*
X111598357Y-66412309D01*
X111592582Y-66410242D01*
X111587038Y-66407620D01*
X111581777Y-66404467D01*
X111576850Y-66400813D01*
X111572306Y-66396694D01*
X111568187Y-66392150D01*
X111564533Y-66387223D01*
X111561380Y-66381962D01*
X111558758Y-66376418D01*
X111556691Y-66370643D01*
X111555201Y-66364693D01*
X111554301Y-66358626D01*
X111554000Y-66352500D01*
X111554000Y-66227500D01*
X111554301Y-66221374D01*
X111555201Y-66215307D01*
X111556691Y-66209357D01*
X111558758Y-66203582D01*
X111561380Y-66198038D01*
X111564533Y-66192777D01*
X111568187Y-66187850D01*
X111572306Y-66183306D01*
X111576850Y-66179187D01*
X111581777Y-66175533D01*
X111587038Y-66172380D01*
X111592582Y-66169758D01*
X111598357Y-66167691D01*
X111604307Y-66166201D01*
X111610374Y-66165301D01*
X111616500Y-66165000D01*
X112316500Y-66165000D01*
X112322626Y-66165301D01*
X112322626Y-66165301D01*
G37*
D31*
X111966500Y-66290000D03*
D10*
G36*
X112322626Y-65665301D02*
G01*
X112328693Y-65666201D01*
X112334643Y-65667691D01*
X112340418Y-65669758D01*
X112345962Y-65672380D01*
X112351223Y-65675533D01*
X112356150Y-65679187D01*
X112360694Y-65683306D01*
X112364813Y-65687850D01*
X112368467Y-65692777D01*
X112371620Y-65698038D01*
X112374242Y-65703582D01*
X112376309Y-65709357D01*
X112377799Y-65715307D01*
X112378699Y-65721374D01*
X112379000Y-65727500D01*
X112379000Y-65852500D01*
X112378699Y-65858626D01*
X112377799Y-65864693D01*
X112376309Y-65870643D01*
X112374242Y-65876418D01*
X112371620Y-65881962D01*
X112368467Y-65887223D01*
X112364813Y-65892150D01*
X112360694Y-65896694D01*
X112356150Y-65900813D01*
X112351223Y-65904467D01*
X112345962Y-65907620D01*
X112340418Y-65910242D01*
X112334643Y-65912309D01*
X112328693Y-65913799D01*
X112322626Y-65914699D01*
X112316500Y-65915000D01*
X111616500Y-65915000D01*
X111610374Y-65914699D01*
X111604307Y-65913799D01*
X111598357Y-65912309D01*
X111592582Y-65910242D01*
X111587038Y-65907620D01*
X111581777Y-65904467D01*
X111576850Y-65900813D01*
X111572306Y-65896694D01*
X111568187Y-65892150D01*
X111564533Y-65887223D01*
X111561380Y-65881962D01*
X111558758Y-65876418D01*
X111556691Y-65870643D01*
X111555201Y-65864693D01*
X111554301Y-65858626D01*
X111554000Y-65852500D01*
X111554000Y-65727500D01*
X111554301Y-65721374D01*
X111555201Y-65715307D01*
X111556691Y-65709357D01*
X111558758Y-65703582D01*
X111561380Y-65698038D01*
X111564533Y-65692777D01*
X111568187Y-65687850D01*
X111572306Y-65683306D01*
X111576850Y-65679187D01*
X111581777Y-65675533D01*
X111587038Y-65672380D01*
X111592582Y-65669758D01*
X111598357Y-65667691D01*
X111604307Y-65666201D01*
X111610374Y-65665301D01*
X111616500Y-65665000D01*
X112316500Y-65665000D01*
X112322626Y-65665301D01*
X112322626Y-65665301D01*
G37*
D31*
X111966500Y-65790000D03*
D10*
G36*
X112322626Y-65165301D02*
G01*
X112328693Y-65166201D01*
X112334643Y-65167691D01*
X112340418Y-65169758D01*
X112345962Y-65172380D01*
X112351223Y-65175533D01*
X112356150Y-65179187D01*
X112360694Y-65183306D01*
X112364813Y-65187850D01*
X112368467Y-65192777D01*
X112371620Y-65198038D01*
X112374242Y-65203582D01*
X112376309Y-65209357D01*
X112377799Y-65215307D01*
X112378699Y-65221374D01*
X112379000Y-65227500D01*
X112379000Y-65352500D01*
X112378699Y-65358626D01*
X112377799Y-65364693D01*
X112376309Y-65370643D01*
X112374242Y-65376418D01*
X112371620Y-65381962D01*
X112368467Y-65387223D01*
X112364813Y-65392150D01*
X112360694Y-65396694D01*
X112356150Y-65400813D01*
X112351223Y-65404467D01*
X112345962Y-65407620D01*
X112340418Y-65410242D01*
X112334643Y-65412309D01*
X112328693Y-65413799D01*
X112322626Y-65414699D01*
X112316500Y-65415000D01*
X111616500Y-65415000D01*
X111610374Y-65414699D01*
X111604307Y-65413799D01*
X111598357Y-65412309D01*
X111592582Y-65410242D01*
X111587038Y-65407620D01*
X111581777Y-65404467D01*
X111576850Y-65400813D01*
X111572306Y-65396694D01*
X111568187Y-65392150D01*
X111564533Y-65387223D01*
X111561380Y-65381962D01*
X111558758Y-65376418D01*
X111556691Y-65370643D01*
X111555201Y-65364693D01*
X111554301Y-65358626D01*
X111554000Y-65352500D01*
X111554000Y-65227500D01*
X111554301Y-65221374D01*
X111555201Y-65215307D01*
X111556691Y-65209357D01*
X111558758Y-65203582D01*
X111561380Y-65198038D01*
X111564533Y-65192777D01*
X111568187Y-65187850D01*
X111572306Y-65183306D01*
X111576850Y-65179187D01*
X111581777Y-65175533D01*
X111587038Y-65172380D01*
X111592582Y-65169758D01*
X111598357Y-65167691D01*
X111604307Y-65166201D01*
X111610374Y-65165301D01*
X111616500Y-65165000D01*
X112316500Y-65165000D01*
X112322626Y-65165301D01*
X112322626Y-65165301D01*
G37*
D31*
X111966500Y-65290000D03*
D10*
G36*
X112322626Y-64665301D02*
G01*
X112328693Y-64666201D01*
X112334643Y-64667691D01*
X112340418Y-64669758D01*
X112345962Y-64672380D01*
X112351223Y-64675533D01*
X112356150Y-64679187D01*
X112360694Y-64683306D01*
X112364813Y-64687850D01*
X112368467Y-64692777D01*
X112371620Y-64698038D01*
X112374242Y-64703582D01*
X112376309Y-64709357D01*
X112377799Y-64715307D01*
X112378699Y-64721374D01*
X112379000Y-64727500D01*
X112379000Y-64852500D01*
X112378699Y-64858626D01*
X112377799Y-64864693D01*
X112376309Y-64870643D01*
X112374242Y-64876418D01*
X112371620Y-64881962D01*
X112368467Y-64887223D01*
X112364813Y-64892150D01*
X112360694Y-64896694D01*
X112356150Y-64900813D01*
X112351223Y-64904467D01*
X112345962Y-64907620D01*
X112340418Y-64910242D01*
X112334643Y-64912309D01*
X112328693Y-64913799D01*
X112322626Y-64914699D01*
X112316500Y-64915000D01*
X111616500Y-64915000D01*
X111610374Y-64914699D01*
X111604307Y-64913799D01*
X111598357Y-64912309D01*
X111592582Y-64910242D01*
X111587038Y-64907620D01*
X111581777Y-64904467D01*
X111576850Y-64900813D01*
X111572306Y-64896694D01*
X111568187Y-64892150D01*
X111564533Y-64887223D01*
X111561380Y-64881962D01*
X111558758Y-64876418D01*
X111556691Y-64870643D01*
X111555201Y-64864693D01*
X111554301Y-64858626D01*
X111554000Y-64852500D01*
X111554000Y-64727500D01*
X111554301Y-64721374D01*
X111555201Y-64715307D01*
X111556691Y-64709357D01*
X111558758Y-64703582D01*
X111561380Y-64698038D01*
X111564533Y-64692777D01*
X111568187Y-64687850D01*
X111572306Y-64683306D01*
X111576850Y-64679187D01*
X111581777Y-64675533D01*
X111587038Y-64672380D01*
X111592582Y-64669758D01*
X111598357Y-64667691D01*
X111604307Y-64666201D01*
X111610374Y-64665301D01*
X111616500Y-64665000D01*
X112316500Y-64665000D01*
X112322626Y-64665301D01*
X112322626Y-64665301D01*
G37*
D31*
X111966500Y-64790000D03*
D10*
G36*
X114978504Y-64741204D02*
G01*
X115002773Y-64744804D01*
X115026571Y-64750765D01*
X115049671Y-64759030D01*
X115071849Y-64769520D01*
X115092893Y-64782133D01*
X115112598Y-64796747D01*
X115130777Y-64813223D01*
X115147253Y-64831402D01*
X115161867Y-64851107D01*
X115174480Y-64872151D01*
X115184970Y-64894329D01*
X115193235Y-64917429D01*
X115199196Y-64941227D01*
X115202796Y-64965496D01*
X115204000Y-64990000D01*
X115204000Y-67090000D01*
X115202796Y-67114504D01*
X115199196Y-67138773D01*
X115193235Y-67162571D01*
X115184970Y-67185671D01*
X115174480Y-67207849D01*
X115161867Y-67228893D01*
X115147253Y-67248598D01*
X115130777Y-67266777D01*
X115112598Y-67283253D01*
X115092893Y-67297867D01*
X115071849Y-67310480D01*
X115049671Y-67320970D01*
X115026571Y-67329235D01*
X115002773Y-67335196D01*
X114978504Y-67338796D01*
X114954000Y-67340000D01*
X112854000Y-67340000D01*
X112829496Y-67338796D01*
X112805227Y-67335196D01*
X112781429Y-67329235D01*
X112758329Y-67320970D01*
X112736151Y-67310480D01*
X112715107Y-67297867D01*
X112695402Y-67283253D01*
X112677223Y-67266777D01*
X112660747Y-67248598D01*
X112646133Y-67228893D01*
X112633520Y-67207849D01*
X112623030Y-67185671D01*
X112614765Y-67162571D01*
X112608804Y-67138773D01*
X112605204Y-67114504D01*
X112604000Y-67090000D01*
X112604000Y-64990000D01*
X112605204Y-64965496D01*
X112608804Y-64941227D01*
X112614765Y-64917429D01*
X112623030Y-64894329D01*
X112633520Y-64872151D01*
X112646133Y-64851107D01*
X112660747Y-64831402D01*
X112677223Y-64813223D01*
X112695402Y-64796747D01*
X112715107Y-64782133D01*
X112736151Y-64769520D01*
X112758329Y-64759030D01*
X112781429Y-64750765D01*
X112805227Y-64744804D01*
X112829496Y-64741204D01*
X112854000Y-64740000D01*
X114954000Y-64740000D01*
X114978504Y-64741204D01*
X114978504Y-64741204D01*
G37*
D32*
X113904000Y-66040000D03*
D33*
X114150000Y-73500000D03*
X114150000Y-78100000D03*
X114150000Y-75800000D03*
D34*
X120450000Y-75800000D03*
D35*
X117000000Y-60041000D03*
X111000000Y-60041000D03*
X117000000Y-56291000D03*
X111000000Y-56291000D03*
D10*
G36*
X110422958Y-62166710D02*
G01*
X110437276Y-62168834D01*
X110451317Y-62172351D01*
X110464946Y-62177228D01*
X110478031Y-62183417D01*
X110490447Y-62190858D01*
X110502073Y-62199481D01*
X110512798Y-62209202D01*
X110522519Y-62219927D01*
X110531142Y-62231553D01*
X110538583Y-62243969D01*
X110544772Y-62257054D01*
X110549649Y-62270683D01*
X110553166Y-62284724D01*
X110555290Y-62299042D01*
X110556000Y-62313500D01*
X110556000Y-62608500D01*
X110555290Y-62622958D01*
X110553166Y-62637276D01*
X110549649Y-62651317D01*
X110544772Y-62664946D01*
X110538583Y-62678031D01*
X110531142Y-62690447D01*
X110522519Y-62702073D01*
X110512798Y-62712798D01*
X110502073Y-62722519D01*
X110490447Y-62731142D01*
X110478031Y-62738583D01*
X110464946Y-62744772D01*
X110451317Y-62749649D01*
X110437276Y-62753166D01*
X110422958Y-62755290D01*
X110408500Y-62756000D01*
X110063500Y-62756000D01*
X110049042Y-62755290D01*
X110034724Y-62753166D01*
X110020683Y-62749649D01*
X110007054Y-62744772D01*
X109993969Y-62738583D01*
X109981553Y-62731142D01*
X109969927Y-62722519D01*
X109959202Y-62712798D01*
X109949481Y-62702073D01*
X109940858Y-62690447D01*
X109933417Y-62678031D01*
X109927228Y-62664946D01*
X109922351Y-62651317D01*
X109918834Y-62637276D01*
X109916710Y-62622958D01*
X109916000Y-62608500D01*
X109916000Y-62313500D01*
X109916710Y-62299042D01*
X109918834Y-62284724D01*
X109922351Y-62270683D01*
X109927228Y-62257054D01*
X109933417Y-62243969D01*
X109940858Y-62231553D01*
X109949481Y-62219927D01*
X109959202Y-62209202D01*
X109969927Y-62199481D01*
X109981553Y-62190858D01*
X109993969Y-62183417D01*
X110007054Y-62177228D01*
X110020683Y-62172351D01*
X110034724Y-62168834D01*
X110049042Y-62166710D01*
X110063500Y-62166000D01*
X110408500Y-62166000D01*
X110422958Y-62166710D01*
X110422958Y-62166710D01*
G37*
D11*
X110236000Y-62461000D03*
D10*
G36*
X110422958Y-61196710D02*
G01*
X110437276Y-61198834D01*
X110451317Y-61202351D01*
X110464946Y-61207228D01*
X110478031Y-61213417D01*
X110490447Y-61220858D01*
X110502073Y-61229481D01*
X110512798Y-61239202D01*
X110522519Y-61249927D01*
X110531142Y-61261553D01*
X110538583Y-61273969D01*
X110544772Y-61287054D01*
X110549649Y-61300683D01*
X110553166Y-61314724D01*
X110555290Y-61329042D01*
X110556000Y-61343500D01*
X110556000Y-61638500D01*
X110555290Y-61652958D01*
X110553166Y-61667276D01*
X110549649Y-61681317D01*
X110544772Y-61694946D01*
X110538583Y-61708031D01*
X110531142Y-61720447D01*
X110522519Y-61732073D01*
X110512798Y-61742798D01*
X110502073Y-61752519D01*
X110490447Y-61761142D01*
X110478031Y-61768583D01*
X110464946Y-61774772D01*
X110451317Y-61779649D01*
X110437276Y-61783166D01*
X110422958Y-61785290D01*
X110408500Y-61786000D01*
X110063500Y-61786000D01*
X110049042Y-61785290D01*
X110034724Y-61783166D01*
X110020683Y-61779649D01*
X110007054Y-61774772D01*
X109993969Y-61768583D01*
X109981553Y-61761142D01*
X109969927Y-61752519D01*
X109959202Y-61742798D01*
X109949481Y-61732073D01*
X109940858Y-61720447D01*
X109933417Y-61708031D01*
X109927228Y-61694946D01*
X109922351Y-61681317D01*
X109918834Y-61667276D01*
X109916710Y-61652958D01*
X109916000Y-61638500D01*
X109916000Y-61343500D01*
X109916710Y-61329042D01*
X109918834Y-61314724D01*
X109922351Y-61300683D01*
X109927228Y-61287054D01*
X109933417Y-61273969D01*
X109940858Y-61261553D01*
X109949481Y-61249927D01*
X109959202Y-61239202D01*
X109969927Y-61229481D01*
X109981553Y-61220858D01*
X109993969Y-61213417D01*
X110007054Y-61207228D01*
X110020683Y-61202351D01*
X110034724Y-61198834D01*
X110049042Y-61196710D01*
X110063500Y-61196000D01*
X110408500Y-61196000D01*
X110422958Y-61196710D01*
X110422958Y-61196710D01*
G37*
D11*
X110236000Y-61491000D03*
D10*
G36*
X117278958Y-63180710D02*
G01*
X117293276Y-63182834D01*
X117307317Y-63186351D01*
X117320946Y-63191228D01*
X117334031Y-63197417D01*
X117346447Y-63204858D01*
X117358073Y-63213481D01*
X117368798Y-63223202D01*
X117378519Y-63233927D01*
X117387142Y-63245553D01*
X117394583Y-63257969D01*
X117400772Y-63271054D01*
X117405649Y-63284683D01*
X117409166Y-63298724D01*
X117411290Y-63313042D01*
X117412000Y-63327500D01*
X117412000Y-63672500D01*
X117411290Y-63686958D01*
X117409166Y-63701276D01*
X117405649Y-63715317D01*
X117400772Y-63728946D01*
X117394583Y-63742031D01*
X117387142Y-63754447D01*
X117378519Y-63766073D01*
X117368798Y-63776798D01*
X117358073Y-63786519D01*
X117346447Y-63795142D01*
X117334031Y-63802583D01*
X117320946Y-63808772D01*
X117307317Y-63813649D01*
X117293276Y-63817166D01*
X117278958Y-63819290D01*
X117264500Y-63820000D01*
X116969500Y-63820000D01*
X116955042Y-63819290D01*
X116940724Y-63817166D01*
X116926683Y-63813649D01*
X116913054Y-63808772D01*
X116899969Y-63802583D01*
X116887553Y-63795142D01*
X116875927Y-63786519D01*
X116865202Y-63776798D01*
X116855481Y-63766073D01*
X116846858Y-63754447D01*
X116839417Y-63742031D01*
X116833228Y-63728946D01*
X116828351Y-63715317D01*
X116824834Y-63701276D01*
X116822710Y-63686958D01*
X116822000Y-63672500D01*
X116822000Y-63327500D01*
X116822710Y-63313042D01*
X116824834Y-63298724D01*
X116828351Y-63284683D01*
X116833228Y-63271054D01*
X116839417Y-63257969D01*
X116846858Y-63245553D01*
X116855481Y-63233927D01*
X116865202Y-63223202D01*
X116875927Y-63213481D01*
X116887553Y-63204858D01*
X116899969Y-63197417D01*
X116913054Y-63191228D01*
X116926683Y-63186351D01*
X116940724Y-63182834D01*
X116955042Y-63180710D01*
X116969500Y-63180000D01*
X117264500Y-63180000D01*
X117278958Y-63180710D01*
X117278958Y-63180710D01*
G37*
D11*
X117117000Y-63500000D03*
D10*
G36*
X118248958Y-63180710D02*
G01*
X118263276Y-63182834D01*
X118277317Y-63186351D01*
X118290946Y-63191228D01*
X118304031Y-63197417D01*
X118316447Y-63204858D01*
X118328073Y-63213481D01*
X118338798Y-63223202D01*
X118348519Y-63233927D01*
X118357142Y-63245553D01*
X118364583Y-63257969D01*
X118370772Y-63271054D01*
X118375649Y-63284683D01*
X118379166Y-63298724D01*
X118381290Y-63313042D01*
X118382000Y-63327500D01*
X118382000Y-63672500D01*
X118381290Y-63686958D01*
X118379166Y-63701276D01*
X118375649Y-63715317D01*
X118370772Y-63728946D01*
X118364583Y-63742031D01*
X118357142Y-63754447D01*
X118348519Y-63766073D01*
X118338798Y-63776798D01*
X118328073Y-63786519D01*
X118316447Y-63795142D01*
X118304031Y-63802583D01*
X118290946Y-63808772D01*
X118277317Y-63813649D01*
X118263276Y-63817166D01*
X118248958Y-63819290D01*
X118234500Y-63820000D01*
X117939500Y-63820000D01*
X117925042Y-63819290D01*
X117910724Y-63817166D01*
X117896683Y-63813649D01*
X117883054Y-63808772D01*
X117869969Y-63802583D01*
X117857553Y-63795142D01*
X117845927Y-63786519D01*
X117835202Y-63776798D01*
X117825481Y-63766073D01*
X117816858Y-63754447D01*
X117809417Y-63742031D01*
X117803228Y-63728946D01*
X117798351Y-63715317D01*
X117794834Y-63701276D01*
X117792710Y-63686958D01*
X117792000Y-63672500D01*
X117792000Y-63327500D01*
X117792710Y-63313042D01*
X117794834Y-63298724D01*
X117798351Y-63284683D01*
X117803228Y-63271054D01*
X117809417Y-63257969D01*
X117816858Y-63245553D01*
X117825481Y-63233927D01*
X117835202Y-63223202D01*
X117845927Y-63213481D01*
X117857553Y-63204858D01*
X117869969Y-63197417D01*
X117883054Y-63191228D01*
X117896683Y-63186351D01*
X117910724Y-63182834D01*
X117925042Y-63180710D01*
X117939500Y-63180000D01*
X118234500Y-63180000D01*
X118248958Y-63180710D01*
X118248958Y-63180710D01*
G37*
D11*
X118087000Y-63500000D03*
D10*
G36*
X117278958Y-61910710D02*
G01*
X117293276Y-61912834D01*
X117307317Y-61916351D01*
X117320946Y-61921228D01*
X117334031Y-61927417D01*
X117346447Y-61934858D01*
X117358073Y-61943481D01*
X117368798Y-61953202D01*
X117378519Y-61963927D01*
X117387142Y-61975553D01*
X117394583Y-61987969D01*
X117400772Y-62001054D01*
X117405649Y-62014683D01*
X117409166Y-62028724D01*
X117411290Y-62043042D01*
X117412000Y-62057500D01*
X117412000Y-62402500D01*
X117411290Y-62416958D01*
X117409166Y-62431276D01*
X117405649Y-62445317D01*
X117400772Y-62458946D01*
X117394583Y-62472031D01*
X117387142Y-62484447D01*
X117378519Y-62496073D01*
X117368798Y-62506798D01*
X117358073Y-62516519D01*
X117346447Y-62525142D01*
X117334031Y-62532583D01*
X117320946Y-62538772D01*
X117307317Y-62543649D01*
X117293276Y-62547166D01*
X117278958Y-62549290D01*
X117264500Y-62550000D01*
X116969500Y-62550000D01*
X116955042Y-62549290D01*
X116940724Y-62547166D01*
X116926683Y-62543649D01*
X116913054Y-62538772D01*
X116899969Y-62532583D01*
X116887553Y-62525142D01*
X116875927Y-62516519D01*
X116865202Y-62506798D01*
X116855481Y-62496073D01*
X116846858Y-62484447D01*
X116839417Y-62472031D01*
X116833228Y-62458946D01*
X116828351Y-62445317D01*
X116824834Y-62431276D01*
X116822710Y-62416958D01*
X116822000Y-62402500D01*
X116822000Y-62057500D01*
X116822710Y-62043042D01*
X116824834Y-62028724D01*
X116828351Y-62014683D01*
X116833228Y-62001054D01*
X116839417Y-61987969D01*
X116846858Y-61975553D01*
X116855481Y-61963927D01*
X116865202Y-61953202D01*
X116875927Y-61943481D01*
X116887553Y-61934858D01*
X116899969Y-61927417D01*
X116913054Y-61921228D01*
X116926683Y-61916351D01*
X116940724Y-61912834D01*
X116955042Y-61910710D01*
X116969500Y-61910000D01*
X117264500Y-61910000D01*
X117278958Y-61910710D01*
X117278958Y-61910710D01*
G37*
D11*
X117117000Y-62230000D03*
D10*
G36*
X118248958Y-61910710D02*
G01*
X118263276Y-61912834D01*
X118277317Y-61916351D01*
X118290946Y-61921228D01*
X118304031Y-61927417D01*
X118316447Y-61934858D01*
X118328073Y-61943481D01*
X118338798Y-61953202D01*
X118348519Y-61963927D01*
X118357142Y-61975553D01*
X118364583Y-61987969D01*
X118370772Y-62001054D01*
X118375649Y-62014683D01*
X118379166Y-62028724D01*
X118381290Y-62043042D01*
X118382000Y-62057500D01*
X118382000Y-62402500D01*
X118381290Y-62416958D01*
X118379166Y-62431276D01*
X118375649Y-62445317D01*
X118370772Y-62458946D01*
X118364583Y-62472031D01*
X118357142Y-62484447D01*
X118348519Y-62496073D01*
X118338798Y-62506798D01*
X118328073Y-62516519D01*
X118316447Y-62525142D01*
X118304031Y-62532583D01*
X118290946Y-62538772D01*
X118277317Y-62543649D01*
X118263276Y-62547166D01*
X118248958Y-62549290D01*
X118234500Y-62550000D01*
X117939500Y-62550000D01*
X117925042Y-62549290D01*
X117910724Y-62547166D01*
X117896683Y-62543649D01*
X117883054Y-62538772D01*
X117869969Y-62532583D01*
X117857553Y-62525142D01*
X117845927Y-62516519D01*
X117835202Y-62506798D01*
X117825481Y-62496073D01*
X117816858Y-62484447D01*
X117809417Y-62472031D01*
X117803228Y-62458946D01*
X117798351Y-62445317D01*
X117794834Y-62431276D01*
X117792710Y-62416958D01*
X117792000Y-62402500D01*
X117792000Y-62057500D01*
X117792710Y-62043042D01*
X117794834Y-62028724D01*
X117798351Y-62014683D01*
X117803228Y-62001054D01*
X117809417Y-61987969D01*
X117816858Y-61975553D01*
X117825481Y-61963927D01*
X117835202Y-61953202D01*
X117845927Y-61943481D01*
X117857553Y-61934858D01*
X117869969Y-61927417D01*
X117883054Y-61921228D01*
X117896683Y-61916351D01*
X117910724Y-61912834D01*
X117925042Y-61910710D01*
X117939500Y-61910000D01*
X118234500Y-61910000D01*
X118248958Y-61910710D01*
X118248958Y-61910710D01*
G37*
D11*
X118087000Y-62230000D03*
D20*
X122158000Y-69850000D03*
X120158000Y-70800000D03*
X120158000Y-68900000D03*
X122158000Y-66040000D03*
X120158000Y-66990000D03*
X120158000Y-65090000D03*
D10*
G36*
X123122958Y-61958710D02*
G01*
X123137276Y-61960834D01*
X123151317Y-61964351D01*
X123164946Y-61969228D01*
X123178031Y-61975417D01*
X123190447Y-61982858D01*
X123202073Y-61991481D01*
X123212798Y-62001202D01*
X123222519Y-62011927D01*
X123231142Y-62023553D01*
X123238583Y-62035969D01*
X123244772Y-62049054D01*
X123249649Y-62062683D01*
X123253166Y-62076724D01*
X123255290Y-62091042D01*
X123256000Y-62105500D01*
X123256000Y-62400500D01*
X123255290Y-62414958D01*
X123253166Y-62429276D01*
X123249649Y-62443317D01*
X123244772Y-62456946D01*
X123238583Y-62470031D01*
X123231142Y-62482447D01*
X123222519Y-62494073D01*
X123212798Y-62504798D01*
X123202073Y-62514519D01*
X123190447Y-62523142D01*
X123178031Y-62530583D01*
X123164946Y-62536772D01*
X123151317Y-62541649D01*
X123137276Y-62545166D01*
X123122958Y-62547290D01*
X123108500Y-62548000D01*
X122763500Y-62548000D01*
X122749042Y-62547290D01*
X122734724Y-62545166D01*
X122720683Y-62541649D01*
X122707054Y-62536772D01*
X122693969Y-62530583D01*
X122681553Y-62523142D01*
X122669927Y-62514519D01*
X122659202Y-62504798D01*
X122649481Y-62494073D01*
X122640858Y-62482447D01*
X122633417Y-62470031D01*
X122627228Y-62456946D01*
X122622351Y-62443317D01*
X122618834Y-62429276D01*
X122616710Y-62414958D01*
X122616000Y-62400500D01*
X122616000Y-62105500D01*
X122616710Y-62091042D01*
X122618834Y-62076724D01*
X122622351Y-62062683D01*
X122627228Y-62049054D01*
X122633417Y-62035969D01*
X122640858Y-62023553D01*
X122649481Y-62011927D01*
X122659202Y-62001202D01*
X122669927Y-61991481D01*
X122681553Y-61982858D01*
X122693969Y-61975417D01*
X122707054Y-61969228D01*
X122720683Y-61964351D01*
X122734724Y-61960834D01*
X122749042Y-61958710D01*
X122763500Y-61958000D01*
X123108500Y-61958000D01*
X123122958Y-61958710D01*
X123122958Y-61958710D01*
G37*
D11*
X122936000Y-62253000D03*
D10*
G36*
X123122958Y-62928710D02*
G01*
X123137276Y-62930834D01*
X123151317Y-62934351D01*
X123164946Y-62939228D01*
X123178031Y-62945417D01*
X123190447Y-62952858D01*
X123202073Y-62961481D01*
X123212798Y-62971202D01*
X123222519Y-62981927D01*
X123231142Y-62993553D01*
X123238583Y-63005969D01*
X123244772Y-63019054D01*
X123249649Y-63032683D01*
X123253166Y-63046724D01*
X123255290Y-63061042D01*
X123256000Y-63075500D01*
X123256000Y-63370500D01*
X123255290Y-63384958D01*
X123253166Y-63399276D01*
X123249649Y-63413317D01*
X123244772Y-63426946D01*
X123238583Y-63440031D01*
X123231142Y-63452447D01*
X123222519Y-63464073D01*
X123212798Y-63474798D01*
X123202073Y-63484519D01*
X123190447Y-63493142D01*
X123178031Y-63500583D01*
X123164946Y-63506772D01*
X123151317Y-63511649D01*
X123137276Y-63515166D01*
X123122958Y-63517290D01*
X123108500Y-63518000D01*
X122763500Y-63518000D01*
X122749042Y-63517290D01*
X122734724Y-63515166D01*
X122720683Y-63511649D01*
X122707054Y-63506772D01*
X122693969Y-63500583D01*
X122681553Y-63493142D01*
X122669927Y-63484519D01*
X122659202Y-63474798D01*
X122649481Y-63464073D01*
X122640858Y-63452447D01*
X122633417Y-63440031D01*
X122627228Y-63426946D01*
X122622351Y-63413317D01*
X122618834Y-63399276D01*
X122616710Y-63384958D01*
X122616000Y-63370500D01*
X122616000Y-63075500D01*
X122616710Y-63061042D01*
X122618834Y-63046724D01*
X122622351Y-63032683D01*
X122627228Y-63019054D01*
X122633417Y-63005969D01*
X122640858Y-62993553D01*
X122649481Y-62981927D01*
X122659202Y-62971202D01*
X122669927Y-62961481D01*
X122681553Y-62952858D01*
X122693969Y-62945417D01*
X122707054Y-62939228D01*
X122720683Y-62934351D01*
X122734724Y-62930834D01*
X122749042Y-62928710D01*
X122763500Y-62928000D01*
X123108500Y-62928000D01*
X123122958Y-62928710D01*
X123122958Y-62928710D01*
G37*
D11*
X122936000Y-63223000D03*
D10*
G36*
X121852958Y-61958710D02*
G01*
X121867276Y-61960834D01*
X121881317Y-61964351D01*
X121894946Y-61969228D01*
X121908031Y-61975417D01*
X121920447Y-61982858D01*
X121932073Y-61991481D01*
X121942798Y-62001202D01*
X121952519Y-62011927D01*
X121961142Y-62023553D01*
X121968583Y-62035969D01*
X121974772Y-62049054D01*
X121979649Y-62062683D01*
X121983166Y-62076724D01*
X121985290Y-62091042D01*
X121986000Y-62105500D01*
X121986000Y-62400500D01*
X121985290Y-62414958D01*
X121983166Y-62429276D01*
X121979649Y-62443317D01*
X121974772Y-62456946D01*
X121968583Y-62470031D01*
X121961142Y-62482447D01*
X121952519Y-62494073D01*
X121942798Y-62504798D01*
X121932073Y-62514519D01*
X121920447Y-62523142D01*
X121908031Y-62530583D01*
X121894946Y-62536772D01*
X121881317Y-62541649D01*
X121867276Y-62545166D01*
X121852958Y-62547290D01*
X121838500Y-62548000D01*
X121493500Y-62548000D01*
X121479042Y-62547290D01*
X121464724Y-62545166D01*
X121450683Y-62541649D01*
X121437054Y-62536772D01*
X121423969Y-62530583D01*
X121411553Y-62523142D01*
X121399927Y-62514519D01*
X121389202Y-62504798D01*
X121379481Y-62494073D01*
X121370858Y-62482447D01*
X121363417Y-62470031D01*
X121357228Y-62456946D01*
X121352351Y-62443317D01*
X121348834Y-62429276D01*
X121346710Y-62414958D01*
X121346000Y-62400500D01*
X121346000Y-62105500D01*
X121346710Y-62091042D01*
X121348834Y-62076724D01*
X121352351Y-62062683D01*
X121357228Y-62049054D01*
X121363417Y-62035969D01*
X121370858Y-62023553D01*
X121379481Y-62011927D01*
X121389202Y-62001202D01*
X121399927Y-61991481D01*
X121411553Y-61982858D01*
X121423969Y-61975417D01*
X121437054Y-61969228D01*
X121450683Y-61964351D01*
X121464724Y-61960834D01*
X121479042Y-61958710D01*
X121493500Y-61958000D01*
X121838500Y-61958000D01*
X121852958Y-61958710D01*
X121852958Y-61958710D01*
G37*
D11*
X121666000Y-62253000D03*
D10*
G36*
X121852958Y-62928710D02*
G01*
X121867276Y-62930834D01*
X121881317Y-62934351D01*
X121894946Y-62939228D01*
X121908031Y-62945417D01*
X121920447Y-62952858D01*
X121932073Y-62961481D01*
X121942798Y-62971202D01*
X121952519Y-62981927D01*
X121961142Y-62993553D01*
X121968583Y-63005969D01*
X121974772Y-63019054D01*
X121979649Y-63032683D01*
X121983166Y-63046724D01*
X121985290Y-63061042D01*
X121986000Y-63075500D01*
X121986000Y-63370500D01*
X121985290Y-63384958D01*
X121983166Y-63399276D01*
X121979649Y-63413317D01*
X121974772Y-63426946D01*
X121968583Y-63440031D01*
X121961142Y-63452447D01*
X121952519Y-63464073D01*
X121942798Y-63474798D01*
X121932073Y-63484519D01*
X121920447Y-63493142D01*
X121908031Y-63500583D01*
X121894946Y-63506772D01*
X121881317Y-63511649D01*
X121867276Y-63515166D01*
X121852958Y-63517290D01*
X121838500Y-63518000D01*
X121493500Y-63518000D01*
X121479042Y-63517290D01*
X121464724Y-63515166D01*
X121450683Y-63511649D01*
X121437054Y-63506772D01*
X121423969Y-63500583D01*
X121411553Y-63493142D01*
X121399927Y-63484519D01*
X121389202Y-63474798D01*
X121379481Y-63464073D01*
X121370858Y-63452447D01*
X121363417Y-63440031D01*
X121357228Y-63426946D01*
X121352351Y-63413317D01*
X121348834Y-63399276D01*
X121346710Y-63384958D01*
X121346000Y-63370500D01*
X121346000Y-63075500D01*
X121346710Y-63061042D01*
X121348834Y-63046724D01*
X121352351Y-63032683D01*
X121357228Y-63019054D01*
X121363417Y-63005969D01*
X121370858Y-62993553D01*
X121379481Y-62981927D01*
X121389202Y-62971202D01*
X121399927Y-62961481D01*
X121411553Y-62952858D01*
X121423969Y-62945417D01*
X121437054Y-62939228D01*
X121450683Y-62934351D01*
X121464724Y-62930834D01*
X121479042Y-62928710D01*
X121493500Y-62928000D01*
X121838500Y-62928000D01*
X121852958Y-62928710D01*
X121852958Y-62928710D01*
G37*
D11*
X121666000Y-63223000D03*
D10*
G36*
X111692958Y-62166710D02*
G01*
X111707276Y-62168834D01*
X111721317Y-62172351D01*
X111734946Y-62177228D01*
X111748031Y-62183417D01*
X111760447Y-62190858D01*
X111772073Y-62199481D01*
X111782798Y-62209202D01*
X111792519Y-62219927D01*
X111801142Y-62231553D01*
X111808583Y-62243969D01*
X111814772Y-62257054D01*
X111819649Y-62270683D01*
X111823166Y-62284724D01*
X111825290Y-62299042D01*
X111826000Y-62313500D01*
X111826000Y-62608500D01*
X111825290Y-62622958D01*
X111823166Y-62637276D01*
X111819649Y-62651317D01*
X111814772Y-62664946D01*
X111808583Y-62678031D01*
X111801142Y-62690447D01*
X111792519Y-62702073D01*
X111782798Y-62712798D01*
X111772073Y-62722519D01*
X111760447Y-62731142D01*
X111748031Y-62738583D01*
X111734946Y-62744772D01*
X111721317Y-62749649D01*
X111707276Y-62753166D01*
X111692958Y-62755290D01*
X111678500Y-62756000D01*
X111333500Y-62756000D01*
X111319042Y-62755290D01*
X111304724Y-62753166D01*
X111290683Y-62749649D01*
X111277054Y-62744772D01*
X111263969Y-62738583D01*
X111251553Y-62731142D01*
X111239927Y-62722519D01*
X111229202Y-62712798D01*
X111219481Y-62702073D01*
X111210858Y-62690447D01*
X111203417Y-62678031D01*
X111197228Y-62664946D01*
X111192351Y-62651317D01*
X111188834Y-62637276D01*
X111186710Y-62622958D01*
X111186000Y-62608500D01*
X111186000Y-62313500D01*
X111186710Y-62299042D01*
X111188834Y-62284724D01*
X111192351Y-62270683D01*
X111197228Y-62257054D01*
X111203417Y-62243969D01*
X111210858Y-62231553D01*
X111219481Y-62219927D01*
X111229202Y-62209202D01*
X111239927Y-62199481D01*
X111251553Y-62190858D01*
X111263969Y-62183417D01*
X111277054Y-62177228D01*
X111290683Y-62172351D01*
X111304724Y-62168834D01*
X111319042Y-62166710D01*
X111333500Y-62166000D01*
X111678500Y-62166000D01*
X111692958Y-62166710D01*
X111692958Y-62166710D01*
G37*
D11*
X111506000Y-62461000D03*
D10*
G36*
X111692958Y-61196710D02*
G01*
X111707276Y-61198834D01*
X111721317Y-61202351D01*
X111734946Y-61207228D01*
X111748031Y-61213417D01*
X111760447Y-61220858D01*
X111772073Y-61229481D01*
X111782798Y-61239202D01*
X111792519Y-61249927D01*
X111801142Y-61261553D01*
X111808583Y-61273969D01*
X111814772Y-61287054D01*
X111819649Y-61300683D01*
X111823166Y-61314724D01*
X111825290Y-61329042D01*
X111826000Y-61343500D01*
X111826000Y-61638500D01*
X111825290Y-61652958D01*
X111823166Y-61667276D01*
X111819649Y-61681317D01*
X111814772Y-61694946D01*
X111808583Y-61708031D01*
X111801142Y-61720447D01*
X111792519Y-61732073D01*
X111782798Y-61742798D01*
X111772073Y-61752519D01*
X111760447Y-61761142D01*
X111748031Y-61768583D01*
X111734946Y-61774772D01*
X111721317Y-61779649D01*
X111707276Y-61783166D01*
X111692958Y-61785290D01*
X111678500Y-61786000D01*
X111333500Y-61786000D01*
X111319042Y-61785290D01*
X111304724Y-61783166D01*
X111290683Y-61779649D01*
X111277054Y-61774772D01*
X111263969Y-61768583D01*
X111251553Y-61761142D01*
X111239927Y-61752519D01*
X111229202Y-61742798D01*
X111219481Y-61732073D01*
X111210858Y-61720447D01*
X111203417Y-61708031D01*
X111197228Y-61694946D01*
X111192351Y-61681317D01*
X111188834Y-61667276D01*
X111186710Y-61652958D01*
X111186000Y-61638500D01*
X111186000Y-61343500D01*
X111186710Y-61329042D01*
X111188834Y-61314724D01*
X111192351Y-61300683D01*
X111197228Y-61287054D01*
X111203417Y-61273969D01*
X111210858Y-61261553D01*
X111219481Y-61249927D01*
X111229202Y-61239202D01*
X111239927Y-61229481D01*
X111251553Y-61220858D01*
X111263969Y-61213417D01*
X111277054Y-61207228D01*
X111290683Y-61202351D01*
X111304724Y-61198834D01*
X111319042Y-61196710D01*
X111333500Y-61196000D01*
X111678500Y-61196000D01*
X111692958Y-61196710D01*
X111692958Y-61196710D01*
G37*
D11*
X111506000Y-61491000D03*
D10*
G36*
X117052691Y-70826053D02*
G01*
X117073926Y-70829203D01*
X117094750Y-70834419D01*
X117114962Y-70841651D01*
X117134368Y-70850830D01*
X117152781Y-70861866D01*
X117170024Y-70874654D01*
X117185930Y-70889070D01*
X117200346Y-70904976D01*
X117213134Y-70922219D01*
X117224170Y-70940632D01*
X117233349Y-70960038D01*
X117240581Y-70980250D01*
X117245797Y-71001074D01*
X117248947Y-71022309D01*
X117250000Y-71043750D01*
X117250000Y-71556250D01*
X117248947Y-71577691D01*
X117245797Y-71598926D01*
X117240581Y-71619750D01*
X117233349Y-71639962D01*
X117224170Y-71659368D01*
X117213134Y-71677781D01*
X117200346Y-71695024D01*
X117185930Y-71710930D01*
X117170024Y-71725346D01*
X117152781Y-71738134D01*
X117134368Y-71749170D01*
X117114962Y-71758349D01*
X117094750Y-71765581D01*
X117073926Y-71770797D01*
X117052691Y-71773947D01*
X117031250Y-71775000D01*
X116593750Y-71775000D01*
X116572309Y-71773947D01*
X116551074Y-71770797D01*
X116530250Y-71765581D01*
X116510038Y-71758349D01*
X116490632Y-71749170D01*
X116472219Y-71738134D01*
X116454976Y-71725346D01*
X116439070Y-71710930D01*
X116424654Y-71695024D01*
X116411866Y-71677781D01*
X116400830Y-71659368D01*
X116391651Y-71639962D01*
X116384419Y-71619750D01*
X116379203Y-71598926D01*
X116376053Y-71577691D01*
X116375000Y-71556250D01*
X116375000Y-71043750D01*
X116376053Y-71022309D01*
X116379203Y-71001074D01*
X116384419Y-70980250D01*
X116391651Y-70960038D01*
X116400830Y-70940632D01*
X116411866Y-70922219D01*
X116424654Y-70904976D01*
X116439070Y-70889070D01*
X116454976Y-70874654D01*
X116472219Y-70861866D01*
X116490632Y-70850830D01*
X116510038Y-70841651D01*
X116530250Y-70834419D01*
X116551074Y-70829203D01*
X116572309Y-70826053D01*
X116593750Y-70825000D01*
X117031250Y-70825000D01*
X117052691Y-70826053D01*
X117052691Y-70826053D01*
G37*
D14*
X116812500Y-71300000D03*
D10*
G36*
X118627691Y-70826053D02*
G01*
X118648926Y-70829203D01*
X118669750Y-70834419D01*
X118689962Y-70841651D01*
X118709368Y-70850830D01*
X118727781Y-70861866D01*
X118745024Y-70874654D01*
X118760930Y-70889070D01*
X118775346Y-70904976D01*
X118788134Y-70922219D01*
X118799170Y-70940632D01*
X118808349Y-70960038D01*
X118815581Y-70980250D01*
X118820797Y-71001074D01*
X118823947Y-71022309D01*
X118825000Y-71043750D01*
X118825000Y-71556250D01*
X118823947Y-71577691D01*
X118820797Y-71598926D01*
X118815581Y-71619750D01*
X118808349Y-71639962D01*
X118799170Y-71659368D01*
X118788134Y-71677781D01*
X118775346Y-71695024D01*
X118760930Y-71710930D01*
X118745024Y-71725346D01*
X118727781Y-71738134D01*
X118709368Y-71749170D01*
X118689962Y-71758349D01*
X118669750Y-71765581D01*
X118648926Y-71770797D01*
X118627691Y-71773947D01*
X118606250Y-71775000D01*
X118168750Y-71775000D01*
X118147309Y-71773947D01*
X118126074Y-71770797D01*
X118105250Y-71765581D01*
X118085038Y-71758349D01*
X118065632Y-71749170D01*
X118047219Y-71738134D01*
X118029976Y-71725346D01*
X118014070Y-71710930D01*
X117999654Y-71695024D01*
X117986866Y-71677781D01*
X117975830Y-71659368D01*
X117966651Y-71639962D01*
X117959419Y-71619750D01*
X117954203Y-71598926D01*
X117951053Y-71577691D01*
X117950000Y-71556250D01*
X117950000Y-71043750D01*
X117951053Y-71022309D01*
X117954203Y-71001074D01*
X117959419Y-70980250D01*
X117966651Y-70960038D01*
X117975830Y-70940632D01*
X117986866Y-70922219D01*
X117999654Y-70904976D01*
X118014070Y-70889070D01*
X118029976Y-70874654D01*
X118047219Y-70861866D01*
X118065632Y-70850830D01*
X118085038Y-70841651D01*
X118105250Y-70834419D01*
X118126074Y-70829203D01*
X118147309Y-70826053D01*
X118168750Y-70825000D01*
X118606250Y-70825000D01*
X118627691Y-70826053D01*
X118627691Y-70826053D01*
G37*
D14*
X118387500Y-71300000D03*
D10*
G36*
X118877691Y-81651053D02*
G01*
X118898926Y-81654203D01*
X118919750Y-81659419D01*
X118939962Y-81666651D01*
X118959368Y-81675830D01*
X118977781Y-81686866D01*
X118995024Y-81699654D01*
X119010930Y-81714070D01*
X119025346Y-81729976D01*
X119038134Y-81747219D01*
X119049170Y-81765632D01*
X119058349Y-81785038D01*
X119065581Y-81805250D01*
X119070797Y-81826074D01*
X119073947Y-81847309D01*
X119075000Y-81868750D01*
X119075000Y-82306250D01*
X119073947Y-82327691D01*
X119070797Y-82348926D01*
X119065581Y-82369750D01*
X119058349Y-82389962D01*
X119049170Y-82409368D01*
X119038134Y-82427781D01*
X119025346Y-82445024D01*
X119010930Y-82460930D01*
X118995024Y-82475346D01*
X118977781Y-82488134D01*
X118959368Y-82499170D01*
X118939962Y-82508349D01*
X118919750Y-82515581D01*
X118898926Y-82520797D01*
X118877691Y-82523947D01*
X118856250Y-82525000D01*
X118343750Y-82525000D01*
X118322309Y-82523947D01*
X118301074Y-82520797D01*
X118280250Y-82515581D01*
X118260038Y-82508349D01*
X118240632Y-82499170D01*
X118222219Y-82488134D01*
X118204976Y-82475346D01*
X118189070Y-82460930D01*
X118174654Y-82445024D01*
X118161866Y-82427781D01*
X118150830Y-82409368D01*
X118141651Y-82389962D01*
X118134419Y-82369750D01*
X118129203Y-82348926D01*
X118126053Y-82327691D01*
X118125000Y-82306250D01*
X118125000Y-81868750D01*
X118126053Y-81847309D01*
X118129203Y-81826074D01*
X118134419Y-81805250D01*
X118141651Y-81785038D01*
X118150830Y-81765632D01*
X118161866Y-81747219D01*
X118174654Y-81729976D01*
X118189070Y-81714070D01*
X118204976Y-81699654D01*
X118222219Y-81686866D01*
X118240632Y-81675830D01*
X118260038Y-81666651D01*
X118280250Y-81659419D01*
X118301074Y-81654203D01*
X118322309Y-81651053D01*
X118343750Y-81650000D01*
X118856250Y-81650000D01*
X118877691Y-81651053D01*
X118877691Y-81651053D01*
G37*
D14*
X118600000Y-82087500D03*
D10*
G36*
X118877691Y-80076053D02*
G01*
X118898926Y-80079203D01*
X118919750Y-80084419D01*
X118939962Y-80091651D01*
X118959368Y-80100830D01*
X118977781Y-80111866D01*
X118995024Y-80124654D01*
X119010930Y-80139070D01*
X119025346Y-80154976D01*
X119038134Y-80172219D01*
X119049170Y-80190632D01*
X119058349Y-80210038D01*
X119065581Y-80230250D01*
X119070797Y-80251074D01*
X119073947Y-80272309D01*
X119075000Y-80293750D01*
X119075000Y-80731250D01*
X119073947Y-80752691D01*
X119070797Y-80773926D01*
X119065581Y-80794750D01*
X119058349Y-80814962D01*
X119049170Y-80834368D01*
X119038134Y-80852781D01*
X119025346Y-80870024D01*
X119010930Y-80885930D01*
X118995024Y-80900346D01*
X118977781Y-80913134D01*
X118959368Y-80924170D01*
X118939962Y-80933349D01*
X118919750Y-80940581D01*
X118898926Y-80945797D01*
X118877691Y-80948947D01*
X118856250Y-80950000D01*
X118343750Y-80950000D01*
X118322309Y-80948947D01*
X118301074Y-80945797D01*
X118280250Y-80940581D01*
X118260038Y-80933349D01*
X118240632Y-80924170D01*
X118222219Y-80913134D01*
X118204976Y-80900346D01*
X118189070Y-80885930D01*
X118174654Y-80870024D01*
X118161866Y-80852781D01*
X118150830Y-80834368D01*
X118141651Y-80814962D01*
X118134419Y-80794750D01*
X118129203Y-80773926D01*
X118126053Y-80752691D01*
X118125000Y-80731250D01*
X118125000Y-80293750D01*
X118126053Y-80272309D01*
X118129203Y-80251074D01*
X118134419Y-80230250D01*
X118141651Y-80210038D01*
X118150830Y-80190632D01*
X118161866Y-80172219D01*
X118174654Y-80154976D01*
X118189070Y-80139070D01*
X118204976Y-80124654D01*
X118222219Y-80111866D01*
X118240632Y-80100830D01*
X118260038Y-80091651D01*
X118280250Y-80084419D01*
X118301074Y-80079203D01*
X118322309Y-80076053D01*
X118343750Y-80075000D01*
X118856250Y-80075000D01*
X118877691Y-80076053D01*
X118877691Y-80076053D01*
G37*
D14*
X118600000Y-80512500D03*
D10*
G36*
X117879691Y-66619553D02*
G01*
X117900926Y-66622703D01*
X117921750Y-66627919D01*
X117941962Y-66635151D01*
X117961368Y-66644330D01*
X117979781Y-66655366D01*
X117997024Y-66668154D01*
X118012930Y-66682570D01*
X118027346Y-66698476D01*
X118040134Y-66715719D01*
X118051170Y-66734132D01*
X118060349Y-66753538D01*
X118067581Y-66773750D01*
X118072797Y-66794574D01*
X118075947Y-66815809D01*
X118077000Y-66837250D01*
X118077000Y-67274750D01*
X118075947Y-67296191D01*
X118072797Y-67317426D01*
X118067581Y-67338250D01*
X118060349Y-67358462D01*
X118051170Y-67377868D01*
X118040134Y-67396281D01*
X118027346Y-67413524D01*
X118012930Y-67429430D01*
X117997024Y-67443846D01*
X117979781Y-67456634D01*
X117961368Y-67467670D01*
X117941962Y-67476849D01*
X117921750Y-67484081D01*
X117900926Y-67489297D01*
X117879691Y-67492447D01*
X117858250Y-67493500D01*
X117345750Y-67493500D01*
X117324309Y-67492447D01*
X117303074Y-67489297D01*
X117282250Y-67484081D01*
X117262038Y-67476849D01*
X117242632Y-67467670D01*
X117224219Y-67456634D01*
X117206976Y-67443846D01*
X117191070Y-67429430D01*
X117176654Y-67413524D01*
X117163866Y-67396281D01*
X117152830Y-67377868D01*
X117143651Y-67358462D01*
X117136419Y-67338250D01*
X117131203Y-67317426D01*
X117128053Y-67296191D01*
X117127000Y-67274750D01*
X117127000Y-66837250D01*
X117128053Y-66815809D01*
X117131203Y-66794574D01*
X117136419Y-66773750D01*
X117143651Y-66753538D01*
X117152830Y-66734132D01*
X117163866Y-66715719D01*
X117176654Y-66698476D01*
X117191070Y-66682570D01*
X117206976Y-66668154D01*
X117224219Y-66655366D01*
X117242632Y-66644330D01*
X117262038Y-66635151D01*
X117282250Y-66627919D01*
X117303074Y-66622703D01*
X117324309Y-66619553D01*
X117345750Y-66618500D01*
X117858250Y-66618500D01*
X117879691Y-66619553D01*
X117879691Y-66619553D01*
G37*
D14*
X117602000Y-67056000D03*
D10*
G36*
X117879691Y-65044553D02*
G01*
X117900926Y-65047703D01*
X117921750Y-65052919D01*
X117941962Y-65060151D01*
X117961368Y-65069330D01*
X117979781Y-65080366D01*
X117997024Y-65093154D01*
X118012930Y-65107570D01*
X118027346Y-65123476D01*
X118040134Y-65140719D01*
X118051170Y-65159132D01*
X118060349Y-65178538D01*
X118067581Y-65198750D01*
X118072797Y-65219574D01*
X118075947Y-65240809D01*
X118077000Y-65262250D01*
X118077000Y-65699750D01*
X118075947Y-65721191D01*
X118072797Y-65742426D01*
X118067581Y-65763250D01*
X118060349Y-65783462D01*
X118051170Y-65802868D01*
X118040134Y-65821281D01*
X118027346Y-65838524D01*
X118012930Y-65854430D01*
X117997024Y-65868846D01*
X117979781Y-65881634D01*
X117961368Y-65892670D01*
X117941962Y-65901849D01*
X117921750Y-65909081D01*
X117900926Y-65914297D01*
X117879691Y-65917447D01*
X117858250Y-65918500D01*
X117345750Y-65918500D01*
X117324309Y-65917447D01*
X117303074Y-65914297D01*
X117282250Y-65909081D01*
X117262038Y-65901849D01*
X117242632Y-65892670D01*
X117224219Y-65881634D01*
X117206976Y-65868846D01*
X117191070Y-65854430D01*
X117176654Y-65838524D01*
X117163866Y-65821281D01*
X117152830Y-65802868D01*
X117143651Y-65783462D01*
X117136419Y-65763250D01*
X117131203Y-65742426D01*
X117128053Y-65721191D01*
X117127000Y-65699750D01*
X117127000Y-65262250D01*
X117128053Y-65240809D01*
X117131203Y-65219574D01*
X117136419Y-65198750D01*
X117143651Y-65178538D01*
X117152830Y-65159132D01*
X117163866Y-65140719D01*
X117176654Y-65123476D01*
X117191070Y-65107570D01*
X117206976Y-65093154D01*
X117224219Y-65080366D01*
X117242632Y-65069330D01*
X117262038Y-65060151D01*
X117282250Y-65052919D01*
X117303074Y-65047703D01*
X117324309Y-65044553D01*
X117345750Y-65043500D01*
X117858250Y-65043500D01*
X117879691Y-65044553D01*
X117879691Y-65044553D01*
G37*
D14*
X117602000Y-65481000D03*
D10*
G36*
X112386958Y-70040710D02*
G01*
X112401276Y-70042834D01*
X112415317Y-70046351D01*
X112428946Y-70051228D01*
X112442031Y-70057417D01*
X112454447Y-70064858D01*
X112466073Y-70073481D01*
X112476798Y-70083202D01*
X112486519Y-70093927D01*
X112495142Y-70105553D01*
X112502583Y-70117969D01*
X112508772Y-70131054D01*
X112513649Y-70144683D01*
X112517166Y-70158724D01*
X112519290Y-70173042D01*
X112520000Y-70187500D01*
X112520000Y-70482500D01*
X112519290Y-70496958D01*
X112517166Y-70511276D01*
X112513649Y-70525317D01*
X112508772Y-70538946D01*
X112502583Y-70552031D01*
X112495142Y-70564447D01*
X112486519Y-70576073D01*
X112476798Y-70586798D01*
X112466073Y-70596519D01*
X112454447Y-70605142D01*
X112442031Y-70612583D01*
X112428946Y-70618772D01*
X112415317Y-70623649D01*
X112401276Y-70627166D01*
X112386958Y-70629290D01*
X112372500Y-70630000D01*
X112027500Y-70630000D01*
X112013042Y-70629290D01*
X111998724Y-70627166D01*
X111984683Y-70623649D01*
X111971054Y-70618772D01*
X111957969Y-70612583D01*
X111945553Y-70605142D01*
X111933927Y-70596519D01*
X111923202Y-70586798D01*
X111913481Y-70576073D01*
X111904858Y-70564447D01*
X111897417Y-70552031D01*
X111891228Y-70538946D01*
X111886351Y-70525317D01*
X111882834Y-70511276D01*
X111880710Y-70496958D01*
X111880000Y-70482500D01*
X111880000Y-70187500D01*
X111880710Y-70173042D01*
X111882834Y-70158724D01*
X111886351Y-70144683D01*
X111891228Y-70131054D01*
X111897417Y-70117969D01*
X111904858Y-70105553D01*
X111913481Y-70093927D01*
X111923202Y-70083202D01*
X111933927Y-70073481D01*
X111945553Y-70064858D01*
X111957969Y-70057417D01*
X111971054Y-70051228D01*
X111984683Y-70046351D01*
X111998724Y-70042834D01*
X112013042Y-70040710D01*
X112027500Y-70040000D01*
X112372500Y-70040000D01*
X112386958Y-70040710D01*
X112386958Y-70040710D01*
G37*
D11*
X112200000Y-70335000D03*
D10*
G36*
X112386958Y-69070710D02*
G01*
X112401276Y-69072834D01*
X112415317Y-69076351D01*
X112428946Y-69081228D01*
X112442031Y-69087417D01*
X112454447Y-69094858D01*
X112466073Y-69103481D01*
X112476798Y-69113202D01*
X112486519Y-69123927D01*
X112495142Y-69135553D01*
X112502583Y-69147969D01*
X112508772Y-69161054D01*
X112513649Y-69174683D01*
X112517166Y-69188724D01*
X112519290Y-69203042D01*
X112520000Y-69217500D01*
X112520000Y-69512500D01*
X112519290Y-69526958D01*
X112517166Y-69541276D01*
X112513649Y-69555317D01*
X112508772Y-69568946D01*
X112502583Y-69582031D01*
X112495142Y-69594447D01*
X112486519Y-69606073D01*
X112476798Y-69616798D01*
X112466073Y-69626519D01*
X112454447Y-69635142D01*
X112442031Y-69642583D01*
X112428946Y-69648772D01*
X112415317Y-69653649D01*
X112401276Y-69657166D01*
X112386958Y-69659290D01*
X112372500Y-69660000D01*
X112027500Y-69660000D01*
X112013042Y-69659290D01*
X111998724Y-69657166D01*
X111984683Y-69653649D01*
X111971054Y-69648772D01*
X111957969Y-69642583D01*
X111945553Y-69635142D01*
X111933927Y-69626519D01*
X111923202Y-69616798D01*
X111913481Y-69606073D01*
X111904858Y-69594447D01*
X111897417Y-69582031D01*
X111891228Y-69568946D01*
X111886351Y-69555317D01*
X111882834Y-69541276D01*
X111880710Y-69526958D01*
X111880000Y-69512500D01*
X111880000Y-69217500D01*
X111880710Y-69203042D01*
X111882834Y-69188724D01*
X111886351Y-69174683D01*
X111891228Y-69161054D01*
X111897417Y-69147969D01*
X111904858Y-69135553D01*
X111913481Y-69123927D01*
X111923202Y-69113202D01*
X111933927Y-69103481D01*
X111945553Y-69094858D01*
X111957969Y-69087417D01*
X111971054Y-69081228D01*
X111984683Y-69076351D01*
X111998724Y-69072834D01*
X112013042Y-69070710D01*
X112027500Y-69070000D01*
X112372500Y-69070000D01*
X112386958Y-69070710D01*
X112386958Y-69070710D01*
G37*
D11*
X112200000Y-69365000D03*
D10*
G36*
X111386958Y-70040710D02*
G01*
X111401276Y-70042834D01*
X111415317Y-70046351D01*
X111428946Y-70051228D01*
X111442031Y-70057417D01*
X111454447Y-70064858D01*
X111466073Y-70073481D01*
X111476798Y-70083202D01*
X111486519Y-70093927D01*
X111495142Y-70105553D01*
X111502583Y-70117969D01*
X111508772Y-70131054D01*
X111513649Y-70144683D01*
X111517166Y-70158724D01*
X111519290Y-70173042D01*
X111520000Y-70187500D01*
X111520000Y-70482500D01*
X111519290Y-70496958D01*
X111517166Y-70511276D01*
X111513649Y-70525317D01*
X111508772Y-70538946D01*
X111502583Y-70552031D01*
X111495142Y-70564447D01*
X111486519Y-70576073D01*
X111476798Y-70586798D01*
X111466073Y-70596519D01*
X111454447Y-70605142D01*
X111442031Y-70612583D01*
X111428946Y-70618772D01*
X111415317Y-70623649D01*
X111401276Y-70627166D01*
X111386958Y-70629290D01*
X111372500Y-70630000D01*
X111027500Y-70630000D01*
X111013042Y-70629290D01*
X110998724Y-70627166D01*
X110984683Y-70623649D01*
X110971054Y-70618772D01*
X110957969Y-70612583D01*
X110945553Y-70605142D01*
X110933927Y-70596519D01*
X110923202Y-70586798D01*
X110913481Y-70576073D01*
X110904858Y-70564447D01*
X110897417Y-70552031D01*
X110891228Y-70538946D01*
X110886351Y-70525317D01*
X110882834Y-70511276D01*
X110880710Y-70496958D01*
X110880000Y-70482500D01*
X110880000Y-70187500D01*
X110880710Y-70173042D01*
X110882834Y-70158724D01*
X110886351Y-70144683D01*
X110891228Y-70131054D01*
X110897417Y-70117969D01*
X110904858Y-70105553D01*
X110913481Y-70093927D01*
X110923202Y-70083202D01*
X110933927Y-70073481D01*
X110945553Y-70064858D01*
X110957969Y-70057417D01*
X110971054Y-70051228D01*
X110984683Y-70046351D01*
X110998724Y-70042834D01*
X111013042Y-70040710D01*
X111027500Y-70040000D01*
X111372500Y-70040000D01*
X111386958Y-70040710D01*
X111386958Y-70040710D01*
G37*
D11*
X111200000Y-70335000D03*
D10*
G36*
X111386958Y-69070710D02*
G01*
X111401276Y-69072834D01*
X111415317Y-69076351D01*
X111428946Y-69081228D01*
X111442031Y-69087417D01*
X111454447Y-69094858D01*
X111466073Y-69103481D01*
X111476798Y-69113202D01*
X111486519Y-69123927D01*
X111495142Y-69135553D01*
X111502583Y-69147969D01*
X111508772Y-69161054D01*
X111513649Y-69174683D01*
X111517166Y-69188724D01*
X111519290Y-69203042D01*
X111520000Y-69217500D01*
X111520000Y-69512500D01*
X111519290Y-69526958D01*
X111517166Y-69541276D01*
X111513649Y-69555317D01*
X111508772Y-69568946D01*
X111502583Y-69582031D01*
X111495142Y-69594447D01*
X111486519Y-69606073D01*
X111476798Y-69616798D01*
X111466073Y-69626519D01*
X111454447Y-69635142D01*
X111442031Y-69642583D01*
X111428946Y-69648772D01*
X111415317Y-69653649D01*
X111401276Y-69657166D01*
X111386958Y-69659290D01*
X111372500Y-69660000D01*
X111027500Y-69660000D01*
X111013042Y-69659290D01*
X110998724Y-69657166D01*
X110984683Y-69653649D01*
X110971054Y-69648772D01*
X110957969Y-69642583D01*
X110945553Y-69635142D01*
X110933927Y-69626519D01*
X110923202Y-69616798D01*
X110913481Y-69606073D01*
X110904858Y-69594447D01*
X110897417Y-69582031D01*
X110891228Y-69568946D01*
X110886351Y-69555317D01*
X110882834Y-69541276D01*
X110880710Y-69526958D01*
X110880000Y-69512500D01*
X110880000Y-69217500D01*
X110880710Y-69203042D01*
X110882834Y-69188724D01*
X110886351Y-69174683D01*
X110891228Y-69161054D01*
X110897417Y-69147969D01*
X110904858Y-69135553D01*
X110913481Y-69123927D01*
X110923202Y-69113202D01*
X110933927Y-69103481D01*
X110945553Y-69094858D01*
X110957969Y-69087417D01*
X110971054Y-69081228D01*
X110984683Y-69076351D01*
X110998724Y-69072834D01*
X111013042Y-69070710D01*
X111027500Y-69070000D01*
X111372500Y-69070000D01*
X111386958Y-69070710D01*
X111386958Y-69070710D01*
G37*
D11*
X111200000Y-69365000D03*
D36*
X150495000Y-88900000D03*
X112395000Y-62865000D03*
D37*
X110744000Y-65024000D03*
X113904000Y-66040000D03*
X117602000Y-68072000D03*
D36*
X120650000Y-63754000D03*
X127000000Y-80200000D03*
X126000000Y-80200000D03*
X122800000Y-90600000D03*
X142850000Y-87950000D03*
X111000000Y-55400000D03*
X148700000Y-81500000D03*
X148700000Y-75300000D03*
X148800000Y-69600000D03*
X145800000Y-63000000D03*
X147800000Y-63800000D03*
X153400000Y-61100000D03*
X155300000Y-61100000D03*
X156900000Y-61200000D03*
X108400000Y-68700000D03*
X113400000Y-70600000D03*
X114200000Y-72000000D03*
X115300000Y-72000000D03*
X117200000Y-82900000D03*
X135400000Y-89400000D03*
X129200000Y-89400000D03*
X138700000Y-83000000D03*
X123190000Y-64135000D03*
X109855000Y-63500000D03*
X116400000Y-75800000D03*
X117700000Y-75800000D03*
D37*
X111400000Y-68500000D03*
D36*
X126500000Y-81800000D03*
X109220000Y-64770000D03*
X113284000Y-69342000D03*
X109400000Y-68000000D03*
D37*
X117600000Y-64200000D03*
X119200000Y-67200000D03*
X122400000Y-68800000D03*
X144600000Y-78600000D03*
X118758750Y-69041250D03*
X116600000Y-61400000D03*
X116000000Y-62200000D03*
X144300000Y-67200000D03*
X115196958Y-62824520D03*
X144300000Y-65950000D03*
X109982000Y-65532000D03*
X110998000Y-66294000D03*
D36*
X145500000Y-74800000D03*
D38*
X149590000Y-88646000D02*
X150241000Y-88646000D01*
X150241000Y-88646000D02*
X150495000Y-88900000D01*
X123086000Y-62103000D02*
X122936000Y-62253000D01*
X125866000Y-62103000D02*
X123086000Y-62103000D01*
X122936000Y-62253000D02*
X121666000Y-62253000D01*
X111506000Y-62461000D02*
X111991000Y-62461000D01*
X111991000Y-62461000D02*
X112395000Y-62865000D01*
X104172500Y-63140000D02*
X104172500Y-65040000D01*
X104172500Y-65040000D02*
X104172500Y-67040000D01*
X104172500Y-67040000D02*
X104172500Y-68940000D01*
D39*
X111966500Y-65290000D02*
X111010000Y-65290000D01*
X111010000Y-65290000D02*
X110744000Y-65024000D01*
X113154000Y-65290000D02*
X113904000Y-66040000D01*
X111966500Y-65290000D02*
X113154000Y-65290000D01*
X117602000Y-67056000D02*
X117602000Y-68072000D01*
D38*
X121666000Y-62253000D02*
X120881000Y-62253000D01*
X120881000Y-62253000D02*
X120876090Y-62257910D01*
X120876090Y-62257910D02*
X120650000Y-62484000D01*
X120650000Y-62484000D02*
X120650000Y-63754000D01*
X128651000Y-79613000D02*
X128651000Y-80749000D01*
X128651000Y-80749000D02*
X128400000Y-81000000D01*
X128400000Y-81000000D02*
X127800000Y-81000000D01*
X127800000Y-81000000D02*
X127000000Y-80200000D01*
X127000000Y-80200000D02*
X126000000Y-80200000D01*
X122800000Y-89200000D02*
X122800000Y-90600000D01*
X142900000Y-89392000D02*
X142900000Y-88000000D01*
X142900000Y-88000000D02*
X142850000Y-87950000D01*
D40*
X116347600Y-56291000D02*
X111000000Y-56291000D01*
X117000000Y-56291000D02*
X116347600Y-56291000D01*
X111000000Y-56291000D02*
X111000000Y-55400000D01*
D38*
X149800000Y-81500000D02*
X148700000Y-81500000D01*
X149800000Y-75400000D02*
X148800000Y-75400000D01*
X148800000Y-75400000D02*
X148700000Y-75300000D01*
X149800000Y-69300000D02*
X149100000Y-69300000D01*
X149100000Y-69300000D02*
X148800000Y-69600000D01*
X142866000Y-62103000D02*
X144903000Y-62103000D01*
X144903000Y-62103000D02*
X145800000Y-63000000D01*
X149112500Y-63800000D02*
X147800000Y-63800000D01*
X152412500Y-63800000D02*
X152412500Y-62087500D01*
X152412500Y-62087500D02*
X153400000Y-61100000D01*
X155712500Y-63800000D02*
X155712500Y-61512500D01*
X155712500Y-61512500D02*
X155300000Y-61100000D01*
X158912500Y-63800000D02*
X158912500Y-63212500D01*
X158912500Y-63212500D02*
X156900000Y-61200000D01*
D40*
X108400000Y-68392500D02*
X108400000Y-68700000D01*
X106872500Y-67340000D02*
X107347500Y-67340000D01*
X107347500Y-67340000D02*
X108400000Y-68392500D01*
X111200000Y-70335000D02*
X112200000Y-70335000D01*
D38*
X112200000Y-70335000D02*
X113135000Y-70335000D01*
X113135000Y-70335000D02*
X113400000Y-70600000D01*
X114150000Y-73500000D02*
X114150000Y-72050000D01*
X114150000Y-72050000D02*
X114200000Y-72000000D01*
X115300000Y-72000000D02*
X114200000Y-72000000D01*
X118600000Y-82087500D02*
X118012500Y-82087500D01*
X118012500Y-82087500D02*
X117200000Y-82900000D01*
X116000000Y-71300000D02*
X115300000Y-72000000D01*
X116812500Y-71300000D02*
X116000000Y-71300000D01*
X135600000Y-90500000D02*
X135600000Y-89600000D01*
X135600000Y-89600000D02*
X135400000Y-89400000D01*
X129200000Y-90500000D02*
X129200000Y-89400000D01*
X137520000Y-84100000D02*
X137600000Y-84100000D01*
X137600000Y-84100000D02*
X138700000Y-83000000D01*
X125866000Y-63373000D02*
X123086000Y-63373000D01*
X122936000Y-63223000D02*
X121666000Y-63223000D01*
X123086000Y-63373000D02*
X122936000Y-63223000D01*
X121666000Y-63223000D02*
X122278000Y-63223000D01*
X122278000Y-63223000D02*
X123190000Y-64135000D01*
X110236000Y-62461000D02*
X110236000Y-63119000D01*
X110236000Y-63119000D02*
X109855000Y-63500000D01*
D40*
X110764000Y-67290000D02*
X111966500Y-67290000D01*
X110744000Y-67310000D02*
X110764000Y-67290000D01*
X111264000Y-66790000D02*
X111966500Y-66790000D01*
X110744000Y-67310000D02*
X111264000Y-66790000D01*
X112654000Y-68911000D02*
X112200000Y-69365000D01*
X112654000Y-67977500D02*
X112654000Y-68911000D01*
D38*
X120450000Y-73362500D02*
X118387500Y-71300000D01*
X120450000Y-75800000D02*
X120450000Y-73362500D01*
X114150000Y-75800000D02*
X116400000Y-75800000D01*
X117700000Y-75800000D02*
X120450000Y-75800000D01*
X117700000Y-75800000D02*
X116400000Y-75800000D01*
D40*
X110744000Y-68909000D02*
X111200000Y-69365000D01*
X110744000Y-67310000D02*
X110744000Y-68909000D01*
D39*
X111535000Y-68635000D02*
X111400000Y-68500000D01*
X111535000Y-69365000D02*
X111535000Y-68635000D01*
D38*
X111535000Y-69365000D02*
X112200000Y-69365000D01*
X111200000Y-69365000D02*
X111535000Y-69365000D01*
X129900000Y-84100000D02*
X128800000Y-84100000D01*
X128800000Y-84100000D02*
X126500000Y-81800000D01*
D40*
X125871383Y-81800000D02*
X126500000Y-81800000D01*
X125800000Y-81800000D02*
X125871383Y-81800000D01*
X125715000Y-83600000D02*
X125715000Y-81885000D01*
X125715000Y-81885000D02*
X125800000Y-81800000D01*
D39*
X117293000Y-65790000D02*
X115841500Y-65790000D01*
X117602000Y-65481000D02*
X117293000Y-65790000D01*
D38*
X112400000Y-78100000D02*
X114150000Y-78100000D01*
X111800000Y-77500000D02*
X112400000Y-78100000D01*
X111800000Y-72700000D02*
X111800000Y-77500000D01*
X109400000Y-70450000D02*
X109550000Y-70450000D01*
X109550000Y-70450000D02*
X111800000Y-72700000D01*
X114150000Y-78200000D02*
X116950000Y-81000000D01*
X114150000Y-78100000D02*
X114150000Y-78200000D01*
X117437500Y-80512500D02*
X116950000Y-81000000D01*
X118600000Y-80512500D02*
X117437500Y-80512500D01*
X110236000Y-61491000D02*
X111506000Y-61491000D01*
D40*
X124713600Y-64643000D02*
X124356600Y-65000000D01*
X125866000Y-64643000D02*
X124713600Y-64643000D01*
X124356600Y-65000000D02*
X123000000Y-65000000D01*
X122208000Y-66040000D02*
X122158000Y-66040000D01*
X123000000Y-65248000D02*
X122208000Y-66040000D01*
X123000000Y-65000000D02*
X123000000Y-65248000D01*
D38*
X111000000Y-60985000D02*
X111506000Y-61491000D01*
X111000000Y-60041000D02*
X111000000Y-60985000D01*
X111000000Y-60041000D02*
X117000000Y-60041000D01*
D40*
X123000000Y-65000000D02*
X121500000Y-65000000D01*
X120961399Y-64461399D02*
X119538601Y-64461399D01*
X121500000Y-65000000D02*
X120961399Y-64461399D01*
X119538601Y-64461399D02*
X119000000Y-63922798D01*
X119000000Y-62291100D02*
X118208900Y-61500000D01*
X119000000Y-63922798D02*
X119000000Y-62291100D01*
X118208900Y-61500000D02*
X117500000Y-61500000D01*
X117500000Y-61500000D02*
X117000000Y-61000000D01*
X117000000Y-61000000D02*
X117000000Y-60041000D01*
D38*
X118650000Y-87234000D02*
X118800000Y-87234000D01*
X116700000Y-89184000D02*
X118650000Y-87234000D01*
X116700000Y-96000000D02*
X116700000Y-89184000D01*
X125200000Y-88319000D02*
X125200000Y-87234000D01*
X124130099Y-89388901D02*
X125200000Y-88319000D01*
X124130099Y-93445099D02*
X124130099Y-89388901D01*
X124850000Y-94165000D02*
X124130099Y-93445099D01*
X124850000Y-96000000D02*
X124850000Y-94165000D01*
X145288000Y-87319000D02*
X145288000Y-86234000D01*
X144218099Y-88388901D02*
X145288000Y-87319000D01*
X144218099Y-90868099D02*
X144218099Y-88388901D01*
X149350000Y-96000000D02*
X144218099Y-90868099D01*
X153613000Y-89500000D02*
X155448000Y-89500000D01*
X152635000Y-89500000D02*
X153613000Y-89500000D01*
X148635000Y-85500000D02*
X152635000Y-89500000D01*
X147550000Y-85500000D02*
X148635000Y-85500000D01*
X153613000Y-81100000D02*
X155448000Y-81100000D01*
X153093099Y-80580099D02*
X153613000Y-81100000D01*
X149915099Y-80580099D02*
X153093099Y-80580099D01*
X148735000Y-79400000D02*
X149915099Y-80580099D01*
X147650000Y-79400000D02*
X148735000Y-79400000D01*
X148635000Y-73300000D02*
X149735000Y-74400000D01*
X147550000Y-73300000D02*
X148635000Y-73300000D01*
X153613000Y-72800000D02*
X155448000Y-72800000D01*
X152013000Y-74400000D02*
X153613000Y-72800000D01*
X149735000Y-74400000D02*
X152013000Y-74400000D01*
X109500000Y-81000000D02*
X109000000Y-81500000D01*
X113650000Y-81000000D02*
X109500000Y-81000000D01*
X131500000Y-89335000D02*
X131500000Y-88250000D01*
X130430099Y-90404901D02*
X131500000Y-89335000D01*
X130430099Y-95287099D02*
X130430099Y-90404901D01*
X131143000Y-96000000D02*
X130430099Y-95287099D01*
X132978000Y-96000000D02*
X131143000Y-96000000D01*
X139315000Y-96000000D02*
X141150000Y-96000000D01*
X137830099Y-94515099D02*
X139315000Y-96000000D01*
X137830099Y-90504901D02*
X137830099Y-94515099D01*
X138900000Y-89435000D02*
X137830099Y-90504901D01*
X138900000Y-88350000D02*
X138900000Y-89435000D01*
D39*
X106872500Y-64740000D02*
X109190000Y-64740000D01*
X109190000Y-64740000D02*
X109220000Y-64770000D01*
D40*
X113154000Y-69212000D02*
X113284000Y-69342000D01*
X113154000Y-67977500D02*
X113154000Y-69212000D01*
D38*
X109400000Y-68000000D02*
X109400000Y-67150000D01*
D40*
X115154000Y-63590000D02*
X115244000Y-63500000D01*
X115154000Y-64102500D02*
X115154000Y-63590000D01*
X115244000Y-63500000D02*
X117117000Y-63500000D01*
X117600000Y-63983000D02*
X117117000Y-63500000D01*
X117600000Y-64200000D02*
X117600000Y-63983000D01*
X120158000Y-66990000D02*
X119410000Y-66990000D01*
X119410000Y-66990000D02*
X119200000Y-67200000D01*
X118610610Y-64012544D02*
X118904810Y-64306744D01*
X118087000Y-62230000D02*
X118610610Y-62753610D01*
X118610610Y-62753610D02*
X118610610Y-64012544D01*
X118904810Y-64306744D02*
X118904810Y-64904810D01*
X119090000Y-65090000D02*
X120158000Y-65090000D01*
X118904810Y-64904810D02*
X119090000Y-65090000D01*
X122158000Y-69850000D02*
X122158000Y-69042000D01*
X122158000Y-69042000D02*
X122400000Y-68800000D01*
X142879000Y-78600000D02*
X142866000Y-78613000D01*
X144600000Y-78600000D02*
X142879000Y-78600000D01*
X118758750Y-69450750D02*
X118758750Y-69041250D01*
X120158000Y-70800000D02*
X120108000Y-70800000D01*
X120108000Y-70800000D02*
X118758750Y-69450750D01*
X116600000Y-61713000D02*
X117117000Y-62230000D01*
X116600000Y-61400000D02*
X116600000Y-61713000D01*
X115800000Y-61400000D02*
X116600000Y-61400000D01*
X115162890Y-62037110D02*
X115800000Y-61400000D01*
X113762890Y-62037110D02*
X115162890Y-62037110D01*
X113154000Y-64102500D02*
X113154000Y-62646000D01*
X113154000Y-62646000D02*
X113762890Y-62037110D01*
X118087000Y-63920000D02*
X118600000Y-64433000D01*
X118087000Y-63500000D02*
X118087000Y-63920000D01*
X118600000Y-64433000D02*
X118600000Y-68200000D01*
X119300000Y-68900000D02*
X120158000Y-68900000D01*
X118600000Y-68200000D02*
X119300000Y-68900000D01*
X115431066Y-62200000D02*
X115289146Y-62341920D01*
X116000000Y-62200000D02*
X115431066Y-62200000D01*
X115289146Y-62341920D02*
X114458080Y-62341920D01*
X114154000Y-62646000D02*
X114154000Y-64102500D01*
X114458080Y-62341920D02*
X114154000Y-62646000D01*
X142883000Y-67200000D02*
X142866000Y-67183000D01*
X144300000Y-67200000D02*
X142883000Y-67200000D01*
X114654000Y-64102500D02*
X114654000Y-63367478D01*
X114654000Y-63367478D02*
X115196958Y-62824520D01*
X142903000Y-65950000D02*
X142866000Y-65913000D01*
X144300000Y-65950000D02*
X142903000Y-65950000D01*
X108985810Y-65532000D02*
X109982000Y-65532000D01*
X106872500Y-65390000D02*
X108843810Y-65390000D01*
X108843810Y-65390000D02*
X108985810Y-65532000D01*
X111962500Y-66294000D02*
X111966500Y-66290000D01*
X110998000Y-66294000D02*
X111962500Y-66294000D01*
X110537750Y-66040000D02*
X110791750Y-65786000D01*
X106872500Y-66040000D02*
X110537750Y-66040000D01*
X110795750Y-65790000D02*
X111966500Y-65790000D01*
X110791750Y-65786000D02*
X110795750Y-65790000D01*
D38*
X120416000Y-90534000D02*
X120800000Y-90150000D01*
X118800000Y-90534000D02*
X120416000Y-90534000D01*
X120200000Y-90750000D02*
X120800000Y-90150000D01*
X120200000Y-96000000D02*
X120200000Y-90750000D01*
X133500000Y-91550000D02*
X133600000Y-91450000D01*
X131500000Y-91550000D02*
X133500000Y-91550000D01*
X133600000Y-93122000D02*
X136478000Y-96000000D01*
X133600000Y-91450000D02*
X133600000Y-93122000D01*
X145350000Y-89596000D02*
X145288000Y-89534000D01*
X147590000Y-89596000D02*
X145350000Y-89596000D01*
X147590000Y-90740000D02*
X147590000Y-89596000D01*
X152850000Y-96000000D02*
X147590000Y-90740000D01*
X153648000Y-79400000D02*
X155448000Y-77600000D01*
X150950000Y-79400000D02*
X153648000Y-79400000D01*
X150750000Y-79200000D02*
X150950000Y-79400000D01*
X150750000Y-77400000D02*
X150750000Y-79200000D01*
X126284000Y-90534000D02*
X127200000Y-91450000D01*
X125200000Y-90534000D02*
X126284000Y-90534000D01*
X128350000Y-92600000D02*
X127200000Y-91450000D01*
X128350000Y-96000000D02*
X128350000Y-92600000D01*
X140950000Y-90342000D02*
X140900000Y-90342000D01*
X144650000Y-94042000D02*
X140950000Y-90342000D01*
X144650000Y-96000000D02*
X144650000Y-94042000D01*
X140208000Y-90342000D02*
X138900000Y-91650000D01*
X140900000Y-90342000D02*
X140208000Y-90342000D01*
X154948000Y-85500000D02*
X155448000Y-86000000D01*
X150850000Y-85500000D02*
X154948000Y-85500000D01*
X150750000Y-85400000D02*
X150850000Y-85500000D01*
X150750000Y-83500000D02*
X150750000Y-85400000D01*
X151448000Y-73300000D02*
X155448000Y-69300000D01*
X150850000Y-73300000D02*
X151448000Y-73300000D01*
X150750000Y-73200000D02*
X150850000Y-73300000D01*
X150750000Y-71300000D02*
X150750000Y-73200000D01*
X120515000Y-87965000D02*
X120800000Y-88250000D01*
X120515000Y-86800000D02*
X120515000Y-87965000D01*
X133600000Y-88315000D02*
X133715000Y-88200000D01*
X133600000Y-89550000D02*
X133600000Y-88315000D01*
D40*
X146180000Y-84900000D02*
X146300000Y-85020000D01*
X145785000Y-84900000D02*
X146180000Y-84900000D01*
X146300000Y-85020000D02*
X146300000Y-87300000D01*
X146696000Y-87696000D02*
X147590000Y-87696000D01*
X146300000Y-87300000D02*
X146696000Y-87696000D01*
D38*
X148650000Y-77600000D02*
X148850000Y-77400000D01*
X147400000Y-77600000D02*
X148650000Y-77600000D01*
X126915000Y-89265000D02*
X127200000Y-89550000D01*
X126915000Y-88200000D02*
X126915000Y-89265000D01*
X140653000Y-88195000D02*
X140900000Y-88442000D01*
X140653000Y-86852000D02*
X140653000Y-88195000D01*
X148665000Y-83685000D02*
X148850000Y-83500000D01*
X147400000Y-83685000D02*
X148665000Y-83685000D01*
X148765000Y-71385000D02*
X148850000Y-71300000D01*
X147320000Y-71385000D02*
X148765000Y-71385000D01*
D40*
X124713600Y-65913000D02*
X123200000Y-67426600D01*
X125866000Y-65913000D02*
X124713600Y-65913000D01*
X123200000Y-67426600D02*
X123200000Y-70900000D01*
X121903610Y-72196390D02*
X121903610Y-81446390D01*
X123200000Y-70900000D02*
X121903610Y-72196390D01*
X121873101Y-81723089D02*
X116096190Y-87500000D01*
X121903610Y-81446390D02*
X121873101Y-81476899D01*
X121873101Y-81476899D02*
X121873101Y-81723089D01*
X116096190Y-87500000D02*
X110400000Y-87500000D01*
X108500000Y-89400000D02*
X108500000Y-91450000D01*
X110400000Y-87500000D02*
X108500000Y-89400000D01*
X121819168Y-86465832D02*
X121485000Y-86800000D01*
X122208420Y-86076580D02*
X121819168Y-86465832D01*
X122208420Y-76038180D02*
X122208420Y-86076580D01*
X124713600Y-73533000D02*
X122208420Y-76038180D01*
X125866000Y-73533000D02*
X124713600Y-73533000D01*
X123004810Y-83954810D02*
X123004810Y-77545256D01*
X124595190Y-85545190D02*
X123004810Y-83954810D01*
X127926256Y-85545190D02*
X124595190Y-85545190D01*
X134685000Y-87780000D02*
X134305000Y-87400000D01*
X123004810Y-77545256D02*
X124477066Y-76073000D01*
X134685000Y-88200000D02*
X134685000Y-87780000D01*
X134305000Y-87400000D02*
X129100000Y-87400000D01*
X124477066Y-76073000D02*
X125866000Y-76073000D01*
X129100000Y-87400000D02*
X128304810Y-86604810D01*
X128304810Y-86604810D02*
X128304809Y-85923743D01*
X128304809Y-85923743D02*
X127926256Y-85545190D01*
X129921000Y-79613000D02*
X129921000Y-81021000D01*
X129921000Y-81021000D02*
X130300000Y-81400000D01*
X144420000Y-84900000D02*
X144815000Y-84900000D01*
X142568934Y-84900000D02*
X144420000Y-84900000D01*
X139068934Y-81400000D02*
X142568934Y-84900000D01*
X130300000Y-81400000D02*
X139068934Y-81400000D01*
X146687000Y-77343000D02*
X147400000Y-76630000D01*
X142866000Y-77343000D02*
X146687000Y-77343000D01*
X125866000Y-74803000D02*
X125316000Y-74803000D01*
X123947000Y-74803000D02*
X125866000Y-74803000D01*
X122700000Y-84600000D02*
X122700000Y-76050000D01*
X122700000Y-76050000D02*
X123947000Y-74803000D01*
X128000000Y-86050000D02*
X127800000Y-85850000D01*
X127800000Y-85850000D02*
X123950000Y-85850000D01*
X123950000Y-85850000D02*
X122700000Y-84600000D01*
X127885000Y-87915000D02*
X128000000Y-87800000D01*
X127885000Y-88200000D02*
X127885000Y-87915000D01*
X128000000Y-87865000D02*
X128000000Y-87800000D01*
X128000000Y-87800000D02*
X128000000Y-86050000D01*
X124713600Y-77343000D02*
X123456600Y-78600000D01*
X125866000Y-77343000D02*
X124713600Y-77343000D01*
X123456600Y-78600000D02*
X123456600Y-83706600D01*
X123456600Y-83706600D02*
X124600000Y-84850000D01*
X141074390Y-86303390D02*
X140196610Y-86303390D01*
X141623000Y-86852000D02*
X141074390Y-86303390D01*
X140196610Y-86303390D02*
X139500000Y-87000000D01*
X127662132Y-84850000D02*
X124600000Y-84850000D01*
X129812132Y-87000000D02*
X127662132Y-84850000D01*
X139500000Y-87000000D02*
X129812132Y-87000000D01*
X140815000Y-82715000D02*
X147400000Y-82715000D01*
X140081000Y-79613000D02*
X140081000Y-81981000D01*
X140081000Y-81981000D02*
X140815000Y-82715000D01*
X146835000Y-70900000D02*
X147320000Y-70415000D01*
X144018400Y-76073000D02*
X144191400Y-75900000D01*
X142866000Y-76073000D02*
X144018400Y-76073000D01*
X144191400Y-75900000D02*
X146200000Y-75900000D01*
X146200000Y-75900000D02*
X146600000Y-75500000D01*
X146600000Y-75500000D02*
X146600000Y-70900000D01*
X146600000Y-70900000D02*
X146835000Y-70900000D01*
D38*
X150687500Y-65297500D02*
X150685000Y-65300000D01*
X150687500Y-63800000D02*
X150687500Y-65297500D01*
X153987500Y-64797500D02*
X153485000Y-65300000D01*
X153987500Y-63800000D02*
X153987500Y-64797500D01*
X157287500Y-64397500D02*
X156385000Y-65300000D01*
X157287500Y-63800000D02*
X157287500Y-64397500D01*
X160487500Y-64297500D02*
X159485000Y-65300000D01*
X160487500Y-63800000D02*
X160487500Y-64297500D01*
D40*
X149320000Y-65300000D02*
X149715000Y-65300000D01*
X145945400Y-65300000D02*
X149320000Y-65300000D01*
X144018400Y-63373000D02*
X145945400Y-65300000D01*
X142866000Y-63373000D02*
X144018400Y-63373000D01*
X152180832Y-65634168D02*
X152515000Y-65300000D01*
X151966390Y-65848610D02*
X152180832Y-65634168D01*
X146062944Y-65848610D02*
X151966390Y-65848610D01*
X144857334Y-64643000D02*
X146062944Y-65848610D01*
X142866000Y-64643000D02*
X144857334Y-64643000D01*
X142866000Y-68453000D02*
X144447000Y-68453000D01*
X144447000Y-68453000D02*
X146600000Y-66300000D01*
X154415000Y-66300000D02*
X155415000Y-65300000D01*
X146600000Y-66300000D02*
X154415000Y-66300000D01*
X158315000Y-65500000D02*
X158515000Y-65300000D01*
X157200000Y-65500000D02*
X158315000Y-65500000D01*
X155888600Y-66811400D02*
X157200000Y-65500000D01*
X148200000Y-66811400D02*
X155888600Y-66811400D01*
X142866000Y-70993000D02*
X144018400Y-70993000D01*
X144018400Y-70993000D02*
X148200000Y-66811400D01*
D38*
X142869000Y-74800000D02*
X142866000Y-74803000D01*
X145500000Y-74800000D02*
X142869000Y-74800000D01*
D40*
X127210190Y-84545190D02*
X127845190Y-84545190D01*
X126685000Y-83600000D02*
X126685000Y-84020000D01*
X126685000Y-84020000D02*
X127210190Y-84545190D01*
X127845190Y-84545190D02*
X128900000Y-85600000D01*
X128900000Y-85600000D02*
X132300000Y-85600000D01*
X132440000Y-85460000D02*
X132440000Y-84100000D01*
X132300000Y-85600000D02*
X132440000Y-85460000D01*
M02*
