M48
; DRILL file {KiCad (5.1.4)-1} date 13/10/2019 15:27:21
; FORMAT={-:-/ absolute / inch / decimal}
; #@! TF.CreationDate,2019-10-13T15:27:21+01:00
; #@! TF.GenerationSoftware,Kicad,Pcbnew,(5.1.4)-1
FMAT,2
INCH
T1C0.0100
T2C0.0200
T3C0.0236
T4C0.0315
T5C0.0335
T6C0.0374
T7C0.0472
T8C0.1260
%
G90
G05
T1
X4.33Y-2.58
X4.36Y-2.56
X4.37Y-2.61
X4.3858Y-2.6969
X4.4844Y-2.6
X4.5353Y-2.4734
X4.5669Y-2.4488
X4.5906Y-2.4173
X4.6299Y-2.5276
X4.63Y-2.68
X4.6755Y-2.7182
X4.6929Y-2.6457
X4.8189Y-2.7087
X5.6811Y-2.5965
X5.6811Y-2.6457
X5.6929Y-3.0945
T2
X4.2677Y-2.7047
X4.3Y-2.55
X4.3071Y-2.6772
X4.325Y-2.5
X4.3701Y-2.1811
X4.425Y-2.475
X4.46Y-2.73
X4.4646Y-2.7795
X4.4961Y-2.8346
X4.5394Y-2.8346
X4.5827Y-2.9843
X4.6142Y-3.2638
X4.6339Y-2.9843
X4.75Y-2.51
X4.8346Y-3.5669
X4.85Y-2.525
X4.9606Y-3.1575
X4.9803Y-3.2205
X5.0Y-3.1575
X5.0866Y-3.5197
X5.3307Y-3.5197
X5.4606Y-3.2677
X5.624Y-3.4626
X5.7283Y-2.9449
X5.7402Y-2.4803
X5.8189Y-2.5118
X5.8543Y-2.9646
X5.8543Y-3.2087
X5.8583Y-2.7402
X5.925Y-3.5
X6.0394Y-2.4055
X6.1142Y-2.4055
X6.1772Y-2.4094
T4
X5.1142Y-3.311
X5.2142Y-3.311
X5.3142Y-3.311
X5.4142Y-3.311
T5
X4.2076Y-2.5016
X4.2076Y-2.6984
T6
X4.1732Y-3.6004
X4.2717Y-3.6004
X4.3701Y-3.6004
T7
X5.5571Y-3.7795
X5.6949Y-3.7795
X6.12Y-2.7283
X6.12Y-2.8661
X6.12Y-3.3858
X6.12Y-3.5236
X4.5945Y-3.7795
X4.7323Y-3.7795
X6.12Y-3.0551
X6.12Y-3.1929
X4.2913Y-2.8898
X4.2913Y-3.0276
X5.8799Y-3.7795
X6.0177Y-3.7795
X4.9154Y-3.7795
X5.0531Y-3.7795
X5.2354Y-3.7795
X5.3731Y-3.7795
X4.2913Y-3.2087
X4.2913Y-3.3465
T8
X6.2598Y-3.878
X4.1929Y-3.878
X6.2598Y-2.2638
X4.1909Y-2.2618
T3
G00X4.0875Y-2.4622
M15
G01X4.1151Y-2.4622
M16
G05
G00X4.1151Y-2.7378
M15
G01X4.0875Y-2.7378
M16
G05
T0
M30
