G04 #@! TF.GenerationSoftware,KiCad,Pcbnew,(5.1.4)-1*
G04 #@! TF.CreationDate,2019-11-04T02:00:11+00:00*
G04 #@! TF.ProjectId,light_control,6c696768-745f-4636-9f6e-74726f6c2e6b,rev?*
G04 #@! TF.SameCoordinates,Original*
G04 #@! TF.FileFunction,Legend,Top*
G04 #@! TF.FilePolarity,Positive*
%FSLAX46Y46*%
G04 Gerber Fmt 4.6, Leading zero omitted, Abs format (unit mm)*
G04 Created by KiCad (PCBNEW (5.1.4)-1) date 2019-11-04 02:00:11*
%MOMM*%
%LPD*%
G04 APERTURE LIST*
%ADD10C,0.150000*%
%ADD11C,0.120000*%
G04 APERTURE END LIST*
D10*
X161280952Y-73833333D02*
X161233333Y-73928571D01*
X161185714Y-73976190D01*
X161090476Y-74023809D01*
X161042857Y-74023809D01*
X160947619Y-73976190D01*
X160900000Y-73928571D01*
X160852380Y-73833333D01*
X160852380Y-73642857D01*
X160900000Y-73547619D01*
X160947619Y-73500000D01*
X161042857Y-73452380D01*
X161090476Y-73452380D01*
X161185714Y-73500000D01*
X161233333Y-73547619D01*
X161280952Y-73642857D01*
X161280952Y-73833333D01*
X161328571Y-73928571D01*
X161376190Y-73976190D01*
X161471428Y-74023809D01*
X161661904Y-74023809D01*
X161757142Y-73976190D01*
X161804761Y-73928571D01*
X161852380Y-73833333D01*
X161852380Y-73642857D01*
X161804761Y-73547619D01*
X161757142Y-73500000D01*
X161661904Y-73452380D01*
X161471428Y-73452380D01*
X161376190Y-73500000D01*
X161328571Y-73547619D01*
X161280952Y-73642857D01*
X161757142Y-73023809D02*
X161804761Y-72976190D01*
X161852380Y-73023809D01*
X161804761Y-73071428D01*
X161757142Y-73023809D01*
X161852380Y-73023809D01*
X161233333Y-73023809D02*
X161280952Y-72976190D01*
X161328571Y-73023809D01*
X161280952Y-73071428D01*
X161233333Y-73023809D01*
X161328571Y-73023809D01*
X161471428Y-72547619D02*
X161471428Y-71785714D01*
X161852380Y-72166666D02*
X161090476Y-72166666D01*
X161471428Y-69785714D02*
X161471428Y-69023809D01*
X160852380Y-82671428D02*
X160852380Y-82004761D01*
X161852380Y-82433333D01*
X161757142Y-81623809D02*
X161804761Y-81576190D01*
X161852380Y-81623809D01*
X161804761Y-81671428D01*
X161757142Y-81623809D01*
X161852380Y-81623809D01*
X161233333Y-81623809D02*
X161280952Y-81576190D01*
X161328571Y-81623809D01*
X161280952Y-81671428D01*
X161233333Y-81623809D01*
X161328571Y-81623809D01*
X161471428Y-81147619D02*
X161471428Y-80385714D01*
X161852380Y-80766666D02*
X161090476Y-80766666D01*
X161471428Y-78385714D02*
X161471428Y-77623809D01*
X160852380Y-90547619D02*
X160852380Y-90738095D01*
X160900000Y-90833333D01*
X160947619Y-90880952D01*
X161090476Y-90976190D01*
X161280952Y-91023809D01*
X161661904Y-91023809D01*
X161757142Y-90976190D01*
X161804761Y-90928571D01*
X161852380Y-90833333D01*
X161852380Y-90642857D01*
X161804761Y-90547619D01*
X161757142Y-90500000D01*
X161661904Y-90452380D01*
X161423809Y-90452380D01*
X161328571Y-90500000D01*
X161280952Y-90547619D01*
X161233333Y-90642857D01*
X161233333Y-90833333D01*
X161280952Y-90928571D01*
X161328571Y-90976190D01*
X161423809Y-91023809D01*
X161757142Y-90023809D02*
X161804761Y-89976190D01*
X161852380Y-90023809D01*
X161804761Y-90071428D01*
X161757142Y-90023809D01*
X161852380Y-90023809D01*
X161233333Y-90023809D02*
X161280952Y-89976190D01*
X161328571Y-90023809D01*
X161280952Y-90071428D01*
X161233333Y-90023809D01*
X161328571Y-90023809D01*
X161471428Y-89547619D02*
X161471428Y-88785714D01*
X161852380Y-89166666D02*
X161090476Y-89166666D01*
X161471428Y-86785714D02*
X161471428Y-86023809D01*
X148700000Y-100952380D02*
X148223809Y-100952380D01*
X148176190Y-101428571D01*
X148223809Y-101380952D01*
X148319047Y-101333333D01*
X148557142Y-101333333D01*
X148652380Y-101380952D01*
X148700000Y-101428571D01*
X148747619Y-101523809D01*
X148747619Y-101761904D01*
X148700000Y-101857142D01*
X148652380Y-101904761D01*
X148557142Y-101952380D01*
X148319047Y-101952380D01*
X148223809Y-101904761D01*
X148176190Y-101857142D01*
X149176190Y-101857142D02*
X149223809Y-101904761D01*
X149176190Y-101952380D01*
X149128571Y-101904761D01*
X149176190Y-101857142D01*
X149176190Y-101952380D01*
X149176190Y-101333333D02*
X149223809Y-101380952D01*
X149176190Y-101428571D01*
X149128571Y-101380952D01*
X149176190Y-101333333D01*
X149176190Y-101428571D01*
X149652380Y-101571428D02*
X150414285Y-101571428D01*
X150033333Y-101952380D02*
X150033333Y-101190476D01*
X152414285Y-101571428D02*
X153176190Y-101571428D01*
X140252380Y-101285714D02*
X140252380Y-101952380D01*
X140014285Y-100904761D02*
X139776190Y-101619047D01*
X140395238Y-101619047D01*
X140776190Y-101857142D02*
X140823809Y-101904761D01*
X140776190Y-101952380D01*
X140728571Y-101904761D01*
X140776190Y-101857142D01*
X140776190Y-101952380D01*
X140776190Y-101333333D02*
X140823809Y-101380952D01*
X140776190Y-101428571D01*
X140728571Y-101380952D01*
X140776190Y-101333333D01*
X140776190Y-101428571D01*
X141252380Y-101571428D02*
X142014285Y-101571428D01*
X141633333Y-101952380D02*
X141633333Y-101190476D01*
X144014285Y-101571428D02*
X144776190Y-101571428D01*
X131928571Y-100952380D02*
X132547619Y-100952380D01*
X132214285Y-101333333D01*
X132357142Y-101333333D01*
X132452380Y-101380952D01*
X132500000Y-101428571D01*
X132547619Y-101523809D01*
X132547619Y-101761904D01*
X132500000Y-101857142D01*
X132452380Y-101904761D01*
X132357142Y-101952380D01*
X132071428Y-101952380D01*
X131976190Y-101904761D01*
X131928571Y-101857142D01*
X132976190Y-101857142D02*
X133023809Y-101904761D01*
X132976190Y-101952380D01*
X132928571Y-101904761D01*
X132976190Y-101857142D01*
X132976190Y-101952380D01*
X132976190Y-101333333D02*
X133023809Y-101380952D01*
X132976190Y-101428571D01*
X132928571Y-101380952D01*
X132976190Y-101333333D01*
X132976190Y-101428571D01*
X133452380Y-101571428D02*
X134214285Y-101571428D01*
X133833333Y-101952380D02*
X133833333Y-101190476D01*
X136214285Y-101571428D02*
X136976190Y-101571428D01*
X123576190Y-101047619D02*
X123623809Y-101000000D01*
X123719047Y-100952380D01*
X123957142Y-100952380D01*
X124052380Y-101000000D01*
X124100000Y-101047619D01*
X124147619Y-101142857D01*
X124147619Y-101238095D01*
X124100000Y-101380952D01*
X123528571Y-101952380D01*
X124147619Y-101952380D01*
X124576190Y-101857142D02*
X124623809Y-101904761D01*
X124576190Y-101952380D01*
X124528571Y-101904761D01*
X124576190Y-101857142D01*
X124576190Y-101952380D01*
X124576190Y-101333333D02*
X124623809Y-101380952D01*
X124576190Y-101428571D01*
X124528571Y-101380952D01*
X124576190Y-101333333D01*
X124576190Y-101428571D01*
X125052380Y-101571428D02*
X125814285Y-101571428D01*
X125433333Y-101952380D02*
X125433333Y-101190476D01*
X127814285Y-101571428D02*
X128576190Y-101571428D01*
X103047619Y-80414285D02*
X103047619Y-79842857D01*
X103047619Y-80128571D02*
X104047619Y-80128571D01*
X103904761Y-80033333D01*
X103809523Y-79938095D01*
X103761904Y-79842857D01*
X103952380Y-80795238D02*
X104000000Y-80842857D01*
X104047619Y-80938095D01*
X104047619Y-81176190D01*
X104000000Y-81271428D01*
X103952380Y-81319047D01*
X103857142Y-81366666D01*
X103761904Y-81366666D01*
X103619047Y-81319047D01*
X103047619Y-80747619D01*
X103047619Y-81366666D01*
X104047619Y-81652380D02*
X103047619Y-81985714D01*
X104047619Y-82319047D01*
X104000000Y-84700000D02*
X104047619Y-84604761D01*
X104047619Y-84461904D01*
X104000000Y-84319047D01*
X103904761Y-84223809D01*
X103809523Y-84176190D01*
X103619047Y-84128571D01*
X103476190Y-84128571D01*
X103285714Y-84176190D01*
X103190476Y-84223809D01*
X103095238Y-84319047D01*
X103047619Y-84461904D01*
X103047619Y-84557142D01*
X103095238Y-84700000D01*
X103142857Y-84747619D01*
X103476190Y-84747619D01*
X103476190Y-84557142D01*
X103714285Y-85176190D02*
X103047619Y-85176190D01*
X103619047Y-85176190D02*
X103666666Y-85223809D01*
X103714285Y-85319047D01*
X103714285Y-85461904D01*
X103666666Y-85557142D01*
X103571428Y-85604761D01*
X103047619Y-85604761D01*
X103047619Y-86509523D02*
X104047619Y-86509523D01*
X103095238Y-86509523D02*
X103047619Y-86414285D01*
X103047619Y-86223809D01*
X103095238Y-86128571D01*
X103142857Y-86080952D01*
X103238095Y-86033333D01*
X103523809Y-86033333D01*
X103619047Y-86080952D01*
X103666666Y-86128571D01*
X103714285Y-86223809D01*
X103714285Y-86414285D01*
X103666666Y-86509523D01*
X115647619Y-101952380D02*
X115076190Y-101952380D01*
X115361904Y-101952380D02*
X115361904Y-100952380D01*
X115266666Y-101095238D01*
X115171428Y-101190476D01*
X115076190Y-101238095D01*
X116076190Y-101857142D02*
X116123809Y-101904761D01*
X116076190Y-101952380D01*
X116028571Y-101904761D01*
X116076190Y-101857142D01*
X116076190Y-101952380D01*
X116076190Y-101333333D02*
X116123809Y-101380952D01*
X116076190Y-101428571D01*
X116028571Y-101380952D01*
X116076190Y-101333333D01*
X116076190Y-101428571D01*
X116552380Y-101571428D02*
X117314285Y-101571428D01*
X116933333Y-101952380D02*
X116933333Y-101190476D01*
X119314285Y-101571428D02*
X120076190Y-101571428D01*
X103147619Y-72314285D02*
X103147619Y-71742857D01*
X103147619Y-72028571D02*
X104147619Y-72028571D01*
X104004761Y-71933333D01*
X103909523Y-71838095D01*
X103861904Y-71742857D01*
X104052380Y-72695238D02*
X104100000Y-72742857D01*
X104147619Y-72838095D01*
X104147619Y-73076190D01*
X104100000Y-73171428D01*
X104052380Y-73219047D01*
X103957142Y-73266666D01*
X103861904Y-73266666D01*
X103719047Y-73219047D01*
X103147619Y-72647619D01*
X103147619Y-73266666D01*
X104147619Y-73552380D02*
X103147619Y-73885714D01*
X104147619Y-74219047D01*
X104100000Y-76600000D02*
X104147619Y-76504761D01*
X104147619Y-76361904D01*
X104100000Y-76219047D01*
X104004761Y-76123809D01*
X103909523Y-76076190D01*
X103719047Y-76028571D01*
X103576190Y-76028571D01*
X103385714Y-76076190D01*
X103290476Y-76123809D01*
X103195238Y-76219047D01*
X103147619Y-76361904D01*
X103147619Y-76457142D01*
X103195238Y-76600000D01*
X103242857Y-76647619D01*
X103576190Y-76647619D01*
X103576190Y-76457142D01*
X103814285Y-77076190D02*
X103147619Y-77076190D01*
X103719047Y-77076190D02*
X103766666Y-77123809D01*
X103814285Y-77219047D01*
X103814285Y-77361904D01*
X103766666Y-77457142D01*
X103671428Y-77504761D01*
X103147619Y-77504761D01*
X103147619Y-78409523D02*
X104147619Y-78409523D01*
X103195238Y-78409523D02*
X103147619Y-78314285D01*
X103147619Y-78123809D01*
X103195238Y-78028571D01*
X103242857Y-77980952D01*
X103338095Y-77933333D01*
X103623809Y-77933333D01*
X103719047Y-77980952D01*
X103766666Y-78028571D01*
X103814285Y-78123809D01*
X103814285Y-78314285D01*
X103766666Y-78409523D01*
X112861904Y-55352380D02*
X112528571Y-54876190D01*
X112290476Y-55352380D02*
X112290476Y-54352380D01*
X112671428Y-54352380D01*
X112766666Y-54400000D01*
X112814285Y-54447619D01*
X112861904Y-54542857D01*
X112861904Y-54685714D01*
X112814285Y-54780952D01*
X112766666Y-54828571D01*
X112671428Y-54876190D01*
X112290476Y-54876190D01*
X113671428Y-55304761D02*
X113576190Y-55352380D01*
X113385714Y-55352380D01*
X113290476Y-55304761D01*
X113242857Y-55209523D01*
X113242857Y-54828571D01*
X113290476Y-54733333D01*
X113385714Y-54685714D01*
X113576190Y-54685714D01*
X113671428Y-54733333D01*
X113719047Y-54828571D01*
X113719047Y-54923809D01*
X113242857Y-55019047D01*
X114100000Y-55304761D02*
X114195238Y-55352380D01*
X114385714Y-55352380D01*
X114480952Y-55304761D01*
X114528571Y-55209523D01*
X114528571Y-55161904D01*
X114480952Y-55066666D01*
X114385714Y-55019047D01*
X114242857Y-55019047D01*
X114147619Y-54971428D01*
X114100000Y-54876190D01*
X114100000Y-54828571D01*
X114147619Y-54733333D01*
X114242857Y-54685714D01*
X114385714Y-54685714D01*
X114480952Y-54733333D01*
X115338095Y-55304761D02*
X115242857Y-55352380D01*
X115052380Y-55352380D01*
X114957142Y-55304761D01*
X114909523Y-55209523D01*
X114909523Y-54828571D01*
X114957142Y-54733333D01*
X115052380Y-54685714D01*
X115242857Y-54685714D01*
X115338095Y-54733333D01*
X115385714Y-54828571D01*
X115385714Y-54923809D01*
X114909523Y-55019047D01*
X115671428Y-54685714D02*
X116052380Y-54685714D01*
X115814285Y-54352380D02*
X115814285Y-55209523D01*
X115861904Y-55304761D01*
X115957142Y-55352380D01*
X116052380Y-55352380D01*
X110109523Y-94152380D02*
X110442857Y-95152380D01*
X110776190Y-94152380D01*
X111538095Y-95104761D02*
X111442857Y-95152380D01*
X111252380Y-95152380D01*
X111157142Y-95104761D01*
X111109523Y-95057142D01*
X111061904Y-94961904D01*
X111061904Y-94676190D01*
X111109523Y-94580952D01*
X111157142Y-94533333D01*
X111252380Y-94485714D01*
X111442857Y-94485714D01*
X111538095Y-94533333D01*
X112395238Y-95104761D02*
X112300000Y-95152380D01*
X112109523Y-95152380D01*
X112014285Y-95104761D01*
X111966666Y-95057142D01*
X111919047Y-94961904D01*
X111919047Y-94676190D01*
X111966666Y-94580952D01*
X112014285Y-94533333D01*
X112109523Y-94485714D01*
X112300000Y-94485714D01*
X112395238Y-94533333D01*
X107676190Y-94152380D02*
X108009523Y-95152380D01*
X108342857Y-94152380D01*
X108676190Y-95152380D02*
X108676190Y-94485714D01*
X108676190Y-94152380D02*
X108628571Y-94200000D01*
X108676190Y-94247619D01*
X108723809Y-94200000D01*
X108676190Y-94152380D01*
X108676190Y-94247619D01*
X109152380Y-94485714D02*
X109152380Y-95152380D01*
X109152380Y-94580952D02*
X109200000Y-94533333D01*
X109295238Y-94485714D01*
X109438095Y-94485714D01*
X109533333Y-94533333D01*
X109580952Y-94628571D01*
X109580952Y-95152380D01*
X105157142Y-94150000D02*
X105061904Y-94102380D01*
X104919047Y-94102380D01*
X104776190Y-94150000D01*
X104680952Y-94245238D01*
X104633333Y-94340476D01*
X104585714Y-94530952D01*
X104585714Y-94673809D01*
X104633333Y-94864285D01*
X104680952Y-94959523D01*
X104776190Y-95054761D01*
X104919047Y-95102380D01*
X105014285Y-95102380D01*
X105157142Y-95054761D01*
X105204761Y-95007142D01*
X105204761Y-94673809D01*
X105014285Y-94673809D01*
X105633333Y-94435714D02*
X105633333Y-95102380D01*
X105633333Y-94530952D02*
X105680952Y-94483333D01*
X105776190Y-94435714D01*
X105919047Y-94435714D01*
X106014285Y-94483333D01*
X106061904Y-94578571D01*
X106061904Y-95102380D01*
X106966666Y-95102380D02*
X106966666Y-94102380D01*
X106966666Y-95054761D02*
X106871428Y-95102380D01*
X106680952Y-95102380D01*
X106585714Y-95054761D01*
X106538095Y-95007142D01*
X106490476Y-94911904D01*
X106490476Y-94626190D01*
X106538095Y-94530952D01*
X106585714Y-94483333D01*
X106680952Y-94435714D01*
X106871428Y-94435714D01*
X106966666Y-94483333D01*
D11*
X110450000Y-60741000D02*
X110550000Y-60766000D01*
X110450000Y-55566000D02*
X110450000Y-60741000D01*
X117600000Y-60766000D02*
X110400000Y-60766000D01*
X117625000Y-55566000D02*
X117600000Y-60766000D01*
X110450000Y-55566000D02*
X117625000Y-55566000D01*
X127300000Y-87260000D02*
X127300000Y-85650000D01*
X127300000Y-87260000D02*
X129300000Y-87260000D01*
X139840000Y-86980000D02*
X127590000Y-86980000D01*
X139840000Y-81220000D02*
X139840000Y-86980000D01*
X127580000Y-81220000D02*
X139840000Y-81220000D01*
X127580000Y-86970000D02*
X127580000Y-81230000D01*
X158215000Y-64535000D02*
X160500000Y-64535000D01*
X158215000Y-63065000D02*
X158215000Y-64535000D01*
X160500000Y-63065000D02*
X158215000Y-63065000D01*
X155015000Y-64535000D02*
X157300000Y-64535000D01*
X155015000Y-63065000D02*
X155015000Y-64535000D01*
X157300000Y-63065000D02*
X155015000Y-63065000D01*
X151715000Y-64535000D02*
X154000000Y-64535000D01*
X151715000Y-63065000D02*
X151715000Y-64535000D01*
X154000000Y-63065000D02*
X151715000Y-63065000D01*
X148415000Y-64535000D02*
X150700000Y-64535000D01*
X148415000Y-63065000D02*
X148415000Y-64535000D01*
X150700000Y-63065000D02*
X148415000Y-63065000D01*
X139100000Y-100800000D02*
X139500000Y-100800000D01*
X139100000Y-100160000D02*
X139100000Y-100800000D01*
X143505000Y-96941000D02*
X143376000Y-97069000D01*
X145720000Y-94725000D02*
X145626000Y-94819000D01*
X143675000Y-97181000D02*
X143581000Y-97274000D01*
X145925000Y-94931000D02*
X145796000Y-95059000D01*
X146460000Y-92840000D02*
X146460000Y-100560000D01*
X139340000Y-92840000D02*
X139340000Y-100560000D01*
X139340000Y-100560000D02*
X146460000Y-100560000D01*
X139340000Y-92840000D02*
X146460000Y-92840000D01*
X139340000Y-99000000D02*
X146460000Y-99000000D01*
X139340000Y-100100000D02*
X146460000Y-100100000D01*
X146330000Y-96000000D02*
G75*
G03X146330000Y-96000000I-1680000J0D01*
G01*
X141178674Y-97680099D02*
G75*
G02X140284000Y-97440000I-28674J1680099D01*
G01*
X139724642Y-96889894D02*
G75*
G02X139710000Y-95134000I1425358J889894D01*
G01*
X140260106Y-94574642D02*
G75*
G02X142016000Y-94560000I889894J-1425358D01*
G01*
X142575505Y-95109807D02*
G75*
G02X142575000Y-96891000I-1425505J-890193D01*
G01*
X142040264Y-97424721D02*
G75*
G02X141150000Y-97680000I-890264J1424721D01*
G01*
X113850000Y-94200000D02*
X113850000Y-92950000D01*
X112600000Y-94200000D02*
X113850000Y-94200000D01*
X104200000Y-88700000D02*
X108500000Y-88700000D01*
X104200000Y-91650000D02*
X104200000Y-88700000D01*
X103450000Y-91650000D02*
X104200000Y-91650000D01*
X112800000Y-88700000D02*
X108500000Y-88700000D01*
X112800000Y-91650000D02*
X112800000Y-88700000D01*
X113550000Y-91650000D02*
X112800000Y-91650000D01*
X103450000Y-93900000D02*
X105250000Y-93900000D01*
X103450000Y-93150000D02*
X103450000Y-93900000D01*
X105250000Y-93150000D02*
X103450000Y-93150000D01*
X105250000Y-93900000D02*
X105250000Y-93150000D01*
X111750000Y-93900000D02*
X113550000Y-93900000D01*
X111750000Y-93150000D02*
X111750000Y-93900000D01*
X113550000Y-93150000D02*
X111750000Y-93150000D01*
X113550000Y-93900000D02*
X113550000Y-93150000D01*
X106750000Y-93900000D02*
X110250000Y-93900000D01*
X106750000Y-93150000D02*
X106750000Y-93900000D01*
X110250000Y-93150000D02*
X106750000Y-93150000D01*
X110250000Y-93900000D02*
X110250000Y-93150000D01*
X103440000Y-93910000D02*
X113560000Y-93910000D01*
X103440000Y-87940000D02*
X103440000Y-93910000D01*
X113560000Y-87940000D02*
X103440000Y-87940000D01*
X113560000Y-93910000D02*
X113560000Y-87940000D01*
X104200000Y-79450000D02*
X104200000Y-79850000D01*
X104840000Y-79450000D02*
X104200000Y-79450000D01*
X108059000Y-83855000D02*
X107931000Y-83726000D01*
X110275000Y-86070000D02*
X110181000Y-85976000D01*
X107819000Y-84025000D02*
X107726000Y-83931000D01*
X110069000Y-86275000D02*
X109941000Y-86146000D01*
X112160000Y-86810000D02*
X104440000Y-86810000D01*
X112160000Y-79690000D02*
X104440000Y-79690000D01*
X104440000Y-79690000D02*
X104440000Y-86810000D01*
X112160000Y-79690000D02*
X112160000Y-86810000D01*
X106000000Y-79690000D02*
X106000000Y-86810000D01*
X104900000Y-79690000D02*
X104900000Y-86810000D01*
X110680000Y-85000000D02*
G75*
G03X110680000Y-85000000I-1680000J0D01*
G01*
X107319901Y-81528674D02*
G75*
G02X107560000Y-80634000I1680099J28674D01*
G01*
X108110106Y-80074642D02*
G75*
G02X109866000Y-80060000I889894J-1425358D01*
G01*
X110425358Y-80610106D02*
G75*
G02X110440000Y-82366000I-1425358J-889894D01*
G01*
X109890193Y-82925505D02*
G75*
G02X108109000Y-82925000I-890193J1425505D01*
G01*
X107575279Y-82390264D02*
G75*
G02X107320000Y-81500000I1424721J890264D01*
G01*
X160248000Y-74850000D02*
X160248000Y-74450000D01*
X159608000Y-74850000D02*
X160248000Y-74850000D01*
X156389000Y-70445000D02*
X156517000Y-70574000D01*
X154173000Y-68230000D02*
X154267000Y-68324000D01*
X156629000Y-70275000D02*
X156722000Y-70369000D01*
X154379000Y-68025000D02*
X154507000Y-68154000D01*
X152288000Y-67490000D02*
X160008000Y-67490000D01*
X152288000Y-74610000D02*
X160008000Y-74610000D01*
X160008000Y-74610000D02*
X160008000Y-67490000D01*
X152288000Y-74610000D02*
X152288000Y-67490000D01*
X158448000Y-74610000D02*
X158448000Y-67490000D01*
X159548000Y-74610000D02*
X159548000Y-67490000D01*
X157128000Y-69300000D02*
G75*
G03X157128000Y-69300000I-1680000J0D01*
G01*
X157128099Y-72771326D02*
G75*
G02X156888000Y-73666000I-1680099J-28674D01*
G01*
X156337894Y-74225358D02*
G75*
G02X154582000Y-74240000I-889894J1425358D01*
G01*
X154022642Y-73689894D02*
G75*
G02X154008000Y-71934000I1425358J889894D01*
G01*
X154557807Y-71374495D02*
G75*
G02X156339000Y-71375000I890193J-1425505D01*
G01*
X156872721Y-71909736D02*
G75*
G02X157128000Y-72800000I-1424721J-890264D01*
G01*
X160248000Y-91550000D02*
X160248000Y-91150000D01*
X159608000Y-91550000D02*
X160248000Y-91550000D01*
X156389000Y-87145000D02*
X156517000Y-87274000D01*
X154173000Y-84930000D02*
X154267000Y-85024000D01*
X156629000Y-86975000D02*
X156722000Y-87069000D01*
X154379000Y-84725000D02*
X154507000Y-84854000D01*
X152288000Y-84190000D02*
X160008000Y-84190000D01*
X152288000Y-91310000D02*
X160008000Y-91310000D01*
X160008000Y-91310000D02*
X160008000Y-84190000D01*
X152288000Y-91310000D02*
X152288000Y-84190000D01*
X158448000Y-91310000D02*
X158448000Y-84190000D01*
X159548000Y-91310000D02*
X159548000Y-84190000D01*
X157128000Y-86000000D02*
G75*
G03X157128000Y-86000000I-1680000J0D01*
G01*
X157128099Y-89471326D02*
G75*
G02X156888000Y-90366000I-1680099J-28674D01*
G01*
X156337894Y-90925358D02*
G75*
G02X154582000Y-90940000I-889894J1425358D01*
G01*
X154022642Y-90389894D02*
G75*
G02X154008000Y-88634000I1425358J889894D01*
G01*
X154557807Y-88074495D02*
G75*
G02X156339000Y-88075000I890193J-1425505D01*
G01*
X156872721Y-88609736D02*
G75*
G02X157128000Y-89500000I-1424721J-890264D01*
G01*
X122800000Y-100800000D02*
X123200000Y-100800000D01*
X122800000Y-100160000D02*
X122800000Y-100800000D01*
X127205000Y-96941000D02*
X127076000Y-97069000D01*
X129420000Y-94725000D02*
X129326000Y-94819000D01*
X127375000Y-97181000D02*
X127281000Y-97274000D01*
X129625000Y-94931000D02*
X129496000Y-95059000D01*
X130160000Y-92840000D02*
X130160000Y-100560000D01*
X123040000Y-92840000D02*
X123040000Y-100560000D01*
X123040000Y-100560000D02*
X130160000Y-100560000D01*
X123040000Y-92840000D02*
X130160000Y-92840000D01*
X123040000Y-99000000D02*
X130160000Y-99000000D01*
X123040000Y-100100000D02*
X130160000Y-100100000D01*
X130030000Y-96000000D02*
G75*
G03X130030000Y-96000000I-1680000J0D01*
G01*
X124878674Y-97680099D02*
G75*
G02X123984000Y-97440000I-28674J1680099D01*
G01*
X123424642Y-96889894D02*
G75*
G02X123410000Y-95134000I1425358J889894D01*
G01*
X123960106Y-94574642D02*
G75*
G02X125716000Y-94560000I889894J-1425358D01*
G01*
X126275505Y-95109807D02*
G75*
G02X126275000Y-96891000I-1425505J-890193D01*
G01*
X125740264Y-97424721D02*
G75*
G02X124850000Y-97680000I-890264J1424721D01*
G01*
X160248000Y-83150000D02*
X160248000Y-82750000D01*
X159608000Y-83150000D02*
X160248000Y-83150000D01*
X156389000Y-78745000D02*
X156517000Y-78874000D01*
X154173000Y-76530000D02*
X154267000Y-76624000D01*
X156629000Y-78575000D02*
X156722000Y-78669000D01*
X154379000Y-76325000D02*
X154507000Y-76454000D01*
X152288000Y-75790000D02*
X160008000Y-75790000D01*
X152288000Y-82910000D02*
X160008000Y-82910000D01*
X160008000Y-82910000D02*
X160008000Y-75790000D01*
X152288000Y-82910000D02*
X152288000Y-75790000D01*
X158448000Y-82910000D02*
X158448000Y-75790000D01*
X159548000Y-82910000D02*
X159548000Y-75790000D01*
X157128000Y-77600000D02*
G75*
G03X157128000Y-77600000I-1680000J0D01*
G01*
X157128099Y-81071326D02*
G75*
G02X156888000Y-81966000I-1680099J-28674D01*
G01*
X156337894Y-82525358D02*
G75*
G02X154582000Y-82540000I-889894J1425358D01*
G01*
X154022642Y-81989894D02*
G75*
G02X154008000Y-80234000I1425358J889894D01*
G01*
X154557807Y-79674495D02*
G75*
G02X156339000Y-79675000I890193J-1425505D01*
G01*
X156872721Y-80209736D02*
G75*
G02X157128000Y-81100000I-1424721J-890264D01*
G01*
X147300000Y-100800000D02*
X147700000Y-100800000D01*
X147300000Y-100160000D02*
X147300000Y-100800000D01*
X151705000Y-96941000D02*
X151576000Y-97069000D01*
X153920000Y-94725000D02*
X153826000Y-94819000D01*
X151875000Y-97181000D02*
X151781000Y-97274000D01*
X154125000Y-94931000D02*
X153996000Y-95059000D01*
X154660000Y-92840000D02*
X154660000Y-100560000D01*
X147540000Y-92840000D02*
X147540000Y-100560000D01*
X147540000Y-100560000D02*
X154660000Y-100560000D01*
X147540000Y-92840000D02*
X154660000Y-92840000D01*
X147540000Y-99000000D02*
X154660000Y-99000000D01*
X147540000Y-100100000D02*
X154660000Y-100100000D01*
X154530000Y-96000000D02*
G75*
G03X154530000Y-96000000I-1680000J0D01*
G01*
X149378674Y-97680099D02*
G75*
G02X148484000Y-97440000I-28674J1680099D01*
G01*
X147924642Y-96889894D02*
G75*
G02X147910000Y-95134000I1425358J889894D01*
G01*
X148460106Y-94574642D02*
G75*
G02X150216000Y-94560000I889894J-1425358D01*
G01*
X150775505Y-95109807D02*
G75*
G02X150775000Y-96891000I-1425505J-890193D01*
G01*
X150240264Y-97424721D02*
G75*
G02X149350000Y-97680000I-890264J1424721D01*
G01*
X130928000Y-100800000D02*
X131328000Y-100800000D01*
X130928000Y-100160000D02*
X130928000Y-100800000D01*
X135333000Y-96941000D02*
X135204000Y-97069000D01*
X137548000Y-94725000D02*
X137454000Y-94819000D01*
X135503000Y-97181000D02*
X135409000Y-97274000D01*
X137753000Y-94931000D02*
X137624000Y-95059000D01*
X138288000Y-92840000D02*
X138288000Y-100560000D01*
X131168000Y-92840000D02*
X131168000Y-100560000D01*
X131168000Y-100560000D02*
X138288000Y-100560000D01*
X131168000Y-92840000D02*
X138288000Y-92840000D01*
X131168000Y-99000000D02*
X138288000Y-99000000D01*
X131168000Y-100100000D02*
X138288000Y-100100000D01*
X138158000Y-96000000D02*
G75*
G03X138158000Y-96000000I-1680000J0D01*
G01*
X133006674Y-97680099D02*
G75*
G02X132112000Y-97440000I-28674J1680099D01*
G01*
X131552642Y-96889894D02*
G75*
G02X131538000Y-95134000I1425358J889894D01*
G01*
X132088106Y-94574642D02*
G75*
G02X133844000Y-94560000I889894J-1425358D01*
G01*
X134403505Y-95109807D02*
G75*
G02X134403000Y-96891000I-1425505J-890193D01*
G01*
X133868264Y-97424721D02*
G75*
G02X132978000Y-97680000I-890264J1424721D01*
G01*
X150560000Y-71880000D02*
X149100000Y-71880000D01*
X150560000Y-68720000D02*
X148400000Y-68720000D01*
X150560000Y-68720000D02*
X150560000Y-69650000D01*
X150560000Y-71880000D02*
X150560000Y-70950000D01*
X150560000Y-84080000D02*
X149100000Y-84080000D01*
X150560000Y-80920000D02*
X148400000Y-80920000D01*
X150560000Y-80920000D02*
X150560000Y-81850000D01*
X150560000Y-84080000D02*
X150560000Y-83150000D01*
X140320000Y-90422000D02*
X140320000Y-88962000D01*
X143480000Y-90422000D02*
X143480000Y-88262000D01*
X143480000Y-90422000D02*
X142550000Y-90422000D01*
X140320000Y-90422000D02*
X141250000Y-90422000D01*
X126620000Y-91438000D02*
X126620000Y-89978000D01*
X129780000Y-91438000D02*
X129780000Y-89278000D01*
X129780000Y-91438000D02*
X128850000Y-91438000D01*
X126620000Y-91438000D02*
X127550000Y-91438000D01*
X150560000Y-77980000D02*
X149100000Y-77980000D01*
X150560000Y-74820000D02*
X148400000Y-74820000D01*
X150560000Y-74820000D02*
X150560000Y-75750000D01*
X150560000Y-77980000D02*
X150560000Y-77050000D01*
X147010000Y-90676000D02*
X147010000Y-89216000D01*
X150170000Y-90676000D02*
X150170000Y-88516000D01*
X150170000Y-90676000D02*
X149240000Y-90676000D01*
X147010000Y-90676000D02*
X147940000Y-90676000D01*
X133020000Y-91260000D02*
X133020000Y-89800000D01*
X136180000Y-91260000D02*
X136180000Y-89100000D01*
X136180000Y-91260000D02*
X135250000Y-91260000D01*
X133020000Y-91260000D02*
X133950000Y-91260000D01*
X120220000Y-90168000D02*
X120220000Y-88708000D01*
X123380000Y-90168000D02*
X123380000Y-88008000D01*
X123380000Y-90168000D02*
X122450000Y-90168000D01*
X120220000Y-90168000D02*
X121150000Y-90168000D01*
X146950000Y-72300000D02*
X150850000Y-72300000D01*
X146950000Y-74300000D02*
X150850000Y-74300000D01*
X146950000Y-72300000D02*
X146950000Y-74300000D01*
X146950000Y-84500000D02*
X150850000Y-84500000D01*
X146950000Y-86500000D02*
X150850000Y-86500000D01*
X146950000Y-84500000D02*
X146950000Y-86500000D01*
X139900000Y-87750000D02*
X139900000Y-91650000D01*
X137900000Y-87750000D02*
X137900000Y-91650000D01*
X139900000Y-87750000D02*
X137900000Y-87750000D01*
X126200000Y-86634000D02*
X126200000Y-90534000D01*
X124200000Y-86634000D02*
X124200000Y-90534000D01*
X126200000Y-86634000D02*
X124200000Y-86634000D01*
X147050000Y-78400000D02*
X150950000Y-78400000D01*
X147050000Y-80400000D02*
X150950000Y-80400000D01*
X147050000Y-78400000D02*
X147050000Y-80400000D01*
X146288000Y-85634000D02*
X146288000Y-89534000D01*
X144288000Y-85634000D02*
X144288000Y-89534000D01*
X146288000Y-85634000D02*
X144288000Y-85634000D01*
X132500000Y-87650000D02*
X132500000Y-91550000D01*
X130500000Y-87650000D02*
X130500000Y-91550000D01*
X132500000Y-87650000D02*
X130500000Y-87650000D01*
X119800000Y-86634000D02*
X119800000Y-90534000D01*
X117800000Y-86634000D02*
X117800000Y-90534000D01*
X119800000Y-86634000D02*
X117800000Y-86634000D01*
X108400000Y-71050000D02*
X108400000Y-67150000D01*
X110400000Y-71050000D02*
X110400000Y-67150000D01*
X108400000Y-71050000D02*
X110400000Y-71050000D01*
X117550000Y-82000000D02*
X113650000Y-82000000D01*
X117550000Y-80000000D02*
X113650000Y-80000000D01*
X117550000Y-82000000D02*
X117550000Y-80000000D01*
X114650000Y-100800000D02*
X115050000Y-100800000D01*
X114650000Y-100160000D02*
X114650000Y-100800000D01*
X119055000Y-96941000D02*
X118926000Y-97069000D01*
X121270000Y-94725000D02*
X121176000Y-94819000D01*
X119225000Y-97181000D02*
X119131000Y-97274000D01*
X121475000Y-94931000D02*
X121346000Y-95059000D01*
X122010000Y-92840000D02*
X122010000Y-100560000D01*
X114890000Y-92840000D02*
X114890000Y-100560000D01*
X114890000Y-100560000D02*
X122010000Y-100560000D01*
X114890000Y-92840000D02*
X122010000Y-92840000D01*
X114890000Y-99000000D02*
X122010000Y-99000000D01*
X114890000Y-100100000D02*
X122010000Y-100100000D01*
X121880000Y-96000000D02*
G75*
G03X121880000Y-96000000I-1680000J0D01*
G01*
X116728674Y-97680099D02*
G75*
G02X115834000Y-97440000I-28674J1680099D01*
G01*
X115274642Y-96889894D02*
G75*
G02X115260000Y-95134000I1425358J889894D01*
G01*
X115810106Y-94574642D02*
G75*
G02X117566000Y-94560000I889894J-1425358D01*
G01*
X118125505Y-95109807D02*
G75*
G02X118125000Y-96891000I-1425505J-890193D01*
G01*
X117590264Y-97424721D02*
G75*
G02X116700000Y-97680000I-890264J1424721D01*
G01*
X104200000Y-71350000D02*
X104200000Y-71750000D01*
X104840000Y-71350000D02*
X104200000Y-71350000D01*
X108059000Y-75755000D02*
X107931000Y-75626000D01*
X110275000Y-77970000D02*
X110181000Y-77876000D01*
X107819000Y-75925000D02*
X107726000Y-75831000D01*
X110069000Y-78175000D02*
X109941000Y-78046000D01*
X112160000Y-78710000D02*
X104440000Y-78710000D01*
X112160000Y-71590000D02*
X104440000Y-71590000D01*
X104440000Y-71590000D02*
X104440000Y-78710000D01*
X112160000Y-71590000D02*
X112160000Y-78710000D01*
X106000000Y-71590000D02*
X106000000Y-78710000D01*
X104900000Y-71590000D02*
X104900000Y-78710000D01*
X110680000Y-76900000D02*
G75*
G03X110680000Y-76900000I-1680000J0D01*
G01*
X107319901Y-73428674D02*
G75*
G02X107560000Y-72534000I1680099J28674D01*
G01*
X108110106Y-71974642D02*
G75*
G02X109866000Y-71960000I889894J-1425358D01*
G01*
X110425358Y-72510106D02*
G75*
G02X110440000Y-74266000I-1425358J-889894D01*
G01*
X109890193Y-74825505D02*
G75*
G02X108109000Y-74825000I-890193J1425505D01*
G01*
X107575279Y-74290264D02*
G75*
G02X107320000Y-73400000I1424721J890264D01*
G01*
X107722500Y-64340000D02*
X107272500Y-64340000D01*
X107722500Y-64340000D02*
X107722500Y-64790000D01*
X107172500Y-69940000D02*
X107172500Y-69490000D01*
X105322500Y-69940000D02*
X107172500Y-69940000D01*
X102772500Y-62140000D02*
X103022500Y-62140000D01*
X102772500Y-69940000D02*
X103022500Y-69940000D01*
X105322500Y-62140000D02*
X107172500Y-62140000D01*
X107172500Y-62140000D02*
X107172500Y-62590000D01*
X125246000Y-60913000D02*
X124866000Y-60913000D01*
X125246000Y-54493000D02*
X125246000Y-60913000D01*
X143486000Y-54493000D02*
X143486000Y-60913000D01*
X125246000Y-54493000D02*
X143486000Y-54493000D01*
X143486000Y-80238000D02*
X142486000Y-80238000D01*
X143486000Y-79458000D02*
X143486000Y-80238000D01*
X125246000Y-80238000D02*
X126246000Y-80238000D01*
X125246000Y-79458000D02*
X125246000Y-80238000D01*
X112269000Y-63930000D02*
X111794000Y-63930000D01*
X116014000Y-68150000D02*
X116014000Y-67675000D01*
X115539000Y-68150000D02*
X116014000Y-68150000D01*
X111794000Y-68150000D02*
X111794000Y-67675000D01*
X112269000Y-68150000D02*
X111794000Y-68150000D01*
X116014000Y-63930000D02*
X116014000Y-64405000D01*
X115539000Y-63930000D02*
X116014000Y-63930000D01*
X113200000Y-72390000D02*
X119210000Y-72390000D01*
X115450000Y-79210000D02*
X119210000Y-79210000D01*
X119210000Y-72390000D02*
X119210000Y-73650000D01*
X119210000Y-79210000D02*
X119210000Y-77950000D01*
X121918000Y-71430000D02*
X120458000Y-71430000D01*
X121918000Y-68270000D02*
X119758000Y-68270000D01*
X121918000Y-68270000D02*
X121918000Y-69200000D01*
X121918000Y-71430000D02*
X121918000Y-70500000D01*
X121918000Y-67620000D02*
X120458000Y-67620000D01*
X121918000Y-64460000D02*
X119758000Y-64460000D01*
X121918000Y-64460000D02*
X121918000Y-65390000D01*
X121918000Y-67620000D02*
X121918000Y-66690000D01*
X117762779Y-70790000D02*
X117437221Y-70790000D01*
X117762779Y-71810000D02*
X117437221Y-71810000D01*
X118090000Y-81137221D02*
X118090000Y-81462779D01*
X119110000Y-81137221D02*
X119110000Y-81462779D01*
X117092000Y-66105721D02*
X117092000Y-66431279D01*
X118112000Y-66105721D02*
X118112000Y-66431279D01*
D10*
X146502380Y-68206857D02*
X146026190Y-68540190D01*
X146502380Y-68778285D02*
X145502380Y-68778285D01*
X145502380Y-68397333D01*
X145550000Y-68302095D01*
X145597619Y-68254476D01*
X145692857Y-68206857D01*
X145835714Y-68206857D01*
X145930952Y-68254476D01*
X145978571Y-68302095D01*
X146026190Y-68397333D01*
X146026190Y-68778285D01*
X145597619Y-67825904D02*
X145550000Y-67778285D01*
X145502380Y-67683047D01*
X145502380Y-67444952D01*
X145550000Y-67349714D01*
X145597619Y-67302095D01*
X145692857Y-67254476D01*
X145788095Y-67254476D01*
X145930952Y-67302095D01*
X146502380Y-67873523D01*
X146502380Y-67254476D01*
X145835714Y-66397333D02*
X146502380Y-66397333D01*
X145454761Y-66635428D02*
X146169047Y-66873523D01*
X146169047Y-66254476D01*
X143756142Y-81324380D02*
X143422809Y-80848190D01*
X143184714Y-81324380D02*
X143184714Y-80324380D01*
X143565666Y-80324380D01*
X143660904Y-80372000D01*
X143708523Y-80419619D01*
X143756142Y-80514857D01*
X143756142Y-80657714D01*
X143708523Y-80752952D01*
X143660904Y-80800571D01*
X143565666Y-80848190D01*
X143184714Y-80848190D01*
X144137095Y-80419619D02*
X144184714Y-80372000D01*
X144279952Y-80324380D01*
X144518047Y-80324380D01*
X144613285Y-80372000D01*
X144660904Y-80419619D01*
X144708523Y-80514857D01*
X144708523Y-80610095D01*
X144660904Y-80752952D01*
X144089476Y-81324380D01*
X144708523Y-81324380D01*
X145041857Y-80324380D02*
X145660904Y-80324380D01*
X145327571Y-80705333D01*
X145470428Y-80705333D01*
X145565666Y-80752952D01*
X145613285Y-80800571D01*
X145660904Y-80895809D01*
X145660904Y-81133904D01*
X145613285Y-81229142D01*
X145565666Y-81276761D01*
X145470428Y-81324380D01*
X145184714Y-81324380D01*
X145089476Y-81276761D01*
X145041857Y-81229142D01*
X144370380Y-87510857D02*
X143894190Y-87844190D01*
X144370380Y-88082285D02*
X143370380Y-88082285D01*
X143370380Y-87701333D01*
X143418000Y-87606095D01*
X143465619Y-87558476D01*
X143560857Y-87510857D01*
X143703714Y-87510857D01*
X143798952Y-87558476D01*
X143846571Y-87606095D01*
X143894190Y-87701333D01*
X143894190Y-88082285D01*
X143465619Y-87129904D02*
X143418000Y-87082285D01*
X143370380Y-86987047D01*
X143370380Y-86748952D01*
X143418000Y-86653714D01*
X143465619Y-86606095D01*
X143560857Y-86558476D01*
X143656095Y-86558476D01*
X143798952Y-86606095D01*
X144370380Y-87177523D01*
X144370380Y-86558476D01*
X143465619Y-86177523D02*
X143418000Y-86129904D01*
X143370380Y-86034666D01*
X143370380Y-85796571D01*
X143418000Y-85701333D01*
X143465619Y-85653714D01*
X143560857Y-85606095D01*
X143656095Y-85606095D01*
X143798952Y-85653714D01*
X144370380Y-86225142D01*
X144370380Y-85606095D01*
X126738142Y-87547380D02*
X126404809Y-87071190D01*
X126166714Y-87547380D02*
X126166714Y-86547380D01*
X126547666Y-86547380D01*
X126642904Y-86595000D01*
X126690523Y-86642619D01*
X126738142Y-86737857D01*
X126738142Y-86880714D01*
X126690523Y-86975952D01*
X126642904Y-87023571D01*
X126547666Y-87071190D01*
X126166714Y-87071190D01*
X127119095Y-86642619D02*
X127166714Y-86595000D01*
X127261952Y-86547380D01*
X127500047Y-86547380D01*
X127595285Y-86595000D01*
X127642904Y-86642619D01*
X127690523Y-86737857D01*
X127690523Y-86833095D01*
X127642904Y-86975952D01*
X127071476Y-87547380D01*
X127690523Y-87547380D01*
X128642904Y-87547380D02*
X128071476Y-87547380D01*
X128357190Y-87547380D02*
X128357190Y-86547380D01*
X128261952Y-86690238D01*
X128166714Y-86785476D01*
X128071476Y-86833095D01*
X145359380Y-77477857D02*
X144883190Y-77811190D01*
X145359380Y-78049285D02*
X144359380Y-78049285D01*
X144359380Y-77668333D01*
X144407000Y-77573095D01*
X144454619Y-77525476D01*
X144549857Y-77477857D01*
X144692714Y-77477857D01*
X144787952Y-77525476D01*
X144835571Y-77573095D01*
X144883190Y-77668333D01*
X144883190Y-78049285D01*
X144454619Y-77096904D02*
X144407000Y-77049285D01*
X144359380Y-76954047D01*
X144359380Y-76715952D01*
X144407000Y-76620714D01*
X144454619Y-76573095D01*
X144549857Y-76525476D01*
X144645095Y-76525476D01*
X144787952Y-76573095D01*
X145359380Y-77144523D01*
X145359380Y-76525476D01*
X144359380Y-75906428D02*
X144359380Y-75811190D01*
X144407000Y-75715952D01*
X144454619Y-75668333D01*
X144549857Y-75620714D01*
X144740333Y-75573095D01*
X144978428Y-75573095D01*
X145168904Y-75620714D01*
X145264142Y-75668333D01*
X145311761Y-75715952D01*
X145359380Y-75811190D01*
X145359380Y-75906428D01*
X145311761Y-76001666D01*
X145264142Y-76049285D01*
X145168904Y-76096904D01*
X144978428Y-76144523D01*
X144740333Y-76144523D01*
X144549857Y-76096904D01*
X144454619Y-76049285D01*
X144407000Y-76001666D01*
X144359380Y-75906428D01*
X140835142Y-83891380D02*
X140501809Y-83415190D01*
X140263714Y-83891380D02*
X140263714Y-82891380D01*
X140644666Y-82891380D01*
X140739904Y-82939000D01*
X140787523Y-82986619D01*
X140835142Y-83081857D01*
X140835142Y-83224714D01*
X140787523Y-83319952D01*
X140739904Y-83367571D01*
X140644666Y-83415190D01*
X140263714Y-83415190D01*
X141787523Y-83891380D02*
X141216095Y-83891380D01*
X141501809Y-83891380D02*
X141501809Y-82891380D01*
X141406571Y-83034238D01*
X141311333Y-83129476D01*
X141216095Y-83177095D01*
X142263714Y-83891380D02*
X142454190Y-83891380D01*
X142549428Y-83843761D01*
X142597047Y-83796142D01*
X142692285Y-83653285D01*
X142739904Y-83462809D01*
X142739904Y-83081857D01*
X142692285Y-82986619D01*
X142644666Y-82939000D01*
X142549428Y-82891380D01*
X142358952Y-82891380D01*
X142263714Y-82939000D01*
X142216095Y-82986619D01*
X142168476Y-83081857D01*
X142168476Y-83319952D01*
X142216095Y-83415190D01*
X142263714Y-83462809D01*
X142358952Y-83510428D01*
X142549428Y-83510428D01*
X142644666Y-83462809D01*
X142692285Y-83415190D01*
X142739904Y-83319952D01*
X136009142Y-86558380D02*
X135675809Y-86082190D01*
X135437714Y-86558380D02*
X135437714Y-85558380D01*
X135818666Y-85558380D01*
X135913904Y-85606000D01*
X135961523Y-85653619D01*
X136009142Y-85748857D01*
X136009142Y-85891714D01*
X135961523Y-85986952D01*
X135913904Y-86034571D01*
X135818666Y-86082190D01*
X135437714Y-86082190D01*
X136961523Y-86558380D02*
X136390095Y-86558380D01*
X136675809Y-86558380D02*
X136675809Y-85558380D01*
X136580571Y-85701238D01*
X136485333Y-85796476D01*
X136390095Y-85844095D01*
X137532952Y-85986952D02*
X137437714Y-85939333D01*
X137390095Y-85891714D01*
X137342476Y-85796476D01*
X137342476Y-85748857D01*
X137390095Y-85653619D01*
X137437714Y-85606000D01*
X137532952Y-85558380D01*
X137723428Y-85558380D01*
X137818666Y-85606000D01*
X137866285Y-85653619D01*
X137913904Y-85748857D01*
X137913904Y-85796476D01*
X137866285Y-85891714D01*
X137818666Y-85939333D01*
X137723428Y-85986952D01*
X137532952Y-85986952D01*
X137437714Y-86034571D01*
X137390095Y-86082190D01*
X137342476Y-86177428D01*
X137342476Y-86367904D01*
X137390095Y-86463142D01*
X137437714Y-86510761D01*
X137532952Y-86558380D01*
X137723428Y-86558380D01*
X137818666Y-86510761D01*
X137866285Y-86463142D01*
X137913904Y-86367904D01*
X137913904Y-86177428D01*
X137866285Y-86082190D01*
X137818666Y-86034571D01*
X137723428Y-85986952D01*
X120515142Y-85642380D02*
X120181809Y-85166190D01*
X119943714Y-85642380D02*
X119943714Y-84642380D01*
X120324666Y-84642380D01*
X120419904Y-84690000D01*
X120467523Y-84737619D01*
X120515142Y-84832857D01*
X120515142Y-84975714D01*
X120467523Y-85070952D01*
X120419904Y-85118571D01*
X120324666Y-85166190D01*
X119943714Y-85166190D01*
X121467523Y-85642380D02*
X120896095Y-85642380D01*
X121181809Y-85642380D02*
X121181809Y-84642380D01*
X121086571Y-84785238D01*
X120991333Y-84880476D01*
X120896095Y-84928095D01*
X121800857Y-84642380D02*
X122467523Y-84642380D01*
X122038952Y-85642380D01*
X112204666Y-58570761D02*
X112347523Y-58618380D01*
X112585619Y-58618380D01*
X112680857Y-58570761D01*
X112728476Y-58523142D01*
X112776095Y-58427904D01*
X112776095Y-58332666D01*
X112728476Y-58237428D01*
X112680857Y-58189809D01*
X112585619Y-58142190D01*
X112395142Y-58094571D01*
X112299904Y-58046952D01*
X112252285Y-57999333D01*
X112204666Y-57904095D01*
X112204666Y-57808857D01*
X112252285Y-57713619D01*
X112299904Y-57666000D01*
X112395142Y-57618380D01*
X112633238Y-57618380D01*
X112776095Y-57666000D01*
X113109428Y-57618380D02*
X113347523Y-58618380D01*
X113538000Y-57904095D01*
X113728476Y-58618380D01*
X113966571Y-57618380D01*
X114871333Y-58618380D02*
X114299904Y-58618380D01*
X114585619Y-58618380D02*
X114585619Y-57618380D01*
X114490380Y-57761238D01*
X114395142Y-57856476D01*
X114299904Y-57904095D01*
X123057142Y-84052380D02*
X122723809Y-83576190D01*
X122485714Y-84052380D02*
X122485714Y-83052380D01*
X122866666Y-83052380D01*
X122961904Y-83100000D01*
X123009523Y-83147619D01*
X123057142Y-83242857D01*
X123057142Y-83385714D01*
X123009523Y-83480952D01*
X122961904Y-83528571D01*
X122866666Y-83576190D01*
X122485714Y-83576190D01*
X124009523Y-84052380D02*
X123438095Y-84052380D01*
X123723809Y-84052380D02*
X123723809Y-83052380D01*
X123628571Y-83195238D01*
X123533333Y-83290476D01*
X123438095Y-83338095D01*
X124866666Y-83052380D02*
X124676190Y-83052380D01*
X124580952Y-83100000D01*
X124533333Y-83147619D01*
X124438095Y-83290476D01*
X124390476Y-83480952D01*
X124390476Y-83861904D01*
X124438095Y-83957142D01*
X124485714Y-84004761D01*
X124580952Y-84052380D01*
X124771428Y-84052380D01*
X124866666Y-84004761D01*
X124914285Y-83957142D01*
X124961904Y-83861904D01*
X124961904Y-83623809D01*
X124914285Y-83528571D01*
X124866666Y-83480952D01*
X124771428Y-83433333D01*
X124580952Y-83433333D01*
X124485714Y-83480952D01*
X124438095Y-83528571D01*
X124390476Y-83623809D01*
X125852380Y-85861904D02*
X126661904Y-85861904D01*
X126757142Y-85814285D01*
X126804761Y-85766666D01*
X126852380Y-85671428D01*
X126852380Y-85480952D01*
X126804761Y-85385714D01*
X126757142Y-85338095D01*
X126661904Y-85290476D01*
X125852380Y-85290476D01*
X126185714Y-84385714D02*
X126852380Y-84385714D01*
X125804761Y-84623809D02*
X126519047Y-84861904D01*
X126519047Y-84242857D01*
X159057142Y-66952380D02*
X158723809Y-66476190D01*
X158485714Y-66952380D02*
X158485714Y-65952380D01*
X158866666Y-65952380D01*
X158961904Y-66000000D01*
X159009523Y-66047619D01*
X159057142Y-66142857D01*
X159057142Y-66285714D01*
X159009523Y-66380952D01*
X158961904Y-66428571D01*
X158866666Y-66476190D01*
X158485714Y-66476190D01*
X160009523Y-66952380D02*
X159438095Y-66952380D01*
X159723809Y-66952380D02*
X159723809Y-65952380D01*
X159628571Y-66095238D01*
X159533333Y-66190476D01*
X159438095Y-66238095D01*
X160914285Y-65952380D02*
X160438095Y-65952380D01*
X160390476Y-66428571D01*
X160438095Y-66380952D01*
X160533333Y-66333333D01*
X160771428Y-66333333D01*
X160866666Y-66380952D01*
X160914285Y-66428571D01*
X160961904Y-66523809D01*
X160961904Y-66761904D01*
X160914285Y-66857142D01*
X160866666Y-66904761D01*
X160771428Y-66952380D01*
X160533333Y-66952380D01*
X160438095Y-66904761D01*
X160390476Y-66857142D01*
X155957142Y-66952380D02*
X155623809Y-66476190D01*
X155385714Y-66952380D02*
X155385714Y-65952380D01*
X155766666Y-65952380D01*
X155861904Y-66000000D01*
X155909523Y-66047619D01*
X155957142Y-66142857D01*
X155957142Y-66285714D01*
X155909523Y-66380952D01*
X155861904Y-66428571D01*
X155766666Y-66476190D01*
X155385714Y-66476190D01*
X156909523Y-66952380D02*
X156338095Y-66952380D01*
X156623809Y-66952380D02*
X156623809Y-65952380D01*
X156528571Y-66095238D01*
X156433333Y-66190476D01*
X156338095Y-66238095D01*
X157766666Y-66285714D02*
X157766666Y-66952380D01*
X157528571Y-65904761D02*
X157290476Y-66619047D01*
X157909523Y-66619047D01*
X152657142Y-66952380D02*
X152323809Y-66476190D01*
X152085714Y-66952380D02*
X152085714Y-65952380D01*
X152466666Y-65952380D01*
X152561904Y-66000000D01*
X152609523Y-66047619D01*
X152657142Y-66142857D01*
X152657142Y-66285714D01*
X152609523Y-66380952D01*
X152561904Y-66428571D01*
X152466666Y-66476190D01*
X152085714Y-66476190D01*
X153609523Y-66952380D02*
X153038095Y-66952380D01*
X153323809Y-66952380D02*
X153323809Y-65952380D01*
X153228571Y-66095238D01*
X153133333Y-66190476D01*
X153038095Y-66238095D01*
X153942857Y-65952380D02*
X154561904Y-65952380D01*
X154228571Y-66333333D01*
X154371428Y-66333333D01*
X154466666Y-66380952D01*
X154514285Y-66428571D01*
X154561904Y-66523809D01*
X154561904Y-66761904D01*
X154514285Y-66857142D01*
X154466666Y-66904761D01*
X154371428Y-66952380D01*
X154085714Y-66952380D01*
X153990476Y-66904761D01*
X153942857Y-66857142D01*
X146957142Y-65752380D02*
X146623809Y-65276190D01*
X146385714Y-65752380D02*
X146385714Y-64752380D01*
X146766666Y-64752380D01*
X146861904Y-64800000D01*
X146909523Y-64847619D01*
X146957142Y-64942857D01*
X146957142Y-65085714D01*
X146909523Y-65180952D01*
X146861904Y-65228571D01*
X146766666Y-65276190D01*
X146385714Y-65276190D01*
X147909523Y-65752380D02*
X147338095Y-65752380D01*
X147623809Y-65752380D02*
X147623809Y-64752380D01*
X147528571Y-64895238D01*
X147433333Y-64990476D01*
X147338095Y-65038095D01*
X148290476Y-64847619D02*
X148338095Y-64800000D01*
X148433333Y-64752380D01*
X148671428Y-64752380D01*
X148766666Y-64800000D01*
X148814285Y-64847619D01*
X148861904Y-64942857D01*
X148861904Y-65038095D01*
X148814285Y-65180952D01*
X148242857Y-65752380D01*
X148861904Y-65752380D01*
X158485714Y-62822380D02*
X158485714Y-61822380D01*
X158723809Y-61822380D01*
X158866666Y-61870000D01*
X158961904Y-61965238D01*
X159009523Y-62060476D01*
X159057142Y-62250952D01*
X159057142Y-62393809D01*
X159009523Y-62584285D01*
X158961904Y-62679523D01*
X158866666Y-62774761D01*
X158723809Y-62822380D01*
X158485714Y-62822380D01*
X160009523Y-62822380D02*
X159438095Y-62822380D01*
X159723809Y-62822380D02*
X159723809Y-61822380D01*
X159628571Y-61965238D01*
X159533333Y-62060476D01*
X159438095Y-62108095D01*
X160866666Y-62155714D02*
X160866666Y-62822380D01*
X160628571Y-61774761D02*
X160390476Y-62489047D01*
X161009523Y-62489047D01*
X155285714Y-62822380D02*
X155285714Y-61822380D01*
X155523809Y-61822380D01*
X155666666Y-61870000D01*
X155761904Y-61965238D01*
X155809523Y-62060476D01*
X155857142Y-62250952D01*
X155857142Y-62393809D01*
X155809523Y-62584285D01*
X155761904Y-62679523D01*
X155666666Y-62774761D01*
X155523809Y-62822380D01*
X155285714Y-62822380D01*
X156809523Y-62822380D02*
X156238095Y-62822380D01*
X156523809Y-62822380D02*
X156523809Y-61822380D01*
X156428571Y-61965238D01*
X156333333Y-62060476D01*
X156238095Y-62108095D01*
X157142857Y-61822380D02*
X157761904Y-61822380D01*
X157428571Y-62203333D01*
X157571428Y-62203333D01*
X157666666Y-62250952D01*
X157714285Y-62298571D01*
X157761904Y-62393809D01*
X157761904Y-62631904D01*
X157714285Y-62727142D01*
X157666666Y-62774761D01*
X157571428Y-62822380D01*
X157285714Y-62822380D01*
X157190476Y-62774761D01*
X157142857Y-62727142D01*
X151985714Y-62822380D02*
X151985714Y-61822380D01*
X152223809Y-61822380D01*
X152366666Y-61870000D01*
X152461904Y-61965238D01*
X152509523Y-62060476D01*
X152557142Y-62250952D01*
X152557142Y-62393809D01*
X152509523Y-62584285D01*
X152461904Y-62679523D01*
X152366666Y-62774761D01*
X152223809Y-62822380D01*
X151985714Y-62822380D01*
X153509523Y-62822380D02*
X152938095Y-62822380D01*
X153223809Y-62822380D02*
X153223809Y-61822380D01*
X153128571Y-61965238D01*
X153033333Y-62060476D01*
X152938095Y-62108095D01*
X153890476Y-61917619D02*
X153938095Y-61870000D01*
X154033333Y-61822380D01*
X154271428Y-61822380D01*
X154366666Y-61870000D01*
X154414285Y-61917619D01*
X154461904Y-62012857D01*
X154461904Y-62108095D01*
X154414285Y-62250952D01*
X153842857Y-62822380D01*
X154461904Y-62822380D01*
X148685714Y-62752380D02*
X148685714Y-61752380D01*
X148923809Y-61752380D01*
X149066666Y-61800000D01*
X149161904Y-61895238D01*
X149209523Y-61990476D01*
X149257142Y-62180952D01*
X149257142Y-62323809D01*
X149209523Y-62514285D01*
X149161904Y-62609523D01*
X149066666Y-62704761D01*
X148923809Y-62752380D01*
X148685714Y-62752380D01*
X150209523Y-62752380D02*
X149638095Y-62752380D01*
X149923809Y-62752380D02*
X149923809Y-61752380D01*
X149828571Y-61895238D01*
X149733333Y-61990476D01*
X149638095Y-62038095D01*
X151161904Y-62752380D02*
X150590476Y-62752380D01*
X150876190Y-62752380D02*
X150876190Y-61752380D01*
X150780952Y-61895238D01*
X150685714Y-61990476D01*
X150590476Y-62038095D01*
X158238095Y-94752380D02*
X158238095Y-93752380D01*
X158238095Y-94228571D02*
X158809523Y-94228571D01*
X158809523Y-94752380D02*
X158809523Y-93752380D01*
X159714285Y-94085714D02*
X159714285Y-94752380D01*
X159476190Y-93704761D02*
X159238095Y-94419047D01*
X159857142Y-94419047D01*
X158238095Y-53752380D02*
X158238095Y-52752380D01*
X158238095Y-53228571D02*
X158809523Y-53228571D01*
X158809523Y-53752380D02*
X158809523Y-52752380D01*
X159190476Y-52752380D02*
X159809523Y-52752380D01*
X159476190Y-53133333D01*
X159619047Y-53133333D01*
X159714285Y-53180952D01*
X159761904Y-53228571D01*
X159809523Y-53323809D01*
X159809523Y-53561904D01*
X159761904Y-53657142D01*
X159714285Y-53704761D01*
X159619047Y-53752380D01*
X159333333Y-53752380D01*
X159238095Y-53704761D01*
X159190476Y-53657142D01*
X113838095Y-91852380D02*
X113838095Y-90852380D01*
X113838095Y-91328571D02*
X114409523Y-91328571D01*
X114409523Y-91852380D02*
X114409523Y-90852380D01*
X114838095Y-90947619D02*
X114885714Y-90900000D01*
X114980952Y-90852380D01*
X115219047Y-90852380D01*
X115314285Y-90900000D01*
X115361904Y-90947619D01*
X115409523Y-91042857D01*
X115409523Y-91138095D01*
X115361904Y-91280952D01*
X114790476Y-91852380D01*
X115409523Y-91852380D01*
X105688095Y-53702380D02*
X105688095Y-52702380D01*
X105688095Y-53178571D02*
X106259523Y-53178571D01*
X106259523Y-53702380D02*
X106259523Y-52702380D01*
X107259523Y-53702380D02*
X106688095Y-53702380D01*
X106973809Y-53702380D02*
X106973809Y-52702380D01*
X106878571Y-52845238D01*
X106783333Y-52940476D01*
X106688095Y-52988095D01*
X142566666Y-91292380D02*
X142566666Y-92006666D01*
X142519047Y-92149523D01*
X142423809Y-92244761D01*
X142280952Y-92292380D01*
X142185714Y-92292380D01*
X143185714Y-91720952D02*
X143090476Y-91673333D01*
X143042857Y-91625714D01*
X142995238Y-91530476D01*
X142995238Y-91482857D01*
X143042857Y-91387619D01*
X143090476Y-91340000D01*
X143185714Y-91292380D01*
X143376190Y-91292380D01*
X143471428Y-91340000D01*
X143519047Y-91387619D01*
X143566666Y-91482857D01*
X143566666Y-91530476D01*
X143519047Y-91625714D01*
X143471428Y-91673333D01*
X143376190Y-91720952D01*
X143185714Y-91720952D01*
X143090476Y-91768571D01*
X143042857Y-91816190D01*
X142995238Y-91911428D01*
X142995238Y-92101904D01*
X143042857Y-92197142D01*
X143090476Y-92244761D01*
X143185714Y-92292380D01*
X143376190Y-92292380D01*
X143471428Y-92244761D01*
X143519047Y-92197142D01*
X143566666Y-92101904D01*
X143566666Y-91911428D01*
X143519047Y-91816190D01*
X143471428Y-91768571D01*
X143376190Y-91720952D01*
X114140476Y-88152380D02*
X114140476Y-88866666D01*
X114092857Y-89009523D01*
X113997619Y-89104761D01*
X113854761Y-89152380D01*
X113759523Y-89152380D01*
X115140476Y-89152380D02*
X114569047Y-89152380D01*
X114854761Y-89152380D02*
X114854761Y-88152380D01*
X114759523Y-88295238D01*
X114664285Y-88390476D01*
X114569047Y-88438095D01*
X115521428Y-88247619D02*
X115569047Y-88200000D01*
X115664285Y-88152380D01*
X115902380Y-88152380D01*
X115997619Y-88200000D01*
X116045238Y-88247619D01*
X116092857Y-88342857D01*
X116092857Y-88438095D01*
X116045238Y-88580952D01*
X115473809Y-89152380D01*
X116092857Y-89152380D01*
X112612380Y-84059523D02*
X113326666Y-84059523D01*
X113469523Y-84107142D01*
X113564761Y-84202380D01*
X113612380Y-84345238D01*
X113612380Y-84440476D01*
X113612380Y-83059523D02*
X113612380Y-83630952D01*
X113612380Y-83345238D02*
X112612380Y-83345238D01*
X112755238Y-83440476D01*
X112850476Y-83535714D01*
X112898095Y-83630952D01*
X113612380Y-82107142D02*
X113612380Y-82678571D01*
X113612380Y-82392857D02*
X112612380Y-82392857D01*
X112755238Y-82488095D01*
X112850476Y-82583333D01*
X112898095Y-82678571D01*
X122626380Y-85002666D02*
X122150190Y-85336000D01*
X122626380Y-85574095D02*
X121626380Y-85574095D01*
X121626380Y-85193142D01*
X121674000Y-85097904D01*
X121721619Y-85050285D01*
X121816857Y-85002666D01*
X121959714Y-85002666D01*
X122054952Y-85050285D01*
X122102571Y-85097904D01*
X122150190Y-85193142D01*
X122150190Y-85574095D01*
X121959714Y-84145523D02*
X122626380Y-84145523D01*
X121578761Y-84383619D02*
X122293047Y-84621714D01*
X122293047Y-84002666D01*
X150582380Y-68709523D02*
X151296666Y-68709523D01*
X151439523Y-68757142D01*
X151534761Y-68852380D01*
X151582380Y-68995238D01*
X151582380Y-69090476D01*
X151582380Y-67709523D02*
X151582380Y-68280952D01*
X151582380Y-67995238D02*
X150582380Y-67995238D01*
X150725238Y-68090476D01*
X150820476Y-68185714D01*
X150868095Y-68280952D01*
X150582380Y-67090476D02*
X150582380Y-66995238D01*
X150630000Y-66900000D01*
X150677619Y-66852380D01*
X150772857Y-66804761D01*
X150963333Y-66757142D01*
X151201428Y-66757142D01*
X151391904Y-66804761D01*
X151487142Y-66852380D01*
X151534761Y-66900000D01*
X151582380Y-66995238D01*
X151582380Y-67090476D01*
X151534761Y-67185714D01*
X151487142Y-67233333D01*
X151391904Y-67280952D01*
X151201428Y-67328571D01*
X150963333Y-67328571D01*
X150772857Y-67280952D01*
X150677619Y-67233333D01*
X150630000Y-67185714D01*
X150582380Y-67090476D01*
X150740380Y-88083333D02*
X151454666Y-88083333D01*
X151597523Y-88130952D01*
X151692761Y-88226190D01*
X151740380Y-88369047D01*
X151740380Y-88464285D01*
X151740380Y-87559523D02*
X151740380Y-87369047D01*
X151692761Y-87273809D01*
X151645142Y-87226190D01*
X151502285Y-87130952D01*
X151311809Y-87083333D01*
X150930857Y-87083333D01*
X150835619Y-87130952D01*
X150788000Y-87178571D01*
X150740380Y-87273809D01*
X150740380Y-87464285D01*
X150788000Y-87559523D01*
X150835619Y-87607142D01*
X150930857Y-87654761D01*
X151168952Y-87654761D01*
X151264190Y-87607142D01*
X151311809Y-87559523D01*
X151359428Y-87464285D01*
X151359428Y-87273809D01*
X151311809Y-87178571D01*
X151264190Y-87130952D01*
X151168952Y-87083333D01*
X122666666Y-91552380D02*
X122666666Y-92266666D01*
X122619047Y-92409523D01*
X122523809Y-92504761D01*
X122380952Y-92552380D01*
X122285714Y-92552380D01*
X123047619Y-91552380D02*
X123714285Y-91552380D01*
X123285714Y-92552380D01*
X150740380Y-81433333D02*
X151454666Y-81433333D01*
X151597523Y-81480952D01*
X151692761Y-81576190D01*
X151740380Y-81719047D01*
X151740380Y-81814285D01*
X150740380Y-80528571D02*
X150740380Y-80719047D01*
X150788000Y-80814285D01*
X150835619Y-80861904D01*
X150978476Y-80957142D01*
X151168952Y-81004761D01*
X151549904Y-81004761D01*
X151645142Y-80957142D01*
X151692761Y-80909523D01*
X151740380Y-80814285D01*
X151740380Y-80623809D01*
X151692761Y-80528571D01*
X151645142Y-80480952D01*
X151549904Y-80433333D01*
X151311809Y-80433333D01*
X151216571Y-80480952D01*
X151168952Y-80528571D01*
X151121333Y-80623809D01*
X151121333Y-80814285D01*
X151168952Y-80909523D01*
X151216571Y-80957142D01*
X151311809Y-81004761D01*
X149272666Y-91654380D02*
X149272666Y-92368666D01*
X149225047Y-92511523D01*
X149129809Y-92606761D01*
X148986952Y-92654380D01*
X148891714Y-92654380D01*
X150225047Y-91654380D02*
X149748857Y-91654380D01*
X149701238Y-92130571D01*
X149748857Y-92082952D01*
X149844095Y-92035333D01*
X150082190Y-92035333D01*
X150177428Y-92082952D01*
X150225047Y-92130571D01*
X150272666Y-92225809D01*
X150272666Y-92463904D01*
X150225047Y-92559142D01*
X150177428Y-92606761D01*
X150082190Y-92654380D01*
X149844095Y-92654380D01*
X149748857Y-92606761D01*
X149701238Y-92559142D01*
X131866666Y-93152380D02*
X131866666Y-93866666D01*
X131819047Y-94009523D01*
X131723809Y-94104761D01*
X131580952Y-94152380D01*
X131485714Y-94152380D01*
X132771428Y-93485714D02*
X132771428Y-94152380D01*
X132533333Y-93104761D02*
X132295238Y-93819047D01*
X132914285Y-93819047D01*
X148526571Y-68365619D02*
X148431333Y-68318000D01*
X148336095Y-68222761D01*
X148193238Y-68079904D01*
X148098000Y-68032285D01*
X148002761Y-68032285D01*
X148050380Y-68270380D02*
X147955142Y-68222761D01*
X147859904Y-68127523D01*
X147812285Y-67937047D01*
X147812285Y-67603714D01*
X147859904Y-67413238D01*
X147955142Y-67318000D01*
X148050380Y-67270380D01*
X148240857Y-67270380D01*
X148336095Y-67318000D01*
X148431333Y-67413238D01*
X148478952Y-67603714D01*
X148478952Y-67937047D01*
X148431333Y-68127523D01*
X148336095Y-68222761D01*
X148240857Y-68270380D01*
X148050380Y-68270380D01*
X149431333Y-68270380D02*
X148859904Y-68270380D01*
X149145619Y-68270380D02*
X149145619Y-67270380D01*
X149050380Y-67413238D01*
X148955142Y-67508476D01*
X148859904Y-67556095D01*
X150050380Y-67270380D02*
X150145619Y-67270380D01*
X150240857Y-67318000D01*
X150288476Y-67365619D01*
X150336095Y-67460857D01*
X150383714Y-67651333D01*
X150383714Y-67889428D01*
X150336095Y-68079904D01*
X150288476Y-68175142D01*
X150240857Y-68222761D01*
X150145619Y-68270380D01*
X150050380Y-68270380D01*
X149955142Y-68222761D01*
X149907523Y-68175142D01*
X149859904Y-68079904D01*
X149812285Y-67889428D01*
X149812285Y-67651333D01*
X149859904Y-67460857D01*
X149907523Y-67365619D01*
X149955142Y-67318000D01*
X150050380Y-67270380D01*
X151447619Y-80095238D02*
X151400000Y-80190476D01*
X151304761Y-80285714D01*
X151161904Y-80428571D01*
X151114285Y-80523809D01*
X151114285Y-80619047D01*
X151352380Y-80571428D02*
X151304761Y-80666666D01*
X151209523Y-80761904D01*
X151019047Y-80809523D01*
X150685714Y-80809523D01*
X150495238Y-80761904D01*
X150400000Y-80666666D01*
X150352380Y-80571428D01*
X150352380Y-80380952D01*
X150400000Y-80285714D01*
X150495238Y-80190476D01*
X150685714Y-80142857D01*
X151019047Y-80142857D01*
X151209523Y-80190476D01*
X151304761Y-80285714D01*
X151352380Y-80380952D01*
X151352380Y-80571428D01*
X151352380Y-79666666D02*
X151352380Y-79476190D01*
X151304761Y-79380952D01*
X151257142Y-79333333D01*
X151114285Y-79238095D01*
X150923809Y-79190476D01*
X150542857Y-79190476D01*
X150447619Y-79238095D01*
X150400000Y-79285714D01*
X150352380Y-79380952D01*
X150352380Y-79571428D01*
X150400000Y-79666666D01*
X150447619Y-79714285D01*
X150542857Y-79761904D01*
X150780952Y-79761904D01*
X150876190Y-79714285D01*
X150923809Y-79666666D01*
X150971428Y-79571428D01*
X150971428Y-79380952D01*
X150923809Y-79285714D01*
X150876190Y-79238095D01*
X150780952Y-79190476D01*
X144947619Y-89757238D02*
X144900000Y-89852476D01*
X144804761Y-89947714D01*
X144661904Y-90090571D01*
X144614285Y-90185809D01*
X144614285Y-90281047D01*
X144852380Y-90233428D02*
X144804761Y-90328666D01*
X144709523Y-90423904D01*
X144519047Y-90471523D01*
X144185714Y-90471523D01*
X143995238Y-90423904D01*
X143900000Y-90328666D01*
X143852380Y-90233428D01*
X143852380Y-90042952D01*
X143900000Y-89947714D01*
X143995238Y-89852476D01*
X144185714Y-89804857D01*
X144519047Y-89804857D01*
X144709523Y-89852476D01*
X144804761Y-89947714D01*
X144852380Y-90042952D01*
X144852380Y-90233428D01*
X144280952Y-89233428D02*
X144233333Y-89328666D01*
X144185714Y-89376285D01*
X144090476Y-89423904D01*
X144042857Y-89423904D01*
X143947619Y-89376285D01*
X143900000Y-89328666D01*
X143852380Y-89233428D01*
X143852380Y-89042952D01*
X143900000Y-88947714D01*
X143947619Y-88900095D01*
X144042857Y-88852476D01*
X144090476Y-88852476D01*
X144185714Y-88900095D01*
X144233333Y-88947714D01*
X144280952Y-89042952D01*
X144280952Y-89233428D01*
X144328571Y-89328666D01*
X144376190Y-89376285D01*
X144471428Y-89423904D01*
X144661904Y-89423904D01*
X144757142Y-89376285D01*
X144804761Y-89328666D01*
X144852380Y-89233428D01*
X144852380Y-89042952D01*
X144804761Y-88947714D01*
X144757142Y-88900095D01*
X144661904Y-88852476D01*
X144471428Y-88852476D01*
X144376190Y-88900095D01*
X144328571Y-88947714D01*
X144280952Y-89042952D01*
X127547619Y-91535238D02*
X127500000Y-91630476D01*
X127404761Y-91725714D01*
X127261904Y-91868571D01*
X127214285Y-91963809D01*
X127214285Y-92059047D01*
X127452380Y-92011428D02*
X127404761Y-92106666D01*
X127309523Y-92201904D01*
X127119047Y-92249523D01*
X126785714Y-92249523D01*
X126595238Y-92201904D01*
X126500000Y-92106666D01*
X126452380Y-92011428D01*
X126452380Y-91820952D01*
X126500000Y-91725714D01*
X126595238Y-91630476D01*
X126785714Y-91582857D01*
X127119047Y-91582857D01*
X127309523Y-91630476D01*
X127404761Y-91725714D01*
X127452380Y-91820952D01*
X127452380Y-92011428D01*
X126452380Y-91249523D02*
X126452380Y-90582857D01*
X127452380Y-91011428D01*
X148121619Y-75279238D02*
X148074000Y-75374476D01*
X147978761Y-75469714D01*
X147835904Y-75612571D01*
X147788285Y-75707809D01*
X147788285Y-75803047D01*
X148026380Y-75755428D02*
X147978761Y-75850666D01*
X147883523Y-75945904D01*
X147693047Y-75993523D01*
X147359714Y-75993523D01*
X147169238Y-75945904D01*
X147074000Y-75850666D01*
X147026380Y-75755428D01*
X147026380Y-75564952D01*
X147074000Y-75469714D01*
X147169238Y-75374476D01*
X147359714Y-75326857D01*
X147693047Y-75326857D01*
X147883523Y-75374476D01*
X147978761Y-75469714D01*
X148026380Y-75564952D01*
X148026380Y-75755428D01*
X147026380Y-74469714D02*
X147026380Y-74660190D01*
X147074000Y-74755428D01*
X147121619Y-74803047D01*
X147264476Y-74898285D01*
X147454952Y-74945904D01*
X147835904Y-74945904D01*
X147931142Y-74898285D01*
X147978761Y-74850666D01*
X148026380Y-74755428D01*
X148026380Y-74564952D01*
X147978761Y-74469714D01*
X147931142Y-74422095D01*
X147835904Y-74374476D01*
X147597809Y-74374476D01*
X147502571Y-74422095D01*
X147454952Y-74469714D01*
X147407333Y-74564952D01*
X147407333Y-74755428D01*
X147454952Y-74850666D01*
X147502571Y-74898285D01*
X147597809Y-74945904D01*
X146851619Y-91535238D02*
X146804000Y-91630476D01*
X146708761Y-91725714D01*
X146565904Y-91868571D01*
X146518285Y-91963809D01*
X146518285Y-92059047D01*
X146756380Y-92011428D02*
X146708761Y-92106666D01*
X146613523Y-92201904D01*
X146423047Y-92249523D01*
X146089714Y-92249523D01*
X145899238Y-92201904D01*
X145804000Y-92106666D01*
X145756380Y-92011428D01*
X145756380Y-91820952D01*
X145804000Y-91725714D01*
X145899238Y-91630476D01*
X146089714Y-91582857D01*
X146423047Y-91582857D01*
X146613523Y-91630476D01*
X146708761Y-91725714D01*
X146756380Y-91820952D01*
X146756380Y-92011428D01*
X145756380Y-90678095D02*
X145756380Y-91154285D01*
X146232571Y-91201904D01*
X146184952Y-91154285D01*
X146137333Y-91059047D01*
X146137333Y-90820952D01*
X146184952Y-90725714D01*
X146232571Y-90678095D01*
X146327809Y-90630476D01*
X146565904Y-90630476D01*
X146661142Y-90678095D01*
X146708761Y-90725714D01*
X146756380Y-90820952D01*
X146756380Y-91059047D01*
X146708761Y-91154285D01*
X146661142Y-91201904D01*
X136437619Y-87725238D02*
X136390000Y-87820476D01*
X136294761Y-87915714D01*
X136151904Y-88058571D01*
X136104285Y-88153809D01*
X136104285Y-88249047D01*
X136342380Y-88201428D02*
X136294761Y-88296666D01*
X136199523Y-88391904D01*
X136009047Y-88439523D01*
X135675714Y-88439523D01*
X135485238Y-88391904D01*
X135390000Y-88296666D01*
X135342380Y-88201428D01*
X135342380Y-88010952D01*
X135390000Y-87915714D01*
X135485238Y-87820476D01*
X135675714Y-87772857D01*
X136009047Y-87772857D01*
X136199523Y-87820476D01*
X136294761Y-87915714D01*
X136342380Y-88010952D01*
X136342380Y-88201428D01*
X135675714Y-86915714D02*
X136342380Y-86915714D01*
X135294761Y-87153809D02*
X136009047Y-87391904D01*
X136009047Y-86772857D01*
X152185619Y-83661238D02*
X152138000Y-83756476D01*
X152042761Y-83851714D01*
X151899904Y-83994571D01*
X151852285Y-84089809D01*
X151852285Y-84185047D01*
X152090380Y-84137428D02*
X152042761Y-84232666D01*
X151947523Y-84327904D01*
X151757047Y-84375523D01*
X151423714Y-84375523D01*
X151233238Y-84327904D01*
X151138000Y-84232666D01*
X151090380Y-84137428D01*
X151090380Y-83946952D01*
X151138000Y-83851714D01*
X151233238Y-83756476D01*
X151423714Y-83708857D01*
X151757047Y-83708857D01*
X151947523Y-83756476D01*
X152042761Y-83851714D01*
X152090380Y-83946952D01*
X152090380Y-84137428D01*
X151090380Y-83375523D02*
X151090380Y-82756476D01*
X151471333Y-83089809D01*
X151471333Y-82946952D01*
X151518952Y-82851714D01*
X151566571Y-82804095D01*
X151661809Y-82756476D01*
X151899904Y-82756476D01*
X151995142Y-82804095D01*
X152042761Y-82851714D01*
X152090380Y-82946952D01*
X152090380Y-83232666D01*
X152042761Y-83327904D01*
X151995142Y-83375523D01*
X146604380Y-74514285D02*
X145604380Y-74514285D01*
X145604380Y-74276190D01*
X145652000Y-74133333D01*
X145747238Y-74038095D01*
X145842476Y-73990476D01*
X146032952Y-73942857D01*
X146175809Y-73942857D01*
X146366285Y-73990476D01*
X146461523Y-74038095D01*
X146556761Y-74133333D01*
X146604380Y-74276190D01*
X146604380Y-74514285D01*
X146604380Y-72990476D02*
X146604380Y-73561904D01*
X146604380Y-73276190D02*
X145604380Y-73276190D01*
X145747238Y-73371428D01*
X145842476Y-73466666D01*
X145890095Y-73561904D01*
X145604380Y-72371428D02*
X145604380Y-72276190D01*
X145652000Y-72180952D01*
X145699619Y-72133333D01*
X145794857Y-72085714D01*
X145985333Y-72038095D01*
X146223428Y-72038095D01*
X146413904Y-72085714D01*
X146509142Y-72133333D01*
X146556761Y-72180952D01*
X146604380Y-72276190D01*
X146604380Y-72371428D01*
X146556761Y-72466666D01*
X146509142Y-72514285D01*
X146413904Y-72561904D01*
X146223428Y-72609523D01*
X145985333Y-72609523D01*
X145794857Y-72561904D01*
X145699619Y-72514285D01*
X145652000Y-72466666D01*
X145604380Y-72371428D01*
X150477380Y-88013095D02*
X149477380Y-88013095D01*
X149477380Y-87775000D01*
X149525000Y-87632142D01*
X149620238Y-87536904D01*
X149715476Y-87489285D01*
X149905952Y-87441666D01*
X150048809Y-87441666D01*
X150239285Y-87489285D01*
X150334523Y-87536904D01*
X150429761Y-87632142D01*
X150477380Y-87775000D01*
X150477380Y-88013095D01*
X150477380Y-86965476D02*
X150477380Y-86775000D01*
X150429761Y-86679761D01*
X150382142Y-86632142D01*
X150239285Y-86536904D01*
X150048809Y-86489285D01*
X149667857Y-86489285D01*
X149572619Y-86536904D01*
X149525000Y-86584523D01*
X149477380Y-86679761D01*
X149477380Y-86870238D01*
X149525000Y-86965476D01*
X149572619Y-87013095D01*
X149667857Y-87060714D01*
X149905952Y-87060714D01*
X150001190Y-87013095D01*
X150048809Y-86965476D01*
X150096428Y-86870238D01*
X150096428Y-86679761D01*
X150048809Y-86584523D01*
X150001190Y-86536904D01*
X149905952Y-86489285D01*
X139606380Y-87436095D02*
X138606380Y-87436095D01*
X138606380Y-87198000D01*
X138654000Y-87055142D01*
X138749238Y-86959904D01*
X138844476Y-86912285D01*
X139034952Y-86864666D01*
X139177809Y-86864666D01*
X139368285Y-86912285D01*
X139463523Y-86959904D01*
X139558761Y-87055142D01*
X139606380Y-87198000D01*
X139606380Y-87436095D01*
X139034952Y-86293238D02*
X138987333Y-86388476D01*
X138939714Y-86436095D01*
X138844476Y-86483714D01*
X138796857Y-86483714D01*
X138701619Y-86436095D01*
X138654000Y-86388476D01*
X138606380Y-86293238D01*
X138606380Y-86102761D01*
X138654000Y-86007523D01*
X138701619Y-85959904D01*
X138796857Y-85912285D01*
X138844476Y-85912285D01*
X138939714Y-85959904D01*
X138987333Y-86007523D01*
X139034952Y-86102761D01*
X139034952Y-86293238D01*
X139082571Y-86388476D01*
X139130190Y-86436095D01*
X139225428Y-86483714D01*
X139415904Y-86483714D01*
X139511142Y-86436095D01*
X139558761Y-86388476D01*
X139606380Y-86293238D01*
X139606380Y-86102761D01*
X139558761Y-86007523D01*
X139511142Y-85959904D01*
X139415904Y-85912285D01*
X139225428Y-85912285D01*
X139130190Y-85959904D01*
X139082571Y-86007523D01*
X139034952Y-86102761D01*
X125652380Y-86320095D02*
X124652380Y-86320095D01*
X124652380Y-86082000D01*
X124700000Y-85939142D01*
X124795238Y-85843904D01*
X124890476Y-85796285D01*
X125080952Y-85748666D01*
X125223809Y-85748666D01*
X125414285Y-85796285D01*
X125509523Y-85843904D01*
X125604761Y-85939142D01*
X125652380Y-86082000D01*
X125652380Y-86320095D01*
X124652380Y-85415333D02*
X124652380Y-84748666D01*
X125652380Y-85177238D01*
X145259904Y-79852380D02*
X145259904Y-78852380D01*
X145498000Y-78852380D01*
X145640857Y-78900000D01*
X145736095Y-78995238D01*
X145783714Y-79090476D01*
X145831333Y-79280952D01*
X145831333Y-79423809D01*
X145783714Y-79614285D01*
X145736095Y-79709523D01*
X145640857Y-79804761D01*
X145498000Y-79852380D01*
X145259904Y-79852380D01*
X146688476Y-78852380D02*
X146498000Y-78852380D01*
X146402761Y-78900000D01*
X146355142Y-78947619D01*
X146259904Y-79090476D01*
X146212285Y-79280952D01*
X146212285Y-79661904D01*
X146259904Y-79757142D01*
X146307523Y-79804761D01*
X146402761Y-79852380D01*
X146593238Y-79852380D01*
X146688476Y-79804761D01*
X146736095Y-79757142D01*
X146783714Y-79661904D01*
X146783714Y-79423809D01*
X146736095Y-79328571D01*
X146688476Y-79280952D01*
X146593238Y-79233333D01*
X146402761Y-79233333D01*
X146307523Y-79280952D01*
X146259904Y-79328571D01*
X146212285Y-79423809D01*
X147391380Y-88114095D02*
X146391380Y-88114095D01*
X146391380Y-87876000D01*
X146439000Y-87733142D01*
X146534238Y-87637904D01*
X146629476Y-87590285D01*
X146819952Y-87542666D01*
X146962809Y-87542666D01*
X147153285Y-87590285D01*
X147248523Y-87637904D01*
X147343761Y-87733142D01*
X147391380Y-87876000D01*
X147391380Y-88114095D01*
X146391380Y-86637904D02*
X146391380Y-87114095D01*
X146867571Y-87161714D01*
X146819952Y-87114095D01*
X146772333Y-87018857D01*
X146772333Y-86780761D01*
X146819952Y-86685523D01*
X146867571Y-86637904D01*
X146962809Y-86590285D01*
X147200904Y-86590285D01*
X147296142Y-86637904D01*
X147343761Y-86685523D01*
X147391380Y-86780761D01*
X147391380Y-87018857D01*
X147343761Y-87114095D01*
X147296142Y-87161714D01*
X132460380Y-87336095D02*
X131460380Y-87336095D01*
X131460380Y-87098000D01*
X131508000Y-86955142D01*
X131603238Y-86859904D01*
X131698476Y-86812285D01*
X131888952Y-86764666D01*
X132031809Y-86764666D01*
X132222285Y-86812285D01*
X132317523Y-86859904D01*
X132412761Y-86955142D01*
X132460380Y-87098000D01*
X132460380Y-87336095D01*
X131793714Y-85907523D02*
X132460380Y-85907523D01*
X131412761Y-86145619D02*
X132127047Y-86383714D01*
X132127047Y-85764666D01*
X119252380Y-86320095D02*
X118252380Y-86320095D01*
X118252380Y-86082000D01*
X118300000Y-85939142D01*
X118395238Y-85843904D01*
X118490476Y-85796285D01*
X118680952Y-85748666D01*
X118823809Y-85748666D01*
X119014285Y-85796285D01*
X119109523Y-85843904D01*
X119204761Y-85939142D01*
X119252380Y-86082000D01*
X119252380Y-86320095D01*
X118252380Y-85415333D02*
X118252380Y-84796285D01*
X118633333Y-85129619D01*
X118633333Y-84986761D01*
X118680952Y-84891523D01*
X118728571Y-84843904D01*
X118823809Y-84796285D01*
X119061904Y-84796285D01*
X119157142Y-84843904D01*
X119204761Y-84891523D01*
X119252380Y-84986761D01*
X119252380Y-85272476D01*
X119204761Y-85367714D01*
X119157142Y-85415333D01*
X109598380Y-66236095D02*
X108598380Y-66236095D01*
X108598380Y-65998000D01*
X108646000Y-65855142D01*
X108741238Y-65759904D01*
X108836476Y-65712285D01*
X109026952Y-65664666D01*
X109169809Y-65664666D01*
X109360285Y-65712285D01*
X109455523Y-65759904D01*
X109550761Y-65855142D01*
X109598380Y-65998000D01*
X109598380Y-66236095D01*
X108693619Y-65283714D02*
X108646000Y-65236095D01*
X108598380Y-65140857D01*
X108598380Y-64902761D01*
X108646000Y-64807523D01*
X108693619Y-64759904D01*
X108788857Y-64712285D01*
X108884095Y-64712285D01*
X109026952Y-64759904D01*
X109598380Y-65331333D01*
X109598380Y-64712285D01*
X114561904Y-83452380D02*
X114561904Y-82452380D01*
X114800000Y-82452380D01*
X114942857Y-82500000D01*
X115038095Y-82595238D01*
X115085714Y-82690476D01*
X115133333Y-82880952D01*
X115133333Y-83023809D01*
X115085714Y-83214285D01*
X115038095Y-83309523D01*
X114942857Y-83404761D01*
X114800000Y-83452380D01*
X114561904Y-83452380D01*
X116085714Y-83452380D02*
X115514285Y-83452380D01*
X115800000Y-83452380D02*
X115800000Y-82452380D01*
X115704761Y-82595238D01*
X115609523Y-82690476D01*
X115514285Y-82738095D01*
X119660666Y-91618380D02*
X119660666Y-92332666D01*
X119613047Y-92475523D01*
X119517809Y-92570761D01*
X119374952Y-92618380D01*
X119279714Y-92618380D01*
X120041619Y-91618380D02*
X120660666Y-91618380D01*
X120327333Y-91999333D01*
X120470190Y-91999333D01*
X120565428Y-92046952D01*
X120613047Y-92094571D01*
X120660666Y-92189809D01*
X120660666Y-92427904D01*
X120613047Y-92523142D01*
X120565428Y-92570761D01*
X120470190Y-92618380D01*
X120184476Y-92618380D01*
X120089238Y-92570761D01*
X120041619Y-92523142D01*
X110992380Y-80027333D02*
X111706666Y-80027333D01*
X111849523Y-80074952D01*
X111944761Y-80170190D01*
X111992380Y-80313047D01*
X111992380Y-80408285D01*
X111992380Y-79027333D02*
X111992380Y-79598761D01*
X111992380Y-79313047D02*
X110992380Y-79313047D01*
X111135238Y-79408285D01*
X111230476Y-79503523D01*
X111278095Y-79598761D01*
X146502380Y-71127857D02*
X146026190Y-71461190D01*
X146502380Y-71699285D02*
X145502380Y-71699285D01*
X145502380Y-71318333D01*
X145550000Y-71223095D01*
X145597619Y-71175476D01*
X145692857Y-71127857D01*
X145835714Y-71127857D01*
X145930952Y-71175476D01*
X145978571Y-71223095D01*
X146026190Y-71318333D01*
X146026190Y-71699285D01*
X146502380Y-70175476D02*
X146502380Y-70746904D01*
X146502380Y-70461190D02*
X145502380Y-70461190D01*
X145645238Y-70556428D01*
X145740476Y-70651666D01*
X145788095Y-70746904D01*
X146502380Y-69223095D02*
X146502380Y-69794523D01*
X146502380Y-69508809D02*
X145502380Y-69508809D01*
X145645238Y-69604047D01*
X145740476Y-69699285D01*
X145788095Y-69794523D01*
X146756380Y-83192857D02*
X146280190Y-83526190D01*
X146756380Y-83764285D02*
X145756380Y-83764285D01*
X145756380Y-83383333D01*
X145804000Y-83288095D01*
X145851619Y-83240476D01*
X145946857Y-83192857D01*
X146089714Y-83192857D01*
X146184952Y-83240476D01*
X146232571Y-83288095D01*
X146280190Y-83383333D01*
X146280190Y-83764285D01*
X146756380Y-82240476D02*
X146756380Y-82811904D01*
X146756380Y-82526190D02*
X145756380Y-82526190D01*
X145899238Y-82621428D01*
X145994476Y-82716666D01*
X146042095Y-82811904D01*
X145756380Y-81621428D02*
X145756380Y-81526190D01*
X145804000Y-81430952D01*
X145851619Y-81383333D01*
X145946857Y-81335714D01*
X146137333Y-81288095D01*
X146375428Y-81288095D01*
X146565904Y-81335714D01*
X146661142Y-81383333D01*
X146708761Y-81430952D01*
X146756380Y-81526190D01*
X146756380Y-81621428D01*
X146708761Y-81716666D01*
X146661142Y-81764285D01*
X146565904Y-81811904D01*
X146375428Y-81859523D01*
X146137333Y-81859523D01*
X145946857Y-81811904D01*
X145851619Y-81764285D01*
X145804000Y-81716666D01*
X145756380Y-81621428D01*
X140971333Y-86134380D02*
X140638000Y-85658190D01*
X140399904Y-86134380D02*
X140399904Y-85134380D01*
X140780857Y-85134380D01*
X140876095Y-85182000D01*
X140923714Y-85229619D01*
X140971333Y-85324857D01*
X140971333Y-85467714D01*
X140923714Y-85562952D01*
X140876095Y-85610571D01*
X140780857Y-85658190D01*
X140399904Y-85658190D01*
X141447523Y-86134380D02*
X141638000Y-86134380D01*
X141733238Y-86086761D01*
X141780857Y-86039142D01*
X141876095Y-85896285D01*
X141923714Y-85705809D01*
X141923714Y-85324857D01*
X141876095Y-85229619D01*
X141828476Y-85182000D01*
X141733238Y-85134380D01*
X141542761Y-85134380D01*
X141447523Y-85182000D01*
X141399904Y-85229619D01*
X141352285Y-85324857D01*
X141352285Y-85562952D01*
X141399904Y-85658190D01*
X141447523Y-85705809D01*
X141542761Y-85753428D01*
X141733238Y-85753428D01*
X141828476Y-85705809D01*
X141876095Y-85658190D01*
X141923714Y-85562952D01*
X130438380Y-89731666D02*
X129962190Y-90065000D01*
X130438380Y-90303095D02*
X129438380Y-90303095D01*
X129438380Y-89922142D01*
X129486000Y-89826904D01*
X129533619Y-89779285D01*
X129628857Y-89731666D01*
X129771714Y-89731666D01*
X129866952Y-89779285D01*
X129914571Y-89826904D01*
X129962190Y-89922142D01*
X129962190Y-90303095D01*
X129866952Y-89160238D02*
X129819333Y-89255476D01*
X129771714Y-89303095D01*
X129676476Y-89350714D01*
X129628857Y-89350714D01*
X129533619Y-89303095D01*
X129486000Y-89255476D01*
X129438380Y-89160238D01*
X129438380Y-88969761D01*
X129486000Y-88874523D01*
X129533619Y-88826904D01*
X129628857Y-88779285D01*
X129676476Y-88779285D01*
X129771714Y-88826904D01*
X129819333Y-88874523D01*
X129866952Y-88969761D01*
X129866952Y-89160238D01*
X129914571Y-89255476D01*
X129962190Y-89303095D01*
X130057428Y-89350714D01*
X130247904Y-89350714D01*
X130343142Y-89303095D01*
X130390761Y-89255476D01*
X130438380Y-89160238D01*
X130438380Y-88969761D01*
X130390761Y-88874523D01*
X130343142Y-88826904D01*
X130247904Y-88779285D01*
X130057428Y-88779285D01*
X129962190Y-88826904D01*
X129914571Y-88874523D01*
X129866952Y-88969761D01*
X146756380Y-75858666D02*
X146280190Y-76192000D01*
X146756380Y-76430095D02*
X145756380Y-76430095D01*
X145756380Y-76049142D01*
X145804000Y-75953904D01*
X145851619Y-75906285D01*
X145946857Y-75858666D01*
X146089714Y-75858666D01*
X146184952Y-75906285D01*
X146232571Y-75953904D01*
X146280190Y-76049142D01*
X146280190Y-76430095D01*
X145756380Y-75525333D02*
X145756380Y-74858666D01*
X146756380Y-75287238D01*
X143138333Y-85158380D02*
X142805000Y-84682190D01*
X142566904Y-85158380D02*
X142566904Y-84158380D01*
X142947857Y-84158380D01*
X143043095Y-84206000D01*
X143090714Y-84253619D01*
X143138333Y-84348857D01*
X143138333Y-84491714D01*
X143090714Y-84586952D01*
X143043095Y-84634571D01*
X142947857Y-84682190D01*
X142566904Y-84682190D01*
X143995476Y-84158380D02*
X143805000Y-84158380D01*
X143709761Y-84206000D01*
X143662142Y-84253619D01*
X143566904Y-84396476D01*
X143519285Y-84586952D01*
X143519285Y-84967904D01*
X143566904Y-85063142D01*
X143614523Y-85110761D01*
X143709761Y-85158380D01*
X143900238Y-85158380D01*
X143995476Y-85110761D01*
X144043095Y-85063142D01*
X144090714Y-84967904D01*
X144090714Y-84729809D01*
X144043095Y-84634571D01*
X143995476Y-84586952D01*
X143900238Y-84539333D01*
X143709761Y-84539333D01*
X143614523Y-84586952D01*
X143566904Y-84634571D01*
X143519285Y-84729809D01*
X134033333Y-87482380D02*
X133700000Y-87006190D01*
X133461904Y-87482380D02*
X133461904Y-86482380D01*
X133842857Y-86482380D01*
X133938095Y-86530000D01*
X133985714Y-86577619D01*
X134033333Y-86672857D01*
X134033333Y-86815714D01*
X133985714Y-86910952D01*
X133938095Y-86958571D01*
X133842857Y-87006190D01*
X133461904Y-87006190D01*
X134938095Y-86482380D02*
X134461904Y-86482380D01*
X134414285Y-86958571D01*
X134461904Y-86910952D01*
X134557142Y-86863333D01*
X134795238Y-86863333D01*
X134890476Y-86910952D01*
X134938095Y-86958571D01*
X134985714Y-87053809D01*
X134985714Y-87291904D01*
X134938095Y-87387142D01*
X134890476Y-87434761D01*
X134795238Y-87482380D01*
X134557142Y-87482380D01*
X134461904Y-87434761D01*
X134414285Y-87387142D01*
X107974880Y-66373333D02*
X108689166Y-66373333D01*
X108832023Y-66420952D01*
X108927261Y-66516190D01*
X108974880Y-66659047D01*
X108974880Y-66754285D01*
X108070119Y-65944761D02*
X108022500Y-65897142D01*
X107974880Y-65801904D01*
X107974880Y-65563809D01*
X108022500Y-65468571D01*
X108070119Y-65420952D01*
X108165357Y-65373333D01*
X108260595Y-65373333D01*
X108403452Y-65420952D01*
X108974880Y-65992380D01*
X108974880Y-65373333D01*
X123208380Y-79549904D02*
X124017904Y-79549904D01*
X124113142Y-79502285D01*
X124160761Y-79454666D01*
X124208380Y-79359428D01*
X124208380Y-79168952D01*
X124160761Y-79073714D01*
X124113142Y-79026095D01*
X124017904Y-78978476D01*
X123208380Y-78978476D01*
X123208380Y-78597523D02*
X123208380Y-77978476D01*
X123589333Y-78311809D01*
X123589333Y-78168952D01*
X123636952Y-78073714D01*
X123684571Y-78026095D01*
X123779809Y-77978476D01*
X124017904Y-77978476D01*
X124113142Y-78026095D01*
X124160761Y-78073714D01*
X124208380Y-78168952D01*
X124208380Y-78454666D01*
X124160761Y-78549904D01*
X124113142Y-78597523D01*
X109474095Y-64334380D02*
X109474095Y-65143904D01*
X109521714Y-65239142D01*
X109569333Y-65286761D01*
X109664571Y-65334380D01*
X109855047Y-65334380D01*
X109950285Y-65286761D01*
X109997904Y-65239142D01*
X110045523Y-65143904D01*
X110045523Y-64334380D01*
X110474095Y-64429619D02*
X110521714Y-64382000D01*
X110616952Y-64334380D01*
X110855047Y-64334380D01*
X110950285Y-64382000D01*
X110997904Y-64429619D01*
X111045523Y-64524857D01*
X111045523Y-64620095D01*
X110997904Y-64762952D01*
X110426476Y-65334380D01*
X111045523Y-65334380D01*
X119738095Y-72352380D02*
X119738095Y-73161904D01*
X119785714Y-73257142D01*
X119833333Y-73304761D01*
X119928571Y-73352380D01*
X120119047Y-73352380D01*
X120214285Y-73304761D01*
X120261904Y-73257142D01*
X120309523Y-73161904D01*
X120309523Y-72352380D01*
X121309523Y-73352380D02*
X120738095Y-73352380D01*
X121023809Y-73352380D02*
X121023809Y-72352380D01*
X120928571Y-72495238D01*
X120833333Y-72590476D01*
X120738095Y-72638095D01*
X109418380Y-62142666D02*
X108942190Y-62476000D01*
X109418380Y-62714095D02*
X108418380Y-62714095D01*
X108418380Y-62333142D01*
X108466000Y-62237904D01*
X108513619Y-62190285D01*
X108608857Y-62142666D01*
X108751714Y-62142666D01*
X108846952Y-62190285D01*
X108894571Y-62237904D01*
X108942190Y-62333142D01*
X108942190Y-62714095D01*
X108418380Y-61809333D02*
X108418380Y-61190285D01*
X108799333Y-61523619D01*
X108799333Y-61380761D01*
X108846952Y-61285523D01*
X108894571Y-61237904D01*
X108989809Y-61190285D01*
X109227904Y-61190285D01*
X109323142Y-61237904D01*
X109370761Y-61285523D01*
X109418380Y-61380761D01*
X109418380Y-61666476D01*
X109370761Y-61761714D01*
X109323142Y-61809333D01*
X119467333Y-63317380D02*
X119134000Y-62841190D01*
X118895904Y-63317380D02*
X118895904Y-62317380D01*
X119276857Y-62317380D01*
X119372095Y-62365000D01*
X119419714Y-62412619D01*
X119467333Y-62507857D01*
X119467333Y-62650714D01*
X119419714Y-62745952D01*
X119372095Y-62793571D01*
X119276857Y-62841190D01*
X118895904Y-62841190D01*
X119848285Y-62412619D02*
X119895904Y-62365000D01*
X119991142Y-62317380D01*
X120229238Y-62317380D01*
X120324476Y-62365000D01*
X120372095Y-62412619D01*
X120419714Y-62507857D01*
X120419714Y-62603095D01*
X120372095Y-62745952D01*
X119800666Y-63317380D01*
X120419714Y-63317380D01*
X115657333Y-62682380D02*
X115324000Y-62206190D01*
X115085904Y-62682380D02*
X115085904Y-61682380D01*
X115466857Y-61682380D01*
X115562095Y-61730000D01*
X115609714Y-61777619D01*
X115657333Y-61872857D01*
X115657333Y-62015714D01*
X115609714Y-62110952D01*
X115562095Y-62158571D01*
X115466857Y-62206190D01*
X115085904Y-62206190D01*
X116609714Y-62682380D02*
X116038285Y-62682380D01*
X116324000Y-62682380D02*
X116324000Y-61682380D01*
X116228761Y-61825238D01*
X116133523Y-61920476D01*
X116038285Y-61968095D01*
X122078761Y-72683619D02*
X121983523Y-72636000D01*
X121888285Y-72540761D01*
X121745428Y-72397904D01*
X121650190Y-72350285D01*
X121554952Y-72350285D01*
X121602571Y-72588380D02*
X121507333Y-72540761D01*
X121412095Y-72445523D01*
X121364476Y-72255047D01*
X121364476Y-71921714D01*
X121412095Y-71731238D01*
X121507333Y-71636000D01*
X121602571Y-71588380D01*
X121793047Y-71588380D01*
X121888285Y-71636000D01*
X121983523Y-71731238D01*
X122031142Y-71921714D01*
X122031142Y-72255047D01*
X121983523Y-72445523D01*
X121888285Y-72540761D01*
X121793047Y-72588380D01*
X121602571Y-72588380D01*
X122412095Y-71683619D02*
X122459714Y-71636000D01*
X122554952Y-71588380D01*
X122793047Y-71588380D01*
X122888285Y-71636000D01*
X122935904Y-71683619D01*
X122983523Y-71778857D01*
X122983523Y-71874095D01*
X122935904Y-72016952D01*
X122364476Y-72588380D01*
X122983523Y-72588380D01*
X123094761Y-67857619D02*
X122999523Y-67810000D01*
X122904285Y-67714761D01*
X122761428Y-67571904D01*
X122666190Y-67524285D01*
X122570952Y-67524285D01*
X122618571Y-67762380D02*
X122523333Y-67714761D01*
X122428095Y-67619523D01*
X122380476Y-67429047D01*
X122380476Y-67095714D01*
X122428095Y-66905238D01*
X122523333Y-66810000D01*
X122618571Y-66762380D01*
X122809047Y-66762380D01*
X122904285Y-66810000D01*
X122999523Y-66905238D01*
X123047142Y-67095714D01*
X123047142Y-67429047D01*
X122999523Y-67619523D01*
X122904285Y-67714761D01*
X122809047Y-67762380D01*
X122618571Y-67762380D01*
X123999523Y-67762380D02*
X123428095Y-67762380D01*
X123713809Y-67762380D02*
X123713809Y-66762380D01*
X123618571Y-66905238D01*
X123523333Y-67000476D01*
X123428095Y-67048095D01*
X124309142Y-62904666D02*
X124356761Y-62952285D01*
X124404380Y-63095142D01*
X124404380Y-63190380D01*
X124356761Y-63333238D01*
X124261523Y-63428476D01*
X124166285Y-63476095D01*
X123975809Y-63523714D01*
X123832952Y-63523714D01*
X123642476Y-63476095D01*
X123547238Y-63428476D01*
X123452000Y-63333238D01*
X123404380Y-63190380D01*
X123404380Y-63095142D01*
X123452000Y-62952285D01*
X123499619Y-62904666D01*
X123832952Y-62333238D02*
X123785333Y-62428476D01*
X123737714Y-62476095D01*
X123642476Y-62523714D01*
X123594857Y-62523714D01*
X123499619Y-62476095D01*
X123452000Y-62428476D01*
X123404380Y-62333238D01*
X123404380Y-62142761D01*
X123452000Y-62047523D01*
X123499619Y-61999904D01*
X123594857Y-61952285D01*
X123642476Y-61952285D01*
X123737714Y-61999904D01*
X123785333Y-62047523D01*
X123832952Y-62142761D01*
X123832952Y-62333238D01*
X123880571Y-62428476D01*
X123928190Y-62476095D01*
X124023428Y-62523714D01*
X124213904Y-62523714D01*
X124309142Y-62476095D01*
X124356761Y-62428476D01*
X124404380Y-62333238D01*
X124404380Y-62142761D01*
X124356761Y-62047523D01*
X124309142Y-61999904D01*
X124213904Y-61952285D01*
X124023428Y-61952285D01*
X123928190Y-61999904D01*
X123880571Y-62047523D01*
X123832952Y-62142761D01*
X119975333Y-62079142D02*
X119927714Y-62126761D01*
X119784857Y-62174380D01*
X119689619Y-62174380D01*
X119546761Y-62126761D01*
X119451523Y-62031523D01*
X119403904Y-61936285D01*
X119356285Y-61745809D01*
X119356285Y-61602952D01*
X119403904Y-61412476D01*
X119451523Y-61317238D01*
X119546761Y-61222000D01*
X119689619Y-61174380D01*
X119784857Y-61174380D01*
X119927714Y-61222000D01*
X119975333Y-61269619D01*
X120308666Y-61174380D02*
X120975333Y-61174380D01*
X120546761Y-62174380D01*
X113033142Y-62142666D02*
X113080761Y-62190285D01*
X113128380Y-62333142D01*
X113128380Y-62428380D01*
X113080761Y-62571238D01*
X112985523Y-62666476D01*
X112890285Y-62714095D01*
X112699809Y-62761714D01*
X112556952Y-62761714D01*
X112366476Y-62714095D01*
X112271238Y-62666476D01*
X112176000Y-62571238D01*
X112128380Y-62428380D01*
X112128380Y-62333142D01*
X112176000Y-62190285D01*
X112223619Y-62142666D01*
X112128380Y-61285523D02*
X112128380Y-61476000D01*
X112176000Y-61571238D01*
X112223619Y-61618857D01*
X112366476Y-61714095D01*
X112556952Y-61761714D01*
X112937904Y-61761714D01*
X113033142Y-61714095D01*
X113080761Y-61666476D01*
X113128380Y-61571238D01*
X113128380Y-61380761D01*
X113080761Y-61285523D01*
X113033142Y-61237904D01*
X112937904Y-61190285D01*
X112699809Y-61190285D01*
X112604571Y-61237904D01*
X112556952Y-61285523D01*
X112509333Y-61380761D01*
X112509333Y-61571238D01*
X112556952Y-61666476D01*
X112604571Y-61714095D01*
X112699809Y-61761714D01*
X117433333Y-70357142D02*
X117385714Y-70404761D01*
X117242857Y-70452380D01*
X117147619Y-70452380D01*
X117004761Y-70404761D01*
X116909523Y-70309523D01*
X116861904Y-70214285D01*
X116814285Y-70023809D01*
X116814285Y-69880952D01*
X116861904Y-69690476D01*
X116909523Y-69595238D01*
X117004761Y-69500000D01*
X117147619Y-69452380D01*
X117242857Y-69452380D01*
X117385714Y-69500000D01*
X117433333Y-69547619D01*
X118338095Y-69452380D02*
X117861904Y-69452380D01*
X117814285Y-69928571D01*
X117861904Y-69880952D01*
X117957142Y-69833333D01*
X118195238Y-69833333D01*
X118290476Y-69880952D01*
X118338095Y-69928571D01*
X118385714Y-70023809D01*
X118385714Y-70261904D01*
X118338095Y-70357142D01*
X118290476Y-70404761D01*
X118195238Y-70452380D01*
X117957142Y-70452380D01*
X117861904Y-70404761D01*
X117814285Y-70357142D01*
X118957142Y-83752666D02*
X119004761Y-83800285D01*
X119052380Y-83943142D01*
X119052380Y-84038380D01*
X119004761Y-84181238D01*
X118909523Y-84276476D01*
X118814285Y-84324095D01*
X118623809Y-84371714D01*
X118480952Y-84371714D01*
X118290476Y-84324095D01*
X118195238Y-84276476D01*
X118100000Y-84181238D01*
X118052380Y-84038380D01*
X118052380Y-83943142D01*
X118100000Y-83800285D01*
X118147619Y-83752666D01*
X118385714Y-82895523D02*
X119052380Y-82895523D01*
X118004761Y-83133619D02*
X118719047Y-83371714D01*
X118719047Y-82752666D01*
X119389142Y-66435166D02*
X119436761Y-66482785D01*
X119484380Y-66625642D01*
X119484380Y-66720880D01*
X119436761Y-66863738D01*
X119341523Y-66958976D01*
X119246285Y-67006595D01*
X119055809Y-67054214D01*
X118912952Y-67054214D01*
X118722476Y-67006595D01*
X118627238Y-66958976D01*
X118532000Y-66863738D01*
X118484380Y-66720880D01*
X118484380Y-66625642D01*
X118532000Y-66482785D01*
X118579619Y-66435166D01*
X118484380Y-66101833D02*
X118484380Y-65482785D01*
X118865333Y-65816119D01*
X118865333Y-65673261D01*
X118912952Y-65578023D01*
X118960571Y-65530404D01*
X119055809Y-65482785D01*
X119293904Y-65482785D01*
X119389142Y-65530404D01*
X119436761Y-65578023D01*
X119484380Y-65673261D01*
X119484380Y-65958976D01*
X119436761Y-66054214D01*
X119389142Y-66101833D01*
X114857142Y-70666666D02*
X114904761Y-70714285D01*
X114952380Y-70857142D01*
X114952380Y-70952380D01*
X114904761Y-71095238D01*
X114809523Y-71190476D01*
X114714285Y-71238095D01*
X114523809Y-71285714D01*
X114380952Y-71285714D01*
X114190476Y-71238095D01*
X114095238Y-71190476D01*
X114000000Y-71095238D01*
X113952380Y-70952380D01*
X113952380Y-70857142D01*
X114000000Y-70714285D01*
X114047619Y-70666666D01*
X114047619Y-70285714D02*
X114000000Y-70238095D01*
X113952380Y-70142857D01*
X113952380Y-69904761D01*
X114000000Y-69809523D01*
X114047619Y-69761904D01*
X114142857Y-69714285D01*
X114238095Y-69714285D01*
X114380952Y-69761904D01*
X114952380Y-70333333D01*
X114952380Y-69714285D01*
X112013142Y-71766666D02*
X112060761Y-71814285D01*
X112108380Y-71957142D01*
X112108380Y-72052380D01*
X112060761Y-72195238D01*
X111965523Y-72290476D01*
X111870285Y-72338095D01*
X111679809Y-72385714D01*
X111536952Y-72385714D01*
X111346476Y-72338095D01*
X111251238Y-72290476D01*
X111156000Y-72195238D01*
X111108380Y-72052380D01*
X111108380Y-71957142D01*
X111156000Y-71814285D01*
X111203619Y-71766666D01*
X112108380Y-70814285D02*
X112108380Y-71385714D01*
X112108380Y-71100000D02*
X111108380Y-71100000D01*
X111251238Y-71195238D01*
X111346476Y-71290476D01*
X111394095Y-71385714D01*
M02*
