G04 #@! TF.GenerationSoftware,KiCad,Pcbnew,(5.1.4)-1*
G04 #@! TF.CreationDate,2019-11-04T02:00:11+00:00*
G04 #@! TF.ProjectId,light_control,6c696768-745f-4636-9f6e-74726f6c2e6b,rev?*
G04 #@! TF.SameCoordinates,Original*
G04 #@! TF.FileFunction,Soldermask,Top*
G04 #@! TF.FilePolarity,Negative*
%FSLAX46Y46*%
G04 Gerber Fmt 4.6, Leading zero omitted, Abs format (unit mm)*
G04 Created by KiCad (PCBNEW (5.1.4)-1) date 2019-11-04 02:00:11*
%MOMM*%
%LPD*%
G04 APERTURE LIST*
%ADD10C,0.100000*%
G04 APERTURE END LIST*
D10*
G36*
X159375256Y-96891298D02*
G01*
X159481579Y-96912447D01*
X159782042Y-97036903D01*
X160052451Y-97217585D01*
X160282415Y-97447549D01*
X160463097Y-97717958D01*
X160587553Y-98018421D01*
X160651000Y-98337391D01*
X160651000Y-98662609D01*
X160587553Y-98981579D01*
X160463097Y-99282042D01*
X160282415Y-99552451D01*
X160052451Y-99782415D01*
X159782042Y-99963097D01*
X159481579Y-100087553D01*
X159375256Y-100108702D01*
X159162611Y-100151000D01*
X158837389Y-100151000D01*
X158624744Y-100108702D01*
X158518421Y-100087553D01*
X158217958Y-99963097D01*
X157947549Y-99782415D01*
X157717585Y-99552451D01*
X157536903Y-99282042D01*
X157412447Y-98981579D01*
X157349000Y-98662609D01*
X157349000Y-98337391D01*
X157412447Y-98018421D01*
X157536903Y-97717958D01*
X157717585Y-97447549D01*
X157947549Y-97217585D01*
X158217958Y-97036903D01*
X158518421Y-96912447D01*
X158624744Y-96891298D01*
X158837389Y-96849000D01*
X159162611Y-96849000D01*
X159375256Y-96891298D01*
X159375256Y-96891298D01*
G37*
G36*
X106875256Y-96891298D02*
G01*
X106981579Y-96912447D01*
X107282042Y-97036903D01*
X107552451Y-97217585D01*
X107782415Y-97447549D01*
X107963097Y-97717958D01*
X108087553Y-98018421D01*
X108151000Y-98337391D01*
X108151000Y-98662609D01*
X108087553Y-98981579D01*
X107963097Y-99282042D01*
X107782415Y-99552451D01*
X107552451Y-99782415D01*
X107282042Y-99963097D01*
X106981579Y-100087553D01*
X106875256Y-100108702D01*
X106662611Y-100151000D01*
X106337389Y-100151000D01*
X106124744Y-100108702D01*
X106018421Y-100087553D01*
X105717958Y-99963097D01*
X105447549Y-99782415D01*
X105217585Y-99552451D01*
X105036903Y-99282042D01*
X104912447Y-98981579D01*
X104849000Y-98662609D01*
X104849000Y-98337391D01*
X104912447Y-98018421D01*
X105036903Y-97717958D01*
X105217585Y-97447549D01*
X105447549Y-97217585D01*
X105717958Y-97036903D01*
X106018421Y-96912447D01*
X106124744Y-96891298D01*
X106337389Y-96849000D01*
X106662611Y-96849000D01*
X106875256Y-96891298D01*
X106875256Y-96891298D01*
G37*
G36*
X150601000Y-97251000D02*
G01*
X148099000Y-97251000D01*
X148099000Y-94749000D01*
X150601000Y-94749000D01*
X150601000Y-97251000D01*
X150601000Y-97251000D01*
G37*
G36*
X117951000Y-97251000D02*
G01*
X115449000Y-97251000D01*
X115449000Y-94749000D01*
X117951000Y-94749000D01*
X117951000Y-97251000D01*
X117951000Y-97251000D01*
G37*
G36*
X120564903Y-94797075D02*
G01*
X120792571Y-94891378D01*
X120997466Y-95028285D01*
X121171715Y-95202534D01*
X121308622Y-95407429D01*
X121402925Y-95635097D01*
X121451000Y-95876787D01*
X121451000Y-96123213D01*
X121402925Y-96364903D01*
X121308622Y-96592571D01*
X121171715Y-96797466D01*
X120997466Y-96971715D01*
X120792571Y-97108622D01*
X120792570Y-97108623D01*
X120792569Y-97108623D01*
X120564903Y-97202925D01*
X120323214Y-97251000D01*
X120076786Y-97251000D01*
X119835097Y-97202925D01*
X119607431Y-97108623D01*
X119607430Y-97108623D01*
X119607429Y-97108622D01*
X119402534Y-96971715D01*
X119228285Y-96797466D01*
X119091378Y-96592571D01*
X118997075Y-96364903D01*
X118949000Y-96123213D01*
X118949000Y-95876787D01*
X118997075Y-95635097D01*
X119091378Y-95407429D01*
X119228285Y-95202534D01*
X119402534Y-95028285D01*
X119607429Y-94891378D01*
X119835097Y-94797075D01*
X120076786Y-94749000D01*
X120323214Y-94749000D01*
X120564903Y-94797075D01*
X120564903Y-94797075D01*
G37*
G36*
X134229000Y-97251000D02*
G01*
X131727000Y-97251000D01*
X131727000Y-94749000D01*
X134229000Y-94749000D01*
X134229000Y-97251000D01*
X134229000Y-97251000D01*
G37*
G36*
X136842903Y-94797075D02*
G01*
X137070571Y-94891378D01*
X137275466Y-95028285D01*
X137449715Y-95202534D01*
X137586622Y-95407429D01*
X137680925Y-95635097D01*
X137729000Y-95876787D01*
X137729000Y-96123213D01*
X137680925Y-96364903D01*
X137586622Y-96592571D01*
X137449715Y-96797466D01*
X137275466Y-96971715D01*
X137070571Y-97108622D01*
X137070570Y-97108623D01*
X137070569Y-97108623D01*
X136842903Y-97202925D01*
X136601214Y-97251000D01*
X136354786Y-97251000D01*
X136113097Y-97202925D01*
X135885431Y-97108623D01*
X135885430Y-97108623D01*
X135885429Y-97108622D01*
X135680534Y-96971715D01*
X135506285Y-96797466D01*
X135369378Y-96592571D01*
X135275075Y-96364903D01*
X135227000Y-96123213D01*
X135227000Y-95876787D01*
X135275075Y-95635097D01*
X135369378Y-95407429D01*
X135506285Y-95202534D01*
X135680534Y-95028285D01*
X135885429Y-94891378D01*
X136113097Y-94797075D01*
X136354786Y-94749000D01*
X136601214Y-94749000D01*
X136842903Y-94797075D01*
X136842903Y-94797075D01*
G37*
G36*
X153214903Y-94797075D02*
G01*
X153442571Y-94891378D01*
X153647466Y-95028285D01*
X153821715Y-95202534D01*
X153958622Y-95407429D01*
X154052925Y-95635097D01*
X154101000Y-95876787D01*
X154101000Y-96123213D01*
X154052925Y-96364903D01*
X153958622Y-96592571D01*
X153821715Y-96797466D01*
X153647466Y-96971715D01*
X153442571Y-97108622D01*
X153442570Y-97108623D01*
X153442569Y-97108623D01*
X153214903Y-97202925D01*
X152973214Y-97251000D01*
X152726786Y-97251000D01*
X152485097Y-97202925D01*
X152257431Y-97108623D01*
X152257430Y-97108623D01*
X152257429Y-97108622D01*
X152052534Y-96971715D01*
X151878285Y-96797466D01*
X151741378Y-96592571D01*
X151647075Y-96364903D01*
X151599000Y-96123213D01*
X151599000Y-95876787D01*
X151647075Y-95635097D01*
X151741378Y-95407429D01*
X151878285Y-95202534D01*
X152052534Y-95028285D01*
X152257429Y-94891378D01*
X152485097Y-94797075D01*
X152726786Y-94749000D01*
X152973214Y-94749000D01*
X153214903Y-94797075D01*
X153214903Y-94797075D01*
G37*
G36*
X128714903Y-94797075D02*
G01*
X128942571Y-94891378D01*
X129147466Y-95028285D01*
X129321715Y-95202534D01*
X129458622Y-95407429D01*
X129552925Y-95635097D01*
X129601000Y-95876787D01*
X129601000Y-96123213D01*
X129552925Y-96364903D01*
X129458622Y-96592571D01*
X129321715Y-96797466D01*
X129147466Y-96971715D01*
X128942571Y-97108622D01*
X128942570Y-97108623D01*
X128942569Y-97108623D01*
X128714903Y-97202925D01*
X128473214Y-97251000D01*
X128226786Y-97251000D01*
X127985097Y-97202925D01*
X127757431Y-97108623D01*
X127757430Y-97108623D01*
X127757429Y-97108622D01*
X127552534Y-96971715D01*
X127378285Y-96797466D01*
X127241378Y-96592571D01*
X127147075Y-96364903D01*
X127099000Y-96123213D01*
X127099000Y-95876787D01*
X127147075Y-95635097D01*
X127241378Y-95407429D01*
X127378285Y-95202534D01*
X127552534Y-95028285D01*
X127757429Y-94891378D01*
X127985097Y-94797075D01*
X128226786Y-94749000D01*
X128473214Y-94749000D01*
X128714903Y-94797075D01*
X128714903Y-94797075D01*
G37*
G36*
X126101000Y-97251000D02*
G01*
X123599000Y-97251000D01*
X123599000Y-94749000D01*
X126101000Y-94749000D01*
X126101000Y-97251000D01*
X126101000Y-97251000D01*
G37*
G36*
X145014903Y-94797075D02*
G01*
X145242571Y-94891378D01*
X145447466Y-95028285D01*
X145621715Y-95202534D01*
X145758622Y-95407429D01*
X145852925Y-95635097D01*
X145901000Y-95876787D01*
X145901000Y-96123213D01*
X145852925Y-96364903D01*
X145758622Y-96592571D01*
X145621715Y-96797466D01*
X145447466Y-96971715D01*
X145242571Y-97108622D01*
X145242570Y-97108623D01*
X145242569Y-97108623D01*
X145014903Y-97202925D01*
X144773214Y-97251000D01*
X144526786Y-97251000D01*
X144285097Y-97202925D01*
X144057431Y-97108623D01*
X144057430Y-97108623D01*
X144057429Y-97108622D01*
X143852534Y-96971715D01*
X143678285Y-96797466D01*
X143541378Y-96592571D01*
X143447075Y-96364903D01*
X143399000Y-96123213D01*
X143399000Y-95876787D01*
X143447075Y-95635097D01*
X143541378Y-95407429D01*
X143678285Y-95202534D01*
X143852534Y-95028285D01*
X144057429Y-94891378D01*
X144285097Y-94797075D01*
X144526786Y-94749000D01*
X144773214Y-94749000D01*
X145014903Y-94797075D01*
X145014903Y-94797075D01*
G37*
G36*
X142401000Y-97251000D02*
G01*
X139899000Y-97251000D01*
X139899000Y-94749000D01*
X142401000Y-94749000D01*
X142401000Y-97251000D01*
X142401000Y-97251000D01*
G37*
G36*
X106176627Y-90437037D02*
G01*
X106346466Y-90488557D01*
X106502991Y-90572222D01*
X106538729Y-90601552D01*
X106640186Y-90684814D01*
X106723448Y-90786271D01*
X106752778Y-90822009D01*
X106836443Y-90978534D01*
X106887963Y-91148374D01*
X106901000Y-91280743D01*
X106901000Y-91619258D01*
X106887963Y-91751627D01*
X106836443Y-91921466D01*
X106752778Y-92077991D01*
X106723448Y-92113729D01*
X106640186Y-92215186D01*
X106502989Y-92327779D01*
X106346467Y-92411442D01*
X106346465Y-92411443D01*
X106176626Y-92462963D01*
X106000000Y-92480359D01*
X105823373Y-92462963D01*
X105653534Y-92411443D01*
X105497009Y-92327778D01*
X105454750Y-92293097D01*
X105359814Y-92215186D01*
X105247221Y-92077989D01*
X105163558Y-91921467D01*
X105163557Y-91921465D01*
X105112037Y-91751626D01*
X105099000Y-91619257D01*
X105099000Y-91280742D01*
X105112037Y-91148373D01*
X105163557Y-90978534D01*
X105247222Y-90822009D01*
X105359815Y-90684815D01*
X105497010Y-90572222D01*
X105653535Y-90488557D01*
X105823374Y-90437037D01*
X106000000Y-90419641D01*
X106176627Y-90437037D01*
X106176627Y-90437037D01*
G37*
G36*
X108676627Y-90437037D02*
G01*
X108846466Y-90488557D01*
X109002991Y-90572222D01*
X109038729Y-90601552D01*
X109140186Y-90684814D01*
X109223448Y-90786271D01*
X109252778Y-90822009D01*
X109336443Y-90978534D01*
X109387963Y-91148374D01*
X109401000Y-91280743D01*
X109401000Y-91619258D01*
X109387963Y-91751627D01*
X109336443Y-91921466D01*
X109252778Y-92077991D01*
X109223448Y-92113729D01*
X109140186Y-92215186D01*
X109002989Y-92327779D01*
X108846467Y-92411442D01*
X108846465Y-92411443D01*
X108676626Y-92462963D01*
X108500000Y-92480359D01*
X108323373Y-92462963D01*
X108153534Y-92411443D01*
X107997009Y-92327778D01*
X107954750Y-92293097D01*
X107859814Y-92215186D01*
X107747221Y-92077989D01*
X107663558Y-91921467D01*
X107663557Y-91921465D01*
X107612037Y-91751626D01*
X107599000Y-91619257D01*
X107599000Y-91280742D01*
X107612037Y-91148373D01*
X107663557Y-90978534D01*
X107747222Y-90822009D01*
X107859815Y-90684815D01*
X107997010Y-90572222D01*
X108153535Y-90488557D01*
X108323374Y-90437037D01*
X108500000Y-90419641D01*
X108676627Y-90437037D01*
X108676627Y-90437037D01*
G37*
G36*
X111758600Y-90427989D02*
G01*
X111791652Y-90438015D01*
X111822103Y-90454292D01*
X111848799Y-90476201D01*
X111870708Y-90502897D01*
X111886985Y-90533348D01*
X111897011Y-90566400D01*
X111901000Y-90606903D01*
X111901000Y-92293097D01*
X111897011Y-92333600D01*
X111886985Y-92366652D01*
X111870708Y-92397103D01*
X111848799Y-92423799D01*
X111822103Y-92445708D01*
X111791652Y-92461985D01*
X111758600Y-92472011D01*
X111718097Y-92476000D01*
X110281903Y-92476000D01*
X110241400Y-92472011D01*
X110208348Y-92461985D01*
X110177897Y-92445708D01*
X110151201Y-92423799D01*
X110129292Y-92397103D01*
X110113015Y-92366652D01*
X110102989Y-92333600D01*
X110099000Y-92293097D01*
X110099000Y-90606903D01*
X110102989Y-90566400D01*
X110113015Y-90533348D01*
X110129292Y-90502897D01*
X110151201Y-90476201D01*
X110177897Y-90454292D01*
X110208348Y-90438015D01*
X110241400Y-90427989D01*
X110281903Y-90424000D01*
X111718097Y-90424000D01*
X111758600Y-90427989D01*
X111758600Y-90427989D01*
G37*
G36*
X128651000Y-92179000D02*
G01*
X127749000Y-92179000D01*
X127749000Y-91177000D01*
X128651000Y-91177000D01*
X128651000Y-92179000D01*
X128651000Y-92179000D01*
G37*
G36*
X139551000Y-92151000D02*
G01*
X138249000Y-92151000D01*
X138249000Y-91149000D01*
X139551000Y-91149000D01*
X139551000Y-92151000D01*
X139551000Y-92151000D01*
G37*
G36*
X132151000Y-92051000D02*
G01*
X130849000Y-92051000D01*
X130849000Y-91049000D01*
X132151000Y-91049000D01*
X132151000Y-92051000D01*
X132151000Y-92051000D01*
G37*
G36*
X135051000Y-92001000D02*
G01*
X134149000Y-92001000D01*
X134149000Y-90999000D01*
X135051000Y-90999000D01*
X135051000Y-92001000D01*
X135051000Y-92001000D01*
G37*
G36*
X149041000Y-91417000D02*
G01*
X148139000Y-91417000D01*
X148139000Y-90415000D01*
X149041000Y-90415000D01*
X149041000Y-91417000D01*
X149041000Y-91417000D01*
G37*
G36*
X142351000Y-91163000D02*
G01*
X141449000Y-91163000D01*
X141449000Y-90161000D01*
X142351000Y-90161000D01*
X142351000Y-91163000D01*
X142351000Y-91163000D01*
G37*
G36*
X125851000Y-91035000D02*
G01*
X124549000Y-91035000D01*
X124549000Y-90033000D01*
X125851000Y-90033000D01*
X125851000Y-91035000D01*
X125851000Y-91035000D01*
G37*
G36*
X119451000Y-91035000D02*
G01*
X118149000Y-91035000D01*
X118149000Y-90033000D01*
X119451000Y-90033000D01*
X119451000Y-91035000D01*
X119451000Y-91035000D01*
G37*
G36*
X122251000Y-90909000D02*
G01*
X121349000Y-90909000D01*
X121349000Y-89907000D01*
X122251000Y-89907000D01*
X122251000Y-90909000D01*
X122251000Y-90909000D01*
G37*
G36*
X156699000Y-90751000D02*
G01*
X154197000Y-90751000D01*
X154197000Y-88249000D01*
X156699000Y-88249000D01*
X156699000Y-90751000D01*
X156699000Y-90751000D01*
G37*
G36*
X127701000Y-90179000D02*
G01*
X126799000Y-90179000D01*
X126799000Y-89177000D01*
X127701000Y-89177000D01*
X127701000Y-90179000D01*
X127701000Y-90179000D01*
G37*
G36*
X129601000Y-90179000D02*
G01*
X128699000Y-90179000D01*
X128699000Y-89177000D01*
X129601000Y-89177000D01*
X129601000Y-90179000D01*
X129601000Y-90179000D01*
G37*
G36*
X145939000Y-90035000D02*
G01*
X144637000Y-90035000D01*
X144637000Y-89033000D01*
X145939000Y-89033000D01*
X145939000Y-90035000D01*
X145939000Y-90035000D01*
G37*
G36*
X134101000Y-90001000D02*
G01*
X133199000Y-90001000D01*
X133199000Y-88999000D01*
X134101000Y-88999000D01*
X134101000Y-90001000D01*
X134101000Y-90001000D01*
G37*
G36*
X136001000Y-90001000D02*
G01*
X135099000Y-90001000D01*
X135099000Y-88999000D01*
X136001000Y-88999000D01*
X136001000Y-90001000D01*
X136001000Y-90001000D01*
G37*
G36*
X149991000Y-89417000D02*
G01*
X149089000Y-89417000D01*
X149089000Y-88415000D01*
X149991000Y-88415000D01*
X149991000Y-89417000D01*
X149991000Y-89417000D01*
G37*
G36*
X148091000Y-89417000D02*
G01*
X147189000Y-89417000D01*
X147189000Y-88415000D01*
X148091000Y-88415000D01*
X148091000Y-89417000D01*
X148091000Y-89417000D01*
G37*
G36*
X141401000Y-89163000D02*
G01*
X140499000Y-89163000D01*
X140499000Y-88161000D01*
X141401000Y-88161000D01*
X141401000Y-89163000D01*
X141401000Y-89163000D01*
G37*
G36*
X143301000Y-89163000D02*
G01*
X142399000Y-89163000D01*
X142399000Y-88161000D01*
X143301000Y-88161000D01*
X143301000Y-89163000D01*
X143301000Y-89163000D01*
G37*
G36*
X121301000Y-88909000D02*
G01*
X120399000Y-88909000D01*
X120399000Y-87907000D01*
X121301000Y-87907000D01*
X121301000Y-88909000D01*
X121301000Y-88909000D01*
G37*
G36*
X123201000Y-88909000D02*
G01*
X122299000Y-88909000D01*
X122299000Y-87907000D01*
X123201000Y-87907000D01*
X123201000Y-88909000D01*
X123201000Y-88909000D01*
G37*
G36*
X139551000Y-88851000D02*
G01*
X138249000Y-88851000D01*
X138249000Y-87849000D01*
X139551000Y-87849000D01*
X139551000Y-88851000D01*
X139551000Y-88851000D01*
G37*
G36*
X132151000Y-88751000D02*
G01*
X130849000Y-88751000D01*
X130849000Y-87749000D01*
X132151000Y-87749000D01*
X132151000Y-88751000D01*
X132151000Y-88751000D01*
G37*
G36*
X127152938Y-87896716D02*
G01*
X127173557Y-87902971D01*
X127192553Y-87913124D01*
X127209208Y-87926792D01*
X127222876Y-87943447D01*
X127233029Y-87962443D01*
X127239284Y-87983062D01*
X127242000Y-88010640D01*
X127242000Y-88519360D01*
X127239284Y-88546938D01*
X127233029Y-88567557D01*
X127222876Y-88586553D01*
X127209208Y-88603208D01*
X127192553Y-88616876D01*
X127173557Y-88627029D01*
X127152938Y-88633284D01*
X127125360Y-88636000D01*
X126666640Y-88636000D01*
X126639062Y-88633284D01*
X126618443Y-88627029D01*
X126599447Y-88616876D01*
X126582792Y-88603208D01*
X126569124Y-88586553D01*
X126558971Y-88567557D01*
X126552716Y-88546938D01*
X126550000Y-88519360D01*
X126550000Y-88010640D01*
X126552716Y-87983062D01*
X126558971Y-87962443D01*
X126569124Y-87943447D01*
X126582792Y-87926792D01*
X126599447Y-87913124D01*
X126618443Y-87902971D01*
X126639062Y-87896716D01*
X126666640Y-87894000D01*
X127125360Y-87894000D01*
X127152938Y-87896716D01*
X127152938Y-87896716D01*
G37*
G36*
X130027938Y-87896716D02*
G01*
X130048557Y-87902971D01*
X130067553Y-87913124D01*
X130084208Y-87926792D01*
X130097876Y-87943447D01*
X130108029Y-87962443D01*
X130114284Y-87983062D01*
X130117000Y-88010640D01*
X130117000Y-88519360D01*
X130114284Y-88546938D01*
X130108029Y-88567557D01*
X130097876Y-88586553D01*
X130084208Y-88603208D01*
X130067553Y-88616876D01*
X130048557Y-88627029D01*
X130027938Y-88633284D01*
X130000360Y-88636000D01*
X129541640Y-88636000D01*
X129514062Y-88633284D01*
X129493443Y-88627029D01*
X129474447Y-88616876D01*
X129457792Y-88603208D01*
X129444124Y-88586553D01*
X129433971Y-88567557D01*
X129427716Y-88546938D01*
X129425000Y-88519360D01*
X129425000Y-88010640D01*
X129427716Y-87983062D01*
X129433971Y-87962443D01*
X129444124Y-87943447D01*
X129457792Y-87926792D01*
X129474447Y-87913124D01*
X129493443Y-87902971D01*
X129514062Y-87896716D01*
X129541640Y-87894000D01*
X130000360Y-87894000D01*
X130027938Y-87896716D01*
X130027938Y-87896716D01*
G37*
G36*
X128122938Y-87896716D02*
G01*
X128143557Y-87902971D01*
X128162553Y-87913124D01*
X128179208Y-87926792D01*
X128192876Y-87943447D01*
X128203029Y-87962443D01*
X128209820Y-87984828D01*
X128213883Y-88005258D01*
X128223261Y-88027897D01*
X128236875Y-88048272D01*
X128254202Y-88065599D01*
X128274576Y-88079212D01*
X128297215Y-88088590D01*
X128321248Y-88093370D01*
X128345752Y-88093370D01*
X128369785Y-88088590D01*
X128392424Y-88079212D01*
X128412799Y-88065598D01*
X128430126Y-88048271D01*
X128443739Y-88027897D01*
X128453117Y-88005258D01*
X128457180Y-87984828D01*
X128463971Y-87962443D01*
X128474124Y-87943447D01*
X128487792Y-87926792D01*
X128504447Y-87913124D01*
X128523443Y-87902971D01*
X128544062Y-87896716D01*
X128571640Y-87894000D01*
X129030360Y-87894000D01*
X129057938Y-87896716D01*
X129078557Y-87902971D01*
X129097553Y-87913124D01*
X129114208Y-87926792D01*
X129127876Y-87943447D01*
X129138029Y-87962443D01*
X129144284Y-87983062D01*
X129147000Y-88010640D01*
X129147000Y-88519360D01*
X129144284Y-88546938D01*
X129138029Y-88567557D01*
X129127876Y-88586553D01*
X129114208Y-88603208D01*
X129097553Y-88616876D01*
X129078557Y-88627029D01*
X129057938Y-88633284D01*
X129030360Y-88636000D01*
X128571640Y-88636000D01*
X128544062Y-88633284D01*
X128523443Y-88627029D01*
X128504447Y-88616876D01*
X128487792Y-88603208D01*
X128474124Y-88586553D01*
X128463971Y-88567557D01*
X128457180Y-88545172D01*
X128453117Y-88524742D01*
X128443739Y-88502103D01*
X128430125Y-88481728D01*
X128412798Y-88464401D01*
X128392424Y-88450788D01*
X128369785Y-88441410D01*
X128345752Y-88436630D01*
X128321248Y-88436630D01*
X128297215Y-88441410D01*
X128274576Y-88450788D01*
X128254201Y-88464402D01*
X128236874Y-88481729D01*
X128223261Y-88502103D01*
X128213883Y-88524742D01*
X128209820Y-88545172D01*
X128203029Y-88567557D01*
X128192876Y-88586553D01*
X128179208Y-88603208D01*
X128162553Y-88616876D01*
X128143557Y-88627029D01*
X128122938Y-88633284D01*
X128095360Y-88636000D01*
X127636640Y-88636000D01*
X127609062Y-88633284D01*
X127588443Y-88627029D01*
X127569447Y-88616876D01*
X127552792Y-88603208D01*
X127539124Y-88586553D01*
X127528971Y-88567557D01*
X127522716Y-88546938D01*
X127520000Y-88519360D01*
X127520000Y-88010640D01*
X127522716Y-87983062D01*
X127528971Y-87962443D01*
X127539124Y-87943447D01*
X127552792Y-87926792D01*
X127569447Y-87913124D01*
X127588443Y-87902971D01*
X127609062Y-87896716D01*
X127636640Y-87894000D01*
X128095360Y-87894000D01*
X128122938Y-87896716D01*
X128122938Y-87896716D01*
G37*
G36*
X134941938Y-87831716D02*
G01*
X134962557Y-87837971D01*
X134981553Y-87848124D01*
X134998208Y-87861792D01*
X135011876Y-87878447D01*
X135022029Y-87897443D01*
X135028284Y-87918062D01*
X135031000Y-87945640D01*
X135031000Y-88454360D01*
X135028284Y-88481938D01*
X135022029Y-88502557D01*
X135011876Y-88521553D01*
X134998208Y-88538208D01*
X134981553Y-88551876D01*
X134962557Y-88562029D01*
X134941938Y-88568284D01*
X134914360Y-88571000D01*
X134455640Y-88571000D01*
X134428062Y-88568284D01*
X134407443Y-88562029D01*
X134388447Y-88551876D01*
X134371792Y-88538208D01*
X134358124Y-88521553D01*
X134347971Y-88502557D01*
X134341716Y-88481938D01*
X134339000Y-88454360D01*
X134339000Y-87945640D01*
X134341716Y-87918062D01*
X134347971Y-87897443D01*
X134358124Y-87878447D01*
X134371792Y-87861792D01*
X134388447Y-87848124D01*
X134407443Y-87837971D01*
X134428062Y-87831716D01*
X134455640Y-87829000D01*
X134914360Y-87829000D01*
X134941938Y-87831716D01*
X134941938Y-87831716D01*
G37*
G36*
X133971938Y-87831716D02*
G01*
X133992557Y-87837971D01*
X134011553Y-87848124D01*
X134028208Y-87861792D01*
X134041876Y-87878447D01*
X134052029Y-87897443D01*
X134058284Y-87918062D01*
X134061000Y-87945640D01*
X134061000Y-88454360D01*
X134058284Y-88481938D01*
X134052029Y-88502557D01*
X134041876Y-88521553D01*
X134028208Y-88538208D01*
X134011553Y-88551876D01*
X133992557Y-88562029D01*
X133971938Y-88568284D01*
X133944360Y-88571000D01*
X133485640Y-88571000D01*
X133458062Y-88568284D01*
X133437443Y-88562029D01*
X133418447Y-88551876D01*
X133401792Y-88538208D01*
X133388124Y-88521553D01*
X133377971Y-88502557D01*
X133371716Y-88481938D01*
X133369000Y-88454360D01*
X133369000Y-87945640D01*
X133371716Y-87918062D01*
X133377971Y-87897443D01*
X133388124Y-87878447D01*
X133401792Y-87861792D01*
X133418447Y-87848124D01*
X133437443Y-87837971D01*
X133458062Y-87831716D01*
X133485640Y-87829000D01*
X133944360Y-87829000D01*
X133971938Y-87831716D01*
X133971938Y-87831716D01*
G37*
G36*
X136042938Y-87769716D02*
G01*
X136063557Y-87775971D01*
X136082553Y-87786124D01*
X136099208Y-87799792D01*
X136112876Y-87816447D01*
X136123029Y-87835443D01*
X136129284Y-87856062D01*
X136132000Y-87883640D01*
X136132000Y-88392360D01*
X136129284Y-88419938D01*
X136123029Y-88440557D01*
X136112876Y-88459553D01*
X136099208Y-88476208D01*
X136082553Y-88489876D01*
X136063557Y-88500029D01*
X136042938Y-88506284D01*
X136015360Y-88509000D01*
X135556640Y-88509000D01*
X135529062Y-88506284D01*
X135508443Y-88500029D01*
X135489447Y-88489876D01*
X135472792Y-88476208D01*
X135459124Y-88459553D01*
X135448971Y-88440557D01*
X135442716Y-88419938D01*
X135440000Y-88392360D01*
X135440000Y-87883640D01*
X135442716Y-87856062D01*
X135448971Y-87835443D01*
X135459124Y-87816447D01*
X135472792Y-87799792D01*
X135489447Y-87786124D01*
X135508443Y-87775971D01*
X135529062Y-87769716D01*
X135556640Y-87767000D01*
X136015360Y-87767000D01*
X136042938Y-87769716D01*
X136042938Y-87769716D01*
G37*
G36*
X137012938Y-87769716D02*
G01*
X137033557Y-87775971D01*
X137052553Y-87786124D01*
X137069208Y-87799792D01*
X137082876Y-87816447D01*
X137093029Y-87835443D01*
X137099284Y-87856062D01*
X137102000Y-87883640D01*
X137102000Y-88392360D01*
X137099284Y-88419938D01*
X137093029Y-88440557D01*
X137082876Y-88459553D01*
X137069208Y-88476208D01*
X137052553Y-88489876D01*
X137033557Y-88500029D01*
X137012938Y-88506284D01*
X136985360Y-88509000D01*
X136526640Y-88509000D01*
X136499062Y-88506284D01*
X136478443Y-88500029D01*
X136459447Y-88489876D01*
X136442792Y-88476208D01*
X136429124Y-88459553D01*
X136418971Y-88440557D01*
X136412716Y-88419938D01*
X136410000Y-88392360D01*
X136410000Y-87883640D01*
X136412716Y-87856062D01*
X136418971Y-87835443D01*
X136429124Y-87816447D01*
X136442792Y-87799792D01*
X136459447Y-87786124D01*
X136478443Y-87775971D01*
X136499062Y-87769716D01*
X136526640Y-87767000D01*
X136985360Y-87767000D01*
X137012938Y-87769716D01*
X137012938Y-87769716D01*
G37*
G36*
X119451000Y-87735000D02*
G01*
X118149000Y-87735000D01*
X118149000Y-86733000D01*
X119451000Y-86733000D01*
X119451000Y-87735000D01*
X119451000Y-87735000D01*
G37*
G36*
X125851000Y-87735000D02*
G01*
X124549000Y-87735000D01*
X124549000Y-86733000D01*
X125851000Y-86733000D01*
X125851000Y-87735000D01*
X125851000Y-87735000D01*
G37*
G36*
X143029938Y-87009716D02*
G01*
X143050557Y-87015971D01*
X143069553Y-87026124D01*
X143086208Y-87039792D01*
X143099876Y-87056447D01*
X143110029Y-87075443D01*
X143116284Y-87096062D01*
X143119000Y-87123640D01*
X143119000Y-87582360D01*
X143116284Y-87609938D01*
X143110029Y-87630557D01*
X143099876Y-87649553D01*
X143086208Y-87666208D01*
X143069553Y-87679876D01*
X143050557Y-87690029D01*
X143029938Y-87696284D01*
X143002360Y-87699000D01*
X142493640Y-87699000D01*
X142466062Y-87696284D01*
X142445443Y-87690029D01*
X142426447Y-87679876D01*
X142409792Y-87666208D01*
X142396124Y-87649553D01*
X142385971Y-87630557D01*
X142379716Y-87609938D01*
X142377000Y-87582360D01*
X142377000Y-87123640D01*
X142379716Y-87096062D01*
X142385971Y-87075443D01*
X142396124Y-87056447D01*
X142409792Y-87039792D01*
X142426447Y-87026124D01*
X142445443Y-87015971D01*
X142466062Y-87009716D01*
X142493640Y-87007000D01*
X143002360Y-87007000D01*
X143029938Y-87009716D01*
X143029938Y-87009716D01*
G37*
G36*
X122963938Y-86755716D02*
G01*
X122984557Y-86761971D01*
X123003553Y-86772124D01*
X123020208Y-86785792D01*
X123033876Y-86802447D01*
X123044029Y-86821443D01*
X123050284Y-86842062D01*
X123053000Y-86869640D01*
X123053000Y-87328360D01*
X123050284Y-87355938D01*
X123044029Y-87376557D01*
X123033876Y-87395553D01*
X123020208Y-87412208D01*
X123003553Y-87425876D01*
X122984557Y-87436029D01*
X122963938Y-87442284D01*
X122936360Y-87445000D01*
X122427640Y-87445000D01*
X122400062Y-87442284D01*
X122379443Y-87436029D01*
X122360447Y-87425876D01*
X122343792Y-87412208D01*
X122330124Y-87395553D01*
X122319971Y-87376557D01*
X122313716Y-87355938D01*
X122311000Y-87328360D01*
X122311000Y-86869640D01*
X122313716Y-86842062D01*
X122319971Y-86821443D01*
X122330124Y-86802447D01*
X122343792Y-86785792D01*
X122360447Y-86772124D01*
X122379443Y-86761971D01*
X122400062Y-86755716D01*
X122427640Y-86753000D01*
X122936360Y-86753000D01*
X122963938Y-86755716D01*
X122963938Y-86755716D01*
G37*
G36*
X155812903Y-84797075D02*
G01*
X156040571Y-84891378D01*
X156245466Y-85028285D01*
X156419715Y-85202534D01*
X156528207Y-85364903D01*
X156556623Y-85407431D01*
X156650925Y-85635097D01*
X156686868Y-85815792D01*
X156699000Y-85876787D01*
X156699000Y-86123213D01*
X156650925Y-86364903D01*
X156556622Y-86592571D01*
X156419715Y-86797466D01*
X156245466Y-86971715D01*
X156040571Y-87108622D01*
X156040570Y-87108623D01*
X156040569Y-87108623D01*
X155812903Y-87202925D01*
X155571214Y-87251000D01*
X155324786Y-87251000D01*
X155083097Y-87202925D01*
X154855431Y-87108623D01*
X154855430Y-87108623D01*
X154855429Y-87108622D01*
X154650534Y-86971715D01*
X154476285Y-86797466D01*
X154339378Y-86592571D01*
X154245075Y-86364903D01*
X154197000Y-86123213D01*
X154197000Y-85876787D01*
X154209133Y-85815792D01*
X154245075Y-85635097D01*
X154339377Y-85407431D01*
X154367793Y-85364903D01*
X154476285Y-85202534D01*
X154650534Y-85028285D01*
X154855429Y-84891378D01*
X155083097Y-84797075D01*
X155324786Y-84749000D01*
X155571214Y-84749000D01*
X155812903Y-84797075D01*
X155812903Y-84797075D01*
G37*
G36*
X141879938Y-86483716D02*
G01*
X141900557Y-86489971D01*
X141919553Y-86500124D01*
X141936208Y-86513792D01*
X141949876Y-86530447D01*
X141960029Y-86549443D01*
X141966284Y-86570062D01*
X141969000Y-86597640D01*
X141969000Y-87106360D01*
X141966284Y-87133938D01*
X141960029Y-87154557D01*
X141949876Y-87173553D01*
X141936208Y-87190208D01*
X141919553Y-87203876D01*
X141900557Y-87214029D01*
X141879938Y-87220284D01*
X141852360Y-87223000D01*
X141393640Y-87223000D01*
X141366062Y-87220284D01*
X141345443Y-87214029D01*
X141326447Y-87203876D01*
X141309792Y-87190208D01*
X141296124Y-87173553D01*
X141285971Y-87154557D01*
X141279716Y-87133938D01*
X141277000Y-87106360D01*
X141277000Y-86597640D01*
X141279716Y-86570062D01*
X141285971Y-86549443D01*
X141296124Y-86530447D01*
X141309792Y-86513792D01*
X141326447Y-86500124D01*
X141345443Y-86489971D01*
X141366062Y-86483716D01*
X141393640Y-86481000D01*
X141852360Y-86481000D01*
X141879938Y-86483716D01*
X141879938Y-86483716D01*
G37*
G36*
X140909938Y-86483716D02*
G01*
X140930557Y-86489971D01*
X140949553Y-86500124D01*
X140966208Y-86513792D01*
X140979876Y-86530447D01*
X140990029Y-86549443D01*
X140996284Y-86570062D01*
X140999000Y-86597640D01*
X140999000Y-87106360D01*
X140996284Y-87133938D01*
X140990029Y-87154557D01*
X140979876Y-87173553D01*
X140966208Y-87190208D01*
X140949553Y-87203876D01*
X140930557Y-87214029D01*
X140909938Y-87220284D01*
X140882360Y-87223000D01*
X140423640Y-87223000D01*
X140396062Y-87220284D01*
X140375443Y-87214029D01*
X140356447Y-87203876D01*
X140339792Y-87190208D01*
X140326124Y-87173553D01*
X140315971Y-87154557D01*
X140309716Y-87133938D01*
X140307000Y-87106360D01*
X140307000Y-86597640D01*
X140309716Y-86570062D01*
X140315971Y-86549443D01*
X140326124Y-86530447D01*
X140339792Y-86513792D01*
X140356447Y-86500124D01*
X140375443Y-86489971D01*
X140396062Y-86483716D01*
X140423640Y-86481000D01*
X140882360Y-86481000D01*
X140909938Y-86483716D01*
X140909938Y-86483716D01*
G37*
G36*
X145939000Y-86735000D02*
G01*
X144637000Y-86735000D01*
X144637000Y-85733000D01*
X145939000Y-85733000D01*
X145939000Y-86735000D01*
X145939000Y-86735000D01*
G37*
G36*
X120929938Y-85991716D02*
G01*
X120950557Y-85997971D01*
X120969553Y-86008124D01*
X120986208Y-86021792D01*
X120999876Y-86038447D01*
X121010029Y-86057443D01*
X121016284Y-86078062D01*
X121019000Y-86105640D01*
X121019000Y-86614360D01*
X121016284Y-86641938D01*
X121010029Y-86662557D01*
X120999876Y-86681553D01*
X120986208Y-86698208D01*
X120969553Y-86711876D01*
X120950557Y-86722029D01*
X120929938Y-86728284D01*
X120902360Y-86731000D01*
X120443640Y-86731000D01*
X120416062Y-86728284D01*
X120395443Y-86722029D01*
X120376447Y-86711876D01*
X120359792Y-86698208D01*
X120346124Y-86681553D01*
X120335971Y-86662557D01*
X120329716Y-86641938D01*
X120327000Y-86614360D01*
X120327000Y-86105640D01*
X120329716Y-86078062D01*
X120335971Y-86057443D01*
X120346124Y-86038447D01*
X120359792Y-86021792D01*
X120376447Y-86008124D01*
X120395443Y-85997971D01*
X120416062Y-85991716D01*
X120443640Y-85989000D01*
X120902360Y-85989000D01*
X120929938Y-85991716D01*
X120929938Y-85991716D01*
G37*
G36*
X121899938Y-85991716D02*
G01*
X121920557Y-85997971D01*
X121939553Y-86008124D01*
X121956208Y-86021792D01*
X121969876Y-86038447D01*
X121980029Y-86057443D01*
X121986284Y-86078062D01*
X121989000Y-86105640D01*
X121989000Y-86614360D01*
X121986284Y-86641938D01*
X121980029Y-86662557D01*
X121969876Y-86681553D01*
X121956208Y-86698208D01*
X121939553Y-86711876D01*
X121920557Y-86722029D01*
X121899938Y-86728284D01*
X121872360Y-86731000D01*
X121413640Y-86731000D01*
X121386062Y-86728284D01*
X121365443Y-86722029D01*
X121346447Y-86711876D01*
X121329792Y-86698208D01*
X121316124Y-86681553D01*
X121305971Y-86662557D01*
X121299716Y-86641938D01*
X121297000Y-86614360D01*
X121297000Y-86105640D01*
X121299716Y-86078062D01*
X121305971Y-86057443D01*
X121316124Y-86038447D01*
X121329792Y-86021792D01*
X121346447Y-86008124D01*
X121365443Y-85997971D01*
X121386062Y-85991716D01*
X121413640Y-85989000D01*
X121872360Y-85989000D01*
X121899938Y-85991716D01*
X121899938Y-85991716D01*
G37*
G36*
X143029938Y-86039716D02*
G01*
X143050557Y-86045971D01*
X143069553Y-86056124D01*
X143086208Y-86069792D01*
X143099876Y-86086447D01*
X143110029Y-86105443D01*
X143116284Y-86126062D01*
X143119000Y-86153640D01*
X143119000Y-86612360D01*
X143116284Y-86639938D01*
X143110029Y-86660557D01*
X143099876Y-86679553D01*
X143086208Y-86696208D01*
X143069553Y-86709876D01*
X143050557Y-86720029D01*
X143029938Y-86726284D01*
X143002360Y-86729000D01*
X142493640Y-86729000D01*
X142466062Y-86726284D01*
X142445443Y-86720029D01*
X142426447Y-86709876D01*
X142409792Y-86696208D01*
X142396124Y-86679553D01*
X142385971Y-86660557D01*
X142379716Y-86639938D01*
X142377000Y-86612360D01*
X142377000Y-86153640D01*
X142379716Y-86126062D01*
X142385971Y-86105443D01*
X142396124Y-86086447D01*
X142409792Y-86069792D01*
X142426447Y-86056124D01*
X142445443Y-86045971D01*
X142466062Y-86039716D01*
X142493640Y-86037000D01*
X143002360Y-86037000D01*
X143029938Y-86039716D01*
X143029938Y-86039716D01*
G37*
G36*
X122963938Y-85785716D02*
G01*
X122984557Y-85791971D01*
X123003553Y-85802124D01*
X123020208Y-85815792D01*
X123033876Y-85832447D01*
X123044029Y-85851443D01*
X123050284Y-85872062D01*
X123053000Y-85899640D01*
X123053000Y-86358360D01*
X123050284Y-86385938D01*
X123044029Y-86406557D01*
X123033876Y-86425553D01*
X123020208Y-86442208D01*
X123003553Y-86455876D01*
X122984557Y-86466029D01*
X122963938Y-86472284D01*
X122936360Y-86475000D01*
X122427640Y-86475000D01*
X122400062Y-86472284D01*
X122379443Y-86466029D01*
X122360447Y-86455876D01*
X122343792Y-86442208D01*
X122330124Y-86425553D01*
X122319971Y-86406557D01*
X122313716Y-86385938D01*
X122311000Y-86358360D01*
X122311000Y-85899640D01*
X122313716Y-85872062D01*
X122319971Y-85851443D01*
X122330124Y-85832447D01*
X122343792Y-85815792D01*
X122360447Y-85802124D01*
X122379443Y-85791971D01*
X122400062Y-85785716D01*
X122427640Y-85783000D01*
X122936360Y-85783000D01*
X122963938Y-85785716D01*
X122963938Y-85785716D01*
G37*
G36*
X109364903Y-83797075D02*
G01*
X109532168Y-83866358D01*
X109592571Y-83891378D01*
X109797466Y-84028285D01*
X109971715Y-84202534D01*
X110108622Y-84407429D01*
X110108623Y-84407431D01*
X110202925Y-84635097D01*
X110251000Y-84876786D01*
X110251000Y-85123214D01*
X110224223Y-85257831D01*
X110202925Y-85364903D01*
X110108622Y-85592571D01*
X109971715Y-85797466D01*
X109797466Y-85971715D01*
X109592571Y-86108622D01*
X109592570Y-86108623D01*
X109592569Y-86108623D01*
X109364903Y-86202925D01*
X109123214Y-86251000D01*
X108876786Y-86251000D01*
X108635097Y-86202925D01*
X108407431Y-86108623D01*
X108407430Y-86108623D01*
X108407429Y-86108622D01*
X108202534Y-85971715D01*
X108028285Y-85797466D01*
X107891378Y-85592571D01*
X107797075Y-85364903D01*
X107775777Y-85257831D01*
X107749000Y-85123214D01*
X107749000Y-84876786D01*
X107797075Y-84635097D01*
X107891377Y-84407431D01*
X107891378Y-84407429D01*
X108028285Y-84202534D01*
X108202534Y-84028285D01*
X108407429Y-83891378D01*
X108467833Y-83866358D01*
X108635097Y-83797075D01*
X108876786Y-83749000D01*
X109123214Y-83749000D01*
X109364903Y-83797075D01*
X109364903Y-83797075D01*
G37*
G36*
X151351000Y-86151000D02*
G01*
X150349000Y-86151000D01*
X150349000Y-84849000D01*
X151351000Y-84849000D01*
X151351000Y-86151000D01*
X151351000Y-86151000D01*
G37*
G36*
X148051000Y-86151000D02*
G01*
X147049000Y-86151000D01*
X147049000Y-84849000D01*
X148051000Y-84849000D01*
X148051000Y-86151000D01*
X148051000Y-86151000D01*
G37*
G36*
X146041938Y-84531716D02*
G01*
X146062557Y-84537971D01*
X146081553Y-84548124D01*
X146098208Y-84561792D01*
X146111876Y-84578447D01*
X146122029Y-84597443D01*
X146128284Y-84618062D01*
X146131000Y-84645640D01*
X146131000Y-85154360D01*
X146128284Y-85181938D01*
X146122029Y-85202557D01*
X146111876Y-85221553D01*
X146098208Y-85238208D01*
X146081553Y-85251876D01*
X146062557Y-85262029D01*
X146041938Y-85268284D01*
X146014360Y-85271000D01*
X145555640Y-85271000D01*
X145528062Y-85268284D01*
X145507443Y-85262029D01*
X145488447Y-85251876D01*
X145471792Y-85238208D01*
X145458124Y-85221553D01*
X145447971Y-85202557D01*
X145441716Y-85181938D01*
X145439000Y-85154360D01*
X145439000Y-84645640D01*
X145441716Y-84618062D01*
X145447971Y-84597443D01*
X145458124Y-84578447D01*
X145471792Y-84561792D01*
X145488447Y-84548124D01*
X145507443Y-84537971D01*
X145528062Y-84531716D01*
X145555640Y-84529000D01*
X146014360Y-84529000D01*
X146041938Y-84531716D01*
X146041938Y-84531716D01*
G37*
G36*
X145071938Y-84531716D02*
G01*
X145092557Y-84537971D01*
X145111553Y-84548124D01*
X145128208Y-84561792D01*
X145141876Y-84578447D01*
X145152029Y-84597443D01*
X145158284Y-84618062D01*
X145161000Y-84645640D01*
X145161000Y-85154360D01*
X145158284Y-85181938D01*
X145152029Y-85202557D01*
X145141876Y-85221553D01*
X145128208Y-85238208D01*
X145111553Y-85251876D01*
X145092557Y-85262029D01*
X145071938Y-85268284D01*
X145044360Y-85271000D01*
X144585640Y-85271000D01*
X144558062Y-85268284D01*
X144537443Y-85262029D01*
X144518447Y-85251876D01*
X144501792Y-85238208D01*
X144488124Y-85221553D01*
X144477971Y-85202557D01*
X144471716Y-85181938D01*
X144469000Y-85154360D01*
X144469000Y-84645640D01*
X144471716Y-84618062D01*
X144477971Y-84597443D01*
X144488124Y-84578447D01*
X144501792Y-84561792D01*
X144518447Y-84548124D01*
X144537443Y-84537971D01*
X144558062Y-84531716D01*
X144585640Y-84529000D01*
X145044360Y-84529000D01*
X145071938Y-84531716D01*
X145071938Y-84531716D01*
G37*
G36*
X130701000Y-84901000D02*
G01*
X129099000Y-84901000D01*
X129099000Y-83299000D01*
X130701000Y-83299000D01*
X130701000Y-84901000D01*
X130701000Y-84901000D01*
G37*
G36*
X132673642Y-83329781D02*
G01*
X132797295Y-83381000D01*
X132819416Y-83390163D01*
X132950608Y-83477822D01*
X133062178Y-83589392D01*
X133138224Y-83703204D01*
X133149838Y-83720586D01*
X133210219Y-83866358D01*
X133241000Y-84021107D01*
X133241000Y-84178893D01*
X133210219Y-84333642D01*
X133179655Y-84407429D01*
X133149837Y-84479416D01*
X133062178Y-84610608D01*
X132950608Y-84722178D01*
X132819416Y-84809837D01*
X132819415Y-84809838D01*
X132819414Y-84809838D01*
X132673642Y-84870219D01*
X132518893Y-84901000D01*
X132361107Y-84901000D01*
X132206358Y-84870219D01*
X132060586Y-84809838D01*
X132060585Y-84809838D01*
X132060584Y-84809837D01*
X131929392Y-84722178D01*
X131817822Y-84610608D01*
X131730163Y-84479416D01*
X131700345Y-84407429D01*
X131669781Y-84333642D01*
X131639000Y-84178893D01*
X131639000Y-84021107D01*
X131669781Y-83866358D01*
X131730162Y-83720586D01*
X131741776Y-83703204D01*
X131817822Y-83589392D01*
X131929392Y-83477822D01*
X132060584Y-83390163D01*
X132082705Y-83381000D01*
X132206358Y-83329781D01*
X132361107Y-83299000D01*
X132518893Y-83299000D01*
X132673642Y-83329781D01*
X132673642Y-83329781D01*
G37*
G36*
X135213642Y-83329781D02*
G01*
X135337295Y-83381000D01*
X135359416Y-83390163D01*
X135490608Y-83477822D01*
X135602178Y-83589392D01*
X135678224Y-83703204D01*
X135689838Y-83720586D01*
X135750219Y-83866358D01*
X135781000Y-84021107D01*
X135781000Y-84178893D01*
X135750219Y-84333642D01*
X135719655Y-84407429D01*
X135689837Y-84479416D01*
X135602178Y-84610608D01*
X135490608Y-84722178D01*
X135359416Y-84809837D01*
X135359415Y-84809838D01*
X135359414Y-84809838D01*
X135213642Y-84870219D01*
X135058893Y-84901000D01*
X134901107Y-84901000D01*
X134746358Y-84870219D01*
X134600586Y-84809838D01*
X134600585Y-84809838D01*
X134600584Y-84809837D01*
X134469392Y-84722178D01*
X134357822Y-84610608D01*
X134270163Y-84479416D01*
X134240345Y-84407429D01*
X134209781Y-84333642D01*
X134179000Y-84178893D01*
X134179000Y-84021107D01*
X134209781Y-83866358D01*
X134270162Y-83720586D01*
X134281776Y-83703204D01*
X134357822Y-83589392D01*
X134469392Y-83477822D01*
X134600584Y-83390163D01*
X134622705Y-83381000D01*
X134746358Y-83329781D01*
X134901107Y-83299000D01*
X135058893Y-83299000D01*
X135213642Y-83329781D01*
X135213642Y-83329781D01*
G37*
G36*
X137753642Y-83329781D02*
G01*
X137877295Y-83381000D01*
X137899416Y-83390163D01*
X138030608Y-83477822D01*
X138142178Y-83589392D01*
X138218224Y-83703204D01*
X138229838Y-83720586D01*
X138290219Y-83866358D01*
X138321000Y-84021107D01*
X138321000Y-84178893D01*
X138290219Y-84333642D01*
X138259655Y-84407429D01*
X138229837Y-84479416D01*
X138142178Y-84610608D01*
X138030608Y-84722178D01*
X137899416Y-84809837D01*
X137899415Y-84809838D01*
X137899414Y-84809838D01*
X137753642Y-84870219D01*
X137598893Y-84901000D01*
X137441107Y-84901000D01*
X137286358Y-84870219D01*
X137140586Y-84809838D01*
X137140585Y-84809838D01*
X137140584Y-84809837D01*
X137009392Y-84722178D01*
X136897822Y-84610608D01*
X136810163Y-84479416D01*
X136780345Y-84407429D01*
X136749781Y-84333642D01*
X136719000Y-84178893D01*
X136719000Y-84021107D01*
X136749781Y-83866358D01*
X136810162Y-83720586D01*
X136821776Y-83703204D01*
X136897822Y-83589392D01*
X137009392Y-83477822D01*
X137140584Y-83390163D01*
X137162705Y-83381000D01*
X137286358Y-83329781D01*
X137441107Y-83299000D01*
X137598893Y-83299000D01*
X137753642Y-83329781D01*
X137753642Y-83329781D01*
G37*
G36*
X126941938Y-83231716D02*
G01*
X126962557Y-83237971D01*
X126981553Y-83248124D01*
X126998208Y-83261792D01*
X127011876Y-83278447D01*
X127022029Y-83297443D01*
X127028284Y-83318062D01*
X127031000Y-83345640D01*
X127031000Y-83854360D01*
X127028284Y-83881938D01*
X127022029Y-83902557D01*
X127011876Y-83921553D01*
X126998208Y-83938208D01*
X126981553Y-83951876D01*
X126962557Y-83962029D01*
X126941938Y-83968284D01*
X126914360Y-83971000D01*
X126455640Y-83971000D01*
X126428062Y-83968284D01*
X126407443Y-83962029D01*
X126388447Y-83951876D01*
X126371792Y-83938208D01*
X126358124Y-83921553D01*
X126347971Y-83902557D01*
X126341716Y-83881938D01*
X126339000Y-83854360D01*
X126339000Y-83345640D01*
X126341716Y-83318062D01*
X126347971Y-83297443D01*
X126358124Y-83278447D01*
X126371792Y-83261792D01*
X126388447Y-83248124D01*
X126407443Y-83237971D01*
X126428062Y-83231716D01*
X126455640Y-83229000D01*
X126914360Y-83229000D01*
X126941938Y-83231716D01*
X126941938Y-83231716D01*
G37*
G36*
X125971938Y-83231716D02*
G01*
X125992557Y-83237971D01*
X126011553Y-83248124D01*
X126028208Y-83261792D01*
X126041876Y-83278447D01*
X126052029Y-83297443D01*
X126058284Y-83318062D01*
X126061000Y-83345640D01*
X126061000Y-83854360D01*
X126058284Y-83881938D01*
X126052029Y-83902557D01*
X126041876Y-83921553D01*
X126028208Y-83938208D01*
X126011553Y-83951876D01*
X125992557Y-83962029D01*
X125971938Y-83968284D01*
X125944360Y-83971000D01*
X125485640Y-83971000D01*
X125458062Y-83968284D01*
X125437443Y-83962029D01*
X125418447Y-83951876D01*
X125401792Y-83938208D01*
X125388124Y-83921553D01*
X125377971Y-83902557D01*
X125371716Y-83881938D01*
X125369000Y-83854360D01*
X125369000Y-83345640D01*
X125371716Y-83318062D01*
X125377971Y-83297443D01*
X125388124Y-83278447D01*
X125401792Y-83261792D01*
X125418447Y-83248124D01*
X125437443Y-83237971D01*
X125458062Y-83231716D01*
X125485640Y-83229000D01*
X125944360Y-83229000D01*
X125971938Y-83231716D01*
X125971938Y-83231716D01*
G37*
G36*
X149301000Y-83901000D02*
G01*
X148299000Y-83901000D01*
X148299000Y-82999000D01*
X149301000Y-82999000D01*
X149301000Y-83901000D01*
X149301000Y-83901000D01*
G37*
G36*
X145140938Y-83070716D02*
G01*
X145161557Y-83076971D01*
X145180553Y-83087124D01*
X145197208Y-83100792D01*
X145210876Y-83117447D01*
X145221029Y-83136443D01*
X145227284Y-83157062D01*
X145230000Y-83184640D01*
X145230000Y-83693360D01*
X145227284Y-83720938D01*
X145221029Y-83741557D01*
X145210876Y-83760553D01*
X145197208Y-83777208D01*
X145180553Y-83790876D01*
X145161557Y-83801029D01*
X145140938Y-83807284D01*
X145113360Y-83810000D01*
X144654640Y-83810000D01*
X144627062Y-83807284D01*
X144606443Y-83801029D01*
X144587447Y-83790876D01*
X144570792Y-83777208D01*
X144557124Y-83760553D01*
X144546971Y-83741557D01*
X144540716Y-83720938D01*
X144538000Y-83693360D01*
X144538000Y-83184640D01*
X144540716Y-83157062D01*
X144546971Y-83136443D01*
X144557124Y-83117447D01*
X144570792Y-83100792D01*
X144587447Y-83087124D01*
X144606443Y-83076971D01*
X144627062Y-83070716D01*
X144654640Y-83068000D01*
X145113360Y-83068000D01*
X145140938Y-83070716D01*
X145140938Y-83070716D01*
G37*
G36*
X144170938Y-83070716D02*
G01*
X144191557Y-83076971D01*
X144210553Y-83087124D01*
X144227208Y-83100792D01*
X144240876Y-83117447D01*
X144251029Y-83136443D01*
X144257284Y-83157062D01*
X144260000Y-83184640D01*
X144260000Y-83693360D01*
X144257284Y-83720938D01*
X144251029Y-83741557D01*
X144240876Y-83760553D01*
X144227208Y-83777208D01*
X144210553Y-83790876D01*
X144191557Y-83801029D01*
X144170938Y-83807284D01*
X144143360Y-83810000D01*
X143684640Y-83810000D01*
X143657062Y-83807284D01*
X143636443Y-83801029D01*
X143617447Y-83790876D01*
X143600792Y-83777208D01*
X143587124Y-83760553D01*
X143576971Y-83741557D01*
X143570716Y-83720938D01*
X143568000Y-83693360D01*
X143568000Y-83184640D01*
X143570716Y-83157062D01*
X143576971Y-83136443D01*
X143587124Y-83117447D01*
X143600792Y-83100792D01*
X143617447Y-83087124D01*
X143636443Y-83076971D01*
X143657062Y-83070716D01*
X143684640Y-83068000D01*
X144143360Y-83068000D01*
X144170938Y-83070716D01*
X144170938Y-83070716D01*
G37*
G36*
X147728938Y-82691716D02*
G01*
X147749557Y-82697971D01*
X147768553Y-82708124D01*
X147785208Y-82721792D01*
X147798876Y-82738447D01*
X147809029Y-82757443D01*
X147815284Y-82778062D01*
X147818000Y-82805640D01*
X147818000Y-83264360D01*
X147815284Y-83291938D01*
X147809029Y-83312557D01*
X147798876Y-83331553D01*
X147785208Y-83348208D01*
X147768553Y-83361876D01*
X147749557Y-83372029D01*
X147728938Y-83378284D01*
X147701360Y-83381000D01*
X147192640Y-83381000D01*
X147165062Y-83378284D01*
X147144443Y-83372029D01*
X147125447Y-83361876D01*
X147108792Y-83348208D01*
X147095124Y-83331553D01*
X147084971Y-83312557D01*
X147078716Y-83291938D01*
X147076000Y-83264360D01*
X147076000Y-82805640D01*
X147078716Y-82778062D01*
X147084971Y-82757443D01*
X147095124Y-82738447D01*
X147108792Y-82721792D01*
X147125447Y-82708124D01*
X147144443Y-82697971D01*
X147165062Y-82691716D01*
X147192640Y-82689000D01*
X147701360Y-82689000D01*
X147728938Y-82691716D01*
X147728938Y-82691716D01*
G37*
G36*
X151301000Y-82951000D02*
G01*
X150299000Y-82951000D01*
X150299000Y-82049000D01*
X151301000Y-82049000D01*
X151301000Y-82951000D01*
X151301000Y-82951000D01*
G37*
G36*
X110251000Y-82751000D02*
G01*
X107749000Y-82751000D01*
X107749000Y-80249000D01*
X110251000Y-80249000D01*
X110251000Y-82751000D01*
X110251000Y-82751000D01*
G37*
G36*
X118979591Y-81603085D02*
G01*
X119013569Y-81613393D01*
X119044890Y-81630134D01*
X119072339Y-81652661D01*
X119094866Y-81680110D01*
X119111607Y-81711431D01*
X119121915Y-81745409D01*
X119126000Y-81786890D01*
X119126000Y-82388110D01*
X119121915Y-82429591D01*
X119111607Y-82463569D01*
X119094866Y-82494890D01*
X119072339Y-82522339D01*
X119044890Y-82544866D01*
X119013569Y-82561607D01*
X118979591Y-82571915D01*
X118938110Y-82576000D01*
X118261890Y-82576000D01*
X118220409Y-82571915D01*
X118186431Y-82561607D01*
X118155110Y-82544866D01*
X118127661Y-82522339D01*
X118105134Y-82494890D01*
X118088393Y-82463569D01*
X118078085Y-82429591D01*
X118074000Y-82388110D01*
X118074000Y-81786890D01*
X118078085Y-81745409D01*
X118088393Y-81711431D01*
X118105134Y-81680110D01*
X118127661Y-81652661D01*
X118155110Y-81630134D01*
X118186431Y-81613393D01*
X118220409Y-81603085D01*
X118261890Y-81599000D01*
X118938110Y-81599000D01*
X118979591Y-81603085D01*
X118979591Y-81603085D01*
G37*
G36*
X144170938Y-81673716D02*
G01*
X144191557Y-81679971D01*
X144210553Y-81690124D01*
X144227208Y-81703792D01*
X144240876Y-81720447D01*
X144251029Y-81739443D01*
X144257284Y-81760062D01*
X144260000Y-81787640D01*
X144260000Y-82296360D01*
X144257284Y-82323938D01*
X144251029Y-82344557D01*
X144240876Y-82363553D01*
X144227208Y-82380208D01*
X144210553Y-82393876D01*
X144191557Y-82404029D01*
X144170938Y-82410284D01*
X144143360Y-82413000D01*
X143684640Y-82413000D01*
X143657062Y-82410284D01*
X143636443Y-82404029D01*
X143617447Y-82393876D01*
X143600792Y-82380208D01*
X143587124Y-82363553D01*
X143576971Y-82344557D01*
X143570716Y-82323938D01*
X143568000Y-82296360D01*
X143568000Y-81787640D01*
X143570716Y-81760062D01*
X143576971Y-81739443D01*
X143587124Y-81720447D01*
X143600792Y-81703792D01*
X143617447Y-81690124D01*
X143636443Y-81679971D01*
X143657062Y-81673716D01*
X143684640Y-81671000D01*
X144143360Y-81671000D01*
X144170938Y-81673716D01*
X144170938Y-81673716D01*
G37*
G36*
X145140938Y-81673716D02*
G01*
X145161557Y-81679971D01*
X145180553Y-81690124D01*
X145197208Y-81703792D01*
X145210876Y-81720447D01*
X145221029Y-81739443D01*
X145227284Y-81760062D01*
X145230000Y-81787640D01*
X145230000Y-82296360D01*
X145227284Y-82323938D01*
X145221029Y-82344557D01*
X145210876Y-82363553D01*
X145197208Y-82380208D01*
X145180553Y-82393876D01*
X145161557Y-82404029D01*
X145140938Y-82410284D01*
X145113360Y-82413000D01*
X144654640Y-82413000D01*
X144627062Y-82410284D01*
X144606443Y-82404029D01*
X144587447Y-82393876D01*
X144570792Y-82380208D01*
X144557124Y-82363553D01*
X144546971Y-82344557D01*
X144540716Y-82323938D01*
X144538000Y-82296360D01*
X144538000Y-81787640D01*
X144540716Y-81760062D01*
X144546971Y-81739443D01*
X144557124Y-81720447D01*
X144570792Y-81703792D01*
X144587447Y-81690124D01*
X144606443Y-81679971D01*
X144627062Y-81673716D01*
X144654640Y-81671000D01*
X145113360Y-81671000D01*
X145140938Y-81673716D01*
X145140938Y-81673716D01*
G37*
G36*
X147728938Y-81721716D02*
G01*
X147749557Y-81727971D01*
X147768553Y-81738124D01*
X147785208Y-81751792D01*
X147798876Y-81768447D01*
X147809029Y-81787443D01*
X147815284Y-81808062D01*
X147818000Y-81835640D01*
X147818000Y-82294360D01*
X147815284Y-82321938D01*
X147809029Y-82342557D01*
X147798876Y-82361553D01*
X147785208Y-82378208D01*
X147768553Y-82391876D01*
X147749557Y-82402029D01*
X147728938Y-82408284D01*
X147701360Y-82411000D01*
X147192640Y-82411000D01*
X147165062Y-82408284D01*
X147144443Y-82402029D01*
X147125447Y-82391876D01*
X147108792Y-82378208D01*
X147095124Y-82361553D01*
X147084971Y-82342557D01*
X147078716Y-82321938D01*
X147076000Y-82294360D01*
X147076000Y-81835640D01*
X147078716Y-81808062D01*
X147084971Y-81787443D01*
X147095124Y-81768447D01*
X147108792Y-81751792D01*
X147125447Y-81738124D01*
X147144443Y-81727971D01*
X147165062Y-81721716D01*
X147192640Y-81719000D01*
X147701360Y-81719000D01*
X147728938Y-81721716D01*
X147728938Y-81721716D01*
G37*
G36*
X156699000Y-82351000D02*
G01*
X154197000Y-82351000D01*
X154197000Y-79849000D01*
X156699000Y-79849000D01*
X156699000Y-82351000D01*
X156699000Y-82351000D01*
G37*
G36*
X149301000Y-82001000D02*
G01*
X148299000Y-82001000D01*
X148299000Y-81099000D01*
X149301000Y-81099000D01*
X149301000Y-82001000D01*
X149301000Y-82001000D01*
G37*
G36*
X114151000Y-81651000D02*
G01*
X113149000Y-81651000D01*
X113149000Y-80349000D01*
X114151000Y-80349000D01*
X114151000Y-81651000D01*
X114151000Y-81651000D01*
G37*
G36*
X117451000Y-81651000D02*
G01*
X116449000Y-81651000D01*
X116449000Y-80349000D01*
X117451000Y-80349000D01*
X117451000Y-81651000D01*
X117451000Y-81651000D01*
G37*
G36*
X118979591Y-80028085D02*
G01*
X119013569Y-80038393D01*
X119044890Y-80055134D01*
X119072339Y-80077661D01*
X119094866Y-80105110D01*
X119111607Y-80136431D01*
X119121915Y-80170409D01*
X119126000Y-80211890D01*
X119126000Y-80813110D01*
X119121915Y-80854591D01*
X119111607Y-80888569D01*
X119094866Y-80919890D01*
X119072339Y-80947339D01*
X119044890Y-80969866D01*
X119013569Y-80986607D01*
X118979591Y-80996915D01*
X118938110Y-81001000D01*
X118261890Y-81001000D01*
X118220409Y-80996915D01*
X118186431Y-80986607D01*
X118155110Y-80969866D01*
X118127661Y-80947339D01*
X118105134Y-80919890D01*
X118088393Y-80888569D01*
X118078085Y-80854591D01*
X118074000Y-80813110D01*
X118074000Y-80211890D01*
X118078085Y-80170409D01*
X118088393Y-80136431D01*
X118105134Y-80105110D01*
X118127661Y-80077661D01*
X118155110Y-80055134D01*
X118186431Y-80038393D01*
X118220409Y-80028085D01*
X118261890Y-80024000D01*
X118938110Y-80024000D01*
X118979591Y-80028085D01*
X118979591Y-80028085D01*
G37*
G36*
X136772000Y-80664000D02*
G01*
X135770000Y-80664000D01*
X135770000Y-78562000D01*
X136772000Y-78562000D01*
X136772000Y-80664000D01*
X136772000Y-80664000D01*
G37*
G36*
X140582000Y-80664000D02*
G01*
X139580000Y-80664000D01*
X139580000Y-78562000D01*
X140582000Y-78562000D01*
X140582000Y-80664000D01*
X140582000Y-80664000D01*
G37*
G36*
X139312000Y-80664000D02*
G01*
X138310000Y-80664000D01*
X138310000Y-78562000D01*
X139312000Y-78562000D01*
X139312000Y-80664000D01*
X139312000Y-80664000D01*
G37*
G36*
X138042000Y-80664000D02*
G01*
X137040000Y-80664000D01*
X137040000Y-78562000D01*
X138042000Y-78562000D01*
X138042000Y-80664000D01*
X138042000Y-80664000D01*
G37*
G36*
X135502000Y-80664000D02*
G01*
X134500000Y-80664000D01*
X134500000Y-78562000D01*
X135502000Y-78562000D01*
X135502000Y-80664000D01*
X135502000Y-80664000D01*
G37*
G36*
X134232000Y-80664000D02*
G01*
X133230000Y-80664000D01*
X133230000Y-78562000D01*
X134232000Y-78562000D01*
X134232000Y-80664000D01*
X134232000Y-80664000D01*
G37*
G36*
X132962000Y-80664000D02*
G01*
X131960000Y-80664000D01*
X131960000Y-78562000D01*
X132962000Y-78562000D01*
X132962000Y-80664000D01*
X132962000Y-80664000D01*
G37*
G36*
X131692000Y-80664000D02*
G01*
X130690000Y-80664000D01*
X130690000Y-78562000D01*
X131692000Y-78562000D01*
X131692000Y-80664000D01*
X131692000Y-80664000D01*
G37*
G36*
X130422000Y-80664000D02*
G01*
X129420000Y-80664000D01*
X129420000Y-78562000D01*
X130422000Y-78562000D01*
X130422000Y-80664000D01*
X130422000Y-80664000D01*
G37*
G36*
X129152000Y-80664000D02*
G01*
X128150000Y-80664000D01*
X128150000Y-78562000D01*
X129152000Y-78562000D01*
X129152000Y-80664000D01*
X129152000Y-80664000D01*
G37*
G36*
X148151000Y-80051000D02*
G01*
X147149000Y-80051000D01*
X147149000Y-78749000D01*
X148151000Y-78749000D01*
X148151000Y-80051000D01*
X148151000Y-80051000D01*
G37*
G36*
X151451000Y-80051000D02*
G01*
X150449000Y-80051000D01*
X150449000Y-78749000D01*
X151451000Y-78749000D01*
X151451000Y-80051000D01*
X151451000Y-80051000D01*
G37*
G36*
X126917000Y-79114000D02*
G01*
X124815000Y-79114000D01*
X124815000Y-78112000D01*
X126917000Y-78112000D01*
X126917000Y-79114000D01*
X126917000Y-79114000D01*
G37*
G36*
X143917000Y-79114000D02*
G01*
X141815000Y-79114000D01*
X141815000Y-78112000D01*
X143917000Y-78112000D01*
X143917000Y-79114000D01*
X143917000Y-79114000D01*
G37*
G36*
X115201000Y-78901000D02*
G01*
X113099000Y-78901000D01*
X113099000Y-77299000D01*
X115201000Y-77299000D01*
X115201000Y-78901000D01*
X115201000Y-78901000D01*
G37*
G36*
X155781336Y-76390796D02*
G01*
X155812903Y-76397075D01*
X156040571Y-76491378D01*
X156245466Y-76628285D01*
X156419715Y-76802534D01*
X156556622Y-77007429D01*
X156556623Y-77007431D01*
X156618990Y-77158000D01*
X156650925Y-77235097D01*
X156699000Y-77476787D01*
X156699000Y-77723213D01*
X156650925Y-77964903D01*
X156556622Y-78192571D01*
X156419715Y-78397466D01*
X156245466Y-78571715D01*
X156040571Y-78708622D01*
X156040570Y-78708623D01*
X156040569Y-78708623D01*
X155812903Y-78802925D01*
X155571214Y-78851000D01*
X155324786Y-78851000D01*
X155083097Y-78802925D01*
X154855431Y-78708623D01*
X154855430Y-78708623D01*
X154855429Y-78708622D01*
X154650534Y-78571715D01*
X154476285Y-78397466D01*
X154339378Y-78192571D01*
X154245075Y-77964903D01*
X154197000Y-77723213D01*
X154197000Y-77476787D01*
X154245075Y-77235097D01*
X154277010Y-77158000D01*
X154339377Y-77007431D01*
X154339378Y-77007429D01*
X154476285Y-76802534D01*
X154650534Y-76628285D01*
X154855429Y-76491378D01*
X155083097Y-76397075D01*
X155114664Y-76390796D01*
X155324786Y-76349000D01*
X155571214Y-76349000D01*
X155781336Y-76390796D01*
X155781336Y-76390796D01*
G37*
G36*
X146204938Y-77611716D02*
G01*
X146225557Y-77617971D01*
X146244553Y-77628124D01*
X146261208Y-77641792D01*
X146274876Y-77658447D01*
X146285029Y-77677443D01*
X146291284Y-77698062D01*
X146294000Y-77725640D01*
X146294000Y-78184360D01*
X146291284Y-78211938D01*
X146285029Y-78232557D01*
X146274876Y-78251553D01*
X146261208Y-78268208D01*
X146244553Y-78281876D01*
X146225557Y-78292029D01*
X146204938Y-78298284D01*
X146177360Y-78301000D01*
X145668640Y-78301000D01*
X145641062Y-78298284D01*
X145620443Y-78292029D01*
X145601447Y-78281876D01*
X145584792Y-78268208D01*
X145571124Y-78251553D01*
X145560971Y-78232557D01*
X145554716Y-78211938D01*
X145552000Y-78184360D01*
X145552000Y-77725640D01*
X145554716Y-77698062D01*
X145560971Y-77677443D01*
X145571124Y-77658447D01*
X145584792Y-77641792D01*
X145601447Y-77628124D01*
X145620443Y-77617971D01*
X145641062Y-77611716D01*
X145668640Y-77609000D01*
X146177360Y-77609000D01*
X146204938Y-77611716D01*
X146204938Y-77611716D01*
G37*
G36*
X109364903Y-75697075D02*
G01*
X109592571Y-75791378D01*
X109797466Y-75928285D01*
X109971715Y-76102534D01*
X109971716Y-76102536D01*
X110108623Y-76307431D01*
X110202925Y-76535097D01*
X110251000Y-76776786D01*
X110251000Y-77023214D01*
X110202925Y-77264903D01*
X110115161Y-77476786D01*
X110108622Y-77492571D01*
X109971715Y-77697466D01*
X109797466Y-77871715D01*
X109592571Y-78008622D01*
X109592570Y-78008623D01*
X109592569Y-78008623D01*
X109364903Y-78102925D01*
X109123214Y-78151000D01*
X108876786Y-78151000D01*
X108635097Y-78102925D01*
X108407431Y-78008623D01*
X108407430Y-78008623D01*
X108407429Y-78008622D01*
X108202534Y-77871715D01*
X108028285Y-77697466D01*
X107891378Y-77492571D01*
X107884840Y-77476786D01*
X107797075Y-77264903D01*
X107749000Y-77023214D01*
X107749000Y-76776786D01*
X107797075Y-76535097D01*
X107891377Y-76307431D01*
X108028284Y-76102536D01*
X108028285Y-76102534D01*
X108202534Y-75928285D01*
X108407429Y-75791378D01*
X108635097Y-75697075D01*
X108876786Y-75649000D01*
X109123214Y-75649000D01*
X109364903Y-75697075D01*
X109364903Y-75697075D01*
G37*
G36*
X147681938Y-77256716D02*
G01*
X147702557Y-77262971D01*
X147721553Y-77273124D01*
X147738208Y-77286792D01*
X147751876Y-77303447D01*
X147762029Y-77322443D01*
X147768284Y-77343062D01*
X147771000Y-77370640D01*
X147771000Y-77829360D01*
X147768284Y-77856938D01*
X147762029Y-77877557D01*
X147751876Y-77896553D01*
X147738208Y-77913208D01*
X147721553Y-77926876D01*
X147702557Y-77937029D01*
X147681938Y-77943284D01*
X147654360Y-77946000D01*
X147145640Y-77946000D01*
X147118062Y-77943284D01*
X147097443Y-77937029D01*
X147078447Y-77926876D01*
X147061792Y-77913208D01*
X147048124Y-77896553D01*
X147037971Y-77877557D01*
X147031716Y-77856938D01*
X147029000Y-77829360D01*
X147029000Y-77370640D01*
X147031716Y-77343062D01*
X147037971Y-77322443D01*
X147048124Y-77303447D01*
X147061792Y-77286792D01*
X147078447Y-77273124D01*
X147097443Y-77262971D01*
X147118062Y-77256716D01*
X147145640Y-77254000D01*
X147654360Y-77254000D01*
X147681938Y-77256716D01*
X147681938Y-77256716D01*
G37*
G36*
X126917000Y-77844000D02*
G01*
X124815000Y-77844000D01*
X124815000Y-76842000D01*
X126917000Y-76842000D01*
X126917000Y-77844000D01*
X126917000Y-77844000D01*
G37*
G36*
X143917000Y-77844000D02*
G01*
X141815000Y-77844000D01*
X141815000Y-76842000D01*
X143917000Y-76842000D01*
X143917000Y-77844000D01*
X143917000Y-77844000D01*
G37*
G36*
X149301000Y-77801000D02*
G01*
X148299000Y-77801000D01*
X148299000Y-76899000D01*
X149301000Y-76899000D01*
X149301000Y-77801000D01*
X149301000Y-77801000D01*
G37*
G36*
X121501000Y-77751000D02*
G01*
X119399000Y-77751000D01*
X119399000Y-73849000D01*
X121501000Y-73849000D01*
X121501000Y-77751000D01*
X121501000Y-77751000D01*
G37*
G36*
X146204938Y-76641716D02*
G01*
X146225557Y-76647971D01*
X146244553Y-76658124D01*
X146261208Y-76671792D01*
X146274876Y-76688447D01*
X146285029Y-76707443D01*
X146291284Y-76728062D01*
X146294000Y-76755640D01*
X146294000Y-77214360D01*
X146291284Y-77241938D01*
X146285029Y-77262557D01*
X146274876Y-77281553D01*
X146261208Y-77298208D01*
X146244553Y-77311876D01*
X146225557Y-77322029D01*
X146204938Y-77328284D01*
X146177360Y-77331000D01*
X145668640Y-77331000D01*
X145641062Y-77328284D01*
X145620443Y-77322029D01*
X145601447Y-77311876D01*
X145584792Y-77298208D01*
X145571124Y-77281553D01*
X145560971Y-77262557D01*
X145554716Y-77241938D01*
X145552000Y-77214360D01*
X145552000Y-76755640D01*
X145554716Y-76728062D01*
X145560971Y-76707443D01*
X145571124Y-76688447D01*
X145584792Y-76671792D01*
X145601447Y-76658124D01*
X145620443Y-76647971D01*
X145641062Y-76641716D01*
X145668640Y-76639000D01*
X146177360Y-76639000D01*
X146204938Y-76641716D01*
X146204938Y-76641716D01*
G37*
G36*
X147681938Y-76286716D02*
G01*
X147702557Y-76292971D01*
X147721553Y-76303124D01*
X147738208Y-76316792D01*
X147751876Y-76333447D01*
X147762029Y-76352443D01*
X147768284Y-76373062D01*
X147771000Y-76400640D01*
X147771000Y-76859360D01*
X147768284Y-76886938D01*
X147762029Y-76907557D01*
X147751876Y-76926553D01*
X147738208Y-76943208D01*
X147721553Y-76956876D01*
X147702557Y-76967029D01*
X147681938Y-76973284D01*
X147654360Y-76976000D01*
X147145640Y-76976000D01*
X147118062Y-76973284D01*
X147097443Y-76967029D01*
X147078447Y-76956876D01*
X147061792Y-76943208D01*
X147048124Y-76926553D01*
X147037971Y-76907557D01*
X147031716Y-76886938D01*
X147029000Y-76859360D01*
X147029000Y-76400640D01*
X147031716Y-76373062D01*
X147037971Y-76352443D01*
X147048124Y-76333447D01*
X147061792Y-76316792D01*
X147078447Y-76303124D01*
X147097443Y-76292971D01*
X147118062Y-76286716D01*
X147145640Y-76284000D01*
X147654360Y-76284000D01*
X147681938Y-76286716D01*
X147681938Y-76286716D01*
G37*
G36*
X151301000Y-76851000D02*
G01*
X150299000Y-76851000D01*
X150299000Y-75949000D01*
X151301000Y-75949000D01*
X151301000Y-76851000D01*
X151301000Y-76851000D01*
G37*
G36*
X115201000Y-76601000D02*
G01*
X113099000Y-76601000D01*
X113099000Y-74999000D01*
X115201000Y-74999000D01*
X115201000Y-76601000D01*
X115201000Y-76601000D01*
G37*
G36*
X126917000Y-76574000D02*
G01*
X124815000Y-76574000D01*
X124815000Y-75572000D01*
X126917000Y-75572000D01*
X126917000Y-76574000D01*
X126917000Y-76574000D01*
G37*
G36*
X143917000Y-76574000D02*
G01*
X141815000Y-76574000D01*
X141815000Y-75572000D01*
X143917000Y-75572000D01*
X143917000Y-76574000D01*
X143917000Y-76574000D01*
G37*
G36*
X149301000Y-75901000D02*
G01*
X148299000Y-75901000D01*
X148299000Y-74999000D01*
X149301000Y-74999000D01*
X149301000Y-75901000D01*
X149301000Y-75901000D01*
G37*
G36*
X143917000Y-75304000D02*
G01*
X141815000Y-75304000D01*
X141815000Y-74302000D01*
X143917000Y-74302000D01*
X143917000Y-75304000D01*
X143917000Y-75304000D01*
G37*
G36*
X126917000Y-75304000D02*
G01*
X124815000Y-75304000D01*
X124815000Y-74302000D01*
X126917000Y-74302000D01*
X126917000Y-75304000D01*
X126917000Y-75304000D01*
G37*
G36*
X110251000Y-74651000D02*
G01*
X107749000Y-74651000D01*
X107749000Y-72149000D01*
X110251000Y-72149000D01*
X110251000Y-74651000D01*
X110251000Y-74651000D01*
G37*
G36*
X115201000Y-74301000D02*
G01*
X113099000Y-74301000D01*
X113099000Y-72699000D01*
X115201000Y-72699000D01*
X115201000Y-74301000D01*
X115201000Y-74301000D01*
G37*
G36*
X156699000Y-74051000D02*
G01*
X154197000Y-74051000D01*
X154197000Y-71549000D01*
X156699000Y-71549000D01*
X156699000Y-74051000D01*
X156699000Y-74051000D01*
G37*
G36*
X143917000Y-74034000D02*
G01*
X141815000Y-74034000D01*
X141815000Y-73032000D01*
X143917000Y-73032000D01*
X143917000Y-74034000D01*
X143917000Y-74034000D01*
G37*
G36*
X126917000Y-74034000D02*
G01*
X124815000Y-74034000D01*
X124815000Y-73032000D01*
X126917000Y-73032000D01*
X126917000Y-74034000D01*
X126917000Y-74034000D01*
G37*
G36*
X151351000Y-73951000D02*
G01*
X150349000Y-73951000D01*
X150349000Y-72649000D01*
X151351000Y-72649000D01*
X151351000Y-73951000D01*
X151351000Y-73951000D01*
G37*
G36*
X148051000Y-73951000D02*
G01*
X147049000Y-73951000D01*
X147049000Y-72649000D01*
X148051000Y-72649000D01*
X148051000Y-73951000D01*
X148051000Y-73951000D01*
G37*
G36*
X126917000Y-72764000D02*
G01*
X124815000Y-72764000D01*
X124815000Y-71762000D01*
X126917000Y-71762000D01*
X126917000Y-72764000D01*
X126917000Y-72764000D01*
G37*
G36*
X143917000Y-72764000D02*
G01*
X141815000Y-72764000D01*
X141815000Y-71762000D01*
X143917000Y-71762000D01*
X143917000Y-72764000D01*
X143917000Y-72764000D01*
G37*
G36*
X135917000Y-72154000D02*
G01*
X130815000Y-72154000D01*
X130815000Y-67052000D01*
X135917000Y-67052000D01*
X135917000Y-72154000D01*
X135917000Y-72154000D01*
G37*
G36*
X117154591Y-70778085D02*
G01*
X117188569Y-70788393D01*
X117219890Y-70805134D01*
X117247339Y-70827661D01*
X117269866Y-70855110D01*
X117286607Y-70886431D01*
X117296915Y-70920409D01*
X117301000Y-70961890D01*
X117301000Y-71638110D01*
X117296915Y-71679591D01*
X117286607Y-71713569D01*
X117269866Y-71744890D01*
X117247339Y-71772339D01*
X117219890Y-71794866D01*
X117188569Y-71811607D01*
X117154591Y-71821915D01*
X117113110Y-71826000D01*
X116511890Y-71826000D01*
X116470409Y-71821915D01*
X116436431Y-71811607D01*
X116405110Y-71794866D01*
X116377661Y-71772339D01*
X116355134Y-71744890D01*
X116338393Y-71713569D01*
X116328085Y-71679591D01*
X116324000Y-71638110D01*
X116324000Y-70961890D01*
X116328085Y-70920409D01*
X116338393Y-70886431D01*
X116355134Y-70855110D01*
X116377661Y-70827661D01*
X116405110Y-70805134D01*
X116436431Y-70788393D01*
X116470409Y-70778085D01*
X116511890Y-70774000D01*
X117113110Y-70774000D01*
X117154591Y-70778085D01*
X117154591Y-70778085D01*
G37*
G36*
X118729591Y-70778085D02*
G01*
X118763569Y-70788393D01*
X118794890Y-70805134D01*
X118822339Y-70827661D01*
X118844866Y-70855110D01*
X118861607Y-70886431D01*
X118871915Y-70920409D01*
X118876000Y-70961890D01*
X118876000Y-71638110D01*
X118871915Y-71679591D01*
X118861607Y-71713569D01*
X118844866Y-71744890D01*
X118822339Y-71772339D01*
X118794890Y-71794866D01*
X118763569Y-71811607D01*
X118729591Y-71821915D01*
X118688110Y-71826000D01*
X118086890Y-71826000D01*
X118045409Y-71821915D01*
X118011431Y-71811607D01*
X117980110Y-71794866D01*
X117952661Y-71772339D01*
X117930134Y-71744890D01*
X117913393Y-71713569D01*
X117903085Y-71679591D01*
X117899000Y-71638110D01*
X117899000Y-70961890D01*
X117903085Y-70920409D01*
X117913393Y-70886431D01*
X117930134Y-70855110D01*
X117952661Y-70827661D01*
X117980110Y-70805134D01*
X118011431Y-70788393D01*
X118045409Y-70778085D01*
X118086890Y-70774000D01*
X118688110Y-70774000D01*
X118729591Y-70778085D01*
X118729591Y-70778085D01*
G37*
G36*
X147601938Y-71041716D02*
G01*
X147622557Y-71047971D01*
X147641553Y-71058124D01*
X147658208Y-71071792D01*
X147671876Y-71088447D01*
X147682029Y-71107443D01*
X147688284Y-71128062D01*
X147691000Y-71155640D01*
X147691000Y-71614360D01*
X147688284Y-71641938D01*
X147682029Y-71662557D01*
X147671876Y-71681553D01*
X147658208Y-71698208D01*
X147641553Y-71711876D01*
X147622557Y-71722029D01*
X147601938Y-71728284D01*
X147574360Y-71731000D01*
X147065640Y-71731000D01*
X147038062Y-71728284D01*
X147017443Y-71722029D01*
X146998447Y-71711876D01*
X146981792Y-71698208D01*
X146968124Y-71681553D01*
X146957971Y-71662557D01*
X146951716Y-71641938D01*
X146949000Y-71614360D01*
X146949000Y-71155640D01*
X146951716Y-71128062D01*
X146957971Y-71107443D01*
X146968124Y-71088447D01*
X146981792Y-71071792D01*
X146998447Y-71058124D01*
X147017443Y-71047971D01*
X147038062Y-71041716D01*
X147065640Y-71039000D01*
X147574360Y-71039000D01*
X147601938Y-71041716D01*
X147601938Y-71041716D01*
G37*
G36*
X149301000Y-71701000D02*
G01*
X148299000Y-71701000D01*
X148299000Y-70799000D01*
X149301000Y-70799000D01*
X149301000Y-71701000D01*
X149301000Y-71701000D01*
G37*
G36*
X126917000Y-71494000D02*
G01*
X124815000Y-71494000D01*
X124815000Y-70492000D01*
X126917000Y-70492000D01*
X126917000Y-71494000D01*
X126917000Y-71494000D01*
G37*
G36*
X143917000Y-71494000D02*
G01*
X141815000Y-71494000D01*
X141815000Y-70492000D01*
X143917000Y-70492000D01*
X143917000Y-71494000D01*
X143917000Y-71494000D01*
G37*
G36*
X120659000Y-71251000D02*
G01*
X119657000Y-71251000D01*
X119657000Y-70349000D01*
X120659000Y-70349000D01*
X120659000Y-71251000D01*
X120659000Y-71251000D01*
G37*
G36*
X110051000Y-70951000D02*
G01*
X108749000Y-70951000D01*
X108749000Y-69949000D01*
X110051000Y-69949000D01*
X110051000Y-70951000D01*
X110051000Y-70951000D01*
G37*
G36*
X147601938Y-70071716D02*
G01*
X147622557Y-70077971D01*
X147641553Y-70088124D01*
X147658208Y-70101792D01*
X147671876Y-70118447D01*
X147682029Y-70137443D01*
X147688284Y-70158062D01*
X147691000Y-70185640D01*
X147691000Y-70644360D01*
X147688284Y-70671938D01*
X147682029Y-70692557D01*
X147671876Y-70711553D01*
X147658208Y-70728208D01*
X147641553Y-70741876D01*
X147622557Y-70752029D01*
X147601938Y-70758284D01*
X147574360Y-70761000D01*
X147065640Y-70761000D01*
X147038062Y-70758284D01*
X147017443Y-70752029D01*
X146998447Y-70741876D01*
X146981792Y-70728208D01*
X146968124Y-70711553D01*
X146957971Y-70692557D01*
X146951716Y-70671938D01*
X146949000Y-70644360D01*
X146949000Y-70185640D01*
X146951716Y-70158062D01*
X146957971Y-70137443D01*
X146968124Y-70118447D01*
X146981792Y-70101792D01*
X146998447Y-70088124D01*
X147017443Y-70077971D01*
X147038062Y-70071716D01*
X147065640Y-70069000D01*
X147574360Y-70069000D01*
X147601938Y-70071716D01*
X147601938Y-70071716D01*
G37*
G36*
X151301000Y-70751000D02*
G01*
X150299000Y-70751000D01*
X150299000Y-69849000D01*
X151301000Y-69849000D01*
X151301000Y-70751000D01*
X151301000Y-70751000D01*
G37*
G36*
X112481938Y-69991716D02*
G01*
X112502557Y-69997971D01*
X112521553Y-70008124D01*
X112538208Y-70021792D01*
X112551876Y-70038447D01*
X112562029Y-70057443D01*
X112568284Y-70078062D01*
X112571000Y-70105640D01*
X112571000Y-70564360D01*
X112568284Y-70591938D01*
X112562029Y-70612557D01*
X112551876Y-70631553D01*
X112538208Y-70648208D01*
X112521553Y-70661876D01*
X112502557Y-70672029D01*
X112481938Y-70678284D01*
X112454360Y-70681000D01*
X111945640Y-70681000D01*
X111918062Y-70678284D01*
X111897443Y-70672029D01*
X111878447Y-70661876D01*
X111861792Y-70648208D01*
X111848124Y-70631553D01*
X111837971Y-70612557D01*
X111831716Y-70591938D01*
X111829000Y-70564360D01*
X111829000Y-70105640D01*
X111831716Y-70078062D01*
X111837971Y-70057443D01*
X111848124Y-70038447D01*
X111861792Y-70021792D01*
X111878447Y-70008124D01*
X111897443Y-69997971D01*
X111918062Y-69991716D01*
X111945640Y-69989000D01*
X112454360Y-69989000D01*
X112481938Y-69991716D01*
X112481938Y-69991716D01*
G37*
G36*
X111481938Y-69991716D02*
G01*
X111502557Y-69997971D01*
X111521553Y-70008124D01*
X111538208Y-70021792D01*
X111551876Y-70038447D01*
X111562029Y-70057443D01*
X111568284Y-70078062D01*
X111571000Y-70105640D01*
X111571000Y-70564360D01*
X111568284Y-70591938D01*
X111562029Y-70612557D01*
X111551876Y-70631553D01*
X111538208Y-70648208D01*
X111521553Y-70661876D01*
X111502557Y-70672029D01*
X111481938Y-70678284D01*
X111454360Y-70681000D01*
X110945640Y-70681000D01*
X110918062Y-70678284D01*
X110897443Y-70672029D01*
X110878447Y-70661876D01*
X110861792Y-70648208D01*
X110848124Y-70631553D01*
X110837971Y-70612557D01*
X110831716Y-70591938D01*
X110829000Y-70564360D01*
X110829000Y-70105640D01*
X110831716Y-70078062D01*
X110837971Y-70057443D01*
X110848124Y-70038447D01*
X110861792Y-70021792D01*
X110878447Y-70008124D01*
X110897443Y-69997971D01*
X110918062Y-69991716D01*
X110945640Y-69989000D01*
X111454360Y-69989000D01*
X111481938Y-69991716D01*
X111481938Y-69991716D01*
G37*
G36*
X155812903Y-68097075D02*
G01*
X155994810Y-68172423D01*
X156040571Y-68191378D01*
X156245466Y-68328285D01*
X156419715Y-68502534D01*
X156541774Y-68685208D01*
X156556623Y-68707431D01*
X156650925Y-68935097D01*
X156699000Y-69176786D01*
X156699000Y-69423214D01*
X156669532Y-69571360D01*
X156650925Y-69664903D01*
X156556622Y-69892571D01*
X156419715Y-70097466D01*
X156245466Y-70271715D01*
X156040571Y-70408622D01*
X156040570Y-70408623D01*
X156040569Y-70408623D01*
X155812903Y-70502925D01*
X155571214Y-70551000D01*
X155324786Y-70551000D01*
X155083097Y-70502925D01*
X154855431Y-70408623D01*
X154855430Y-70408623D01*
X154855429Y-70408622D01*
X154650534Y-70271715D01*
X154476285Y-70097466D01*
X154339378Y-69892571D01*
X154245075Y-69664903D01*
X154226468Y-69571360D01*
X154197000Y-69423214D01*
X154197000Y-69176786D01*
X154245075Y-68935097D01*
X154339377Y-68707431D01*
X154354226Y-68685208D01*
X154476285Y-68502534D01*
X154650534Y-68328285D01*
X154855429Y-68191378D01*
X154901191Y-68172423D01*
X155083097Y-68097075D01*
X155324786Y-68049000D01*
X155571214Y-68049000D01*
X155812903Y-68097075D01*
X155812903Y-68097075D01*
G37*
G36*
X122659000Y-70301000D02*
G01*
X121657000Y-70301000D01*
X121657000Y-69399000D01*
X122659000Y-69399000D01*
X122659000Y-70301000D01*
X122659000Y-70301000D01*
G37*
G36*
X126917000Y-70224000D02*
G01*
X124815000Y-70224000D01*
X124815000Y-69222000D01*
X126917000Y-69222000D01*
X126917000Y-70224000D01*
X126917000Y-70224000D01*
G37*
G36*
X143917000Y-70224000D02*
G01*
X141815000Y-70224000D01*
X141815000Y-69222000D01*
X143917000Y-69222000D01*
X143917000Y-70224000D01*
X143917000Y-70224000D01*
G37*
G36*
X105173500Y-69501886D02*
G01*
X105174102Y-69514138D01*
X105176649Y-69540000D01*
X105174102Y-69565862D01*
X105173500Y-69578114D01*
X105173500Y-69651406D01*
X105164543Y-69668164D01*
X105160415Y-69679701D01*
X105151744Y-69708284D01*
X105126854Y-69790336D01*
X105066406Y-69903425D01*
X104985054Y-70002554D01*
X104885925Y-70083906D01*
X104772836Y-70144354D01*
X104740904Y-70154040D01*
X104650118Y-70181580D01*
X104608895Y-70185640D01*
X104554474Y-70191000D01*
X103790526Y-70191000D01*
X103736105Y-70185640D01*
X103694882Y-70181580D01*
X103604096Y-70154040D01*
X103572164Y-70144354D01*
X103459075Y-70083906D01*
X103359946Y-70002554D01*
X103278594Y-69903425D01*
X103218146Y-69790336D01*
X103193256Y-69708284D01*
X103184587Y-69679708D01*
X103175213Y-69657075D01*
X103171500Y-69651518D01*
X103171500Y-69578114D01*
X103170898Y-69565862D01*
X103168351Y-69540000D01*
X103170898Y-69514138D01*
X103171500Y-69501886D01*
X103171500Y-68289000D01*
X105173500Y-68289000D01*
X105173500Y-69501886D01*
X105173500Y-69501886D01*
G37*
G36*
X149301000Y-69801000D02*
G01*
X148299000Y-69801000D01*
X148299000Y-68899000D01*
X149301000Y-68899000D01*
X149301000Y-69801000D01*
X149301000Y-69801000D01*
G37*
G36*
X111481938Y-69021716D02*
G01*
X111502557Y-69027971D01*
X111521553Y-69038124D01*
X111538208Y-69051792D01*
X111551876Y-69068447D01*
X111562029Y-69087443D01*
X111568284Y-69108062D01*
X111571000Y-69135640D01*
X111571000Y-69594360D01*
X111568284Y-69621938D01*
X111562029Y-69642557D01*
X111551876Y-69661553D01*
X111538208Y-69678208D01*
X111521553Y-69691876D01*
X111502557Y-69702029D01*
X111481938Y-69708284D01*
X111454360Y-69711000D01*
X110945640Y-69711000D01*
X110918062Y-69708284D01*
X110897443Y-69702029D01*
X110878447Y-69691876D01*
X110861792Y-69678208D01*
X110848124Y-69661553D01*
X110837971Y-69642557D01*
X110831716Y-69621938D01*
X110829000Y-69594360D01*
X110829000Y-69135640D01*
X110831716Y-69108062D01*
X110837971Y-69087443D01*
X110848124Y-69068447D01*
X110861792Y-69051792D01*
X110878447Y-69038124D01*
X110897443Y-69027971D01*
X110918062Y-69021716D01*
X110945640Y-69019000D01*
X111454360Y-69019000D01*
X111481938Y-69021716D01*
X111481938Y-69021716D01*
G37*
G36*
X112481938Y-69021716D02*
G01*
X112502557Y-69027971D01*
X112521553Y-69038124D01*
X112538208Y-69051792D01*
X112551876Y-69068447D01*
X112562029Y-69087443D01*
X112568284Y-69108062D01*
X112571000Y-69135640D01*
X112571000Y-69594360D01*
X112568284Y-69621938D01*
X112562029Y-69642557D01*
X112551876Y-69661553D01*
X112538208Y-69678208D01*
X112521553Y-69691876D01*
X112502557Y-69702029D01*
X112481938Y-69708284D01*
X112454360Y-69711000D01*
X111945640Y-69711000D01*
X111918062Y-69708284D01*
X111897443Y-69702029D01*
X111878447Y-69691876D01*
X111861792Y-69678208D01*
X111848124Y-69661553D01*
X111837971Y-69642557D01*
X111831716Y-69621938D01*
X111829000Y-69594360D01*
X111829000Y-69135640D01*
X111831716Y-69108062D01*
X111837971Y-69087443D01*
X111848124Y-69068447D01*
X111861792Y-69051792D01*
X111878447Y-69038124D01*
X111897443Y-69027971D01*
X111918062Y-69021716D01*
X111945640Y-69019000D01*
X112454360Y-69019000D01*
X112481938Y-69021716D01*
X112481938Y-69021716D01*
G37*
G36*
X147601938Y-68998716D02*
G01*
X147622557Y-69004971D01*
X147641553Y-69015124D01*
X147658208Y-69028792D01*
X147671876Y-69045447D01*
X147682029Y-69064443D01*
X147688284Y-69085062D01*
X147691000Y-69112640D01*
X147691000Y-69571360D01*
X147688284Y-69598938D01*
X147682029Y-69619557D01*
X147671876Y-69638553D01*
X147658208Y-69655208D01*
X147641553Y-69668876D01*
X147622557Y-69679029D01*
X147601938Y-69685284D01*
X147574360Y-69688000D01*
X147065640Y-69688000D01*
X147038062Y-69685284D01*
X147017443Y-69679029D01*
X146998447Y-69668876D01*
X146981792Y-69655208D01*
X146968124Y-69638553D01*
X146957971Y-69619557D01*
X146951716Y-69598938D01*
X146949000Y-69571360D01*
X146949000Y-69112640D01*
X146951716Y-69085062D01*
X146957971Y-69064443D01*
X146968124Y-69045447D01*
X146981792Y-69028792D01*
X146998447Y-69015124D01*
X147017443Y-69004971D01*
X147038062Y-68998716D01*
X147065640Y-68996000D01*
X147574360Y-68996000D01*
X147601938Y-68998716D01*
X147601938Y-68998716D01*
G37*
G36*
X120659000Y-69351000D02*
G01*
X119657000Y-69351000D01*
X119657000Y-68449000D01*
X120659000Y-68449000D01*
X120659000Y-69351000D01*
X120659000Y-69351000D01*
G37*
G36*
X107098848Y-62793820D02*
G01*
X107098850Y-62793821D01*
X107098851Y-62793821D01*
X107240074Y-62852317D01*
X107240077Y-62852319D01*
X107367169Y-62937239D01*
X107475261Y-63045331D01*
X107543945Y-63148124D01*
X107560183Y-63172426D01*
X107609957Y-63292592D01*
X107618680Y-63313652D01*
X107648500Y-63463569D01*
X107648500Y-63616431D01*
X107621065Y-63754360D01*
X107618679Y-63766351D01*
X107560183Y-63907574D01*
X107560181Y-63907577D01*
X107475261Y-64034669D01*
X107367169Y-64142761D01*
X107282440Y-64199375D01*
X107240074Y-64227683D01*
X107189772Y-64248519D01*
X107168164Y-64260068D01*
X107149222Y-64275614D01*
X107133677Y-64294556D01*
X107122126Y-64316166D01*
X107115013Y-64339615D01*
X107112611Y-64364001D01*
X107115013Y-64388387D01*
X107122126Y-64411836D01*
X107133677Y-64433447D01*
X107149223Y-64452389D01*
X107168165Y-64467934D01*
X107189775Y-64479485D01*
X107213224Y-64486598D01*
X107237610Y-64489000D01*
X107598500Y-64489000D01*
X107598500Y-67591000D01*
X107237610Y-67591000D01*
X107213224Y-67593402D01*
X107189775Y-67600515D01*
X107168164Y-67612066D01*
X107149222Y-67627611D01*
X107133677Y-67646553D01*
X107122126Y-67668164D01*
X107115013Y-67691613D01*
X107112611Y-67715999D01*
X107115013Y-67740385D01*
X107122126Y-67763834D01*
X107133677Y-67785445D01*
X107149222Y-67804387D01*
X107168164Y-67819932D01*
X107189772Y-67831481D01*
X107240074Y-67852317D01*
X107240075Y-67852318D01*
X107367169Y-67937239D01*
X107475261Y-68045331D01*
X107533703Y-68132796D01*
X107560183Y-68172426D01*
X107571190Y-68199000D01*
X107618680Y-68313652D01*
X107648500Y-68463569D01*
X107648500Y-68616431D01*
X107630400Y-68707429D01*
X107618679Y-68766351D01*
X107560183Y-68907574D01*
X107560181Y-68907577D01*
X107475261Y-69034669D01*
X107367169Y-69142761D01*
X107316245Y-69176787D01*
X107240074Y-69227683D01*
X107098851Y-69286179D01*
X107098850Y-69286179D01*
X107098848Y-69286180D01*
X106948931Y-69316000D01*
X106796069Y-69316000D01*
X106646152Y-69286180D01*
X106646150Y-69286179D01*
X106646149Y-69286179D01*
X106504926Y-69227683D01*
X106428755Y-69176787D01*
X106377831Y-69142761D01*
X106269739Y-69034669D01*
X106184819Y-68907577D01*
X106184817Y-68907574D01*
X106126321Y-68766351D01*
X106114601Y-68707429D01*
X106096500Y-68616431D01*
X106096500Y-68463569D01*
X106126320Y-68313652D01*
X106173810Y-68199000D01*
X106184817Y-68172426D01*
X106211297Y-68132796D01*
X106269739Y-68045331D01*
X106377831Y-67937239D01*
X106504925Y-67852318D01*
X106504926Y-67852317D01*
X106555228Y-67831481D01*
X106576836Y-67819932D01*
X106595778Y-67804386D01*
X106611323Y-67785444D01*
X106622874Y-67763834D01*
X106629987Y-67740385D01*
X106632389Y-67715999D01*
X106629987Y-67691613D01*
X106622874Y-67668164D01*
X106611323Y-67646553D01*
X106595777Y-67627611D01*
X106576835Y-67612066D01*
X106555225Y-67600515D01*
X106531776Y-67593402D01*
X106507390Y-67591000D01*
X106146500Y-67591000D01*
X106146500Y-64489000D01*
X106507390Y-64489000D01*
X106531776Y-64486598D01*
X106555225Y-64479485D01*
X106576836Y-64467934D01*
X106595778Y-64452389D01*
X106611323Y-64433447D01*
X106622874Y-64411836D01*
X106629987Y-64388387D01*
X106632389Y-64364001D01*
X106629987Y-64339615D01*
X106622874Y-64316166D01*
X106611323Y-64294555D01*
X106595778Y-64275613D01*
X106576836Y-64260068D01*
X106555228Y-64248519D01*
X106504926Y-64227683D01*
X106462560Y-64199375D01*
X106377831Y-64142761D01*
X106269739Y-64034669D01*
X106184819Y-63907577D01*
X106184817Y-63907574D01*
X106126321Y-63766351D01*
X106123936Y-63754360D01*
X106096500Y-63616431D01*
X106096500Y-63463569D01*
X106126320Y-63313652D01*
X106135043Y-63292592D01*
X106184817Y-63172426D01*
X106201055Y-63148124D01*
X106269739Y-63045331D01*
X106377831Y-62937239D01*
X106504923Y-62852319D01*
X106504926Y-62852317D01*
X106646149Y-62793821D01*
X106646150Y-62793821D01*
X106646152Y-62793820D01*
X106796069Y-62764000D01*
X106948931Y-62764000D01*
X107098848Y-62793820D01*
X107098848Y-62793820D01*
G37*
G36*
X126917000Y-68954000D02*
G01*
X124815000Y-68954000D01*
X124815000Y-67952000D01*
X126917000Y-67952000D01*
X126917000Y-68954000D01*
X126917000Y-68954000D01*
G37*
G36*
X143917000Y-68954000D02*
G01*
X141815000Y-68954000D01*
X141815000Y-67952000D01*
X143917000Y-67952000D01*
X143917000Y-68954000D01*
X143917000Y-68954000D01*
G37*
G36*
X147601938Y-68028716D02*
G01*
X147622557Y-68034971D01*
X147641553Y-68045124D01*
X147658208Y-68058792D01*
X147671876Y-68075447D01*
X147682029Y-68094443D01*
X147688284Y-68115062D01*
X147691000Y-68142640D01*
X147691000Y-68601360D01*
X147688284Y-68628938D01*
X147682029Y-68649557D01*
X147671876Y-68668553D01*
X147658208Y-68685208D01*
X147641553Y-68698876D01*
X147622557Y-68709029D01*
X147601938Y-68715284D01*
X147574360Y-68718000D01*
X147065640Y-68718000D01*
X147038062Y-68715284D01*
X147017443Y-68709029D01*
X146998447Y-68698876D01*
X146981792Y-68685208D01*
X146968124Y-68668553D01*
X146957971Y-68649557D01*
X146951716Y-68628938D01*
X146949000Y-68601360D01*
X146949000Y-68142640D01*
X146951716Y-68115062D01*
X146957971Y-68094443D01*
X146968124Y-68075447D01*
X146981792Y-68058792D01*
X146998447Y-68045124D01*
X147017443Y-68034971D01*
X147038062Y-68028716D01*
X147065640Y-68026000D01*
X147574360Y-68026000D01*
X147601938Y-68028716D01*
X147601938Y-68028716D01*
G37*
G36*
X112809355Y-63640083D02*
G01*
X112814029Y-63641501D01*
X112818330Y-63643800D01*
X112824702Y-63649029D01*
X112845076Y-63662643D01*
X112867715Y-63672020D01*
X112891749Y-63676800D01*
X112916253Y-63676800D01*
X112940286Y-63672019D01*
X112962925Y-63662642D01*
X112983298Y-63649029D01*
X112989670Y-63643800D01*
X112993971Y-63641501D01*
X112998645Y-63640083D01*
X113009641Y-63639000D01*
X113298359Y-63639000D01*
X113309355Y-63640083D01*
X113314029Y-63641501D01*
X113318330Y-63643800D01*
X113324702Y-63649029D01*
X113345076Y-63662643D01*
X113367715Y-63672020D01*
X113391749Y-63676800D01*
X113416253Y-63676800D01*
X113440286Y-63672019D01*
X113462925Y-63662642D01*
X113483298Y-63649029D01*
X113489670Y-63643800D01*
X113493971Y-63641501D01*
X113498645Y-63640083D01*
X113509641Y-63639000D01*
X113798359Y-63639000D01*
X113809355Y-63640083D01*
X113814029Y-63641501D01*
X113818330Y-63643800D01*
X113824702Y-63649029D01*
X113845076Y-63662643D01*
X113867715Y-63672020D01*
X113891749Y-63676800D01*
X113916253Y-63676800D01*
X113940286Y-63672019D01*
X113962925Y-63662642D01*
X113983298Y-63649029D01*
X113989670Y-63643800D01*
X113993971Y-63641501D01*
X113998645Y-63640083D01*
X114009641Y-63639000D01*
X114298359Y-63639000D01*
X114309355Y-63640083D01*
X114314029Y-63641501D01*
X114318330Y-63643800D01*
X114324702Y-63649029D01*
X114345076Y-63662643D01*
X114367715Y-63672020D01*
X114391749Y-63676800D01*
X114416253Y-63676800D01*
X114440286Y-63672019D01*
X114462925Y-63662642D01*
X114483298Y-63649029D01*
X114489670Y-63643800D01*
X114493971Y-63641501D01*
X114498645Y-63640083D01*
X114509641Y-63639000D01*
X114798359Y-63639000D01*
X114809355Y-63640083D01*
X114814029Y-63641501D01*
X114818330Y-63643800D01*
X114824702Y-63649029D01*
X114845076Y-63662643D01*
X114867715Y-63672020D01*
X114891749Y-63676800D01*
X114916253Y-63676800D01*
X114940286Y-63672019D01*
X114962925Y-63662642D01*
X114983298Y-63649029D01*
X114989670Y-63643800D01*
X114993971Y-63641501D01*
X114998645Y-63640083D01*
X115009641Y-63639000D01*
X115298359Y-63639000D01*
X115309355Y-63640083D01*
X115314029Y-63641501D01*
X115318331Y-63643800D01*
X115322104Y-63646896D01*
X115325200Y-63650669D01*
X115327499Y-63654971D01*
X115328917Y-63659645D01*
X115330000Y-63670641D01*
X115330000Y-64489001D01*
X115332402Y-64513387D01*
X115339515Y-64536836D01*
X115351066Y-64558447D01*
X115366611Y-64577389D01*
X115385553Y-64592934D01*
X115407164Y-64604485D01*
X115430613Y-64611598D01*
X115454999Y-64614000D01*
X116273359Y-64614000D01*
X116284355Y-64615083D01*
X116289029Y-64616501D01*
X116293331Y-64618800D01*
X116297104Y-64621896D01*
X116300200Y-64625669D01*
X116302499Y-64629971D01*
X116303917Y-64634645D01*
X116305000Y-64645641D01*
X116305000Y-64934359D01*
X116303917Y-64945355D01*
X116302499Y-64950029D01*
X116300200Y-64954330D01*
X116294971Y-64960702D01*
X116281357Y-64981076D01*
X116271980Y-65003715D01*
X116267200Y-65027749D01*
X116267200Y-65052253D01*
X116271981Y-65076286D01*
X116281358Y-65098925D01*
X116294971Y-65119298D01*
X116300200Y-65125670D01*
X116302499Y-65129971D01*
X116303917Y-65134645D01*
X116305000Y-65145641D01*
X116305000Y-65434359D01*
X116303917Y-65445355D01*
X116302499Y-65450029D01*
X116300200Y-65454330D01*
X116294971Y-65460702D01*
X116281357Y-65481076D01*
X116271980Y-65503715D01*
X116267200Y-65527749D01*
X116267200Y-65552253D01*
X116271981Y-65576286D01*
X116281358Y-65598925D01*
X116294971Y-65619298D01*
X116300200Y-65625670D01*
X116302499Y-65629971D01*
X116303917Y-65634645D01*
X116305000Y-65645641D01*
X116305000Y-65934359D01*
X116303917Y-65945355D01*
X116302499Y-65950029D01*
X116300200Y-65954330D01*
X116294971Y-65960702D01*
X116281357Y-65981076D01*
X116271980Y-66003715D01*
X116267200Y-66027749D01*
X116267200Y-66052253D01*
X116271981Y-66076286D01*
X116281358Y-66098925D01*
X116294971Y-66119298D01*
X116300200Y-66125670D01*
X116302499Y-66129971D01*
X116303917Y-66134645D01*
X116305000Y-66145641D01*
X116305000Y-66434359D01*
X116303917Y-66445355D01*
X116302499Y-66450029D01*
X116300200Y-66454330D01*
X116294971Y-66460702D01*
X116281357Y-66481076D01*
X116271980Y-66503715D01*
X116267200Y-66527749D01*
X116267200Y-66552253D01*
X116271981Y-66576286D01*
X116281358Y-66598925D01*
X116294971Y-66619298D01*
X116300200Y-66625670D01*
X116302499Y-66629971D01*
X116303917Y-66634645D01*
X116305000Y-66645641D01*
X116305000Y-66934359D01*
X116303917Y-66945355D01*
X116302499Y-66950029D01*
X116300200Y-66954330D01*
X116294971Y-66960702D01*
X116281357Y-66981076D01*
X116271980Y-67003715D01*
X116267200Y-67027749D01*
X116267200Y-67052253D01*
X116271981Y-67076286D01*
X116281358Y-67098925D01*
X116294971Y-67119298D01*
X116300200Y-67125670D01*
X116302499Y-67129971D01*
X116303917Y-67134645D01*
X116305000Y-67145641D01*
X116305000Y-67434359D01*
X116303917Y-67445355D01*
X116302499Y-67450029D01*
X116300200Y-67454331D01*
X116297104Y-67458104D01*
X116293331Y-67461200D01*
X116289029Y-67463499D01*
X116284355Y-67464917D01*
X116273359Y-67466000D01*
X115454999Y-67466000D01*
X115430613Y-67468402D01*
X115407164Y-67475515D01*
X115385553Y-67487066D01*
X115366611Y-67502611D01*
X115351066Y-67521553D01*
X115339515Y-67543164D01*
X115332402Y-67566613D01*
X115330000Y-67590999D01*
X115330000Y-68409359D01*
X115328917Y-68420355D01*
X115327499Y-68425029D01*
X115325200Y-68429331D01*
X115322104Y-68433104D01*
X115318331Y-68436200D01*
X115314029Y-68438499D01*
X115309355Y-68439917D01*
X115298359Y-68441000D01*
X115009641Y-68441000D01*
X114998645Y-68439917D01*
X114993971Y-68438499D01*
X114989670Y-68436200D01*
X114983298Y-68430971D01*
X114962924Y-68417357D01*
X114940285Y-68407980D01*
X114916251Y-68403200D01*
X114891747Y-68403200D01*
X114867714Y-68407981D01*
X114845075Y-68417358D01*
X114824702Y-68430971D01*
X114818330Y-68436200D01*
X114814029Y-68438499D01*
X114809355Y-68439917D01*
X114798359Y-68441000D01*
X114509641Y-68441000D01*
X114498645Y-68439917D01*
X114493971Y-68438499D01*
X114489670Y-68436200D01*
X114483298Y-68430971D01*
X114462924Y-68417357D01*
X114440285Y-68407980D01*
X114416251Y-68403200D01*
X114391747Y-68403200D01*
X114367714Y-68407981D01*
X114345075Y-68417358D01*
X114324702Y-68430971D01*
X114318330Y-68436200D01*
X114314029Y-68438499D01*
X114309355Y-68439917D01*
X114298359Y-68441000D01*
X114009641Y-68441000D01*
X113998645Y-68439917D01*
X113993971Y-68438499D01*
X113989670Y-68436200D01*
X113983298Y-68430971D01*
X113962924Y-68417357D01*
X113940285Y-68407980D01*
X113916251Y-68403200D01*
X113891747Y-68403200D01*
X113867714Y-68407981D01*
X113845075Y-68417358D01*
X113824702Y-68430971D01*
X113818330Y-68436200D01*
X113814029Y-68438499D01*
X113809355Y-68439917D01*
X113798359Y-68441000D01*
X113509641Y-68441000D01*
X113498645Y-68439917D01*
X113493971Y-68438499D01*
X113489670Y-68436200D01*
X113483298Y-68430971D01*
X113462924Y-68417357D01*
X113440285Y-68407980D01*
X113416251Y-68403200D01*
X113391747Y-68403200D01*
X113367714Y-68407981D01*
X113345075Y-68417358D01*
X113324702Y-68430971D01*
X113318330Y-68436200D01*
X113314029Y-68438499D01*
X113309355Y-68439917D01*
X113298359Y-68441000D01*
X113009641Y-68441000D01*
X112998645Y-68439917D01*
X112993971Y-68438499D01*
X112989670Y-68436200D01*
X112983298Y-68430971D01*
X112962924Y-68417357D01*
X112940285Y-68407980D01*
X112916251Y-68403200D01*
X112891747Y-68403200D01*
X112867714Y-68407981D01*
X112845075Y-68417358D01*
X112824702Y-68430971D01*
X112818330Y-68436200D01*
X112814029Y-68438499D01*
X112809355Y-68439917D01*
X112798359Y-68441000D01*
X112509641Y-68441000D01*
X112498645Y-68439917D01*
X112493971Y-68438499D01*
X112489669Y-68436200D01*
X112485896Y-68433104D01*
X112482800Y-68429331D01*
X112480501Y-68425029D01*
X112479083Y-68420355D01*
X112478000Y-68409359D01*
X112478000Y-67590999D01*
X112475598Y-67566613D01*
X112468485Y-67543164D01*
X112456934Y-67521553D01*
X112441389Y-67502611D01*
X112422447Y-67487066D01*
X112400836Y-67475515D01*
X112377387Y-67468402D01*
X112353001Y-67466000D01*
X111534641Y-67466000D01*
X111523645Y-67464917D01*
X111518971Y-67463499D01*
X111514669Y-67461200D01*
X111510896Y-67458104D01*
X111507800Y-67454331D01*
X111505501Y-67450029D01*
X111504083Y-67445355D01*
X111503000Y-67434359D01*
X111503000Y-67145641D01*
X111504083Y-67134645D01*
X111505501Y-67129971D01*
X111507800Y-67125670D01*
X111513029Y-67119298D01*
X111526643Y-67098924D01*
X111536020Y-67076285D01*
X111540800Y-67052251D01*
X111540800Y-67027747D01*
X111536019Y-67003714D01*
X111526642Y-66981075D01*
X111513029Y-66960702D01*
X111507800Y-66954330D01*
X111505501Y-66950029D01*
X111504083Y-66945355D01*
X111503000Y-66934359D01*
X111503000Y-66645641D01*
X111504083Y-66634645D01*
X111505501Y-66629971D01*
X111507800Y-66625670D01*
X111513029Y-66619298D01*
X111526643Y-66598924D01*
X111536020Y-66576285D01*
X111540800Y-66552251D01*
X111540800Y-66527747D01*
X111536019Y-66503714D01*
X111526642Y-66481075D01*
X111513029Y-66460702D01*
X111507800Y-66454330D01*
X111505501Y-66450029D01*
X111504083Y-66445355D01*
X111503000Y-66434359D01*
X111503000Y-66145641D01*
X111504083Y-66134645D01*
X111505501Y-66129971D01*
X111507800Y-66125670D01*
X111513029Y-66119298D01*
X111526643Y-66098924D01*
X111536020Y-66076285D01*
X111540800Y-66052251D01*
X111540800Y-66027747D01*
X111536019Y-66003714D01*
X111526642Y-65981075D01*
X111513029Y-65960702D01*
X111507800Y-65954330D01*
X111505501Y-65950029D01*
X111504083Y-65945355D01*
X111503000Y-65934359D01*
X111503000Y-65645641D01*
X111504083Y-65634645D01*
X111505501Y-65629971D01*
X111507800Y-65625670D01*
X111513029Y-65619298D01*
X111526643Y-65598924D01*
X111536020Y-65576285D01*
X111540800Y-65552251D01*
X111540800Y-65527747D01*
X111536019Y-65503714D01*
X111526642Y-65481075D01*
X111513029Y-65460702D01*
X111507800Y-65454330D01*
X111505501Y-65450029D01*
X111504083Y-65445355D01*
X111503000Y-65434359D01*
X111503000Y-65145641D01*
X111504083Y-65134645D01*
X111505501Y-65129971D01*
X111507800Y-65125670D01*
X111513029Y-65119298D01*
X111526643Y-65098924D01*
X111536020Y-65076285D01*
X111540800Y-65052251D01*
X111540800Y-65027747D01*
X111536019Y-65003714D01*
X111526642Y-64981075D01*
X111513029Y-64960702D01*
X111507800Y-64954330D01*
X111505501Y-64950029D01*
X111504083Y-64945355D01*
X111503000Y-64934359D01*
X111503000Y-64645641D01*
X111504083Y-64634645D01*
X111505501Y-64629971D01*
X111507800Y-64625669D01*
X111510896Y-64621896D01*
X111514669Y-64618800D01*
X111518971Y-64616501D01*
X111523645Y-64615083D01*
X111534641Y-64614000D01*
X112353001Y-64614000D01*
X112377387Y-64611598D01*
X112400836Y-64604485D01*
X112422447Y-64592934D01*
X112441389Y-64577389D01*
X112456934Y-64558447D01*
X112468485Y-64536836D01*
X112475598Y-64513387D01*
X112478000Y-64489001D01*
X112478000Y-63670641D01*
X112479083Y-63659645D01*
X112480501Y-63654971D01*
X112482800Y-63650669D01*
X112485896Y-63646896D01*
X112489669Y-63643800D01*
X112493971Y-63641501D01*
X112498645Y-63640083D01*
X112509641Y-63639000D01*
X112798359Y-63639000D01*
X112809355Y-63640083D01*
X112809355Y-63640083D01*
G37*
G36*
X105173500Y-67841000D02*
G01*
X103171500Y-67841000D01*
X103171500Y-66239000D01*
X105173500Y-66239000D01*
X105173500Y-67841000D01*
X105173500Y-67841000D01*
G37*
G36*
X126917000Y-67684000D02*
G01*
X124815000Y-67684000D01*
X124815000Y-66682000D01*
X126917000Y-66682000D01*
X126917000Y-67684000D01*
X126917000Y-67684000D01*
G37*
G36*
X143917000Y-67684000D02*
G01*
X141815000Y-67684000D01*
X141815000Y-66682000D01*
X143917000Y-66682000D01*
X143917000Y-67684000D01*
X143917000Y-67684000D01*
G37*
G36*
X110051000Y-67651000D02*
G01*
X108749000Y-67651000D01*
X108749000Y-66649000D01*
X110051000Y-66649000D01*
X110051000Y-67651000D01*
X110051000Y-67651000D01*
G37*
G36*
X117981591Y-66571585D02*
G01*
X118015569Y-66581893D01*
X118046890Y-66598634D01*
X118074339Y-66621161D01*
X118096866Y-66648610D01*
X118113607Y-66679931D01*
X118123915Y-66713909D01*
X118128000Y-66755390D01*
X118128000Y-67356610D01*
X118123915Y-67398091D01*
X118113607Y-67432069D01*
X118096866Y-67463390D01*
X118074339Y-67490839D01*
X118046890Y-67513366D01*
X118015569Y-67530107D01*
X117981591Y-67540415D01*
X117940110Y-67544500D01*
X117263890Y-67544500D01*
X117222409Y-67540415D01*
X117188431Y-67530107D01*
X117157110Y-67513366D01*
X117129661Y-67490839D01*
X117107134Y-67463390D01*
X117090393Y-67432069D01*
X117080085Y-67398091D01*
X117076000Y-67356610D01*
X117076000Y-66755390D01*
X117080085Y-66713909D01*
X117090393Y-66679931D01*
X117107134Y-66648610D01*
X117129661Y-66621161D01*
X117157110Y-66598634D01*
X117188431Y-66581893D01*
X117222409Y-66571585D01*
X117263890Y-66567500D01*
X117940110Y-66567500D01*
X117981591Y-66571585D01*
X117981591Y-66571585D01*
G37*
G36*
X120659000Y-67441000D02*
G01*
X119657000Y-67441000D01*
X119657000Y-66539000D01*
X120659000Y-66539000D01*
X120659000Y-67441000D01*
X120659000Y-67441000D01*
G37*
G36*
X122659000Y-66491000D02*
G01*
X121657000Y-66491000D01*
X121657000Y-65589000D01*
X122659000Y-65589000D01*
X122659000Y-66491000D01*
X122659000Y-66491000D01*
G37*
G36*
X126917000Y-66414000D02*
G01*
X124815000Y-66414000D01*
X124815000Y-65412000D01*
X126917000Y-65412000D01*
X126917000Y-66414000D01*
X126917000Y-66414000D01*
G37*
G36*
X143917000Y-66414000D02*
G01*
X141815000Y-66414000D01*
X141815000Y-65412000D01*
X143917000Y-65412000D01*
X143917000Y-66414000D01*
X143917000Y-66414000D01*
G37*
G36*
X117981591Y-64996585D02*
G01*
X118015569Y-65006893D01*
X118046890Y-65023634D01*
X118074339Y-65046161D01*
X118096866Y-65073610D01*
X118113607Y-65104931D01*
X118123915Y-65138909D01*
X118128000Y-65180390D01*
X118128000Y-65781610D01*
X118123915Y-65823091D01*
X118113607Y-65857069D01*
X118096866Y-65888390D01*
X118074339Y-65915839D01*
X118046890Y-65938366D01*
X118015569Y-65955107D01*
X117981591Y-65965415D01*
X117940110Y-65969500D01*
X117263890Y-65969500D01*
X117222409Y-65965415D01*
X117188431Y-65955107D01*
X117157110Y-65938366D01*
X117129661Y-65915839D01*
X117107134Y-65888390D01*
X117090393Y-65857069D01*
X117080085Y-65823091D01*
X117076000Y-65781610D01*
X117076000Y-65180390D01*
X117080085Y-65138909D01*
X117090393Y-65104931D01*
X117107134Y-65073610D01*
X117129661Y-65046161D01*
X117157110Y-65023634D01*
X117188431Y-65006893D01*
X117222409Y-64996585D01*
X117263890Y-64992500D01*
X117940110Y-64992500D01*
X117981591Y-64996585D01*
X117981591Y-64996585D01*
G37*
G36*
X105173500Y-65841000D02*
G01*
X103171500Y-65841000D01*
X103171500Y-64239000D01*
X105173500Y-64239000D01*
X105173500Y-65841000D01*
X105173500Y-65841000D01*
G37*
G36*
X158771938Y-64931716D02*
G01*
X158792557Y-64937971D01*
X158811553Y-64948124D01*
X158828208Y-64961792D01*
X158841876Y-64978447D01*
X158852029Y-64997443D01*
X158858284Y-65018062D01*
X158861000Y-65045640D01*
X158861000Y-65554360D01*
X158858284Y-65581938D01*
X158852029Y-65602557D01*
X158841876Y-65621553D01*
X158828208Y-65638208D01*
X158811553Y-65651876D01*
X158792557Y-65662029D01*
X158771938Y-65668284D01*
X158744360Y-65671000D01*
X158285640Y-65671000D01*
X158258062Y-65668284D01*
X158237443Y-65662029D01*
X158218447Y-65651876D01*
X158201792Y-65638208D01*
X158188124Y-65621553D01*
X158177971Y-65602557D01*
X158171716Y-65581938D01*
X158169000Y-65554360D01*
X158169000Y-65045640D01*
X158171716Y-65018062D01*
X158177971Y-64997443D01*
X158188124Y-64978447D01*
X158201792Y-64961792D01*
X158218447Y-64948124D01*
X158237443Y-64937971D01*
X158258062Y-64931716D01*
X158285640Y-64929000D01*
X158744360Y-64929000D01*
X158771938Y-64931716D01*
X158771938Y-64931716D01*
G37*
G36*
X150941938Y-64931716D02*
G01*
X150962557Y-64937971D01*
X150981553Y-64948124D01*
X150998208Y-64961792D01*
X151011876Y-64978447D01*
X151022029Y-64997443D01*
X151028284Y-65018062D01*
X151031000Y-65045640D01*
X151031000Y-65554360D01*
X151028284Y-65581938D01*
X151022029Y-65602557D01*
X151011876Y-65621553D01*
X150998208Y-65638208D01*
X150981553Y-65651876D01*
X150962557Y-65662029D01*
X150941938Y-65668284D01*
X150914360Y-65671000D01*
X150455640Y-65671000D01*
X150428062Y-65668284D01*
X150407443Y-65662029D01*
X150388447Y-65651876D01*
X150371792Y-65638208D01*
X150358124Y-65621553D01*
X150347971Y-65602557D01*
X150341716Y-65581938D01*
X150339000Y-65554360D01*
X150339000Y-65045640D01*
X150341716Y-65018062D01*
X150347971Y-64997443D01*
X150358124Y-64978447D01*
X150371792Y-64961792D01*
X150388447Y-64948124D01*
X150407443Y-64937971D01*
X150428062Y-64931716D01*
X150455640Y-64929000D01*
X150914360Y-64929000D01*
X150941938Y-64931716D01*
X150941938Y-64931716D01*
G37*
G36*
X152771938Y-64931716D02*
G01*
X152792557Y-64937971D01*
X152811553Y-64948124D01*
X152828208Y-64961792D01*
X152841876Y-64978447D01*
X152852029Y-64997443D01*
X152858284Y-65018062D01*
X152861000Y-65045640D01*
X152861000Y-65554360D01*
X152858284Y-65581938D01*
X152852029Y-65602557D01*
X152841876Y-65621553D01*
X152828208Y-65638208D01*
X152811553Y-65651876D01*
X152792557Y-65662029D01*
X152771938Y-65668284D01*
X152744360Y-65671000D01*
X152285640Y-65671000D01*
X152258062Y-65668284D01*
X152237443Y-65662029D01*
X152218447Y-65651876D01*
X152201792Y-65638208D01*
X152188124Y-65621553D01*
X152177971Y-65602557D01*
X152171716Y-65581938D01*
X152169000Y-65554360D01*
X152169000Y-65045640D01*
X152171716Y-65018062D01*
X152177971Y-64997443D01*
X152188124Y-64978447D01*
X152201792Y-64961792D01*
X152218447Y-64948124D01*
X152237443Y-64937971D01*
X152258062Y-64931716D01*
X152285640Y-64929000D01*
X152744360Y-64929000D01*
X152771938Y-64931716D01*
X152771938Y-64931716D01*
G37*
G36*
X149971938Y-64931716D02*
G01*
X149992557Y-64937971D01*
X150011553Y-64948124D01*
X150028208Y-64961792D01*
X150041876Y-64978447D01*
X150052029Y-64997443D01*
X150058284Y-65018062D01*
X150061000Y-65045640D01*
X150061000Y-65554360D01*
X150058284Y-65581938D01*
X150052029Y-65602557D01*
X150041876Y-65621553D01*
X150028208Y-65638208D01*
X150011553Y-65651876D01*
X149992557Y-65662029D01*
X149971938Y-65668284D01*
X149944360Y-65671000D01*
X149485640Y-65671000D01*
X149458062Y-65668284D01*
X149437443Y-65662029D01*
X149418447Y-65651876D01*
X149401792Y-65638208D01*
X149388124Y-65621553D01*
X149377971Y-65602557D01*
X149371716Y-65581938D01*
X149369000Y-65554360D01*
X149369000Y-65045640D01*
X149371716Y-65018062D01*
X149377971Y-64997443D01*
X149388124Y-64978447D01*
X149401792Y-64961792D01*
X149418447Y-64948124D01*
X149437443Y-64937971D01*
X149458062Y-64931716D01*
X149485640Y-64929000D01*
X149944360Y-64929000D01*
X149971938Y-64931716D01*
X149971938Y-64931716D01*
G37*
G36*
X159741938Y-64931716D02*
G01*
X159762557Y-64937971D01*
X159781553Y-64948124D01*
X159798208Y-64961792D01*
X159811876Y-64978447D01*
X159822029Y-64997443D01*
X159828284Y-65018062D01*
X159831000Y-65045640D01*
X159831000Y-65554360D01*
X159828284Y-65581938D01*
X159822029Y-65602557D01*
X159811876Y-65621553D01*
X159798208Y-65638208D01*
X159781553Y-65651876D01*
X159762557Y-65662029D01*
X159741938Y-65668284D01*
X159714360Y-65671000D01*
X159255640Y-65671000D01*
X159228062Y-65668284D01*
X159207443Y-65662029D01*
X159188447Y-65651876D01*
X159171792Y-65638208D01*
X159158124Y-65621553D01*
X159147971Y-65602557D01*
X159141716Y-65581938D01*
X159139000Y-65554360D01*
X159139000Y-65045640D01*
X159141716Y-65018062D01*
X159147971Y-64997443D01*
X159158124Y-64978447D01*
X159171792Y-64961792D01*
X159188447Y-64948124D01*
X159207443Y-64937971D01*
X159228062Y-64931716D01*
X159255640Y-64929000D01*
X159714360Y-64929000D01*
X159741938Y-64931716D01*
X159741938Y-64931716D01*
G37*
G36*
X153741938Y-64931716D02*
G01*
X153762557Y-64937971D01*
X153781553Y-64948124D01*
X153798208Y-64961792D01*
X153811876Y-64978447D01*
X153822029Y-64997443D01*
X153828284Y-65018062D01*
X153831000Y-65045640D01*
X153831000Y-65554360D01*
X153828284Y-65581938D01*
X153822029Y-65602557D01*
X153811876Y-65621553D01*
X153798208Y-65638208D01*
X153781553Y-65651876D01*
X153762557Y-65662029D01*
X153741938Y-65668284D01*
X153714360Y-65671000D01*
X153255640Y-65671000D01*
X153228062Y-65668284D01*
X153207443Y-65662029D01*
X153188447Y-65651876D01*
X153171792Y-65638208D01*
X153158124Y-65621553D01*
X153147971Y-65602557D01*
X153141716Y-65581938D01*
X153139000Y-65554360D01*
X153139000Y-65045640D01*
X153141716Y-65018062D01*
X153147971Y-64997443D01*
X153158124Y-64978447D01*
X153171792Y-64961792D01*
X153188447Y-64948124D01*
X153207443Y-64937971D01*
X153228062Y-64931716D01*
X153255640Y-64929000D01*
X153714360Y-64929000D01*
X153741938Y-64931716D01*
X153741938Y-64931716D01*
G37*
G36*
X155671938Y-64931716D02*
G01*
X155692557Y-64937971D01*
X155711553Y-64948124D01*
X155728208Y-64961792D01*
X155741876Y-64978447D01*
X155752029Y-64997443D01*
X155758284Y-65018062D01*
X155761000Y-65045640D01*
X155761000Y-65554360D01*
X155758284Y-65581938D01*
X155752029Y-65602557D01*
X155741876Y-65621553D01*
X155728208Y-65638208D01*
X155711553Y-65651876D01*
X155692557Y-65662029D01*
X155671938Y-65668284D01*
X155644360Y-65671000D01*
X155185640Y-65671000D01*
X155158062Y-65668284D01*
X155137443Y-65662029D01*
X155118447Y-65651876D01*
X155101792Y-65638208D01*
X155088124Y-65621553D01*
X155077971Y-65602557D01*
X155071716Y-65581938D01*
X155069000Y-65554360D01*
X155069000Y-65045640D01*
X155071716Y-65018062D01*
X155077971Y-64997443D01*
X155088124Y-64978447D01*
X155101792Y-64961792D01*
X155118447Y-64948124D01*
X155137443Y-64937971D01*
X155158062Y-64931716D01*
X155185640Y-64929000D01*
X155644360Y-64929000D01*
X155671938Y-64931716D01*
X155671938Y-64931716D01*
G37*
G36*
X156641938Y-64931716D02*
G01*
X156662557Y-64937971D01*
X156681553Y-64948124D01*
X156698208Y-64961792D01*
X156711876Y-64978447D01*
X156722029Y-64997443D01*
X156728284Y-65018062D01*
X156731000Y-65045640D01*
X156731000Y-65554360D01*
X156728284Y-65581938D01*
X156722029Y-65602557D01*
X156711876Y-65621553D01*
X156698208Y-65638208D01*
X156681553Y-65651876D01*
X156662557Y-65662029D01*
X156641938Y-65668284D01*
X156614360Y-65671000D01*
X156155640Y-65671000D01*
X156128062Y-65668284D01*
X156107443Y-65662029D01*
X156088447Y-65651876D01*
X156071792Y-65638208D01*
X156058124Y-65621553D01*
X156047971Y-65602557D01*
X156041716Y-65581938D01*
X156039000Y-65554360D01*
X156039000Y-65045640D01*
X156041716Y-65018062D01*
X156047971Y-64997443D01*
X156058124Y-64978447D01*
X156071792Y-64961792D01*
X156088447Y-64948124D01*
X156107443Y-64937971D01*
X156128062Y-64931716D01*
X156155640Y-64929000D01*
X156614360Y-64929000D01*
X156641938Y-64931716D01*
X156641938Y-64931716D01*
G37*
G36*
X120659000Y-65541000D02*
G01*
X119657000Y-65541000D01*
X119657000Y-64639000D01*
X120659000Y-64639000D01*
X120659000Y-65541000D01*
X120659000Y-65541000D01*
G37*
G36*
X143917000Y-65144000D02*
G01*
X141815000Y-65144000D01*
X141815000Y-64142000D01*
X143917000Y-64142000D01*
X143917000Y-65144000D01*
X143917000Y-65144000D01*
G37*
G36*
X126917000Y-65144000D02*
G01*
X124815000Y-65144000D01*
X124815000Y-64142000D01*
X126917000Y-64142000D01*
X126917000Y-65144000D01*
X126917000Y-65144000D01*
G37*
G36*
X152754591Y-63278085D02*
G01*
X152788569Y-63288393D01*
X152819890Y-63305134D01*
X152847339Y-63327661D01*
X152869866Y-63355110D01*
X152886607Y-63386431D01*
X152896915Y-63420409D01*
X152901000Y-63461890D01*
X152901000Y-64138110D01*
X152896915Y-64179591D01*
X152886607Y-64213569D01*
X152869866Y-64244890D01*
X152847339Y-64272339D01*
X152819890Y-64294866D01*
X152788569Y-64311607D01*
X152754591Y-64321915D01*
X152713110Y-64326000D01*
X152111890Y-64326000D01*
X152070409Y-64321915D01*
X152036431Y-64311607D01*
X152005110Y-64294866D01*
X151977661Y-64272339D01*
X151955134Y-64244890D01*
X151938393Y-64213569D01*
X151928085Y-64179591D01*
X151924000Y-64138110D01*
X151924000Y-63461890D01*
X151928085Y-63420409D01*
X151938393Y-63386431D01*
X151955134Y-63355110D01*
X151977661Y-63327661D01*
X152005110Y-63305134D01*
X152036431Y-63288393D01*
X152070409Y-63278085D01*
X152111890Y-63274000D01*
X152713110Y-63274000D01*
X152754591Y-63278085D01*
X152754591Y-63278085D01*
G37*
G36*
X151029591Y-63278085D02*
G01*
X151063569Y-63288393D01*
X151094890Y-63305134D01*
X151122339Y-63327661D01*
X151144866Y-63355110D01*
X151161607Y-63386431D01*
X151171915Y-63420409D01*
X151176000Y-63461890D01*
X151176000Y-64138110D01*
X151171915Y-64179591D01*
X151161607Y-64213569D01*
X151144866Y-64244890D01*
X151122339Y-64272339D01*
X151094890Y-64294866D01*
X151063569Y-64311607D01*
X151029591Y-64321915D01*
X150988110Y-64326000D01*
X150386890Y-64326000D01*
X150345409Y-64321915D01*
X150311431Y-64311607D01*
X150280110Y-64294866D01*
X150252661Y-64272339D01*
X150230134Y-64244890D01*
X150213393Y-64213569D01*
X150203085Y-64179591D01*
X150199000Y-64138110D01*
X150199000Y-63461890D01*
X150203085Y-63420409D01*
X150213393Y-63386431D01*
X150230134Y-63355110D01*
X150252661Y-63327661D01*
X150280110Y-63305134D01*
X150311431Y-63288393D01*
X150345409Y-63278085D01*
X150386890Y-63274000D01*
X150988110Y-63274000D01*
X151029591Y-63278085D01*
X151029591Y-63278085D01*
G37*
G36*
X149454591Y-63278085D02*
G01*
X149488569Y-63288393D01*
X149519890Y-63305134D01*
X149547339Y-63327661D01*
X149569866Y-63355110D01*
X149586607Y-63386431D01*
X149596915Y-63420409D01*
X149601000Y-63461890D01*
X149601000Y-64138110D01*
X149596915Y-64179591D01*
X149586607Y-64213569D01*
X149569866Y-64244890D01*
X149547339Y-64272339D01*
X149519890Y-64294866D01*
X149488569Y-64311607D01*
X149454591Y-64321915D01*
X149413110Y-64326000D01*
X148811890Y-64326000D01*
X148770409Y-64321915D01*
X148736431Y-64311607D01*
X148705110Y-64294866D01*
X148677661Y-64272339D01*
X148655134Y-64244890D01*
X148638393Y-64213569D01*
X148628085Y-64179591D01*
X148624000Y-64138110D01*
X148624000Y-63461890D01*
X148628085Y-63420409D01*
X148638393Y-63386431D01*
X148655134Y-63355110D01*
X148677661Y-63327661D01*
X148705110Y-63305134D01*
X148736431Y-63288393D01*
X148770409Y-63278085D01*
X148811890Y-63274000D01*
X149413110Y-63274000D01*
X149454591Y-63278085D01*
X149454591Y-63278085D01*
G37*
G36*
X160829591Y-63278085D02*
G01*
X160863569Y-63288393D01*
X160894890Y-63305134D01*
X160922339Y-63327661D01*
X160944866Y-63355110D01*
X160961607Y-63386431D01*
X160971915Y-63420409D01*
X160976000Y-63461890D01*
X160976000Y-64138110D01*
X160971915Y-64179591D01*
X160961607Y-64213569D01*
X160944866Y-64244890D01*
X160922339Y-64272339D01*
X160894890Y-64294866D01*
X160863569Y-64311607D01*
X160829591Y-64321915D01*
X160788110Y-64326000D01*
X160186890Y-64326000D01*
X160145409Y-64321915D01*
X160111431Y-64311607D01*
X160080110Y-64294866D01*
X160052661Y-64272339D01*
X160030134Y-64244890D01*
X160013393Y-64213569D01*
X160003085Y-64179591D01*
X159999000Y-64138110D01*
X159999000Y-63461890D01*
X160003085Y-63420409D01*
X160013393Y-63386431D01*
X160030134Y-63355110D01*
X160052661Y-63327661D01*
X160080110Y-63305134D01*
X160111431Y-63288393D01*
X160145409Y-63278085D01*
X160186890Y-63274000D01*
X160788110Y-63274000D01*
X160829591Y-63278085D01*
X160829591Y-63278085D01*
G37*
G36*
X154329591Y-63278085D02*
G01*
X154363569Y-63288393D01*
X154394890Y-63305134D01*
X154422339Y-63327661D01*
X154444866Y-63355110D01*
X154461607Y-63386431D01*
X154471915Y-63420409D01*
X154476000Y-63461890D01*
X154476000Y-64138110D01*
X154471915Y-64179591D01*
X154461607Y-64213569D01*
X154444866Y-64244890D01*
X154422339Y-64272339D01*
X154394890Y-64294866D01*
X154363569Y-64311607D01*
X154329591Y-64321915D01*
X154288110Y-64326000D01*
X153686890Y-64326000D01*
X153645409Y-64321915D01*
X153611431Y-64311607D01*
X153580110Y-64294866D01*
X153552661Y-64272339D01*
X153530134Y-64244890D01*
X153513393Y-64213569D01*
X153503085Y-64179591D01*
X153499000Y-64138110D01*
X153499000Y-63461890D01*
X153503085Y-63420409D01*
X153513393Y-63386431D01*
X153530134Y-63355110D01*
X153552661Y-63327661D01*
X153580110Y-63305134D01*
X153611431Y-63288393D01*
X153645409Y-63278085D01*
X153686890Y-63274000D01*
X154288110Y-63274000D01*
X154329591Y-63278085D01*
X154329591Y-63278085D01*
G37*
G36*
X156054591Y-63278085D02*
G01*
X156088569Y-63288393D01*
X156119890Y-63305134D01*
X156147339Y-63327661D01*
X156169866Y-63355110D01*
X156186607Y-63386431D01*
X156196915Y-63420409D01*
X156201000Y-63461890D01*
X156201000Y-64138110D01*
X156196915Y-64179591D01*
X156186607Y-64213569D01*
X156169866Y-64244890D01*
X156147339Y-64272339D01*
X156119890Y-64294866D01*
X156088569Y-64311607D01*
X156054591Y-64321915D01*
X156013110Y-64326000D01*
X155411890Y-64326000D01*
X155370409Y-64321915D01*
X155336431Y-64311607D01*
X155305110Y-64294866D01*
X155277661Y-64272339D01*
X155255134Y-64244890D01*
X155238393Y-64213569D01*
X155228085Y-64179591D01*
X155224000Y-64138110D01*
X155224000Y-63461890D01*
X155228085Y-63420409D01*
X155238393Y-63386431D01*
X155255134Y-63355110D01*
X155277661Y-63327661D01*
X155305110Y-63305134D01*
X155336431Y-63288393D01*
X155370409Y-63278085D01*
X155411890Y-63274000D01*
X156013110Y-63274000D01*
X156054591Y-63278085D01*
X156054591Y-63278085D01*
G37*
G36*
X157629591Y-63278085D02*
G01*
X157663569Y-63288393D01*
X157694890Y-63305134D01*
X157722339Y-63327661D01*
X157744866Y-63355110D01*
X157761607Y-63386431D01*
X157771915Y-63420409D01*
X157776000Y-63461890D01*
X157776000Y-64138110D01*
X157771915Y-64179591D01*
X157761607Y-64213569D01*
X157744866Y-64244890D01*
X157722339Y-64272339D01*
X157694890Y-64294866D01*
X157663569Y-64311607D01*
X157629591Y-64321915D01*
X157588110Y-64326000D01*
X156986890Y-64326000D01*
X156945409Y-64321915D01*
X156911431Y-64311607D01*
X156880110Y-64294866D01*
X156852661Y-64272339D01*
X156830134Y-64244890D01*
X156813393Y-64213569D01*
X156803085Y-64179591D01*
X156799000Y-64138110D01*
X156799000Y-63461890D01*
X156803085Y-63420409D01*
X156813393Y-63386431D01*
X156830134Y-63355110D01*
X156852661Y-63327661D01*
X156880110Y-63305134D01*
X156911431Y-63288393D01*
X156945409Y-63278085D01*
X156986890Y-63274000D01*
X157588110Y-63274000D01*
X157629591Y-63278085D01*
X157629591Y-63278085D01*
G37*
G36*
X159254591Y-63278085D02*
G01*
X159288569Y-63288393D01*
X159319890Y-63305134D01*
X159347339Y-63327661D01*
X159369866Y-63355110D01*
X159386607Y-63386431D01*
X159396915Y-63420409D01*
X159401000Y-63461890D01*
X159401000Y-64138110D01*
X159396915Y-64179591D01*
X159386607Y-64213569D01*
X159369866Y-64244890D01*
X159347339Y-64272339D01*
X159319890Y-64294866D01*
X159288569Y-64311607D01*
X159254591Y-64321915D01*
X159213110Y-64326000D01*
X158611890Y-64326000D01*
X158570409Y-64321915D01*
X158536431Y-64311607D01*
X158505110Y-64294866D01*
X158477661Y-64272339D01*
X158455134Y-64244890D01*
X158438393Y-64213569D01*
X158428085Y-64179591D01*
X158424000Y-64138110D01*
X158424000Y-63461890D01*
X158428085Y-63420409D01*
X158438393Y-63386431D01*
X158455134Y-63355110D01*
X158477661Y-63327661D01*
X158505110Y-63305134D01*
X158536431Y-63288393D01*
X158570409Y-63278085D01*
X158611890Y-63274000D01*
X159213110Y-63274000D01*
X159254591Y-63278085D01*
X159254591Y-63278085D01*
G37*
G36*
X126917000Y-63874000D02*
G01*
X124815000Y-63874000D01*
X124815000Y-62872000D01*
X126917000Y-62872000D01*
X126917000Y-63874000D01*
X126917000Y-63874000D01*
G37*
G36*
X143917000Y-63874000D02*
G01*
X141815000Y-63874000D01*
X141815000Y-62872000D01*
X143917000Y-62872000D01*
X143917000Y-63874000D01*
X143917000Y-63874000D01*
G37*
G36*
X117373938Y-63131716D02*
G01*
X117394557Y-63137971D01*
X117413553Y-63148124D01*
X117430208Y-63161792D01*
X117443876Y-63178447D01*
X117454029Y-63197443D01*
X117460284Y-63218062D01*
X117463000Y-63245640D01*
X117463000Y-63754360D01*
X117460284Y-63781938D01*
X117454029Y-63802557D01*
X117443876Y-63821553D01*
X117430208Y-63838208D01*
X117413553Y-63851876D01*
X117394557Y-63862029D01*
X117373938Y-63868284D01*
X117346360Y-63871000D01*
X116887640Y-63871000D01*
X116860062Y-63868284D01*
X116839443Y-63862029D01*
X116820447Y-63851876D01*
X116803792Y-63838208D01*
X116790124Y-63821553D01*
X116779971Y-63802557D01*
X116773716Y-63781938D01*
X116771000Y-63754360D01*
X116771000Y-63245640D01*
X116773716Y-63218062D01*
X116779971Y-63197443D01*
X116790124Y-63178447D01*
X116803792Y-63161792D01*
X116820447Y-63148124D01*
X116839443Y-63137971D01*
X116860062Y-63131716D01*
X116887640Y-63129000D01*
X117346360Y-63129000D01*
X117373938Y-63131716D01*
X117373938Y-63131716D01*
G37*
G36*
X118343938Y-63131716D02*
G01*
X118364557Y-63137971D01*
X118383553Y-63148124D01*
X118400208Y-63161792D01*
X118413876Y-63178447D01*
X118424029Y-63197443D01*
X118430284Y-63218062D01*
X118433000Y-63245640D01*
X118433000Y-63754360D01*
X118430284Y-63781938D01*
X118424029Y-63802557D01*
X118413876Y-63821553D01*
X118400208Y-63838208D01*
X118383553Y-63851876D01*
X118364557Y-63862029D01*
X118343938Y-63868284D01*
X118316360Y-63871000D01*
X117857640Y-63871000D01*
X117830062Y-63868284D01*
X117809443Y-63862029D01*
X117790447Y-63851876D01*
X117773792Y-63838208D01*
X117760124Y-63821553D01*
X117749971Y-63802557D01*
X117743716Y-63781938D01*
X117741000Y-63754360D01*
X117741000Y-63245640D01*
X117743716Y-63218062D01*
X117749971Y-63197443D01*
X117760124Y-63178447D01*
X117773792Y-63161792D01*
X117790447Y-63148124D01*
X117809443Y-63137971D01*
X117830062Y-63131716D01*
X117857640Y-63129000D01*
X118316360Y-63129000D01*
X118343938Y-63131716D01*
X118343938Y-63131716D01*
G37*
G36*
X104582821Y-61891792D02*
G01*
X104650118Y-61898420D01*
X104740904Y-61925960D01*
X104772836Y-61935646D01*
X104885925Y-61996094D01*
X104985054Y-62077446D01*
X105066406Y-62176575D01*
X105126854Y-62289664D01*
X105126855Y-62289668D01*
X105160413Y-62400292D01*
X105169787Y-62422925D01*
X105173500Y-62428482D01*
X105173500Y-62501886D01*
X105174102Y-62514138D01*
X105176649Y-62540000D01*
X105174102Y-62565862D01*
X105173500Y-62578114D01*
X105173500Y-63791000D01*
X103171500Y-63791000D01*
X103171500Y-62578114D01*
X103170898Y-62565862D01*
X103168351Y-62540000D01*
X103170898Y-62514138D01*
X103171500Y-62501886D01*
X103171500Y-62428594D01*
X103180457Y-62411836D01*
X103184585Y-62400299D01*
X103218145Y-62289668D01*
X103218146Y-62289664D01*
X103278594Y-62176575D01*
X103359946Y-62077446D01*
X103459075Y-61996094D01*
X103572164Y-61935646D01*
X103604096Y-61925960D01*
X103694882Y-61898420D01*
X103762179Y-61891792D01*
X103790526Y-61889000D01*
X104554474Y-61889000D01*
X104582821Y-61891792D01*
X104582821Y-61891792D01*
G37*
G36*
X123217938Y-62879716D02*
G01*
X123238557Y-62885971D01*
X123257553Y-62896124D01*
X123274208Y-62909792D01*
X123287876Y-62926447D01*
X123298029Y-62945443D01*
X123304284Y-62966062D01*
X123307000Y-62993640D01*
X123307000Y-63452360D01*
X123304284Y-63479938D01*
X123298029Y-63500557D01*
X123287876Y-63519553D01*
X123274208Y-63536208D01*
X123257553Y-63549876D01*
X123238557Y-63560029D01*
X123217938Y-63566284D01*
X123190360Y-63569000D01*
X122681640Y-63569000D01*
X122654062Y-63566284D01*
X122633443Y-63560029D01*
X122614447Y-63549876D01*
X122597792Y-63536208D01*
X122584124Y-63519553D01*
X122573971Y-63500557D01*
X122567716Y-63479938D01*
X122565000Y-63452360D01*
X122565000Y-62993640D01*
X122567716Y-62966062D01*
X122573971Y-62945443D01*
X122584124Y-62926447D01*
X122597792Y-62909792D01*
X122614447Y-62896124D01*
X122633443Y-62885971D01*
X122654062Y-62879716D01*
X122681640Y-62877000D01*
X123190360Y-62877000D01*
X123217938Y-62879716D01*
X123217938Y-62879716D01*
G37*
G36*
X121947938Y-62879716D02*
G01*
X121968557Y-62885971D01*
X121987553Y-62896124D01*
X122004208Y-62909792D01*
X122017876Y-62926447D01*
X122028029Y-62945443D01*
X122034284Y-62966062D01*
X122037000Y-62993640D01*
X122037000Y-63452360D01*
X122034284Y-63479938D01*
X122028029Y-63500557D01*
X122017876Y-63519553D01*
X122004208Y-63536208D01*
X121987553Y-63549876D01*
X121968557Y-63560029D01*
X121947938Y-63566284D01*
X121920360Y-63569000D01*
X121411640Y-63569000D01*
X121384062Y-63566284D01*
X121363443Y-63560029D01*
X121344447Y-63549876D01*
X121327792Y-63536208D01*
X121314124Y-63519553D01*
X121303971Y-63500557D01*
X121297716Y-63479938D01*
X121295000Y-63452360D01*
X121295000Y-62993640D01*
X121297716Y-62966062D01*
X121303971Y-62945443D01*
X121314124Y-62926447D01*
X121327792Y-62909792D01*
X121344447Y-62896124D01*
X121363443Y-62885971D01*
X121384062Y-62879716D01*
X121411640Y-62877000D01*
X121920360Y-62877000D01*
X121947938Y-62879716D01*
X121947938Y-62879716D01*
G37*
G36*
X111787938Y-62117716D02*
G01*
X111808557Y-62123971D01*
X111827553Y-62134124D01*
X111844208Y-62147792D01*
X111857876Y-62164447D01*
X111868029Y-62183443D01*
X111874284Y-62204062D01*
X111877000Y-62231640D01*
X111877000Y-62690360D01*
X111874284Y-62717938D01*
X111868029Y-62738557D01*
X111857876Y-62757553D01*
X111844208Y-62774208D01*
X111827553Y-62787876D01*
X111808557Y-62798029D01*
X111787938Y-62804284D01*
X111760360Y-62807000D01*
X111251640Y-62807000D01*
X111224062Y-62804284D01*
X111203443Y-62798029D01*
X111184447Y-62787876D01*
X111167792Y-62774208D01*
X111154124Y-62757553D01*
X111143971Y-62738557D01*
X111137716Y-62717938D01*
X111135000Y-62690360D01*
X111135000Y-62231640D01*
X111137716Y-62204062D01*
X111143971Y-62183443D01*
X111154124Y-62164447D01*
X111167792Y-62147792D01*
X111184447Y-62134124D01*
X111203443Y-62123971D01*
X111224062Y-62117716D01*
X111251640Y-62115000D01*
X111760360Y-62115000D01*
X111787938Y-62117716D01*
X111787938Y-62117716D01*
G37*
G36*
X110517938Y-62117716D02*
G01*
X110538557Y-62123971D01*
X110557553Y-62134124D01*
X110574208Y-62147792D01*
X110587876Y-62164447D01*
X110598029Y-62183443D01*
X110604284Y-62204062D01*
X110607000Y-62231640D01*
X110607000Y-62690360D01*
X110604284Y-62717938D01*
X110598029Y-62738557D01*
X110587876Y-62757553D01*
X110574208Y-62774208D01*
X110557553Y-62787876D01*
X110538557Y-62798029D01*
X110517938Y-62804284D01*
X110490360Y-62807000D01*
X109981640Y-62807000D01*
X109954062Y-62804284D01*
X109933443Y-62798029D01*
X109914447Y-62787876D01*
X109897792Y-62774208D01*
X109884124Y-62757553D01*
X109873971Y-62738557D01*
X109867716Y-62717938D01*
X109865000Y-62690360D01*
X109865000Y-62231640D01*
X109867716Y-62204062D01*
X109873971Y-62183443D01*
X109884124Y-62164447D01*
X109897792Y-62147792D01*
X109914447Y-62134124D01*
X109933443Y-62123971D01*
X109954062Y-62117716D01*
X109981640Y-62115000D01*
X110490360Y-62115000D01*
X110517938Y-62117716D01*
X110517938Y-62117716D01*
G37*
G36*
X126917000Y-62604000D02*
G01*
X124815000Y-62604000D01*
X124815000Y-61602000D01*
X126917000Y-61602000D01*
X126917000Y-62604000D01*
X126917000Y-62604000D01*
G37*
G36*
X143917000Y-62604000D02*
G01*
X141815000Y-62604000D01*
X141815000Y-61602000D01*
X143917000Y-61602000D01*
X143917000Y-62604000D01*
X143917000Y-62604000D01*
G37*
G36*
X118343938Y-61861716D02*
G01*
X118364557Y-61867971D01*
X118383553Y-61878124D01*
X118400208Y-61891792D01*
X118413876Y-61908447D01*
X118424029Y-61927443D01*
X118430284Y-61948062D01*
X118433000Y-61975640D01*
X118433000Y-62484360D01*
X118430284Y-62511938D01*
X118424029Y-62532557D01*
X118413876Y-62551553D01*
X118400208Y-62568208D01*
X118383553Y-62581876D01*
X118364557Y-62592029D01*
X118343938Y-62598284D01*
X118316360Y-62601000D01*
X117857640Y-62601000D01*
X117830062Y-62598284D01*
X117809443Y-62592029D01*
X117790447Y-62581876D01*
X117773792Y-62568208D01*
X117760124Y-62551553D01*
X117749971Y-62532557D01*
X117743716Y-62511938D01*
X117741000Y-62484360D01*
X117741000Y-61975640D01*
X117743716Y-61948062D01*
X117749971Y-61927443D01*
X117760124Y-61908447D01*
X117773792Y-61891792D01*
X117790447Y-61878124D01*
X117809443Y-61867971D01*
X117830062Y-61861716D01*
X117857640Y-61859000D01*
X118316360Y-61859000D01*
X118343938Y-61861716D01*
X118343938Y-61861716D01*
G37*
G36*
X117373938Y-61861716D02*
G01*
X117394557Y-61867971D01*
X117413553Y-61878124D01*
X117430208Y-61891792D01*
X117443876Y-61908447D01*
X117454029Y-61927443D01*
X117460284Y-61948062D01*
X117463000Y-61975640D01*
X117463000Y-62484360D01*
X117460284Y-62511938D01*
X117454029Y-62532557D01*
X117443876Y-62551553D01*
X117430208Y-62568208D01*
X117413553Y-62581876D01*
X117394557Y-62592029D01*
X117373938Y-62598284D01*
X117346360Y-62601000D01*
X116887640Y-62601000D01*
X116860062Y-62598284D01*
X116839443Y-62592029D01*
X116820447Y-62581876D01*
X116803792Y-62568208D01*
X116790124Y-62551553D01*
X116779971Y-62532557D01*
X116773716Y-62511938D01*
X116771000Y-62484360D01*
X116771000Y-61975640D01*
X116773716Y-61948062D01*
X116779971Y-61927443D01*
X116790124Y-61908447D01*
X116803792Y-61891792D01*
X116820447Y-61878124D01*
X116839443Y-61867971D01*
X116860062Y-61861716D01*
X116887640Y-61859000D01*
X117346360Y-61859000D01*
X117373938Y-61861716D01*
X117373938Y-61861716D01*
G37*
G36*
X121947938Y-61909716D02*
G01*
X121968557Y-61915971D01*
X121987553Y-61926124D01*
X122004208Y-61939792D01*
X122017876Y-61956447D01*
X122028029Y-61975443D01*
X122034284Y-61996062D01*
X122037000Y-62023640D01*
X122037000Y-62482360D01*
X122034284Y-62509938D01*
X122028029Y-62530557D01*
X122017876Y-62549553D01*
X122004208Y-62566208D01*
X121987553Y-62579876D01*
X121968557Y-62590029D01*
X121947938Y-62596284D01*
X121920360Y-62599000D01*
X121411640Y-62599000D01*
X121384062Y-62596284D01*
X121363443Y-62590029D01*
X121344447Y-62579876D01*
X121327792Y-62566208D01*
X121314124Y-62549553D01*
X121303971Y-62530557D01*
X121297716Y-62509938D01*
X121295000Y-62482360D01*
X121295000Y-62023640D01*
X121297716Y-61996062D01*
X121303971Y-61975443D01*
X121314124Y-61956447D01*
X121327792Y-61939792D01*
X121344447Y-61926124D01*
X121363443Y-61915971D01*
X121384062Y-61909716D01*
X121411640Y-61907000D01*
X121920360Y-61907000D01*
X121947938Y-61909716D01*
X121947938Y-61909716D01*
G37*
G36*
X123217938Y-61909716D02*
G01*
X123238557Y-61915971D01*
X123257553Y-61926124D01*
X123274208Y-61939792D01*
X123287876Y-61956447D01*
X123298029Y-61975443D01*
X123304284Y-61996062D01*
X123307000Y-62023640D01*
X123307000Y-62482360D01*
X123304284Y-62509938D01*
X123298029Y-62530557D01*
X123287876Y-62549553D01*
X123274208Y-62566208D01*
X123257553Y-62579876D01*
X123238557Y-62590029D01*
X123217938Y-62596284D01*
X123190360Y-62599000D01*
X122681640Y-62599000D01*
X122654062Y-62596284D01*
X122633443Y-62590029D01*
X122614447Y-62579876D01*
X122597792Y-62566208D01*
X122584124Y-62549553D01*
X122573971Y-62530557D01*
X122567716Y-62509938D01*
X122565000Y-62482360D01*
X122565000Y-62023640D01*
X122567716Y-61996062D01*
X122573971Y-61975443D01*
X122584124Y-61956447D01*
X122597792Y-61939792D01*
X122614447Y-61926124D01*
X122633443Y-61915971D01*
X122654062Y-61909716D01*
X122681640Y-61907000D01*
X123190360Y-61907000D01*
X123217938Y-61909716D01*
X123217938Y-61909716D01*
G37*
G36*
X110517938Y-61147716D02*
G01*
X110538557Y-61153971D01*
X110557553Y-61164124D01*
X110574208Y-61177792D01*
X110587876Y-61194447D01*
X110598029Y-61213443D01*
X110604284Y-61234062D01*
X110607000Y-61261640D01*
X110607000Y-61720360D01*
X110604284Y-61747938D01*
X110598029Y-61768557D01*
X110587876Y-61787553D01*
X110574208Y-61804208D01*
X110557553Y-61817876D01*
X110538557Y-61828029D01*
X110517938Y-61834284D01*
X110490360Y-61837000D01*
X109981640Y-61837000D01*
X109954062Y-61834284D01*
X109933443Y-61828029D01*
X109914447Y-61817876D01*
X109897792Y-61804208D01*
X109884124Y-61787553D01*
X109873971Y-61768557D01*
X109867716Y-61747938D01*
X109865000Y-61720360D01*
X109865000Y-61261640D01*
X109867716Y-61234062D01*
X109873971Y-61213443D01*
X109884124Y-61194447D01*
X109897792Y-61177792D01*
X109914447Y-61164124D01*
X109933443Y-61153971D01*
X109954062Y-61147716D01*
X109981640Y-61145000D01*
X110490360Y-61145000D01*
X110517938Y-61147716D01*
X110517938Y-61147716D01*
G37*
G36*
X111787938Y-61147716D02*
G01*
X111808557Y-61153971D01*
X111827553Y-61164124D01*
X111844208Y-61177792D01*
X111857876Y-61194447D01*
X111868029Y-61213443D01*
X111874284Y-61234062D01*
X111877000Y-61261640D01*
X111877000Y-61720360D01*
X111874284Y-61747938D01*
X111868029Y-61768557D01*
X111857876Y-61787553D01*
X111844208Y-61804208D01*
X111827553Y-61817876D01*
X111808557Y-61828029D01*
X111787938Y-61834284D01*
X111760360Y-61837000D01*
X111251640Y-61837000D01*
X111224062Y-61834284D01*
X111203443Y-61828029D01*
X111184447Y-61817876D01*
X111167792Y-61804208D01*
X111154124Y-61787553D01*
X111143971Y-61768557D01*
X111137716Y-61747938D01*
X111135000Y-61720360D01*
X111135000Y-61261640D01*
X111137716Y-61234062D01*
X111143971Y-61213443D01*
X111154124Y-61194447D01*
X111167792Y-61177792D01*
X111184447Y-61164124D01*
X111203443Y-61153971D01*
X111224062Y-61147716D01*
X111251640Y-61145000D01*
X111760360Y-61145000D01*
X111787938Y-61147716D01*
X111787938Y-61147716D01*
G37*
G36*
X111551000Y-60467000D02*
G01*
X110449000Y-60467000D01*
X110449000Y-59615000D01*
X111551000Y-59615000D01*
X111551000Y-60467000D01*
X111551000Y-60467000D01*
G37*
G36*
X117551000Y-60467000D02*
G01*
X116449000Y-60467000D01*
X116449000Y-59615000D01*
X117551000Y-59615000D01*
X117551000Y-60467000D01*
X117551000Y-60467000D01*
G37*
G36*
X159375256Y-55891298D02*
G01*
X159481579Y-55912447D01*
X159782042Y-56036903D01*
X160052451Y-56217585D01*
X160282415Y-56447549D01*
X160463097Y-56717958D01*
X160566843Y-56968422D01*
X160587553Y-57018422D01*
X160641055Y-57287391D01*
X160651000Y-57337391D01*
X160651000Y-57662609D01*
X160587553Y-57981579D01*
X160463097Y-58282042D01*
X160282415Y-58552451D01*
X160052451Y-58782415D01*
X159782042Y-58963097D01*
X159481579Y-59087553D01*
X159413976Y-59101000D01*
X159162611Y-59151000D01*
X158837389Y-59151000D01*
X158586024Y-59101000D01*
X158518421Y-59087553D01*
X158217958Y-58963097D01*
X157947549Y-58782415D01*
X157717585Y-58552451D01*
X157536903Y-58282042D01*
X157412447Y-57981579D01*
X157349000Y-57662609D01*
X157349000Y-57337391D01*
X157358946Y-57287391D01*
X157412447Y-57018422D01*
X157433158Y-56968422D01*
X157536903Y-56717958D01*
X157717585Y-56447549D01*
X157947549Y-56217585D01*
X158217958Y-56036903D01*
X158518421Y-55912447D01*
X158624744Y-55891298D01*
X158837389Y-55849000D01*
X159162611Y-55849000D01*
X159375256Y-55891298D01*
X159375256Y-55891298D01*
G37*
G36*
X106825256Y-55841298D02*
G01*
X106931579Y-55862447D01*
X107232042Y-55986903D01*
X107502451Y-56167585D01*
X107732415Y-56397549D01*
X107732416Y-56397551D01*
X107913098Y-56667960D01*
X108037553Y-56968422D01*
X108101000Y-57287389D01*
X108101000Y-57612611D01*
X108091054Y-57662611D01*
X108037553Y-57931579D01*
X107913097Y-58232042D01*
X107732415Y-58502451D01*
X107502451Y-58732415D01*
X107232042Y-58913097D01*
X106931579Y-59037553D01*
X106825256Y-59058702D01*
X106612611Y-59101000D01*
X106287389Y-59101000D01*
X106074744Y-59058702D01*
X105968421Y-59037553D01*
X105667958Y-58913097D01*
X105397549Y-58732415D01*
X105167585Y-58502451D01*
X104986903Y-58232042D01*
X104862447Y-57931579D01*
X104808946Y-57662611D01*
X104799000Y-57612611D01*
X104799000Y-57287389D01*
X104862447Y-56968422D01*
X104986902Y-56667960D01*
X105167584Y-56397551D01*
X105167585Y-56397549D01*
X105397549Y-56167585D01*
X105667958Y-55986903D01*
X105968421Y-55862447D01*
X106074744Y-55841298D01*
X106287389Y-55799000D01*
X106612611Y-55799000D01*
X106825256Y-55841298D01*
X106825256Y-55841298D01*
G37*
G36*
X111551000Y-56717000D02*
G01*
X110449000Y-56717000D01*
X110449000Y-55865000D01*
X111551000Y-55865000D01*
X111551000Y-56717000D01*
X111551000Y-56717000D01*
G37*
G36*
X117551000Y-56717000D02*
G01*
X116449000Y-56717000D01*
X116449000Y-55865000D01*
X117551000Y-55865000D01*
X117551000Y-56717000D01*
X117551000Y-56717000D01*
G37*
M02*
