G04 #@! TF.GenerationSoftware,KiCad,Pcbnew,(5.1.4)-1*
G04 #@! TF.CreationDate,2019-11-04T02:00:11+00:00*
G04 #@! TF.ProjectId,light_control,6c696768-745f-4636-9f6e-74726f6c2e6b,rev?*
G04 #@! TF.SameCoordinates,Original*
G04 #@! TF.FileFunction,Soldermask,Bot*
G04 #@! TF.FilePolarity,Negative*
%FSLAX46Y46*%
G04 Gerber Fmt 4.6, Leading zero omitted, Abs format (unit mm)*
G04 Created by KiCad (PCBNEW (5.1.4)-1) date 2019-11-04 02:00:11*
%MOMM*%
%LPD*%
G04 APERTURE LIST*
%ADD10C,0.100000*%
G04 APERTURE END LIST*
D10*
G36*
X159375256Y-96891298D02*
G01*
X159481579Y-96912447D01*
X159782042Y-97036903D01*
X160052451Y-97217585D01*
X160282415Y-97447549D01*
X160463097Y-97717958D01*
X160587553Y-98018421D01*
X160651000Y-98337391D01*
X160651000Y-98662609D01*
X160587553Y-98981579D01*
X160463097Y-99282042D01*
X160282415Y-99552451D01*
X160052451Y-99782415D01*
X159782042Y-99963097D01*
X159481579Y-100087553D01*
X159375256Y-100108702D01*
X159162611Y-100151000D01*
X158837389Y-100151000D01*
X158624744Y-100108702D01*
X158518421Y-100087553D01*
X158217958Y-99963097D01*
X157947549Y-99782415D01*
X157717585Y-99552451D01*
X157536903Y-99282042D01*
X157412447Y-98981579D01*
X157349000Y-98662609D01*
X157349000Y-98337391D01*
X157412447Y-98018421D01*
X157536903Y-97717958D01*
X157717585Y-97447549D01*
X157947549Y-97217585D01*
X158217958Y-97036903D01*
X158518421Y-96912447D01*
X158624744Y-96891298D01*
X158837389Y-96849000D01*
X159162611Y-96849000D01*
X159375256Y-96891298D01*
X159375256Y-96891298D01*
G37*
G36*
X106875256Y-96891298D02*
G01*
X106981579Y-96912447D01*
X107282042Y-97036903D01*
X107552451Y-97217585D01*
X107782415Y-97447549D01*
X107963097Y-97717958D01*
X108087553Y-98018421D01*
X108151000Y-98337391D01*
X108151000Y-98662609D01*
X108087553Y-98981579D01*
X107963097Y-99282042D01*
X107782415Y-99552451D01*
X107552451Y-99782415D01*
X107282042Y-99963097D01*
X106981579Y-100087553D01*
X106875256Y-100108702D01*
X106662611Y-100151000D01*
X106337389Y-100151000D01*
X106124744Y-100108702D01*
X106018421Y-100087553D01*
X105717958Y-99963097D01*
X105447549Y-99782415D01*
X105217585Y-99552451D01*
X105036903Y-99282042D01*
X104912447Y-98981579D01*
X104849000Y-98662609D01*
X104849000Y-98337391D01*
X104912447Y-98018421D01*
X105036903Y-97717958D01*
X105217585Y-97447549D01*
X105447549Y-97217585D01*
X105717958Y-97036903D01*
X106018421Y-96912447D01*
X106124744Y-96891298D01*
X106337389Y-96849000D01*
X106662611Y-96849000D01*
X106875256Y-96891298D01*
X106875256Y-96891298D01*
G37*
G36*
X120564903Y-94797075D02*
G01*
X120792571Y-94891378D01*
X120997466Y-95028285D01*
X121171715Y-95202534D01*
X121308622Y-95407429D01*
X121402925Y-95635097D01*
X121451000Y-95876787D01*
X121451000Y-96123213D01*
X121402925Y-96364903D01*
X121308622Y-96592571D01*
X121171715Y-96797466D01*
X120997466Y-96971715D01*
X120792571Y-97108622D01*
X120792570Y-97108623D01*
X120792569Y-97108623D01*
X120564903Y-97202925D01*
X120323214Y-97251000D01*
X120076786Y-97251000D01*
X119835097Y-97202925D01*
X119607431Y-97108623D01*
X119607430Y-97108623D01*
X119607429Y-97108622D01*
X119402534Y-96971715D01*
X119228285Y-96797466D01*
X119091378Y-96592571D01*
X118997075Y-96364903D01*
X118949000Y-96123213D01*
X118949000Y-95876787D01*
X118997075Y-95635097D01*
X119091378Y-95407429D01*
X119228285Y-95202534D01*
X119402534Y-95028285D01*
X119607429Y-94891378D01*
X119835097Y-94797075D01*
X120076786Y-94749000D01*
X120323214Y-94749000D01*
X120564903Y-94797075D01*
X120564903Y-94797075D01*
G37*
G36*
X145014903Y-94797075D02*
G01*
X145242571Y-94891378D01*
X145447466Y-95028285D01*
X145621715Y-95202534D01*
X145758622Y-95407429D01*
X145852925Y-95635097D01*
X145901000Y-95876787D01*
X145901000Y-96123213D01*
X145852925Y-96364903D01*
X145758622Y-96592571D01*
X145621715Y-96797466D01*
X145447466Y-96971715D01*
X145242571Y-97108622D01*
X145242570Y-97108623D01*
X145242569Y-97108623D01*
X145014903Y-97202925D01*
X144773214Y-97251000D01*
X144526786Y-97251000D01*
X144285097Y-97202925D01*
X144057431Y-97108623D01*
X144057430Y-97108623D01*
X144057429Y-97108622D01*
X143852534Y-96971715D01*
X143678285Y-96797466D01*
X143541378Y-96592571D01*
X143447075Y-96364903D01*
X143399000Y-96123213D01*
X143399000Y-95876787D01*
X143447075Y-95635097D01*
X143541378Y-95407429D01*
X143678285Y-95202534D01*
X143852534Y-95028285D01*
X144057429Y-94891378D01*
X144285097Y-94797075D01*
X144526786Y-94749000D01*
X144773214Y-94749000D01*
X145014903Y-94797075D01*
X145014903Y-94797075D01*
G37*
G36*
X142401000Y-97251000D02*
G01*
X139899000Y-97251000D01*
X139899000Y-94749000D01*
X142401000Y-94749000D01*
X142401000Y-97251000D01*
X142401000Y-97251000D01*
G37*
G36*
X128714903Y-94797075D02*
G01*
X128942571Y-94891378D01*
X129147466Y-95028285D01*
X129321715Y-95202534D01*
X129458622Y-95407429D01*
X129552925Y-95635097D01*
X129601000Y-95876787D01*
X129601000Y-96123213D01*
X129552925Y-96364903D01*
X129458622Y-96592571D01*
X129321715Y-96797466D01*
X129147466Y-96971715D01*
X128942571Y-97108622D01*
X128942570Y-97108623D01*
X128942569Y-97108623D01*
X128714903Y-97202925D01*
X128473214Y-97251000D01*
X128226786Y-97251000D01*
X127985097Y-97202925D01*
X127757431Y-97108623D01*
X127757430Y-97108623D01*
X127757429Y-97108622D01*
X127552534Y-96971715D01*
X127378285Y-96797466D01*
X127241378Y-96592571D01*
X127147075Y-96364903D01*
X127099000Y-96123213D01*
X127099000Y-95876787D01*
X127147075Y-95635097D01*
X127241378Y-95407429D01*
X127378285Y-95202534D01*
X127552534Y-95028285D01*
X127757429Y-94891378D01*
X127985097Y-94797075D01*
X128226786Y-94749000D01*
X128473214Y-94749000D01*
X128714903Y-94797075D01*
X128714903Y-94797075D01*
G37*
G36*
X126101000Y-97251000D02*
G01*
X123599000Y-97251000D01*
X123599000Y-94749000D01*
X126101000Y-94749000D01*
X126101000Y-97251000D01*
X126101000Y-97251000D01*
G37*
G36*
X153214903Y-94797075D02*
G01*
X153442571Y-94891378D01*
X153647466Y-95028285D01*
X153821715Y-95202534D01*
X153958622Y-95407429D01*
X154052925Y-95635097D01*
X154101000Y-95876787D01*
X154101000Y-96123213D01*
X154052925Y-96364903D01*
X153958622Y-96592571D01*
X153821715Y-96797466D01*
X153647466Y-96971715D01*
X153442571Y-97108622D01*
X153442570Y-97108623D01*
X153442569Y-97108623D01*
X153214903Y-97202925D01*
X152973214Y-97251000D01*
X152726786Y-97251000D01*
X152485097Y-97202925D01*
X152257431Y-97108623D01*
X152257430Y-97108623D01*
X152257429Y-97108622D01*
X152052534Y-96971715D01*
X151878285Y-96797466D01*
X151741378Y-96592571D01*
X151647075Y-96364903D01*
X151599000Y-96123213D01*
X151599000Y-95876787D01*
X151647075Y-95635097D01*
X151741378Y-95407429D01*
X151878285Y-95202534D01*
X152052534Y-95028285D01*
X152257429Y-94891378D01*
X152485097Y-94797075D01*
X152726786Y-94749000D01*
X152973214Y-94749000D01*
X153214903Y-94797075D01*
X153214903Y-94797075D01*
G37*
G36*
X150601000Y-97251000D02*
G01*
X148099000Y-97251000D01*
X148099000Y-94749000D01*
X150601000Y-94749000D01*
X150601000Y-97251000D01*
X150601000Y-97251000D01*
G37*
G36*
X136842903Y-94797075D02*
G01*
X137070571Y-94891378D01*
X137275466Y-95028285D01*
X137449715Y-95202534D01*
X137586622Y-95407429D01*
X137680925Y-95635097D01*
X137729000Y-95876787D01*
X137729000Y-96123213D01*
X137680925Y-96364903D01*
X137586622Y-96592571D01*
X137449715Y-96797466D01*
X137275466Y-96971715D01*
X137070571Y-97108622D01*
X137070570Y-97108623D01*
X137070569Y-97108623D01*
X136842903Y-97202925D01*
X136601214Y-97251000D01*
X136354786Y-97251000D01*
X136113097Y-97202925D01*
X135885431Y-97108623D01*
X135885430Y-97108623D01*
X135885429Y-97108622D01*
X135680534Y-96971715D01*
X135506285Y-96797466D01*
X135369378Y-96592571D01*
X135275075Y-96364903D01*
X135227000Y-96123213D01*
X135227000Y-95876787D01*
X135275075Y-95635097D01*
X135369378Y-95407429D01*
X135506285Y-95202534D01*
X135680534Y-95028285D01*
X135885429Y-94891378D01*
X136113097Y-94797075D01*
X136354786Y-94749000D01*
X136601214Y-94749000D01*
X136842903Y-94797075D01*
X136842903Y-94797075D01*
G37*
G36*
X134229000Y-97251000D02*
G01*
X131727000Y-97251000D01*
X131727000Y-94749000D01*
X134229000Y-94749000D01*
X134229000Y-97251000D01*
X134229000Y-97251000D01*
G37*
G36*
X117951000Y-97251000D02*
G01*
X115449000Y-97251000D01*
X115449000Y-94749000D01*
X117951000Y-94749000D01*
X117951000Y-97251000D01*
X117951000Y-97251000D01*
G37*
G36*
X108676627Y-90437037D02*
G01*
X108846466Y-90488557D01*
X109002991Y-90572222D01*
X109038729Y-90601552D01*
X109140186Y-90684814D01*
X109223448Y-90786271D01*
X109252778Y-90822009D01*
X109336443Y-90978534D01*
X109387963Y-91148374D01*
X109401000Y-91280743D01*
X109401000Y-91619258D01*
X109387963Y-91751627D01*
X109336443Y-91921466D01*
X109252778Y-92077991D01*
X109223448Y-92113729D01*
X109140186Y-92215186D01*
X109002989Y-92327779D01*
X108846467Y-92411442D01*
X108846465Y-92411443D01*
X108676626Y-92462963D01*
X108500000Y-92480359D01*
X108323373Y-92462963D01*
X108153534Y-92411443D01*
X107997009Y-92327778D01*
X107954750Y-92293097D01*
X107859814Y-92215186D01*
X107747221Y-92077989D01*
X107663558Y-91921467D01*
X107663557Y-91921465D01*
X107612037Y-91751626D01*
X107599000Y-91619257D01*
X107599000Y-91280742D01*
X107612037Y-91148373D01*
X107663557Y-90978534D01*
X107747222Y-90822009D01*
X107859815Y-90684815D01*
X107997010Y-90572222D01*
X108153535Y-90488557D01*
X108323374Y-90437037D01*
X108500000Y-90419641D01*
X108676627Y-90437037D01*
X108676627Y-90437037D01*
G37*
G36*
X106176627Y-90437037D02*
G01*
X106346466Y-90488557D01*
X106502991Y-90572222D01*
X106538729Y-90601552D01*
X106640186Y-90684814D01*
X106723448Y-90786271D01*
X106752778Y-90822009D01*
X106836443Y-90978534D01*
X106887963Y-91148374D01*
X106901000Y-91280743D01*
X106901000Y-91619258D01*
X106887963Y-91751627D01*
X106836443Y-91921466D01*
X106752778Y-92077991D01*
X106723448Y-92113729D01*
X106640186Y-92215186D01*
X106502989Y-92327779D01*
X106346467Y-92411442D01*
X106346465Y-92411443D01*
X106176626Y-92462963D01*
X106000000Y-92480359D01*
X105823373Y-92462963D01*
X105653534Y-92411443D01*
X105497009Y-92327778D01*
X105454750Y-92293097D01*
X105359814Y-92215186D01*
X105247221Y-92077989D01*
X105163558Y-91921467D01*
X105163557Y-91921465D01*
X105112037Y-91751626D01*
X105099000Y-91619257D01*
X105099000Y-91280742D01*
X105112037Y-91148373D01*
X105163557Y-90978534D01*
X105247222Y-90822009D01*
X105359815Y-90684815D01*
X105497010Y-90572222D01*
X105653535Y-90488557D01*
X105823374Y-90437037D01*
X106000000Y-90419641D01*
X106176627Y-90437037D01*
X106176627Y-90437037D01*
G37*
G36*
X111758600Y-90427989D02*
G01*
X111791652Y-90438015D01*
X111822103Y-90454292D01*
X111848799Y-90476201D01*
X111870708Y-90502897D01*
X111886985Y-90533348D01*
X111897011Y-90566400D01*
X111901000Y-90606903D01*
X111901000Y-92293097D01*
X111897011Y-92333600D01*
X111886985Y-92366652D01*
X111870708Y-92397103D01*
X111848799Y-92423799D01*
X111822103Y-92445708D01*
X111791652Y-92461985D01*
X111758600Y-92472011D01*
X111718097Y-92476000D01*
X110281903Y-92476000D01*
X110241400Y-92472011D01*
X110208348Y-92461985D01*
X110177897Y-92445708D01*
X110151201Y-92423799D01*
X110129292Y-92397103D01*
X110113015Y-92366652D01*
X110102989Y-92333600D01*
X110099000Y-92293097D01*
X110099000Y-90606903D01*
X110102989Y-90566400D01*
X110113015Y-90533348D01*
X110129292Y-90502897D01*
X110151201Y-90476201D01*
X110177897Y-90454292D01*
X110208348Y-90438015D01*
X110241400Y-90427989D01*
X110281903Y-90424000D01*
X111718097Y-90424000D01*
X111758600Y-90427989D01*
X111758600Y-90427989D01*
G37*
G36*
X156699000Y-90751000D02*
G01*
X154197000Y-90751000D01*
X154197000Y-88249000D01*
X156699000Y-88249000D01*
X156699000Y-90751000D01*
X156699000Y-90751000D01*
G37*
G36*
X155812903Y-84797075D02*
G01*
X156040571Y-84891378D01*
X156245466Y-85028285D01*
X156419715Y-85202534D01*
X156556622Y-85407429D01*
X156650925Y-85635097D01*
X156699000Y-85876787D01*
X156699000Y-86123213D01*
X156650925Y-86364903D01*
X156556622Y-86592571D01*
X156419715Y-86797466D01*
X156245466Y-86971715D01*
X156040571Y-87108622D01*
X156040570Y-87108623D01*
X156040569Y-87108623D01*
X155812903Y-87202925D01*
X155571214Y-87251000D01*
X155324786Y-87251000D01*
X155083097Y-87202925D01*
X154855431Y-87108623D01*
X154855430Y-87108623D01*
X154855429Y-87108622D01*
X154650534Y-86971715D01*
X154476285Y-86797466D01*
X154339378Y-86592571D01*
X154245075Y-86364903D01*
X154197000Y-86123213D01*
X154197000Y-85876787D01*
X154245075Y-85635097D01*
X154339378Y-85407429D01*
X154476285Y-85202534D01*
X154650534Y-85028285D01*
X154855429Y-84891378D01*
X155083097Y-84797075D01*
X155324786Y-84749000D01*
X155571214Y-84749000D01*
X155812903Y-84797075D01*
X155812903Y-84797075D01*
G37*
G36*
X109364903Y-83797075D02*
G01*
X109532168Y-83866358D01*
X109592571Y-83891378D01*
X109797466Y-84028285D01*
X109971715Y-84202534D01*
X110108622Y-84407429D01*
X110108623Y-84407431D01*
X110202925Y-84635097D01*
X110249694Y-84870218D01*
X110251000Y-84876787D01*
X110251000Y-85123213D01*
X110202925Y-85364903D01*
X110108622Y-85592571D01*
X109971715Y-85797466D01*
X109797466Y-85971715D01*
X109592571Y-86108622D01*
X109592570Y-86108623D01*
X109592569Y-86108623D01*
X109364903Y-86202925D01*
X109123214Y-86251000D01*
X108876786Y-86251000D01*
X108635097Y-86202925D01*
X108407431Y-86108623D01*
X108407430Y-86108623D01*
X108407429Y-86108622D01*
X108202534Y-85971715D01*
X108028285Y-85797466D01*
X107891378Y-85592571D01*
X107797075Y-85364903D01*
X107749000Y-85123213D01*
X107749000Y-84876787D01*
X107750307Y-84870218D01*
X107797075Y-84635097D01*
X107891377Y-84407431D01*
X107891378Y-84407429D01*
X108028285Y-84202534D01*
X108202534Y-84028285D01*
X108407429Y-83891378D01*
X108467833Y-83866358D01*
X108635097Y-83797075D01*
X108876786Y-83749000D01*
X109123214Y-83749000D01*
X109364903Y-83797075D01*
X109364903Y-83797075D01*
G37*
G36*
X130701000Y-84901000D02*
G01*
X129099000Y-84901000D01*
X129099000Y-83299000D01*
X130701000Y-83299000D01*
X130701000Y-84901000D01*
X130701000Y-84901000D01*
G37*
G36*
X135213642Y-83329781D02*
G01*
X135359414Y-83390162D01*
X135359416Y-83390163D01*
X135490608Y-83477822D01*
X135602178Y-83589392D01*
X135689837Y-83720584D01*
X135689838Y-83720586D01*
X135750219Y-83866358D01*
X135781000Y-84021107D01*
X135781000Y-84178893D01*
X135750219Y-84333642D01*
X135719655Y-84407429D01*
X135689837Y-84479416D01*
X135602178Y-84610608D01*
X135490608Y-84722178D01*
X135359416Y-84809837D01*
X135359415Y-84809838D01*
X135359414Y-84809838D01*
X135213642Y-84870219D01*
X135058893Y-84901000D01*
X134901107Y-84901000D01*
X134746358Y-84870219D01*
X134600586Y-84809838D01*
X134600585Y-84809838D01*
X134600584Y-84809837D01*
X134469392Y-84722178D01*
X134357822Y-84610608D01*
X134270163Y-84479416D01*
X134240345Y-84407429D01*
X134209781Y-84333642D01*
X134179000Y-84178893D01*
X134179000Y-84021107D01*
X134209781Y-83866358D01*
X134270162Y-83720586D01*
X134270163Y-83720584D01*
X134357822Y-83589392D01*
X134469392Y-83477822D01*
X134600584Y-83390163D01*
X134600586Y-83390162D01*
X134746358Y-83329781D01*
X134901107Y-83299000D01*
X135058893Y-83299000D01*
X135213642Y-83329781D01*
X135213642Y-83329781D01*
G37*
G36*
X132673642Y-83329781D02*
G01*
X132819414Y-83390162D01*
X132819416Y-83390163D01*
X132950608Y-83477822D01*
X133062178Y-83589392D01*
X133149837Y-83720584D01*
X133149838Y-83720586D01*
X133210219Y-83866358D01*
X133241000Y-84021107D01*
X133241000Y-84178893D01*
X133210219Y-84333642D01*
X133179655Y-84407429D01*
X133149837Y-84479416D01*
X133062178Y-84610608D01*
X132950608Y-84722178D01*
X132819416Y-84809837D01*
X132819415Y-84809838D01*
X132819414Y-84809838D01*
X132673642Y-84870219D01*
X132518893Y-84901000D01*
X132361107Y-84901000D01*
X132206358Y-84870219D01*
X132060586Y-84809838D01*
X132060585Y-84809838D01*
X132060584Y-84809837D01*
X131929392Y-84722178D01*
X131817822Y-84610608D01*
X131730163Y-84479416D01*
X131700345Y-84407429D01*
X131669781Y-84333642D01*
X131639000Y-84178893D01*
X131639000Y-84021107D01*
X131669781Y-83866358D01*
X131730162Y-83720586D01*
X131730163Y-83720584D01*
X131817822Y-83589392D01*
X131929392Y-83477822D01*
X132060584Y-83390163D01*
X132060586Y-83390162D01*
X132206358Y-83329781D01*
X132361107Y-83299000D01*
X132518893Y-83299000D01*
X132673642Y-83329781D01*
X132673642Y-83329781D01*
G37*
G36*
X137753642Y-83329781D02*
G01*
X137899414Y-83390162D01*
X137899416Y-83390163D01*
X138030608Y-83477822D01*
X138142178Y-83589392D01*
X138229837Y-83720584D01*
X138229838Y-83720586D01*
X138290219Y-83866358D01*
X138321000Y-84021107D01*
X138321000Y-84178893D01*
X138290219Y-84333642D01*
X138259655Y-84407429D01*
X138229837Y-84479416D01*
X138142178Y-84610608D01*
X138030608Y-84722178D01*
X137899416Y-84809837D01*
X137899415Y-84809838D01*
X137899414Y-84809838D01*
X137753642Y-84870219D01*
X137598893Y-84901000D01*
X137441107Y-84901000D01*
X137286358Y-84870219D01*
X137140586Y-84809838D01*
X137140585Y-84809838D01*
X137140584Y-84809837D01*
X137009392Y-84722178D01*
X136897822Y-84610608D01*
X136810163Y-84479416D01*
X136780345Y-84407429D01*
X136749781Y-84333642D01*
X136719000Y-84178893D01*
X136719000Y-84021107D01*
X136749781Y-83866358D01*
X136810162Y-83720586D01*
X136810163Y-83720584D01*
X136897822Y-83589392D01*
X137009392Y-83477822D01*
X137140584Y-83390163D01*
X137140586Y-83390162D01*
X137286358Y-83329781D01*
X137441107Y-83299000D01*
X137598893Y-83299000D01*
X137753642Y-83329781D01*
X137753642Y-83329781D01*
G37*
G36*
X110251000Y-82751000D02*
G01*
X107749000Y-82751000D01*
X107749000Y-80249000D01*
X110251000Y-80249000D01*
X110251000Y-82751000D01*
X110251000Y-82751000D01*
G37*
G36*
X156699000Y-82351000D02*
G01*
X154197000Y-82351000D01*
X154197000Y-79849000D01*
X156699000Y-79849000D01*
X156699000Y-82351000D01*
X156699000Y-82351000D01*
G37*
G36*
X155812903Y-76397075D02*
G01*
X156040571Y-76491378D01*
X156245466Y-76628285D01*
X156419715Y-76802534D01*
X156419716Y-76802536D01*
X156556623Y-77007431D01*
X156650925Y-77235097D01*
X156699000Y-77476787D01*
X156699000Y-77723213D01*
X156650925Y-77964903D01*
X156556622Y-78192571D01*
X156419715Y-78397466D01*
X156245466Y-78571715D01*
X156040571Y-78708622D01*
X156040570Y-78708623D01*
X156040569Y-78708623D01*
X155812903Y-78802925D01*
X155571214Y-78851000D01*
X155324786Y-78851000D01*
X155083097Y-78802925D01*
X154855431Y-78708623D01*
X154855430Y-78708623D01*
X154855429Y-78708622D01*
X154650534Y-78571715D01*
X154476285Y-78397466D01*
X154339378Y-78192571D01*
X154245075Y-77964903D01*
X154197000Y-77723213D01*
X154197000Y-77476787D01*
X154245075Y-77235097D01*
X154339377Y-77007431D01*
X154476284Y-76802536D01*
X154476285Y-76802534D01*
X154650534Y-76628285D01*
X154855429Y-76491378D01*
X155083097Y-76397075D01*
X155324786Y-76349000D01*
X155571214Y-76349000D01*
X155812903Y-76397075D01*
X155812903Y-76397075D01*
G37*
G36*
X109364903Y-75697075D02*
G01*
X109592571Y-75791378D01*
X109797466Y-75928285D01*
X109971715Y-76102534D01*
X109971716Y-76102536D01*
X110108623Y-76307431D01*
X110202925Y-76535097D01*
X110251000Y-76776786D01*
X110251000Y-77023214D01*
X110202925Y-77264903D01*
X110115161Y-77476786D01*
X110108622Y-77492571D01*
X109971715Y-77697466D01*
X109797466Y-77871715D01*
X109592571Y-78008622D01*
X109592570Y-78008623D01*
X109592569Y-78008623D01*
X109364903Y-78102925D01*
X109123214Y-78151000D01*
X108876786Y-78151000D01*
X108635097Y-78102925D01*
X108407431Y-78008623D01*
X108407430Y-78008623D01*
X108407429Y-78008622D01*
X108202534Y-77871715D01*
X108028285Y-77697466D01*
X107891378Y-77492571D01*
X107884840Y-77476786D01*
X107797075Y-77264903D01*
X107749000Y-77023214D01*
X107749000Y-76776786D01*
X107797075Y-76535097D01*
X107891377Y-76307431D01*
X108028284Y-76102536D01*
X108028285Y-76102534D01*
X108202534Y-75928285D01*
X108407429Y-75791378D01*
X108635097Y-75697075D01*
X108876786Y-75649000D01*
X109123214Y-75649000D01*
X109364903Y-75697075D01*
X109364903Y-75697075D01*
G37*
G36*
X110251000Y-74651000D02*
G01*
X107749000Y-74651000D01*
X107749000Y-72149000D01*
X110251000Y-72149000D01*
X110251000Y-74651000D01*
X110251000Y-74651000D01*
G37*
G36*
X156699000Y-74051000D02*
G01*
X154197000Y-74051000D01*
X154197000Y-71549000D01*
X156699000Y-71549000D01*
X156699000Y-74051000D01*
X156699000Y-74051000D01*
G37*
G36*
X155812903Y-68097075D02*
G01*
X155994810Y-68172423D01*
X156040571Y-68191378D01*
X156245466Y-68328285D01*
X156419715Y-68502534D01*
X156495819Y-68616431D01*
X156556623Y-68707431D01*
X156650925Y-68935097D01*
X156692232Y-69142759D01*
X156699000Y-69176787D01*
X156699000Y-69423213D01*
X156650925Y-69664903D01*
X156556622Y-69892571D01*
X156419715Y-70097466D01*
X156245466Y-70271715D01*
X156040571Y-70408622D01*
X156040570Y-70408623D01*
X156040569Y-70408623D01*
X155812903Y-70502925D01*
X155571214Y-70551000D01*
X155324786Y-70551000D01*
X155083097Y-70502925D01*
X154855431Y-70408623D01*
X154855430Y-70408623D01*
X154855429Y-70408622D01*
X154650534Y-70271715D01*
X154476285Y-70097466D01*
X154339378Y-69892571D01*
X154245075Y-69664903D01*
X154197000Y-69423213D01*
X154197000Y-69176787D01*
X154203769Y-69142759D01*
X154245075Y-68935097D01*
X154339377Y-68707431D01*
X154400181Y-68616431D01*
X154476285Y-68502534D01*
X154650534Y-68328285D01*
X154855429Y-68191378D01*
X154901191Y-68172423D01*
X155083097Y-68097075D01*
X155324786Y-68049000D01*
X155571214Y-68049000D01*
X155812903Y-68097075D01*
X155812903Y-68097075D01*
G37*
G36*
X104586355Y-68892140D02*
G01*
X104650118Y-68898420D01*
X104740904Y-68925960D01*
X104772836Y-68935646D01*
X104885925Y-68996094D01*
X104985054Y-69077446D01*
X105066406Y-69176575D01*
X105126854Y-69289664D01*
X105126855Y-69289668D01*
X105164080Y-69412382D01*
X105176649Y-69540000D01*
X105164080Y-69667618D01*
X105136540Y-69758404D01*
X105126854Y-69790336D01*
X105066406Y-69903425D01*
X104985054Y-70002554D01*
X104885925Y-70083906D01*
X104772836Y-70144354D01*
X104740904Y-70154040D01*
X104650118Y-70181580D01*
X104586355Y-70187860D01*
X104554474Y-70191000D01*
X103790526Y-70191000D01*
X103758645Y-70187860D01*
X103694882Y-70181580D01*
X103604096Y-70154040D01*
X103572164Y-70144354D01*
X103459075Y-70083906D01*
X103359946Y-70002554D01*
X103278594Y-69903425D01*
X103218146Y-69790336D01*
X103208460Y-69758404D01*
X103180920Y-69667618D01*
X103168351Y-69540000D01*
X103180920Y-69412382D01*
X103218145Y-69289668D01*
X103218146Y-69289664D01*
X103278594Y-69176575D01*
X103359946Y-69077446D01*
X103459075Y-68996094D01*
X103572164Y-68935646D01*
X103604096Y-68925960D01*
X103694882Y-68898420D01*
X103758645Y-68892140D01*
X103790526Y-68889000D01*
X104554474Y-68889000D01*
X104586355Y-68892140D01*
X104586355Y-68892140D01*
G37*
G36*
X107098848Y-67793820D02*
G01*
X107098850Y-67793821D01*
X107098851Y-67793821D01*
X107240074Y-67852317D01*
X107240077Y-67852319D01*
X107367169Y-67937239D01*
X107475261Y-68045331D01*
X107509835Y-68097075D01*
X107560183Y-68172426D01*
X107618679Y-68313649D01*
X107618680Y-68313652D01*
X107648500Y-68463569D01*
X107648500Y-68616431D01*
X107630400Y-68707429D01*
X107618679Y-68766351D01*
X107560183Y-68907574D01*
X107560181Y-68907577D01*
X107475261Y-69034669D01*
X107367169Y-69142761D01*
X107316245Y-69176787D01*
X107240074Y-69227683D01*
X107098851Y-69286179D01*
X107098850Y-69286179D01*
X107098848Y-69286180D01*
X106948931Y-69316000D01*
X106796069Y-69316000D01*
X106646152Y-69286180D01*
X106646150Y-69286179D01*
X106646149Y-69286179D01*
X106504926Y-69227683D01*
X106428755Y-69176787D01*
X106377831Y-69142761D01*
X106269739Y-69034669D01*
X106184819Y-68907577D01*
X106184817Y-68907574D01*
X106126321Y-68766351D01*
X106114601Y-68707429D01*
X106096500Y-68616431D01*
X106096500Y-68463569D01*
X106126320Y-68313652D01*
X106126321Y-68313649D01*
X106184817Y-68172426D01*
X106235165Y-68097075D01*
X106269739Y-68045331D01*
X106377831Y-67937239D01*
X106504923Y-67852319D01*
X106504926Y-67852317D01*
X106646149Y-67793821D01*
X106646150Y-67793821D01*
X106646152Y-67793820D01*
X106796069Y-67764000D01*
X106948931Y-67764000D01*
X107098848Y-67793820D01*
X107098848Y-67793820D01*
G37*
G36*
X107098848Y-62793820D02*
G01*
X107098850Y-62793821D01*
X107098851Y-62793821D01*
X107240074Y-62852317D01*
X107240077Y-62852319D01*
X107367169Y-62937239D01*
X107475261Y-63045331D01*
X107560181Y-63172423D01*
X107560183Y-63172426D01*
X107618679Y-63313649D01*
X107648500Y-63463571D01*
X107648500Y-63616429D01*
X107618679Y-63766351D01*
X107560183Y-63907574D01*
X107560181Y-63907577D01*
X107475261Y-64034669D01*
X107367169Y-64142761D01*
X107240077Y-64227681D01*
X107240074Y-64227683D01*
X107098851Y-64286179D01*
X107098850Y-64286179D01*
X107098848Y-64286180D01*
X106948931Y-64316000D01*
X106796069Y-64316000D01*
X106646152Y-64286180D01*
X106646150Y-64286179D01*
X106646149Y-64286179D01*
X106504926Y-64227683D01*
X106504923Y-64227681D01*
X106377831Y-64142761D01*
X106269739Y-64034669D01*
X106184819Y-63907577D01*
X106184817Y-63907574D01*
X106126321Y-63766351D01*
X106096500Y-63616429D01*
X106096500Y-63463571D01*
X106126321Y-63313649D01*
X106184817Y-63172426D01*
X106184819Y-63172423D01*
X106269739Y-63045331D01*
X106377831Y-62937239D01*
X106504923Y-62852319D01*
X106504926Y-62852317D01*
X106646149Y-62793821D01*
X106646150Y-62793821D01*
X106646152Y-62793820D01*
X106796069Y-62764000D01*
X106948931Y-62764000D01*
X107098848Y-62793820D01*
X107098848Y-62793820D01*
G37*
G36*
X104586355Y-61892140D02*
G01*
X104650118Y-61898420D01*
X104740904Y-61925960D01*
X104772836Y-61935646D01*
X104885925Y-61996094D01*
X104985054Y-62077446D01*
X105066406Y-62176575D01*
X105126854Y-62289664D01*
X105126855Y-62289668D01*
X105164080Y-62412382D01*
X105176649Y-62540000D01*
X105164080Y-62667618D01*
X105136540Y-62758404D01*
X105126854Y-62790336D01*
X105066406Y-62903425D01*
X104985054Y-63002554D01*
X104885925Y-63083906D01*
X104772836Y-63144354D01*
X104740904Y-63154040D01*
X104650118Y-63181580D01*
X104586355Y-63187860D01*
X104554474Y-63191000D01*
X103790526Y-63191000D01*
X103758645Y-63187860D01*
X103694882Y-63181580D01*
X103604096Y-63154040D01*
X103572164Y-63144354D01*
X103459075Y-63083906D01*
X103359946Y-63002554D01*
X103278594Y-62903425D01*
X103218146Y-62790336D01*
X103208460Y-62758404D01*
X103180920Y-62667618D01*
X103168351Y-62540000D01*
X103180920Y-62412382D01*
X103218145Y-62289668D01*
X103218146Y-62289664D01*
X103278594Y-62176575D01*
X103359946Y-62077446D01*
X103459075Y-61996094D01*
X103572164Y-61935646D01*
X103604096Y-61925960D01*
X103694882Y-61898420D01*
X103758645Y-61892140D01*
X103790526Y-61889000D01*
X104554474Y-61889000D01*
X104586355Y-61892140D01*
X104586355Y-61892140D01*
G37*
G36*
X159375256Y-55891298D02*
G01*
X159481579Y-55912447D01*
X159782042Y-56036903D01*
X160052451Y-56217585D01*
X160282415Y-56447549D01*
X160463097Y-56717958D01*
X160566843Y-56968422D01*
X160587553Y-57018422D01*
X160641055Y-57287391D01*
X160651000Y-57337391D01*
X160651000Y-57662609D01*
X160587553Y-57981579D01*
X160463097Y-58282042D01*
X160282415Y-58552451D01*
X160052451Y-58782415D01*
X159782042Y-58963097D01*
X159481579Y-59087553D01*
X159413976Y-59101000D01*
X159162611Y-59151000D01*
X158837389Y-59151000D01*
X158586024Y-59101000D01*
X158518421Y-59087553D01*
X158217958Y-58963097D01*
X157947549Y-58782415D01*
X157717585Y-58552451D01*
X157536903Y-58282042D01*
X157412447Y-57981579D01*
X157349000Y-57662609D01*
X157349000Y-57337391D01*
X157358946Y-57287391D01*
X157412447Y-57018422D01*
X157433158Y-56968422D01*
X157536903Y-56717958D01*
X157717585Y-56447549D01*
X157947549Y-56217585D01*
X158217958Y-56036903D01*
X158518421Y-55912447D01*
X158624744Y-55891298D01*
X158837389Y-55849000D01*
X159162611Y-55849000D01*
X159375256Y-55891298D01*
X159375256Y-55891298D01*
G37*
G36*
X106825256Y-55841298D02*
G01*
X106931579Y-55862447D01*
X107232042Y-55986903D01*
X107502451Y-56167585D01*
X107732415Y-56397549D01*
X107732416Y-56397551D01*
X107913098Y-56667960D01*
X108037553Y-56968422D01*
X108101000Y-57287389D01*
X108101000Y-57612611D01*
X108091054Y-57662611D01*
X108037553Y-57931579D01*
X107913097Y-58232042D01*
X107732415Y-58502451D01*
X107502451Y-58732415D01*
X107232042Y-58913097D01*
X106931579Y-59037553D01*
X106825256Y-59058702D01*
X106612611Y-59101000D01*
X106287389Y-59101000D01*
X106074744Y-59058702D01*
X105968421Y-59037553D01*
X105667958Y-58913097D01*
X105397549Y-58732415D01*
X105167585Y-58502451D01*
X104986903Y-58232042D01*
X104862447Y-57931579D01*
X104808946Y-57662611D01*
X104799000Y-57612611D01*
X104799000Y-57287389D01*
X104862447Y-56968422D01*
X104986902Y-56667960D01*
X105167584Y-56397551D01*
X105167585Y-56397549D01*
X105397549Y-56167585D01*
X105667958Y-55986903D01*
X105968421Y-55862447D01*
X106074744Y-55841298D01*
X106287389Y-55799000D01*
X106612611Y-55799000D01*
X106825256Y-55841298D01*
X106825256Y-55841298D01*
G37*
M02*
