M48
; DRILL file {KiCad (5.1.9)-1} date 06/19/21 22:35:02
; FORMAT={-:-/ absolute / inch / decimal}
; #@! TF.CreationDate,2021-06-19T22:35:02+01:00
; #@! TF.GenerationSoftware,Kicad,Pcbnew,(5.1.9)-1
; #@! TF.FileFunction,Plated,1,4,PTH
FMAT,2
INCH
T1C0.0138
T2C0.0236
T3C0.0250
T4C0.0315
T5C0.0394
T6C0.0433
T7C0.0500
T8C0.0512
%
G90
G05
T1
X2.4488Y-3.2953
X2.5472Y-2.8425
X2.5472Y-2.8976
X2.5591Y-2.6083
X2.6142Y-2.8386
X2.6299Y-2.7165
X2.6693Y-2.8307
X2.6772Y-3.6024
X2.6811Y-2.4409
X2.7047Y-2.2441
X2.7362Y-2.4409
X2.7559Y-2.2441
X3.0551Y-2.4764
X3.0709Y-3.2283
X3.0866Y-2.3819
X3.0906Y-2.4764
X3.1102Y-3.189
X3.1102Y-3.2283
X3.1457Y-2.8425
X3.1496Y-3.1496
X3.1496Y-3.189
X3.1496Y-3.2283
X3.1752Y-2.6535
X3.1752Y-2.7047
X3.185Y-2.4961
X3.185Y-2.5394
X3.185Y-2.5906
X3.189Y-3.1102
X3.189Y-3.1496
X3.189Y-3.189
X3.189Y-3.2283
X3.189Y-3.2677
X3.189Y-3.3071
X3.189Y-3.3465
X3.2283Y-3.1102
X3.2283Y-3.1496
X3.2283Y-3.189
X3.2283Y-3.2283
X3.2283Y-3.2677
X3.2283Y-3.3071
X3.2283Y-3.3465
X3.2476Y-3.0437
X3.2677Y-3.1102
X3.2677Y-3.1496
X3.2677Y-3.189
X3.2677Y-3.2283
X3.2677Y-3.2677
X3.2677Y-3.3071
X3.2677Y-3.3465
X3.2677Y-3.3858
X3.2677Y-3.4252
X3.2677Y-3.4646
X3.3071Y-3.1102
X3.3071Y-3.1496
X3.3071Y-3.189
X3.3071Y-3.2283
X3.3071Y-3.2677
X3.3071Y-3.3071
X3.3071Y-3.3465
X3.3071Y-3.3858
X3.3071Y-3.4252
X3.3071Y-3.4646
X3.311Y-2.8504
X3.3465Y-3.1102
X3.3465Y-3.1496
X3.3465Y-3.189
X3.3465Y-3.2283
X3.3465Y-3.2677
X3.3465Y-3.3071
X3.3465Y-3.3465
X3.3465Y-3.3858
X3.3465Y-3.4252
X3.3465Y-3.4646
X3.3858Y-3.1102
X3.3858Y-3.1496
X3.3858Y-3.189
X3.3858Y-3.2283
X3.3858Y-3.2677
X3.3858Y-3.3071
X3.3858Y-3.3465
X3.3858Y-3.3858
X3.3858Y-3.4252
X3.3858Y-3.4646
X3.4252Y-3.1102
X3.4252Y-3.1496
X3.4252Y-3.189
X3.4252Y-3.2283
X3.4252Y-3.2677
X3.4252Y-3.3071
X3.4252Y-3.3465
X3.4252Y-3.3858
X3.4252Y-3.4252
X3.4252Y-3.4646
X3.4646Y-3.1102
X3.4646Y-3.1496
X3.4646Y-3.189
X3.4646Y-3.2283
X3.4646Y-3.2677
X3.4646Y-3.3071
X3.4646Y-3.3465
X3.4685Y-2.6339
X3.5039Y-3.1102
X3.5039Y-3.1496
X3.5039Y-3.189
X3.5039Y-3.2283
X3.5118Y-2.6339
X3.5433Y-3.1102
X3.5433Y-3.1496
X3.5433Y-3.189
X3.5433Y-3.2283
X3.5512Y-2.6299
X3.5827Y-3.1102
X3.5827Y-3.1496
X3.5827Y-3.189
X3.5827Y-3.2283
X3.5906Y-2.6299
X3.6063Y-3.3071
X3.622Y-3.1102
X3.622Y-3.1496
X3.622Y-3.189
X3.622Y-3.2283
X3.6299Y-2.6299
X3.6614Y-3.1102
X3.6614Y-3.1496
X3.6614Y-3.189
X3.6614Y-3.2283
X3.6614Y-3.2677
X3.6614Y-3.3071
X3.6614Y-3.3465
X3.7008Y-3.1102
X3.7008Y-3.1496
X3.7008Y-3.189
X3.7008Y-3.2283
X3.7008Y-3.2677
X3.7008Y-3.3071
X3.7008Y-3.3465
X3.7008Y-3.3858
X3.7008Y-3.4252
X3.7402Y-3.1102
X3.7402Y-3.1496
X3.7402Y-3.189
X3.7402Y-3.2283
X3.7402Y-3.2677
X3.7402Y-3.3071
X3.7402Y-3.3465
X3.7402Y-3.3858
X3.7402Y-3.4252
X3.7638Y-2.8701
X3.7795Y-3.1102
X3.7795Y-3.1496
X3.7795Y-3.189
X3.7795Y-3.2283
X3.7795Y-3.2677
X3.7795Y-3.3071
X3.7795Y-3.3465
X3.7795Y-3.3858
X3.7795Y-3.4252
X3.8189Y-3.1102
X3.8189Y-3.1496
X3.8189Y-3.189
X3.8189Y-3.2283
X3.8189Y-3.2677
X3.8189Y-3.3071
X3.8189Y-3.3465
X3.8583Y-3.1496
X3.8583Y-3.189
X3.8583Y-3.2283
X3.8583Y-3.2677
X3.8583Y-3.3071
X3.8583Y-3.3465
X3.8976Y-3.189
X3.8976Y-3.2283
X3.9134Y-3.1024
X3.937Y-3.189
X3.937Y-3.2283
X3.9764Y-3.189
X3.9764Y-3.2283
X3.9843Y-2.9567
X4.01Y-2.46
X4.0157Y-3.189
X4.0157Y-3.2283
X4.04Y-2.69
X4.04Y-2.93
X4.0433Y-2.4567
X4.0551Y-3.1496
X4.0551Y-3.189
X4.0551Y-3.2283
X4.0551Y-3.2677
X4.0551Y-3.3071
X4.07Y-2.945
X4.0945Y-3.189
X4.0945Y-3.2283
X4.0945Y-3.2677
X4.0945Y-3.3071
X4.1063Y-2.7008
X4.1339Y-3.2283
X4.1339Y-3.2677
X4.1339Y-3.3071
X4.135Y-2.945
X4.1378Y-2.7165
X4.1732Y-3.2677
X4.1732Y-3.3071
X4.175Y-3.03
X4.18Y-3.085
X4.19Y-2.86
X4.195Y-3.005
X4.2166Y-3.2984
X4.36Y-2.955
X4.49Y-3.435
X4.5665Y-3.0633
X4.575Y-2.53
X4.575Y-2.65
X4.585Y-2.895
X4.675Y-2.595
X4.75Y-2.635
T3
X2.5276Y-2.3622
X2.5276Y-2.4331
X2.626Y-2.5945
X2.6575Y-2.9232
X3.122Y-2.2598
X3.122Y-2.3189
X3.3622Y-3.019
X3.9921Y-3.1063
X4.41Y-3.025
X4.445Y-2.785
X4.455Y-3.36
X4.535Y-3.34
X4.655Y-3.465
X4.745Y-3.26
T4
X2.6378Y-3.3819
X2.7756Y-3.3819
T5
X4.4685Y-2.0315
X4.5685Y-2.0315
X4.6685Y-2.0315
X4.7685Y-2.0315
X4.8685Y-2.0315
X4.9685Y-2.0315
X5.0685Y-2.0315
X5.1685Y-2.0315
T6
X2.3425Y-3.1693
X2.3425Y-3.2693
X2.3425Y-3.3693
X2.3425Y-3.4693
X2.5628Y-3.7254
X2.6628Y-3.7254
X2.7628Y-3.7254
X2.8628Y-3.7254
T7
X2.5118Y-2.752
X3.0787Y-2.565
X3.0984Y-2.8937
X3.8228Y-2.2638
X4.845Y-2.855
X4.845Y-2.975
X5.145Y-2.59
X5.145Y-2.695
X5.145Y-2.805
X5.145Y-2.91
T8
X3.0709Y-3.7244
X3.2709Y-3.7244
X3.5276Y-3.7244
X3.7276Y-3.7244
X3.9841Y-3.725
X4.1841Y-3.725
X4.4391Y-3.725
X4.6391Y-3.725
X5.0Y-2.285
X5.0Y-2.485
X5.0Y-2.735
X5.0Y-2.935
X5.0Y-3.19
X5.0Y-3.39
T2
G00X2.2343Y-2.6999
M15
G01X2.2106Y-2.6999
M16
G05
G00X2.2343Y-3.0401
M15
G01X2.2106Y-3.0401
M16
G05
G00X2.4087Y-2.6999
M15
G01X2.3654Y-2.6999
M16
G05
G00X2.4087Y-3.0401
M15
G01X2.3654Y-3.0401
M16
G05
T0
M30
