G04 #@! TF.GenerationSoftware,KiCad,Pcbnew,(5.1.9)-1*
G04 #@! TF.CreationDate,2021-06-19T22:35:00+01:00*
G04 #@! TF.ProjectId,garden,67617264-656e-42e6-9b69-6361645f7063,rev?*
G04 #@! TF.SameCoordinates,Original*
G04 #@! TF.FileFunction,Copper,L1,Top*
G04 #@! TF.FilePolarity,Positive*
%FSLAX46Y46*%
G04 Gerber Fmt 4.6, Leading zero omitted, Abs format (unit mm)*
G04 Created by KiCad (PCBNEW (5.1.9)-1) date 2021-06-19 22:35:00*
%MOMM*%
%LPD*%
G01*
G04 APERTURE LIST*
G04 #@! TA.AperFunction,ComponentPad*
%ADD10O,1.700000X1.700000*%
G04 #@! TD*
G04 #@! TA.AperFunction,ComponentPad*
%ADD11R,1.700000X1.700000*%
G04 #@! TD*
G04 #@! TA.AperFunction,SMDPad,CuDef*
%ADD12R,2.000000X0.900000*%
G04 #@! TD*
G04 #@! TA.AperFunction,SMDPad,CuDef*
%ADD13R,0.900000X2.000000*%
G04 #@! TD*
G04 #@! TA.AperFunction,SMDPad,CuDef*
%ADD14R,5.000000X5.000000*%
G04 #@! TD*
G04 #@! TA.AperFunction,ComponentPad*
%ADD15C,1.600000*%
G04 #@! TD*
G04 #@! TA.AperFunction,ComponentPad*
%ADD16R,1.600000X1.600000*%
G04 #@! TD*
G04 #@! TA.AperFunction,SMDPad,CuDef*
%ADD17R,1.220000X0.650000*%
G04 #@! TD*
G04 #@! TA.AperFunction,SMDPad,CuDef*
%ADD18R,1.200000X0.900000*%
G04 #@! TD*
G04 #@! TA.AperFunction,SMDPad,CuDef*
%ADD19R,0.900000X1.200000*%
G04 #@! TD*
G04 #@! TA.AperFunction,SMDPad,CuDef*
%ADD20C,0.100000*%
G04 #@! TD*
G04 #@! TA.AperFunction,SMDPad,CuDef*
%ADD21R,1.450000X0.600000*%
G04 #@! TD*
G04 #@! TA.AperFunction,SMDPad,CuDef*
%ADD22R,1.450000X0.300000*%
G04 #@! TD*
G04 #@! TA.AperFunction,ComponentPad*
%ADD23O,2.100000X1.000000*%
G04 #@! TD*
G04 #@! TA.AperFunction,ComponentPad*
%ADD24O,1.600000X1.000000*%
G04 #@! TD*
G04 #@! TA.AperFunction,SMDPad,CuDef*
%ADD25R,3.500000X2.200000*%
G04 #@! TD*
G04 #@! TA.AperFunction,SMDPad,CuDef*
%ADD26R,0.800000X0.900000*%
G04 #@! TD*
G04 #@! TA.AperFunction,ComponentPad*
%ADD27C,2.600000*%
G04 #@! TD*
G04 #@! TA.AperFunction,ComponentPad*
%ADD28R,2.600000X2.600000*%
G04 #@! TD*
G04 #@! TA.AperFunction,SMDPad,CuDef*
%ADD29R,0.900000X0.800000*%
G04 #@! TD*
G04 #@! TA.AperFunction,SMDPad,CuDef*
%ADD30R,1.060000X0.650000*%
G04 #@! TD*
G04 #@! TA.AperFunction,SMDPad,CuDef*
%ADD31R,0.500000X0.500000*%
G04 #@! TD*
G04 #@! TA.AperFunction,SMDPad,CuDef*
%ADD32R,1.000000X0.750000*%
G04 #@! TD*
G04 #@! TA.AperFunction,ComponentPad*
%ADD33C,2.200000*%
G04 #@! TD*
G04 #@! TA.AperFunction,ComponentPad*
%ADD34R,2.200000X2.200000*%
G04 #@! TD*
G04 #@! TA.AperFunction,ViaPad*
%ADD35C,0.600000*%
G04 #@! TD*
G04 #@! TA.AperFunction,ViaPad*
%ADD36C,1.016000*%
G04 #@! TD*
G04 #@! TA.AperFunction,ViaPad*
%ADD37C,2.032000*%
G04 #@! TD*
G04 #@! TA.AperFunction,Conductor*
%ADD38C,0.635000*%
G04 #@! TD*
G04 #@! TA.AperFunction,Conductor*
%ADD39C,0.203200*%
G04 #@! TD*
G04 #@! TA.AperFunction,Conductor*
%ADD40C,0.304800*%
G04 #@! TD*
G04 #@! TA.AperFunction,Conductor*
%ADD41C,2.540000*%
G04 #@! TD*
G04 #@! TA.AperFunction,Conductor*
%ADD42C,1.270000*%
G04 #@! TD*
G04 #@! TA.AperFunction,Conductor*
%ADD43C,0.177800*%
G04 #@! TD*
G04 #@! TA.AperFunction,Conductor*
%ADD44C,3.810000*%
G04 #@! TD*
G04 #@! TA.AperFunction,Conductor*
%ADD45C,0.500000*%
G04 #@! TD*
G04 #@! TA.AperFunction,Conductor*
%ADD46C,0.100000*%
G04 #@! TD*
G04 #@! TA.AperFunction,Conductor*
%ADD47C,0.254000*%
G04 #@! TD*
G04 APERTURE END LIST*
G04 #@! TA.AperFunction,SMDPad,CuDef*
G36*
G01*
X108956250Y-51150000D02*
X108443750Y-51150000D01*
G75*
G02*
X108225000Y-50931250I0J218750D01*
G01*
X108225000Y-50493750D01*
G75*
G02*
X108443750Y-50275000I218750J0D01*
G01*
X108956250Y-50275000D01*
G75*
G02*
X109175000Y-50493750I0J-218750D01*
G01*
X109175000Y-50931250D01*
G75*
G02*
X108956250Y-51150000I-218750J0D01*
G01*
G37*
G04 #@! TD.AperFunction*
G04 #@! TA.AperFunction,SMDPad,CuDef*
G36*
G01*
X108956250Y-52725000D02*
X108443750Y-52725000D01*
G75*
G02*
X108225000Y-52506250I0J218750D01*
G01*
X108225000Y-52068750D01*
G75*
G02*
X108443750Y-51850000I218750J0D01*
G01*
X108956250Y-51850000D01*
G75*
G02*
X109175000Y-52068750I0J-218750D01*
G01*
X109175000Y-52506250D01*
G75*
G02*
X108956250Y-52725000I-218750J0D01*
G01*
G37*
G04 #@! TD.AperFunction*
D10*
X131280000Y-51600000D03*
X128740000Y-51600000D03*
X126200000Y-51600000D03*
X123660000Y-51600000D03*
X121120000Y-51600000D03*
X118580000Y-51600000D03*
X116040000Y-51600000D03*
D11*
X113500000Y-51600000D03*
D12*
X99686000Y-57277000D03*
X99686000Y-58547000D03*
X99686000Y-59817000D03*
X99686000Y-61087000D03*
X99686000Y-62357000D03*
X99686000Y-63627000D03*
X99686000Y-64897000D03*
X99686000Y-66167000D03*
X99686000Y-67437000D03*
X99686000Y-68707000D03*
X99686000Y-69977000D03*
X99686000Y-71247000D03*
X99686000Y-72517000D03*
X99686000Y-73787000D03*
D13*
X96901000Y-74787000D03*
X95631000Y-74787000D03*
X94361000Y-74787000D03*
X93091000Y-74787000D03*
X91821000Y-74787000D03*
X90551000Y-74787000D03*
X89281000Y-74787000D03*
X88011000Y-74787000D03*
X86741000Y-74787000D03*
X85471000Y-74787000D03*
D12*
X82686000Y-73787000D03*
X82686000Y-72517000D03*
X82686000Y-71247000D03*
X82686000Y-69977000D03*
X82686000Y-68707000D03*
X82686000Y-67437000D03*
X82686000Y-66167000D03*
X82686000Y-64897000D03*
X82686000Y-63627000D03*
X82686000Y-62357000D03*
X82686000Y-61087000D03*
X82686000Y-59817000D03*
X82686000Y-58547000D03*
X82686000Y-57277000D03*
D14*
X90186000Y-64777000D03*
G04 #@! TA.AperFunction,SMDPad,CuDef*
G36*
G01*
X65077500Y-57940000D02*
X65422500Y-57940000D01*
G75*
G02*
X65570000Y-58087500I0J-147500D01*
G01*
X65570000Y-58382500D01*
G75*
G02*
X65422500Y-58530000I-147500J0D01*
G01*
X65077500Y-58530000D01*
G75*
G02*
X64930000Y-58382500I0J147500D01*
G01*
X64930000Y-58087500D01*
G75*
G02*
X65077500Y-57940000I147500J0D01*
G01*
G37*
G04 #@! TD.AperFunction*
G04 #@! TA.AperFunction,SMDPad,CuDef*
G36*
G01*
X65077500Y-56970000D02*
X65422500Y-56970000D01*
G75*
G02*
X65570000Y-57117500I0J-147500D01*
G01*
X65570000Y-57412500D01*
G75*
G02*
X65422500Y-57560000I-147500J0D01*
G01*
X65077500Y-57560000D01*
G75*
G02*
X64930000Y-57412500I0J147500D01*
G01*
X64930000Y-57117500D01*
G75*
G02*
X65077500Y-56970000I147500J0D01*
G01*
G37*
G04 #@! TD.AperFunction*
D15*
X67000000Y-85900000D03*
D16*
X70500000Y-85900000D03*
G04 #@! TA.AperFunction,SMDPad,CuDef*
G36*
G01*
X77550000Y-78556250D02*
X77550000Y-77643750D01*
G75*
G02*
X77793750Y-77400000I243750J0D01*
G01*
X78281250Y-77400000D01*
G75*
G02*
X78525000Y-77643750I0J-243750D01*
G01*
X78525000Y-78556250D01*
G75*
G02*
X78281250Y-78800000I-243750J0D01*
G01*
X77793750Y-78800000D01*
G75*
G02*
X77550000Y-78556250I0J243750D01*
G01*
G37*
G04 #@! TD.AperFunction*
G04 #@! TA.AperFunction,SMDPad,CuDef*
G36*
G01*
X75675000Y-78556250D02*
X75675000Y-77643750D01*
G75*
G02*
X75918750Y-77400000I243750J0D01*
G01*
X76406250Y-77400000D01*
G75*
G02*
X76650000Y-77643750I0J-243750D01*
G01*
X76650000Y-78556250D01*
G75*
G02*
X76406250Y-78800000I-243750J0D01*
G01*
X75918750Y-78800000D01*
G75*
G02*
X75675000Y-78556250I0J243750D01*
G01*
G37*
G04 #@! TD.AperFunction*
G04 #@! TA.AperFunction,SMDPad,CuDef*
G36*
G01*
X74110000Y-80777500D02*
X74110000Y-81122500D01*
G75*
G02*
X73962500Y-81270000I-147500J0D01*
G01*
X73667500Y-81270000D01*
G75*
G02*
X73520000Y-81122500I0J147500D01*
G01*
X73520000Y-80777500D01*
G75*
G02*
X73667500Y-80630000I147500J0D01*
G01*
X73962500Y-80630000D01*
G75*
G02*
X74110000Y-80777500I0J-147500D01*
G01*
G37*
G04 #@! TD.AperFunction*
G04 #@! TA.AperFunction,SMDPad,CuDef*
G36*
G01*
X75080000Y-80777500D02*
X75080000Y-81122500D01*
G75*
G02*
X74932500Y-81270000I-147500J0D01*
G01*
X74637500Y-81270000D01*
G75*
G02*
X74490000Y-81122500I0J147500D01*
G01*
X74490000Y-80777500D01*
G75*
G02*
X74637500Y-80630000I147500J0D01*
G01*
X74932500Y-80630000D01*
G75*
G02*
X75080000Y-80777500I0J-147500D01*
G01*
G37*
G04 #@! TD.AperFunction*
G04 #@! TA.AperFunction,SMDPad,CuDef*
G36*
G01*
X73950000Y-76006250D02*
X73950000Y-75493750D01*
G75*
G02*
X74168750Y-75275000I218750J0D01*
G01*
X74606250Y-75275000D01*
G75*
G02*
X74825000Y-75493750I0J-218750D01*
G01*
X74825000Y-76006250D01*
G75*
G02*
X74606250Y-76225000I-218750J0D01*
G01*
X74168750Y-76225000D01*
G75*
G02*
X73950000Y-76006250I0J218750D01*
G01*
G37*
G04 #@! TD.AperFunction*
G04 #@! TA.AperFunction,SMDPad,CuDef*
G36*
G01*
X72375000Y-76006250D02*
X72375000Y-75493750D01*
G75*
G02*
X72593750Y-75275000I218750J0D01*
G01*
X73031250Y-75275000D01*
G75*
G02*
X73250000Y-75493750I0J-218750D01*
G01*
X73250000Y-76006250D01*
G75*
G02*
X73031250Y-76225000I-218750J0D01*
G01*
X72593750Y-76225000D01*
G75*
G02*
X72375000Y-76006250I0J218750D01*
G01*
G37*
G04 #@! TD.AperFunction*
D17*
X74260000Y-77600000D03*
X74260000Y-78550000D03*
X74260000Y-79500000D03*
X71640000Y-79500000D03*
X71640000Y-78550000D03*
X71640000Y-77600000D03*
G04 #@! TA.AperFunction,SMDPad,CuDef*
G36*
G01*
X72140000Y-81135000D02*
X72140000Y-80765000D01*
G75*
G02*
X72275000Y-80630000I135000J0D01*
G01*
X72545000Y-80630000D01*
G75*
G02*
X72680000Y-80765000I0J-135000D01*
G01*
X72680000Y-81135000D01*
G75*
G02*
X72545000Y-81270000I-135000J0D01*
G01*
X72275000Y-81270000D01*
G75*
G02*
X72140000Y-81135000I0J135000D01*
G01*
G37*
G04 #@! TD.AperFunction*
G04 #@! TA.AperFunction,SMDPad,CuDef*
G36*
G01*
X71120000Y-81135000D02*
X71120000Y-80765000D01*
G75*
G02*
X71255000Y-80630000I135000J0D01*
G01*
X71525000Y-80630000D01*
G75*
G02*
X71660000Y-80765000I0J-135000D01*
G01*
X71660000Y-81135000D01*
G75*
G02*
X71525000Y-81270000I-135000J0D01*
G01*
X71255000Y-81270000D01*
G75*
G02*
X71120000Y-81135000I0J135000D01*
G01*
G37*
G04 #@! TD.AperFunction*
D18*
X67200000Y-75650000D03*
X67200000Y-78950000D03*
X75300000Y-86250000D03*
X75300000Y-82950000D03*
D19*
X79550000Y-75800000D03*
X76250000Y-75800000D03*
G04 #@! TA.AperFunction,SMDPad,CuDef*
G36*
G01*
X68577500Y-73190000D02*
X68922500Y-73190000D01*
G75*
G02*
X69070000Y-73337500I0J-147500D01*
G01*
X69070000Y-73632500D01*
G75*
G02*
X68922500Y-73780000I-147500J0D01*
G01*
X68577500Y-73780000D01*
G75*
G02*
X68430000Y-73632500I0J147500D01*
G01*
X68430000Y-73337500D01*
G75*
G02*
X68577500Y-73190000I147500J0D01*
G01*
G37*
G04 #@! TD.AperFunction*
G04 #@! TA.AperFunction,SMDPad,CuDef*
G36*
G01*
X68577500Y-72220000D02*
X68922500Y-72220000D01*
G75*
G02*
X69070000Y-72367500I0J-147500D01*
G01*
X69070000Y-72662500D01*
G75*
G02*
X68922500Y-72810000I-147500J0D01*
G01*
X68577500Y-72810000D01*
G75*
G02*
X68430000Y-72662500I0J147500D01*
G01*
X68430000Y-72367500D01*
G75*
G02*
X68577500Y-72220000I147500J0D01*
G01*
G37*
G04 #@! TD.AperFunction*
G04 #@! TA.AperFunction,SMDPad,CuDef*
D20*
G36*
X64500000Y-77275000D02*
G01*
X63750000Y-76775000D01*
X63750000Y-75775000D01*
X65250000Y-75775000D01*
X65250000Y-76775000D01*
X64500000Y-77275000D01*
G37*
G04 #@! TD.AperFunction*
G04 #@! TA.AperFunction,SMDPad,CuDef*
G36*
X63750000Y-78225000D02*
G01*
X63750000Y-77075000D01*
X64500000Y-77575000D01*
X65250000Y-77075000D01*
X65250000Y-78225000D01*
X63750000Y-78225000D01*
G37*
G04 #@! TD.AperFunction*
D21*
X61545000Y-76148000D03*
X61545000Y-75348000D03*
X61545000Y-70448000D03*
X61545000Y-69648000D03*
X61545000Y-69648000D03*
X61545000Y-70448000D03*
X61545000Y-75348000D03*
X61545000Y-76148000D03*
D22*
X61545000Y-71148000D03*
X61545000Y-71648000D03*
X61545000Y-72148000D03*
X61545000Y-73148000D03*
X61545000Y-73648000D03*
X61545000Y-74148000D03*
X61545000Y-74648000D03*
X61545000Y-72648000D03*
D23*
X60630000Y-77218000D03*
X60630000Y-68578000D03*
D24*
X56450000Y-68578000D03*
X56450000Y-77218000D03*
D25*
X74600000Y-67200000D03*
X74600000Y-73100000D03*
G04 #@! TA.AperFunction,SMDPad,CuDef*
G36*
G01*
X78650000Y-68275000D02*
X79150000Y-68275000D01*
G75*
G02*
X79375000Y-68500000I0J-225000D01*
G01*
X79375000Y-68950000D01*
G75*
G02*
X79150000Y-69175000I-225000J0D01*
G01*
X78650000Y-69175000D01*
G75*
G02*
X78425000Y-68950000I0J225000D01*
G01*
X78425000Y-68500000D01*
G75*
G02*
X78650000Y-68275000I225000J0D01*
G01*
G37*
G04 #@! TD.AperFunction*
G04 #@! TA.AperFunction,SMDPad,CuDef*
G36*
G01*
X78650000Y-66725000D02*
X79150000Y-66725000D01*
G75*
G02*
X79375000Y-66950000I0J-225000D01*
G01*
X79375000Y-67400000D01*
G75*
G02*
X79150000Y-67625000I-225000J0D01*
G01*
X78650000Y-67625000D01*
G75*
G02*
X78425000Y-67400000I0J225000D01*
G01*
X78425000Y-66950000D01*
G75*
G02*
X78650000Y-66725000I225000J0D01*
G01*
G37*
G04 #@! TD.AperFunction*
D26*
X100284000Y-85072000D03*
X99334000Y-83072000D03*
X101234000Y-83072000D03*
G04 #@! TA.AperFunction,SMDPad,CuDef*
G36*
G01*
X81215000Y-77340000D02*
X81585000Y-77340000D01*
G75*
G02*
X81720000Y-77475000I0J-135000D01*
G01*
X81720000Y-77745000D01*
G75*
G02*
X81585000Y-77880000I-135000J0D01*
G01*
X81215000Y-77880000D01*
G75*
G02*
X81080000Y-77745000I0J135000D01*
G01*
X81080000Y-77475000D01*
G75*
G02*
X81215000Y-77340000I135000J0D01*
G01*
G37*
G04 #@! TD.AperFunction*
G04 #@! TA.AperFunction,SMDPad,CuDef*
G36*
G01*
X81215000Y-76320000D02*
X81585000Y-76320000D01*
G75*
G02*
X81720000Y-76455000I0J-135000D01*
G01*
X81720000Y-76725000D01*
G75*
G02*
X81585000Y-76860000I-135000J0D01*
G01*
X81215000Y-76860000D01*
G75*
G02*
X81080000Y-76725000I0J135000D01*
G01*
X81080000Y-76455000D01*
G75*
G02*
X81215000Y-76320000I135000J0D01*
G01*
G37*
G04 #@! TD.AperFunction*
G04 #@! TA.AperFunction,SMDPad,CuDef*
G36*
G01*
X97860000Y-78015000D02*
X97860000Y-78385000D01*
G75*
G02*
X97725000Y-78520000I-135000J0D01*
G01*
X97455000Y-78520000D01*
G75*
G02*
X97320000Y-78385000I0J135000D01*
G01*
X97320000Y-78015000D01*
G75*
G02*
X97455000Y-77880000I135000J0D01*
G01*
X97725000Y-77880000D01*
G75*
G02*
X97860000Y-78015000I0J-135000D01*
G01*
G37*
G04 #@! TD.AperFunction*
G04 #@! TA.AperFunction,SMDPad,CuDef*
G36*
G01*
X98880000Y-78015000D02*
X98880000Y-78385000D01*
G75*
G02*
X98745000Y-78520000I-135000J0D01*
G01*
X98475000Y-78520000D01*
G75*
G02*
X98340000Y-78385000I0J135000D01*
G01*
X98340000Y-78015000D01*
G75*
G02*
X98475000Y-77880000I135000J0D01*
G01*
X98745000Y-77880000D01*
G75*
G02*
X98880000Y-78015000I0J-135000D01*
G01*
G37*
G04 #@! TD.AperFunction*
X78800000Y-85200000D03*
X77850000Y-83200000D03*
X79750000Y-83200000D03*
X90600000Y-85200000D03*
X89650000Y-83200000D03*
X91550000Y-83200000D03*
D27*
X83080000Y-94600000D03*
D28*
X78000000Y-94600000D03*
D27*
X94680000Y-94600000D03*
D28*
X89600000Y-94600000D03*
D19*
X77250000Y-87400000D03*
X80550000Y-87400000D03*
X88950000Y-87400000D03*
X92250000Y-87400000D03*
G04 #@! TA.AperFunction,SMDPad,CuDef*
G36*
G01*
X102640000Y-78085000D02*
X102640000Y-77715000D01*
G75*
G02*
X102775000Y-77580000I135000J0D01*
G01*
X103045000Y-77580000D01*
G75*
G02*
X103180000Y-77715000I0J-135000D01*
G01*
X103180000Y-78085000D01*
G75*
G02*
X103045000Y-78220000I-135000J0D01*
G01*
X102775000Y-78220000D01*
G75*
G02*
X102640000Y-78085000I0J135000D01*
G01*
G37*
G04 #@! TD.AperFunction*
G04 #@! TA.AperFunction,SMDPad,CuDef*
G36*
G01*
X101620000Y-78085000D02*
X101620000Y-77715000D01*
G75*
G02*
X101755000Y-77580000I135000J0D01*
G01*
X102025000Y-77580000D01*
G75*
G02*
X102160000Y-77715000I0J-135000D01*
G01*
X102160000Y-78085000D01*
G75*
G02*
X102025000Y-78220000I-135000J0D01*
G01*
X101755000Y-78220000D01*
G75*
G02*
X101620000Y-78085000I0J135000D01*
G01*
G37*
G04 #@! TD.AperFunction*
D26*
X106300000Y-87300000D03*
X105350000Y-85300000D03*
X107250000Y-85300000D03*
G04 #@! TA.AperFunction,SMDPad,CuDef*
G36*
G01*
X100090000Y-77666000D02*
X100090000Y-78036000D01*
G75*
G02*
X99955000Y-78171000I-135000J0D01*
G01*
X99685000Y-78171000D01*
G75*
G02*
X99550000Y-78036000I0J135000D01*
G01*
X99550000Y-77666000D01*
G75*
G02*
X99685000Y-77531000I135000J0D01*
G01*
X99955000Y-77531000D01*
G75*
G02*
X100090000Y-77666000I0J-135000D01*
G01*
G37*
G04 #@! TD.AperFunction*
G04 #@! TA.AperFunction,SMDPad,CuDef*
G36*
G01*
X101110000Y-77666000D02*
X101110000Y-78036000D01*
G75*
G02*
X100975000Y-78171000I-135000J0D01*
G01*
X100705000Y-78171000D01*
G75*
G02*
X100570000Y-78036000I0J135000D01*
G01*
X100570000Y-77666000D01*
G75*
G02*
X100705000Y-77531000I135000J0D01*
G01*
X100975000Y-77531000D01*
G75*
G02*
X101110000Y-77666000I0J-135000D01*
G01*
G37*
G04 #@! TD.AperFunction*
G04 #@! TA.AperFunction,SMDPad,CuDef*
G36*
G01*
X113469000Y-79807750D02*
X113469000Y-80720250D01*
G75*
G02*
X113225250Y-80964000I-243750J0D01*
G01*
X112737750Y-80964000D01*
G75*
G02*
X112494000Y-80720250I0J243750D01*
G01*
X112494000Y-79807750D01*
G75*
G02*
X112737750Y-79564000I243750J0D01*
G01*
X113225250Y-79564000D01*
G75*
G02*
X113469000Y-79807750I0J-243750D01*
G01*
G37*
G04 #@! TD.AperFunction*
G04 #@! TA.AperFunction,SMDPad,CuDef*
G36*
G01*
X115344000Y-79807750D02*
X115344000Y-80720250D01*
G75*
G02*
X115100250Y-80964000I-243750J0D01*
G01*
X114612750Y-80964000D01*
G75*
G02*
X114369000Y-80720250I0J243750D01*
G01*
X114369000Y-79807750D01*
G75*
G02*
X114612750Y-79564000I243750J0D01*
G01*
X115100250Y-79564000D01*
G75*
G02*
X115344000Y-79807750I0J-243750D01*
G01*
G37*
G04 #@! TD.AperFunction*
D29*
X120253000Y-85725000D03*
X118253000Y-86675000D03*
X118253000Y-84775000D03*
D27*
X127000000Y-58039000D03*
D28*
X127000000Y-63119000D03*
D27*
X127000000Y-81026000D03*
D28*
X127000000Y-86106000D03*
D27*
X106275000Y-94615000D03*
D28*
X101195000Y-94615000D03*
D27*
X117832000Y-94615000D03*
D28*
X112752000Y-94615000D03*
D27*
X127000000Y-69469000D03*
D28*
X127000000Y-74549000D03*
G04 #@! TA.AperFunction,SMDPad,CuDef*
G36*
G01*
X67415000Y-70540000D02*
X67785000Y-70540000D01*
G75*
G02*
X67920000Y-70675000I0J-135000D01*
G01*
X67920000Y-70945000D01*
G75*
G02*
X67785000Y-71080000I-135000J0D01*
G01*
X67415000Y-71080000D01*
G75*
G02*
X67280000Y-70945000I0J135000D01*
G01*
X67280000Y-70675000D01*
G75*
G02*
X67415000Y-70540000I135000J0D01*
G01*
G37*
G04 #@! TD.AperFunction*
G04 #@! TA.AperFunction,SMDPad,CuDef*
G36*
G01*
X67415000Y-69520000D02*
X67785000Y-69520000D01*
G75*
G02*
X67920000Y-69655000I0J-135000D01*
G01*
X67920000Y-69925000D01*
G75*
G02*
X67785000Y-70060000I-135000J0D01*
G01*
X67415000Y-70060000D01*
G75*
G02*
X67280000Y-69925000I0J135000D01*
G01*
X67280000Y-69655000D01*
G75*
G02*
X67415000Y-69520000I135000J0D01*
G01*
G37*
G04 #@! TD.AperFunction*
G04 #@! TA.AperFunction,SMDPad,CuDef*
G36*
G01*
X65490000Y-67435000D02*
X65490000Y-67065000D01*
G75*
G02*
X65625000Y-66930000I135000J0D01*
G01*
X65895000Y-66930000D01*
G75*
G02*
X66030000Y-67065000I0J-135000D01*
G01*
X66030000Y-67435000D01*
G75*
G02*
X65895000Y-67570000I-135000J0D01*
G01*
X65625000Y-67570000D01*
G75*
G02*
X65490000Y-67435000I0J135000D01*
G01*
G37*
G04 #@! TD.AperFunction*
G04 #@! TA.AperFunction,SMDPad,CuDef*
G36*
G01*
X64470000Y-67435000D02*
X64470000Y-67065000D01*
G75*
G02*
X64605000Y-66930000I135000J0D01*
G01*
X64875000Y-66930000D01*
G75*
G02*
X65010000Y-67065000I0J-135000D01*
G01*
X65010000Y-67435000D01*
G75*
G02*
X64875000Y-67570000I-135000J0D01*
G01*
X64605000Y-67570000D01*
G75*
G02*
X64470000Y-67435000I0J135000D01*
G01*
G37*
G04 #@! TD.AperFunction*
G04 #@! TA.AperFunction,SMDPad,CuDef*
G36*
G01*
X67005000Y-59900000D02*
X66705000Y-59900000D01*
G75*
G02*
X66555000Y-59750000I0J150000D01*
G01*
X66555000Y-58100000D01*
G75*
G02*
X66705000Y-57950000I150000J0D01*
G01*
X67005000Y-57950000D01*
G75*
G02*
X67155000Y-58100000I0J-150000D01*
G01*
X67155000Y-59750000D01*
G75*
G02*
X67005000Y-59900000I-150000J0D01*
G01*
G37*
G04 #@! TD.AperFunction*
G04 #@! TA.AperFunction,SMDPad,CuDef*
G36*
G01*
X68275000Y-59900000D02*
X67975000Y-59900000D01*
G75*
G02*
X67825000Y-59750000I0J150000D01*
G01*
X67825000Y-58100000D01*
G75*
G02*
X67975000Y-57950000I150000J0D01*
G01*
X68275000Y-57950000D01*
G75*
G02*
X68425000Y-58100000I0J-150000D01*
G01*
X68425000Y-59750000D01*
G75*
G02*
X68275000Y-59900000I-150000J0D01*
G01*
G37*
G04 #@! TD.AperFunction*
G04 #@! TA.AperFunction,SMDPad,CuDef*
G36*
G01*
X69545000Y-59900000D02*
X69245000Y-59900000D01*
G75*
G02*
X69095000Y-59750000I0J150000D01*
G01*
X69095000Y-58100000D01*
G75*
G02*
X69245000Y-57950000I150000J0D01*
G01*
X69545000Y-57950000D01*
G75*
G02*
X69695000Y-58100000I0J-150000D01*
G01*
X69695000Y-59750000D01*
G75*
G02*
X69545000Y-59900000I-150000J0D01*
G01*
G37*
G04 #@! TD.AperFunction*
G04 #@! TA.AperFunction,SMDPad,CuDef*
G36*
G01*
X70815000Y-59900000D02*
X70515000Y-59900000D01*
G75*
G02*
X70365000Y-59750000I0J150000D01*
G01*
X70365000Y-58100000D01*
G75*
G02*
X70515000Y-57950000I150000J0D01*
G01*
X70815000Y-57950000D01*
G75*
G02*
X70965000Y-58100000I0J-150000D01*
G01*
X70965000Y-59750000D01*
G75*
G02*
X70815000Y-59900000I-150000J0D01*
G01*
G37*
G04 #@! TD.AperFunction*
G04 #@! TA.AperFunction,SMDPad,CuDef*
G36*
G01*
X72085000Y-59900000D02*
X71785000Y-59900000D01*
G75*
G02*
X71635000Y-59750000I0J150000D01*
G01*
X71635000Y-58100000D01*
G75*
G02*
X71785000Y-57950000I150000J0D01*
G01*
X72085000Y-57950000D01*
G75*
G02*
X72235000Y-58100000I0J-150000D01*
G01*
X72235000Y-59750000D01*
G75*
G02*
X72085000Y-59900000I-150000J0D01*
G01*
G37*
G04 #@! TD.AperFunction*
G04 #@! TA.AperFunction,SMDPad,CuDef*
G36*
G01*
X73355000Y-59900000D02*
X73055000Y-59900000D01*
G75*
G02*
X72905000Y-59750000I0J150000D01*
G01*
X72905000Y-58100000D01*
G75*
G02*
X73055000Y-57950000I150000J0D01*
G01*
X73355000Y-57950000D01*
G75*
G02*
X73505000Y-58100000I0J-150000D01*
G01*
X73505000Y-59750000D01*
G75*
G02*
X73355000Y-59900000I-150000J0D01*
G01*
G37*
G04 #@! TD.AperFunction*
G04 #@! TA.AperFunction,SMDPad,CuDef*
G36*
G01*
X74625000Y-59900000D02*
X74325000Y-59900000D01*
G75*
G02*
X74175000Y-59750000I0J150000D01*
G01*
X74175000Y-58100000D01*
G75*
G02*
X74325000Y-57950000I150000J0D01*
G01*
X74625000Y-57950000D01*
G75*
G02*
X74775000Y-58100000I0J-150000D01*
G01*
X74775000Y-59750000D01*
G75*
G02*
X74625000Y-59900000I-150000J0D01*
G01*
G37*
G04 #@! TD.AperFunction*
G04 #@! TA.AperFunction,SMDPad,CuDef*
G36*
G01*
X75895000Y-59900000D02*
X75595000Y-59900000D01*
G75*
G02*
X75445000Y-59750000I0J150000D01*
G01*
X75445000Y-58100000D01*
G75*
G02*
X75595000Y-57950000I150000J0D01*
G01*
X75895000Y-57950000D01*
G75*
G02*
X76045000Y-58100000I0J-150000D01*
G01*
X76045000Y-59750000D01*
G75*
G02*
X75895000Y-59900000I-150000J0D01*
G01*
G37*
G04 #@! TD.AperFunction*
G04 #@! TA.AperFunction,SMDPad,CuDef*
G36*
G01*
X75895000Y-64850000D02*
X75595000Y-64850000D01*
G75*
G02*
X75445000Y-64700000I0J150000D01*
G01*
X75445000Y-63050000D01*
G75*
G02*
X75595000Y-62900000I150000J0D01*
G01*
X75895000Y-62900000D01*
G75*
G02*
X76045000Y-63050000I0J-150000D01*
G01*
X76045000Y-64700000D01*
G75*
G02*
X75895000Y-64850000I-150000J0D01*
G01*
G37*
G04 #@! TD.AperFunction*
G04 #@! TA.AperFunction,SMDPad,CuDef*
G36*
G01*
X74625000Y-64850000D02*
X74325000Y-64850000D01*
G75*
G02*
X74175000Y-64700000I0J150000D01*
G01*
X74175000Y-63050000D01*
G75*
G02*
X74325000Y-62900000I150000J0D01*
G01*
X74625000Y-62900000D01*
G75*
G02*
X74775000Y-63050000I0J-150000D01*
G01*
X74775000Y-64700000D01*
G75*
G02*
X74625000Y-64850000I-150000J0D01*
G01*
G37*
G04 #@! TD.AperFunction*
G04 #@! TA.AperFunction,SMDPad,CuDef*
G36*
G01*
X73355000Y-64850000D02*
X73055000Y-64850000D01*
G75*
G02*
X72905000Y-64700000I0J150000D01*
G01*
X72905000Y-63050000D01*
G75*
G02*
X73055000Y-62900000I150000J0D01*
G01*
X73355000Y-62900000D01*
G75*
G02*
X73505000Y-63050000I0J-150000D01*
G01*
X73505000Y-64700000D01*
G75*
G02*
X73355000Y-64850000I-150000J0D01*
G01*
G37*
G04 #@! TD.AperFunction*
G04 #@! TA.AperFunction,SMDPad,CuDef*
G36*
G01*
X72085000Y-64850000D02*
X71785000Y-64850000D01*
G75*
G02*
X71635000Y-64700000I0J150000D01*
G01*
X71635000Y-63050000D01*
G75*
G02*
X71785000Y-62900000I150000J0D01*
G01*
X72085000Y-62900000D01*
G75*
G02*
X72235000Y-63050000I0J-150000D01*
G01*
X72235000Y-64700000D01*
G75*
G02*
X72085000Y-64850000I-150000J0D01*
G01*
G37*
G04 #@! TD.AperFunction*
G04 #@! TA.AperFunction,SMDPad,CuDef*
G36*
G01*
X70815000Y-64850000D02*
X70515000Y-64850000D01*
G75*
G02*
X70365000Y-64700000I0J150000D01*
G01*
X70365000Y-63050000D01*
G75*
G02*
X70515000Y-62900000I150000J0D01*
G01*
X70815000Y-62900000D01*
G75*
G02*
X70965000Y-63050000I0J-150000D01*
G01*
X70965000Y-64700000D01*
G75*
G02*
X70815000Y-64850000I-150000J0D01*
G01*
G37*
G04 #@! TD.AperFunction*
G04 #@! TA.AperFunction,SMDPad,CuDef*
G36*
G01*
X69545000Y-64850000D02*
X69245000Y-64850000D01*
G75*
G02*
X69095000Y-64700000I0J150000D01*
G01*
X69095000Y-63050000D01*
G75*
G02*
X69245000Y-62900000I150000J0D01*
G01*
X69545000Y-62900000D01*
G75*
G02*
X69695000Y-63050000I0J-150000D01*
G01*
X69695000Y-64700000D01*
G75*
G02*
X69545000Y-64850000I-150000J0D01*
G01*
G37*
G04 #@! TD.AperFunction*
G04 #@! TA.AperFunction,SMDPad,CuDef*
G36*
G01*
X68275000Y-64850000D02*
X67975000Y-64850000D01*
G75*
G02*
X67825000Y-64700000I0J150000D01*
G01*
X67825000Y-63050000D01*
G75*
G02*
X67975000Y-62900000I150000J0D01*
G01*
X68275000Y-62900000D01*
G75*
G02*
X68425000Y-63050000I0J-150000D01*
G01*
X68425000Y-64700000D01*
G75*
G02*
X68275000Y-64850000I-150000J0D01*
G01*
G37*
G04 #@! TD.AperFunction*
G04 #@! TA.AperFunction,SMDPad,CuDef*
G36*
G01*
X67005000Y-64850000D02*
X66705000Y-64850000D01*
G75*
G02*
X66555000Y-64700000I0J150000D01*
G01*
X66555000Y-63050000D01*
G75*
G02*
X66705000Y-62900000I150000J0D01*
G01*
X67005000Y-62900000D01*
G75*
G02*
X67155000Y-63050000I0J-150000D01*
G01*
X67155000Y-64700000D01*
G75*
G02*
X67005000Y-64850000I-150000J0D01*
G01*
G37*
G04 #@! TD.AperFunction*
G04 #@! TA.AperFunction,SMDPad,CuDef*
G36*
G01*
X112854000Y-75402000D02*
X112854000Y-75252000D01*
G75*
G02*
X112929000Y-75177000I75000J0D01*
G01*
X114229000Y-75177000D01*
G75*
G02*
X114304000Y-75252000I0J-75000D01*
G01*
X114304000Y-75402000D01*
G75*
G02*
X114229000Y-75477000I-75000J0D01*
G01*
X112929000Y-75477000D01*
G75*
G02*
X112854000Y-75402000I0J75000D01*
G01*
G37*
G04 #@! TD.AperFunction*
G04 #@! TA.AperFunction,SMDPad,CuDef*
G36*
G01*
X112854000Y-75902000D02*
X112854000Y-75752000D01*
G75*
G02*
X112929000Y-75677000I75000J0D01*
G01*
X114229000Y-75677000D01*
G75*
G02*
X114304000Y-75752000I0J-75000D01*
G01*
X114304000Y-75902000D01*
G75*
G02*
X114229000Y-75977000I-75000J0D01*
G01*
X112929000Y-75977000D01*
G75*
G02*
X112854000Y-75902000I0J75000D01*
G01*
G37*
G04 #@! TD.AperFunction*
G04 #@! TA.AperFunction,SMDPad,CuDef*
G36*
G01*
X112854000Y-76402000D02*
X112854000Y-76252000D01*
G75*
G02*
X112929000Y-76177000I75000J0D01*
G01*
X114229000Y-76177000D01*
G75*
G02*
X114304000Y-76252000I0J-75000D01*
G01*
X114304000Y-76402000D01*
G75*
G02*
X114229000Y-76477000I-75000J0D01*
G01*
X112929000Y-76477000D01*
G75*
G02*
X112854000Y-76402000I0J75000D01*
G01*
G37*
G04 #@! TD.AperFunction*
G04 #@! TA.AperFunction,SMDPad,CuDef*
G36*
G01*
X112854000Y-76902000D02*
X112854000Y-76752000D01*
G75*
G02*
X112929000Y-76677000I75000J0D01*
G01*
X114229000Y-76677000D01*
G75*
G02*
X114304000Y-76752000I0J-75000D01*
G01*
X114304000Y-76902000D01*
G75*
G02*
X114229000Y-76977000I-75000J0D01*
G01*
X112929000Y-76977000D01*
G75*
G02*
X112854000Y-76902000I0J75000D01*
G01*
G37*
G04 #@! TD.AperFunction*
G04 #@! TA.AperFunction,SMDPad,CuDef*
G36*
G01*
X112854000Y-77402000D02*
X112854000Y-77252000D01*
G75*
G02*
X112929000Y-77177000I75000J0D01*
G01*
X114229000Y-77177000D01*
G75*
G02*
X114304000Y-77252000I0J-75000D01*
G01*
X114304000Y-77402000D01*
G75*
G02*
X114229000Y-77477000I-75000J0D01*
G01*
X112929000Y-77477000D01*
G75*
G02*
X112854000Y-77402000I0J75000D01*
G01*
G37*
G04 #@! TD.AperFunction*
G04 #@! TA.AperFunction,SMDPad,CuDef*
G36*
G01*
X108454000Y-77402000D02*
X108454000Y-77252000D01*
G75*
G02*
X108529000Y-77177000I75000J0D01*
G01*
X109829000Y-77177000D01*
G75*
G02*
X109904000Y-77252000I0J-75000D01*
G01*
X109904000Y-77402000D01*
G75*
G02*
X109829000Y-77477000I-75000J0D01*
G01*
X108529000Y-77477000D01*
G75*
G02*
X108454000Y-77402000I0J75000D01*
G01*
G37*
G04 #@! TD.AperFunction*
G04 #@! TA.AperFunction,SMDPad,CuDef*
G36*
G01*
X108454000Y-76902000D02*
X108454000Y-76752000D01*
G75*
G02*
X108529000Y-76677000I75000J0D01*
G01*
X109829000Y-76677000D01*
G75*
G02*
X109904000Y-76752000I0J-75000D01*
G01*
X109904000Y-76902000D01*
G75*
G02*
X109829000Y-76977000I-75000J0D01*
G01*
X108529000Y-76977000D01*
G75*
G02*
X108454000Y-76902000I0J75000D01*
G01*
G37*
G04 #@! TD.AperFunction*
G04 #@! TA.AperFunction,SMDPad,CuDef*
G36*
G01*
X108454000Y-76402000D02*
X108454000Y-76252000D01*
G75*
G02*
X108529000Y-76177000I75000J0D01*
G01*
X109829000Y-76177000D01*
G75*
G02*
X109904000Y-76252000I0J-75000D01*
G01*
X109904000Y-76402000D01*
G75*
G02*
X109829000Y-76477000I-75000J0D01*
G01*
X108529000Y-76477000D01*
G75*
G02*
X108454000Y-76402000I0J75000D01*
G01*
G37*
G04 #@! TD.AperFunction*
G04 #@! TA.AperFunction,SMDPad,CuDef*
G36*
G01*
X108454000Y-75902000D02*
X108454000Y-75752000D01*
G75*
G02*
X108529000Y-75677000I75000J0D01*
G01*
X109829000Y-75677000D01*
G75*
G02*
X109904000Y-75752000I0J-75000D01*
G01*
X109904000Y-75902000D01*
G75*
G02*
X109829000Y-75977000I-75000J0D01*
G01*
X108529000Y-75977000D01*
G75*
G02*
X108454000Y-75902000I0J75000D01*
G01*
G37*
G04 #@! TD.AperFunction*
G04 #@! TA.AperFunction,SMDPad,CuDef*
G36*
G01*
X108454000Y-75402000D02*
X108454000Y-75252000D01*
G75*
G02*
X108529000Y-75177000I75000J0D01*
G01*
X109829000Y-75177000D01*
G75*
G02*
X109904000Y-75252000I0J-75000D01*
G01*
X109904000Y-75402000D01*
G75*
G02*
X109829000Y-75477000I-75000J0D01*
G01*
X108529000Y-75477000D01*
G75*
G02*
X108454000Y-75402000I0J75000D01*
G01*
G37*
G04 #@! TD.AperFunction*
G04 #@! TA.AperFunction,SMDPad,CuDef*
G36*
G01*
X119916001Y-58354000D02*
X117065999Y-58354000D01*
G75*
G02*
X116816000Y-58104001I0J249999D01*
G01*
X116816000Y-57253999D01*
G75*
G02*
X117065999Y-57004000I249999J0D01*
G01*
X119916001Y-57004000D01*
G75*
G02*
X120166000Y-57253999I0J-249999D01*
G01*
X120166000Y-58104001D01*
G75*
G02*
X119916001Y-58354000I-249999J0D01*
G01*
G37*
G04 #@! TD.AperFunction*
G04 #@! TA.AperFunction,SMDPad,CuDef*
G36*
G01*
X119916001Y-64154000D02*
X117065999Y-64154000D01*
G75*
G02*
X116816000Y-63904001I0J249999D01*
G01*
X116816000Y-63053999D01*
G75*
G02*
X117065999Y-62804000I249999J0D01*
G01*
X119916001Y-62804000D01*
G75*
G02*
X120166000Y-63053999I0J-249999D01*
G01*
X120166000Y-63904001D01*
G75*
G02*
X119916001Y-64154000I-249999J0D01*
G01*
G37*
G04 #@! TD.AperFunction*
G04 #@! TA.AperFunction,SMDPad,CuDef*
G36*
G01*
X117185000Y-68375000D02*
X117035000Y-68375000D01*
G75*
G02*
X116960000Y-68300000I0J75000D01*
G01*
X116960000Y-67000000D01*
G75*
G02*
X117035000Y-66925000I75000J0D01*
G01*
X117185000Y-66925000D01*
G75*
G02*
X117260000Y-67000000I0J-75000D01*
G01*
X117260000Y-68300000D01*
G75*
G02*
X117185000Y-68375000I-75000J0D01*
G01*
G37*
G04 #@! TD.AperFunction*
G04 #@! TA.AperFunction,SMDPad,CuDef*
G36*
G01*
X117685000Y-68375000D02*
X117535000Y-68375000D01*
G75*
G02*
X117460000Y-68300000I0J75000D01*
G01*
X117460000Y-67000000D01*
G75*
G02*
X117535000Y-66925000I75000J0D01*
G01*
X117685000Y-66925000D01*
G75*
G02*
X117760000Y-67000000I0J-75000D01*
G01*
X117760000Y-68300000D01*
G75*
G02*
X117685000Y-68375000I-75000J0D01*
G01*
G37*
G04 #@! TD.AperFunction*
G04 #@! TA.AperFunction,SMDPad,CuDef*
G36*
G01*
X118185000Y-68375000D02*
X118035000Y-68375000D01*
G75*
G02*
X117960000Y-68300000I0J75000D01*
G01*
X117960000Y-67000000D01*
G75*
G02*
X118035000Y-66925000I75000J0D01*
G01*
X118185000Y-66925000D01*
G75*
G02*
X118260000Y-67000000I0J-75000D01*
G01*
X118260000Y-68300000D01*
G75*
G02*
X118185000Y-68375000I-75000J0D01*
G01*
G37*
G04 #@! TD.AperFunction*
G04 #@! TA.AperFunction,SMDPad,CuDef*
G36*
G01*
X118685000Y-68375000D02*
X118535000Y-68375000D01*
G75*
G02*
X118460000Y-68300000I0J75000D01*
G01*
X118460000Y-67000000D01*
G75*
G02*
X118535000Y-66925000I75000J0D01*
G01*
X118685000Y-66925000D01*
G75*
G02*
X118760000Y-67000000I0J-75000D01*
G01*
X118760000Y-68300000D01*
G75*
G02*
X118685000Y-68375000I-75000J0D01*
G01*
G37*
G04 #@! TD.AperFunction*
G04 #@! TA.AperFunction,SMDPad,CuDef*
G36*
G01*
X119185000Y-68375000D02*
X119035000Y-68375000D01*
G75*
G02*
X118960000Y-68300000I0J75000D01*
G01*
X118960000Y-67000000D01*
G75*
G02*
X119035000Y-66925000I75000J0D01*
G01*
X119185000Y-66925000D01*
G75*
G02*
X119260000Y-67000000I0J-75000D01*
G01*
X119260000Y-68300000D01*
G75*
G02*
X119185000Y-68375000I-75000J0D01*
G01*
G37*
G04 #@! TD.AperFunction*
G04 #@! TA.AperFunction,SMDPad,CuDef*
G36*
G01*
X119185000Y-72775000D02*
X119035000Y-72775000D01*
G75*
G02*
X118960000Y-72700000I0J75000D01*
G01*
X118960000Y-71400000D01*
G75*
G02*
X119035000Y-71325000I75000J0D01*
G01*
X119185000Y-71325000D01*
G75*
G02*
X119260000Y-71400000I0J-75000D01*
G01*
X119260000Y-72700000D01*
G75*
G02*
X119185000Y-72775000I-75000J0D01*
G01*
G37*
G04 #@! TD.AperFunction*
G04 #@! TA.AperFunction,SMDPad,CuDef*
G36*
G01*
X118685000Y-72775000D02*
X118535000Y-72775000D01*
G75*
G02*
X118460000Y-72700000I0J75000D01*
G01*
X118460000Y-71400000D01*
G75*
G02*
X118535000Y-71325000I75000J0D01*
G01*
X118685000Y-71325000D01*
G75*
G02*
X118760000Y-71400000I0J-75000D01*
G01*
X118760000Y-72700000D01*
G75*
G02*
X118685000Y-72775000I-75000J0D01*
G01*
G37*
G04 #@! TD.AperFunction*
G04 #@! TA.AperFunction,SMDPad,CuDef*
G36*
G01*
X118185000Y-72775000D02*
X118035000Y-72775000D01*
G75*
G02*
X117960000Y-72700000I0J75000D01*
G01*
X117960000Y-71400000D01*
G75*
G02*
X118035000Y-71325000I75000J0D01*
G01*
X118185000Y-71325000D01*
G75*
G02*
X118260000Y-71400000I0J-75000D01*
G01*
X118260000Y-72700000D01*
G75*
G02*
X118185000Y-72775000I-75000J0D01*
G01*
G37*
G04 #@! TD.AperFunction*
G04 #@! TA.AperFunction,SMDPad,CuDef*
G36*
G01*
X117685000Y-72775000D02*
X117535000Y-72775000D01*
G75*
G02*
X117460000Y-72700000I0J75000D01*
G01*
X117460000Y-71400000D01*
G75*
G02*
X117535000Y-71325000I75000J0D01*
G01*
X117685000Y-71325000D01*
G75*
G02*
X117760000Y-71400000I0J-75000D01*
G01*
X117760000Y-72700000D01*
G75*
G02*
X117685000Y-72775000I-75000J0D01*
G01*
G37*
G04 #@! TD.AperFunction*
G04 #@! TA.AperFunction,SMDPad,CuDef*
G36*
G01*
X117185000Y-72775000D02*
X117035000Y-72775000D01*
G75*
G02*
X116960000Y-72700000I0J75000D01*
G01*
X116960000Y-71400000D01*
G75*
G02*
X117035000Y-71325000I75000J0D01*
G01*
X117185000Y-71325000D01*
G75*
G02*
X117260000Y-71400000I0J-75000D01*
G01*
X117260000Y-72700000D01*
G75*
G02*
X117185000Y-72775000I-75000J0D01*
G01*
G37*
G04 #@! TD.AperFunction*
G04 #@! TA.AperFunction,SMDPad,CuDef*
G36*
G01*
X102697500Y-73342000D02*
X103042500Y-73342000D01*
G75*
G02*
X103190000Y-73489500I0J-147500D01*
G01*
X103190000Y-73784500D01*
G75*
G02*
X103042500Y-73932000I-147500J0D01*
G01*
X102697500Y-73932000D01*
G75*
G02*
X102550000Y-73784500I0J147500D01*
G01*
X102550000Y-73489500D01*
G75*
G02*
X102697500Y-73342000I147500J0D01*
G01*
G37*
G04 #@! TD.AperFunction*
G04 #@! TA.AperFunction,SMDPad,CuDef*
G36*
G01*
X102697500Y-72372000D02*
X103042500Y-72372000D01*
G75*
G02*
X103190000Y-72519500I0J-147500D01*
G01*
X103190000Y-72814500D01*
G75*
G02*
X103042500Y-72962000I-147500J0D01*
G01*
X102697500Y-72962000D01*
G75*
G02*
X102550000Y-72814500I0J147500D01*
G01*
X102550000Y-72519500D01*
G75*
G02*
X102697500Y-72372000I147500J0D01*
G01*
G37*
G04 #@! TD.AperFunction*
G04 #@! TA.AperFunction,SMDPad,CuDef*
G36*
G01*
X105237500Y-73342000D02*
X105582500Y-73342000D01*
G75*
G02*
X105730000Y-73489500I0J-147500D01*
G01*
X105730000Y-73784500D01*
G75*
G02*
X105582500Y-73932000I-147500J0D01*
G01*
X105237500Y-73932000D01*
G75*
G02*
X105090000Y-73784500I0J147500D01*
G01*
X105090000Y-73489500D01*
G75*
G02*
X105237500Y-73342000I147500J0D01*
G01*
G37*
G04 #@! TD.AperFunction*
G04 #@! TA.AperFunction,SMDPad,CuDef*
G36*
G01*
X105237500Y-72372000D02*
X105582500Y-72372000D01*
G75*
G02*
X105730000Y-72519500I0J-147500D01*
G01*
X105730000Y-72814500D01*
G75*
G02*
X105582500Y-72962000I-147500J0D01*
G01*
X105237500Y-72962000D01*
G75*
G02*
X105090000Y-72814500I0J147500D01*
G01*
X105090000Y-72519500D01*
G75*
G02*
X105237500Y-72372000I147500J0D01*
G01*
G37*
G04 #@! TD.AperFunction*
G04 #@! TA.AperFunction,SMDPad,CuDef*
G36*
G01*
X103967500Y-73342000D02*
X104312500Y-73342000D01*
G75*
G02*
X104460000Y-73489500I0J-147500D01*
G01*
X104460000Y-73784500D01*
G75*
G02*
X104312500Y-73932000I-147500J0D01*
G01*
X103967500Y-73932000D01*
G75*
G02*
X103820000Y-73784500I0J147500D01*
G01*
X103820000Y-73489500D01*
G75*
G02*
X103967500Y-73342000I147500J0D01*
G01*
G37*
G04 #@! TD.AperFunction*
G04 #@! TA.AperFunction,SMDPad,CuDef*
G36*
G01*
X103967500Y-72372000D02*
X104312500Y-72372000D01*
G75*
G02*
X104460000Y-72519500I0J-147500D01*
G01*
X104460000Y-72814500D01*
G75*
G02*
X104312500Y-72962000I-147500J0D01*
G01*
X103967500Y-72962000D01*
G75*
G02*
X103820000Y-72814500I0J147500D01*
G01*
X103820000Y-72519500D01*
G75*
G02*
X103967500Y-72372000I147500J0D01*
G01*
G37*
G04 #@! TD.AperFunction*
G04 #@! TA.AperFunction,SMDPad,CuDef*
G36*
G01*
X115488500Y-86551000D02*
X115143500Y-86551000D01*
G75*
G02*
X114996000Y-86403500I0J147500D01*
G01*
X114996000Y-86108500D01*
G75*
G02*
X115143500Y-85961000I147500J0D01*
G01*
X115488500Y-85961000D01*
G75*
G02*
X115636000Y-86108500I0J-147500D01*
G01*
X115636000Y-86403500D01*
G75*
G02*
X115488500Y-86551000I-147500J0D01*
G01*
G37*
G04 #@! TD.AperFunction*
G04 #@! TA.AperFunction,SMDPad,CuDef*
G36*
G01*
X115488500Y-87521000D02*
X115143500Y-87521000D01*
G75*
G02*
X114996000Y-87373500I0J147500D01*
G01*
X114996000Y-87078500D01*
G75*
G02*
X115143500Y-86931000I147500J0D01*
G01*
X115488500Y-86931000D01*
G75*
G02*
X115636000Y-87078500I0J-147500D01*
G01*
X115636000Y-87373500D01*
G75*
G02*
X115488500Y-87521000I-147500J0D01*
G01*
G37*
G04 #@! TD.AperFunction*
G04 #@! TA.AperFunction,SMDPad,CuDef*
G36*
G01*
X107142500Y-79311000D02*
X107487500Y-79311000D01*
G75*
G02*
X107635000Y-79458500I0J-147500D01*
G01*
X107635000Y-79753500D01*
G75*
G02*
X107487500Y-79901000I-147500J0D01*
G01*
X107142500Y-79901000D01*
G75*
G02*
X106995000Y-79753500I0J147500D01*
G01*
X106995000Y-79458500D01*
G75*
G02*
X107142500Y-79311000I147500J0D01*
G01*
G37*
G04 #@! TD.AperFunction*
G04 #@! TA.AperFunction,SMDPad,CuDef*
G36*
G01*
X107142500Y-78341000D02*
X107487500Y-78341000D01*
G75*
G02*
X107635000Y-78488500I0J-147500D01*
G01*
X107635000Y-78783500D01*
G75*
G02*
X107487500Y-78931000I-147500J0D01*
G01*
X107142500Y-78931000D01*
G75*
G02*
X106995000Y-78783500I0J147500D01*
G01*
X106995000Y-78488500D01*
G75*
G02*
X107142500Y-78341000I147500J0D01*
G01*
G37*
G04 #@! TD.AperFunction*
G04 #@! TA.AperFunction,SMDPad,CuDef*
G36*
G01*
X103188000Y-69423500D02*
X103188000Y-69768500D01*
G75*
G02*
X103040500Y-69916000I-147500J0D01*
G01*
X102745500Y-69916000D01*
G75*
G02*
X102598000Y-69768500I0J147500D01*
G01*
X102598000Y-69423500D01*
G75*
G02*
X102745500Y-69276000I147500J0D01*
G01*
X103040500Y-69276000D01*
G75*
G02*
X103188000Y-69423500I0J-147500D01*
G01*
G37*
G04 #@! TD.AperFunction*
G04 #@! TA.AperFunction,SMDPad,CuDef*
G36*
G01*
X104158000Y-69423500D02*
X104158000Y-69768500D01*
G75*
G02*
X104010500Y-69916000I-147500J0D01*
G01*
X103715500Y-69916000D01*
G75*
G02*
X103568000Y-69768500I0J147500D01*
G01*
X103568000Y-69423500D01*
G75*
G02*
X103715500Y-69276000I147500J0D01*
G01*
X104010500Y-69276000D01*
G75*
G02*
X104158000Y-69423500I0J-147500D01*
G01*
G37*
G04 #@! TD.AperFunction*
G04 #@! TA.AperFunction,SMDPad,CuDef*
G36*
G01*
X80872500Y-57710000D02*
X80527500Y-57710000D01*
G75*
G02*
X80380000Y-57562500I0J147500D01*
G01*
X80380000Y-57267500D01*
G75*
G02*
X80527500Y-57120000I147500J0D01*
G01*
X80872500Y-57120000D01*
G75*
G02*
X81020000Y-57267500I0J-147500D01*
G01*
X81020000Y-57562500D01*
G75*
G02*
X80872500Y-57710000I-147500J0D01*
G01*
G37*
G04 #@! TD.AperFunction*
G04 #@! TA.AperFunction,SMDPad,CuDef*
G36*
G01*
X80872500Y-58680000D02*
X80527500Y-58680000D01*
G75*
G02*
X80380000Y-58532500I0J147500D01*
G01*
X80380000Y-58237500D01*
G75*
G02*
X80527500Y-58090000I147500J0D01*
G01*
X80872500Y-58090000D01*
G75*
G02*
X81020000Y-58237500I0J-147500D01*
G01*
X81020000Y-58532500D01*
G75*
G02*
X80872500Y-58680000I-147500J0D01*
G01*
G37*
G04 #@! TD.AperFunction*
G04 #@! TA.AperFunction,SMDPad,CuDef*
G36*
G01*
X110371000Y-61440000D02*
X107871000Y-61440000D01*
G75*
G02*
X107621000Y-61190000I0J250000D01*
G01*
X107621000Y-60090000D01*
G75*
G02*
X107871000Y-59840000I250000J0D01*
G01*
X110371000Y-59840000D01*
G75*
G02*
X110621000Y-60090000I0J-250000D01*
G01*
X110621000Y-61190000D01*
G75*
G02*
X110371000Y-61440000I-250000J0D01*
G01*
G37*
G04 #@! TD.AperFunction*
G04 #@! TA.AperFunction,SMDPad,CuDef*
G36*
G01*
X110371000Y-72240000D02*
X107871000Y-72240000D01*
G75*
G02*
X107621000Y-71990000I0J250000D01*
G01*
X107621000Y-70890000D01*
G75*
G02*
X107871000Y-70640000I250000J0D01*
G01*
X110371000Y-70640000D01*
G75*
G02*
X110621000Y-70890000I0J-250000D01*
G01*
X110621000Y-71990000D01*
G75*
G02*
X110371000Y-72240000I-250000J0D01*
G01*
G37*
G04 #@! TD.AperFunction*
G04 #@! TA.AperFunction,SMDPad,CuDef*
G36*
G01*
X113871000Y-63540000D02*
X108871000Y-63540000D01*
G75*
G02*
X108621000Y-63290000I0J250000D01*
G01*
X108621000Y-62790000D01*
G75*
G02*
X108871000Y-62540000I250000J0D01*
G01*
X113871000Y-62540000D01*
G75*
G02*
X114121000Y-62790000I0J-250000D01*
G01*
X114121000Y-63290000D01*
G75*
G02*
X113871000Y-63540000I-250000J0D01*
G01*
G37*
G04 #@! TD.AperFunction*
G04 #@! TA.AperFunction,SMDPad,CuDef*
G36*
G01*
X113871000Y-65540000D02*
X108871000Y-65540000D01*
G75*
G02*
X108621000Y-65290000I0J250000D01*
G01*
X108621000Y-64790000D01*
G75*
G02*
X108871000Y-64540000I250000J0D01*
G01*
X113871000Y-64540000D01*
G75*
G02*
X114121000Y-64790000I0J-250000D01*
G01*
X114121000Y-65290000D01*
G75*
G02*
X113871000Y-65540000I-250000J0D01*
G01*
G37*
G04 #@! TD.AperFunction*
G04 #@! TA.AperFunction,SMDPad,CuDef*
G36*
G01*
X113871000Y-67540000D02*
X108871000Y-67540000D01*
G75*
G02*
X108621000Y-67290000I0J250000D01*
G01*
X108621000Y-66790000D01*
G75*
G02*
X108871000Y-66540000I250000J0D01*
G01*
X113871000Y-66540000D01*
G75*
G02*
X114121000Y-66790000I0J-250000D01*
G01*
X114121000Y-67290000D01*
G75*
G02*
X113871000Y-67540000I-250000J0D01*
G01*
G37*
G04 #@! TD.AperFunction*
G04 #@! TA.AperFunction,SMDPad,CuDef*
G36*
G01*
X113871000Y-69540000D02*
X108871000Y-69540000D01*
G75*
G02*
X108621000Y-69290000I0J250000D01*
G01*
X108621000Y-68790000D01*
G75*
G02*
X108871000Y-68540000I250000J0D01*
G01*
X113871000Y-68540000D01*
G75*
G02*
X114121000Y-68790000I0J-250000D01*
G01*
X114121000Y-69290000D01*
G75*
G02*
X113871000Y-69540000I-250000J0D01*
G01*
G37*
G04 #@! TD.AperFunction*
G04 #@! TA.AperFunction,SMDPad,CuDef*
G36*
G01*
X110656250Y-51150000D02*
X110143750Y-51150000D01*
G75*
G02*
X109925000Y-50931250I0J218750D01*
G01*
X109925000Y-50493750D01*
G75*
G02*
X110143750Y-50275000I218750J0D01*
G01*
X110656250Y-50275000D01*
G75*
G02*
X110875000Y-50493750I0J-218750D01*
G01*
X110875000Y-50931250D01*
G75*
G02*
X110656250Y-51150000I-218750J0D01*
G01*
G37*
G04 #@! TD.AperFunction*
G04 #@! TA.AperFunction,SMDPad,CuDef*
G36*
G01*
X110656250Y-52725000D02*
X110143750Y-52725000D01*
G75*
G02*
X109925000Y-52506250I0J218750D01*
G01*
X109925000Y-52068750D01*
G75*
G02*
X110143750Y-51850000I218750J0D01*
G01*
X110656250Y-51850000D01*
G75*
G02*
X110875000Y-52068750I0J-218750D01*
G01*
X110875000Y-52506250D01*
G75*
G02*
X110656250Y-52725000I-218750J0D01*
G01*
G37*
G04 #@! TD.AperFunction*
G04 #@! TA.AperFunction,SMDPad,CuDef*
G36*
G01*
X102490000Y-63772500D02*
X102490000Y-63427500D01*
G75*
G02*
X102637500Y-63280000I147500J0D01*
G01*
X102932500Y-63280000D01*
G75*
G02*
X103080000Y-63427500I0J-147500D01*
G01*
X103080000Y-63772500D01*
G75*
G02*
X102932500Y-63920000I-147500J0D01*
G01*
X102637500Y-63920000D01*
G75*
G02*
X102490000Y-63772500I0J147500D01*
G01*
G37*
G04 #@! TD.AperFunction*
G04 #@! TA.AperFunction,SMDPad,CuDef*
G36*
G01*
X101520000Y-63772500D02*
X101520000Y-63427500D01*
G75*
G02*
X101667500Y-63280000I147500J0D01*
G01*
X101962500Y-63280000D01*
G75*
G02*
X102110000Y-63427500I0J-147500D01*
G01*
X102110000Y-63772500D01*
G75*
G02*
X101962500Y-63920000I-147500J0D01*
G01*
X101667500Y-63920000D01*
G75*
G02*
X101520000Y-63772500I0J147500D01*
G01*
G37*
G04 #@! TD.AperFunction*
G04 #@! TA.AperFunction,SMDPad,CuDef*
G36*
G01*
X102590000Y-59972500D02*
X102590000Y-59627500D01*
G75*
G02*
X102737500Y-59480000I147500J0D01*
G01*
X103032500Y-59480000D01*
G75*
G02*
X103180000Y-59627500I0J-147500D01*
G01*
X103180000Y-59972500D01*
G75*
G02*
X103032500Y-60120000I-147500J0D01*
G01*
X102737500Y-60120000D01*
G75*
G02*
X102590000Y-59972500I0J147500D01*
G01*
G37*
G04 #@! TD.AperFunction*
G04 #@! TA.AperFunction,SMDPad,CuDef*
G36*
G01*
X101620000Y-59972500D02*
X101620000Y-59627500D01*
G75*
G02*
X101767500Y-59480000I147500J0D01*
G01*
X102062500Y-59480000D01*
G75*
G02*
X102210000Y-59627500I0J-147500D01*
G01*
X102210000Y-59972500D01*
G75*
G02*
X102062500Y-60120000I-147500J0D01*
G01*
X101767500Y-60120000D01*
G75*
G02*
X101620000Y-59972500I0J147500D01*
G01*
G37*
G04 #@! TD.AperFunction*
G04 #@! TA.AperFunction,SMDPad,CuDef*
G36*
G01*
X102590000Y-58772500D02*
X102590000Y-58427500D01*
G75*
G02*
X102737500Y-58280000I147500J0D01*
G01*
X103032500Y-58280000D01*
G75*
G02*
X103180000Y-58427500I0J-147500D01*
G01*
X103180000Y-58772500D01*
G75*
G02*
X103032500Y-58920000I-147500J0D01*
G01*
X102737500Y-58920000D01*
G75*
G02*
X102590000Y-58772500I0J147500D01*
G01*
G37*
G04 #@! TD.AperFunction*
G04 #@! TA.AperFunction,SMDPad,CuDef*
G36*
G01*
X101620000Y-58772500D02*
X101620000Y-58427500D01*
G75*
G02*
X101767500Y-58280000I147500J0D01*
G01*
X102062500Y-58280000D01*
G75*
G02*
X102210000Y-58427500I0J-147500D01*
G01*
X102210000Y-58772500D01*
G75*
G02*
X102062500Y-58920000I-147500J0D01*
G01*
X101767500Y-58920000D01*
G75*
G02*
X101620000Y-58772500I0J147500D01*
G01*
G37*
G04 #@! TD.AperFunction*
G04 #@! TA.AperFunction,SMDPad,CuDef*
G36*
G01*
X107256250Y-51150000D02*
X106743750Y-51150000D01*
G75*
G02*
X106525000Y-50931250I0J218750D01*
G01*
X106525000Y-50493750D01*
G75*
G02*
X106743750Y-50275000I218750J0D01*
G01*
X107256250Y-50275000D01*
G75*
G02*
X107475000Y-50493750I0J-218750D01*
G01*
X107475000Y-50931250D01*
G75*
G02*
X107256250Y-51150000I-218750J0D01*
G01*
G37*
G04 #@! TD.AperFunction*
G04 #@! TA.AperFunction,SMDPad,CuDef*
G36*
G01*
X107256250Y-52725000D02*
X106743750Y-52725000D01*
G75*
G02*
X106525000Y-52506250I0J218750D01*
G01*
X106525000Y-52068750D01*
G75*
G02*
X106743750Y-51850000I218750J0D01*
G01*
X107256250Y-51850000D01*
G75*
G02*
X107475000Y-52068750I0J-218750D01*
G01*
X107475000Y-52506250D01*
G75*
G02*
X107256250Y-52725000I-218750J0D01*
G01*
G37*
G04 #@! TD.AperFunction*
G04 #@! TA.AperFunction,SMDPad,CuDef*
G36*
G01*
X102210000Y-60927500D02*
X102210000Y-61272500D01*
G75*
G02*
X102062500Y-61420000I-147500J0D01*
G01*
X101767500Y-61420000D01*
G75*
G02*
X101620000Y-61272500I0J147500D01*
G01*
X101620000Y-60927500D01*
G75*
G02*
X101767500Y-60780000I147500J0D01*
G01*
X102062500Y-60780000D01*
G75*
G02*
X102210000Y-60927500I0J-147500D01*
G01*
G37*
G04 #@! TD.AperFunction*
G04 #@! TA.AperFunction,SMDPad,CuDef*
G36*
G01*
X103180000Y-60927500D02*
X103180000Y-61272500D01*
G75*
G02*
X103032500Y-61420000I-147500J0D01*
G01*
X102737500Y-61420000D01*
G75*
G02*
X102590000Y-61272500I0J147500D01*
G01*
X102590000Y-60927500D01*
G75*
G02*
X102737500Y-60780000I147500J0D01*
G01*
X103032500Y-60780000D01*
G75*
G02*
X103180000Y-60927500I0J-147500D01*
G01*
G37*
G04 #@! TD.AperFunction*
G04 #@! TA.AperFunction,SMDPad,CuDef*
G36*
G01*
X70277500Y-68340000D02*
X70622500Y-68340000D01*
G75*
G02*
X70770000Y-68487500I0J-147500D01*
G01*
X70770000Y-68782500D01*
G75*
G02*
X70622500Y-68930000I-147500J0D01*
G01*
X70277500Y-68930000D01*
G75*
G02*
X70130000Y-68782500I0J147500D01*
G01*
X70130000Y-68487500D01*
G75*
G02*
X70277500Y-68340000I147500J0D01*
G01*
G37*
G04 #@! TD.AperFunction*
G04 #@! TA.AperFunction,SMDPad,CuDef*
G36*
G01*
X70277500Y-67370000D02*
X70622500Y-67370000D01*
G75*
G02*
X70770000Y-67517500I0J-147500D01*
G01*
X70770000Y-67812500D01*
G75*
G02*
X70622500Y-67960000I-147500J0D01*
G01*
X70277500Y-67960000D01*
G75*
G02*
X70130000Y-67812500I0J147500D01*
G01*
X70130000Y-67517500D01*
G75*
G02*
X70277500Y-67370000I147500J0D01*
G01*
G37*
G04 #@! TD.AperFunction*
G04 #@! TA.AperFunction,SMDPad,CuDef*
G36*
G01*
X117345750Y-77566000D02*
X117858250Y-77566000D01*
G75*
G02*
X118077000Y-77784750I0J-218750D01*
G01*
X118077000Y-78222250D01*
G75*
G02*
X117858250Y-78441000I-218750J0D01*
G01*
X117345750Y-78441000D01*
G75*
G02*
X117127000Y-78222250I0J218750D01*
G01*
X117127000Y-77784750D01*
G75*
G02*
X117345750Y-77566000I218750J0D01*
G01*
G37*
G04 #@! TD.AperFunction*
G04 #@! TA.AperFunction,SMDPad,CuDef*
G36*
G01*
X117345750Y-75991000D02*
X117858250Y-75991000D01*
G75*
G02*
X118077000Y-76209750I0J-218750D01*
G01*
X118077000Y-76647250D01*
G75*
G02*
X117858250Y-76866000I-218750J0D01*
G01*
X117345750Y-76866000D01*
G75*
G02*
X117127000Y-76647250I0J218750D01*
G01*
X117127000Y-76209750D01*
G75*
G02*
X117345750Y-75991000I218750J0D01*
G01*
G37*
G04 #@! TD.AperFunction*
G04 #@! TA.AperFunction,SMDPad,CuDef*
G36*
G01*
X115372500Y-77210000D02*
X115027500Y-77210000D01*
G75*
G02*
X114880000Y-77062500I0J147500D01*
G01*
X114880000Y-76767500D01*
G75*
G02*
X115027500Y-76620000I147500J0D01*
G01*
X115372500Y-76620000D01*
G75*
G02*
X115520000Y-76767500I0J-147500D01*
G01*
X115520000Y-77062500D01*
G75*
G02*
X115372500Y-77210000I-147500J0D01*
G01*
G37*
G04 #@! TD.AperFunction*
G04 #@! TA.AperFunction,SMDPad,CuDef*
G36*
G01*
X115372500Y-78180000D02*
X115027500Y-78180000D01*
G75*
G02*
X114880000Y-78032500I0J147500D01*
G01*
X114880000Y-77737500D01*
G75*
G02*
X115027500Y-77590000I147500J0D01*
G01*
X115372500Y-77590000D01*
G75*
G02*
X115520000Y-77737500I0J-147500D01*
G01*
X115520000Y-78032500D01*
G75*
G02*
X115372500Y-78180000I-147500J0D01*
G01*
G37*
G04 #@! TD.AperFunction*
G04 #@! TA.AperFunction,SMDPad,CuDef*
G36*
G01*
X111348000Y-83187250D02*
X111348000Y-82674750D01*
G75*
G02*
X111566750Y-82456000I218750J0D01*
G01*
X112004250Y-82456000D01*
G75*
G02*
X112223000Y-82674750I0J-218750D01*
G01*
X112223000Y-83187250D01*
G75*
G02*
X112004250Y-83406000I-218750J0D01*
G01*
X111566750Y-83406000D01*
G75*
G02*
X111348000Y-83187250I0J218750D01*
G01*
G37*
G04 #@! TD.AperFunction*
G04 #@! TA.AperFunction,SMDPad,CuDef*
G36*
G01*
X109773000Y-83187250D02*
X109773000Y-82674750D01*
G75*
G02*
X109991750Y-82456000I218750J0D01*
G01*
X110429250Y-82456000D01*
G75*
G02*
X110648000Y-82674750I0J-218750D01*
G01*
X110648000Y-83187250D01*
G75*
G02*
X110429250Y-83406000I-218750J0D01*
G01*
X109991750Y-83406000D01*
G75*
G02*
X109773000Y-83187250I0J218750D01*
G01*
G37*
G04 #@! TD.AperFunction*
G04 #@! TA.AperFunction,SMDPad,CuDef*
G36*
G01*
X118247000Y-82182000D02*
X119497000Y-82182000D01*
G75*
G02*
X119747000Y-82432000I0J-250000D01*
G01*
X119747000Y-83182000D01*
G75*
G02*
X119497000Y-83432000I-250000J0D01*
G01*
X118247000Y-83432000D01*
G75*
G02*
X117997000Y-83182000I0J250000D01*
G01*
X117997000Y-82432000D01*
G75*
G02*
X118247000Y-82182000I250000J0D01*
G01*
G37*
G04 #@! TD.AperFunction*
G04 #@! TA.AperFunction,SMDPad,CuDef*
G36*
G01*
X118247000Y-79382000D02*
X119497000Y-79382000D01*
G75*
G02*
X119747000Y-79632000I0J-250000D01*
G01*
X119747000Y-80382000D01*
G75*
G02*
X119497000Y-80632000I-250000J0D01*
G01*
X118247000Y-80632000D01*
G75*
G02*
X117997000Y-80382000I0J250000D01*
G01*
X117997000Y-79632000D01*
G75*
G02*
X118247000Y-79382000I250000J0D01*
G01*
G37*
G04 #@! TD.AperFunction*
G04 #@! TA.AperFunction,SMDPad,CuDef*
G36*
G01*
X111448000Y-85292250D02*
X111448000Y-84379750D01*
G75*
G02*
X111691750Y-84136000I243750J0D01*
G01*
X112179250Y-84136000D01*
G75*
G02*
X112423000Y-84379750I0J-243750D01*
G01*
X112423000Y-85292250D01*
G75*
G02*
X112179250Y-85536000I-243750J0D01*
G01*
X111691750Y-85536000D01*
G75*
G02*
X111448000Y-85292250I0J243750D01*
G01*
G37*
G04 #@! TD.AperFunction*
G04 #@! TA.AperFunction,SMDPad,CuDef*
G36*
G01*
X109573000Y-85292250D02*
X109573000Y-84379750D01*
G75*
G02*
X109816750Y-84136000I243750J0D01*
G01*
X110304250Y-84136000D01*
G75*
G02*
X110548000Y-84379750I0J-243750D01*
G01*
X110548000Y-85292250D01*
G75*
G02*
X110304250Y-85536000I-243750J0D01*
G01*
X109816750Y-85536000D01*
G75*
G02*
X109573000Y-85292250I0J243750D01*
G01*
G37*
G04 #@! TD.AperFunction*
D30*
X111209000Y-79314000D03*
X111209000Y-81214000D03*
X109009000Y-81214000D03*
X109009000Y-80264000D03*
X109009000Y-79314000D03*
D31*
X116713000Y-82126000D03*
X116713000Y-79926000D03*
X113792000Y-84158000D03*
X113792000Y-81958000D03*
D32*
X62500000Y-65875000D03*
X62500000Y-62125000D03*
X56500000Y-62125000D03*
X56500000Y-65875000D03*
G04 #@! TA.AperFunction,SMDPad,CuDef*
G36*
G01*
X69710000Y-55827500D02*
X69710000Y-56172500D01*
G75*
G02*
X69562500Y-56320000I-147500J0D01*
G01*
X69267500Y-56320000D01*
G75*
G02*
X69120000Y-56172500I0J147500D01*
G01*
X69120000Y-55827500D01*
G75*
G02*
X69267500Y-55680000I147500J0D01*
G01*
X69562500Y-55680000D01*
G75*
G02*
X69710000Y-55827500I0J-147500D01*
G01*
G37*
G04 #@! TD.AperFunction*
G04 #@! TA.AperFunction,SMDPad,CuDef*
G36*
G01*
X70680000Y-55827500D02*
X70680000Y-56172500D01*
G75*
G02*
X70532500Y-56320000I-147500J0D01*
G01*
X70237500Y-56320000D01*
G75*
G02*
X70090000Y-56172500I0J147500D01*
G01*
X70090000Y-55827500D01*
G75*
G02*
X70237500Y-55680000I147500J0D01*
G01*
X70532500Y-55680000D01*
G75*
G02*
X70680000Y-55827500I0J-147500D01*
G01*
G37*
G04 #@! TD.AperFunction*
G04 #@! TA.AperFunction,SMDPad,CuDef*
G36*
G01*
X72590000Y-56172500D02*
X72590000Y-55827500D01*
G75*
G02*
X72737500Y-55680000I147500J0D01*
G01*
X73032500Y-55680000D01*
G75*
G02*
X73180000Y-55827500I0J-147500D01*
G01*
X73180000Y-56172500D01*
G75*
G02*
X73032500Y-56320000I-147500J0D01*
G01*
X72737500Y-56320000D01*
G75*
G02*
X72590000Y-56172500I0J147500D01*
G01*
G37*
G04 #@! TD.AperFunction*
G04 #@! TA.AperFunction,SMDPad,CuDef*
G36*
G01*
X71620000Y-56172500D02*
X71620000Y-55827500D01*
G75*
G02*
X71767500Y-55680000I147500J0D01*
G01*
X72062500Y-55680000D01*
G75*
G02*
X72210000Y-55827500I0J-147500D01*
G01*
X72210000Y-56172500D01*
G75*
G02*
X72062500Y-56320000I-147500J0D01*
G01*
X71767500Y-56320000D01*
G75*
G02*
X71620000Y-56172500I0J147500D01*
G01*
G37*
G04 #@! TD.AperFunction*
D26*
X71700000Y-52500000D03*
X72650000Y-54500000D03*
X70750000Y-54500000D03*
X68000000Y-52500000D03*
X68950000Y-54500000D03*
X67050000Y-54500000D03*
G04 #@! TA.AperFunction,SMDPad,CuDef*
G36*
G01*
X77427500Y-59775000D02*
X77772500Y-59775000D01*
G75*
G02*
X77920000Y-59922500I0J-147500D01*
G01*
X77920000Y-60217500D01*
G75*
G02*
X77772500Y-60365000I-147500J0D01*
G01*
X77427500Y-60365000D01*
G75*
G02*
X77280000Y-60217500I0J147500D01*
G01*
X77280000Y-59922500D01*
G75*
G02*
X77427500Y-59775000I147500J0D01*
G01*
G37*
G04 #@! TD.AperFunction*
G04 #@! TA.AperFunction,SMDPad,CuDef*
G36*
G01*
X77427500Y-58805000D02*
X77772500Y-58805000D01*
G75*
G02*
X77920000Y-58952500I0J-147500D01*
G01*
X77920000Y-59247500D01*
G75*
G02*
X77772500Y-59395000I-147500J0D01*
G01*
X77427500Y-59395000D01*
G75*
G02*
X77280000Y-59247500I0J147500D01*
G01*
X77280000Y-58952500D01*
G75*
G02*
X77427500Y-58805000I147500J0D01*
G01*
G37*
G04 #@! TD.AperFunction*
G04 #@! TA.AperFunction,SMDPad,CuDef*
G36*
G01*
X65127500Y-61490000D02*
X65472500Y-61490000D01*
G75*
G02*
X65620000Y-61637500I0J-147500D01*
G01*
X65620000Y-61932500D01*
G75*
G02*
X65472500Y-62080000I-147500J0D01*
G01*
X65127500Y-62080000D01*
G75*
G02*
X64980000Y-61932500I0J147500D01*
G01*
X64980000Y-61637500D01*
G75*
G02*
X65127500Y-61490000I147500J0D01*
G01*
G37*
G04 #@! TD.AperFunction*
G04 #@! TA.AperFunction,SMDPad,CuDef*
G36*
G01*
X65127500Y-60520000D02*
X65472500Y-60520000D01*
G75*
G02*
X65620000Y-60667500I0J-147500D01*
G01*
X65620000Y-60962500D01*
G75*
G02*
X65472500Y-61110000I-147500J0D01*
G01*
X65127500Y-61110000D01*
G75*
G02*
X64980000Y-60962500I0J147500D01*
G01*
X64980000Y-60667500D01*
G75*
G02*
X65127500Y-60520000I147500J0D01*
G01*
G37*
G04 #@! TD.AperFunction*
G04 #@! TA.AperFunction,SMDPad,CuDef*
G36*
G01*
X64727500Y-80490000D02*
X65072500Y-80490000D01*
G75*
G02*
X65220000Y-80637500I0J-147500D01*
G01*
X65220000Y-80932500D01*
G75*
G02*
X65072500Y-81080000I-147500J0D01*
G01*
X64727500Y-81080000D01*
G75*
G02*
X64580000Y-80932500I0J147500D01*
G01*
X64580000Y-80637500D01*
G75*
G02*
X64727500Y-80490000I147500J0D01*
G01*
G37*
G04 #@! TD.AperFunction*
G04 #@! TA.AperFunction,SMDPad,CuDef*
G36*
G01*
X64727500Y-79520000D02*
X65072500Y-79520000D01*
G75*
G02*
X65220000Y-79667500I0J-147500D01*
G01*
X65220000Y-79962500D01*
G75*
G02*
X65072500Y-80110000I-147500J0D01*
G01*
X64727500Y-80110000D01*
G75*
G02*
X64580000Y-79962500I0J147500D01*
G01*
X64580000Y-79667500D01*
G75*
G02*
X64727500Y-79520000I147500J0D01*
G01*
G37*
G04 #@! TD.AperFunction*
G04 #@! TA.AperFunction,SMDPad,CuDef*
G36*
G01*
X63527500Y-80490000D02*
X63872500Y-80490000D01*
G75*
G02*
X64020000Y-80637500I0J-147500D01*
G01*
X64020000Y-80932500D01*
G75*
G02*
X63872500Y-81080000I-147500J0D01*
G01*
X63527500Y-81080000D01*
G75*
G02*
X63380000Y-80932500I0J147500D01*
G01*
X63380000Y-80637500D01*
G75*
G02*
X63527500Y-80490000I147500J0D01*
G01*
G37*
G04 #@! TD.AperFunction*
G04 #@! TA.AperFunction,SMDPad,CuDef*
G36*
G01*
X63527500Y-79520000D02*
X63872500Y-79520000D01*
G75*
G02*
X64020000Y-79667500I0J-147500D01*
G01*
X64020000Y-79962500D01*
G75*
G02*
X63872500Y-80110000I-147500J0D01*
G01*
X63527500Y-80110000D01*
G75*
G02*
X63380000Y-79962500I0J147500D01*
G01*
X63380000Y-79667500D01*
G75*
G02*
X63527500Y-79520000I147500J0D01*
G01*
G37*
G04 #@! TD.AperFunction*
D19*
X98553000Y-87122000D03*
X101853000Y-87122000D03*
X108967000Y-87600000D03*
X112267000Y-87600000D03*
G04 #@! TA.AperFunction,SMDPad,CuDef*
G36*
G01*
X119952000Y-65740500D02*
X119952000Y-66085500D01*
G75*
G02*
X119804500Y-66233000I-147500J0D01*
G01*
X119509500Y-66233000D01*
G75*
G02*
X119362000Y-66085500I0J147500D01*
G01*
X119362000Y-65740500D01*
G75*
G02*
X119509500Y-65593000I147500J0D01*
G01*
X119804500Y-65593000D01*
G75*
G02*
X119952000Y-65740500I0J-147500D01*
G01*
G37*
G04 #@! TD.AperFunction*
G04 #@! TA.AperFunction,SMDPad,CuDef*
G36*
G01*
X120922000Y-65740500D02*
X120922000Y-66085500D01*
G75*
G02*
X120774500Y-66233000I-147500J0D01*
G01*
X120479500Y-66233000D01*
G75*
G02*
X120332000Y-66085500I0J147500D01*
G01*
X120332000Y-65740500D01*
G75*
G02*
X120479500Y-65593000I147500J0D01*
G01*
X120774500Y-65593000D01*
G75*
G02*
X120922000Y-65740500I0J-147500D01*
G01*
G37*
G04 #@! TD.AperFunction*
D33*
X72715000Y-94626000D03*
X70175000Y-94626000D03*
X67635000Y-94626000D03*
D34*
X65095000Y-94626000D03*
D33*
X59500000Y-88120000D03*
X59500000Y-85580000D03*
X59500000Y-83040000D03*
D34*
X59500000Y-80500000D03*
D35*
X118745000Y-65913000D03*
D36*
X112903000Y-70739000D03*
D35*
X116459000Y-73533000D03*
D36*
X120523000Y-82804000D03*
X113157000Y-85344000D03*
X112014000Y-76835000D03*
X118237000Y-88011000D03*
D37*
X123063000Y-72517000D03*
X123063000Y-75565000D03*
D35*
X106172000Y-78359000D03*
D36*
X66700000Y-65900000D03*
X64200000Y-61800000D03*
X101400000Y-78900000D03*
D35*
X82490302Y-77309698D03*
X99400000Y-78800000D03*
X78000000Y-82000000D03*
X79000000Y-82000000D03*
X80000000Y-82000000D03*
X81000000Y-82000000D03*
X81000000Y-83000000D03*
X81000000Y-84000000D03*
X81000000Y-85000000D03*
X82000000Y-85000000D03*
X83000000Y-85000000D03*
X83000000Y-86000000D03*
X83000000Y-87000000D03*
X83000000Y-88000000D03*
X84000000Y-88000000D03*
X85000000Y-88000000D03*
X86000000Y-88000000D03*
X87000000Y-88000000D03*
X87000000Y-87000000D03*
X87000000Y-86000000D03*
X87000000Y-85000000D03*
X88000000Y-85000000D03*
X88000000Y-84000000D03*
X88000000Y-83000000D03*
X88000000Y-82000000D03*
X89000000Y-82000000D03*
X90000000Y-82000000D03*
X91000000Y-82000000D03*
X92000000Y-82000000D03*
X93000000Y-82000000D03*
X93000000Y-83000000D03*
X93000000Y-84000000D03*
X93000000Y-85000000D03*
X94000000Y-85000000D03*
X94000000Y-86000000D03*
X94000000Y-87000000D03*
X95000000Y-87000000D03*
X96000000Y-87000000D03*
X96000000Y-86000000D03*
X96000000Y-85000000D03*
X97000000Y-85000000D03*
X98000000Y-85000000D03*
X98000000Y-84000000D03*
X98000000Y-83000000D03*
X98000000Y-82000000D03*
X99000000Y-82000000D03*
X100000000Y-82000000D03*
X101000000Y-82000000D03*
X102000000Y-82000000D03*
X103000000Y-82000000D03*
X103000000Y-83000000D03*
X103000000Y-84000000D03*
X104000000Y-84000000D03*
X105000000Y-84000000D03*
X106000000Y-84000000D03*
X106000000Y-83000000D03*
X105000000Y-83000000D03*
X105000000Y-82000000D03*
X104000000Y-81000000D03*
X103000000Y-80000000D03*
X103000000Y-81000000D03*
X102000000Y-81000000D03*
X101000000Y-81000000D03*
X100000000Y-81000000D03*
X99000000Y-81000000D03*
X98000000Y-81000000D03*
X98000000Y-80000000D03*
X97000000Y-80000000D03*
X97000000Y-79000000D03*
X96000000Y-79000000D03*
X95000000Y-79000000D03*
X94000000Y-79000000D03*
X93000000Y-79000000D03*
X92000000Y-79000000D03*
X91000000Y-79000000D03*
X90000000Y-79000000D03*
X89000000Y-79000000D03*
X88000000Y-79000000D03*
X87000000Y-79000000D03*
X86000000Y-79000000D03*
X85000000Y-79000000D03*
X84000000Y-79000000D03*
X83000000Y-79000000D03*
X82000000Y-79000000D03*
X81000000Y-79000000D03*
X80000000Y-80000000D03*
X79000000Y-81000000D03*
X104000000Y-83000000D03*
X104000000Y-82000000D03*
X97000000Y-81000000D03*
X97000000Y-82000000D03*
X97000000Y-83000000D03*
X97000000Y-84000000D03*
X96000000Y-84000000D03*
X96000000Y-83000000D03*
X96000000Y-82000000D03*
X96000000Y-81000000D03*
X96000000Y-80000000D03*
X95000000Y-80000000D03*
X95000000Y-81000000D03*
X95000000Y-82000000D03*
X95000000Y-83000000D03*
X95000000Y-84000000D03*
X95000000Y-85000000D03*
X95000000Y-86000000D03*
X94000000Y-84000000D03*
X94000000Y-83000000D03*
X94000000Y-82000000D03*
X94000000Y-81000000D03*
X94000000Y-80000000D03*
X93000000Y-80000000D03*
X93000000Y-81000000D03*
X92000000Y-81000000D03*
X92000000Y-80000000D03*
X91000000Y-80000000D03*
X91000000Y-81000000D03*
X90000000Y-81000000D03*
X90000000Y-80000000D03*
X89000000Y-80000000D03*
X89000000Y-81000000D03*
X88000000Y-81000000D03*
X88000000Y-80000000D03*
X87000000Y-80000000D03*
X87000000Y-81000000D03*
X87000000Y-82000000D03*
X87000000Y-83000000D03*
X87000000Y-84000000D03*
X86000000Y-84000000D03*
X86000000Y-85000000D03*
X86000000Y-86000000D03*
X86000000Y-87000000D03*
X85000000Y-87000000D03*
X85000000Y-86000000D03*
X85000000Y-85000000D03*
X85000000Y-84000000D03*
X85000000Y-83000000D03*
X86000000Y-83000000D03*
X86000000Y-82000000D03*
X85000000Y-82000000D03*
X85000000Y-81000000D03*
X86000000Y-81000000D03*
X86000000Y-80000000D03*
X85000000Y-80000000D03*
X84000000Y-80000000D03*
X83000000Y-80000000D03*
X82000000Y-80000000D03*
X81000000Y-80000000D03*
X80000000Y-81000000D03*
X81000000Y-81000000D03*
X82000000Y-81000000D03*
X83000000Y-81000000D03*
X84000000Y-81000000D03*
X84000000Y-82000000D03*
X83000000Y-82000000D03*
X82000000Y-82000000D03*
X82000000Y-83000000D03*
X83000000Y-83000000D03*
X84000000Y-83000000D03*
X84000000Y-84000000D03*
X83000000Y-84000000D03*
X82000000Y-84000000D03*
X84000000Y-85000000D03*
X84000000Y-86000000D03*
X84000000Y-87000000D03*
D37*
X78700000Y-73500000D03*
D35*
X67800000Y-71900000D03*
X88100000Y-66900000D03*
X92200000Y-66800000D03*
X91200000Y-66800000D03*
X90200000Y-66800000D03*
X89200000Y-66900000D03*
D36*
X85400000Y-76682600D03*
D37*
X97100000Y-57500000D03*
D36*
X79300000Y-57400000D03*
D35*
X78400000Y-60500000D03*
X120650000Y-66929000D03*
X110744000Y-75057000D03*
X106426000Y-72644000D03*
D36*
X64200000Y-60000000D03*
D37*
X78200000Y-65150000D03*
D36*
X79300000Y-58900000D03*
D35*
X115988563Y-77808223D03*
X116205000Y-67310000D03*
X116205000Y-64262000D03*
D37*
X130683000Y-68453000D03*
X130683000Y-71247000D03*
X130683000Y-73914000D03*
X130683000Y-65786000D03*
D35*
X114046000Y-87249000D03*
D36*
X115189000Y-84836000D03*
D35*
X102616000Y-68326000D03*
X102616000Y-74422000D03*
X103378000Y-74803000D03*
X106045000Y-76962000D03*
X104300000Y-68600000D03*
X70000000Y-57000000D03*
X68700000Y-57000000D03*
X79900000Y-72200000D03*
X101200000Y-75100000D03*
X101854000Y-62484000D03*
X68100000Y-62000000D03*
X69500000Y-62000000D03*
X102700000Y-62400000D03*
X80650000Y-68700000D03*
X62200000Y-83700000D03*
X80650000Y-67400000D03*
X68000000Y-91500000D03*
X105029000Y-74803000D03*
X106553000Y-76327000D03*
X105100000Y-69000000D03*
D37*
X63800000Y-69900000D03*
D36*
X67500000Y-74250000D03*
D35*
X64700000Y-72200000D03*
X64700000Y-73600000D03*
X66400000Y-72100000D03*
X65000000Y-66250000D03*
X77600000Y-62900000D03*
X66800000Y-69000000D03*
X78500000Y-62900000D03*
X107100602Y-83780002D03*
X91600000Y-84000000D03*
X95600000Y-72900000D03*
X84100000Y-72400000D03*
X80900000Y-65800000D03*
X80900000Y-64500000D03*
X80900000Y-63400000D03*
D38*
X90186000Y-64777000D02*
X90177000Y-64777000D01*
X90177000Y-64777000D02*
X90170000Y-64770000D01*
D39*
X118610000Y-66048000D02*
X118745000Y-65913000D01*
X118610000Y-67650000D02*
X118610000Y-66048000D01*
X119657000Y-65913000D02*
X118745000Y-65913000D01*
D40*
X111371000Y-69207000D02*
X112903000Y-70739000D01*
X111371000Y-69040000D02*
X111371000Y-69207000D01*
D39*
X117610000Y-72050000D02*
X117610000Y-73271000D01*
X117610000Y-73271000D02*
X117475000Y-73406000D01*
X117475000Y-73406000D02*
X117348000Y-73406000D01*
X117110000Y-73168000D02*
X117110000Y-72050000D01*
X117348000Y-73406000D02*
X117110000Y-73168000D01*
X116586000Y-73406000D02*
X116459000Y-73533000D01*
X117348000Y-73406000D02*
X116586000Y-73406000D01*
D38*
X120520000Y-82807000D02*
X120523000Y-82804000D01*
X118872000Y-82807000D02*
X120520000Y-82807000D01*
D40*
X111935500Y-83081000D02*
X111785500Y-82931000D01*
X111935500Y-84836000D02*
X111935500Y-83081000D01*
X111785500Y-81790500D02*
X111209000Y-81214000D01*
X111785500Y-82931000D02*
X111785500Y-81790500D01*
X112649000Y-84836000D02*
X113157000Y-85344000D01*
X111935500Y-84836000D02*
X112649000Y-84836000D01*
X112022000Y-76827000D02*
X112014000Y-76835000D01*
X113579000Y-76827000D02*
X112022000Y-76827000D01*
D39*
X111006000Y-75827000D02*
X112014000Y-76835000D01*
X109179000Y-75827000D02*
X111006000Y-75827000D01*
D38*
X118253000Y-86675000D02*
X118253000Y-87995000D01*
X118253000Y-87995000D02*
X118237000Y-88011000D01*
D39*
X117702000Y-87226000D02*
X118253000Y-86675000D01*
X115316000Y-87226000D02*
X117702000Y-87226000D01*
D41*
X125095000Y-74549000D02*
X123063000Y-72517000D01*
X127000000Y-74549000D02*
X125095000Y-74549000D01*
X123063000Y-72517000D02*
X123063000Y-75565000D01*
D39*
X106449000Y-78636000D02*
X106172000Y-78359000D01*
X107315000Y-78636000D02*
X106449000Y-78636000D01*
D38*
X65300000Y-61785000D02*
X65300000Y-63400000D01*
X65775000Y-63875000D02*
X66855000Y-63875000D01*
X65300000Y-63400000D02*
X65775000Y-63875000D01*
X66855000Y-65745000D02*
X66700000Y-65900000D01*
X66855000Y-63875000D02*
X66855000Y-65745000D01*
X64215000Y-61785000D02*
X64200000Y-61800000D01*
X65300000Y-61785000D02*
X64215000Y-61785000D01*
D39*
X101841000Y-77851000D02*
X101890000Y-77900000D01*
X100840000Y-77851000D02*
X101841000Y-77851000D01*
X101890000Y-78410000D02*
X101400000Y-78900000D01*
X101890000Y-77900000D02*
X101890000Y-78410000D01*
X81770604Y-76590000D02*
X82490302Y-77309698D01*
X81400000Y-76590000D02*
X81770604Y-76590000D01*
X98800000Y-78200000D02*
X99400000Y-78800000D01*
X98610000Y-78200000D02*
X98800000Y-78200000D01*
D42*
X78350000Y-69275000D02*
X78900000Y-68725000D01*
X78350000Y-70300000D02*
X78350000Y-69275000D01*
X75000000Y-70300000D02*
X74800000Y-70100000D01*
X78350000Y-70300000D02*
X75000000Y-70300000D01*
D43*
X77850000Y-82150000D02*
X78000000Y-82000000D01*
X77850000Y-83200000D02*
X77850000Y-82150000D01*
X79000000Y-82000000D02*
X80000000Y-82000000D01*
X81000000Y-82000000D02*
X81000000Y-83000000D01*
X81000000Y-84000000D02*
X81000000Y-85000000D01*
X82000000Y-85000000D02*
X83000000Y-85000000D01*
X83000000Y-86000000D02*
X83000000Y-87000000D01*
X83000000Y-88000000D02*
X84000000Y-88000000D01*
X85000000Y-88000000D02*
X86000000Y-88000000D01*
X87000000Y-88000000D02*
X87000000Y-87000000D01*
X87000000Y-86000000D02*
X87000000Y-85000000D01*
X88000000Y-85000000D02*
X88000000Y-84000000D01*
X88000000Y-83000000D02*
X88000000Y-82000000D01*
X89000000Y-82000000D02*
X90000000Y-82000000D01*
X91000000Y-82000000D02*
X92000000Y-82000000D01*
X93000000Y-82000000D02*
X93000000Y-83000000D01*
X93000000Y-84000000D02*
X93000000Y-85000000D01*
X94000000Y-85000000D02*
X94000000Y-86000000D01*
X94000000Y-87000000D02*
X95000000Y-87000000D01*
X96000000Y-87000000D02*
X96000000Y-86000000D01*
X96000000Y-85000000D02*
X97000000Y-85000000D01*
X98000000Y-85000000D02*
X98000000Y-84000000D01*
X98000000Y-83000000D02*
X98000000Y-82000000D01*
X99000000Y-82000000D02*
X100000000Y-82000000D01*
X101000000Y-82000000D02*
X102000000Y-82000000D01*
X103000000Y-82000000D02*
X103000000Y-83000000D01*
X103000000Y-84000000D02*
X104000000Y-84000000D01*
X105000000Y-84000000D02*
X106000000Y-84000000D01*
X106000000Y-83000000D02*
X105000000Y-83000000D01*
X105000000Y-82000000D02*
X104000000Y-81000000D01*
X103000000Y-81000000D02*
X102000000Y-81000000D01*
X101000000Y-81000000D02*
X100000000Y-81000000D01*
X99000000Y-81000000D02*
X98000000Y-81000000D01*
X98000000Y-80000000D02*
X97000000Y-80000000D01*
X97000000Y-79000000D02*
X96000000Y-79000000D01*
X95000000Y-79000000D02*
X94000000Y-79000000D01*
X93000000Y-79000000D02*
X92000000Y-79000000D01*
X91000000Y-79000000D02*
X90000000Y-79000000D01*
X89000000Y-79000000D02*
X88000000Y-79000000D01*
X87000000Y-79000000D02*
X86000000Y-79000000D01*
X85000000Y-79000000D02*
X84000000Y-79000000D01*
X83000000Y-79000000D02*
X82000000Y-79000000D01*
X81000000Y-79000000D02*
X81000000Y-80000000D01*
X81000000Y-80000000D02*
X80000000Y-80000000D01*
X104000000Y-83000000D02*
X104000000Y-82000000D01*
X97000000Y-81000000D02*
X97000000Y-82000000D01*
X97000000Y-83000000D02*
X97000000Y-84000000D01*
X96000000Y-84000000D02*
X96000000Y-83000000D01*
X96000000Y-82000000D02*
X96000000Y-81000000D01*
X96000000Y-80000000D02*
X95000000Y-80000000D01*
X95000000Y-81000000D02*
X95000000Y-82000000D01*
X95000000Y-82000000D02*
X95000000Y-83000000D01*
X95000000Y-84000000D02*
X95000000Y-85000000D01*
X94000000Y-85000000D02*
X94000000Y-84000000D01*
X94000000Y-83000000D02*
X94000000Y-82000000D01*
X94000000Y-81000000D02*
X94000000Y-80000000D01*
X93000000Y-80000000D02*
X93000000Y-81000000D01*
X92000000Y-81000000D02*
X92000000Y-80000000D01*
X91000000Y-80000000D02*
X91000000Y-81000000D01*
X90000000Y-81000000D02*
X90000000Y-80000000D01*
X89000000Y-80000000D02*
X89000000Y-81000000D01*
X88000000Y-81000000D02*
X88000000Y-80000000D01*
X87000000Y-80000000D02*
X87000000Y-81000000D01*
X87000000Y-82000000D02*
X87000000Y-83000000D01*
X87000000Y-84000000D02*
X86000000Y-84000000D01*
X86000000Y-85000000D02*
X86000000Y-86000000D01*
X86000000Y-87000000D02*
X85000000Y-87000000D01*
X85000000Y-86000000D02*
X85000000Y-85000000D01*
X85000000Y-84000000D02*
X85000000Y-83000000D01*
X86000000Y-83000000D02*
X86000000Y-82000000D01*
X85000000Y-82000000D02*
X85000000Y-81000000D01*
X86000000Y-81000000D02*
X86000000Y-80000000D01*
X85000000Y-80000000D02*
X84000000Y-80000000D01*
X82000000Y-80000000D02*
X81000000Y-80000000D01*
X81000000Y-80000000D02*
X80000000Y-81000000D01*
X81000000Y-81000000D02*
X82000000Y-81000000D01*
X83000000Y-81000000D02*
X84000000Y-81000000D01*
X84000000Y-82000000D02*
X83000000Y-82000000D01*
X82000000Y-82000000D02*
X82000000Y-83000000D01*
X83000000Y-83000000D02*
X84000000Y-83000000D01*
X84000000Y-84000000D02*
X83000000Y-84000000D01*
X84000000Y-84000000D02*
X84000000Y-85000000D01*
X84000000Y-86000000D02*
X84000000Y-87000000D01*
D42*
X60630000Y-77218000D02*
X56450000Y-77218000D01*
X56450000Y-68578000D02*
X60630000Y-68578000D01*
D38*
X61545000Y-69493000D02*
X60630000Y-68578000D01*
X61545000Y-69648000D02*
X61545000Y-69493000D01*
X61545000Y-76303000D02*
X60630000Y-77218000D01*
X61545000Y-76148000D02*
X61545000Y-76303000D01*
X72950000Y-78750000D02*
X72950000Y-80410000D01*
X72950000Y-80410000D02*
X72410000Y-80950000D01*
X72750000Y-78550000D02*
X72950000Y-78750000D01*
X71640000Y-78550000D02*
X72750000Y-78550000D01*
D42*
X79550000Y-74350000D02*
X78700000Y-73500000D01*
X79550000Y-75800000D02*
X79550000Y-74350000D01*
X78037500Y-78100000D02*
X79500000Y-76637500D01*
X79500000Y-75850000D02*
X79550000Y-75800000D01*
X79500000Y-76637500D02*
X79500000Y-75850000D01*
X78700000Y-70650000D02*
X78350000Y-70300000D01*
X78700000Y-73500000D02*
X78700000Y-70650000D01*
X74800000Y-70100000D02*
X73100000Y-70100000D01*
X73100000Y-70100000D02*
X71700000Y-71500000D01*
X71700000Y-71500000D02*
X71700000Y-74400000D01*
X71700000Y-74400000D02*
X69900000Y-76200000D01*
X69900000Y-76200000D02*
X69900000Y-78200000D01*
D38*
X70250000Y-78550000D02*
X69900000Y-78200000D01*
X71640000Y-78550000D02*
X70250000Y-78550000D01*
D39*
X67600000Y-71700000D02*
X67800000Y-71900000D01*
X67600000Y-70810000D02*
X67600000Y-71700000D01*
D38*
X68135000Y-71900000D02*
X68750000Y-72515000D01*
X67800000Y-71900000D02*
X68135000Y-71900000D01*
D39*
X65760000Y-66840000D02*
X66700000Y-65900000D01*
X65760000Y-67250000D02*
X65760000Y-66840000D01*
D38*
X56450000Y-65925000D02*
X56500000Y-65875000D01*
X56450000Y-68578000D02*
X56450000Y-65925000D01*
X56500000Y-65875000D02*
X62500000Y-65875000D01*
D39*
X90186000Y-64814000D02*
X88100000Y-66900000D01*
X90186000Y-64777000D02*
X90186000Y-64814000D01*
X90186000Y-64786000D02*
X92200000Y-66800000D01*
X90186000Y-64777000D02*
X90186000Y-64786000D01*
X90186000Y-65786000D02*
X91200000Y-66800000D01*
X90186000Y-64777000D02*
X90186000Y-65786000D01*
X90186000Y-66786000D02*
X90200000Y-66800000D01*
X90186000Y-64777000D02*
X90186000Y-66786000D01*
X90186000Y-65914000D02*
X89200000Y-66900000D01*
X90186000Y-64777000D02*
X90186000Y-65914000D01*
X85471000Y-76611600D02*
X85400000Y-76682600D01*
X85471000Y-74787000D02*
X85471000Y-76611600D01*
D38*
X97323000Y-57277000D02*
X97100000Y-57500000D01*
X99686000Y-57277000D02*
X97323000Y-57277000D01*
X80838000Y-57277000D02*
X80700000Y-57415000D01*
X82686000Y-57277000D02*
X80838000Y-57277000D01*
X79315000Y-57415000D02*
X79300000Y-57400000D01*
X80700000Y-57415000D02*
X79315000Y-57415000D01*
D39*
X77970000Y-60070000D02*
X78400000Y-60500000D01*
X77600000Y-60070000D02*
X77970000Y-60070000D01*
X115112000Y-76827000D02*
X115200000Y-76915000D01*
X113579000Y-76827000D02*
X115112000Y-76827000D01*
X115443000Y-78082000D02*
X115443000Y-78105000D01*
X120627000Y-65913000D02*
X120627000Y-66825000D01*
X119802000Y-67650000D02*
X119110000Y-67650000D01*
X120627000Y-66825000D02*
X119802000Y-67650000D01*
X120627000Y-66906000D02*
X120650000Y-66929000D01*
X120627000Y-66825000D02*
X120627000Y-66906000D01*
X110474000Y-75327000D02*
X110744000Y-75057000D01*
X109179000Y-75327000D02*
X110474000Y-75327000D01*
X102870000Y-72667000D02*
X104140000Y-72667000D01*
X104140000Y-72667000D02*
X105410000Y-72667000D01*
X106403000Y-72667000D02*
X106426000Y-72644000D01*
X105410000Y-72667000D02*
X106403000Y-72667000D01*
D38*
X66855000Y-58925000D02*
X66275000Y-58925000D01*
X65300000Y-59900000D02*
X65300000Y-60815000D01*
X66275000Y-58925000D02*
X65300000Y-59900000D01*
X70665000Y-63875000D02*
X70665000Y-61265000D01*
X70665000Y-61265000D02*
X70300000Y-60900000D01*
X70300000Y-60900000D02*
X67200000Y-60900000D01*
X66855000Y-60555000D02*
X66855000Y-58925000D01*
X67200000Y-60900000D02*
X66855000Y-60555000D01*
X65015000Y-60815000D02*
X64200000Y-60000000D01*
X65300000Y-60815000D02*
X65015000Y-60815000D01*
X67115000Y-60815000D02*
X67200000Y-60900000D01*
X65300000Y-60815000D02*
X67115000Y-60815000D01*
D42*
X74625000Y-67175000D02*
X74600000Y-67200000D01*
X78900000Y-67175000D02*
X74625000Y-67175000D01*
D39*
X74135000Y-67665000D02*
X74600000Y-67200000D01*
X70450000Y-67665000D02*
X74135000Y-67665000D01*
D42*
X78900000Y-65850000D02*
X78200000Y-65150000D01*
X78900000Y-67175000D02*
X78900000Y-65850000D01*
D39*
X64900000Y-79815000D02*
X63700000Y-79815000D01*
X60185000Y-79815000D02*
X59500000Y-80500000D01*
X63700000Y-79815000D02*
X60185000Y-79815000D01*
X65250000Y-58950000D02*
X64200000Y-60000000D01*
X65250000Y-58235000D02*
X65250000Y-58950000D01*
D38*
X80862000Y-58547000D02*
X80700000Y-58385000D01*
X82686000Y-58547000D02*
X80862000Y-58547000D01*
X79815000Y-58385000D02*
X79300000Y-58900000D01*
X80700000Y-58385000D02*
X79815000Y-58385000D01*
X107000000Y-50712500D02*
X108700000Y-50712500D01*
X108700000Y-50712500D02*
X110400000Y-50712500D01*
X112612500Y-50712500D02*
X113500000Y-51600000D01*
X110400000Y-50712500D02*
X112612500Y-50712500D01*
D39*
X113579000Y-77327000D02*
X114527000Y-77327000D01*
X115085000Y-77885000D02*
X115200000Y-77885000D01*
X114527000Y-77327000D02*
X115085000Y-77885000D01*
X115911786Y-77885000D02*
X115988563Y-77808223D01*
X115200000Y-77885000D02*
X115911786Y-77885000D01*
D40*
X110400000Y-53400000D02*
X110400000Y-52287500D01*
X103800000Y-60000000D02*
X110400000Y-53400000D01*
X103800000Y-62585000D02*
X103800000Y-60000000D01*
X102785000Y-63600000D02*
X103800000Y-62585000D01*
X103180000Y-59800000D02*
X107680000Y-55300000D01*
X102885000Y-59800000D02*
X103180000Y-59800000D01*
X107680000Y-55300000D02*
X107700000Y-55300000D01*
X108700000Y-54300000D02*
X108700000Y-52287500D01*
X107700000Y-55300000D02*
X108700000Y-54300000D01*
X102885000Y-58600000D02*
X103500000Y-58600000D01*
X103500000Y-58600000D02*
X107000000Y-55100000D01*
X107000000Y-55100000D02*
X107000000Y-52287500D01*
D39*
X99686000Y-71247000D02*
X106753000Y-71247000D01*
X106753000Y-71247000D02*
X107000000Y-71000000D01*
X107000000Y-71000000D02*
X107000000Y-68000000D01*
X107960000Y-67040000D02*
X111371000Y-67040000D01*
X107000000Y-68000000D02*
X107960000Y-67040000D01*
X103863000Y-69596000D02*
X105604000Y-69596000D01*
X105604000Y-69596000D02*
X106300000Y-68900000D01*
X106300000Y-68900000D02*
X106300000Y-66900000D01*
X108160000Y-65040000D02*
X111371000Y-65040000D01*
X106300000Y-66900000D02*
X108160000Y-65040000D01*
X116332000Y-64135000D02*
X118110000Y-65913000D01*
X118491000Y-63479000D02*
X116734000Y-63479000D01*
X118110000Y-65913000D02*
X118110000Y-67650000D01*
X116332000Y-63881000D02*
X116332000Y-64135000D01*
X116734000Y-63479000D02*
X116332000Y-63881000D01*
X116205000Y-67310000D02*
X116770000Y-67310000D01*
X116770000Y-67310000D02*
X117110000Y-67650000D01*
X116332000Y-64135000D02*
X116205000Y-64262000D01*
D40*
X109009000Y-80264000D02*
X109855000Y-80264000D01*
X109855000Y-80264000D02*
X110109000Y-80518000D01*
X110109000Y-82829500D02*
X110210500Y-82931000D01*
X110109000Y-80518000D02*
X110109000Y-82829500D01*
X110060500Y-83081000D02*
X110210500Y-82931000D01*
X110060500Y-84836000D02*
X110060500Y-83081000D01*
X110060500Y-84836000D02*
X110060500Y-85676500D01*
X110060500Y-85676500D02*
X110617000Y-86233000D01*
X110617000Y-86233000D02*
X113538000Y-86233000D01*
X113538000Y-86233000D02*
X114046000Y-85725000D01*
X114046000Y-85725000D02*
X114046000Y-84836000D01*
X113792000Y-84582000D02*
X113792000Y-84158000D01*
X114046000Y-84836000D02*
X113792000Y-84582000D01*
D41*
X124333000Y-69469000D02*
X127000000Y-69469000D01*
X123190000Y-68326000D02*
X124333000Y-69469000D01*
X118491000Y-63479000D02*
X122153000Y-63479000D01*
X123190000Y-64516000D02*
X123190000Y-68326000D01*
X122153000Y-63479000D02*
X123190000Y-64516000D01*
X129667000Y-69469000D02*
X130683000Y-68453000D01*
X127000000Y-69469000D02*
X129667000Y-69469000D01*
X130683000Y-68453000D02*
X130683000Y-71247000D01*
X130683000Y-71247000D02*
X130683000Y-73914000D01*
X130683000Y-68453000D02*
X130683000Y-65786000D01*
D40*
X65500000Y-78725000D02*
X65500000Y-78750000D01*
X64500000Y-77725000D02*
X65500000Y-78725000D01*
D38*
X66000000Y-79250000D02*
X65500000Y-78750000D01*
X66000000Y-80000000D02*
X66000000Y-79250000D01*
X70500000Y-84500000D02*
X66000000Y-80000000D01*
X70500000Y-85900000D02*
X70500000Y-84500000D01*
D42*
X74950000Y-85900000D02*
X75300000Y-86250000D01*
X70500000Y-85900000D02*
X74950000Y-85900000D01*
D40*
X113792000Y-84158000D02*
X114511000Y-84158000D01*
X114511000Y-84158000D02*
X115189000Y-84836000D01*
D39*
X113695000Y-87600000D02*
X114046000Y-87249000D01*
X112267000Y-87600000D02*
X113695000Y-87600000D01*
D42*
X101853000Y-87122000D02*
X101853000Y-87853000D01*
X106275000Y-92275000D02*
X106275000Y-94615000D01*
X101853000Y-87853000D02*
X106275000Y-92275000D01*
X112267000Y-89050000D02*
X117832000Y-94615000D01*
X112267000Y-87600000D02*
X112267000Y-89050000D01*
X94680000Y-89830000D02*
X94680000Y-94600000D01*
X92250000Y-87400000D02*
X94680000Y-89830000D01*
X83080000Y-89930000D02*
X83080000Y-94600000D01*
X80550000Y-87400000D02*
X83080000Y-89930000D01*
D39*
X99686000Y-72517000D02*
X100965000Y-72517000D01*
X102036599Y-73588599D02*
X102036599Y-75239599D01*
X100965000Y-72517000D02*
X102036599Y-73588599D01*
X106372171Y-79606000D02*
X107315000Y-79606000D01*
X102489000Y-75722829D02*
X106372171Y-79606000D01*
X102489000Y-75692000D02*
X102489000Y-75722829D01*
X102036599Y-75239599D02*
X102489000Y-75692000D01*
X109009000Y-81214000D02*
X108392000Y-81214000D01*
X108392000Y-81214000D02*
X107823000Y-80645000D01*
X107823000Y-80114000D02*
X107315000Y-79606000D01*
X107823000Y-80645000D02*
X107823000Y-80114000D01*
X102235000Y-68707000D02*
X102616000Y-68326000D01*
X99686000Y-68707000D02*
X102235000Y-68707000D01*
X105664000Y-76327000D02*
X107950000Y-74041000D01*
X107950000Y-74041000D02*
X114427000Y-74041000D01*
X114427000Y-74041000D02*
X115570000Y-75184000D01*
X115570000Y-75184000D02*
X118110000Y-75184000D01*
X119110000Y-74184000D02*
X119110000Y-72050000D01*
X118110000Y-75184000D02*
X119110000Y-74184000D01*
X109179000Y-77327000D02*
X108782000Y-77724000D01*
X108782000Y-77724000D02*
X105664000Y-77724000D01*
X104521000Y-76581000D02*
X104521000Y-76327000D01*
X105664000Y-77724000D02*
X104521000Y-76581000D01*
X104521000Y-76327000D02*
X105664000Y-76327000D01*
X103632000Y-76327000D02*
X104521000Y-76327000D01*
X103632000Y-76327000D02*
X103632000Y-76200000D01*
X102616000Y-75184000D02*
X102616000Y-74422000D01*
X103632000Y-76200000D02*
X102616000Y-75184000D01*
X102870000Y-74168000D02*
X102616000Y-74422000D01*
X102870000Y-73637000D02*
X102870000Y-74168000D01*
X103378000Y-74803000D02*
X104394000Y-75819000D01*
X104394000Y-75819000D02*
X105410000Y-75819000D01*
X105410000Y-75819000D02*
X107696000Y-73533000D01*
X107696000Y-73533000D02*
X114681000Y-73533000D01*
X114681000Y-73533000D02*
X115824000Y-74676000D01*
X115824000Y-74676000D02*
X117983000Y-74676000D01*
X117983000Y-74676000D02*
X118618000Y-74041000D01*
X118610000Y-74033000D02*
X118610000Y-72050000D01*
X118618000Y-74041000D02*
X118610000Y-74033000D01*
X106775514Y-76962000D02*
X106045000Y-76962000D01*
X106910514Y-76827000D02*
X106775514Y-76962000D01*
X109179000Y-76827000D02*
X106910514Y-76827000D01*
X103378000Y-74803000D02*
X103886000Y-74803000D01*
X104140000Y-74549000D02*
X104140000Y-73637000D01*
X103886000Y-74803000D02*
X104140000Y-74549000D01*
X99686000Y-67437000D02*
X104137000Y-67437000D01*
X104300000Y-67600000D02*
X104300000Y-68600000D01*
X104137000Y-67437000D02*
X104300000Y-67600000D01*
D42*
X108667000Y-87300000D02*
X108967000Y-87600000D01*
X106300000Y-87300000D02*
X108667000Y-87300000D01*
D44*
X112752000Y-94615000D02*
X112752000Y-94352000D01*
X109100000Y-90700000D02*
X109100000Y-89075222D01*
X112752000Y-94352000D02*
X109100000Y-90700000D01*
D42*
X98553000Y-86803000D02*
X100284000Y-85072000D01*
X98553000Y-87122000D02*
X98553000Y-86803000D01*
D44*
X101195000Y-94615000D02*
X101195000Y-92295000D01*
X98553000Y-89653000D02*
X98553000Y-87382801D01*
X101195000Y-92295000D02*
X98553000Y-89653000D01*
D39*
X116438000Y-57679000D02*
X118491000Y-57679000D01*
X115625599Y-64698599D02*
X115625599Y-58491401D01*
X115625599Y-58491401D02*
X116438000Y-57679000D01*
X117610000Y-66683000D02*
X115625599Y-64698599D01*
X117610000Y-67650000D02*
X117610000Y-66683000D01*
D41*
X126640000Y-57679000D02*
X127000000Y-58039000D01*
X118491000Y-57679000D02*
X126640000Y-57679000D01*
D38*
X56500000Y-62125000D02*
X62500000Y-62125000D01*
X62500000Y-62125000D02*
X62500000Y-60250000D01*
X62500000Y-60250000D02*
X64000000Y-58750000D01*
X64000000Y-58750000D02*
X64000000Y-57500000D01*
X64235000Y-57265000D02*
X65250000Y-57265000D01*
X64000000Y-57500000D02*
X64235000Y-57265000D01*
X68000000Y-52500000D02*
X66250000Y-52500000D01*
X66250000Y-52500000D02*
X65250000Y-53500000D01*
X65250000Y-53500000D02*
X65250000Y-57265000D01*
D39*
X82686000Y-59817000D02*
X78717000Y-59817000D01*
X78000000Y-59100000D02*
X77600000Y-59100000D01*
X78717000Y-59817000D02*
X78000000Y-59100000D01*
X69000000Y-51500000D02*
X68000000Y-52500000D01*
X72400000Y-51500000D02*
X69000000Y-51500000D01*
X74200000Y-53300000D02*
X72400000Y-51500000D01*
X74200000Y-56500000D02*
X74200000Y-53300000D01*
X74718990Y-57018990D02*
X74200000Y-56500000D01*
X76357819Y-57018990D02*
X74718990Y-57018990D01*
X77600000Y-58261172D02*
X76357819Y-57018990D01*
X77600000Y-59100000D02*
X77600000Y-58261172D01*
D43*
X68950000Y-55535000D02*
X69415000Y-56000000D01*
X68950000Y-54500000D02*
X68950000Y-55535000D01*
X69415000Y-58905000D02*
X69395000Y-58925000D01*
X69415000Y-56000000D02*
X69415000Y-58905000D01*
X71915000Y-56000000D02*
X71900000Y-56000000D01*
X70697092Y-57000000D02*
X70000000Y-57000000D01*
X71697092Y-56000000D02*
X70697092Y-57000000D01*
X71900000Y-56000000D02*
X71697092Y-56000000D01*
X68700000Y-57000000D02*
X67000000Y-55300000D01*
X67000000Y-54550000D02*
X67050000Y-54500000D01*
X67000000Y-55300000D02*
X67000000Y-54550000D01*
D39*
X101200000Y-75100000D02*
X101200000Y-74200000D01*
X100787000Y-73787000D02*
X99686000Y-73787000D01*
X101200000Y-74200000D02*
X100787000Y-73787000D01*
X79900000Y-64932806D02*
X79900000Y-72200000D01*
X78667194Y-63700000D02*
X79900000Y-64932806D01*
X77500000Y-63700000D02*
X78667194Y-63700000D01*
X76800000Y-58000000D02*
X76800000Y-63000000D01*
X76200000Y-57400000D02*
X76800000Y-58000000D01*
X76800000Y-63000000D02*
X77500000Y-63700000D01*
X74500000Y-57400000D02*
X76200000Y-57400000D01*
X73800000Y-56700000D02*
X74500000Y-57400000D01*
X72600000Y-52500000D02*
X73800000Y-53700000D01*
X73800000Y-53700000D02*
X73800000Y-56700000D01*
X71700000Y-52500000D02*
X72600000Y-52500000D01*
D43*
X72885000Y-56000000D02*
X72885000Y-56515000D01*
X72885000Y-56515000D02*
X72200000Y-57200000D01*
X72200000Y-57200000D02*
X71000000Y-57200000D01*
X70665000Y-57535000D02*
X70665000Y-58925000D01*
X71000000Y-57200000D02*
X70665000Y-57535000D01*
X72885000Y-54735000D02*
X72650000Y-54500000D01*
X72885000Y-56000000D02*
X72885000Y-54735000D01*
X70750000Y-55635000D02*
X70385000Y-56000000D01*
X70750000Y-54500000D02*
X70750000Y-55635000D01*
D39*
X101854000Y-62484000D02*
X99813000Y-62484000D01*
X99813000Y-62484000D02*
X99686000Y-62357000D01*
X68100000Y-63850000D02*
X68125000Y-63875000D01*
X68100000Y-62000000D02*
X68100000Y-63850000D01*
X69500000Y-63770000D02*
X69395000Y-63875000D01*
X69500000Y-62000000D02*
X69500000Y-63770000D01*
X102700000Y-61285000D02*
X102885000Y-61100000D01*
X102700000Y-62400000D02*
X102700000Y-61285000D01*
D38*
X112031500Y-79314000D02*
X112981500Y-80264000D01*
X111209000Y-79314000D02*
X112031500Y-79314000D01*
X114856500Y-80269500D02*
X116713000Y-82126000D01*
X114856500Y-80264000D02*
X114856500Y-80269500D01*
X114856500Y-80893500D02*
X113792000Y-81958000D01*
X114856500Y-80264000D02*
X114856500Y-80893500D01*
X74260000Y-75877500D02*
X74387500Y-75750000D01*
X74260000Y-77600000D02*
X74260000Y-75877500D01*
D42*
X76200000Y-75750000D02*
X76250000Y-75800000D01*
X74387500Y-75750000D02*
X76200000Y-75750000D01*
X74387500Y-73312500D02*
X74600000Y-73100000D01*
X74387500Y-75750000D02*
X74387500Y-73312500D01*
D38*
X71640000Y-77600000D02*
X71640000Y-76922500D01*
X71640000Y-76922500D02*
X72812500Y-75750000D01*
X73815000Y-79945000D02*
X74260000Y-79500000D01*
X73815000Y-80950000D02*
X73815000Y-79945000D01*
D39*
X116797000Y-84775000D02*
X115316000Y-86256000D01*
X118253000Y-84775000D02*
X116797000Y-84775000D01*
X109778810Y-86664810D02*
X113868190Y-86664810D01*
X109093000Y-85979000D02*
X109778810Y-86664810D01*
X109093000Y-83312000D02*
X109093000Y-85979000D01*
X114277000Y-86256000D02*
X115316000Y-86256000D01*
X107696000Y-81915000D02*
X109093000Y-83312000D01*
X107696000Y-81534000D02*
X107696000Y-81915000D01*
X102616000Y-76454000D02*
X107696000Y-81534000D01*
X113868190Y-86664810D02*
X114277000Y-86256000D01*
X97282000Y-76454000D02*
X102616000Y-76454000D01*
X96901000Y-76073000D02*
X97282000Y-76454000D01*
X96901000Y-74787000D02*
X96901000Y-76073000D01*
D40*
X101898000Y-59817000D02*
X101915000Y-59800000D01*
X99686000Y-59817000D02*
X101898000Y-59817000D01*
X101862000Y-58547000D02*
X101915000Y-58600000D01*
X99686000Y-58547000D02*
X101862000Y-58547000D01*
D39*
X101902000Y-61087000D02*
X101915000Y-61100000D01*
X99686000Y-61087000D02*
X101902000Y-61087000D01*
X102512000Y-69977000D02*
X102893000Y-69596000D01*
X99686000Y-69977000D02*
X102512000Y-69977000D01*
X102362000Y-76962000D02*
X102910000Y-77510000D01*
X102910000Y-77510000D02*
X102910000Y-77900000D01*
X87503000Y-76962000D02*
X102362000Y-76962000D01*
X86741000Y-76200000D02*
X87503000Y-76962000D01*
X86741000Y-74787000D02*
X86741000Y-76200000D01*
X102910000Y-77900000D02*
X103400000Y-77900000D01*
X103400000Y-77900000D02*
X107300000Y-81800000D01*
X107300000Y-81800000D02*
X107300000Y-82057828D01*
X107300000Y-82057828D02*
X108711990Y-83469818D01*
X108711990Y-83469818D02*
X108711990Y-84988010D01*
X108400000Y-85300000D02*
X107250000Y-85300000D01*
X108711990Y-84988010D02*
X108400000Y-85300000D01*
X99439000Y-77470000D02*
X99820000Y-77851000D01*
X84201000Y-77470000D02*
X99439000Y-77470000D01*
X82686000Y-75955000D02*
X84201000Y-77470000D01*
X82686000Y-73787000D02*
X82686000Y-75955000D01*
X99820000Y-77851000D02*
X99820000Y-78320000D01*
X100612599Y-79277953D02*
X101022047Y-79687401D01*
X100612599Y-79112599D02*
X100612599Y-79277953D01*
X99820000Y-78320000D02*
X100612599Y-79112599D01*
X101022047Y-79687401D02*
X101812599Y-79687401D01*
X102600000Y-78900000D02*
X103861172Y-78900000D01*
X101812599Y-79687401D02*
X102600000Y-78900000D01*
X103861172Y-78900000D02*
X106918990Y-81957818D01*
X106918990Y-82215647D02*
X107800000Y-83096657D01*
X106918990Y-81957818D02*
X106918990Y-82215647D01*
X107800000Y-83096657D02*
X107800000Y-83900000D01*
X107800000Y-83900000D02*
X107300000Y-84400000D01*
X107300000Y-84400000D02*
X106600000Y-84400000D01*
X106600000Y-84400000D02*
X106300000Y-84700000D01*
X106300000Y-84700000D02*
X106300000Y-86000000D01*
X106300000Y-86000000D02*
X106000000Y-86300000D01*
X106000000Y-86300000D02*
X103500000Y-86300000D01*
X101234000Y-84034000D02*
X101234000Y-83072000D01*
X103500000Y-86300000D02*
X101234000Y-84034000D01*
X82686000Y-68707000D02*
X80657000Y-68707000D01*
X80657000Y-68707000D02*
X80650000Y-68700000D01*
X64900000Y-81400000D02*
X64900000Y-80785000D01*
X64700000Y-81600000D02*
X64900000Y-81400000D01*
X62400000Y-81600000D02*
X64700000Y-81600000D01*
X62200000Y-81800000D02*
X62400000Y-81600000D01*
X62200000Y-83700000D02*
X62200000Y-81800000D01*
X61129000Y-85580000D02*
X59500000Y-85580000D01*
X70175000Y-94626000D02*
X61129000Y-85580000D01*
X80687000Y-67437000D02*
X80650000Y-67400000D01*
X82686000Y-67437000D02*
X80687000Y-67437000D01*
X59500000Y-83040000D02*
X60860000Y-83040000D01*
X60860000Y-83040000D02*
X61600000Y-82300000D01*
X61600000Y-82300000D02*
X61600000Y-81400000D01*
X62215000Y-80785000D02*
X63700000Y-80785000D01*
X61600000Y-81400000D02*
X62215000Y-80785000D01*
X59640000Y-83040000D02*
X59500000Y-83040000D01*
X65700000Y-89100000D02*
X59640000Y-83040000D01*
X65700000Y-89200000D02*
X68000000Y-91500000D01*
X65700000Y-89100000D02*
X65700000Y-89200000D01*
X105029000Y-74803000D02*
X105664000Y-74803000D01*
X105664000Y-74803000D02*
X107442000Y-73025000D01*
X107442000Y-73025000D02*
X114808000Y-73025000D01*
X114808000Y-73025000D02*
X115951000Y-74168000D01*
X115951000Y-74168000D02*
X117602000Y-74168000D01*
X118110000Y-73660000D02*
X118110000Y-72050000D01*
X117602000Y-74168000D02*
X118110000Y-73660000D01*
X109179000Y-76327000D02*
X106553000Y-76327000D01*
X105029000Y-74018000D02*
X105410000Y-73637000D01*
X105029000Y-74803000D02*
X105029000Y-74018000D01*
X105100000Y-66434000D02*
X105100000Y-69000000D01*
X104833000Y-66167000D02*
X105100000Y-66434000D01*
X99686000Y-66167000D02*
X104833000Y-66167000D01*
D40*
X61545000Y-70448000D02*
X62948000Y-70448000D01*
D38*
X63252000Y-70448000D02*
X63800000Y-69900000D01*
X62948000Y-70448000D02*
X63252000Y-70448000D01*
X67200000Y-75650000D02*
X66885190Y-75335190D01*
X64500000Y-75500000D02*
X64664810Y-75335190D01*
X64500000Y-76275000D02*
X64500000Y-75500000D01*
X64664810Y-75335190D02*
X61545000Y-75335190D01*
X66885190Y-75335190D02*
X64664810Y-75335190D01*
X67200000Y-74550000D02*
X67500000Y-74250000D01*
X67200000Y-75650000D02*
X67200000Y-74550000D01*
X68265000Y-73485000D02*
X67500000Y-74250000D01*
X68750000Y-73485000D02*
X68265000Y-73485000D01*
D39*
X67600000Y-67238828D02*
X68638828Y-66200000D01*
X68638828Y-66200000D02*
X72300000Y-66200000D01*
X73205000Y-65295000D02*
X73205000Y-63875000D01*
X72300000Y-66200000D02*
X73205000Y-65295000D01*
X64648000Y-72148000D02*
X64700000Y-72200000D01*
X61545000Y-72148000D02*
X64648000Y-72148000D01*
X64700000Y-73600000D02*
X64100000Y-73600000D01*
X63648000Y-73148000D02*
X61545000Y-73148000D01*
X64100000Y-73600000D02*
X63648000Y-73148000D01*
X67600000Y-67238828D02*
X66269414Y-68569414D01*
X66269414Y-68569414D02*
X66081010Y-68757818D01*
X66081010Y-71781010D02*
X66400000Y-72100000D01*
X66081010Y-68757818D02*
X66081010Y-71781010D01*
X64200000Y-72900000D02*
X63948000Y-72648000D01*
X65700000Y-72400000D02*
X65200000Y-72900000D01*
X63948000Y-72648000D02*
X61545000Y-72648000D01*
X65700000Y-68600000D02*
X65700000Y-72400000D01*
X68500000Y-65800000D02*
X65700000Y-68600000D01*
X65200000Y-72900000D02*
X64200000Y-72900000D01*
X71300000Y-65800000D02*
X68500000Y-65800000D01*
X71935000Y-65165000D02*
X71300000Y-65800000D01*
X71935000Y-63875000D02*
X71935000Y-65165000D01*
X61545000Y-73648000D02*
X63348000Y-73648000D01*
X63348000Y-73648000D02*
X64000000Y-74300000D01*
X64000000Y-74300000D02*
X65500000Y-74300000D01*
X65700000Y-74100000D02*
X65700000Y-72400000D01*
X65500000Y-74300000D02*
X65700000Y-74100000D01*
X64740000Y-68240000D02*
X64740000Y-67250000D01*
X65200000Y-70400000D02*
X65200000Y-68700000D01*
X65095401Y-70504599D02*
X65200000Y-70400000D01*
X65200000Y-68700000D02*
X64740000Y-68240000D01*
X65095401Y-70521793D02*
X65095401Y-70504599D01*
X63969194Y-71648000D02*
X65095401Y-70521793D01*
X61545000Y-71648000D02*
X63969194Y-71648000D01*
X64740000Y-66510000D02*
X65000000Y-66250000D01*
X64740000Y-67250000D02*
X64740000Y-66510000D01*
X79413000Y-61087000D02*
X82686000Y-61087000D01*
X77600000Y-62900000D02*
X79413000Y-61087000D01*
X66800000Y-71300000D02*
X66800000Y-69000000D01*
X65657819Y-74681010D02*
X67100000Y-73238829D01*
X61578010Y-74681010D02*
X65657819Y-74681010D01*
X61545000Y-74648000D02*
X61578010Y-74681010D01*
X67100000Y-71600000D02*
X66800000Y-71300000D01*
X67100000Y-73238829D02*
X67100000Y-71600000D01*
X66810000Y-69000000D02*
X67600000Y-69790000D01*
X66800000Y-69000000D02*
X66810000Y-69000000D01*
X79043000Y-62357000D02*
X82686000Y-62357000D01*
X78500000Y-62900000D02*
X79043000Y-62357000D01*
D42*
X120634000Y-86106000D02*
X120253000Y-85725000D01*
X127000000Y-86106000D02*
X120634000Y-86106000D01*
X88950000Y-86850000D02*
X90600000Y-85200000D01*
X88950000Y-87400000D02*
X88950000Y-86850000D01*
D44*
X89382801Y-89082801D02*
X89382801Y-87400000D01*
X89600000Y-89300000D02*
X89382801Y-89082801D01*
X89600000Y-94600000D02*
X89600000Y-89300000D01*
D42*
X77250000Y-86750000D02*
X78800000Y-85200000D01*
X77250000Y-87400000D02*
X77250000Y-86750000D01*
D44*
X78000000Y-94600000D02*
X78000000Y-91700000D01*
X77566241Y-88782801D02*
X77832190Y-88516852D01*
X77566241Y-91266241D02*
X77566241Y-88782801D01*
X78000000Y-91700000D02*
X77566241Y-91266241D01*
D39*
X97290000Y-77900000D02*
X97590000Y-78200000D01*
X84092172Y-77900000D02*
X97290000Y-77900000D01*
X83792172Y-77600000D02*
X84092172Y-77900000D01*
X81000000Y-75000000D02*
X83600000Y-77600000D01*
X83600000Y-77600000D02*
X83792172Y-77600000D01*
X81000000Y-71729800D02*
X81000000Y-75000000D01*
X81482800Y-71247000D02*
X81000000Y-71729800D01*
X82686000Y-71247000D02*
X81482800Y-71247000D01*
X97590000Y-78200000D02*
X97590000Y-78490000D01*
X97590000Y-78490000D02*
X98100000Y-79000000D01*
X98100000Y-79000000D02*
X98742486Y-79000000D01*
X99121887Y-79379401D02*
X99779401Y-79379401D01*
X98742486Y-79000000D02*
X99121887Y-79379401D01*
X99900000Y-79500000D02*
X100295817Y-79500000D01*
X99779401Y-79379401D02*
X99900000Y-79500000D01*
X101970418Y-80068411D02*
X102500000Y-79538828D01*
X100864228Y-80068411D02*
X101970418Y-80068411D01*
X100295817Y-79500000D02*
X100864228Y-80068411D01*
X102500000Y-79538828D02*
X102757818Y-79281010D01*
X102757818Y-79281010D02*
X103703354Y-79281010D01*
X106537980Y-82437980D02*
X107418990Y-83318990D01*
X106537980Y-82115636D02*
X106537980Y-82437980D01*
X103703354Y-79281010D02*
X106537980Y-82115636D01*
X107418990Y-83461614D02*
X107100602Y-83780002D01*
X107418990Y-83318990D02*
X107418990Y-83461614D01*
X91600000Y-83250000D02*
X91550000Y-83200000D01*
X91600000Y-84000000D02*
X91600000Y-83250000D01*
X80610000Y-77610000D02*
X81400000Y-77610000D01*
X80500000Y-77500000D02*
X80610000Y-77610000D01*
X80500000Y-70959800D02*
X80500000Y-77500000D01*
X81482800Y-69977000D02*
X80500000Y-70959800D01*
X82686000Y-69977000D02*
X81482800Y-69977000D01*
X76700000Y-83900000D02*
X76700000Y-81300000D01*
X76700000Y-81300000D02*
X80500000Y-77500000D01*
X77000000Y-84200000D02*
X76700000Y-83900000D01*
X79150000Y-84200000D02*
X77000000Y-84200000D01*
X79750000Y-83600000D02*
X79150000Y-84200000D01*
X79750000Y-83200000D02*
X79750000Y-83600000D01*
X69800000Y-79500000D02*
X71640000Y-79500000D01*
X70450000Y-68635000D02*
X70450000Y-74050000D01*
X70450000Y-74050000D02*
X68700000Y-75800000D01*
X68700000Y-75800000D02*
X68700000Y-78500000D01*
X69700000Y-79500000D02*
X69800000Y-79500000D01*
X68700000Y-78500000D02*
X69700000Y-79500000D01*
X71390000Y-79750000D02*
X71640000Y-79500000D01*
X71390000Y-80950000D02*
X71390000Y-79750000D01*
D38*
X75712500Y-78550000D02*
X76162500Y-78100000D01*
X74260000Y-78550000D02*
X75712500Y-78550000D01*
X74785000Y-80950000D02*
X75550000Y-80950000D01*
X76162500Y-80337500D02*
X76162500Y-78100000D01*
X75550000Y-80950000D02*
X76162500Y-80337500D01*
X67200000Y-78950000D02*
X67650000Y-78950000D01*
X67650000Y-78950000D02*
X70800000Y-82100000D01*
X70800000Y-82100000D02*
X74500000Y-82100000D01*
X74785000Y-81815000D02*
X74785000Y-80950000D01*
X74500000Y-82100000D02*
X74785000Y-81815000D01*
X75300000Y-82900000D02*
X74500000Y-82100000D01*
X75300000Y-82950000D02*
X75300000Y-82900000D01*
D40*
X101788000Y-63627000D02*
X101815000Y-63600000D01*
X99686000Y-63627000D02*
X101788000Y-63627000D01*
D39*
X95631000Y-72931000D02*
X95600000Y-72900000D01*
X95631000Y-74787000D02*
X95631000Y-72931000D01*
X83983000Y-72517000D02*
X84100000Y-72400000D01*
X82686000Y-72517000D02*
X83983000Y-72517000D01*
X81267000Y-66167000D02*
X80900000Y-65800000D01*
X82686000Y-66167000D02*
X81267000Y-66167000D01*
X81297000Y-64897000D02*
X80900000Y-64500000D01*
X82686000Y-64897000D02*
X81297000Y-64897000D01*
X81127000Y-63627000D02*
X80900000Y-63400000D01*
X82686000Y-63627000D02*
X81127000Y-63627000D01*
X114943000Y-75827000D02*
X115443000Y-76327000D01*
X113579000Y-75827000D02*
X114943000Y-75827000D01*
X115443000Y-76327000D02*
X113579000Y-76327000D01*
D38*
X118872000Y-79273500D02*
X117602000Y-78003500D01*
X118872000Y-80007000D02*
X118872000Y-79273500D01*
X118791000Y-79926000D02*
X118872000Y-80007000D01*
X116713000Y-79926000D02*
X118791000Y-79926000D01*
D39*
X115443000Y-76327000D02*
X116127000Y-76327000D01*
X116127000Y-76327000D02*
X116700000Y-76900000D01*
X116700000Y-76900000D02*
X116700000Y-77700000D01*
X117003500Y-78003500D02*
X117602000Y-78003500D01*
X116700000Y-77700000D02*
X117003500Y-78003500D01*
X113729000Y-75177000D02*
X114928000Y-75177000D01*
X113579000Y-75327000D02*
X113729000Y-75177000D01*
X114928000Y-75177000D02*
X115443000Y-75692000D01*
X116865500Y-75692000D02*
X117602000Y-76428500D01*
X115443000Y-75692000D02*
X116865500Y-75692000D01*
D42*
X117602000Y-76428500D02*
X118846500Y-76428500D01*
X123444000Y-81026000D02*
X127000000Y-81026000D01*
X118846500Y-76428500D02*
X123444000Y-81026000D01*
D45*
X82962311Y-78177969D02*
X82989230Y-78210770D01*
X83120121Y-78318189D01*
X83269454Y-78398009D01*
X83420276Y-78443760D01*
X83454478Y-78477963D01*
X83481402Y-78510770D01*
X83612293Y-78618189D01*
X83761626Y-78698009D01*
X83923661Y-78747162D01*
X84049945Y-78759600D01*
X84049947Y-78759600D01*
X84092171Y-78763759D01*
X84134395Y-78759600D01*
X96643404Y-78759600D01*
X96709449Y-78883161D01*
X96820961Y-79019039D01*
X96956839Y-79130551D01*
X97081560Y-79197216D01*
X97462306Y-79577963D01*
X97489230Y-79610770D01*
X97620121Y-79718189D01*
X97769454Y-79798009D01*
X97931489Y-79847162D01*
X98020329Y-79855912D01*
X98100000Y-79863759D01*
X98142226Y-79859600D01*
X98386429Y-79859600D01*
X98484193Y-79957364D01*
X98511117Y-79990171D01*
X98642008Y-80097590D01*
X98791341Y-80177410D01*
X98953376Y-80226563D01*
X99079660Y-80239001D01*
X99079662Y-80239001D01*
X99121886Y-80243160D01*
X99164110Y-80239001D01*
X99459058Y-80239001D01*
X99569454Y-80298009D01*
X99731489Y-80347162D01*
X99857773Y-80359600D01*
X99857774Y-80359600D01*
X99900000Y-80363759D01*
X99939982Y-80359821D01*
X100226534Y-80646374D01*
X100253458Y-80679181D01*
X100366849Y-80772238D01*
X100384349Y-80786600D01*
X100533682Y-80866420D01*
X100695717Y-80915573D01*
X100864228Y-80932170D01*
X100906454Y-80928011D01*
X101928192Y-80928011D01*
X101970418Y-80932170D01*
X102012642Y-80928011D01*
X102012645Y-80928011D01*
X102138929Y-80915573D01*
X102300964Y-80866420D01*
X102450297Y-80786600D01*
X102581188Y-80679181D01*
X102608112Y-80646374D01*
X103113875Y-80140610D01*
X103347298Y-80140610D01*
X105677450Y-82470764D01*
X105678380Y-82480206D01*
X105678380Y-82480207D01*
X105690818Y-82606491D01*
X105739971Y-82768526D01*
X105819791Y-82917859D01*
X105927210Y-83048750D01*
X105960020Y-83075676D01*
X106163087Y-83278743D01*
X106163015Y-83278851D01*
X106083261Y-83471395D01*
X106042602Y-83675798D01*
X106042602Y-83745429D01*
X105989230Y-83789230D01*
X105962306Y-83822037D01*
X105722041Y-84062303D01*
X105689230Y-84089230D01*
X105581811Y-84220122D01*
X105501991Y-84369455D01*
X105459924Y-84508132D01*
X105452838Y-84531490D01*
X105436241Y-84700000D01*
X105440400Y-84742227D01*
X105440401Y-85440400D01*
X103856058Y-85440400D01*
X102299876Y-83884220D01*
X102337689Y-83813477D01*
X102381032Y-83670594D01*
X102395667Y-83522000D01*
X102395667Y-82622000D01*
X102381032Y-82473406D01*
X102337689Y-82330523D01*
X102267303Y-82198840D01*
X102172580Y-82083420D01*
X102057160Y-81988697D01*
X101925477Y-81918311D01*
X101782594Y-81874968D01*
X101634000Y-81860333D01*
X100834000Y-81860333D01*
X100685406Y-81874968D01*
X100542523Y-81918311D01*
X100410840Y-81988697D01*
X100295420Y-82083420D01*
X100200697Y-82198840D01*
X100130311Y-82330523D01*
X100086968Y-82473406D01*
X100072333Y-82622000D01*
X100072333Y-83522000D01*
X100086968Y-83670594D01*
X100093175Y-83691055D01*
X100010924Y-83699156D01*
X99748342Y-83778809D01*
X99506346Y-83908159D01*
X99347388Y-84038613D01*
X98667781Y-84718221D01*
X98553000Y-84706916D01*
X98030962Y-84758332D01*
X97528984Y-84910606D01*
X97066359Y-85157884D01*
X96660865Y-85490665D01*
X96328083Y-85896159D01*
X96080805Y-86358784D01*
X95928531Y-86860762D01*
X95890000Y-87251976D01*
X95890000Y-88319775D01*
X95140972Y-88320973D01*
X93436420Y-86616421D01*
X93403689Y-86508523D01*
X93333303Y-86376840D01*
X93238580Y-86261420D01*
X93123160Y-86166697D01*
X92991477Y-86096311D01*
X92848594Y-86052968D01*
X92700000Y-86038333D01*
X92559920Y-86038333D01*
X92523075Y-86027156D01*
X92250000Y-86000260D01*
X91976925Y-86027156D01*
X91940080Y-86038333D01*
X91800000Y-86038333D01*
X91706483Y-86047543D01*
X91763840Y-85977654D01*
X91893190Y-85735658D01*
X91972844Y-85473076D01*
X91999740Y-85200001D01*
X91978882Y-84988232D01*
X92101151Y-84937587D01*
X92274436Y-84821802D01*
X92421802Y-84674436D01*
X92537587Y-84501151D01*
X92617341Y-84308607D01*
X92658000Y-84104204D01*
X92658000Y-83927266D01*
X92697032Y-83798594D01*
X92711667Y-83650000D01*
X92711667Y-82750000D01*
X92697032Y-82601406D01*
X92653689Y-82458523D01*
X92583303Y-82326840D01*
X92488580Y-82211420D01*
X92373160Y-82116697D01*
X92241477Y-82046311D01*
X92098594Y-82002968D01*
X91950000Y-81988333D01*
X91150000Y-81988333D01*
X91001406Y-82002968D01*
X90858523Y-82046311D01*
X90726840Y-82116697D01*
X90611420Y-82211420D01*
X90516697Y-82326840D01*
X90446311Y-82458523D01*
X90402968Y-82601406D01*
X90388333Y-82750000D01*
X90388333Y-83650000D01*
X90402968Y-83798594D01*
X90409175Y-83819055D01*
X90326924Y-83827156D01*
X90064342Y-83906810D01*
X89822346Y-84036160D01*
X89663388Y-84166613D01*
X89075633Y-84754368D01*
X88860763Y-84775531D01*
X88358785Y-84927805D01*
X87896160Y-85175083D01*
X87490666Y-85507864D01*
X87157884Y-85913358D01*
X86910606Y-86375983D01*
X86758332Y-86877961D01*
X86719801Y-87269175D01*
X86719801Y-88334447D01*
X83459663Y-88339664D01*
X81736420Y-86616421D01*
X81703689Y-86508523D01*
X81633303Y-86376840D01*
X81538580Y-86261420D01*
X81423160Y-86166697D01*
X81291477Y-86096311D01*
X81148594Y-86052968D01*
X81000000Y-86038333D01*
X80859920Y-86038333D01*
X80823075Y-86027156D01*
X80550000Y-86000260D01*
X80276925Y-86027156D01*
X80240080Y-86038333D01*
X80100000Y-86038333D01*
X79951406Y-86052968D01*
X79885666Y-86072910D01*
X79963841Y-85977654D01*
X80093190Y-85735658D01*
X80172844Y-85473076D01*
X80199740Y-85200001D01*
X80172844Y-84926925D01*
X80093190Y-84664343D01*
X80026355Y-84539302D01*
X80154426Y-84411231D01*
X80298594Y-84397032D01*
X80441477Y-84353689D01*
X80573160Y-84283303D01*
X80688580Y-84188580D01*
X80783303Y-84073160D01*
X80853689Y-83941477D01*
X80897032Y-83798594D01*
X80911667Y-83650000D01*
X80911667Y-82750000D01*
X80897032Y-82601406D01*
X80853689Y-82458523D01*
X80783303Y-82326840D01*
X80688580Y-82211420D01*
X80573160Y-82116697D01*
X80441477Y-82046311D01*
X80298594Y-82002968D01*
X80150000Y-81988333D01*
X79350000Y-81988333D01*
X79201406Y-82002968D01*
X79058523Y-82046311D01*
X78926840Y-82116697D01*
X78811420Y-82211420D01*
X78716697Y-82326840D01*
X78646311Y-82458523D01*
X78602968Y-82601406D01*
X78588333Y-82750000D01*
X78588333Y-83340400D01*
X77559600Y-83340400D01*
X77559600Y-81656056D01*
X80722227Y-78493431D01*
X80871860Y-78573412D01*
X81040069Y-78624438D01*
X81215000Y-78641667D01*
X81585000Y-78641667D01*
X81759931Y-78624438D01*
X81928140Y-78573412D01*
X82083161Y-78490551D01*
X82219039Y-78379039D01*
X82330551Y-78243161D01*
X82413412Y-78088140D01*
X82464438Y-77919931D01*
X82481667Y-77745000D01*
X82481667Y-77697325D01*
X82962311Y-78177969D01*
G04 #@! TA.AperFunction,Conductor*
D46*
G36*
X82962311Y-78177969D02*
G01*
X82989230Y-78210770D01*
X83120121Y-78318189D01*
X83269454Y-78398009D01*
X83420276Y-78443760D01*
X83454478Y-78477963D01*
X83481402Y-78510770D01*
X83612293Y-78618189D01*
X83761626Y-78698009D01*
X83923661Y-78747162D01*
X84049945Y-78759600D01*
X84049947Y-78759600D01*
X84092171Y-78763759D01*
X84134395Y-78759600D01*
X96643404Y-78759600D01*
X96709449Y-78883161D01*
X96820961Y-79019039D01*
X96956839Y-79130551D01*
X97081560Y-79197216D01*
X97462306Y-79577963D01*
X97489230Y-79610770D01*
X97620121Y-79718189D01*
X97769454Y-79798009D01*
X97931489Y-79847162D01*
X98020329Y-79855912D01*
X98100000Y-79863759D01*
X98142226Y-79859600D01*
X98386429Y-79859600D01*
X98484193Y-79957364D01*
X98511117Y-79990171D01*
X98642008Y-80097590D01*
X98791341Y-80177410D01*
X98953376Y-80226563D01*
X99079660Y-80239001D01*
X99079662Y-80239001D01*
X99121886Y-80243160D01*
X99164110Y-80239001D01*
X99459058Y-80239001D01*
X99569454Y-80298009D01*
X99731489Y-80347162D01*
X99857773Y-80359600D01*
X99857774Y-80359600D01*
X99900000Y-80363759D01*
X99939982Y-80359821D01*
X100226534Y-80646374D01*
X100253458Y-80679181D01*
X100366849Y-80772238D01*
X100384349Y-80786600D01*
X100533682Y-80866420D01*
X100695717Y-80915573D01*
X100864228Y-80932170D01*
X100906454Y-80928011D01*
X101928192Y-80928011D01*
X101970418Y-80932170D01*
X102012642Y-80928011D01*
X102012645Y-80928011D01*
X102138929Y-80915573D01*
X102300964Y-80866420D01*
X102450297Y-80786600D01*
X102581188Y-80679181D01*
X102608112Y-80646374D01*
X103113875Y-80140610D01*
X103347298Y-80140610D01*
X105677450Y-82470764D01*
X105678380Y-82480206D01*
X105678380Y-82480207D01*
X105690818Y-82606491D01*
X105739971Y-82768526D01*
X105819791Y-82917859D01*
X105927210Y-83048750D01*
X105960020Y-83075676D01*
X106163087Y-83278743D01*
X106163015Y-83278851D01*
X106083261Y-83471395D01*
X106042602Y-83675798D01*
X106042602Y-83745429D01*
X105989230Y-83789230D01*
X105962306Y-83822037D01*
X105722041Y-84062303D01*
X105689230Y-84089230D01*
X105581811Y-84220122D01*
X105501991Y-84369455D01*
X105459924Y-84508132D01*
X105452838Y-84531490D01*
X105436241Y-84700000D01*
X105440400Y-84742227D01*
X105440401Y-85440400D01*
X103856058Y-85440400D01*
X102299876Y-83884220D01*
X102337689Y-83813477D01*
X102381032Y-83670594D01*
X102395667Y-83522000D01*
X102395667Y-82622000D01*
X102381032Y-82473406D01*
X102337689Y-82330523D01*
X102267303Y-82198840D01*
X102172580Y-82083420D01*
X102057160Y-81988697D01*
X101925477Y-81918311D01*
X101782594Y-81874968D01*
X101634000Y-81860333D01*
X100834000Y-81860333D01*
X100685406Y-81874968D01*
X100542523Y-81918311D01*
X100410840Y-81988697D01*
X100295420Y-82083420D01*
X100200697Y-82198840D01*
X100130311Y-82330523D01*
X100086968Y-82473406D01*
X100072333Y-82622000D01*
X100072333Y-83522000D01*
X100086968Y-83670594D01*
X100093175Y-83691055D01*
X100010924Y-83699156D01*
X99748342Y-83778809D01*
X99506346Y-83908159D01*
X99347388Y-84038613D01*
X98667781Y-84718221D01*
X98553000Y-84706916D01*
X98030962Y-84758332D01*
X97528984Y-84910606D01*
X97066359Y-85157884D01*
X96660865Y-85490665D01*
X96328083Y-85896159D01*
X96080805Y-86358784D01*
X95928531Y-86860762D01*
X95890000Y-87251976D01*
X95890000Y-88319775D01*
X95140972Y-88320973D01*
X93436420Y-86616421D01*
X93403689Y-86508523D01*
X93333303Y-86376840D01*
X93238580Y-86261420D01*
X93123160Y-86166697D01*
X92991477Y-86096311D01*
X92848594Y-86052968D01*
X92700000Y-86038333D01*
X92559920Y-86038333D01*
X92523075Y-86027156D01*
X92250000Y-86000260D01*
X91976925Y-86027156D01*
X91940080Y-86038333D01*
X91800000Y-86038333D01*
X91706483Y-86047543D01*
X91763840Y-85977654D01*
X91893190Y-85735658D01*
X91972844Y-85473076D01*
X91999740Y-85200001D01*
X91978882Y-84988232D01*
X92101151Y-84937587D01*
X92274436Y-84821802D01*
X92421802Y-84674436D01*
X92537587Y-84501151D01*
X92617341Y-84308607D01*
X92658000Y-84104204D01*
X92658000Y-83927266D01*
X92697032Y-83798594D01*
X92711667Y-83650000D01*
X92711667Y-82750000D01*
X92697032Y-82601406D01*
X92653689Y-82458523D01*
X92583303Y-82326840D01*
X92488580Y-82211420D01*
X92373160Y-82116697D01*
X92241477Y-82046311D01*
X92098594Y-82002968D01*
X91950000Y-81988333D01*
X91150000Y-81988333D01*
X91001406Y-82002968D01*
X90858523Y-82046311D01*
X90726840Y-82116697D01*
X90611420Y-82211420D01*
X90516697Y-82326840D01*
X90446311Y-82458523D01*
X90402968Y-82601406D01*
X90388333Y-82750000D01*
X90388333Y-83650000D01*
X90402968Y-83798594D01*
X90409175Y-83819055D01*
X90326924Y-83827156D01*
X90064342Y-83906810D01*
X89822346Y-84036160D01*
X89663388Y-84166613D01*
X89075633Y-84754368D01*
X88860763Y-84775531D01*
X88358785Y-84927805D01*
X87896160Y-85175083D01*
X87490666Y-85507864D01*
X87157884Y-85913358D01*
X86910606Y-86375983D01*
X86758332Y-86877961D01*
X86719801Y-87269175D01*
X86719801Y-88334447D01*
X83459663Y-88339664D01*
X81736420Y-86616421D01*
X81703689Y-86508523D01*
X81633303Y-86376840D01*
X81538580Y-86261420D01*
X81423160Y-86166697D01*
X81291477Y-86096311D01*
X81148594Y-86052968D01*
X81000000Y-86038333D01*
X80859920Y-86038333D01*
X80823075Y-86027156D01*
X80550000Y-86000260D01*
X80276925Y-86027156D01*
X80240080Y-86038333D01*
X80100000Y-86038333D01*
X79951406Y-86052968D01*
X79885666Y-86072910D01*
X79963841Y-85977654D01*
X80093190Y-85735658D01*
X80172844Y-85473076D01*
X80199740Y-85200001D01*
X80172844Y-84926925D01*
X80093190Y-84664343D01*
X80026355Y-84539302D01*
X80154426Y-84411231D01*
X80298594Y-84397032D01*
X80441477Y-84353689D01*
X80573160Y-84283303D01*
X80688580Y-84188580D01*
X80783303Y-84073160D01*
X80853689Y-83941477D01*
X80897032Y-83798594D01*
X80911667Y-83650000D01*
X80911667Y-82750000D01*
X80897032Y-82601406D01*
X80853689Y-82458523D01*
X80783303Y-82326840D01*
X80688580Y-82211420D01*
X80573160Y-82116697D01*
X80441477Y-82046311D01*
X80298594Y-82002968D01*
X80150000Y-81988333D01*
X79350000Y-81988333D01*
X79201406Y-82002968D01*
X79058523Y-82046311D01*
X78926840Y-82116697D01*
X78811420Y-82211420D01*
X78716697Y-82326840D01*
X78646311Y-82458523D01*
X78602968Y-82601406D01*
X78588333Y-82750000D01*
X78588333Y-83340400D01*
X77559600Y-83340400D01*
X77559600Y-81656056D01*
X80722227Y-78493431D01*
X80871860Y-78573412D01*
X81040069Y-78624438D01*
X81215000Y-78641667D01*
X81585000Y-78641667D01*
X81759931Y-78624438D01*
X81928140Y-78573412D01*
X82083161Y-78490551D01*
X82219039Y-78379039D01*
X82330551Y-78243161D01*
X82413412Y-78088140D01*
X82464438Y-77919931D01*
X82481667Y-77745000D01*
X82481667Y-77697325D01*
X82962311Y-78177969D01*
G37*
G04 #@! TD.AperFunction*
D45*
X101878333Y-78085000D02*
X101895562Y-78259931D01*
X101925551Y-78358791D01*
X101456542Y-78827801D01*
X101424486Y-78827801D01*
X101410608Y-78782053D01*
X101330788Y-78632720D01*
X101223369Y-78501829D01*
X101190569Y-78474911D01*
X100842700Y-78127043D01*
X100851667Y-78036000D01*
X100851667Y-77821600D01*
X101878333Y-77821600D01*
X101878333Y-78085000D01*
G04 #@! TA.AperFunction,Conductor*
D46*
G36*
X101878333Y-78085000D02*
G01*
X101895562Y-78259931D01*
X101925551Y-78358791D01*
X101456542Y-78827801D01*
X101424486Y-78827801D01*
X101410608Y-78782053D01*
X101330788Y-78632720D01*
X101223369Y-78501829D01*
X101190569Y-78474911D01*
X100842700Y-78127043D01*
X100851667Y-78036000D01*
X100851667Y-77821600D01*
X101878333Y-77821600D01*
X101878333Y-78085000D01*
G37*
G04 #@! TD.AperFunction*
D47*
X129113000Y-51227000D02*
X129133000Y-51227000D01*
X129133000Y-51973000D01*
X129113000Y-51973000D01*
X129113000Y-52872718D01*
X129333265Y-52961345D01*
X129542328Y-52849615D01*
X129770699Y-52669078D01*
X129959461Y-52447457D01*
X130005342Y-52365269D01*
X130126525Y-52546632D01*
X130333368Y-52753475D01*
X130576589Y-52915990D01*
X130846842Y-53027932D01*
X131133740Y-53085000D01*
X131426260Y-53085000D01*
X131713158Y-53027932D01*
X131983411Y-52915990D01*
X132226632Y-52753475D01*
X132373000Y-52607107D01*
X132373000Y-91973000D01*
X127700000Y-91973000D01*
X127675224Y-91975440D01*
X127651399Y-91982667D01*
X127629443Y-91994403D01*
X127610197Y-92010197D01*
X127599884Y-92021861D01*
X124399884Y-96121861D01*
X124386563Y-96142894D01*
X124377602Y-96166121D01*
X124373345Y-96190651D01*
X124373044Y-96203341D01*
X124469614Y-99873000D01*
X69127000Y-99873000D01*
X69127000Y-96012416D01*
X69353169Y-96163537D01*
X69668919Y-96294325D01*
X70004117Y-96361000D01*
X70345883Y-96361000D01*
X70681081Y-96294325D01*
X70996831Y-96163537D01*
X71280998Y-95973663D01*
X71445000Y-95809661D01*
X71609002Y-95973663D01*
X71893169Y-96163537D01*
X72208919Y-96294325D01*
X72544117Y-96361000D01*
X72885883Y-96361000D01*
X73221081Y-96294325D01*
X73536831Y-96163537D01*
X73820998Y-95973663D01*
X74062663Y-95731998D01*
X74252537Y-95447831D01*
X74383325Y-95132081D01*
X74450000Y-94796883D01*
X74450000Y-94455117D01*
X74383325Y-94119919D01*
X74252537Y-93804169D01*
X74062663Y-93520002D01*
X73820998Y-93278337D01*
X73536831Y-93088463D01*
X73221081Y-92957675D01*
X72885883Y-92891000D01*
X72544117Y-92891000D01*
X72208919Y-92957675D01*
X71893169Y-93088463D01*
X71609002Y-93278337D01*
X71445000Y-93442339D01*
X71280998Y-93278337D01*
X70996831Y-93088463D01*
X70681081Y-92957675D01*
X70345883Y-92891000D01*
X70004117Y-92891000D01*
X69668919Y-92957675D01*
X69583689Y-92992979D01*
X69127000Y-92536290D01*
X69127000Y-86975053D01*
X69169463Y-87054494D01*
X69248815Y-87151185D01*
X69345506Y-87230537D01*
X69455820Y-87289502D01*
X69575518Y-87325812D01*
X69700000Y-87338072D01*
X69968250Y-87335000D01*
X70127000Y-87176250D01*
X70127000Y-86273000D01*
X70873000Y-86273000D01*
X70873000Y-87176250D01*
X71031750Y-87335000D01*
X71300000Y-87338072D01*
X71424482Y-87325812D01*
X71544180Y-87289502D01*
X71654494Y-87230537D01*
X71751185Y-87151185D01*
X71830537Y-87054494D01*
X71889502Y-86944180D01*
X71925812Y-86824482D01*
X71938072Y-86700000D01*
X71935000Y-86431750D01*
X71776250Y-86273000D01*
X70873000Y-86273000D01*
X70127000Y-86273000D01*
X70107000Y-86273000D01*
X70107000Y-85527000D01*
X70127000Y-85527000D01*
X70127000Y-84623750D01*
X70873000Y-84623750D01*
X70873000Y-85527000D01*
X71776250Y-85527000D01*
X71935000Y-85368250D01*
X71938072Y-85100000D01*
X71925812Y-84975518D01*
X71889502Y-84855820D01*
X71830537Y-84745506D01*
X71751185Y-84648815D01*
X71654494Y-84569463D01*
X71544180Y-84510498D01*
X71424482Y-84474188D01*
X71300000Y-84461928D01*
X71031750Y-84465000D01*
X70873000Y-84623750D01*
X70127000Y-84623750D01*
X69968250Y-84465000D01*
X69700000Y-84461928D01*
X69575518Y-84474188D01*
X69455820Y-84510498D01*
X69345506Y-84569463D01*
X69248815Y-84648815D01*
X69169463Y-84745506D01*
X69127000Y-84824947D01*
X69127000Y-84427000D01*
X74873000Y-84427000D01*
X74873000Y-85269750D01*
X74768250Y-85165000D01*
X74711039Y-85162023D01*
X74586363Y-85172129D01*
X74466055Y-85206362D01*
X74354737Y-85263409D01*
X74256688Y-85341077D01*
X74175675Y-85436381D01*
X74114811Y-85545659D01*
X74076436Y-85664711D01*
X74065000Y-85768250D01*
X74223750Y-85927000D01*
X74873000Y-85927000D01*
X74873000Y-86573000D01*
X74223750Y-86573000D01*
X74065000Y-86731750D01*
X74076436Y-86835289D01*
X74114811Y-86954341D01*
X74175675Y-87063619D01*
X74256688Y-87158923D01*
X74354737Y-87236591D01*
X74466055Y-87293638D01*
X74586363Y-87327871D01*
X74711039Y-87337977D01*
X74768250Y-87335000D01*
X74873000Y-87230250D01*
X74873000Y-90000000D01*
X74875440Y-90024776D01*
X74882667Y-90048601D01*
X74894403Y-90070557D01*
X74910197Y-90089803D01*
X74929443Y-90105597D01*
X74951399Y-90117333D01*
X74975224Y-90124560D01*
X75000896Y-90126997D01*
X75026241Y-90126818D01*
X75026241Y-91141470D01*
X75013952Y-91266241D01*
X75026241Y-91391011D01*
X75062994Y-91764167D01*
X75208233Y-92242959D01*
X75444090Y-92684216D01*
X75460000Y-92703602D01*
X75460000Y-94724770D01*
X75496753Y-95097926D01*
X75641992Y-95576718D01*
X75877849Y-96017975D01*
X76195259Y-96404741D01*
X76582024Y-96722151D01*
X77023281Y-96958008D01*
X77502073Y-97103247D01*
X78000000Y-97152289D01*
X78497926Y-97103247D01*
X78976718Y-96958008D01*
X79417975Y-96722151D01*
X79804741Y-96404741D01*
X80056054Y-96098515D01*
X82108987Y-96098515D01*
X82260122Y-96363051D01*
X82619830Y-96489124D01*
X82997221Y-96542600D01*
X83377794Y-96521423D01*
X83746923Y-96426407D01*
X83899878Y-96363051D01*
X84051013Y-96098515D01*
X83080000Y-95127502D01*
X82108987Y-96098515D01*
X80056054Y-96098515D01*
X80122151Y-96017976D01*
X80358008Y-95576719D01*
X80503247Y-95097927D01*
X80540000Y-94724771D01*
X80540000Y-94517221D01*
X81137400Y-94517221D01*
X81158577Y-94897794D01*
X81253593Y-95266923D01*
X81316949Y-95419878D01*
X81581485Y-95571013D01*
X82552498Y-94600000D01*
X83607502Y-94600000D01*
X84578515Y-95571013D01*
X84843051Y-95419878D01*
X84969124Y-95060170D01*
X85022600Y-94682779D01*
X85001423Y-94302206D01*
X84906407Y-93933077D01*
X84843051Y-93780122D01*
X84578515Y-93628987D01*
X83607502Y-94600000D01*
X82552498Y-94600000D01*
X81581485Y-93628987D01*
X81316949Y-93780122D01*
X81190876Y-94139830D01*
X81137400Y-94517221D01*
X80540000Y-94517221D01*
X80540000Y-93101485D01*
X82108987Y-93101485D01*
X83080000Y-94072498D01*
X84051013Y-93101485D01*
X83899878Y-92836949D01*
X83540170Y-92710876D01*
X83162779Y-92657400D01*
X82782206Y-92678577D01*
X82413077Y-92773593D01*
X82260122Y-92836949D01*
X82108987Y-93101485D01*
X80540000Y-93101485D01*
X80540000Y-91824771D01*
X80552289Y-91700000D01*
X80509567Y-91266241D01*
X80503247Y-91202073D01*
X80358008Y-90723281D01*
X80122151Y-90282024D01*
X80106241Y-90262638D01*
X80106241Y-90090959D01*
X87019527Y-90042160D01*
X87024793Y-90059519D01*
X87060001Y-90125388D01*
X87060000Y-94724770D01*
X87096753Y-95097926D01*
X87241992Y-95576718D01*
X87477849Y-96017975D01*
X87795259Y-96404741D01*
X88182024Y-96722151D01*
X88623281Y-96958008D01*
X89102073Y-97103247D01*
X89600000Y-97152289D01*
X90097926Y-97103247D01*
X90576718Y-96958008D01*
X91017975Y-96722151D01*
X91404741Y-96404741D01*
X91656054Y-96098515D01*
X93708987Y-96098515D01*
X93860122Y-96363051D01*
X94219830Y-96489124D01*
X94597221Y-96542600D01*
X94977794Y-96521423D01*
X95346923Y-96426407D01*
X95499878Y-96363051D01*
X95651013Y-96098515D01*
X94680000Y-95127502D01*
X93708987Y-96098515D01*
X91656054Y-96098515D01*
X91722151Y-96017976D01*
X91958008Y-95576719D01*
X92103247Y-95097927D01*
X92140000Y-94724771D01*
X92140000Y-94517221D01*
X92737400Y-94517221D01*
X92758577Y-94897794D01*
X92853593Y-95266923D01*
X92916949Y-95419878D01*
X93181485Y-95571013D01*
X94152498Y-94600000D01*
X95207502Y-94600000D01*
X96178515Y-95571013D01*
X96443051Y-95419878D01*
X96569124Y-95060170D01*
X96622600Y-94682779D01*
X96601423Y-94302206D01*
X96506407Y-93933077D01*
X96443051Y-93780122D01*
X96178515Y-93628987D01*
X95207502Y-94600000D01*
X94152498Y-94600000D01*
X93181485Y-93628987D01*
X92916949Y-93780122D01*
X92790876Y-94139830D01*
X92737400Y-94517221D01*
X92140000Y-94517221D01*
X92140000Y-93101485D01*
X93708987Y-93101485D01*
X94680000Y-94072498D01*
X95651013Y-93101485D01*
X95499878Y-92836949D01*
X95140170Y-92710876D01*
X94762779Y-92657400D01*
X94382206Y-92678577D01*
X94013077Y-92773593D01*
X93860122Y-92836949D01*
X93708987Y-93101485D01*
X92140000Y-93101485D01*
X92140000Y-90006015D01*
X96032774Y-89978537D01*
X96049753Y-90150926D01*
X96194992Y-90629718D01*
X96430849Y-91070975D01*
X96748259Y-91457741D01*
X96845186Y-91537287D01*
X98655000Y-93347102D01*
X98655000Y-94739770D01*
X98691753Y-95112926D01*
X98836992Y-95591718D01*
X99072849Y-96032975D01*
X99390259Y-96419741D01*
X99777024Y-96737151D01*
X100218281Y-96973008D01*
X100697073Y-97118247D01*
X101195000Y-97167289D01*
X101692926Y-97118247D01*
X102171718Y-96973008D01*
X102612975Y-96737151D01*
X102999741Y-96419741D01*
X103251054Y-96113515D01*
X105303987Y-96113515D01*
X105455122Y-96378051D01*
X105814830Y-96504124D01*
X106192221Y-96557600D01*
X106572794Y-96536423D01*
X106941923Y-96441407D01*
X107094878Y-96378051D01*
X107246013Y-96113515D01*
X106275000Y-95142502D01*
X105303987Y-96113515D01*
X103251054Y-96113515D01*
X103317151Y-96032976D01*
X103553008Y-95591719D01*
X103698247Y-95112927D01*
X103735000Y-94739771D01*
X103735000Y-94532221D01*
X104332400Y-94532221D01*
X104353577Y-94912794D01*
X104448593Y-95281923D01*
X104511949Y-95434878D01*
X104776485Y-95586013D01*
X105747498Y-94615000D01*
X106802502Y-94615000D01*
X107773515Y-95586013D01*
X108038051Y-95434878D01*
X108164124Y-95075170D01*
X108217600Y-94697779D01*
X108196423Y-94317206D01*
X108101407Y-93948077D01*
X108038051Y-93795122D01*
X107773515Y-93643987D01*
X106802502Y-94615000D01*
X105747498Y-94615000D01*
X104776485Y-93643987D01*
X104511949Y-93795122D01*
X104385876Y-94154830D01*
X104332400Y-94532221D01*
X103735000Y-94532221D01*
X103735000Y-93116485D01*
X105303987Y-93116485D01*
X106275000Y-94087498D01*
X107246013Y-93116485D01*
X107094878Y-92851949D01*
X106735170Y-92725876D01*
X106357779Y-92672400D01*
X105977206Y-92693577D01*
X105608077Y-92788593D01*
X105455122Y-92851949D01*
X105303987Y-93116485D01*
X103735000Y-93116485D01*
X103735000Y-92419770D01*
X103747289Y-92294999D01*
X103698247Y-91797072D01*
X103649110Y-91635090D01*
X103553008Y-91318281D01*
X103317151Y-90877024D01*
X102999741Y-90490259D01*
X102902819Y-90410717D01*
X102425513Y-89933411D01*
X106560000Y-89904227D01*
X106560000Y-90575229D01*
X106547711Y-90700000D01*
X106567897Y-90904951D01*
X106596753Y-91197926D01*
X106741992Y-91676718D01*
X106977849Y-92117975D01*
X107295259Y-92504741D01*
X107392186Y-92584287D01*
X110391543Y-95583645D01*
X110393992Y-95591718D01*
X110629849Y-96032975D01*
X110947259Y-96419741D01*
X111334024Y-96737151D01*
X111775281Y-96973008D01*
X112254073Y-97118247D01*
X112752000Y-97167289D01*
X113249926Y-97118247D01*
X113728718Y-96973008D01*
X114169975Y-96737151D01*
X114556741Y-96419741D01*
X114808054Y-96113515D01*
X116860987Y-96113515D01*
X117012122Y-96378051D01*
X117371830Y-96504124D01*
X117749221Y-96557600D01*
X118129794Y-96536423D01*
X118498923Y-96441407D01*
X118651878Y-96378051D01*
X118803013Y-96113515D01*
X117832000Y-95142502D01*
X116860987Y-96113515D01*
X114808054Y-96113515D01*
X114874151Y-96032976D01*
X115110008Y-95591719D01*
X115255247Y-95112927D01*
X115292000Y-94739771D01*
X115292000Y-94532221D01*
X115889400Y-94532221D01*
X115910577Y-94912794D01*
X116005593Y-95281923D01*
X116068949Y-95434878D01*
X116333485Y-95586013D01*
X117304498Y-94615000D01*
X118359502Y-94615000D01*
X119330515Y-95586013D01*
X119595051Y-95434878D01*
X119721124Y-95075170D01*
X119774600Y-94697779D01*
X119753423Y-94317206D01*
X119658407Y-93948077D01*
X119595051Y-93795122D01*
X119330515Y-93643987D01*
X118359502Y-94615000D01*
X117304498Y-94615000D01*
X116333485Y-93643987D01*
X116068949Y-93795122D01*
X115942876Y-94154830D01*
X115889400Y-94532221D01*
X115292000Y-94532221D01*
X115292000Y-94476771D01*
X115304289Y-94352000D01*
X115255247Y-93854073D01*
X115110008Y-93375281D01*
X114971678Y-93116485D01*
X116860987Y-93116485D01*
X117832000Y-94087498D01*
X118803013Y-93116485D01*
X118651878Y-92851949D01*
X118292170Y-92725876D01*
X117914779Y-92672400D01*
X117534206Y-92693577D01*
X117165077Y-92788593D01*
X117012122Y-92851949D01*
X116860987Y-93116485D01*
X114971678Y-93116485D01*
X114947356Y-93070982D01*
X114874151Y-92934025D01*
X114556741Y-92547259D01*
X114459819Y-92467718D01*
X111858924Y-89866823D01*
X117500896Y-89826997D01*
X117525655Y-89824382D01*
X117549428Y-89816987D01*
X117571159Y-89805192D01*
X118643457Y-89079814D01*
X118778413Y-89023913D01*
X118965620Y-88898826D01*
X119079816Y-88784630D01*
X120971159Y-87505192D01*
X120990314Y-87489288D01*
X121005998Y-87469953D01*
X121017608Y-87447930D01*
X121024699Y-87424065D01*
X121027000Y-87400349D01*
X121027067Y-87376000D01*
X125061928Y-87376000D01*
X125061928Y-87406000D01*
X125074188Y-87530482D01*
X125110498Y-87650180D01*
X125169463Y-87760494D01*
X125248815Y-87857185D01*
X125345506Y-87936537D01*
X125455820Y-87995502D01*
X125575518Y-88031812D01*
X125700000Y-88044072D01*
X128300000Y-88044072D01*
X128424482Y-88031812D01*
X128544180Y-87995502D01*
X128654494Y-87936537D01*
X128751185Y-87857185D01*
X128830537Y-87760494D01*
X128889502Y-87650180D01*
X128925812Y-87530482D01*
X128938072Y-87406000D01*
X128938072Y-84806000D01*
X128925812Y-84681518D01*
X128889502Y-84561820D01*
X128830537Y-84451506D01*
X128751185Y-84354815D01*
X128654494Y-84275463D01*
X128544180Y-84216498D01*
X128424482Y-84180188D01*
X128300000Y-84167928D01*
X125700000Y-84167928D01*
X125575518Y-84180188D01*
X125455820Y-84216498D01*
X125345506Y-84275463D01*
X125248815Y-84354815D01*
X125169463Y-84451506D01*
X125110498Y-84561820D01*
X125074188Y-84681518D01*
X125061928Y-84806000D01*
X125061928Y-84836000D01*
X121160050Y-84836000D01*
X121106916Y-84782866D01*
X121034354Y-84723316D01*
X121036813Y-83828345D01*
X121064413Y-83816913D01*
X121251620Y-83691826D01*
X121410826Y-83532620D01*
X121535913Y-83345413D01*
X121622075Y-83137401D01*
X121666000Y-82916576D01*
X121666000Y-82691424D01*
X121622075Y-82470599D01*
X121535913Y-82262587D01*
X121410826Y-82075380D01*
X121251620Y-81916174D01*
X121064413Y-81791087D01*
X121042435Y-81781983D01*
X121046165Y-80424217D01*
X122501868Y-81879920D01*
X122541630Y-81928370D01*
X122590080Y-81968132D01*
X122590083Y-81968135D01*
X122638770Y-82008091D01*
X122735012Y-82087075D01*
X122911236Y-82181268D01*
X122955641Y-82205003D01*
X123195036Y-82277623D01*
X123218347Y-82279919D01*
X123381620Y-82296000D01*
X123381627Y-82296000D01*
X123444000Y-82302143D01*
X123506373Y-82296000D01*
X125533496Y-82296000D01*
X125766509Y-82529013D01*
X126083434Y-82740775D01*
X126435581Y-82886639D01*
X126809419Y-82961000D01*
X127190581Y-82961000D01*
X127564419Y-82886639D01*
X127916566Y-82740775D01*
X128233491Y-82529013D01*
X128503013Y-82259491D01*
X128714775Y-81942566D01*
X128860639Y-81590419D01*
X128935000Y-81216581D01*
X128935000Y-80835419D01*
X128860639Y-80461581D01*
X128714775Y-80109434D01*
X128503013Y-79792509D01*
X128233491Y-79522987D01*
X127916566Y-79311225D01*
X127564419Y-79165361D01*
X127190581Y-79091000D01*
X126809419Y-79091000D01*
X126435581Y-79165361D01*
X126083434Y-79311225D01*
X125766509Y-79522987D01*
X125533496Y-79756000D01*
X123970052Y-79756000D01*
X121056007Y-76841956D01*
X121067888Y-72517000D01*
X121148783Y-72517000D01*
X121158000Y-72610580D01*
X121158001Y-75658582D01*
X121185565Y-75938445D01*
X121294495Y-76297539D01*
X121471388Y-76628482D01*
X121709445Y-76918556D01*
X121999519Y-77156613D01*
X122330462Y-77333506D01*
X122689556Y-77442436D01*
X123063000Y-77479217D01*
X123436445Y-77442436D01*
X123795539Y-77333506D01*
X124126482Y-77156613D01*
X124416556Y-76918556D01*
X124654613Y-76628482D01*
X124760556Y-76430277D01*
X125001418Y-76454000D01*
X125001420Y-76454000D01*
X125095000Y-76463217D01*
X125188580Y-76454000D01*
X125506910Y-76454000D01*
X125575518Y-76474812D01*
X125700000Y-76487072D01*
X128300000Y-76487072D01*
X128424482Y-76474812D01*
X128544180Y-76438502D01*
X128654494Y-76379537D01*
X128751185Y-76300185D01*
X128830537Y-76203494D01*
X128889502Y-76093180D01*
X128925812Y-75973482D01*
X128938072Y-75849000D01*
X128938072Y-73249000D01*
X128925812Y-73124518D01*
X128889502Y-73004820D01*
X128830537Y-72894506D01*
X128751185Y-72797815D01*
X128654494Y-72718463D01*
X128544180Y-72659498D01*
X128424482Y-72623188D01*
X128300000Y-72610928D01*
X125851004Y-72610928D01*
X124476220Y-71236145D01*
X124416556Y-71163444D01*
X124177816Y-70967515D01*
X126028987Y-70967515D01*
X126180122Y-71232051D01*
X126539830Y-71358124D01*
X126917221Y-71411600D01*
X127297794Y-71390423D01*
X127666923Y-71295407D01*
X127819878Y-71232051D01*
X127971013Y-70967515D01*
X127000000Y-69996502D01*
X126028987Y-70967515D01*
X124177816Y-70967515D01*
X124126482Y-70925387D01*
X123795538Y-70748494D01*
X123436444Y-70639564D01*
X123063000Y-70602783D01*
X122689555Y-70639564D01*
X122330461Y-70748494D01*
X121999518Y-70925387D01*
X121709444Y-71163444D01*
X121471387Y-71453518D01*
X121294494Y-71784462D01*
X121185564Y-72143556D01*
X121159309Y-72410130D01*
X121148783Y-72517000D01*
X121067888Y-72517000D01*
X121076489Y-69386221D01*
X125057400Y-69386221D01*
X125078577Y-69766794D01*
X125173593Y-70135923D01*
X125236949Y-70288878D01*
X125501485Y-70440013D01*
X126472498Y-69469000D01*
X127527502Y-69469000D01*
X128498515Y-70440013D01*
X128763051Y-70288878D01*
X128889124Y-69929170D01*
X128942600Y-69551779D01*
X128921423Y-69171206D01*
X128826407Y-68802077D01*
X128763051Y-68649122D01*
X128498515Y-68497987D01*
X127527502Y-69469000D01*
X126472498Y-69469000D01*
X125501485Y-68497987D01*
X125236949Y-68649122D01*
X125110876Y-69008830D01*
X125057400Y-69386221D01*
X121076489Y-69386221D01*
X121080378Y-67970485D01*
X126028987Y-67970485D01*
X127000000Y-68941498D01*
X127971013Y-67970485D01*
X127819878Y-67705949D01*
X127460170Y-67579876D01*
X127082779Y-67526400D01*
X126702206Y-67547577D01*
X126333077Y-67642593D01*
X126180122Y-67705949D01*
X126028987Y-67970485D01*
X121080378Y-67970485D01*
X121080950Y-67762531D01*
X121092889Y-67757586D01*
X121246028Y-67655262D01*
X121376262Y-67525028D01*
X121478586Y-67371889D01*
X121549068Y-67201729D01*
X121585000Y-67021089D01*
X121585000Y-66836911D01*
X121549068Y-66656271D01*
X121478586Y-66486111D01*
X121460943Y-66459707D01*
X121500274Y-66386125D01*
X121544977Y-66238757D01*
X121560072Y-66085500D01*
X121560072Y-65740500D01*
X121544977Y-65587243D01*
X121500274Y-65439875D01*
X121427679Y-65304060D01*
X121329983Y-65185017D01*
X121210940Y-65087321D01*
X121088479Y-65021864D01*
X121097277Y-61819000D01*
X125061928Y-61819000D01*
X125061928Y-64419000D01*
X125074188Y-64543482D01*
X125110498Y-64663180D01*
X125169463Y-64773494D01*
X125248815Y-64870185D01*
X125345506Y-64949537D01*
X125455820Y-65008502D01*
X125575518Y-65044812D01*
X125700000Y-65057072D01*
X128300000Y-65057072D01*
X128424482Y-65044812D01*
X128544180Y-65008502D01*
X128654494Y-64949537D01*
X128751185Y-64870185D01*
X128830537Y-64773494D01*
X128889502Y-64663180D01*
X128925812Y-64543482D01*
X128938072Y-64419000D01*
X128938072Y-61819000D01*
X128925812Y-61694518D01*
X128889502Y-61574820D01*
X128830537Y-61464506D01*
X128751185Y-61367815D01*
X128654494Y-61288463D01*
X128544180Y-61229498D01*
X128424482Y-61193188D01*
X128300000Y-61180928D01*
X125700000Y-61180928D01*
X125575518Y-61193188D01*
X125455820Y-61229498D01*
X125345506Y-61288463D01*
X125248815Y-61367815D01*
X125169463Y-61464506D01*
X125110498Y-61574820D01*
X125074188Y-61694518D01*
X125061928Y-61819000D01*
X121097277Y-61819000D01*
X121103418Y-59584000D01*
X125829347Y-59584000D01*
X126083434Y-59753775D01*
X126435581Y-59899639D01*
X126809419Y-59974000D01*
X127190581Y-59974000D01*
X127564419Y-59899639D01*
X127916566Y-59753775D01*
X128233491Y-59542013D01*
X128503013Y-59272491D01*
X128714775Y-58955566D01*
X128860639Y-58603419D01*
X128935000Y-58229581D01*
X128935000Y-57848419D01*
X128860639Y-57474581D01*
X128714775Y-57122434D01*
X128503013Y-56805509D01*
X128233491Y-56535987D01*
X128105625Y-56450550D01*
X128053220Y-56398145D01*
X127993556Y-56325444D01*
X127703482Y-56087387D01*
X127372539Y-55910494D01*
X127013445Y-55801564D01*
X126733582Y-55774000D01*
X126733580Y-55774000D01*
X126640000Y-55764783D01*
X126546420Y-55774000D01*
X121113886Y-55774000D01*
X121121273Y-53085000D01*
X121266260Y-53085000D01*
X121553158Y-53027932D01*
X121823411Y-52915990D01*
X122066632Y-52753475D01*
X122273475Y-52546632D01*
X122390000Y-52372240D01*
X122506525Y-52546632D01*
X122713368Y-52753475D01*
X122956589Y-52915990D01*
X123226842Y-53027932D01*
X123513740Y-53085000D01*
X123806260Y-53085000D01*
X124093158Y-53027932D01*
X124363411Y-52915990D01*
X124606632Y-52753475D01*
X124813475Y-52546632D01*
X124930000Y-52372240D01*
X125046525Y-52546632D01*
X125253368Y-52753475D01*
X125496589Y-52915990D01*
X125766842Y-53027932D01*
X126053740Y-53085000D01*
X126346260Y-53085000D01*
X126633158Y-53027932D01*
X126903411Y-52915990D01*
X127146632Y-52753475D01*
X127353475Y-52546632D01*
X127474658Y-52365269D01*
X127520539Y-52447457D01*
X127709301Y-52669078D01*
X127937672Y-52849615D01*
X128146735Y-52961345D01*
X128367000Y-52872718D01*
X128367000Y-51973000D01*
X128347000Y-51973000D01*
X128347000Y-51227000D01*
X128367000Y-51227000D01*
X128367000Y-51207000D01*
X129113000Y-51207000D01*
X129113000Y-51227000D01*
G04 #@! TA.AperFunction,Conductor*
D46*
G36*
X129113000Y-51227000D02*
G01*
X129133000Y-51227000D01*
X129133000Y-51973000D01*
X129113000Y-51973000D01*
X129113000Y-52872718D01*
X129333265Y-52961345D01*
X129542328Y-52849615D01*
X129770699Y-52669078D01*
X129959461Y-52447457D01*
X130005342Y-52365269D01*
X130126525Y-52546632D01*
X130333368Y-52753475D01*
X130576589Y-52915990D01*
X130846842Y-53027932D01*
X131133740Y-53085000D01*
X131426260Y-53085000D01*
X131713158Y-53027932D01*
X131983411Y-52915990D01*
X132226632Y-52753475D01*
X132373000Y-52607107D01*
X132373000Y-91973000D01*
X127700000Y-91973000D01*
X127675224Y-91975440D01*
X127651399Y-91982667D01*
X127629443Y-91994403D01*
X127610197Y-92010197D01*
X127599884Y-92021861D01*
X124399884Y-96121861D01*
X124386563Y-96142894D01*
X124377602Y-96166121D01*
X124373345Y-96190651D01*
X124373044Y-96203341D01*
X124469614Y-99873000D01*
X69127000Y-99873000D01*
X69127000Y-96012416D01*
X69353169Y-96163537D01*
X69668919Y-96294325D01*
X70004117Y-96361000D01*
X70345883Y-96361000D01*
X70681081Y-96294325D01*
X70996831Y-96163537D01*
X71280998Y-95973663D01*
X71445000Y-95809661D01*
X71609002Y-95973663D01*
X71893169Y-96163537D01*
X72208919Y-96294325D01*
X72544117Y-96361000D01*
X72885883Y-96361000D01*
X73221081Y-96294325D01*
X73536831Y-96163537D01*
X73820998Y-95973663D01*
X74062663Y-95731998D01*
X74252537Y-95447831D01*
X74383325Y-95132081D01*
X74450000Y-94796883D01*
X74450000Y-94455117D01*
X74383325Y-94119919D01*
X74252537Y-93804169D01*
X74062663Y-93520002D01*
X73820998Y-93278337D01*
X73536831Y-93088463D01*
X73221081Y-92957675D01*
X72885883Y-92891000D01*
X72544117Y-92891000D01*
X72208919Y-92957675D01*
X71893169Y-93088463D01*
X71609002Y-93278337D01*
X71445000Y-93442339D01*
X71280998Y-93278337D01*
X70996831Y-93088463D01*
X70681081Y-92957675D01*
X70345883Y-92891000D01*
X70004117Y-92891000D01*
X69668919Y-92957675D01*
X69583689Y-92992979D01*
X69127000Y-92536290D01*
X69127000Y-86975053D01*
X69169463Y-87054494D01*
X69248815Y-87151185D01*
X69345506Y-87230537D01*
X69455820Y-87289502D01*
X69575518Y-87325812D01*
X69700000Y-87338072D01*
X69968250Y-87335000D01*
X70127000Y-87176250D01*
X70127000Y-86273000D01*
X70873000Y-86273000D01*
X70873000Y-87176250D01*
X71031750Y-87335000D01*
X71300000Y-87338072D01*
X71424482Y-87325812D01*
X71544180Y-87289502D01*
X71654494Y-87230537D01*
X71751185Y-87151185D01*
X71830537Y-87054494D01*
X71889502Y-86944180D01*
X71925812Y-86824482D01*
X71938072Y-86700000D01*
X71935000Y-86431750D01*
X71776250Y-86273000D01*
X70873000Y-86273000D01*
X70127000Y-86273000D01*
X70107000Y-86273000D01*
X70107000Y-85527000D01*
X70127000Y-85527000D01*
X70127000Y-84623750D01*
X70873000Y-84623750D01*
X70873000Y-85527000D01*
X71776250Y-85527000D01*
X71935000Y-85368250D01*
X71938072Y-85100000D01*
X71925812Y-84975518D01*
X71889502Y-84855820D01*
X71830537Y-84745506D01*
X71751185Y-84648815D01*
X71654494Y-84569463D01*
X71544180Y-84510498D01*
X71424482Y-84474188D01*
X71300000Y-84461928D01*
X71031750Y-84465000D01*
X70873000Y-84623750D01*
X70127000Y-84623750D01*
X69968250Y-84465000D01*
X69700000Y-84461928D01*
X69575518Y-84474188D01*
X69455820Y-84510498D01*
X69345506Y-84569463D01*
X69248815Y-84648815D01*
X69169463Y-84745506D01*
X69127000Y-84824947D01*
X69127000Y-84427000D01*
X74873000Y-84427000D01*
X74873000Y-85269750D01*
X74768250Y-85165000D01*
X74711039Y-85162023D01*
X74586363Y-85172129D01*
X74466055Y-85206362D01*
X74354737Y-85263409D01*
X74256688Y-85341077D01*
X74175675Y-85436381D01*
X74114811Y-85545659D01*
X74076436Y-85664711D01*
X74065000Y-85768250D01*
X74223750Y-85927000D01*
X74873000Y-85927000D01*
X74873000Y-86573000D01*
X74223750Y-86573000D01*
X74065000Y-86731750D01*
X74076436Y-86835289D01*
X74114811Y-86954341D01*
X74175675Y-87063619D01*
X74256688Y-87158923D01*
X74354737Y-87236591D01*
X74466055Y-87293638D01*
X74586363Y-87327871D01*
X74711039Y-87337977D01*
X74768250Y-87335000D01*
X74873000Y-87230250D01*
X74873000Y-90000000D01*
X74875440Y-90024776D01*
X74882667Y-90048601D01*
X74894403Y-90070557D01*
X74910197Y-90089803D01*
X74929443Y-90105597D01*
X74951399Y-90117333D01*
X74975224Y-90124560D01*
X75000896Y-90126997D01*
X75026241Y-90126818D01*
X75026241Y-91141470D01*
X75013952Y-91266241D01*
X75026241Y-91391011D01*
X75062994Y-91764167D01*
X75208233Y-92242959D01*
X75444090Y-92684216D01*
X75460000Y-92703602D01*
X75460000Y-94724770D01*
X75496753Y-95097926D01*
X75641992Y-95576718D01*
X75877849Y-96017975D01*
X76195259Y-96404741D01*
X76582024Y-96722151D01*
X77023281Y-96958008D01*
X77502073Y-97103247D01*
X78000000Y-97152289D01*
X78497926Y-97103247D01*
X78976718Y-96958008D01*
X79417975Y-96722151D01*
X79804741Y-96404741D01*
X80056054Y-96098515D01*
X82108987Y-96098515D01*
X82260122Y-96363051D01*
X82619830Y-96489124D01*
X82997221Y-96542600D01*
X83377794Y-96521423D01*
X83746923Y-96426407D01*
X83899878Y-96363051D01*
X84051013Y-96098515D01*
X83080000Y-95127502D01*
X82108987Y-96098515D01*
X80056054Y-96098515D01*
X80122151Y-96017976D01*
X80358008Y-95576719D01*
X80503247Y-95097927D01*
X80540000Y-94724771D01*
X80540000Y-94517221D01*
X81137400Y-94517221D01*
X81158577Y-94897794D01*
X81253593Y-95266923D01*
X81316949Y-95419878D01*
X81581485Y-95571013D01*
X82552498Y-94600000D01*
X83607502Y-94600000D01*
X84578515Y-95571013D01*
X84843051Y-95419878D01*
X84969124Y-95060170D01*
X85022600Y-94682779D01*
X85001423Y-94302206D01*
X84906407Y-93933077D01*
X84843051Y-93780122D01*
X84578515Y-93628987D01*
X83607502Y-94600000D01*
X82552498Y-94600000D01*
X81581485Y-93628987D01*
X81316949Y-93780122D01*
X81190876Y-94139830D01*
X81137400Y-94517221D01*
X80540000Y-94517221D01*
X80540000Y-93101485D01*
X82108987Y-93101485D01*
X83080000Y-94072498D01*
X84051013Y-93101485D01*
X83899878Y-92836949D01*
X83540170Y-92710876D01*
X83162779Y-92657400D01*
X82782206Y-92678577D01*
X82413077Y-92773593D01*
X82260122Y-92836949D01*
X82108987Y-93101485D01*
X80540000Y-93101485D01*
X80540000Y-91824771D01*
X80552289Y-91700000D01*
X80509567Y-91266241D01*
X80503247Y-91202073D01*
X80358008Y-90723281D01*
X80122151Y-90282024D01*
X80106241Y-90262638D01*
X80106241Y-90090959D01*
X87019527Y-90042160D01*
X87024793Y-90059519D01*
X87060001Y-90125388D01*
X87060000Y-94724770D01*
X87096753Y-95097926D01*
X87241992Y-95576718D01*
X87477849Y-96017975D01*
X87795259Y-96404741D01*
X88182024Y-96722151D01*
X88623281Y-96958008D01*
X89102073Y-97103247D01*
X89600000Y-97152289D01*
X90097926Y-97103247D01*
X90576718Y-96958008D01*
X91017975Y-96722151D01*
X91404741Y-96404741D01*
X91656054Y-96098515D01*
X93708987Y-96098515D01*
X93860122Y-96363051D01*
X94219830Y-96489124D01*
X94597221Y-96542600D01*
X94977794Y-96521423D01*
X95346923Y-96426407D01*
X95499878Y-96363051D01*
X95651013Y-96098515D01*
X94680000Y-95127502D01*
X93708987Y-96098515D01*
X91656054Y-96098515D01*
X91722151Y-96017976D01*
X91958008Y-95576719D01*
X92103247Y-95097927D01*
X92140000Y-94724771D01*
X92140000Y-94517221D01*
X92737400Y-94517221D01*
X92758577Y-94897794D01*
X92853593Y-95266923D01*
X92916949Y-95419878D01*
X93181485Y-95571013D01*
X94152498Y-94600000D01*
X95207502Y-94600000D01*
X96178515Y-95571013D01*
X96443051Y-95419878D01*
X96569124Y-95060170D01*
X96622600Y-94682779D01*
X96601423Y-94302206D01*
X96506407Y-93933077D01*
X96443051Y-93780122D01*
X96178515Y-93628987D01*
X95207502Y-94600000D01*
X94152498Y-94600000D01*
X93181485Y-93628987D01*
X92916949Y-93780122D01*
X92790876Y-94139830D01*
X92737400Y-94517221D01*
X92140000Y-94517221D01*
X92140000Y-93101485D01*
X93708987Y-93101485D01*
X94680000Y-94072498D01*
X95651013Y-93101485D01*
X95499878Y-92836949D01*
X95140170Y-92710876D01*
X94762779Y-92657400D01*
X94382206Y-92678577D01*
X94013077Y-92773593D01*
X93860122Y-92836949D01*
X93708987Y-93101485D01*
X92140000Y-93101485D01*
X92140000Y-90006015D01*
X96032774Y-89978537D01*
X96049753Y-90150926D01*
X96194992Y-90629718D01*
X96430849Y-91070975D01*
X96748259Y-91457741D01*
X96845186Y-91537287D01*
X98655000Y-93347102D01*
X98655000Y-94739770D01*
X98691753Y-95112926D01*
X98836992Y-95591718D01*
X99072849Y-96032975D01*
X99390259Y-96419741D01*
X99777024Y-96737151D01*
X100218281Y-96973008D01*
X100697073Y-97118247D01*
X101195000Y-97167289D01*
X101692926Y-97118247D01*
X102171718Y-96973008D01*
X102612975Y-96737151D01*
X102999741Y-96419741D01*
X103251054Y-96113515D01*
X105303987Y-96113515D01*
X105455122Y-96378051D01*
X105814830Y-96504124D01*
X106192221Y-96557600D01*
X106572794Y-96536423D01*
X106941923Y-96441407D01*
X107094878Y-96378051D01*
X107246013Y-96113515D01*
X106275000Y-95142502D01*
X105303987Y-96113515D01*
X103251054Y-96113515D01*
X103317151Y-96032976D01*
X103553008Y-95591719D01*
X103698247Y-95112927D01*
X103735000Y-94739771D01*
X103735000Y-94532221D01*
X104332400Y-94532221D01*
X104353577Y-94912794D01*
X104448593Y-95281923D01*
X104511949Y-95434878D01*
X104776485Y-95586013D01*
X105747498Y-94615000D01*
X106802502Y-94615000D01*
X107773515Y-95586013D01*
X108038051Y-95434878D01*
X108164124Y-95075170D01*
X108217600Y-94697779D01*
X108196423Y-94317206D01*
X108101407Y-93948077D01*
X108038051Y-93795122D01*
X107773515Y-93643987D01*
X106802502Y-94615000D01*
X105747498Y-94615000D01*
X104776485Y-93643987D01*
X104511949Y-93795122D01*
X104385876Y-94154830D01*
X104332400Y-94532221D01*
X103735000Y-94532221D01*
X103735000Y-93116485D01*
X105303987Y-93116485D01*
X106275000Y-94087498D01*
X107246013Y-93116485D01*
X107094878Y-92851949D01*
X106735170Y-92725876D01*
X106357779Y-92672400D01*
X105977206Y-92693577D01*
X105608077Y-92788593D01*
X105455122Y-92851949D01*
X105303987Y-93116485D01*
X103735000Y-93116485D01*
X103735000Y-92419770D01*
X103747289Y-92294999D01*
X103698247Y-91797072D01*
X103649110Y-91635090D01*
X103553008Y-91318281D01*
X103317151Y-90877024D01*
X102999741Y-90490259D01*
X102902819Y-90410717D01*
X102425513Y-89933411D01*
X106560000Y-89904227D01*
X106560000Y-90575229D01*
X106547711Y-90700000D01*
X106567897Y-90904951D01*
X106596753Y-91197926D01*
X106741992Y-91676718D01*
X106977849Y-92117975D01*
X107295259Y-92504741D01*
X107392186Y-92584287D01*
X110391543Y-95583645D01*
X110393992Y-95591718D01*
X110629849Y-96032975D01*
X110947259Y-96419741D01*
X111334024Y-96737151D01*
X111775281Y-96973008D01*
X112254073Y-97118247D01*
X112752000Y-97167289D01*
X113249926Y-97118247D01*
X113728718Y-96973008D01*
X114169975Y-96737151D01*
X114556741Y-96419741D01*
X114808054Y-96113515D01*
X116860987Y-96113515D01*
X117012122Y-96378051D01*
X117371830Y-96504124D01*
X117749221Y-96557600D01*
X118129794Y-96536423D01*
X118498923Y-96441407D01*
X118651878Y-96378051D01*
X118803013Y-96113515D01*
X117832000Y-95142502D01*
X116860987Y-96113515D01*
X114808054Y-96113515D01*
X114874151Y-96032976D01*
X115110008Y-95591719D01*
X115255247Y-95112927D01*
X115292000Y-94739771D01*
X115292000Y-94532221D01*
X115889400Y-94532221D01*
X115910577Y-94912794D01*
X116005593Y-95281923D01*
X116068949Y-95434878D01*
X116333485Y-95586013D01*
X117304498Y-94615000D01*
X118359502Y-94615000D01*
X119330515Y-95586013D01*
X119595051Y-95434878D01*
X119721124Y-95075170D01*
X119774600Y-94697779D01*
X119753423Y-94317206D01*
X119658407Y-93948077D01*
X119595051Y-93795122D01*
X119330515Y-93643987D01*
X118359502Y-94615000D01*
X117304498Y-94615000D01*
X116333485Y-93643987D01*
X116068949Y-93795122D01*
X115942876Y-94154830D01*
X115889400Y-94532221D01*
X115292000Y-94532221D01*
X115292000Y-94476771D01*
X115304289Y-94352000D01*
X115255247Y-93854073D01*
X115110008Y-93375281D01*
X114971678Y-93116485D01*
X116860987Y-93116485D01*
X117832000Y-94087498D01*
X118803013Y-93116485D01*
X118651878Y-92851949D01*
X118292170Y-92725876D01*
X117914779Y-92672400D01*
X117534206Y-92693577D01*
X117165077Y-92788593D01*
X117012122Y-92851949D01*
X116860987Y-93116485D01*
X114971678Y-93116485D01*
X114947356Y-93070982D01*
X114874151Y-92934025D01*
X114556741Y-92547259D01*
X114459819Y-92467718D01*
X111858924Y-89866823D01*
X117500896Y-89826997D01*
X117525655Y-89824382D01*
X117549428Y-89816987D01*
X117571159Y-89805192D01*
X118643457Y-89079814D01*
X118778413Y-89023913D01*
X118965620Y-88898826D01*
X119079816Y-88784630D01*
X120971159Y-87505192D01*
X120990314Y-87489288D01*
X121005998Y-87469953D01*
X121017608Y-87447930D01*
X121024699Y-87424065D01*
X121027000Y-87400349D01*
X121027067Y-87376000D01*
X125061928Y-87376000D01*
X125061928Y-87406000D01*
X125074188Y-87530482D01*
X125110498Y-87650180D01*
X125169463Y-87760494D01*
X125248815Y-87857185D01*
X125345506Y-87936537D01*
X125455820Y-87995502D01*
X125575518Y-88031812D01*
X125700000Y-88044072D01*
X128300000Y-88044072D01*
X128424482Y-88031812D01*
X128544180Y-87995502D01*
X128654494Y-87936537D01*
X128751185Y-87857185D01*
X128830537Y-87760494D01*
X128889502Y-87650180D01*
X128925812Y-87530482D01*
X128938072Y-87406000D01*
X128938072Y-84806000D01*
X128925812Y-84681518D01*
X128889502Y-84561820D01*
X128830537Y-84451506D01*
X128751185Y-84354815D01*
X128654494Y-84275463D01*
X128544180Y-84216498D01*
X128424482Y-84180188D01*
X128300000Y-84167928D01*
X125700000Y-84167928D01*
X125575518Y-84180188D01*
X125455820Y-84216498D01*
X125345506Y-84275463D01*
X125248815Y-84354815D01*
X125169463Y-84451506D01*
X125110498Y-84561820D01*
X125074188Y-84681518D01*
X125061928Y-84806000D01*
X125061928Y-84836000D01*
X121160050Y-84836000D01*
X121106916Y-84782866D01*
X121034354Y-84723316D01*
X121036813Y-83828345D01*
X121064413Y-83816913D01*
X121251620Y-83691826D01*
X121410826Y-83532620D01*
X121535913Y-83345413D01*
X121622075Y-83137401D01*
X121666000Y-82916576D01*
X121666000Y-82691424D01*
X121622075Y-82470599D01*
X121535913Y-82262587D01*
X121410826Y-82075380D01*
X121251620Y-81916174D01*
X121064413Y-81791087D01*
X121042435Y-81781983D01*
X121046165Y-80424217D01*
X122501868Y-81879920D01*
X122541630Y-81928370D01*
X122590080Y-81968132D01*
X122590083Y-81968135D01*
X122638770Y-82008091D01*
X122735012Y-82087075D01*
X122911236Y-82181268D01*
X122955641Y-82205003D01*
X123195036Y-82277623D01*
X123218347Y-82279919D01*
X123381620Y-82296000D01*
X123381627Y-82296000D01*
X123444000Y-82302143D01*
X123506373Y-82296000D01*
X125533496Y-82296000D01*
X125766509Y-82529013D01*
X126083434Y-82740775D01*
X126435581Y-82886639D01*
X126809419Y-82961000D01*
X127190581Y-82961000D01*
X127564419Y-82886639D01*
X127916566Y-82740775D01*
X128233491Y-82529013D01*
X128503013Y-82259491D01*
X128714775Y-81942566D01*
X128860639Y-81590419D01*
X128935000Y-81216581D01*
X128935000Y-80835419D01*
X128860639Y-80461581D01*
X128714775Y-80109434D01*
X128503013Y-79792509D01*
X128233491Y-79522987D01*
X127916566Y-79311225D01*
X127564419Y-79165361D01*
X127190581Y-79091000D01*
X126809419Y-79091000D01*
X126435581Y-79165361D01*
X126083434Y-79311225D01*
X125766509Y-79522987D01*
X125533496Y-79756000D01*
X123970052Y-79756000D01*
X121056007Y-76841956D01*
X121067888Y-72517000D01*
X121148783Y-72517000D01*
X121158000Y-72610580D01*
X121158001Y-75658582D01*
X121185565Y-75938445D01*
X121294495Y-76297539D01*
X121471388Y-76628482D01*
X121709445Y-76918556D01*
X121999519Y-77156613D01*
X122330462Y-77333506D01*
X122689556Y-77442436D01*
X123063000Y-77479217D01*
X123436445Y-77442436D01*
X123795539Y-77333506D01*
X124126482Y-77156613D01*
X124416556Y-76918556D01*
X124654613Y-76628482D01*
X124760556Y-76430277D01*
X125001418Y-76454000D01*
X125001420Y-76454000D01*
X125095000Y-76463217D01*
X125188580Y-76454000D01*
X125506910Y-76454000D01*
X125575518Y-76474812D01*
X125700000Y-76487072D01*
X128300000Y-76487072D01*
X128424482Y-76474812D01*
X128544180Y-76438502D01*
X128654494Y-76379537D01*
X128751185Y-76300185D01*
X128830537Y-76203494D01*
X128889502Y-76093180D01*
X128925812Y-75973482D01*
X128938072Y-75849000D01*
X128938072Y-73249000D01*
X128925812Y-73124518D01*
X128889502Y-73004820D01*
X128830537Y-72894506D01*
X128751185Y-72797815D01*
X128654494Y-72718463D01*
X128544180Y-72659498D01*
X128424482Y-72623188D01*
X128300000Y-72610928D01*
X125851004Y-72610928D01*
X124476220Y-71236145D01*
X124416556Y-71163444D01*
X124177816Y-70967515D01*
X126028987Y-70967515D01*
X126180122Y-71232051D01*
X126539830Y-71358124D01*
X126917221Y-71411600D01*
X127297794Y-71390423D01*
X127666923Y-71295407D01*
X127819878Y-71232051D01*
X127971013Y-70967515D01*
X127000000Y-69996502D01*
X126028987Y-70967515D01*
X124177816Y-70967515D01*
X124126482Y-70925387D01*
X123795538Y-70748494D01*
X123436444Y-70639564D01*
X123063000Y-70602783D01*
X122689555Y-70639564D01*
X122330461Y-70748494D01*
X121999518Y-70925387D01*
X121709444Y-71163444D01*
X121471387Y-71453518D01*
X121294494Y-71784462D01*
X121185564Y-72143556D01*
X121159309Y-72410130D01*
X121148783Y-72517000D01*
X121067888Y-72517000D01*
X121076489Y-69386221D01*
X125057400Y-69386221D01*
X125078577Y-69766794D01*
X125173593Y-70135923D01*
X125236949Y-70288878D01*
X125501485Y-70440013D01*
X126472498Y-69469000D01*
X127527502Y-69469000D01*
X128498515Y-70440013D01*
X128763051Y-70288878D01*
X128889124Y-69929170D01*
X128942600Y-69551779D01*
X128921423Y-69171206D01*
X128826407Y-68802077D01*
X128763051Y-68649122D01*
X128498515Y-68497987D01*
X127527502Y-69469000D01*
X126472498Y-69469000D01*
X125501485Y-68497987D01*
X125236949Y-68649122D01*
X125110876Y-69008830D01*
X125057400Y-69386221D01*
X121076489Y-69386221D01*
X121080378Y-67970485D01*
X126028987Y-67970485D01*
X127000000Y-68941498D01*
X127971013Y-67970485D01*
X127819878Y-67705949D01*
X127460170Y-67579876D01*
X127082779Y-67526400D01*
X126702206Y-67547577D01*
X126333077Y-67642593D01*
X126180122Y-67705949D01*
X126028987Y-67970485D01*
X121080378Y-67970485D01*
X121080950Y-67762531D01*
X121092889Y-67757586D01*
X121246028Y-67655262D01*
X121376262Y-67525028D01*
X121478586Y-67371889D01*
X121549068Y-67201729D01*
X121585000Y-67021089D01*
X121585000Y-66836911D01*
X121549068Y-66656271D01*
X121478586Y-66486111D01*
X121460943Y-66459707D01*
X121500274Y-66386125D01*
X121544977Y-66238757D01*
X121560072Y-66085500D01*
X121560072Y-65740500D01*
X121544977Y-65587243D01*
X121500274Y-65439875D01*
X121427679Y-65304060D01*
X121329983Y-65185017D01*
X121210940Y-65087321D01*
X121088479Y-65021864D01*
X121097277Y-61819000D01*
X125061928Y-61819000D01*
X125061928Y-64419000D01*
X125074188Y-64543482D01*
X125110498Y-64663180D01*
X125169463Y-64773494D01*
X125248815Y-64870185D01*
X125345506Y-64949537D01*
X125455820Y-65008502D01*
X125575518Y-65044812D01*
X125700000Y-65057072D01*
X128300000Y-65057072D01*
X128424482Y-65044812D01*
X128544180Y-65008502D01*
X128654494Y-64949537D01*
X128751185Y-64870185D01*
X128830537Y-64773494D01*
X128889502Y-64663180D01*
X128925812Y-64543482D01*
X128938072Y-64419000D01*
X128938072Y-61819000D01*
X128925812Y-61694518D01*
X128889502Y-61574820D01*
X128830537Y-61464506D01*
X128751185Y-61367815D01*
X128654494Y-61288463D01*
X128544180Y-61229498D01*
X128424482Y-61193188D01*
X128300000Y-61180928D01*
X125700000Y-61180928D01*
X125575518Y-61193188D01*
X125455820Y-61229498D01*
X125345506Y-61288463D01*
X125248815Y-61367815D01*
X125169463Y-61464506D01*
X125110498Y-61574820D01*
X125074188Y-61694518D01*
X125061928Y-61819000D01*
X121097277Y-61819000D01*
X121103418Y-59584000D01*
X125829347Y-59584000D01*
X126083434Y-59753775D01*
X126435581Y-59899639D01*
X126809419Y-59974000D01*
X127190581Y-59974000D01*
X127564419Y-59899639D01*
X127916566Y-59753775D01*
X128233491Y-59542013D01*
X128503013Y-59272491D01*
X128714775Y-58955566D01*
X128860639Y-58603419D01*
X128935000Y-58229581D01*
X128935000Y-57848419D01*
X128860639Y-57474581D01*
X128714775Y-57122434D01*
X128503013Y-56805509D01*
X128233491Y-56535987D01*
X128105625Y-56450550D01*
X128053220Y-56398145D01*
X127993556Y-56325444D01*
X127703482Y-56087387D01*
X127372539Y-55910494D01*
X127013445Y-55801564D01*
X126733582Y-55774000D01*
X126733580Y-55774000D01*
X126640000Y-55764783D01*
X126546420Y-55774000D01*
X121113886Y-55774000D01*
X121121273Y-53085000D01*
X121266260Y-53085000D01*
X121553158Y-53027932D01*
X121823411Y-52915990D01*
X122066632Y-52753475D01*
X122273475Y-52546632D01*
X122390000Y-52372240D01*
X122506525Y-52546632D01*
X122713368Y-52753475D01*
X122956589Y-52915990D01*
X123226842Y-53027932D01*
X123513740Y-53085000D01*
X123806260Y-53085000D01*
X124093158Y-53027932D01*
X124363411Y-52915990D01*
X124606632Y-52753475D01*
X124813475Y-52546632D01*
X124930000Y-52372240D01*
X125046525Y-52546632D01*
X125253368Y-52753475D01*
X125496589Y-52915990D01*
X125766842Y-53027932D01*
X126053740Y-53085000D01*
X126346260Y-53085000D01*
X126633158Y-53027932D01*
X126903411Y-52915990D01*
X127146632Y-52753475D01*
X127353475Y-52546632D01*
X127474658Y-52365269D01*
X127520539Y-52447457D01*
X127709301Y-52669078D01*
X127937672Y-52849615D01*
X128146735Y-52961345D01*
X128367000Y-52872718D01*
X128367000Y-51973000D01*
X128347000Y-51973000D01*
X128347000Y-51227000D01*
X128367000Y-51227000D01*
X128367000Y-51207000D01*
X129113000Y-51207000D01*
X129113000Y-51227000D01*
G37*
G04 #@! TD.AperFunction*
M02*
