G04 #@! TF.GenerationSoftware,KiCad,Pcbnew,(5.1.9)-1*
G04 #@! TF.CreationDate,2021-06-19T22:35:00+01:00*
G04 #@! TF.ProjectId,garden,67617264-656e-42e6-9b69-6361645f7063,rev?*
G04 #@! TF.SameCoordinates,Original*
G04 #@! TF.FileFunction,Copper,L3,Inr*
G04 #@! TF.FilePolarity,Positive*
%FSLAX46Y46*%
G04 Gerber Fmt 4.6, Leading zero omitted, Abs format (unit mm)*
G04 Created by KiCad (PCBNEW (5.1.9)-1) date 2021-06-19 22:35:00*
%MOMM*%
%LPD*%
G01*
G04 APERTURE LIST*
G04 #@! TA.AperFunction,ComponentPad*
%ADD10O,1.700000X1.700000*%
G04 #@! TD*
G04 #@! TA.AperFunction,ComponentPad*
%ADD11R,1.700000X1.700000*%
G04 #@! TD*
G04 #@! TA.AperFunction,ComponentPad*
%ADD12C,1.600000*%
G04 #@! TD*
G04 #@! TA.AperFunction,ComponentPad*
%ADD13R,1.600000X1.600000*%
G04 #@! TD*
G04 #@! TA.AperFunction,ComponentPad*
%ADD14O,2.100000X1.000000*%
G04 #@! TD*
G04 #@! TA.AperFunction,ComponentPad*
%ADD15O,1.600000X1.000000*%
G04 #@! TD*
G04 #@! TA.AperFunction,ComponentPad*
%ADD16C,2.600000*%
G04 #@! TD*
G04 #@! TA.AperFunction,ComponentPad*
%ADD17R,2.600000X2.600000*%
G04 #@! TD*
G04 #@! TA.AperFunction,ComponentPad*
%ADD18C,2.200000*%
G04 #@! TD*
G04 #@! TA.AperFunction,ComponentPad*
%ADD19R,2.200000X2.200000*%
G04 #@! TD*
G04 #@! TA.AperFunction,ViaPad*
%ADD20C,0.600000*%
G04 #@! TD*
G04 #@! TA.AperFunction,ViaPad*
%ADD21C,1.016000*%
G04 #@! TD*
G04 #@! TA.AperFunction,ViaPad*
%ADD22C,2.032000*%
G04 #@! TD*
G04 #@! TA.AperFunction,Conductor*
%ADD23C,0.254000*%
G04 #@! TD*
G04 #@! TA.AperFunction,Conductor*
%ADD24C,0.100000*%
G04 #@! TD*
G04 APERTURE END LIST*
D10*
X131280000Y-51600000D03*
X128740000Y-51600000D03*
X126200000Y-51600000D03*
X123660000Y-51600000D03*
X121120000Y-51600000D03*
X118580000Y-51600000D03*
X116040000Y-51600000D03*
D11*
X113500000Y-51600000D03*
D12*
X67000000Y-85900000D03*
D13*
X70500000Y-85900000D03*
D14*
X60630000Y-77218000D03*
X60630000Y-68578000D03*
D15*
X56450000Y-68578000D03*
X56450000Y-77218000D03*
D16*
X83080000Y-94600000D03*
D17*
X78000000Y-94600000D03*
D16*
X94680000Y-94600000D03*
D17*
X89600000Y-94600000D03*
D16*
X127000000Y-58039000D03*
D17*
X127000000Y-63119000D03*
D16*
X127000000Y-81026000D03*
D17*
X127000000Y-86106000D03*
D16*
X106275000Y-94615000D03*
D17*
X101195000Y-94615000D03*
D16*
X117832000Y-94615000D03*
D17*
X112752000Y-94615000D03*
D16*
X127000000Y-69469000D03*
D17*
X127000000Y-74549000D03*
D18*
X72715000Y-94626000D03*
X70175000Y-94626000D03*
X67635000Y-94626000D03*
D19*
X65095000Y-94626000D03*
D18*
X59500000Y-88120000D03*
X59500000Y-85580000D03*
X59500000Y-83040000D03*
D19*
X59500000Y-80500000D03*
D20*
X118745000Y-65913000D03*
D21*
X112903000Y-70739000D03*
D20*
X116459000Y-73533000D03*
D21*
X120523000Y-82804000D03*
X113157000Y-85344000D03*
X112014000Y-76835000D03*
X118237000Y-88011000D03*
D22*
X123063000Y-72517000D03*
X123063000Y-75565000D03*
D20*
X106172000Y-78359000D03*
D21*
X66700000Y-65900000D03*
X64200000Y-61800000D03*
X101400000Y-78900000D03*
D20*
X82490302Y-77309698D03*
X99400000Y-78800000D03*
X78000000Y-82000000D03*
X79000000Y-82000000D03*
X80000000Y-82000000D03*
X81000000Y-82000000D03*
X81000000Y-83000000D03*
X81000000Y-84000000D03*
X81000000Y-85000000D03*
X82000000Y-85000000D03*
X83000000Y-85000000D03*
X83000000Y-86000000D03*
X83000000Y-87000000D03*
X83000000Y-88000000D03*
X84000000Y-88000000D03*
X85000000Y-88000000D03*
X86000000Y-88000000D03*
X87000000Y-88000000D03*
X87000000Y-87000000D03*
X87000000Y-86000000D03*
X87000000Y-85000000D03*
X88000000Y-85000000D03*
X88000000Y-84000000D03*
X88000000Y-83000000D03*
X88000000Y-82000000D03*
X89000000Y-82000000D03*
X90000000Y-82000000D03*
X91000000Y-82000000D03*
X92000000Y-82000000D03*
X93000000Y-82000000D03*
X93000000Y-83000000D03*
X93000000Y-84000000D03*
X93000000Y-85000000D03*
X94000000Y-85000000D03*
X94000000Y-86000000D03*
X94000000Y-87000000D03*
X95000000Y-87000000D03*
X96000000Y-87000000D03*
X96000000Y-86000000D03*
X96000000Y-85000000D03*
X97000000Y-85000000D03*
X98000000Y-85000000D03*
X98000000Y-84000000D03*
X98000000Y-83000000D03*
X98000000Y-82000000D03*
X99000000Y-82000000D03*
X100000000Y-82000000D03*
X101000000Y-82000000D03*
X102000000Y-82000000D03*
X103000000Y-82000000D03*
X103000000Y-83000000D03*
X103000000Y-84000000D03*
X104000000Y-84000000D03*
X105000000Y-84000000D03*
X106000000Y-84000000D03*
X106000000Y-83000000D03*
X105000000Y-83000000D03*
X105000000Y-82000000D03*
X104000000Y-81000000D03*
X103000000Y-80000000D03*
X103000000Y-81000000D03*
X102000000Y-81000000D03*
X101000000Y-81000000D03*
X100000000Y-81000000D03*
X99000000Y-81000000D03*
X98000000Y-81000000D03*
X98000000Y-80000000D03*
X97000000Y-80000000D03*
X97000000Y-79000000D03*
X96000000Y-79000000D03*
X95000000Y-79000000D03*
X94000000Y-79000000D03*
X93000000Y-79000000D03*
X92000000Y-79000000D03*
X91000000Y-79000000D03*
X90000000Y-79000000D03*
X89000000Y-79000000D03*
X88000000Y-79000000D03*
X87000000Y-79000000D03*
X86000000Y-79000000D03*
X85000000Y-79000000D03*
X84000000Y-79000000D03*
X83000000Y-79000000D03*
X82000000Y-79000000D03*
X81000000Y-79000000D03*
X80000000Y-80000000D03*
X79000000Y-81000000D03*
X104000000Y-83000000D03*
X104000000Y-82000000D03*
X97000000Y-81000000D03*
X97000000Y-82000000D03*
X97000000Y-83000000D03*
X97000000Y-84000000D03*
X96000000Y-84000000D03*
X96000000Y-83000000D03*
X96000000Y-82000000D03*
X96000000Y-81000000D03*
X96000000Y-80000000D03*
X95000000Y-80000000D03*
X95000000Y-81000000D03*
X95000000Y-82000000D03*
X95000000Y-83000000D03*
X95000000Y-84000000D03*
X95000000Y-85000000D03*
X95000000Y-86000000D03*
X94000000Y-84000000D03*
X94000000Y-83000000D03*
X94000000Y-82000000D03*
X94000000Y-81000000D03*
X94000000Y-80000000D03*
X93000000Y-80000000D03*
X93000000Y-81000000D03*
X92000000Y-81000000D03*
X92000000Y-80000000D03*
X91000000Y-80000000D03*
X91000000Y-81000000D03*
X90000000Y-81000000D03*
X90000000Y-80000000D03*
X89000000Y-80000000D03*
X89000000Y-81000000D03*
X88000000Y-81000000D03*
X88000000Y-80000000D03*
X87000000Y-80000000D03*
X87000000Y-81000000D03*
X87000000Y-82000000D03*
X87000000Y-83000000D03*
X87000000Y-84000000D03*
X86000000Y-84000000D03*
X86000000Y-85000000D03*
X86000000Y-86000000D03*
X86000000Y-87000000D03*
X85000000Y-87000000D03*
X85000000Y-86000000D03*
X85000000Y-85000000D03*
X85000000Y-84000000D03*
X85000000Y-83000000D03*
X86000000Y-83000000D03*
X86000000Y-82000000D03*
X85000000Y-82000000D03*
X85000000Y-81000000D03*
X86000000Y-81000000D03*
X86000000Y-80000000D03*
X85000000Y-80000000D03*
X84000000Y-80000000D03*
X83000000Y-80000000D03*
X82000000Y-80000000D03*
X81000000Y-80000000D03*
X80000000Y-81000000D03*
X81000000Y-81000000D03*
X82000000Y-81000000D03*
X83000000Y-81000000D03*
X84000000Y-81000000D03*
X84000000Y-82000000D03*
X83000000Y-82000000D03*
X82000000Y-82000000D03*
X82000000Y-83000000D03*
X83000000Y-83000000D03*
X84000000Y-83000000D03*
X84000000Y-84000000D03*
X83000000Y-84000000D03*
X82000000Y-84000000D03*
X84000000Y-85000000D03*
X84000000Y-86000000D03*
X84000000Y-87000000D03*
D22*
X78700000Y-73500000D03*
D20*
X67800000Y-71900000D03*
X88100000Y-66900000D03*
X92200000Y-66800000D03*
X91200000Y-66800000D03*
X90200000Y-66800000D03*
X89200000Y-66900000D03*
D21*
X85400000Y-76682600D03*
D22*
X97100000Y-57500000D03*
D21*
X79300000Y-57400000D03*
D20*
X78400000Y-60500000D03*
X120650000Y-66929000D03*
X110744000Y-75057000D03*
X106426000Y-72644000D03*
D21*
X64200000Y-60000000D03*
D22*
X78200000Y-65150000D03*
D21*
X79300000Y-58900000D03*
D20*
X115988563Y-77808223D03*
X116205000Y-67310000D03*
X116205000Y-64262000D03*
D22*
X130683000Y-68453000D03*
X130683000Y-71247000D03*
X130683000Y-73914000D03*
X130683000Y-65786000D03*
D20*
X114046000Y-87249000D03*
D21*
X115189000Y-84836000D03*
D20*
X102616000Y-68326000D03*
X102616000Y-74422000D03*
X103378000Y-74803000D03*
X106045000Y-76962000D03*
X104300000Y-68600000D03*
X70000000Y-57000000D03*
X68700000Y-57000000D03*
X79900000Y-72200000D03*
X101200000Y-75100000D03*
X101854000Y-62484000D03*
X68100000Y-62000000D03*
X69500000Y-62000000D03*
X102700000Y-62400000D03*
X80650000Y-68700000D03*
X62200000Y-83700000D03*
X80650000Y-67400000D03*
X68000000Y-91500000D03*
X105029000Y-74803000D03*
X106553000Y-76327000D03*
X105100000Y-69000000D03*
D22*
X63800000Y-69900000D03*
D21*
X67500000Y-74250000D03*
D20*
X64700000Y-72200000D03*
X64700000Y-73600000D03*
X66400000Y-72100000D03*
X65000000Y-66250000D03*
X77600000Y-62900000D03*
X66800000Y-69000000D03*
X78500000Y-62900000D03*
X107100602Y-83780002D03*
X91600000Y-84000000D03*
X95600000Y-72900000D03*
X84100000Y-72400000D03*
X80900000Y-65800000D03*
X80900000Y-64500000D03*
X80900000Y-63400000D03*
D23*
X112025939Y-50617021D02*
X112015000Y-50718250D01*
X112173750Y-50877000D01*
X112777000Y-50877000D01*
X112777000Y-50750000D01*
X114223000Y-50750000D01*
X114223000Y-50877000D01*
X114350000Y-50877000D01*
X114350000Y-52323000D01*
X114223000Y-52323000D01*
X114223000Y-52926250D01*
X114381750Y-53085000D01*
X114465962Y-53077446D01*
X114586142Y-53042767D01*
X114697248Y-52985308D01*
X114795009Y-52907278D01*
X114875669Y-52811674D01*
X114936127Y-52702172D01*
X114961703Y-52621810D01*
X115093368Y-52753475D01*
X115336589Y-52915990D01*
X115606842Y-53027932D01*
X115893740Y-53085000D01*
X116186260Y-53085000D01*
X116473158Y-53027932D01*
X116743411Y-52915990D01*
X116986632Y-52753475D01*
X117193475Y-52546632D01*
X117310000Y-52372240D01*
X117426525Y-52546632D01*
X117633368Y-52753475D01*
X117876589Y-52915990D01*
X118146842Y-53027932D01*
X118433740Y-53085000D01*
X118726260Y-53085000D01*
X119013158Y-53027932D01*
X119283411Y-52915990D01*
X119526632Y-52753475D01*
X119733475Y-52546632D01*
X119850000Y-52372240D01*
X119966525Y-52546632D01*
X120173368Y-52753475D01*
X120416589Y-52915990D01*
X120686842Y-53027932D01*
X120973740Y-53085000D01*
X121010707Y-53085000D01*
X120926916Y-78673000D01*
X107053973Y-78673000D01*
X107071068Y-78631729D01*
X107107000Y-78451089D01*
X107107000Y-78266911D01*
X107071068Y-78086271D01*
X107000586Y-77916111D01*
X106898262Y-77762972D01*
X106768028Y-77632738D01*
X106725181Y-77604109D01*
X106771262Y-77558028D01*
X106873586Y-77404889D01*
X106944068Y-77234729D01*
X106956571Y-77171872D01*
X106995889Y-77155586D01*
X107149028Y-77053262D01*
X107279262Y-76923028D01*
X107381586Y-76769889D01*
X107401246Y-76722424D01*
X110871000Y-76722424D01*
X110871000Y-76947576D01*
X110914925Y-77168401D01*
X111001087Y-77376413D01*
X111126174Y-77563620D01*
X111285380Y-77722826D01*
X111472587Y-77847913D01*
X111680599Y-77934075D01*
X111901424Y-77978000D01*
X112126576Y-77978000D01*
X112347401Y-77934075D01*
X112555413Y-77847913D01*
X112742620Y-77722826D01*
X112901826Y-77563620D01*
X113026913Y-77376413D01*
X113113075Y-77168401D01*
X113157000Y-76947576D01*
X113157000Y-76722424D01*
X113113075Y-76501599D01*
X113026913Y-76293587D01*
X112901826Y-76106380D01*
X112742620Y-75947174D01*
X112555413Y-75822087D01*
X112347401Y-75735925D01*
X112126576Y-75692000D01*
X111901424Y-75692000D01*
X111680599Y-75735925D01*
X111472587Y-75822087D01*
X111285380Y-75947174D01*
X111126174Y-76106380D01*
X111001087Y-76293587D01*
X110914925Y-76501599D01*
X110871000Y-76722424D01*
X107401246Y-76722424D01*
X107452068Y-76599729D01*
X107488000Y-76419089D01*
X107488000Y-76234911D01*
X107452068Y-76054271D01*
X107381586Y-75884111D01*
X107279262Y-75730972D01*
X107149028Y-75600738D01*
X106995889Y-75498414D01*
X106825729Y-75427932D01*
X106645089Y-75392000D01*
X106460911Y-75392000D01*
X106280271Y-75427932D01*
X106110111Y-75498414D01*
X105956972Y-75600738D01*
X105826738Y-75730972D01*
X105724414Y-75884111D01*
X105653932Y-76054271D01*
X105641429Y-76117128D01*
X105602111Y-76133414D01*
X105448972Y-76235738D01*
X105318738Y-76365972D01*
X105216414Y-76519111D01*
X105145932Y-76689271D01*
X105110000Y-76869911D01*
X105110000Y-77054089D01*
X105145932Y-77234729D01*
X105216414Y-77404889D01*
X105318738Y-77558028D01*
X105448972Y-77688262D01*
X105491819Y-77716891D01*
X105445738Y-77762972D01*
X105343414Y-77916111D01*
X105272932Y-78086271D01*
X105237000Y-78266911D01*
X105237000Y-78451089D01*
X105272932Y-78631729D01*
X105290027Y-78673000D01*
X102520240Y-78673000D01*
X102499075Y-78566599D01*
X102412913Y-78358587D01*
X102287826Y-78171380D01*
X102128620Y-78012174D01*
X101941413Y-77887087D01*
X101733401Y-77800925D01*
X101512576Y-77757000D01*
X101287424Y-77757000D01*
X101066599Y-77800925D01*
X100858587Y-77887087D01*
X100671380Y-78012174D01*
X100512174Y-78171380D01*
X100387087Y-78358587D01*
X100304955Y-78556869D01*
X100299068Y-78527271D01*
X100228586Y-78357111D01*
X100126262Y-78203972D01*
X99996028Y-78073738D01*
X99842889Y-77971414D01*
X99672729Y-77900932D01*
X99492089Y-77865000D01*
X99307911Y-77865000D01*
X99127271Y-77900932D01*
X98957111Y-77971414D01*
X98803972Y-78073738D01*
X98673738Y-78203972D01*
X98571414Y-78357111D01*
X98500932Y-78527271D01*
X98471944Y-78673000D01*
X97876588Y-78673000D01*
X97828586Y-78557111D01*
X97726262Y-78403972D01*
X97596028Y-78273738D01*
X97442889Y-78171414D01*
X97272729Y-78100932D01*
X97092089Y-78065000D01*
X96907911Y-78065000D01*
X96727271Y-78100932D01*
X96557111Y-78171414D01*
X96500000Y-78209574D01*
X96442889Y-78171414D01*
X96272729Y-78100932D01*
X96092089Y-78065000D01*
X95907911Y-78065000D01*
X95727271Y-78100932D01*
X95557111Y-78171414D01*
X95500000Y-78209574D01*
X95442889Y-78171414D01*
X95272729Y-78100932D01*
X95092089Y-78065000D01*
X94907911Y-78065000D01*
X94727271Y-78100932D01*
X94557111Y-78171414D01*
X94500000Y-78209574D01*
X94442889Y-78171414D01*
X94272729Y-78100932D01*
X94092089Y-78065000D01*
X93907911Y-78065000D01*
X93727271Y-78100932D01*
X93557111Y-78171414D01*
X93500000Y-78209574D01*
X93442889Y-78171414D01*
X93272729Y-78100932D01*
X93092089Y-78065000D01*
X92907911Y-78065000D01*
X92727271Y-78100932D01*
X92557111Y-78171414D01*
X92500000Y-78209574D01*
X92442889Y-78171414D01*
X92272729Y-78100932D01*
X92092089Y-78065000D01*
X91907911Y-78065000D01*
X91727271Y-78100932D01*
X91557111Y-78171414D01*
X91500000Y-78209574D01*
X91442889Y-78171414D01*
X91272729Y-78100932D01*
X91092089Y-78065000D01*
X90907911Y-78065000D01*
X90727271Y-78100932D01*
X90557111Y-78171414D01*
X90500000Y-78209574D01*
X90442889Y-78171414D01*
X90272729Y-78100932D01*
X90092089Y-78065000D01*
X89907911Y-78065000D01*
X89727271Y-78100932D01*
X89557111Y-78171414D01*
X89500000Y-78209574D01*
X89442889Y-78171414D01*
X89272729Y-78100932D01*
X89092089Y-78065000D01*
X88907911Y-78065000D01*
X88727271Y-78100932D01*
X88557111Y-78171414D01*
X88500000Y-78209574D01*
X88442889Y-78171414D01*
X88272729Y-78100932D01*
X88092089Y-78065000D01*
X87907911Y-78065000D01*
X87727271Y-78100932D01*
X87557111Y-78171414D01*
X87500000Y-78209574D01*
X87442889Y-78171414D01*
X87272729Y-78100932D01*
X87092089Y-78065000D01*
X86907911Y-78065000D01*
X86727271Y-78100932D01*
X86557111Y-78171414D01*
X86500000Y-78209574D01*
X86442889Y-78171414D01*
X86272729Y-78100932D01*
X86092089Y-78065000D01*
X85907911Y-78065000D01*
X85727271Y-78100932D01*
X85557111Y-78171414D01*
X85500000Y-78209574D01*
X85442889Y-78171414D01*
X85272729Y-78100932D01*
X85092089Y-78065000D01*
X84907911Y-78065000D01*
X84727271Y-78100932D01*
X84557111Y-78171414D01*
X84500000Y-78209574D01*
X84442889Y-78171414D01*
X84272729Y-78100932D01*
X84092089Y-78065000D01*
X83907911Y-78065000D01*
X83727271Y-78100932D01*
X83557111Y-78171414D01*
X83500000Y-78209574D01*
X83442889Y-78171414D01*
X83272729Y-78100932D01*
X83092089Y-78065000D01*
X83042868Y-78065000D01*
X83086330Y-78035960D01*
X83216564Y-77905726D01*
X83318888Y-77752587D01*
X83389370Y-77582427D01*
X83425302Y-77401787D01*
X83425302Y-77217609D01*
X83389370Y-77036969D01*
X83318888Y-76866809D01*
X83216564Y-76713670D01*
X83086330Y-76583436D01*
X83066258Y-76570024D01*
X84257000Y-76570024D01*
X84257000Y-76795176D01*
X84300925Y-77016001D01*
X84387087Y-77224013D01*
X84512174Y-77411220D01*
X84671380Y-77570426D01*
X84858587Y-77695513D01*
X85066599Y-77781675D01*
X85287424Y-77825600D01*
X85512576Y-77825600D01*
X85733401Y-77781675D01*
X85941413Y-77695513D01*
X86128620Y-77570426D01*
X86287826Y-77411220D01*
X86412913Y-77224013D01*
X86499075Y-77016001D01*
X86543000Y-76795176D01*
X86543000Y-76570024D01*
X86499075Y-76349199D01*
X86412913Y-76141187D01*
X86287826Y-75953980D01*
X86128620Y-75794774D01*
X85941413Y-75669687D01*
X85733401Y-75583525D01*
X85512576Y-75539600D01*
X85287424Y-75539600D01*
X85066599Y-75583525D01*
X84858587Y-75669687D01*
X84671380Y-75794774D01*
X84512174Y-75953980D01*
X84387087Y-76141187D01*
X84300925Y-76349199D01*
X84257000Y-76570024D01*
X83066258Y-76570024D01*
X82933191Y-76481112D01*
X82763031Y-76410630D01*
X82582391Y-76374698D01*
X82398213Y-76374698D01*
X82217573Y-76410630D01*
X82047413Y-76481112D01*
X81894274Y-76583436D01*
X81764040Y-76713670D01*
X81661716Y-76866809D01*
X81591234Y-77036969D01*
X81555302Y-77217609D01*
X81555302Y-77401787D01*
X81591234Y-77582427D01*
X81661716Y-77752587D01*
X81764040Y-77905726D01*
X81894274Y-78035960D01*
X81937736Y-78065000D01*
X81907911Y-78065000D01*
X81727271Y-78100932D01*
X81557111Y-78171414D01*
X81500000Y-78209574D01*
X81442889Y-78171414D01*
X81272729Y-78100932D01*
X81092089Y-78065000D01*
X80907911Y-78065000D01*
X80727271Y-78100932D01*
X80557111Y-78171414D01*
X80403972Y-78273738D01*
X80273738Y-78403972D01*
X80171414Y-78557111D01*
X80123412Y-78673000D01*
X67300000Y-78673000D01*
X67275224Y-78675440D01*
X67251399Y-78682667D01*
X67229443Y-78694403D01*
X67210197Y-78710197D01*
X67194403Y-78729443D01*
X67182667Y-78751399D01*
X67175440Y-78775224D01*
X67173000Y-78800000D01*
X67173000Y-84471299D01*
X67141335Y-84465000D01*
X66858665Y-84465000D01*
X66581426Y-84520147D01*
X66320273Y-84628320D01*
X66085241Y-84785363D01*
X65885363Y-84985241D01*
X65728320Y-85220273D01*
X65620147Y-85481426D01*
X65565000Y-85758665D01*
X65565000Y-86041335D01*
X65620147Y-86318574D01*
X65728320Y-86579727D01*
X65885363Y-86814759D01*
X66085241Y-87014637D01*
X66320273Y-87171680D01*
X66581426Y-87279853D01*
X66858665Y-87335000D01*
X67141335Y-87335000D01*
X67173000Y-87328701D01*
X67173000Y-91054737D01*
X67171414Y-91057111D01*
X67100932Y-91227271D01*
X67065000Y-91407911D01*
X67065000Y-91592089D01*
X67100932Y-91772729D01*
X67171414Y-91942889D01*
X67173000Y-91945263D01*
X67173000Y-92948907D01*
X67128919Y-92957675D01*
X66813169Y-93088463D01*
X66712557Y-93155690D01*
X66646185Y-93074815D01*
X66549494Y-92995463D01*
X66439180Y-92936498D01*
X66319482Y-92900188D01*
X66195000Y-92887928D01*
X66142750Y-92891000D01*
X65984000Y-93049750D01*
X65984000Y-93737000D01*
X66004000Y-93737000D01*
X66004000Y-94029809D01*
X65966675Y-94119919D01*
X65900000Y-94455117D01*
X65900000Y-94796883D01*
X65966675Y-95132081D01*
X66004000Y-95222191D01*
X66004000Y-95515000D01*
X65984000Y-95515000D01*
X65984000Y-96202250D01*
X66142750Y-96361000D01*
X66195000Y-96364072D01*
X66319482Y-96351812D01*
X66439180Y-96315502D01*
X66549494Y-96256537D01*
X66646185Y-96177185D01*
X66712557Y-96096310D01*
X66813169Y-96163537D01*
X67128919Y-96294325D01*
X67173000Y-96303093D01*
X67173000Y-99074344D01*
X58027135Y-99171640D01*
X58028120Y-98235000D01*
X58220128Y-98235000D01*
X58651925Y-98149110D01*
X59058669Y-97980631D01*
X59424729Y-97736038D01*
X59736038Y-97424729D01*
X59980631Y-97058669D01*
X60149110Y-96651925D01*
X60235000Y-96220128D01*
X60235000Y-95779872D01*
X60224285Y-95726000D01*
X63356928Y-95726000D01*
X63369188Y-95850482D01*
X63405498Y-95970180D01*
X63464463Y-96080494D01*
X63543815Y-96177185D01*
X63640506Y-96256537D01*
X63750820Y-96315502D01*
X63870518Y-96351812D01*
X63995000Y-96364072D01*
X64047250Y-96361000D01*
X64206000Y-96202250D01*
X64206000Y-95515000D01*
X63518750Y-95515000D01*
X63360000Y-95673750D01*
X63356928Y-95726000D01*
X60224285Y-95726000D01*
X60149110Y-95348075D01*
X59980631Y-94941331D01*
X59736038Y-94575271D01*
X59424729Y-94263962D01*
X59058669Y-94019369D01*
X58651925Y-93850890D01*
X58220128Y-93765000D01*
X58032818Y-93765000D01*
X58033069Y-93526000D01*
X63356928Y-93526000D01*
X63360000Y-93578250D01*
X63518750Y-93737000D01*
X64206000Y-93737000D01*
X64206000Y-93049750D01*
X64047250Y-92891000D01*
X63995000Y-92887928D01*
X63870518Y-92900188D01*
X63750820Y-92936498D01*
X63640506Y-92995463D01*
X63543815Y-93074815D01*
X63464463Y-93171506D01*
X63405498Y-93281820D01*
X63369188Y-93401518D01*
X63356928Y-93526000D01*
X58033069Y-93526000D01*
X58037770Y-89054536D01*
X58152337Y-89225998D01*
X58394002Y-89467663D01*
X58678169Y-89657537D01*
X58993919Y-89788325D01*
X59329117Y-89855000D01*
X59670883Y-89855000D01*
X60006081Y-89788325D01*
X60321831Y-89657537D01*
X60605998Y-89467663D01*
X60847663Y-89225998D01*
X61037537Y-88941831D01*
X61168325Y-88626081D01*
X61235000Y-88290883D01*
X61235000Y-87949117D01*
X61168325Y-87613919D01*
X61037537Y-87298169D01*
X60847663Y-87014002D01*
X60683661Y-86850000D01*
X60847663Y-86685998D01*
X61037537Y-86401831D01*
X61168325Y-86086081D01*
X61235000Y-85750883D01*
X61235000Y-85409117D01*
X61168325Y-85073919D01*
X61037537Y-84758169D01*
X60847663Y-84474002D01*
X60683661Y-84310000D01*
X60847663Y-84145998D01*
X61037537Y-83861831D01*
X61142714Y-83607911D01*
X61265000Y-83607911D01*
X61265000Y-83792089D01*
X61300932Y-83972729D01*
X61371414Y-84142889D01*
X61473738Y-84296028D01*
X61603972Y-84426262D01*
X61757111Y-84528586D01*
X61927271Y-84599068D01*
X62107911Y-84635000D01*
X62292089Y-84635000D01*
X62472729Y-84599068D01*
X62642889Y-84528586D01*
X62796028Y-84426262D01*
X62926262Y-84296028D01*
X63028586Y-84142889D01*
X63099068Y-83972729D01*
X63135000Y-83792089D01*
X63135000Y-83607911D01*
X63099068Y-83427271D01*
X63028586Y-83257111D01*
X62926262Y-83103972D01*
X62796028Y-82973738D01*
X62642889Y-82871414D01*
X62472729Y-82800932D01*
X62292089Y-82765000D01*
X62107911Y-82765000D01*
X61927271Y-82800932D01*
X61757111Y-82871414D01*
X61603972Y-82973738D01*
X61473738Y-83103972D01*
X61371414Y-83257111D01*
X61300932Y-83427271D01*
X61265000Y-83607911D01*
X61142714Y-83607911D01*
X61168325Y-83546081D01*
X61235000Y-83210883D01*
X61235000Y-82869117D01*
X61168325Y-82533919D01*
X61037537Y-82218169D01*
X60970310Y-82117557D01*
X61051185Y-82051185D01*
X61130537Y-81954494D01*
X61189502Y-81844180D01*
X61225812Y-81724482D01*
X61238072Y-81600000D01*
X61235000Y-81547750D01*
X61076250Y-81389000D01*
X60389000Y-81389000D01*
X60389000Y-81409000D01*
X60096191Y-81409000D01*
X60006081Y-81371675D01*
X59670883Y-81305000D01*
X59329117Y-81305000D01*
X58993919Y-81371675D01*
X58903809Y-81409000D01*
X58611000Y-81409000D01*
X58611000Y-81389000D01*
X58591000Y-81389000D01*
X58591000Y-79611000D01*
X58611000Y-79611000D01*
X58611000Y-78923750D01*
X60389000Y-78923750D01*
X60389000Y-79611000D01*
X61076250Y-79611000D01*
X61235000Y-79452250D01*
X61238072Y-79400000D01*
X61225812Y-79275518D01*
X61189502Y-79155820D01*
X61130537Y-79045506D01*
X61051185Y-78948815D01*
X60954494Y-78869463D01*
X60844180Y-78810498D01*
X60724482Y-78774188D01*
X60600000Y-78761928D01*
X60547750Y-78765000D01*
X60389000Y-78923750D01*
X58611000Y-78923750D01*
X58452250Y-78765000D01*
X58400000Y-78761928D01*
X58275518Y-78774188D01*
X58155820Y-78810498D01*
X58045506Y-78869463D01*
X58039000Y-78874802D01*
X58039000Y-77218000D01*
X58939509Y-77218000D01*
X58961423Y-77440499D01*
X59026324Y-77654447D01*
X59131716Y-77851623D01*
X59273551Y-78024449D01*
X59446377Y-78166284D01*
X59643553Y-78271676D01*
X59857501Y-78336577D01*
X60024248Y-78353000D01*
X61235752Y-78353000D01*
X61402499Y-78336577D01*
X61616447Y-78271676D01*
X61813623Y-78166284D01*
X61986449Y-78024449D01*
X62128284Y-77851623D01*
X62233676Y-77654447D01*
X62298577Y-77440499D01*
X62320491Y-77218000D01*
X62298577Y-76995501D01*
X62233676Y-76781553D01*
X62128284Y-76584377D01*
X61986449Y-76411551D01*
X61813623Y-76269716D01*
X61616447Y-76164324D01*
X61402499Y-76099423D01*
X61235752Y-76083000D01*
X61016904Y-76083000D01*
X61023108Y-76068022D01*
X61060000Y-75882552D01*
X61060000Y-75693448D01*
X61023108Y-75507978D01*
X60950741Y-75333269D01*
X60845681Y-75176036D01*
X60711964Y-75042319D01*
X60554731Y-74937259D01*
X60380022Y-74864892D01*
X60194552Y-74828000D01*
X60005448Y-74828000D01*
X59819978Y-74864892D01*
X59645269Y-74937259D01*
X59488036Y-75042319D01*
X59354319Y-75176036D01*
X59249259Y-75333269D01*
X59176892Y-75507978D01*
X59140000Y-75693448D01*
X59140000Y-75882552D01*
X59176892Y-76068022D01*
X59249259Y-76242731D01*
X59330715Y-76364638D01*
X59273551Y-76411551D01*
X59131716Y-76584377D01*
X59026324Y-76781553D01*
X58961423Y-76995501D01*
X58939509Y-77218000D01*
X58039000Y-77218000D01*
X58039000Y-68578000D01*
X58939509Y-68578000D01*
X58961423Y-68800499D01*
X59026324Y-69014447D01*
X59131716Y-69211623D01*
X59273551Y-69384449D01*
X59330715Y-69431362D01*
X59249259Y-69553269D01*
X59176892Y-69727978D01*
X59140000Y-69913448D01*
X59140000Y-70102552D01*
X59176892Y-70288022D01*
X59249259Y-70462731D01*
X59354319Y-70619964D01*
X59488036Y-70753681D01*
X59645269Y-70858741D01*
X59819978Y-70931108D01*
X60005448Y-70968000D01*
X60194552Y-70968000D01*
X60380022Y-70931108D01*
X60554731Y-70858741D01*
X60711964Y-70753681D01*
X60845681Y-70619964D01*
X60950741Y-70462731D01*
X61023108Y-70288022D01*
X61060000Y-70102552D01*
X61060000Y-69913448D01*
X61024981Y-69737391D01*
X62149000Y-69737391D01*
X62149000Y-70062609D01*
X62212447Y-70381579D01*
X62336903Y-70682042D01*
X62517585Y-70952451D01*
X62747549Y-71182415D01*
X63017958Y-71363097D01*
X63318421Y-71487553D01*
X63637391Y-71551000D01*
X63962609Y-71551000D01*
X64042626Y-71535084D01*
X63973738Y-71603972D01*
X63871414Y-71757111D01*
X63800932Y-71927271D01*
X63765000Y-72107911D01*
X63765000Y-72292089D01*
X63800932Y-72472729D01*
X63871414Y-72642889D01*
X63973738Y-72796028D01*
X64077710Y-72900000D01*
X63973738Y-73003972D01*
X63871414Y-73157111D01*
X63800932Y-73327271D01*
X63765000Y-73507911D01*
X63765000Y-73692089D01*
X63800932Y-73872729D01*
X63871414Y-74042889D01*
X63973738Y-74196028D01*
X64103972Y-74326262D01*
X64257111Y-74428586D01*
X64427271Y-74499068D01*
X64607911Y-74535000D01*
X64792089Y-74535000D01*
X64972729Y-74499068D01*
X65142889Y-74428586D01*
X65296028Y-74326262D01*
X65426262Y-74196028D01*
X65465419Y-74137424D01*
X66357000Y-74137424D01*
X66357000Y-74362576D01*
X66400925Y-74583401D01*
X66487087Y-74791413D01*
X66612174Y-74978620D01*
X66771380Y-75137826D01*
X66958587Y-75262913D01*
X67166599Y-75349075D01*
X67387424Y-75393000D01*
X67612576Y-75393000D01*
X67833401Y-75349075D01*
X68041413Y-75262913D01*
X68228620Y-75137826D01*
X68387826Y-74978620D01*
X68512913Y-74791413D01*
X68599075Y-74583401D01*
X68643000Y-74362576D01*
X68643000Y-74137424D01*
X68599075Y-73916599D01*
X68512913Y-73708587D01*
X68387826Y-73521380D01*
X68228620Y-73362174D01*
X68191530Y-73337391D01*
X77049000Y-73337391D01*
X77049000Y-73662609D01*
X77112447Y-73981579D01*
X77236903Y-74282042D01*
X77417585Y-74552451D01*
X77647549Y-74782415D01*
X77917958Y-74963097D01*
X78218421Y-75087553D01*
X78537391Y-75151000D01*
X78862609Y-75151000D01*
X79181579Y-75087553D01*
X79373851Y-75007911D01*
X100265000Y-75007911D01*
X100265000Y-75192089D01*
X100300932Y-75372729D01*
X100371414Y-75542889D01*
X100473738Y-75696028D01*
X100603972Y-75826262D01*
X100757111Y-75928586D01*
X100927271Y-75999068D01*
X101107911Y-76035000D01*
X101292089Y-76035000D01*
X101472729Y-75999068D01*
X101642889Y-75928586D01*
X101796028Y-75826262D01*
X101926262Y-75696028D01*
X102028586Y-75542889D01*
X102099068Y-75372729D01*
X102129200Y-75221246D01*
X102173111Y-75250586D01*
X102343271Y-75321068D01*
X102523911Y-75357000D01*
X102623656Y-75357000D01*
X102651738Y-75399028D01*
X102781972Y-75529262D01*
X102935111Y-75631586D01*
X103105271Y-75702068D01*
X103285911Y-75738000D01*
X103470089Y-75738000D01*
X103650729Y-75702068D01*
X103820889Y-75631586D01*
X103974028Y-75529262D01*
X104104262Y-75399028D01*
X104203500Y-75250508D01*
X104302738Y-75399028D01*
X104432972Y-75529262D01*
X104586111Y-75631586D01*
X104756271Y-75702068D01*
X104936911Y-75738000D01*
X105121089Y-75738000D01*
X105301729Y-75702068D01*
X105471889Y-75631586D01*
X105625028Y-75529262D01*
X105755262Y-75399028D01*
X105857586Y-75245889D01*
X105928068Y-75075729D01*
X105964000Y-74895089D01*
X105964000Y-74710911D01*
X105928068Y-74530271D01*
X105857586Y-74360111D01*
X105755262Y-74206972D01*
X105625028Y-74076738D01*
X105471889Y-73974414D01*
X105301729Y-73903932D01*
X105121089Y-73868000D01*
X104936911Y-73868000D01*
X104756271Y-73903932D01*
X104586111Y-73974414D01*
X104432972Y-74076738D01*
X104302738Y-74206972D01*
X104203500Y-74355492D01*
X104104262Y-74206972D01*
X103974028Y-74076738D01*
X103820889Y-73974414D01*
X103650729Y-73903932D01*
X103470089Y-73868000D01*
X103370344Y-73868000D01*
X103342262Y-73825972D01*
X103212028Y-73695738D01*
X103058889Y-73593414D01*
X102888729Y-73522932D01*
X102708089Y-73487000D01*
X102523911Y-73487000D01*
X102343271Y-73522932D01*
X102173111Y-73593414D01*
X102019972Y-73695738D01*
X101889738Y-73825972D01*
X101787414Y-73979111D01*
X101716932Y-74149271D01*
X101686800Y-74300754D01*
X101642889Y-74271414D01*
X101472729Y-74200932D01*
X101292089Y-74165000D01*
X101107911Y-74165000D01*
X100927271Y-74200932D01*
X100757111Y-74271414D01*
X100603972Y-74373738D01*
X100473738Y-74503972D01*
X100371414Y-74657111D01*
X100300932Y-74827271D01*
X100265000Y-75007911D01*
X79373851Y-75007911D01*
X79482042Y-74963097D01*
X79752451Y-74782415D01*
X79982415Y-74552451D01*
X80163097Y-74282042D01*
X80287553Y-73981579D01*
X80351000Y-73662609D01*
X80351000Y-73337391D01*
X80293633Y-73048988D01*
X80342889Y-73028586D01*
X80496028Y-72926262D01*
X80626262Y-72796028D01*
X80728586Y-72642889D01*
X80799068Y-72472729D01*
X80831852Y-72307911D01*
X83165000Y-72307911D01*
X83165000Y-72492089D01*
X83200932Y-72672729D01*
X83271414Y-72842889D01*
X83373738Y-72996028D01*
X83503972Y-73126262D01*
X83657111Y-73228586D01*
X83827271Y-73299068D01*
X84007911Y-73335000D01*
X84192089Y-73335000D01*
X84372729Y-73299068D01*
X84542889Y-73228586D01*
X84696028Y-73126262D01*
X84826262Y-72996028D01*
X84928586Y-72842889D01*
X84943074Y-72807911D01*
X94665000Y-72807911D01*
X94665000Y-72992089D01*
X94700932Y-73172729D01*
X94771414Y-73342889D01*
X94873738Y-73496028D01*
X95003972Y-73626262D01*
X95157111Y-73728586D01*
X95327271Y-73799068D01*
X95507911Y-73835000D01*
X95692089Y-73835000D01*
X95872729Y-73799068D01*
X96042889Y-73728586D01*
X96196028Y-73626262D01*
X96326262Y-73496028D01*
X96363089Y-73440911D01*
X115524000Y-73440911D01*
X115524000Y-73625089D01*
X115559932Y-73805729D01*
X115630414Y-73975889D01*
X115732738Y-74129028D01*
X115862972Y-74259262D01*
X116016111Y-74361586D01*
X116186271Y-74432068D01*
X116366911Y-74468000D01*
X116551089Y-74468000D01*
X116731729Y-74432068D01*
X116901889Y-74361586D01*
X117055028Y-74259262D01*
X117185262Y-74129028D01*
X117287586Y-73975889D01*
X117358068Y-73805729D01*
X117394000Y-73625089D01*
X117394000Y-73440911D01*
X117358068Y-73260271D01*
X117287586Y-73090111D01*
X117185262Y-72936972D01*
X117055028Y-72806738D01*
X116901889Y-72704414D01*
X116731729Y-72633932D01*
X116551089Y-72598000D01*
X116366911Y-72598000D01*
X116186271Y-72633932D01*
X116016111Y-72704414D01*
X115862972Y-72806738D01*
X115732738Y-72936972D01*
X115630414Y-73090111D01*
X115559932Y-73260271D01*
X115524000Y-73440911D01*
X96363089Y-73440911D01*
X96428586Y-73342889D01*
X96499068Y-73172729D01*
X96535000Y-72992089D01*
X96535000Y-72807911D01*
X96499068Y-72627271D01*
X96428586Y-72457111D01*
X96326262Y-72303972D01*
X96196028Y-72173738D01*
X96042889Y-72071414D01*
X95872729Y-72000932D01*
X95692089Y-71965000D01*
X95507911Y-71965000D01*
X95327271Y-72000932D01*
X95157111Y-72071414D01*
X95003972Y-72173738D01*
X94873738Y-72303972D01*
X94771414Y-72457111D01*
X94700932Y-72627271D01*
X94665000Y-72807911D01*
X84943074Y-72807911D01*
X84999068Y-72672729D01*
X85035000Y-72492089D01*
X85035000Y-72307911D01*
X84999068Y-72127271D01*
X84928586Y-71957111D01*
X84826262Y-71803972D01*
X84696028Y-71673738D01*
X84542889Y-71571414D01*
X84372729Y-71500932D01*
X84192089Y-71465000D01*
X84007911Y-71465000D01*
X83827271Y-71500932D01*
X83657111Y-71571414D01*
X83503972Y-71673738D01*
X83373738Y-71803972D01*
X83271414Y-71957111D01*
X83200932Y-72127271D01*
X83165000Y-72307911D01*
X80831852Y-72307911D01*
X80835000Y-72292089D01*
X80835000Y-72107911D01*
X80799068Y-71927271D01*
X80728586Y-71757111D01*
X80626262Y-71603972D01*
X80496028Y-71473738D01*
X80342889Y-71371414D01*
X80172729Y-71300932D01*
X79992089Y-71265000D01*
X79807911Y-71265000D01*
X79627271Y-71300932D01*
X79457111Y-71371414D01*
X79303972Y-71473738D01*
X79173738Y-71603972D01*
X79071414Y-71757111D01*
X79020356Y-71880378D01*
X78862609Y-71849000D01*
X78537391Y-71849000D01*
X78218421Y-71912447D01*
X77917958Y-72036903D01*
X77647549Y-72217585D01*
X77417585Y-72447549D01*
X77236903Y-72717958D01*
X77112447Y-73018421D01*
X77049000Y-73337391D01*
X68191530Y-73337391D01*
X68041413Y-73237087D01*
X67833401Y-73150925D01*
X67612576Y-73107000D01*
X67387424Y-73107000D01*
X67166599Y-73150925D01*
X66958587Y-73237087D01*
X66771380Y-73362174D01*
X66612174Y-73521380D01*
X66487087Y-73708587D01*
X66400925Y-73916599D01*
X66357000Y-74137424D01*
X65465419Y-74137424D01*
X65528586Y-74042889D01*
X65599068Y-73872729D01*
X65635000Y-73692089D01*
X65635000Y-73507911D01*
X65599068Y-73327271D01*
X65528586Y-73157111D01*
X65426262Y-73003972D01*
X65322290Y-72900000D01*
X65426262Y-72796028D01*
X65528586Y-72642889D01*
X65570711Y-72541191D01*
X65571414Y-72542889D01*
X65673738Y-72696028D01*
X65803972Y-72826262D01*
X65957111Y-72928586D01*
X66127271Y-72999068D01*
X66307911Y-73035000D01*
X66492089Y-73035000D01*
X66672729Y-72999068D01*
X66842889Y-72928586D01*
X66996028Y-72826262D01*
X67126262Y-72696028D01*
X67185333Y-72607623D01*
X67203972Y-72626262D01*
X67357111Y-72728586D01*
X67527271Y-72799068D01*
X67707911Y-72835000D01*
X67892089Y-72835000D01*
X68072729Y-72799068D01*
X68242889Y-72728586D01*
X68396028Y-72626262D01*
X68526262Y-72496028D01*
X68628586Y-72342889D01*
X68699068Y-72172729D01*
X68735000Y-71992089D01*
X68735000Y-71807911D01*
X68699068Y-71627271D01*
X68628586Y-71457111D01*
X68526262Y-71303972D01*
X68396028Y-71173738D01*
X68242889Y-71071414D01*
X68072729Y-71000932D01*
X67892089Y-70965000D01*
X67707911Y-70965000D01*
X67527271Y-71000932D01*
X67357111Y-71071414D01*
X67203972Y-71173738D01*
X67073738Y-71303972D01*
X67014667Y-71392377D01*
X66996028Y-71373738D01*
X66842889Y-71271414D01*
X66672729Y-71200932D01*
X66492089Y-71165000D01*
X66307911Y-71165000D01*
X66127271Y-71200932D01*
X65957111Y-71271414D01*
X65803972Y-71373738D01*
X65673738Y-71503972D01*
X65571414Y-71657111D01*
X65529289Y-71758809D01*
X65528586Y-71757111D01*
X65426262Y-71603972D01*
X65296028Y-71473738D01*
X65142889Y-71371414D01*
X64972729Y-71300932D01*
X64792089Y-71265000D01*
X64728854Y-71265000D01*
X64852451Y-71182415D01*
X65082415Y-70952451D01*
X65263097Y-70682042D01*
X65286134Y-70626424D01*
X111760000Y-70626424D01*
X111760000Y-70851576D01*
X111803925Y-71072401D01*
X111890087Y-71280413D01*
X112015174Y-71467620D01*
X112174380Y-71626826D01*
X112361587Y-71751913D01*
X112569599Y-71838075D01*
X112790424Y-71882000D01*
X113015576Y-71882000D01*
X113236401Y-71838075D01*
X113444413Y-71751913D01*
X113631620Y-71626826D01*
X113790826Y-71467620D01*
X113915913Y-71280413D01*
X114002075Y-71072401D01*
X114046000Y-70851576D01*
X114046000Y-70626424D01*
X114002075Y-70405599D01*
X113915913Y-70197587D01*
X113790826Y-70010380D01*
X113631620Y-69851174D01*
X113444413Y-69726087D01*
X113236401Y-69639925D01*
X113015576Y-69596000D01*
X112790424Y-69596000D01*
X112569599Y-69639925D01*
X112361587Y-69726087D01*
X112174380Y-69851174D01*
X112015174Y-70010380D01*
X111890087Y-70197587D01*
X111803925Y-70405599D01*
X111760000Y-70626424D01*
X65286134Y-70626424D01*
X65387553Y-70381579D01*
X65451000Y-70062609D01*
X65451000Y-69737391D01*
X65387553Y-69418421D01*
X65263097Y-69117958D01*
X65122748Y-68907911D01*
X65865000Y-68907911D01*
X65865000Y-69092089D01*
X65900932Y-69272729D01*
X65971414Y-69442889D01*
X66073738Y-69596028D01*
X66203972Y-69726262D01*
X66357111Y-69828586D01*
X66527271Y-69899068D01*
X66707911Y-69935000D01*
X66892089Y-69935000D01*
X67072729Y-69899068D01*
X67242889Y-69828586D01*
X67396028Y-69726262D01*
X67526262Y-69596028D01*
X67628586Y-69442889D01*
X67699068Y-69272729D01*
X67735000Y-69092089D01*
X67735000Y-68907911D01*
X67699068Y-68727271D01*
X67628586Y-68557111D01*
X67526262Y-68403972D01*
X67396028Y-68273738D01*
X67242889Y-68171414D01*
X67072729Y-68100932D01*
X66892089Y-68065000D01*
X66707911Y-68065000D01*
X66527271Y-68100932D01*
X66357111Y-68171414D01*
X66203972Y-68273738D01*
X66073738Y-68403972D01*
X65971414Y-68557111D01*
X65900932Y-68727271D01*
X65865000Y-68907911D01*
X65122748Y-68907911D01*
X65082415Y-68847549D01*
X64852451Y-68617585D01*
X64582042Y-68436903D01*
X64281579Y-68312447D01*
X63962609Y-68249000D01*
X63637391Y-68249000D01*
X63318421Y-68312447D01*
X63017958Y-68436903D01*
X62747549Y-68617585D01*
X62517585Y-68847549D01*
X62336903Y-69117958D01*
X62212447Y-69418421D01*
X62149000Y-69737391D01*
X61024981Y-69737391D01*
X61023108Y-69727978D01*
X61016904Y-69713000D01*
X61235752Y-69713000D01*
X61402499Y-69696577D01*
X61616447Y-69631676D01*
X61813623Y-69526284D01*
X61986449Y-69384449D01*
X62128284Y-69211623D01*
X62233676Y-69014447D01*
X62298577Y-68800499D01*
X62320491Y-68578000D01*
X62298577Y-68355501D01*
X62233676Y-68141553D01*
X62128284Y-67944377D01*
X61986449Y-67771551D01*
X61813623Y-67629716D01*
X61616447Y-67524324D01*
X61402499Y-67459423D01*
X61235752Y-67443000D01*
X60024248Y-67443000D01*
X59857501Y-67459423D01*
X59643553Y-67524324D01*
X59446377Y-67629716D01*
X59273551Y-67771551D01*
X59131716Y-67944377D01*
X59026324Y-68141553D01*
X58961423Y-68355501D01*
X58939509Y-68578000D01*
X58039000Y-68578000D01*
X58039000Y-67307911D01*
X79715000Y-67307911D01*
X79715000Y-67492089D01*
X79750932Y-67672729D01*
X79821414Y-67842889D01*
X79923738Y-67996028D01*
X79977710Y-68050000D01*
X79923738Y-68103972D01*
X79821414Y-68257111D01*
X79750932Y-68427271D01*
X79715000Y-68607911D01*
X79715000Y-68792089D01*
X79750932Y-68972729D01*
X79821414Y-69142889D01*
X79923738Y-69296028D01*
X80053972Y-69426262D01*
X80207111Y-69528586D01*
X80377271Y-69599068D01*
X80557911Y-69635000D01*
X80742089Y-69635000D01*
X80922729Y-69599068D01*
X81092889Y-69528586D01*
X81246028Y-69426262D01*
X81376262Y-69296028D01*
X81478586Y-69142889D01*
X81549068Y-68972729D01*
X81585000Y-68792089D01*
X81585000Y-68607911D01*
X81549068Y-68427271D01*
X81478586Y-68257111D01*
X81463085Y-68233911D01*
X101681000Y-68233911D01*
X101681000Y-68418089D01*
X101716932Y-68598729D01*
X101787414Y-68768889D01*
X101889738Y-68922028D01*
X102019972Y-69052262D01*
X102173111Y-69154586D01*
X102343271Y-69225068D01*
X102523911Y-69261000D01*
X102708089Y-69261000D01*
X102888729Y-69225068D01*
X103058889Y-69154586D01*
X103212028Y-69052262D01*
X103342262Y-68922028D01*
X103395030Y-68843056D01*
X103400932Y-68872729D01*
X103471414Y-69042889D01*
X103573738Y-69196028D01*
X103703972Y-69326262D01*
X103857111Y-69428586D01*
X104027271Y-69499068D01*
X104207911Y-69535000D01*
X104332960Y-69535000D01*
X104373738Y-69596028D01*
X104503972Y-69726262D01*
X104657111Y-69828586D01*
X104827271Y-69899068D01*
X105007911Y-69935000D01*
X105192089Y-69935000D01*
X105372729Y-69899068D01*
X105542889Y-69828586D01*
X105696028Y-69726262D01*
X105826262Y-69596028D01*
X105928586Y-69442889D01*
X105999068Y-69272729D01*
X106035000Y-69092089D01*
X106035000Y-68907911D01*
X105999068Y-68727271D01*
X105928586Y-68557111D01*
X105826262Y-68403972D01*
X105696028Y-68273738D01*
X105542889Y-68171414D01*
X105372729Y-68100932D01*
X105192089Y-68065000D01*
X105067040Y-68065000D01*
X105026262Y-68003972D01*
X104896028Y-67873738D01*
X104742889Y-67771414D01*
X104572729Y-67700932D01*
X104392089Y-67665000D01*
X104207911Y-67665000D01*
X104027271Y-67700932D01*
X103857111Y-67771414D01*
X103703972Y-67873738D01*
X103573738Y-68003972D01*
X103520970Y-68082944D01*
X103515068Y-68053271D01*
X103444586Y-67883111D01*
X103342262Y-67729972D01*
X103212028Y-67599738D01*
X103058889Y-67497414D01*
X102888729Y-67426932D01*
X102708089Y-67391000D01*
X102523911Y-67391000D01*
X102343271Y-67426932D01*
X102173111Y-67497414D01*
X102019972Y-67599738D01*
X101889738Y-67729972D01*
X101787414Y-67883111D01*
X101716932Y-68053271D01*
X101681000Y-68233911D01*
X81463085Y-68233911D01*
X81376262Y-68103972D01*
X81322290Y-68050000D01*
X81376262Y-67996028D01*
X81478586Y-67842889D01*
X81549068Y-67672729D01*
X81585000Y-67492089D01*
X81585000Y-67307911D01*
X81549068Y-67127271D01*
X81478586Y-66957111D01*
X81378894Y-66807911D01*
X87165000Y-66807911D01*
X87165000Y-66992089D01*
X87200932Y-67172729D01*
X87271414Y-67342889D01*
X87373738Y-67496028D01*
X87503972Y-67626262D01*
X87657111Y-67728586D01*
X87827271Y-67799068D01*
X88007911Y-67835000D01*
X88192089Y-67835000D01*
X88372729Y-67799068D01*
X88542889Y-67728586D01*
X88650000Y-67657017D01*
X88757111Y-67728586D01*
X88927271Y-67799068D01*
X89107911Y-67835000D01*
X89292089Y-67835000D01*
X89472729Y-67799068D01*
X89642889Y-67728586D01*
X89778988Y-67637648D01*
X89927271Y-67699068D01*
X90107911Y-67735000D01*
X90292089Y-67735000D01*
X90472729Y-67699068D01*
X90642889Y-67628586D01*
X90700000Y-67590426D01*
X90757111Y-67628586D01*
X90927271Y-67699068D01*
X91107911Y-67735000D01*
X91292089Y-67735000D01*
X91472729Y-67699068D01*
X91642889Y-67628586D01*
X91700000Y-67590426D01*
X91757111Y-67628586D01*
X91927271Y-67699068D01*
X92107911Y-67735000D01*
X92292089Y-67735000D01*
X92472729Y-67699068D01*
X92642889Y-67628586D01*
X92796028Y-67526262D01*
X92926262Y-67396028D01*
X93028586Y-67242889D01*
X93038932Y-67217911D01*
X115270000Y-67217911D01*
X115270000Y-67402089D01*
X115305932Y-67582729D01*
X115376414Y-67752889D01*
X115478738Y-67906028D01*
X115608972Y-68036262D01*
X115762111Y-68138586D01*
X115932271Y-68209068D01*
X116112911Y-68245000D01*
X116297089Y-68245000D01*
X116477729Y-68209068D01*
X116647889Y-68138586D01*
X116801028Y-68036262D01*
X116931262Y-67906028D01*
X117033586Y-67752889D01*
X117104068Y-67582729D01*
X117140000Y-67402089D01*
X117140000Y-67217911D01*
X117104068Y-67037271D01*
X117033586Y-66867111D01*
X116931262Y-66713972D01*
X116801028Y-66583738D01*
X116647889Y-66481414D01*
X116477729Y-66410932D01*
X116297089Y-66375000D01*
X116112911Y-66375000D01*
X115932271Y-66410932D01*
X115762111Y-66481414D01*
X115608972Y-66583738D01*
X115478738Y-66713972D01*
X115376414Y-66867111D01*
X115305932Y-67037271D01*
X115270000Y-67217911D01*
X93038932Y-67217911D01*
X93099068Y-67072729D01*
X93135000Y-66892089D01*
X93135000Y-66707911D01*
X93099068Y-66527271D01*
X93028586Y-66357111D01*
X92926262Y-66203972D01*
X92796028Y-66073738D01*
X92642889Y-65971414D01*
X92472729Y-65900932D01*
X92292089Y-65865000D01*
X92107911Y-65865000D01*
X91927271Y-65900932D01*
X91757111Y-65971414D01*
X91700000Y-66009574D01*
X91642889Y-65971414D01*
X91472729Y-65900932D01*
X91292089Y-65865000D01*
X91107911Y-65865000D01*
X90927271Y-65900932D01*
X90757111Y-65971414D01*
X90700000Y-66009574D01*
X90642889Y-65971414D01*
X90472729Y-65900932D01*
X90292089Y-65865000D01*
X90107911Y-65865000D01*
X89927271Y-65900932D01*
X89757111Y-65971414D01*
X89621012Y-66062352D01*
X89472729Y-66000932D01*
X89292089Y-65965000D01*
X89107911Y-65965000D01*
X88927271Y-66000932D01*
X88757111Y-66071414D01*
X88650000Y-66142983D01*
X88542889Y-66071414D01*
X88372729Y-66000932D01*
X88192089Y-65965000D01*
X88007911Y-65965000D01*
X87827271Y-66000932D01*
X87657111Y-66071414D01*
X87503972Y-66173738D01*
X87373738Y-66303972D01*
X87271414Y-66457111D01*
X87200932Y-66627271D01*
X87165000Y-66807911D01*
X81378894Y-66807911D01*
X81376262Y-66803972D01*
X81246028Y-66673738D01*
X81241380Y-66670632D01*
X81342889Y-66628586D01*
X81496028Y-66526262D01*
X81626262Y-66396028D01*
X81728586Y-66242889D01*
X81799068Y-66072729D01*
X81835000Y-65892089D01*
X81835000Y-65820911D01*
X117810000Y-65820911D01*
X117810000Y-66005089D01*
X117845932Y-66185729D01*
X117916414Y-66355889D01*
X118018738Y-66509028D01*
X118148972Y-66639262D01*
X118302111Y-66741586D01*
X118472271Y-66812068D01*
X118652911Y-66848000D01*
X118837089Y-66848000D01*
X119017729Y-66812068D01*
X119187889Y-66741586D01*
X119341028Y-66639262D01*
X119471262Y-66509028D01*
X119573586Y-66355889D01*
X119644068Y-66185729D01*
X119680000Y-66005089D01*
X119680000Y-65820911D01*
X119644068Y-65640271D01*
X119573586Y-65470111D01*
X119471262Y-65316972D01*
X119341028Y-65186738D01*
X119187889Y-65084414D01*
X119017729Y-65013932D01*
X118837089Y-64978000D01*
X118652911Y-64978000D01*
X118472271Y-65013932D01*
X118302111Y-65084414D01*
X118148972Y-65186738D01*
X118018738Y-65316972D01*
X117916414Y-65470111D01*
X117845932Y-65640271D01*
X117810000Y-65820911D01*
X81835000Y-65820911D01*
X81835000Y-65707911D01*
X81799068Y-65527271D01*
X81728586Y-65357111D01*
X81626262Y-65203972D01*
X81572290Y-65150000D01*
X81626262Y-65096028D01*
X81728586Y-64942889D01*
X81799068Y-64772729D01*
X81835000Y-64592089D01*
X81835000Y-64407911D01*
X81799068Y-64227271D01*
X81775309Y-64169911D01*
X115270000Y-64169911D01*
X115270000Y-64354089D01*
X115305932Y-64534729D01*
X115376414Y-64704889D01*
X115478738Y-64858028D01*
X115608972Y-64988262D01*
X115762111Y-65090586D01*
X115932271Y-65161068D01*
X116112911Y-65197000D01*
X116297089Y-65197000D01*
X116477729Y-65161068D01*
X116647889Y-65090586D01*
X116801028Y-64988262D01*
X116931262Y-64858028D01*
X117033586Y-64704889D01*
X117104068Y-64534729D01*
X117140000Y-64354089D01*
X117140000Y-64169911D01*
X117104068Y-63989271D01*
X117033586Y-63819111D01*
X116931262Y-63665972D01*
X116801028Y-63535738D01*
X116647889Y-63433414D01*
X116477729Y-63362932D01*
X116297089Y-63327000D01*
X116112911Y-63327000D01*
X115932271Y-63362932D01*
X115762111Y-63433414D01*
X115608972Y-63535738D01*
X115478738Y-63665972D01*
X115376414Y-63819111D01*
X115305932Y-63989271D01*
X115270000Y-64169911D01*
X81775309Y-64169911D01*
X81728586Y-64057111D01*
X81657017Y-63950000D01*
X81728586Y-63842889D01*
X81799068Y-63672729D01*
X81835000Y-63492089D01*
X81835000Y-63307911D01*
X81799068Y-63127271D01*
X81728586Y-62957111D01*
X81626262Y-62803972D01*
X81496028Y-62673738D01*
X81342889Y-62571414D01*
X81172729Y-62500932D01*
X80992089Y-62465000D01*
X80807911Y-62465000D01*
X80627271Y-62500932D01*
X80457111Y-62571414D01*
X80303972Y-62673738D01*
X80173738Y-62803972D01*
X80071414Y-62957111D01*
X80000932Y-63127271D01*
X79965000Y-63307911D01*
X79965000Y-63492089D01*
X80000932Y-63672729D01*
X80071414Y-63842889D01*
X80142983Y-63950000D01*
X80071414Y-64057111D01*
X80000932Y-64227271D01*
X79965000Y-64407911D01*
X79965000Y-64592089D01*
X80000932Y-64772729D01*
X80071414Y-64942889D01*
X80173738Y-65096028D01*
X80227710Y-65150000D01*
X80173738Y-65203972D01*
X80071414Y-65357111D01*
X80000932Y-65527271D01*
X79965000Y-65707911D01*
X79965000Y-65892089D01*
X80000932Y-66072729D01*
X80071414Y-66242889D01*
X80173738Y-66396028D01*
X80303972Y-66526262D01*
X80308620Y-66529368D01*
X80207111Y-66571414D01*
X80053972Y-66673738D01*
X79923738Y-66803972D01*
X79821414Y-66957111D01*
X79750932Y-67127271D01*
X79715000Y-67307911D01*
X58039000Y-67307911D01*
X58039000Y-66157911D01*
X64065000Y-66157911D01*
X64065000Y-66342089D01*
X64100932Y-66522729D01*
X64171414Y-66692889D01*
X64273738Y-66846028D01*
X64403972Y-66976262D01*
X64557111Y-67078586D01*
X64727271Y-67149068D01*
X64907911Y-67185000D01*
X65092089Y-67185000D01*
X65272729Y-67149068D01*
X65442889Y-67078586D01*
X65596028Y-66976262D01*
X65726262Y-66846028D01*
X65828586Y-66692889D01*
X65842603Y-66659049D01*
X65971380Y-66787826D01*
X66158587Y-66912913D01*
X66366599Y-66999075D01*
X66587424Y-67043000D01*
X66812576Y-67043000D01*
X67033401Y-66999075D01*
X67241413Y-66912913D01*
X67428620Y-66787826D01*
X67587826Y-66628620D01*
X67712913Y-66441413D01*
X67799075Y-66233401D01*
X67843000Y-66012576D01*
X67843000Y-65787424D01*
X67799075Y-65566599D01*
X67712913Y-65358587D01*
X67587826Y-65171380D01*
X67428620Y-65012174D01*
X67241413Y-64887087D01*
X67033401Y-64800925D01*
X66812576Y-64757000D01*
X66587424Y-64757000D01*
X66366599Y-64800925D01*
X66158587Y-64887087D01*
X65971380Y-65012174D01*
X65812174Y-65171380D01*
X65687087Y-65358587D01*
X65612044Y-65539754D01*
X65596028Y-65523738D01*
X65442889Y-65421414D01*
X65272729Y-65350932D01*
X65092089Y-65315000D01*
X64907911Y-65315000D01*
X64727271Y-65350932D01*
X64557111Y-65421414D01*
X64403972Y-65523738D01*
X64273738Y-65653972D01*
X64171414Y-65807111D01*
X64100932Y-65977271D01*
X64065000Y-66157911D01*
X58039000Y-66157911D01*
X58039000Y-61687424D01*
X63057000Y-61687424D01*
X63057000Y-61912576D01*
X63100925Y-62133401D01*
X63187087Y-62341413D01*
X63312174Y-62528620D01*
X63471380Y-62687826D01*
X63658587Y-62812913D01*
X63866599Y-62899075D01*
X64087424Y-62943000D01*
X64312576Y-62943000D01*
X64533401Y-62899075D01*
X64741413Y-62812913D01*
X64928620Y-62687826D01*
X65087826Y-62528620D01*
X65212913Y-62341413D01*
X65299075Y-62133401D01*
X65343000Y-61912576D01*
X65343000Y-61907911D01*
X67165000Y-61907911D01*
X67165000Y-62092089D01*
X67200932Y-62272729D01*
X67271414Y-62442889D01*
X67373738Y-62596028D01*
X67503972Y-62726262D01*
X67657111Y-62828586D01*
X67827271Y-62899068D01*
X68007911Y-62935000D01*
X68192089Y-62935000D01*
X68372729Y-62899068D01*
X68542889Y-62828586D01*
X68696028Y-62726262D01*
X68800000Y-62622290D01*
X68903972Y-62726262D01*
X69057111Y-62828586D01*
X69227271Y-62899068D01*
X69407911Y-62935000D01*
X69592089Y-62935000D01*
X69772729Y-62899068D01*
X69942889Y-62828586D01*
X69973831Y-62807911D01*
X76665000Y-62807911D01*
X76665000Y-62992089D01*
X76700932Y-63172729D01*
X76771414Y-63342889D01*
X76873738Y-63496028D01*
X77003972Y-63626262D01*
X77157111Y-63728586D01*
X77327271Y-63799068D01*
X77507911Y-63835000D01*
X77692089Y-63835000D01*
X77872729Y-63799068D01*
X78042889Y-63728586D01*
X78050000Y-63723835D01*
X78057111Y-63728586D01*
X78227271Y-63799068D01*
X78407911Y-63835000D01*
X78592089Y-63835000D01*
X78772729Y-63799068D01*
X78942889Y-63728586D01*
X79096028Y-63626262D01*
X79226262Y-63496028D01*
X79328586Y-63342889D01*
X79399068Y-63172729D01*
X79435000Y-62992089D01*
X79435000Y-62807911D01*
X79399068Y-62627271D01*
X79328586Y-62457111D01*
X79285021Y-62391911D01*
X100919000Y-62391911D01*
X100919000Y-62576089D01*
X100954932Y-62756729D01*
X101025414Y-62926889D01*
X101127738Y-63080028D01*
X101257972Y-63210262D01*
X101411111Y-63312586D01*
X101581271Y-63383068D01*
X101761911Y-63419000D01*
X101946089Y-63419000D01*
X102126729Y-63383068D01*
X102296889Y-63312586D01*
X102359273Y-63270902D01*
X102427271Y-63299068D01*
X102607911Y-63335000D01*
X102792089Y-63335000D01*
X102972729Y-63299068D01*
X103142889Y-63228586D01*
X103296028Y-63126262D01*
X103426262Y-62996028D01*
X103528586Y-62842889D01*
X103599068Y-62672729D01*
X103635000Y-62492089D01*
X103635000Y-62307911D01*
X103599068Y-62127271D01*
X103528586Y-61957111D01*
X103426262Y-61803972D01*
X103296028Y-61673738D01*
X103142889Y-61571414D01*
X102972729Y-61500932D01*
X102792089Y-61465000D01*
X102607911Y-61465000D01*
X102427271Y-61500932D01*
X102257111Y-61571414D01*
X102194727Y-61613098D01*
X102126729Y-61584932D01*
X101946089Y-61549000D01*
X101761911Y-61549000D01*
X101581271Y-61584932D01*
X101411111Y-61655414D01*
X101257972Y-61757738D01*
X101127738Y-61887972D01*
X101025414Y-62041111D01*
X100954932Y-62211271D01*
X100919000Y-62391911D01*
X79285021Y-62391911D01*
X79226262Y-62303972D01*
X79096028Y-62173738D01*
X78942889Y-62071414D01*
X78772729Y-62000932D01*
X78592089Y-61965000D01*
X78407911Y-61965000D01*
X78227271Y-62000932D01*
X78057111Y-62071414D01*
X78050000Y-62076165D01*
X78042889Y-62071414D01*
X77872729Y-62000932D01*
X77692089Y-61965000D01*
X77507911Y-61965000D01*
X77327271Y-62000932D01*
X77157111Y-62071414D01*
X77003972Y-62173738D01*
X76873738Y-62303972D01*
X76771414Y-62457111D01*
X76700932Y-62627271D01*
X76665000Y-62807911D01*
X69973831Y-62807911D01*
X70096028Y-62726262D01*
X70226262Y-62596028D01*
X70328586Y-62442889D01*
X70399068Y-62272729D01*
X70435000Y-62092089D01*
X70435000Y-61907911D01*
X70399068Y-61727271D01*
X70328586Y-61557111D01*
X70226262Y-61403972D01*
X70096028Y-61273738D01*
X69942889Y-61171414D01*
X69772729Y-61100932D01*
X69592089Y-61065000D01*
X69407911Y-61065000D01*
X69227271Y-61100932D01*
X69057111Y-61171414D01*
X68903972Y-61273738D01*
X68800000Y-61377710D01*
X68696028Y-61273738D01*
X68542889Y-61171414D01*
X68372729Y-61100932D01*
X68192089Y-61065000D01*
X68007911Y-61065000D01*
X67827271Y-61100932D01*
X67657111Y-61171414D01*
X67503972Y-61273738D01*
X67373738Y-61403972D01*
X67271414Y-61557111D01*
X67200932Y-61727271D01*
X67165000Y-61907911D01*
X65343000Y-61907911D01*
X65343000Y-61687424D01*
X65299075Y-61466599D01*
X65212913Y-61258587D01*
X65087826Y-61071380D01*
X64928620Y-60912174D01*
X64741413Y-60787087D01*
X64533401Y-60700925D01*
X64312576Y-60657000D01*
X64087424Y-60657000D01*
X63866599Y-60700925D01*
X63658587Y-60787087D01*
X63471380Y-60912174D01*
X63312174Y-61071380D01*
X63187087Y-61258587D01*
X63100925Y-61466599D01*
X63057000Y-61687424D01*
X58039000Y-61687424D01*
X58039000Y-60407911D01*
X77465000Y-60407911D01*
X77465000Y-60592089D01*
X77500932Y-60772729D01*
X77571414Y-60942889D01*
X77673738Y-61096028D01*
X77803972Y-61226262D01*
X77957111Y-61328586D01*
X78127271Y-61399068D01*
X78307911Y-61435000D01*
X78492089Y-61435000D01*
X78672729Y-61399068D01*
X78842889Y-61328586D01*
X78996028Y-61226262D01*
X79126262Y-61096028D01*
X79228586Y-60942889D01*
X79299068Y-60772729D01*
X79335000Y-60592089D01*
X79335000Y-60407911D01*
X79299068Y-60227271D01*
X79228586Y-60057111D01*
X79126262Y-59903972D01*
X78996028Y-59773738D01*
X78842889Y-59671414D01*
X78672729Y-59600932D01*
X78492089Y-59565000D01*
X78307911Y-59565000D01*
X78127271Y-59600932D01*
X77957111Y-59671414D01*
X77803972Y-59773738D01*
X77673738Y-59903972D01*
X77571414Y-60057111D01*
X77500932Y-60227271D01*
X77465000Y-60407911D01*
X58039000Y-60407911D01*
X58039000Y-56642000D01*
X67836252Y-56642000D01*
X67800932Y-56727271D01*
X67765000Y-56907911D01*
X67765000Y-57092089D01*
X67800932Y-57272729D01*
X67871414Y-57442889D01*
X67973738Y-57596028D01*
X68103972Y-57726262D01*
X68257111Y-57828586D01*
X68427271Y-57899068D01*
X68607911Y-57935000D01*
X68792089Y-57935000D01*
X68972729Y-57899068D01*
X69142889Y-57828586D01*
X69296028Y-57726262D01*
X69350000Y-57672290D01*
X69403972Y-57726262D01*
X69557111Y-57828586D01*
X69727271Y-57899068D01*
X69907911Y-57935000D01*
X70092089Y-57935000D01*
X70272729Y-57899068D01*
X70442889Y-57828586D01*
X70596028Y-57726262D01*
X70726262Y-57596028D01*
X70828586Y-57442889D01*
X70899068Y-57272729D01*
X70935000Y-57092089D01*
X70935000Y-56907911D01*
X70899068Y-56727271D01*
X70863748Y-56642000D01*
X77190726Y-56642000D01*
X77198446Y-56646571D01*
X77213190Y-56651757D01*
X77226980Y-56659128D01*
X77279066Y-56674928D01*
X77330379Y-56692977D01*
X77345849Y-56695187D01*
X77360816Y-56699727D01*
X77414977Y-56705061D01*
X77468832Y-56712754D01*
X77519330Y-56710000D01*
X78386369Y-56710000D01*
X78287087Y-56858587D01*
X78200925Y-57066599D01*
X78157000Y-57287424D01*
X78157000Y-57512576D01*
X78200925Y-57733401D01*
X78287087Y-57941413D01*
X78412174Y-58128620D01*
X78571380Y-58287826D01*
X78758587Y-58412913D01*
X78966599Y-58499075D01*
X79187424Y-58543000D01*
X79412576Y-58543000D01*
X79633401Y-58499075D01*
X79841413Y-58412913D01*
X80028620Y-58287826D01*
X80187826Y-58128620D01*
X80312913Y-57941413D01*
X80399075Y-57733401D01*
X80443000Y-57512576D01*
X80443000Y-57287424D01*
X80399075Y-57066599D01*
X80312913Y-56858587D01*
X80213631Y-56710000D01*
X95642220Y-56710000D01*
X95636903Y-56717958D01*
X95512447Y-57018421D01*
X95449000Y-57337391D01*
X95449000Y-57662609D01*
X95512447Y-57981579D01*
X95636903Y-58282042D01*
X95817585Y-58552451D01*
X96047549Y-58782415D01*
X96317958Y-58963097D01*
X96618421Y-59087553D01*
X96937391Y-59151000D01*
X97262609Y-59151000D01*
X97581579Y-59087553D01*
X97882042Y-58963097D01*
X98152451Y-58782415D01*
X98382415Y-58552451D01*
X98563097Y-58282042D01*
X98687553Y-57981579D01*
X98751000Y-57662609D01*
X98751000Y-57337391D01*
X98687553Y-57018421D01*
X98563097Y-56717958D01*
X98557780Y-56710000D01*
X104980669Y-56710000D01*
X105031167Y-56712754D01*
X105085028Y-56705061D01*
X105139184Y-56699727D01*
X105154146Y-56695188D01*
X105169620Y-56692978D01*
X105220939Y-56674927D01*
X105273020Y-56659128D01*
X105286812Y-56651756D01*
X105301553Y-56646571D01*
X105309273Y-56642000D01*
X107950000Y-56642000D01*
X107974776Y-56639560D01*
X107998601Y-56632333D01*
X108020557Y-56620597D01*
X108039803Y-56604803D01*
X108055597Y-56585557D01*
X108067333Y-56563601D01*
X108074560Y-56539776D01*
X108076994Y-56516184D01*
X108114600Y-52481750D01*
X112015000Y-52481750D01*
X112025939Y-52582979D01*
X112063873Y-52702172D01*
X112124331Y-52811674D01*
X112204991Y-52907278D01*
X112302752Y-52985308D01*
X112413858Y-53042767D01*
X112534038Y-53077446D01*
X112618250Y-53085000D01*
X112777000Y-52926250D01*
X112777000Y-52323000D01*
X112173750Y-52323000D01*
X112015000Y-52481750D01*
X108114600Y-52481750D01*
X108132821Y-50527000D01*
X112054589Y-50527000D01*
X112025939Y-50617021D01*
G04 #@! TA.AperFunction,Conductor*
D24*
G36*
X112025939Y-50617021D02*
G01*
X112015000Y-50718250D01*
X112173750Y-50877000D01*
X112777000Y-50877000D01*
X112777000Y-50750000D01*
X114223000Y-50750000D01*
X114223000Y-50877000D01*
X114350000Y-50877000D01*
X114350000Y-52323000D01*
X114223000Y-52323000D01*
X114223000Y-52926250D01*
X114381750Y-53085000D01*
X114465962Y-53077446D01*
X114586142Y-53042767D01*
X114697248Y-52985308D01*
X114795009Y-52907278D01*
X114875669Y-52811674D01*
X114936127Y-52702172D01*
X114961703Y-52621810D01*
X115093368Y-52753475D01*
X115336589Y-52915990D01*
X115606842Y-53027932D01*
X115893740Y-53085000D01*
X116186260Y-53085000D01*
X116473158Y-53027932D01*
X116743411Y-52915990D01*
X116986632Y-52753475D01*
X117193475Y-52546632D01*
X117310000Y-52372240D01*
X117426525Y-52546632D01*
X117633368Y-52753475D01*
X117876589Y-52915990D01*
X118146842Y-53027932D01*
X118433740Y-53085000D01*
X118726260Y-53085000D01*
X119013158Y-53027932D01*
X119283411Y-52915990D01*
X119526632Y-52753475D01*
X119733475Y-52546632D01*
X119850000Y-52372240D01*
X119966525Y-52546632D01*
X120173368Y-52753475D01*
X120416589Y-52915990D01*
X120686842Y-53027932D01*
X120973740Y-53085000D01*
X121010707Y-53085000D01*
X120926916Y-78673000D01*
X107053973Y-78673000D01*
X107071068Y-78631729D01*
X107107000Y-78451089D01*
X107107000Y-78266911D01*
X107071068Y-78086271D01*
X107000586Y-77916111D01*
X106898262Y-77762972D01*
X106768028Y-77632738D01*
X106725181Y-77604109D01*
X106771262Y-77558028D01*
X106873586Y-77404889D01*
X106944068Y-77234729D01*
X106956571Y-77171872D01*
X106995889Y-77155586D01*
X107149028Y-77053262D01*
X107279262Y-76923028D01*
X107381586Y-76769889D01*
X107401246Y-76722424D01*
X110871000Y-76722424D01*
X110871000Y-76947576D01*
X110914925Y-77168401D01*
X111001087Y-77376413D01*
X111126174Y-77563620D01*
X111285380Y-77722826D01*
X111472587Y-77847913D01*
X111680599Y-77934075D01*
X111901424Y-77978000D01*
X112126576Y-77978000D01*
X112347401Y-77934075D01*
X112555413Y-77847913D01*
X112742620Y-77722826D01*
X112901826Y-77563620D01*
X113026913Y-77376413D01*
X113113075Y-77168401D01*
X113157000Y-76947576D01*
X113157000Y-76722424D01*
X113113075Y-76501599D01*
X113026913Y-76293587D01*
X112901826Y-76106380D01*
X112742620Y-75947174D01*
X112555413Y-75822087D01*
X112347401Y-75735925D01*
X112126576Y-75692000D01*
X111901424Y-75692000D01*
X111680599Y-75735925D01*
X111472587Y-75822087D01*
X111285380Y-75947174D01*
X111126174Y-76106380D01*
X111001087Y-76293587D01*
X110914925Y-76501599D01*
X110871000Y-76722424D01*
X107401246Y-76722424D01*
X107452068Y-76599729D01*
X107488000Y-76419089D01*
X107488000Y-76234911D01*
X107452068Y-76054271D01*
X107381586Y-75884111D01*
X107279262Y-75730972D01*
X107149028Y-75600738D01*
X106995889Y-75498414D01*
X106825729Y-75427932D01*
X106645089Y-75392000D01*
X106460911Y-75392000D01*
X106280271Y-75427932D01*
X106110111Y-75498414D01*
X105956972Y-75600738D01*
X105826738Y-75730972D01*
X105724414Y-75884111D01*
X105653932Y-76054271D01*
X105641429Y-76117128D01*
X105602111Y-76133414D01*
X105448972Y-76235738D01*
X105318738Y-76365972D01*
X105216414Y-76519111D01*
X105145932Y-76689271D01*
X105110000Y-76869911D01*
X105110000Y-77054089D01*
X105145932Y-77234729D01*
X105216414Y-77404889D01*
X105318738Y-77558028D01*
X105448972Y-77688262D01*
X105491819Y-77716891D01*
X105445738Y-77762972D01*
X105343414Y-77916111D01*
X105272932Y-78086271D01*
X105237000Y-78266911D01*
X105237000Y-78451089D01*
X105272932Y-78631729D01*
X105290027Y-78673000D01*
X102520240Y-78673000D01*
X102499075Y-78566599D01*
X102412913Y-78358587D01*
X102287826Y-78171380D01*
X102128620Y-78012174D01*
X101941413Y-77887087D01*
X101733401Y-77800925D01*
X101512576Y-77757000D01*
X101287424Y-77757000D01*
X101066599Y-77800925D01*
X100858587Y-77887087D01*
X100671380Y-78012174D01*
X100512174Y-78171380D01*
X100387087Y-78358587D01*
X100304955Y-78556869D01*
X100299068Y-78527271D01*
X100228586Y-78357111D01*
X100126262Y-78203972D01*
X99996028Y-78073738D01*
X99842889Y-77971414D01*
X99672729Y-77900932D01*
X99492089Y-77865000D01*
X99307911Y-77865000D01*
X99127271Y-77900932D01*
X98957111Y-77971414D01*
X98803972Y-78073738D01*
X98673738Y-78203972D01*
X98571414Y-78357111D01*
X98500932Y-78527271D01*
X98471944Y-78673000D01*
X97876588Y-78673000D01*
X97828586Y-78557111D01*
X97726262Y-78403972D01*
X97596028Y-78273738D01*
X97442889Y-78171414D01*
X97272729Y-78100932D01*
X97092089Y-78065000D01*
X96907911Y-78065000D01*
X96727271Y-78100932D01*
X96557111Y-78171414D01*
X96500000Y-78209574D01*
X96442889Y-78171414D01*
X96272729Y-78100932D01*
X96092089Y-78065000D01*
X95907911Y-78065000D01*
X95727271Y-78100932D01*
X95557111Y-78171414D01*
X95500000Y-78209574D01*
X95442889Y-78171414D01*
X95272729Y-78100932D01*
X95092089Y-78065000D01*
X94907911Y-78065000D01*
X94727271Y-78100932D01*
X94557111Y-78171414D01*
X94500000Y-78209574D01*
X94442889Y-78171414D01*
X94272729Y-78100932D01*
X94092089Y-78065000D01*
X93907911Y-78065000D01*
X93727271Y-78100932D01*
X93557111Y-78171414D01*
X93500000Y-78209574D01*
X93442889Y-78171414D01*
X93272729Y-78100932D01*
X93092089Y-78065000D01*
X92907911Y-78065000D01*
X92727271Y-78100932D01*
X92557111Y-78171414D01*
X92500000Y-78209574D01*
X92442889Y-78171414D01*
X92272729Y-78100932D01*
X92092089Y-78065000D01*
X91907911Y-78065000D01*
X91727271Y-78100932D01*
X91557111Y-78171414D01*
X91500000Y-78209574D01*
X91442889Y-78171414D01*
X91272729Y-78100932D01*
X91092089Y-78065000D01*
X90907911Y-78065000D01*
X90727271Y-78100932D01*
X90557111Y-78171414D01*
X90500000Y-78209574D01*
X90442889Y-78171414D01*
X90272729Y-78100932D01*
X90092089Y-78065000D01*
X89907911Y-78065000D01*
X89727271Y-78100932D01*
X89557111Y-78171414D01*
X89500000Y-78209574D01*
X89442889Y-78171414D01*
X89272729Y-78100932D01*
X89092089Y-78065000D01*
X88907911Y-78065000D01*
X88727271Y-78100932D01*
X88557111Y-78171414D01*
X88500000Y-78209574D01*
X88442889Y-78171414D01*
X88272729Y-78100932D01*
X88092089Y-78065000D01*
X87907911Y-78065000D01*
X87727271Y-78100932D01*
X87557111Y-78171414D01*
X87500000Y-78209574D01*
X87442889Y-78171414D01*
X87272729Y-78100932D01*
X87092089Y-78065000D01*
X86907911Y-78065000D01*
X86727271Y-78100932D01*
X86557111Y-78171414D01*
X86500000Y-78209574D01*
X86442889Y-78171414D01*
X86272729Y-78100932D01*
X86092089Y-78065000D01*
X85907911Y-78065000D01*
X85727271Y-78100932D01*
X85557111Y-78171414D01*
X85500000Y-78209574D01*
X85442889Y-78171414D01*
X85272729Y-78100932D01*
X85092089Y-78065000D01*
X84907911Y-78065000D01*
X84727271Y-78100932D01*
X84557111Y-78171414D01*
X84500000Y-78209574D01*
X84442889Y-78171414D01*
X84272729Y-78100932D01*
X84092089Y-78065000D01*
X83907911Y-78065000D01*
X83727271Y-78100932D01*
X83557111Y-78171414D01*
X83500000Y-78209574D01*
X83442889Y-78171414D01*
X83272729Y-78100932D01*
X83092089Y-78065000D01*
X83042868Y-78065000D01*
X83086330Y-78035960D01*
X83216564Y-77905726D01*
X83318888Y-77752587D01*
X83389370Y-77582427D01*
X83425302Y-77401787D01*
X83425302Y-77217609D01*
X83389370Y-77036969D01*
X83318888Y-76866809D01*
X83216564Y-76713670D01*
X83086330Y-76583436D01*
X83066258Y-76570024D01*
X84257000Y-76570024D01*
X84257000Y-76795176D01*
X84300925Y-77016001D01*
X84387087Y-77224013D01*
X84512174Y-77411220D01*
X84671380Y-77570426D01*
X84858587Y-77695513D01*
X85066599Y-77781675D01*
X85287424Y-77825600D01*
X85512576Y-77825600D01*
X85733401Y-77781675D01*
X85941413Y-77695513D01*
X86128620Y-77570426D01*
X86287826Y-77411220D01*
X86412913Y-77224013D01*
X86499075Y-77016001D01*
X86543000Y-76795176D01*
X86543000Y-76570024D01*
X86499075Y-76349199D01*
X86412913Y-76141187D01*
X86287826Y-75953980D01*
X86128620Y-75794774D01*
X85941413Y-75669687D01*
X85733401Y-75583525D01*
X85512576Y-75539600D01*
X85287424Y-75539600D01*
X85066599Y-75583525D01*
X84858587Y-75669687D01*
X84671380Y-75794774D01*
X84512174Y-75953980D01*
X84387087Y-76141187D01*
X84300925Y-76349199D01*
X84257000Y-76570024D01*
X83066258Y-76570024D01*
X82933191Y-76481112D01*
X82763031Y-76410630D01*
X82582391Y-76374698D01*
X82398213Y-76374698D01*
X82217573Y-76410630D01*
X82047413Y-76481112D01*
X81894274Y-76583436D01*
X81764040Y-76713670D01*
X81661716Y-76866809D01*
X81591234Y-77036969D01*
X81555302Y-77217609D01*
X81555302Y-77401787D01*
X81591234Y-77582427D01*
X81661716Y-77752587D01*
X81764040Y-77905726D01*
X81894274Y-78035960D01*
X81937736Y-78065000D01*
X81907911Y-78065000D01*
X81727271Y-78100932D01*
X81557111Y-78171414D01*
X81500000Y-78209574D01*
X81442889Y-78171414D01*
X81272729Y-78100932D01*
X81092089Y-78065000D01*
X80907911Y-78065000D01*
X80727271Y-78100932D01*
X80557111Y-78171414D01*
X80403972Y-78273738D01*
X80273738Y-78403972D01*
X80171414Y-78557111D01*
X80123412Y-78673000D01*
X67300000Y-78673000D01*
X67275224Y-78675440D01*
X67251399Y-78682667D01*
X67229443Y-78694403D01*
X67210197Y-78710197D01*
X67194403Y-78729443D01*
X67182667Y-78751399D01*
X67175440Y-78775224D01*
X67173000Y-78800000D01*
X67173000Y-84471299D01*
X67141335Y-84465000D01*
X66858665Y-84465000D01*
X66581426Y-84520147D01*
X66320273Y-84628320D01*
X66085241Y-84785363D01*
X65885363Y-84985241D01*
X65728320Y-85220273D01*
X65620147Y-85481426D01*
X65565000Y-85758665D01*
X65565000Y-86041335D01*
X65620147Y-86318574D01*
X65728320Y-86579727D01*
X65885363Y-86814759D01*
X66085241Y-87014637D01*
X66320273Y-87171680D01*
X66581426Y-87279853D01*
X66858665Y-87335000D01*
X67141335Y-87335000D01*
X67173000Y-87328701D01*
X67173000Y-91054737D01*
X67171414Y-91057111D01*
X67100932Y-91227271D01*
X67065000Y-91407911D01*
X67065000Y-91592089D01*
X67100932Y-91772729D01*
X67171414Y-91942889D01*
X67173000Y-91945263D01*
X67173000Y-92948907D01*
X67128919Y-92957675D01*
X66813169Y-93088463D01*
X66712557Y-93155690D01*
X66646185Y-93074815D01*
X66549494Y-92995463D01*
X66439180Y-92936498D01*
X66319482Y-92900188D01*
X66195000Y-92887928D01*
X66142750Y-92891000D01*
X65984000Y-93049750D01*
X65984000Y-93737000D01*
X66004000Y-93737000D01*
X66004000Y-94029809D01*
X65966675Y-94119919D01*
X65900000Y-94455117D01*
X65900000Y-94796883D01*
X65966675Y-95132081D01*
X66004000Y-95222191D01*
X66004000Y-95515000D01*
X65984000Y-95515000D01*
X65984000Y-96202250D01*
X66142750Y-96361000D01*
X66195000Y-96364072D01*
X66319482Y-96351812D01*
X66439180Y-96315502D01*
X66549494Y-96256537D01*
X66646185Y-96177185D01*
X66712557Y-96096310D01*
X66813169Y-96163537D01*
X67128919Y-96294325D01*
X67173000Y-96303093D01*
X67173000Y-99074344D01*
X58027135Y-99171640D01*
X58028120Y-98235000D01*
X58220128Y-98235000D01*
X58651925Y-98149110D01*
X59058669Y-97980631D01*
X59424729Y-97736038D01*
X59736038Y-97424729D01*
X59980631Y-97058669D01*
X60149110Y-96651925D01*
X60235000Y-96220128D01*
X60235000Y-95779872D01*
X60224285Y-95726000D01*
X63356928Y-95726000D01*
X63369188Y-95850482D01*
X63405498Y-95970180D01*
X63464463Y-96080494D01*
X63543815Y-96177185D01*
X63640506Y-96256537D01*
X63750820Y-96315502D01*
X63870518Y-96351812D01*
X63995000Y-96364072D01*
X64047250Y-96361000D01*
X64206000Y-96202250D01*
X64206000Y-95515000D01*
X63518750Y-95515000D01*
X63360000Y-95673750D01*
X63356928Y-95726000D01*
X60224285Y-95726000D01*
X60149110Y-95348075D01*
X59980631Y-94941331D01*
X59736038Y-94575271D01*
X59424729Y-94263962D01*
X59058669Y-94019369D01*
X58651925Y-93850890D01*
X58220128Y-93765000D01*
X58032818Y-93765000D01*
X58033069Y-93526000D01*
X63356928Y-93526000D01*
X63360000Y-93578250D01*
X63518750Y-93737000D01*
X64206000Y-93737000D01*
X64206000Y-93049750D01*
X64047250Y-92891000D01*
X63995000Y-92887928D01*
X63870518Y-92900188D01*
X63750820Y-92936498D01*
X63640506Y-92995463D01*
X63543815Y-93074815D01*
X63464463Y-93171506D01*
X63405498Y-93281820D01*
X63369188Y-93401518D01*
X63356928Y-93526000D01*
X58033069Y-93526000D01*
X58037770Y-89054536D01*
X58152337Y-89225998D01*
X58394002Y-89467663D01*
X58678169Y-89657537D01*
X58993919Y-89788325D01*
X59329117Y-89855000D01*
X59670883Y-89855000D01*
X60006081Y-89788325D01*
X60321831Y-89657537D01*
X60605998Y-89467663D01*
X60847663Y-89225998D01*
X61037537Y-88941831D01*
X61168325Y-88626081D01*
X61235000Y-88290883D01*
X61235000Y-87949117D01*
X61168325Y-87613919D01*
X61037537Y-87298169D01*
X60847663Y-87014002D01*
X60683661Y-86850000D01*
X60847663Y-86685998D01*
X61037537Y-86401831D01*
X61168325Y-86086081D01*
X61235000Y-85750883D01*
X61235000Y-85409117D01*
X61168325Y-85073919D01*
X61037537Y-84758169D01*
X60847663Y-84474002D01*
X60683661Y-84310000D01*
X60847663Y-84145998D01*
X61037537Y-83861831D01*
X61142714Y-83607911D01*
X61265000Y-83607911D01*
X61265000Y-83792089D01*
X61300932Y-83972729D01*
X61371414Y-84142889D01*
X61473738Y-84296028D01*
X61603972Y-84426262D01*
X61757111Y-84528586D01*
X61927271Y-84599068D01*
X62107911Y-84635000D01*
X62292089Y-84635000D01*
X62472729Y-84599068D01*
X62642889Y-84528586D01*
X62796028Y-84426262D01*
X62926262Y-84296028D01*
X63028586Y-84142889D01*
X63099068Y-83972729D01*
X63135000Y-83792089D01*
X63135000Y-83607911D01*
X63099068Y-83427271D01*
X63028586Y-83257111D01*
X62926262Y-83103972D01*
X62796028Y-82973738D01*
X62642889Y-82871414D01*
X62472729Y-82800932D01*
X62292089Y-82765000D01*
X62107911Y-82765000D01*
X61927271Y-82800932D01*
X61757111Y-82871414D01*
X61603972Y-82973738D01*
X61473738Y-83103972D01*
X61371414Y-83257111D01*
X61300932Y-83427271D01*
X61265000Y-83607911D01*
X61142714Y-83607911D01*
X61168325Y-83546081D01*
X61235000Y-83210883D01*
X61235000Y-82869117D01*
X61168325Y-82533919D01*
X61037537Y-82218169D01*
X60970310Y-82117557D01*
X61051185Y-82051185D01*
X61130537Y-81954494D01*
X61189502Y-81844180D01*
X61225812Y-81724482D01*
X61238072Y-81600000D01*
X61235000Y-81547750D01*
X61076250Y-81389000D01*
X60389000Y-81389000D01*
X60389000Y-81409000D01*
X60096191Y-81409000D01*
X60006081Y-81371675D01*
X59670883Y-81305000D01*
X59329117Y-81305000D01*
X58993919Y-81371675D01*
X58903809Y-81409000D01*
X58611000Y-81409000D01*
X58611000Y-81389000D01*
X58591000Y-81389000D01*
X58591000Y-79611000D01*
X58611000Y-79611000D01*
X58611000Y-78923750D01*
X60389000Y-78923750D01*
X60389000Y-79611000D01*
X61076250Y-79611000D01*
X61235000Y-79452250D01*
X61238072Y-79400000D01*
X61225812Y-79275518D01*
X61189502Y-79155820D01*
X61130537Y-79045506D01*
X61051185Y-78948815D01*
X60954494Y-78869463D01*
X60844180Y-78810498D01*
X60724482Y-78774188D01*
X60600000Y-78761928D01*
X60547750Y-78765000D01*
X60389000Y-78923750D01*
X58611000Y-78923750D01*
X58452250Y-78765000D01*
X58400000Y-78761928D01*
X58275518Y-78774188D01*
X58155820Y-78810498D01*
X58045506Y-78869463D01*
X58039000Y-78874802D01*
X58039000Y-77218000D01*
X58939509Y-77218000D01*
X58961423Y-77440499D01*
X59026324Y-77654447D01*
X59131716Y-77851623D01*
X59273551Y-78024449D01*
X59446377Y-78166284D01*
X59643553Y-78271676D01*
X59857501Y-78336577D01*
X60024248Y-78353000D01*
X61235752Y-78353000D01*
X61402499Y-78336577D01*
X61616447Y-78271676D01*
X61813623Y-78166284D01*
X61986449Y-78024449D01*
X62128284Y-77851623D01*
X62233676Y-77654447D01*
X62298577Y-77440499D01*
X62320491Y-77218000D01*
X62298577Y-76995501D01*
X62233676Y-76781553D01*
X62128284Y-76584377D01*
X61986449Y-76411551D01*
X61813623Y-76269716D01*
X61616447Y-76164324D01*
X61402499Y-76099423D01*
X61235752Y-76083000D01*
X61016904Y-76083000D01*
X61023108Y-76068022D01*
X61060000Y-75882552D01*
X61060000Y-75693448D01*
X61023108Y-75507978D01*
X60950741Y-75333269D01*
X60845681Y-75176036D01*
X60711964Y-75042319D01*
X60554731Y-74937259D01*
X60380022Y-74864892D01*
X60194552Y-74828000D01*
X60005448Y-74828000D01*
X59819978Y-74864892D01*
X59645269Y-74937259D01*
X59488036Y-75042319D01*
X59354319Y-75176036D01*
X59249259Y-75333269D01*
X59176892Y-75507978D01*
X59140000Y-75693448D01*
X59140000Y-75882552D01*
X59176892Y-76068022D01*
X59249259Y-76242731D01*
X59330715Y-76364638D01*
X59273551Y-76411551D01*
X59131716Y-76584377D01*
X59026324Y-76781553D01*
X58961423Y-76995501D01*
X58939509Y-77218000D01*
X58039000Y-77218000D01*
X58039000Y-68578000D01*
X58939509Y-68578000D01*
X58961423Y-68800499D01*
X59026324Y-69014447D01*
X59131716Y-69211623D01*
X59273551Y-69384449D01*
X59330715Y-69431362D01*
X59249259Y-69553269D01*
X59176892Y-69727978D01*
X59140000Y-69913448D01*
X59140000Y-70102552D01*
X59176892Y-70288022D01*
X59249259Y-70462731D01*
X59354319Y-70619964D01*
X59488036Y-70753681D01*
X59645269Y-70858741D01*
X59819978Y-70931108D01*
X60005448Y-70968000D01*
X60194552Y-70968000D01*
X60380022Y-70931108D01*
X60554731Y-70858741D01*
X60711964Y-70753681D01*
X60845681Y-70619964D01*
X60950741Y-70462731D01*
X61023108Y-70288022D01*
X61060000Y-70102552D01*
X61060000Y-69913448D01*
X61024981Y-69737391D01*
X62149000Y-69737391D01*
X62149000Y-70062609D01*
X62212447Y-70381579D01*
X62336903Y-70682042D01*
X62517585Y-70952451D01*
X62747549Y-71182415D01*
X63017958Y-71363097D01*
X63318421Y-71487553D01*
X63637391Y-71551000D01*
X63962609Y-71551000D01*
X64042626Y-71535084D01*
X63973738Y-71603972D01*
X63871414Y-71757111D01*
X63800932Y-71927271D01*
X63765000Y-72107911D01*
X63765000Y-72292089D01*
X63800932Y-72472729D01*
X63871414Y-72642889D01*
X63973738Y-72796028D01*
X64077710Y-72900000D01*
X63973738Y-73003972D01*
X63871414Y-73157111D01*
X63800932Y-73327271D01*
X63765000Y-73507911D01*
X63765000Y-73692089D01*
X63800932Y-73872729D01*
X63871414Y-74042889D01*
X63973738Y-74196028D01*
X64103972Y-74326262D01*
X64257111Y-74428586D01*
X64427271Y-74499068D01*
X64607911Y-74535000D01*
X64792089Y-74535000D01*
X64972729Y-74499068D01*
X65142889Y-74428586D01*
X65296028Y-74326262D01*
X65426262Y-74196028D01*
X65465419Y-74137424D01*
X66357000Y-74137424D01*
X66357000Y-74362576D01*
X66400925Y-74583401D01*
X66487087Y-74791413D01*
X66612174Y-74978620D01*
X66771380Y-75137826D01*
X66958587Y-75262913D01*
X67166599Y-75349075D01*
X67387424Y-75393000D01*
X67612576Y-75393000D01*
X67833401Y-75349075D01*
X68041413Y-75262913D01*
X68228620Y-75137826D01*
X68387826Y-74978620D01*
X68512913Y-74791413D01*
X68599075Y-74583401D01*
X68643000Y-74362576D01*
X68643000Y-74137424D01*
X68599075Y-73916599D01*
X68512913Y-73708587D01*
X68387826Y-73521380D01*
X68228620Y-73362174D01*
X68191530Y-73337391D01*
X77049000Y-73337391D01*
X77049000Y-73662609D01*
X77112447Y-73981579D01*
X77236903Y-74282042D01*
X77417585Y-74552451D01*
X77647549Y-74782415D01*
X77917958Y-74963097D01*
X78218421Y-75087553D01*
X78537391Y-75151000D01*
X78862609Y-75151000D01*
X79181579Y-75087553D01*
X79373851Y-75007911D01*
X100265000Y-75007911D01*
X100265000Y-75192089D01*
X100300932Y-75372729D01*
X100371414Y-75542889D01*
X100473738Y-75696028D01*
X100603972Y-75826262D01*
X100757111Y-75928586D01*
X100927271Y-75999068D01*
X101107911Y-76035000D01*
X101292089Y-76035000D01*
X101472729Y-75999068D01*
X101642889Y-75928586D01*
X101796028Y-75826262D01*
X101926262Y-75696028D01*
X102028586Y-75542889D01*
X102099068Y-75372729D01*
X102129200Y-75221246D01*
X102173111Y-75250586D01*
X102343271Y-75321068D01*
X102523911Y-75357000D01*
X102623656Y-75357000D01*
X102651738Y-75399028D01*
X102781972Y-75529262D01*
X102935111Y-75631586D01*
X103105271Y-75702068D01*
X103285911Y-75738000D01*
X103470089Y-75738000D01*
X103650729Y-75702068D01*
X103820889Y-75631586D01*
X103974028Y-75529262D01*
X104104262Y-75399028D01*
X104203500Y-75250508D01*
X104302738Y-75399028D01*
X104432972Y-75529262D01*
X104586111Y-75631586D01*
X104756271Y-75702068D01*
X104936911Y-75738000D01*
X105121089Y-75738000D01*
X105301729Y-75702068D01*
X105471889Y-75631586D01*
X105625028Y-75529262D01*
X105755262Y-75399028D01*
X105857586Y-75245889D01*
X105928068Y-75075729D01*
X105964000Y-74895089D01*
X105964000Y-74710911D01*
X105928068Y-74530271D01*
X105857586Y-74360111D01*
X105755262Y-74206972D01*
X105625028Y-74076738D01*
X105471889Y-73974414D01*
X105301729Y-73903932D01*
X105121089Y-73868000D01*
X104936911Y-73868000D01*
X104756271Y-73903932D01*
X104586111Y-73974414D01*
X104432972Y-74076738D01*
X104302738Y-74206972D01*
X104203500Y-74355492D01*
X104104262Y-74206972D01*
X103974028Y-74076738D01*
X103820889Y-73974414D01*
X103650729Y-73903932D01*
X103470089Y-73868000D01*
X103370344Y-73868000D01*
X103342262Y-73825972D01*
X103212028Y-73695738D01*
X103058889Y-73593414D01*
X102888729Y-73522932D01*
X102708089Y-73487000D01*
X102523911Y-73487000D01*
X102343271Y-73522932D01*
X102173111Y-73593414D01*
X102019972Y-73695738D01*
X101889738Y-73825972D01*
X101787414Y-73979111D01*
X101716932Y-74149271D01*
X101686800Y-74300754D01*
X101642889Y-74271414D01*
X101472729Y-74200932D01*
X101292089Y-74165000D01*
X101107911Y-74165000D01*
X100927271Y-74200932D01*
X100757111Y-74271414D01*
X100603972Y-74373738D01*
X100473738Y-74503972D01*
X100371414Y-74657111D01*
X100300932Y-74827271D01*
X100265000Y-75007911D01*
X79373851Y-75007911D01*
X79482042Y-74963097D01*
X79752451Y-74782415D01*
X79982415Y-74552451D01*
X80163097Y-74282042D01*
X80287553Y-73981579D01*
X80351000Y-73662609D01*
X80351000Y-73337391D01*
X80293633Y-73048988D01*
X80342889Y-73028586D01*
X80496028Y-72926262D01*
X80626262Y-72796028D01*
X80728586Y-72642889D01*
X80799068Y-72472729D01*
X80831852Y-72307911D01*
X83165000Y-72307911D01*
X83165000Y-72492089D01*
X83200932Y-72672729D01*
X83271414Y-72842889D01*
X83373738Y-72996028D01*
X83503972Y-73126262D01*
X83657111Y-73228586D01*
X83827271Y-73299068D01*
X84007911Y-73335000D01*
X84192089Y-73335000D01*
X84372729Y-73299068D01*
X84542889Y-73228586D01*
X84696028Y-73126262D01*
X84826262Y-72996028D01*
X84928586Y-72842889D01*
X84943074Y-72807911D01*
X94665000Y-72807911D01*
X94665000Y-72992089D01*
X94700932Y-73172729D01*
X94771414Y-73342889D01*
X94873738Y-73496028D01*
X95003972Y-73626262D01*
X95157111Y-73728586D01*
X95327271Y-73799068D01*
X95507911Y-73835000D01*
X95692089Y-73835000D01*
X95872729Y-73799068D01*
X96042889Y-73728586D01*
X96196028Y-73626262D01*
X96326262Y-73496028D01*
X96363089Y-73440911D01*
X115524000Y-73440911D01*
X115524000Y-73625089D01*
X115559932Y-73805729D01*
X115630414Y-73975889D01*
X115732738Y-74129028D01*
X115862972Y-74259262D01*
X116016111Y-74361586D01*
X116186271Y-74432068D01*
X116366911Y-74468000D01*
X116551089Y-74468000D01*
X116731729Y-74432068D01*
X116901889Y-74361586D01*
X117055028Y-74259262D01*
X117185262Y-74129028D01*
X117287586Y-73975889D01*
X117358068Y-73805729D01*
X117394000Y-73625089D01*
X117394000Y-73440911D01*
X117358068Y-73260271D01*
X117287586Y-73090111D01*
X117185262Y-72936972D01*
X117055028Y-72806738D01*
X116901889Y-72704414D01*
X116731729Y-72633932D01*
X116551089Y-72598000D01*
X116366911Y-72598000D01*
X116186271Y-72633932D01*
X116016111Y-72704414D01*
X115862972Y-72806738D01*
X115732738Y-72936972D01*
X115630414Y-73090111D01*
X115559932Y-73260271D01*
X115524000Y-73440911D01*
X96363089Y-73440911D01*
X96428586Y-73342889D01*
X96499068Y-73172729D01*
X96535000Y-72992089D01*
X96535000Y-72807911D01*
X96499068Y-72627271D01*
X96428586Y-72457111D01*
X96326262Y-72303972D01*
X96196028Y-72173738D01*
X96042889Y-72071414D01*
X95872729Y-72000932D01*
X95692089Y-71965000D01*
X95507911Y-71965000D01*
X95327271Y-72000932D01*
X95157111Y-72071414D01*
X95003972Y-72173738D01*
X94873738Y-72303972D01*
X94771414Y-72457111D01*
X94700932Y-72627271D01*
X94665000Y-72807911D01*
X84943074Y-72807911D01*
X84999068Y-72672729D01*
X85035000Y-72492089D01*
X85035000Y-72307911D01*
X84999068Y-72127271D01*
X84928586Y-71957111D01*
X84826262Y-71803972D01*
X84696028Y-71673738D01*
X84542889Y-71571414D01*
X84372729Y-71500932D01*
X84192089Y-71465000D01*
X84007911Y-71465000D01*
X83827271Y-71500932D01*
X83657111Y-71571414D01*
X83503972Y-71673738D01*
X83373738Y-71803972D01*
X83271414Y-71957111D01*
X83200932Y-72127271D01*
X83165000Y-72307911D01*
X80831852Y-72307911D01*
X80835000Y-72292089D01*
X80835000Y-72107911D01*
X80799068Y-71927271D01*
X80728586Y-71757111D01*
X80626262Y-71603972D01*
X80496028Y-71473738D01*
X80342889Y-71371414D01*
X80172729Y-71300932D01*
X79992089Y-71265000D01*
X79807911Y-71265000D01*
X79627271Y-71300932D01*
X79457111Y-71371414D01*
X79303972Y-71473738D01*
X79173738Y-71603972D01*
X79071414Y-71757111D01*
X79020356Y-71880378D01*
X78862609Y-71849000D01*
X78537391Y-71849000D01*
X78218421Y-71912447D01*
X77917958Y-72036903D01*
X77647549Y-72217585D01*
X77417585Y-72447549D01*
X77236903Y-72717958D01*
X77112447Y-73018421D01*
X77049000Y-73337391D01*
X68191530Y-73337391D01*
X68041413Y-73237087D01*
X67833401Y-73150925D01*
X67612576Y-73107000D01*
X67387424Y-73107000D01*
X67166599Y-73150925D01*
X66958587Y-73237087D01*
X66771380Y-73362174D01*
X66612174Y-73521380D01*
X66487087Y-73708587D01*
X66400925Y-73916599D01*
X66357000Y-74137424D01*
X65465419Y-74137424D01*
X65528586Y-74042889D01*
X65599068Y-73872729D01*
X65635000Y-73692089D01*
X65635000Y-73507911D01*
X65599068Y-73327271D01*
X65528586Y-73157111D01*
X65426262Y-73003972D01*
X65322290Y-72900000D01*
X65426262Y-72796028D01*
X65528586Y-72642889D01*
X65570711Y-72541191D01*
X65571414Y-72542889D01*
X65673738Y-72696028D01*
X65803972Y-72826262D01*
X65957111Y-72928586D01*
X66127271Y-72999068D01*
X66307911Y-73035000D01*
X66492089Y-73035000D01*
X66672729Y-72999068D01*
X66842889Y-72928586D01*
X66996028Y-72826262D01*
X67126262Y-72696028D01*
X67185333Y-72607623D01*
X67203972Y-72626262D01*
X67357111Y-72728586D01*
X67527271Y-72799068D01*
X67707911Y-72835000D01*
X67892089Y-72835000D01*
X68072729Y-72799068D01*
X68242889Y-72728586D01*
X68396028Y-72626262D01*
X68526262Y-72496028D01*
X68628586Y-72342889D01*
X68699068Y-72172729D01*
X68735000Y-71992089D01*
X68735000Y-71807911D01*
X68699068Y-71627271D01*
X68628586Y-71457111D01*
X68526262Y-71303972D01*
X68396028Y-71173738D01*
X68242889Y-71071414D01*
X68072729Y-71000932D01*
X67892089Y-70965000D01*
X67707911Y-70965000D01*
X67527271Y-71000932D01*
X67357111Y-71071414D01*
X67203972Y-71173738D01*
X67073738Y-71303972D01*
X67014667Y-71392377D01*
X66996028Y-71373738D01*
X66842889Y-71271414D01*
X66672729Y-71200932D01*
X66492089Y-71165000D01*
X66307911Y-71165000D01*
X66127271Y-71200932D01*
X65957111Y-71271414D01*
X65803972Y-71373738D01*
X65673738Y-71503972D01*
X65571414Y-71657111D01*
X65529289Y-71758809D01*
X65528586Y-71757111D01*
X65426262Y-71603972D01*
X65296028Y-71473738D01*
X65142889Y-71371414D01*
X64972729Y-71300932D01*
X64792089Y-71265000D01*
X64728854Y-71265000D01*
X64852451Y-71182415D01*
X65082415Y-70952451D01*
X65263097Y-70682042D01*
X65286134Y-70626424D01*
X111760000Y-70626424D01*
X111760000Y-70851576D01*
X111803925Y-71072401D01*
X111890087Y-71280413D01*
X112015174Y-71467620D01*
X112174380Y-71626826D01*
X112361587Y-71751913D01*
X112569599Y-71838075D01*
X112790424Y-71882000D01*
X113015576Y-71882000D01*
X113236401Y-71838075D01*
X113444413Y-71751913D01*
X113631620Y-71626826D01*
X113790826Y-71467620D01*
X113915913Y-71280413D01*
X114002075Y-71072401D01*
X114046000Y-70851576D01*
X114046000Y-70626424D01*
X114002075Y-70405599D01*
X113915913Y-70197587D01*
X113790826Y-70010380D01*
X113631620Y-69851174D01*
X113444413Y-69726087D01*
X113236401Y-69639925D01*
X113015576Y-69596000D01*
X112790424Y-69596000D01*
X112569599Y-69639925D01*
X112361587Y-69726087D01*
X112174380Y-69851174D01*
X112015174Y-70010380D01*
X111890087Y-70197587D01*
X111803925Y-70405599D01*
X111760000Y-70626424D01*
X65286134Y-70626424D01*
X65387553Y-70381579D01*
X65451000Y-70062609D01*
X65451000Y-69737391D01*
X65387553Y-69418421D01*
X65263097Y-69117958D01*
X65122748Y-68907911D01*
X65865000Y-68907911D01*
X65865000Y-69092089D01*
X65900932Y-69272729D01*
X65971414Y-69442889D01*
X66073738Y-69596028D01*
X66203972Y-69726262D01*
X66357111Y-69828586D01*
X66527271Y-69899068D01*
X66707911Y-69935000D01*
X66892089Y-69935000D01*
X67072729Y-69899068D01*
X67242889Y-69828586D01*
X67396028Y-69726262D01*
X67526262Y-69596028D01*
X67628586Y-69442889D01*
X67699068Y-69272729D01*
X67735000Y-69092089D01*
X67735000Y-68907911D01*
X67699068Y-68727271D01*
X67628586Y-68557111D01*
X67526262Y-68403972D01*
X67396028Y-68273738D01*
X67242889Y-68171414D01*
X67072729Y-68100932D01*
X66892089Y-68065000D01*
X66707911Y-68065000D01*
X66527271Y-68100932D01*
X66357111Y-68171414D01*
X66203972Y-68273738D01*
X66073738Y-68403972D01*
X65971414Y-68557111D01*
X65900932Y-68727271D01*
X65865000Y-68907911D01*
X65122748Y-68907911D01*
X65082415Y-68847549D01*
X64852451Y-68617585D01*
X64582042Y-68436903D01*
X64281579Y-68312447D01*
X63962609Y-68249000D01*
X63637391Y-68249000D01*
X63318421Y-68312447D01*
X63017958Y-68436903D01*
X62747549Y-68617585D01*
X62517585Y-68847549D01*
X62336903Y-69117958D01*
X62212447Y-69418421D01*
X62149000Y-69737391D01*
X61024981Y-69737391D01*
X61023108Y-69727978D01*
X61016904Y-69713000D01*
X61235752Y-69713000D01*
X61402499Y-69696577D01*
X61616447Y-69631676D01*
X61813623Y-69526284D01*
X61986449Y-69384449D01*
X62128284Y-69211623D01*
X62233676Y-69014447D01*
X62298577Y-68800499D01*
X62320491Y-68578000D01*
X62298577Y-68355501D01*
X62233676Y-68141553D01*
X62128284Y-67944377D01*
X61986449Y-67771551D01*
X61813623Y-67629716D01*
X61616447Y-67524324D01*
X61402499Y-67459423D01*
X61235752Y-67443000D01*
X60024248Y-67443000D01*
X59857501Y-67459423D01*
X59643553Y-67524324D01*
X59446377Y-67629716D01*
X59273551Y-67771551D01*
X59131716Y-67944377D01*
X59026324Y-68141553D01*
X58961423Y-68355501D01*
X58939509Y-68578000D01*
X58039000Y-68578000D01*
X58039000Y-67307911D01*
X79715000Y-67307911D01*
X79715000Y-67492089D01*
X79750932Y-67672729D01*
X79821414Y-67842889D01*
X79923738Y-67996028D01*
X79977710Y-68050000D01*
X79923738Y-68103972D01*
X79821414Y-68257111D01*
X79750932Y-68427271D01*
X79715000Y-68607911D01*
X79715000Y-68792089D01*
X79750932Y-68972729D01*
X79821414Y-69142889D01*
X79923738Y-69296028D01*
X80053972Y-69426262D01*
X80207111Y-69528586D01*
X80377271Y-69599068D01*
X80557911Y-69635000D01*
X80742089Y-69635000D01*
X80922729Y-69599068D01*
X81092889Y-69528586D01*
X81246028Y-69426262D01*
X81376262Y-69296028D01*
X81478586Y-69142889D01*
X81549068Y-68972729D01*
X81585000Y-68792089D01*
X81585000Y-68607911D01*
X81549068Y-68427271D01*
X81478586Y-68257111D01*
X81463085Y-68233911D01*
X101681000Y-68233911D01*
X101681000Y-68418089D01*
X101716932Y-68598729D01*
X101787414Y-68768889D01*
X101889738Y-68922028D01*
X102019972Y-69052262D01*
X102173111Y-69154586D01*
X102343271Y-69225068D01*
X102523911Y-69261000D01*
X102708089Y-69261000D01*
X102888729Y-69225068D01*
X103058889Y-69154586D01*
X103212028Y-69052262D01*
X103342262Y-68922028D01*
X103395030Y-68843056D01*
X103400932Y-68872729D01*
X103471414Y-69042889D01*
X103573738Y-69196028D01*
X103703972Y-69326262D01*
X103857111Y-69428586D01*
X104027271Y-69499068D01*
X104207911Y-69535000D01*
X104332960Y-69535000D01*
X104373738Y-69596028D01*
X104503972Y-69726262D01*
X104657111Y-69828586D01*
X104827271Y-69899068D01*
X105007911Y-69935000D01*
X105192089Y-69935000D01*
X105372729Y-69899068D01*
X105542889Y-69828586D01*
X105696028Y-69726262D01*
X105826262Y-69596028D01*
X105928586Y-69442889D01*
X105999068Y-69272729D01*
X106035000Y-69092089D01*
X106035000Y-68907911D01*
X105999068Y-68727271D01*
X105928586Y-68557111D01*
X105826262Y-68403972D01*
X105696028Y-68273738D01*
X105542889Y-68171414D01*
X105372729Y-68100932D01*
X105192089Y-68065000D01*
X105067040Y-68065000D01*
X105026262Y-68003972D01*
X104896028Y-67873738D01*
X104742889Y-67771414D01*
X104572729Y-67700932D01*
X104392089Y-67665000D01*
X104207911Y-67665000D01*
X104027271Y-67700932D01*
X103857111Y-67771414D01*
X103703972Y-67873738D01*
X103573738Y-68003972D01*
X103520970Y-68082944D01*
X103515068Y-68053271D01*
X103444586Y-67883111D01*
X103342262Y-67729972D01*
X103212028Y-67599738D01*
X103058889Y-67497414D01*
X102888729Y-67426932D01*
X102708089Y-67391000D01*
X102523911Y-67391000D01*
X102343271Y-67426932D01*
X102173111Y-67497414D01*
X102019972Y-67599738D01*
X101889738Y-67729972D01*
X101787414Y-67883111D01*
X101716932Y-68053271D01*
X101681000Y-68233911D01*
X81463085Y-68233911D01*
X81376262Y-68103972D01*
X81322290Y-68050000D01*
X81376262Y-67996028D01*
X81478586Y-67842889D01*
X81549068Y-67672729D01*
X81585000Y-67492089D01*
X81585000Y-67307911D01*
X81549068Y-67127271D01*
X81478586Y-66957111D01*
X81378894Y-66807911D01*
X87165000Y-66807911D01*
X87165000Y-66992089D01*
X87200932Y-67172729D01*
X87271414Y-67342889D01*
X87373738Y-67496028D01*
X87503972Y-67626262D01*
X87657111Y-67728586D01*
X87827271Y-67799068D01*
X88007911Y-67835000D01*
X88192089Y-67835000D01*
X88372729Y-67799068D01*
X88542889Y-67728586D01*
X88650000Y-67657017D01*
X88757111Y-67728586D01*
X88927271Y-67799068D01*
X89107911Y-67835000D01*
X89292089Y-67835000D01*
X89472729Y-67799068D01*
X89642889Y-67728586D01*
X89778988Y-67637648D01*
X89927271Y-67699068D01*
X90107911Y-67735000D01*
X90292089Y-67735000D01*
X90472729Y-67699068D01*
X90642889Y-67628586D01*
X90700000Y-67590426D01*
X90757111Y-67628586D01*
X90927271Y-67699068D01*
X91107911Y-67735000D01*
X91292089Y-67735000D01*
X91472729Y-67699068D01*
X91642889Y-67628586D01*
X91700000Y-67590426D01*
X91757111Y-67628586D01*
X91927271Y-67699068D01*
X92107911Y-67735000D01*
X92292089Y-67735000D01*
X92472729Y-67699068D01*
X92642889Y-67628586D01*
X92796028Y-67526262D01*
X92926262Y-67396028D01*
X93028586Y-67242889D01*
X93038932Y-67217911D01*
X115270000Y-67217911D01*
X115270000Y-67402089D01*
X115305932Y-67582729D01*
X115376414Y-67752889D01*
X115478738Y-67906028D01*
X115608972Y-68036262D01*
X115762111Y-68138586D01*
X115932271Y-68209068D01*
X116112911Y-68245000D01*
X116297089Y-68245000D01*
X116477729Y-68209068D01*
X116647889Y-68138586D01*
X116801028Y-68036262D01*
X116931262Y-67906028D01*
X117033586Y-67752889D01*
X117104068Y-67582729D01*
X117140000Y-67402089D01*
X117140000Y-67217911D01*
X117104068Y-67037271D01*
X117033586Y-66867111D01*
X116931262Y-66713972D01*
X116801028Y-66583738D01*
X116647889Y-66481414D01*
X116477729Y-66410932D01*
X116297089Y-66375000D01*
X116112911Y-66375000D01*
X115932271Y-66410932D01*
X115762111Y-66481414D01*
X115608972Y-66583738D01*
X115478738Y-66713972D01*
X115376414Y-66867111D01*
X115305932Y-67037271D01*
X115270000Y-67217911D01*
X93038932Y-67217911D01*
X93099068Y-67072729D01*
X93135000Y-66892089D01*
X93135000Y-66707911D01*
X93099068Y-66527271D01*
X93028586Y-66357111D01*
X92926262Y-66203972D01*
X92796028Y-66073738D01*
X92642889Y-65971414D01*
X92472729Y-65900932D01*
X92292089Y-65865000D01*
X92107911Y-65865000D01*
X91927271Y-65900932D01*
X91757111Y-65971414D01*
X91700000Y-66009574D01*
X91642889Y-65971414D01*
X91472729Y-65900932D01*
X91292089Y-65865000D01*
X91107911Y-65865000D01*
X90927271Y-65900932D01*
X90757111Y-65971414D01*
X90700000Y-66009574D01*
X90642889Y-65971414D01*
X90472729Y-65900932D01*
X90292089Y-65865000D01*
X90107911Y-65865000D01*
X89927271Y-65900932D01*
X89757111Y-65971414D01*
X89621012Y-66062352D01*
X89472729Y-66000932D01*
X89292089Y-65965000D01*
X89107911Y-65965000D01*
X88927271Y-66000932D01*
X88757111Y-66071414D01*
X88650000Y-66142983D01*
X88542889Y-66071414D01*
X88372729Y-66000932D01*
X88192089Y-65965000D01*
X88007911Y-65965000D01*
X87827271Y-66000932D01*
X87657111Y-66071414D01*
X87503972Y-66173738D01*
X87373738Y-66303972D01*
X87271414Y-66457111D01*
X87200932Y-66627271D01*
X87165000Y-66807911D01*
X81378894Y-66807911D01*
X81376262Y-66803972D01*
X81246028Y-66673738D01*
X81241380Y-66670632D01*
X81342889Y-66628586D01*
X81496028Y-66526262D01*
X81626262Y-66396028D01*
X81728586Y-66242889D01*
X81799068Y-66072729D01*
X81835000Y-65892089D01*
X81835000Y-65820911D01*
X117810000Y-65820911D01*
X117810000Y-66005089D01*
X117845932Y-66185729D01*
X117916414Y-66355889D01*
X118018738Y-66509028D01*
X118148972Y-66639262D01*
X118302111Y-66741586D01*
X118472271Y-66812068D01*
X118652911Y-66848000D01*
X118837089Y-66848000D01*
X119017729Y-66812068D01*
X119187889Y-66741586D01*
X119341028Y-66639262D01*
X119471262Y-66509028D01*
X119573586Y-66355889D01*
X119644068Y-66185729D01*
X119680000Y-66005089D01*
X119680000Y-65820911D01*
X119644068Y-65640271D01*
X119573586Y-65470111D01*
X119471262Y-65316972D01*
X119341028Y-65186738D01*
X119187889Y-65084414D01*
X119017729Y-65013932D01*
X118837089Y-64978000D01*
X118652911Y-64978000D01*
X118472271Y-65013932D01*
X118302111Y-65084414D01*
X118148972Y-65186738D01*
X118018738Y-65316972D01*
X117916414Y-65470111D01*
X117845932Y-65640271D01*
X117810000Y-65820911D01*
X81835000Y-65820911D01*
X81835000Y-65707911D01*
X81799068Y-65527271D01*
X81728586Y-65357111D01*
X81626262Y-65203972D01*
X81572290Y-65150000D01*
X81626262Y-65096028D01*
X81728586Y-64942889D01*
X81799068Y-64772729D01*
X81835000Y-64592089D01*
X81835000Y-64407911D01*
X81799068Y-64227271D01*
X81775309Y-64169911D01*
X115270000Y-64169911D01*
X115270000Y-64354089D01*
X115305932Y-64534729D01*
X115376414Y-64704889D01*
X115478738Y-64858028D01*
X115608972Y-64988262D01*
X115762111Y-65090586D01*
X115932271Y-65161068D01*
X116112911Y-65197000D01*
X116297089Y-65197000D01*
X116477729Y-65161068D01*
X116647889Y-65090586D01*
X116801028Y-64988262D01*
X116931262Y-64858028D01*
X117033586Y-64704889D01*
X117104068Y-64534729D01*
X117140000Y-64354089D01*
X117140000Y-64169911D01*
X117104068Y-63989271D01*
X117033586Y-63819111D01*
X116931262Y-63665972D01*
X116801028Y-63535738D01*
X116647889Y-63433414D01*
X116477729Y-63362932D01*
X116297089Y-63327000D01*
X116112911Y-63327000D01*
X115932271Y-63362932D01*
X115762111Y-63433414D01*
X115608972Y-63535738D01*
X115478738Y-63665972D01*
X115376414Y-63819111D01*
X115305932Y-63989271D01*
X115270000Y-64169911D01*
X81775309Y-64169911D01*
X81728586Y-64057111D01*
X81657017Y-63950000D01*
X81728586Y-63842889D01*
X81799068Y-63672729D01*
X81835000Y-63492089D01*
X81835000Y-63307911D01*
X81799068Y-63127271D01*
X81728586Y-62957111D01*
X81626262Y-62803972D01*
X81496028Y-62673738D01*
X81342889Y-62571414D01*
X81172729Y-62500932D01*
X80992089Y-62465000D01*
X80807911Y-62465000D01*
X80627271Y-62500932D01*
X80457111Y-62571414D01*
X80303972Y-62673738D01*
X80173738Y-62803972D01*
X80071414Y-62957111D01*
X80000932Y-63127271D01*
X79965000Y-63307911D01*
X79965000Y-63492089D01*
X80000932Y-63672729D01*
X80071414Y-63842889D01*
X80142983Y-63950000D01*
X80071414Y-64057111D01*
X80000932Y-64227271D01*
X79965000Y-64407911D01*
X79965000Y-64592089D01*
X80000932Y-64772729D01*
X80071414Y-64942889D01*
X80173738Y-65096028D01*
X80227710Y-65150000D01*
X80173738Y-65203972D01*
X80071414Y-65357111D01*
X80000932Y-65527271D01*
X79965000Y-65707911D01*
X79965000Y-65892089D01*
X80000932Y-66072729D01*
X80071414Y-66242889D01*
X80173738Y-66396028D01*
X80303972Y-66526262D01*
X80308620Y-66529368D01*
X80207111Y-66571414D01*
X80053972Y-66673738D01*
X79923738Y-66803972D01*
X79821414Y-66957111D01*
X79750932Y-67127271D01*
X79715000Y-67307911D01*
X58039000Y-67307911D01*
X58039000Y-66157911D01*
X64065000Y-66157911D01*
X64065000Y-66342089D01*
X64100932Y-66522729D01*
X64171414Y-66692889D01*
X64273738Y-66846028D01*
X64403972Y-66976262D01*
X64557111Y-67078586D01*
X64727271Y-67149068D01*
X64907911Y-67185000D01*
X65092089Y-67185000D01*
X65272729Y-67149068D01*
X65442889Y-67078586D01*
X65596028Y-66976262D01*
X65726262Y-66846028D01*
X65828586Y-66692889D01*
X65842603Y-66659049D01*
X65971380Y-66787826D01*
X66158587Y-66912913D01*
X66366599Y-66999075D01*
X66587424Y-67043000D01*
X66812576Y-67043000D01*
X67033401Y-66999075D01*
X67241413Y-66912913D01*
X67428620Y-66787826D01*
X67587826Y-66628620D01*
X67712913Y-66441413D01*
X67799075Y-66233401D01*
X67843000Y-66012576D01*
X67843000Y-65787424D01*
X67799075Y-65566599D01*
X67712913Y-65358587D01*
X67587826Y-65171380D01*
X67428620Y-65012174D01*
X67241413Y-64887087D01*
X67033401Y-64800925D01*
X66812576Y-64757000D01*
X66587424Y-64757000D01*
X66366599Y-64800925D01*
X66158587Y-64887087D01*
X65971380Y-65012174D01*
X65812174Y-65171380D01*
X65687087Y-65358587D01*
X65612044Y-65539754D01*
X65596028Y-65523738D01*
X65442889Y-65421414D01*
X65272729Y-65350932D01*
X65092089Y-65315000D01*
X64907911Y-65315000D01*
X64727271Y-65350932D01*
X64557111Y-65421414D01*
X64403972Y-65523738D01*
X64273738Y-65653972D01*
X64171414Y-65807111D01*
X64100932Y-65977271D01*
X64065000Y-66157911D01*
X58039000Y-66157911D01*
X58039000Y-61687424D01*
X63057000Y-61687424D01*
X63057000Y-61912576D01*
X63100925Y-62133401D01*
X63187087Y-62341413D01*
X63312174Y-62528620D01*
X63471380Y-62687826D01*
X63658587Y-62812913D01*
X63866599Y-62899075D01*
X64087424Y-62943000D01*
X64312576Y-62943000D01*
X64533401Y-62899075D01*
X64741413Y-62812913D01*
X64928620Y-62687826D01*
X65087826Y-62528620D01*
X65212913Y-62341413D01*
X65299075Y-62133401D01*
X65343000Y-61912576D01*
X65343000Y-61907911D01*
X67165000Y-61907911D01*
X67165000Y-62092089D01*
X67200932Y-62272729D01*
X67271414Y-62442889D01*
X67373738Y-62596028D01*
X67503972Y-62726262D01*
X67657111Y-62828586D01*
X67827271Y-62899068D01*
X68007911Y-62935000D01*
X68192089Y-62935000D01*
X68372729Y-62899068D01*
X68542889Y-62828586D01*
X68696028Y-62726262D01*
X68800000Y-62622290D01*
X68903972Y-62726262D01*
X69057111Y-62828586D01*
X69227271Y-62899068D01*
X69407911Y-62935000D01*
X69592089Y-62935000D01*
X69772729Y-62899068D01*
X69942889Y-62828586D01*
X69973831Y-62807911D01*
X76665000Y-62807911D01*
X76665000Y-62992089D01*
X76700932Y-63172729D01*
X76771414Y-63342889D01*
X76873738Y-63496028D01*
X77003972Y-63626262D01*
X77157111Y-63728586D01*
X77327271Y-63799068D01*
X77507911Y-63835000D01*
X77692089Y-63835000D01*
X77872729Y-63799068D01*
X78042889Y-63728586D01*
X78050000Y-63723835D01*
X78057111Y-63728586D01*
X78227271Y-63799068D01*
X78407911Y-63835000D01*
X78592089Y-63835000D01*
X78772729Y-63799068D01*
X78942889Y-63728586D01*
X79096028Y-63626262D01*
X79226262Y-63496028D01*
X79328586Y-63342889D01*
X79399068Y-63172729D01*
X79435000Y-62992089D01*
X79435000Y-62807911D01*
X79399068Y-62627271D01*
X79328586Y-62457111D01*
X79285021Y-62391911D01*
X100919000Y-62391911D01*
X100919000Y-62576089D01*
X100954932Y-62756729D01*
X101025414Y-62926889D01*
X101127738Y-63080028D01*
X101257972Y-63210262D01*
X101411111Y-63312586D01*
X101581271Y-63383068D01*
X101761911Y-63419000D01*
X101946089Y-63419000D01*
X102126729Y-63383068D01*
X102296889Y-63312586D01*
X102359273Y-63270902D01*
X102427271Y-63299068D01*
X102607911Y-63335000D01*
X102792089Y-63335000D01*
X102972729Y-63299068D01*
X103142889Y-63228586D01*
X103296028Y-63126262D01*
X103426262Y-62996028D01*
X103528586Y-62842889D01*
X103599068Y-62672729D01*
X103635000Y-62492089D01*
X103635000Y-62307911D01*
X103599068Y-62127271D01*
X103528586Y-61957111D01*
X103426262Y-61803972D01*
X103296028Y-61673738D01*
X103142889Y-61571414D01*
X102972729Y-61500932D01*
X102792089Y-61465000D01*
X102607911Y-61465000D01*
X102427271Y-61500932D01*
X102257111Y-61571414D01*
X102194727Y-61613098D01*
X102126729Y-61584932D01*
X101946089Y-61549000D01*
X101761911Y-61549000D01*
X101581271Y-61584932D01*
X101411111Y-61655414D01*
X101257972Y-61757738D01*
X101127738Y-61887972D01*
X101025414Y-62041111D01*
X100954932Y-62211271D01*
X100919000Y-62391911D01*
X79285021Y-62391911D01*
X79226262Y-62303972D01*
X79096028Y-62173738D01*
X78942889Y-62071414D01*
X78772729Y-62000932D01*
X78592089Y-61965000D01*
X78407911Y-61965000D01*
X78227271Y-62000932D01*
X78057111Y-62071414D01*
X78050000Y-62076165D01*
X78042889Y-62071414D01*
X77872729Y-62000932D01*
X77692089Y-61965000D01*
X77507911Y-61965000D01*
X77327271Y-62000932D01*
X77157111Y-62071414D01*
X77003972Y-62173738D01*
X76873738Y-62303972D01*
X76771414Y-62457111D01*
X76700932Y-62627271D01*
X76665000Y-62807911D01*
X69973831Y-62807911D01*
X70096028Y-62726262D01*
X70226262Y-62596028D01*
X70328586Y-62442889D01*
X70399068Y-62272729D01*
X70435000Y-62092089D01*
X70435000Y-61907911D01*
X70399068Y-61727271D01*
X70328586Y-61557111D01*
X70226262Y-61403972D01*
X70096028Y-61273738D01*
X69942889Y-61171414D01*
X69772729Y-61100932D01*
X69592089Y-61065000D01*
X69407911Y-61065000D01*
X69227271Y-61100932D01*
X69057111Y-61171414D01*
X68903972Y-61273738D01*
X68800000Y-61377710D01*
X68696028Y-61273738D01*
X68542889Y-61171414D01*
X68372729Y-61100932D01*
X68192089Y-61065000D01*
X68007911Y-61065000D01*
X67827271Y-61100932D01*
X67657111Y-61171414D01*
X67503972Y-61273738D01*
X67373738Y-61403972D01*
X67271414Y-61557111D01*
X67200932Y-61727271D01*
X67165000Y-61907911D01*
X65343000Y-61907911D01*
X65343000Y-61687424D01*
X65299075Y-61466599D01*
X65212913Y-61258587D01*
X65087826Y-61071380D01*
X64928620Y-60912174D01*
X64741413Y-60787087D01*
X64533401Y-60700925D01*
X64312576Y-60657000D01*
X64087424Y-60657000D01*
X63866599Y-60700925D01*
X63658587Y-60787087D01*
X63471380Y-60912174D01*
X63312174Y-61071380D01*
X63187087Y-61258587D01*
X63100925Y-61466599D01*
X63057000Y-61687424D01*
X58039000Y-61687424D01*
X58039000Y-60407911D01*
X77465000Y-60407911D01*
X77465000Y-60592089D01*
X77500932Y-60772729D01*
X77571414Y-60942889D01*
X77673738Y-61096028D01*
X77803972Y-61226262D01*
X77957111Y-61328586D01*
X78127271Y-61399068D01*
X78307911Y-61435000D01*
X78492089Y-61435000D01*
X78672729Y-61399068D01*
X78842889Y-61328586D01*
X78996028Y-61226262D01*
X79126262Y-61096028D01*
X79228586Y-60942889D01*
X79299068Y-60772729D01*
X79335000Y-60592089D01*
X79335000Y-60407911D01*
X79299068Y-60227271D01*
X79228586Y-60057111D01*
X79126262Y-59903972D01*
X78996028Y-59773738D01*
X78842889Y-59671414D01*
X78672729Y-59600932D01*
X78492089Y-59565000D01*
X78307911Y-59565000D01*
X78127271Y-59600932D01*
X77957111Y-59671414D01*
X77803972Y-59773738D01*
X77673738Y-59903972D01*
X77571414Y-60057111D01*
X77500932Y-60227271D01*
X77465000Y-60407911D01*
X58039000Y-60407911D01*
X58039000Y-56642000D01*
X67836252Y-56642000D01*
X67800932Y-56727271D01*
X67765000Y-56907911D01*
X67765000Y-57092089D01*
X67800932Y-57272729D01*
X67871414Y-57442889D01*
X67973738Y-57596028D01*
X68103972Y-57726262D01*
X68257111Y-57828586D01*
X68427271Y-57899068D01*
X68607911Y-57935000D01*
X68792089Y-57935000D01*
X68972729Y-57899068D01*
X69142889Y-57828586D01*
X69296028Y-57726262D01*
X69350000Y-57672290D01*
X69403972Y-57726262D01*
X69557111Y-57828586D01*
X69727271Y-57899068D01*
X69907911Y-57935000D01*
X70092089Y-57935000D01*
X70272729Y-57899068D01*
X70442889Y-57828586D01*
X70596028Y-57726262D01*
X70726262Y-57596028D01*
X70828586Y-57442889D01*
X70899068Y-57272729D01*
X70935000Y-57092089D01*
X70935000Y-56907911D01*
X70899068Y-56727271D01*
X70863748Y-56642000D01*
X77190726Y-56642000D01*
X77198446Y-56646571D01*
X77213190Y-56651757D01*
X77226980Y-56659128D01*
X77279066Y-56674928D01*
X77330379Y-56692977D01*
X77345849Y-56695187D01*
X77360816Y-56699727D01*
X77414977Y-56705061D01*
X77468832Y-56712754D01*
X77519330Y-56710000D01*
X78386369Y-56710000D01*
X78287087Y-56858587D01*
X78200925Y-57066599D01*
X78157000Y-57287424D01*
X78157000Y-57512576D01*
X78200925Y-57733401D01*
X78287087Y-57941413D01*
X78412174Y-58128620D01*
X78571380Y-58287826D01*
X78758587Y-58412913D01*
X78966599Y-58499075D01*
X79187424Y-58543000D01*
X79412576Y-58543000D01*
X79633401Y-58499075D01*
X79841413Y-58412913D01*
X80028620Y-58287826D01*
X80187826Y-58128620D01*
X80312913Y-57941413D01*
X80399075Y-57733401D01*
X80443000Y-57512576D01*
X80443000Y-57287424D01*
X80399075Y-57066599D01*
X80312913Y-56858587D01*
X80213631Y-56710000D01*
X95642220Y-56710000D01*
X95636903Y-56717958D01*
X95512447Y-57018421D01*
X95449000Y-57337391D01*
X95449000Y-57662609D01*
X95512447Y-57981579D01*
X95636903Y-58282042D01*
X95817585Y-58552451D01*
X96047549Y-58782415D01*
X96317958Y-58963097D01*
X96618421Y-59087553D01*
X96937391Y-59151000D01*
X97262609Y-59151000D01*
X97581579Y-59087553D01*
X97882042Y-58963097D01*
X98152451Y-58782415D01*
X98382415Y-58552451D01*
X98563097Y-58282042D01*
X98687553Y-57981579D01*
X98751000Y-57662609D01*
X98751000Y-57337391D01*
X98687553Y-57018421D01*
X98563097Y-56717958D01*
X98557780Y-56710000D01*
X104980669Y-56710000D01*
X105031167Y-56712754D01*
X105085028Y-56705061D01*
X105139184Y-56699727D01*
X105154146Y-56695188D01*
X105169620Y-56692978D01*
X105220939Y-56674927D01*
X105273020Y-56659128D01*
X105286812Y-56651756D01*
X105301553Y-56646571D01*
X105309273Y-56642000D01*
X107950000Y-56642000D01*
X107974776Y-56639560D01*
X107998601Y-56632333D01*
X108020557Y-56620597D01*
X108039803Y-56604803D01*
X108055597Y-56585557D01*
X108067333Y-56563601D01*
X108074560Y-56539776D01*
X108076994Y-56516184D01*
X108114600Y-52481750D01*
X112015000Y-52481750D01*
X112025939Y-52582979D01*
X112063873Y-52702172D01*
X112124331Y-52811674D01*
X112204991Y-52907278D01*
X112302752Y-52985308D01*
X112413858Y-53042767D01*
X112534038Y-53077446D01*
X112618250Y-53085000D01*
X112777000Y-52926250D01*
X112777000Y-52323000D01*
X112173750Y-52323000D01*
X112015000Y-52481750D01*
X108114600Y-52481750D01*
X108132821Y-50527000D01*
X112054589Y-50527000D01*
X112025939Y-50617021D01*
G37*
G04 #@! TD.AperFunction*
D23*
X129133000Y-51756416D02*
X129133000Y-51973000D01*
X129113000Y-51973000D01*
X129113000Y-52872718D01*
X129333265Y-52961345D01*
X129542328Y-52849615D01*
X129770699Y-52669078D01*
X129959461Y-52447457D01*
X130005342Y-52365269D01*
X130126525Y-52546632D01*
X130333368Y-52753475D01*
X130576589Y-52915990D01*
X130846842Y-53027932D01*
X131133740Y-53085000D01*
X131426260Y-53085000D01*
X131713158Y-53027932D01*
X131983411Y-52915990D01*
X132122802Y-52822852D01*
X132115021Y-99049593D01*
X68123675Y-99096407D01*
X68138523Y-96294834D01*
X68141081Y-96294325D01*
X68456831Y-96163537D01*
X68740998Y-95973663D01*
X68905000Y-95809661D01*
X69069002Y-95973663D01*
X69353169Y-96163537D01*
X69668919Y-96294325D01*
X70004117Y-96361000D01*
X70345883Y-96361000D01*
X70681081Y-96294325D01*
X70996831Y-96163537D01*
X71280998Y-95973663D01*
X71445000Y-95809661D01*
X71609002Y-95973663D01*
X71893169Y-96163537D01*
X72208919Y-96294325D01*
X72544117Y-96361000D01*
X72885883Y-96361000D01*
X73221081Y-96294325D01*
X73536831Y-96163537D01*
X73820998Y-95973663D01*
X74062663Y-95731998D01*
X74252537Y-95447831D01*
X74383325Y-95132081D01*
X74450000Y-94796883D01*
X74450000Y-94455117D01*
X74383325Y-94119919D01*
X74252537Y-93804169D01*
X74062663Y-93520002D01*
X73842661Y-93300000D01*
X76061928Y-93300000D01*
X76061928Y-95900000D01*
X76074188Y-96024482D01*
X76110498Y-96144180D01*
X76169463Y-96254494D01*
X76248815Y-96351185D01*
X76345506Y-96430537D01*
X76455820Y-96489502D01*
X76575518Y-96525812D01*
X76700000Y-96538072D01*
X79300000Y-96538072D01*
X79424482Y-96525812D01*
X79544180Y-96489502D01*
X79654494Y-96430537D01*
X79751185Y-96351185D01*
X79830537Y-96254494D01*
X79889502Y-96144180D01*
X79903354Y-96098515D01*
X82108987Y-96098515D01*
X82260122Y-96363051D01*
X82619830Y-96489124D01*
X82997221Y-96542600D01*
X83377794Y-96521423D01*
X83746923Y-96426407D01*
X83899878Y-96363051D01*
X84051013Y-96098515D01*
X83080000Y-95127502D01*
X82108987Y-96098515D01*
X79903354Y-96098515D01*
X79925812Y-96024482D01*
X79938072Y-95900000D01*
X79938072Y-94517221D01*
X81137400Y-94517221D01*
X81158577Y-94897794D01*
X81253593Y-95266923D01*
X81316949Y-95419878D01*
X81581485Y-95571013D01*
X82552498Y-94600000D01*
X83607502Y-94600000D01*
X84578515Y-95571013D01*
X84843051Y-95419878D01*
X84969124Y-95060170D01*
X85022600Y-94682779D01*
X85001423Y-94302206D01*
X84906407Y-93933077D01*
X84843051Y-93780122D01*
X84578515Y-93628987D01*
X83607502Y-94600000D01*
X82552498Y-94600000D01*
X81581485Y-93628987D01*
X81316949Y-93780122D01*
X81190876Y-94139830D01*
X81137400Y-94517221D01*
X79938072Y-94517221D01*
X79938072Y-93300000D01*
X79925812Y-93175518D01*
X79903355Y-93101485D01*
X82108987Y-93101485D01*
X83080000Y-94072498D01*
X83852498Y-93300000D01*
X87661928Y-93300000D01*
X87661928Y-95900000D01*
X87674188Y-96024482D01*
X87710498Y-96144180D01*
X87769463Y-96254494D01*
X87848815Y-96351185D01*
X87945506Y-96430537D01*
X88055820Y-96489502D01*
X88175518Y-96525812D01*
X88300000Y-96538072D01*
X90900000Y-96538072D01*
X91024482Y-96525812D01*
X91144180Y-96489502D01*
X91254494Y-96430537D01*
X91351185Y-96351185D01*
X91430537Y-96254494D01*
X91489502Y-96144180D01*
X91503354Y-96098515D01*
X93708987Y-96098515D01*
X93860122Y-96363051D01*
X94219830Y-96489124D01*
X94597221Y-96542600D01*
X94977794Y-96521423D01*
X95346923Y-96426407D01*
X95499878Y-96363051D01*
X95651013Y-96098515D01*
X94680000Y-95127502D01*
X93708987Y-96098515D01*
X91503354Y-96098515D01*
X91525812Y-96024482D01*
X91538072Y-95900000D01*
X91538072Y-94517221D01*
X92737400Y-94517221D01*
X92758577Y-94897794D01*
X92853593Y-95266923D01*
X92916949Y-95419878D01*
X93181485Y-95571013D01*
X94152498Y-94600000D01*
X95207502Y-94600000D01*
X96178515Y-95571013D01*
X96443051Y-95419878D01*
X96569124Y-95060170D01*
X96622600Y-94682779D01*
X96601423Y-94302206D01*
X96506407Y-93933077D01*
X96443051Y-93780122D01*
X96178515Y-93628987D01*
X95207502Y-94600000D01*
X94152498Y-94600000D01*
X93181485Y-93628987D01*
X92916949Y-93780122D01*
X92790876Y-94139830D01*
X92737400Y-94517221D01*
X91538072Y-94517221D01*
X91538072Y-93300000D01*
X91525812Y-93175518D01*
X91503355Y-93101485D01*
X93708987Y-93101485D01*
X94680000Y-94072498D01*
X95437498Y-93315000D01*
X99256928Y-93315000D01*
X99256928Y-95915000D01*
X99269188Y-96039482D01*
X99305498Y-96159180D01*
X99364463Y-96269494D01*
X99443815Y-96366185D01*
X99540506Y-96445537D01*
X99650820Y-96504502D01*
X99770518Y-96540812D01*
X99895000Y-96553072D01*
X102495000Y-96553072D01*
X102619482Y-96540812D01*
X102739180Y-96504502D01*
X102849494Y-96445537D01*
X102946185Y-96366185D01*
X103025537Y-96269494D01*
X103084502Y-96159180D01*
X103098354Y-96113515D01*
X105303987Y-96113515D01*
X105455122Y-96378051D01*
X105814830Y-96504124D01*
X106192221Y-96557600D01*
X106572794Y-96536423D01*
X106941923Y-96441407D01*
X107094878Y-96378051D01*
X107246013Y-96113515D01*
X106275000Y-95142502D01*
X105303987Y-96113515D01*
X103098354Y-96113515D01*
X103120812Y-96039482D01*
X103133072Y-95915000D01*
X103133072Y-94532221D01*
X104332400Y-94532221D01*
X104353577Y-94912794D01*
X104448593Y-95281923D01*
X104511949Y-95434878D01*
X104776485Y-95586013D01*
X105747498Y-94615000D01*
X106802502Y-94615000D01*
X107773515Y-95586013D01*
X108038051Y-95434878D01*
X108164124Y-95075170D01*
X108217600Y-94697779D01*
X108196423Y-94317206D01*
X108101407Y-93948077D01*
X108038051Y-93795122D01*
X107773515Y-93643987D01*
X106802502Y-94615000D01*
X105747498Y-94615000D01*
X104776485Y-93643987D01*
X104511949Y-93795122D01*
X104385876Y-94154830D01*
X104332400Y-94532221D01*
X103133072Y-94532221D01*
X103133072Y-93315000D01*
X103120812Y-93190518D01*
X103098355Y-93116485D01*
X105303987Y-93116485D01*
X106275000Y-94087498D01*
X107047498Y-93315000D01*
X110813928Y-93315000D01*
X110813928Y-95915000D01*
X110826188Y-96039482D01*
X110862498Y-96159180D01*
X110921463Y-96269494D01*
X111000815Y-96366185D01*
X111097506Y-96445537D01*
X111207820Y-96504502D01*
X111327518Y-96540812D01*
X111452000Y-96553072D01*
X114052000Y-96553072D01*
X114176482Y-96540812D01*
X114296180Y-96504502D01*
X114406494Y-96445537D01*
X114503185Y-96366185D01*
X114582537Y-96269494D01*
X114641502Y-96159180D01*
X114655354Y-96113515D01*
X116860987Y-96113515D01*
X117012122Y-96378051D01*
X117371830Y-96504124D01*
X117749221Y-96557600D01*
X118129794Y-96536423D01*
X118498923Y-96441407D01*
X118651878Y-96378051D01*
X118803013Y-96113515D01*
X118469370Y-95779872D01*
X126765000Y-95779872D01*
X126765000Y-96220128D01*
X126850890Y-96651925D01*
X127019369Y-97058669D01*
X127263962Y-97424729D01*
X127575271Y-97736038D01*
X127941331Y-97980631D01*
X128348075Y-98149110D01*
X128779872Y-98235000D01*
X129220128Y-98235000D01*
X129651925Y-98149110D01*
X130058669Y-97980631D01*
X130424729Y-97736038D01*
X130736038Y-97424729D01*
X130980631Y-97058669D01*
X131149110Y-96651925D01*
X131235000Y-96220128D01*
X131235000Y-95779872D01*
X131149110Y-95348075D01*
X130980631Y-94941331D01*
X130736038Y-94575271D01*
X130424729Y-94263962D01*
X130058669Y-94019369D01*
X129651925Y-93850890D01*
X129220128Y-93765000D01*
X128779872Y-93765000D01*
X128348075Y-93850890D01*
X127941331Y-94019369D01*
X127575271Y-94263962D01*
X127263962Y-94575271D01*
X127019369Y-94941331D01*
X126850890Y-95348075D01*
X126765000Y-95779872D01*
X118469370Y-95779872D01*
X117832000Y-95142502D01*
X116860987Y-96113515D01*
X114655354Y-96113515D01*
X114677812Y-96039482D01*
X114690072Y-95915000D01*
X114690072Y-94532221D01*
X115889400Y-94532221D01*
X115910577Y-94912794D01*
X116005593Y-95281923D01*
X116068949Y-95434878D01*
X116333485Y-95586013D01*
X117304498Y-94615000D01*
X118359502Y-94615000D01*
X119330515Y-95586013D01*
X119595051Y-95434878D01*
X119721124Y-95075170D01*
X119774600Y-94697779D01*
X119753423Y-94317206D01*
X119658407Y-93948077D01*
X119595051Y-93795122D01*
X119330515Y-93643987D01*
X118359502Y-94615000D01*
X117304498Y-94615000D01*
X116333485Y-93643987D01*
X116068949Y-93795122D01*
X115942876Y-94154830D01*
X115889400Y-94532221D01*
X114690072Y-94532221D01*
X114690072Y-93315000D01*
X114677812Y-93190518D01*
X114655355Y-93116485D01*
X116860987Y-93116485D01*
X117832000Y-94087498D01*
X118803013Y-93116485D01*
X118651878Y-92851949D01*
X118292170Y-92725876D01*
X117914779Y-92672400D01*
X117534206Y-92693577D01*
X117165077Y-92788593D01*
X117012122Y-92851949D01*
X116860987Y-93116485D01*
X114655355Y-93116485D01*
X114641502Y-93070820D01*
X114582537Y-92960506D01*
X114503185Y-92863815D01*
X114406494Y-92784463D01*
X114296180Y-92725498D01*
X114176482Y-92689188D01*
X114052000Y-92676928D01*
X111452000Y-92676928D01*
X111327518Y-92689188D01*
X111207820Y-92725498D01*
X111097506Y-92784463D01*
X111000815Y-92863815D01*
X110921463Y-92960506D01*
X110862498Y-93070820D01*
X110826188Y-93190518D01*
X110813928Y-93315000D01*
X107047498Y-93315000D01*
X107246013Y-93116485D01*
X107094878Y-92851949D01*
X106735170Y-92725876D01*
X106357779Y-92672400D01*
X105977206Y-92693577D01*
X105608077Y-92788593D01*
X105455122Y-92851949D01*
X105303987Y-93116485D01*
X103098355Y-93116485D01*
X103084502Y-93070820D01*
X103025537Y-92960506D01*
X102946185Y-92863815D01*
X102849494Y-92784463D01*
X102739180Y-92725498D01*
X102619482Y-92689188D01*
X102495000Y-92676928D01*
X99895000Y-92676928D01*
X99770518Y-92689188D01*
X99650820Y-92725498D01*
X99540506Y-92784463D01*
X99443815Y-92863815D01*
X99364463Y-92960506D01*
X99305498Y-93070820D01*
X99269188Y-93190518D01*
X99256928Y-93315000D01*
X95437498Y-93315000D01*
X95651013Y-93101485D01*
X95499878Y-92836949D01*
X95140170Y-92710876D01*
X94762779Y-92657400D01*
X94382206Y-92678577D01*
X94013077Y-92773593D01*
X93860122Y-92836949D01*
X93708987Y-93101485D01*
X91503355Y-93101485D01*
X91489502Y-93055820D01*
X91430537Y-92945506D01*
X91351185Y-92848815D01*
X91254494Y-92769463D01*
X91144180Y-92710498D01*
X91024482Y-92674188D01*
X90900000Y-92661928D01*
X88300000Y-92661928D01*
X88175518Y-92674188D01*
X88055820Y-92710498D01*
X87945506Y-92769463D01*
X87848815Y-92848815D01*
X87769463Y-92945506D01*
X87710498Y-93055820D01*
X87674188Y-93175518D01*
X87661928Y-93300000D01*
X83852498Y-93300000D01*
X84051013Y-93101485D01*
X83899878Y-92836949D01*
X83540170Y-92710876D01*
X83162779Y-92657400D01*
X82782206Y-92678577D01*
X82413077Y-92773593D01*
X82260122Y-92836949D01*
X82108987Y-93101485D01*
X79903355Y-93101485D01*
X79889502Y-93055820D01*
X79830537Y-92945506D01*
X79751185Y-92848815D01*
X79654494Y-92769463D01*
X79544180Y-92710498D01*
X79424482Y-92674188D01*
X79300000Y-92661928D01*
X76700000Y-92661928D01*
X76575518Y-92674188D01*
X76455820Y-92710498D01*
X76345506Y-92769463D01*
X76248815Y-92848815D01*
X76169463Y-92945506D01*
X76110498Y-93055820D01*
X76074188Y-93175518D01*
X76061928Y-93300000D01*
X73842661Y-93300000D01*
X73820998Y-93278337D01*
X73536831Y-93088463D01*
X73221081Y-92957675D01*
X72885883Y-92891000D01*
X72544117Y-92891000D01*
X72208919Y-92957675D01*
X71893169Y-93088463D01*
X71609002Y-93278337D01*
X71445000Y-93442339D01*
X71280998Y-93278337D01*
X70996831Y-93088463D01*
X70681081Y-92957675D01*
X70345883Y-92891000D01*
X70004117Y-92891000D01*
X69668919Y-92957675D01*
X69353169Y-93088463D01*
X69069002Y-93278337D01*
X68905000Y-93442339D01*
X68740998Y-93278337D01*
X68456831Y-93088463D01*
X68156176Y-92963927D01*
X68159050Y-92421681D01*
X68272729Y-92399068D01*
X68442889Y-92328586D01*
X68596028Y-92226262D01*
X68726262Y-92096028D01*
X68828586Y-91942889D01*
X68899068Y-91772729D01*
X68935000Y-91592089D01*
X68935000Y-91407911D01*
X68899068Y-91227271D01*
X68828586Y-91057111D01*
X68726262Y-90903972D01*
X68596028Y-90773738D01*
X68442889Y-90671414D01*
X68272729Y-90600932D01*
X68168809Y-90580261D01*
X68189358Y-86702931D01*
X68191316Y-86700000D01*
X69061928Y-86700000D01*
X69074188Y-86824482D01*
X69110498Y-86944180D01*
X69169463Y-87054494D01*
X69248815Y-87151185D01*
X69345506Y-87230537D01*
X69455820Y-87289502D01*
X69575518Y-87325812D01*
X69700000Y-87338072D01*
X69968250Y-87335000D01*
X70127000Y-87176250D01*
X70127000Y-86273000D01*
X70873000Y-86273000D01*
X70873000Y-87176250D01*
X71031750Y-87335000D01*
X71300000Y-87338072D01*
X71424482Y-87325812D01*
X71544180Y-87289502D01*
X71654494Y-87230537D01*
X71751185Y-87151185D01*
X71830537Y-87054494D01*
X71889502Y-86944180D01*
X71925812Y-86824482D01*
X71938072Y-86700000D01*
X71935000Y-86431750D01*
X71776250Y-86273000D01*
X70873000Y-86273000D01*
X70127000Y-86273000D01*
X69223750Y-86273000D01*
X69065000Y-86431750D01*
X69061928Y-86700000D01*
X68191316Y-86700000D01*
X68271680Y-86579727D01*
X68379853Y-86318574D01*
X68435000Y-86041335D01*
X68435000Y-85758665D01*
X68379853Y-85481426D01*
X68271680Y-85220273D01*
X68197801Y-85109706D01*
X68197852Y-85100000D01*
X69061928Y-85100000D01*
X69065000Y-85368250D01*
X69223750Y-85527000D01*
X70127000Y-85527000D01*
X70127000Y-84623750D01*
X70873000Y-84623750D01*
X70873000Y-85527000D01*
X71776250Y-85527000D01*
X71935000Y-85368250D01*
X71938072Y-85100000D01*
X71925812Y-84975518D01*
X71889502Y-84855820D01*
X71830537Y-84745506D01*
X71751185Y-84648815D01*
X71654494Y-84569463D01*
X71544180Y-84510498D01*
X71424482Y-84474188D01*
X71300000Y-84461928D01*
X71031750Y-84465000D01*
X70873000Y-84623750D01*
X70127000Y-84623750D01*
X69968250Y-84465000D01*
X69700000Y-84461928D01*
X69575518Y-84474188D01*
X69455820Y-84510498D01*
X69345506Y-84569463D01*
X69248815Y-84648815D01*
X69169463Y-84745506D01*
X69110498Y-84855820D01*
X69074188Y-84975518D01*
X69061928Y-85100000D01*
X68197852Y-85100000D01*
X68226330Y-79726746D01*
X79110224Y-79704837D01*
X79100932Y-79727271D01*
X79065000Y-79907911D01*
X79065000Y-80065000D01*
X78907911Y-80065000D01*
X78727271Y-80100932D01*
X78557111Y-80171414D01*
X78403972Y-80273738D01*
X78273738Y-80403972D01*
X78171414Y-80557111D01*
X78100932Y-80727271D01*
X78065000Y-80907911D01*
X78065000Y-81065000D01*
X77907911Y-81065000D01*
X77727271Y-81100932D01*
X77557111Y-81171414D01*
X77403972Y-81273738D01*
X77273738Y-81403972D01*
X77171414Y-81557111D01*
X77100932Y-81727271D01*
X77065000Y-81907911D01*
X77065000Y-82092089D01*
X77100932Y-82272729D01*
X77171414Y-82442889D01*
X77273738Y-82596028D01*
X77403972Y-82726262D01*
X77557111Y-82828586D01*
X77727271Y-82899068D01*
X77907911Y-82935000D01*
X78092089Y-82935000D01*
X78272729Y-82899068D01*
X78442889Y-82828586D01*
X78500000Y-82790426D01*
X78557111Y-82828586D01*
X78727271Y-82899068D01*
X78907911Y-82935000D01*
X79092089Y-82935000D01*
X79272729Y-82899068D01*
X79442889Y-82828586D01*
X79500000Y-82790426D01*
X79557111Y-82828586D01*
X79727271Y-82899068D01*
X79907911Y-82935000D01*
X80065000Y-82935000D01*
X80065000Y-83092089D01*
X80100932Y-83272729D01*
X80171414Y-83442889D01*
X80209574Y-83500000D01*
X80171414Y-83557111D01*
X80100932Y-83727271D01*
X80065000Y-83907911D01*
X80065000Y-84092089D01*
X80100932Y-84272729D01*
X80171414Y-84442889D01*
X80209574Y-84500000D01*
X80171414Y-84557111D01*
X80100932Y-84727271D01*
X80065000Y-84907911D01*
X80065000Y-85092089D01*
X80100932Y-85272729D01*
X80171414Y-85442889D01*
X80273738Y-85596028D01*
X80403972Y-85726262D01*
X80557111Y-85828586D01*
X80727271Y-85899068D01*
X80907911Y-85935000D01*
X81092089Y-85935000D01*
X81272729Y-85899068D01*
X81442889Y-85828586D01*
X81500000Y-85790426D01*
X81557111Y-85828586D01*
X81727271Y-85899068D01*
X81907911Y-85935000D01*
X82065000Y-85935000D01*
X82065000Y-86092089D01*
X82100932Y-86272729D01*
X82171414Y-86442889D01*
X82209574Y-86500000D01*
X82171414Y-86557111D01*
X82100932Y-86727271D01*
X82065000Y-86907911D01*
X82065000Y-87092089D01*
X82100932Y-87272729D01*
X82171414Y-87442889D01*
X82209574Y-87500000D01*
X82171414Y-87557111D01*
X82100932Y-87727271D01*
X82065000Y-87907911D01*
X82065000Y-88092089D01*
X82100932Y-88272729D01*
X82171414Y-88442889D01*
X82273738Y-88596028D01*
X82403972Y-88726262D01*
X82557111Y-88828586D01*
X82727271Y-88899068D01*
X82907911Y-88935000D01*
X83092089Y-88935000D01*
X83272729Y-88899068D01*
X83442889Y-88828586D01*
X83500000Y-88790426D01*
X83557111Y-88828586D01*
X83727271Y-88899068D01*
X83907911Y-88935000D01*
X84092089Y-88935000D01*
X84272729Y-88899068D01*
X84442889Y-88828586D01*
X84500000Y-88790426D01*
X84557111Y-88828586D01*
X84727271Y-88899068D01*
X84907911Y-88935000D01*
X85092089Y-88935000D01*
X85272729Y-88899068D01*
X85442889Y-88828586D01*
X85500000Y-88790426D01*
X85557111Y-88828586D01*
X85727271Y-88899068D01*
X85907911Y-88935000D01*
X86092089Y-88935000D01*
X86272729Y-88899068D01*
X86442889Y-88828586D01*
X86500000Y-88790426D01*
X86557111Y-88828586D01*
X86727271Y-88899068D01*
X86907911Y-88935000D01*
X87092089Y-88935000D01*
X87272729Y-88899068D01*
X87442889Y-88828586D01*
X87596028Y-88726262D01*
X87726262Y-88596028D01*
X87828586Y-88442889D01*
X87899068Y-88272729D01*
X87935000Y-88092089D01*
X87935000Y-87907911D01*
X87899068Y-87727271D01*
X87828586Y-87557111D01*
X87790426Y-87500000D01*
X87828586Y-87442889D01*
X87899068Y-87272729D01*
X87935000Y-87092089D01*
X87935000Y-86907911D01*
X87899068Y-86727271D01*
X87828586Y-86557111D01*
X87790426Y-86500000D01*
X87828586Y-86442889D01*
X87899068Y-86272729D01*
X87935000Y-86092089D01*
X87935000Y-85935000D01*
X88092089Y-85935000D01*
X88272729Y-85899068D01*
X88442889Y-85828586D01*
X88596028Y-85726262D01*
X88726262Y-85596028D01*
X88828586Y-85442889D01*
X88899068Y-85272729D01*
X88935000Y-85092089D01*
X88935000Y-84907911D01*
X88899068Y-84727271D01*
X88828586Y-84557111D01*
X88790426Y-84500000D01*
X88828586Y-84442889D01*
X88899068Y-84272729D01*
X88935000Y-84092089D01*
X88935000Y-83907911D01*
X88899068Y-83727271D01*
X88828586Y-83557111D01*
X88790426Y-83500000D01*
X88828586Y-83442889D01*
X88899068Y-83272729D01*
X88935000Y-83092089D01*
X88935000Y-82935000D01*
X89092089Y-82935000D01*
X89272729Y-82899068D01*
X89442889Y-82828586D01*
X89500000Y-82790426D01*
X89557111Y-82828586D01*
X89727271Y-82899068D01*
X89907911Y-82935000D01*
X90092089Y-82935000D01*
X90272729Y-82899068D01*
X90442889Y-82828586D01*
X90500000Y-82790426D01*
X90557111Y-82828586D01*
X90727271Y-82899068D01*
X90907911Y-82935000D01*
X91092089Y-82935000D01*
X91272729Y-82899068D01*
X91442889Y-82828586D01*
X91500000Y-82790426D01*
X91557111Y-82828586D01*
X91727271Y-82899068D01*
X91907911Y-82935000D01*
X92065000Y-82935000D01*
X92065000Y-83092089D01*
X92086587Y-83200612D01*
X92042889Y-83171414D01*
X91872729Y-83100932D01*
X91692089Y-83065000D01*
X91507911Y-83065000D01*
X91327271Y-83100932D01*
X91157111Y-83171414D01*
X91003972Y-83273738D01*
X90873738Y-83403972D01*
X90771414Y-83557111D01*
X90700932Y-83727271D01*
X90665000Y-83907911D01*
X90665000Y-84092089D01*
X90700932Y-84272729D01*
X90771414Y-84442889D01*
X90873738Y-84596028D01*
X91003972Y-84726262D01*
X91157111Y-84828586D01*
X91327271Y-84899068D01*
X91507911Y-84935000D01*
X91692089Y-84935000D01*
X91872729Y-84899068D01*
X92042889Y-84828586D01*
X92086587Y-84799388D01*
X92065000Y-84907911D01*
X92065000Y-85092089D01*
X92100932Y-85272729D01*
X92171414Y-85442889D01*
X92273738Y-85596028D01*
X92403972Y-85726262D01*
X92557111Y-85828586D01*
X92727271Y-85899068D01*
X92907911Y-85935000D01*
X93065000Y-85935000D01*
X93065000Y-86092089D01*
X93100932Y-86272729D01*
X93171414Y-86442889D01*
X93209574Y-86500000D01*
X93171414Y-86557111D01*
X93100932Y-86727271D01*
X93065000Y-86907911D01*
X93065000Y-87092089D01*
X93100932Y-87272729D01*
X93171414Y-87442889D01*
X93273738Y-87596028D01*
X93403972Y-87726262D01*
X93557111Y-87828586D01*
X93727271Y-87899068D01*
X93907911Y-87935000D01*
X94092089Y-87935000D01*
X94272729Y-87899068D01*
X94442889Y-87828586D01*
X94500000Y-87790426D01*
X94557111Y-87828586D01*
X94727271Y-87899068D01*
X94907911Y-87935000D01*
X95092089Y-87935000D01*
X95272729Y-87899068D01*
X95442889Y-87828586D01*
X95500000Y-87790426D01*
X95557111Y-87828586D01*
X95727271Y-87899068D01*
X95907911Y-87935000D01*
X96092089Y-87935000D01*
X96272729Y-87899068D01*
X96274283Y-87898424D01*
X117094000Y-87898424D01*
X117094000Y-88123576D01*
X117137925Y-88344401D01*
X117224087Y-88552413D01*
X117349174Y-88739620D01*
X117508380Y-88898826D01*
X117695587Y-89023913D01*
X117903599Y-89110075D01*
X118124424Y-89154000D01*
X118349576Y-89154000D01*
X118570401Y-89110075D01*
X118778413Y-89023913D01*
X118965620Y-88898826D01*
X119124826Y-88739620D01*
X119249913Y-88552413D01*
X119336075Y-88344401D01*
X119380000Y-88123576D01*
X119380000Y-87898424D01*
X119336075Y-87677599D01*
X119249913Y-87469587D01*
X119124826Y-87282380D01*
X118965620Y-87123174D01*
X118778413Y-86998087D01*
X118570401Y-86911925D01*
X118349576Y-86868000D01*
X118124424Y-86868000D01*
X117903599Y-86911925D01*
X117695587Y-86998087D01*
X117508380Y-87123174D01*
X117349174Y-87282380D01*
X117224087Y-87469587D01*
X117137925Y-87677599D01*
X117094000Y-87898424D01*
X96274283Y-87898424D01*
X96442889Y-87828586D01*
X96596028Y-87726262D01*
X96726262Y-87596028D01*
X96828586Y-87442889D01*
X96899068Y-87272729D01*
X96935000Y-87092089D01*
X96935000Y-86907911D01*
X96899068Y-86727271D01*
X96828586Y-86557111D01*
X96790426Y-86500000D01*
X96828586Y-86442889D01*
X96899068Y-86272729D01*
X96935000Y-86092089D01*
X96935000Y-85935000D01*
X97092089Y-85935000D01*
X97272729Y-85899068D01*
X97442889Y-85828586D01*
X97500000Y-85790426D01*
X97557111Y-85828586D01*
X97727271Y-85899068D01*
X97907911Y-85935000D01*
X98092089Y-85935000D01*
X98272729Y-85899068D01*
X98442889Y-85828586D01*
X98596028Y-85726262D01*
X98726262Y-85596028D01*
X98828586Y-85442889D01*
X98899068Y-85272729D01*
X98907284Y-85231424D01*
X112014000Y-85231424D01*
X112014000Y-85456576D01*
X112057925Y-85677401D01*
X112144087Y-85885413D01*
X112269174Y-86072620D01*
X112428380Y-86231826D01*
X112615587Y-86356913D01*
X112823599Y-86443075D01*
X113044424Y-86487000D01*
X113269576Y-86487000D01*
X113490401Y-86443075D01*
X113698413Y-86356913D01*
X113885620Y-86231826D01*
X114044826Y-86072620D01*
X114169913Y-85885413D01*
X114256075Y-85677401D01*
X114300000Y-85456576D01*
X114300000Y-85231424D01*
X114256075Y-85010599D01*
X114171327Y-84806000D01*
X125061928Y-84806000D01*
X125061928Y-87406000D01*
X125074188Y-87530482D01*
X125110498Y-87650180D01*
X125169463Y-87760494D01*
X125248815Y-87857185D01*
X125345506Y-87936537D01*
X125455820Y-87995502D01*
X125575518Y-88031812D01*
X125700000Y-88044072D01*
X128300000Y-88044072D01*
X128424482Y-88031812D01*
X128544180Y-87995502D01*
X128654494Y-87936537D01*
X128751185Y-87857185D01*
X128830537Y-87760494D01*
X128889502Y-87650180D01*
X128925812Y-87530482D01*
X128938072Y-87406000D01*
X128938072Y-84806000D01*
X128925812Y-84681518D01*
X128889502Y-84561820D01*
X128830537Y-84451506D01*
X128751185Y-84354815D01*
X128654494Y-84275463D01*
X128544180Y-84216498D01*
X128424482Y-84180188D01*
X128300000Y-84167928D01*
X125700000Y-84167928D01*
X125575518Y-84180188D01*
X125455820Y-84216498D01*
X125345506Y-84275463D01*
X125248815Y-84354815D01*
X125169463Y-84451506D01*
X125110498Y-84561820D01*
X125074188Y-84681518D01*
X125061928Y-84806000D01*
X114171327Y-84806000D01*
X114169913Y-84802587D01*
X114044826Y-84615380D01*
X113885620Y-84456174D01*
X113698413Y-84331087D01*
X113490401Y-84244925D01*
X113269576Y-84201000D01*
X113044424Y-84201000D01*
X112823599Y-84244925D01*
X112615587Y-84331087D01*
X112428380Y-84456174D01*
X112269174Y-84615380D01*
X112144087Y-84802587D01*
X112057925Y-85010599D01*
X112014000Y-85231424D01*
X98907284Y-85231424D01*
X98935000Y-85092089D01*
X98935000Y-84907911D01*
X98899068Y-84727271D01*
X98828586Y-84557111D01*
X98790426Y-84500000D01*
X98828586Y-84442889D01*
X98899068Y-84272729D01*
X98935000Y-84092089D01*
X98935000Y-83907911D01*
X98899068Y-83727271D01*
X98828586Y-83557111D01*
X98790426Y-83500000D01*
X98828586Y-83442889D01*
X98899068Y-83272729D01*
X98935000Y-83092089D01*
X98935000Y-82935000D01*
X99092089Y-82935000D01*
X99272729Y-82899068D01*
X99442889Y-82828586D01*
X99500000Y-82790426D01*
X99557111Y-82828586D01*
X99727271Y-82899068D01*
X99907911Y-82935000D01*
X100092089Y-82935000D01*
X100272729Y-82899068D01*
X100442889Y-82828586D01*
X100500000Y-82790426D01*
X100557111Y-82828586D01*
X100727271Y-82899068D01*
X100907911Y-82935000D01*
X101092089Y-82935000D01*
X101272729Y-82899068D01*
X101442889Y-82828586D01*
X101500000Y-82790426D01*
X101557111Y-82828586D01*
X101727271Y-82899068D01*
X101907911Y-82935000D01*
X102065000Y-82935000D01*
X102065000Y-83092089D01*
X102100932Y-83272729D01*
X102171414Y-83442889D01*
X102209574Y-83500000D01*
X102171414Y-83557111D01*
X102100932Y-83727271D01*
X102065000Y-83907911D01*
X102065000Y-84092089D01*
X102100932Y-84272729D01*
X102171414Y-84442889D01*
X102273738Y-84596028D01*
X102403972Y-84726262D01*
X102557111Y-84828586D01*
X102727271Y-84899068D01*
X102907911Y-84935000D01*
X103092089Y-84935000D01*
X103272729Y-84899068D01*
X103442889Y-84828586D01*
X103500000Y-84790426D01*
X103557111Y-84828586D01*
X103727271Y-84899068D01*
X103907911Y-84935000D01*
X104092089Y-84935000D01*
X104272729Y-84899068D01*
X104442889Y-84828586D01*
X104500000Y-84790426D01*
X104557111Y-84828586D01*
X104727271Y-84899068D01*
X104907911Y-84935000D01*
X105092089Y-84935000D01*
X105272729Y-84899068D01*
X105442889Y-84828586D01*
X105500000Y-84790426D01*
X105557111Y-84828586D01*
X105727271Y-84899068D01*
X105907911Y-84935000D01*
X106092089Y-84935000D01*
X106272729Y-84899068D01*
X106442889Y-84828586D01*
X106596028Y-84726262D01*
X106697303Y-84624987D01*
X106827873Y-84679070D01*
X107008513Y-84715002D01*
X107192691Y-84715002D01*
X107373331Y-84679070D01*
X107543491Y-84608588D01*
X107696630Y-84506264D01*
X107826864Y-84376030D01*
X107929188Y-84222891D01*
X107999670Y-84052731D01*
X108035602Y-83872091D01*
X108035602Y-83687913D01*
X107999670Y-83507273D01*
X107929188Y-83337113D01*
X107826864Y-83183974D01*
X107696630Y-83053740D01*
X107543491Y-82951416D01*
X107373331Y-82880934D01*
X107192691Y-82845002D01*
X107008513Y-82845002D01*
X106925761Y-82861463D01*
X106899068Y-82727271D01*
X106884220Y-82691424D01*
X119380000Y-82691424D01*
X119380000Y-82916576D01*
X119423925Y-83137401D01*
X119510087Y-83345413D01*
X119635174Y-83532620D01*
X119794380Y-83691826D01*
X119981587Y-83816913D01*
X120189599Y-83903075D01*
X120410424Y-83947000D01*
X120635576Y-83947000D01*
X120856401Y-83903075D01*
X121064413Y-83816913D01*
X121251620Y-83691826D01*
X121410826Y-83532620D01*
X121535913Y-83345413D01*
X121622075Y-83137401D01*
X121666000Y-82916576D01*
X121666000Y-82691424D01*
X121622075Y-82470599D01*
X121535913Y-82262587D01*
X121410826Y-82075380D01*
X121251620Y-81916174D01*
X121064413Y-81791087D01*
X120856401Y-81704925D01*
X120635576Y-81661000D01*
X120410424Y-81661000D01*
X120189599Y-81704925D01*
X119981587Y-81791087D01*
X119794380Y-81916174D01*
X119635174Y-82075380D01*
X119510087Y-82262587D01*
X119423925Y-82470599D01*
X119380000Y-82691424D01*
X106884220Y-82691424D01*
X106828586Y-82557111D01*
X106726262Y-82403972D01*
X106596028Y-82273738D01*
X106442889Y-82171414D01*
X106272729Y-82100932D01*
X106092089Y-82065000D01*
X105935000Y-82065000D01*
X105935000Y-81907911D01*
X105899068Y-81727271D01*
X105828586Y-81557111D01*
X105726262Y-81403972D01*
X105596028Y-81273738D01*
X105442889Y-81171414D01*
X105272729Y-81100932D01*
X105092089Y-81065000D01*
X104935000Y-81065000D01*
X104935000Y-80907911D01*
X104920581Y-80835419D01*
X125065000Y-80835419D01*
X125065000Y-81216581D01*
X125139361Y-81590419D01*
X125285225Y-81942566D01*
X125496987Y-82259491D01*
X125766509Y-82529013D01*
X126083434Y-82740775D01*
X126435581Y-82886639D01*
X126809419Y-82961000D01*
X127190581Y-82961000D01*
X127564419Y-82886639D01*
X127916566Y-82740775D01*
X128233491Y-82529013D01*
X128503013Y-82259491D01*
X128714775Y-81942566D01*
X128860639Y-81590419D01*
X128935000Y-81216581D01*
X128935000Y-80835419D01*
X128860639Y-80461581D01*
X128714775Y-80109434D01*
X128503013Y-79792509D01*
X128233491Y-79522987D01*
X127916566Y-79311225D01*
X127564419Y-79165361D01*
X127190581Y-79091000D01*
X126809419Y-79091000D01*
X126435581Y-79165361D01*
X126083434Y-79311225D01*
X125766509Y-79522987D01*
X125496987Y-79792509D01*
X125285225Y-80109434D01*
X125139361Y-80461581D01*
X125065000Y-80835419D01*
X104920581Y-80835419D01*
X104899068Y-80727271D01*
X104828586Y-80557111D01*
X104726262Y-80403972D01*
X104596028Y-80273738D01*
X104442889Y-80171414D01*
X104272729Y-80100932D01*
X104092089Y-80065000D01*
X103935000Y-80065000D01*
X103935000Y-79907911D01*
X103899068Y-79727271D01*
X103869132Y-79654999D01*
X121752681Y-79619000D01*
X121777452Y-79616510D01*
X121801262Y-79609235D01*
X121823195Y-79597454D01*
X121842408Y-79581622D01*
X121858163Y-79562345D01*
X121869855Y-79540365D01*
X121877034Y-79516526D01*
X121879424Y-79492433D01*
X121888862Y-76725728D01*
X122010549Y-76847415D01*
X122280958Y-77028097D01*
X122581421Y-77152553D01*
X122900391Y-77216000D01*
X123225609Y-77216000D01*
X123544579Y-77152553D01*
X123845042Y-77028097D01*
X124115451Y-76847415D01*
X124345415Y-76617451D01*
X124526097Y-76347042D01*
X124650553Y-76046579D01*
X124714000Y-75727609D01*
X124714000Y-75402391D01*
X124650553Y-75083421D01*
X124526097Y-74782958D01*
X124345415Y-74512549D01*
X124115451Y-74282585D01*
X123845042Y-74101903D01*
X123698009Y-74041000D01*
X123845042Y-73980097D01*
X124115451Y-73799415D01*
X124345415Y-73569451D01*
X124526097Y-73299042D01*
X124546825Y-73249000D01*
X125061928Y-73249000D01*
X125061928Y-75849000D01*
X125074188Y-75973482D01*
X125110498Y-76093180D01*
X125169463Y-76203494D01*
X125248815Y-76300185D01*
X125345506Y-76379537D01*
X125455820Y-76438502D01*
X125575518Y-76474812D01*
X125700000Y-76487072D01*
X128300000Y-76487072D01*
X128424482Y-76474812D01*
X128544180Y-76438502D01*
X128654494Y-76379537D01*
X128751185Y-76300185D01*
X128830537Y-76203494D01*
X128889502Y-76093180D01*
X128925812Y-75973482D01*
X128938072Y-75849000D01*
X128938072Y-73249000D01*
X128925812Y-73124518D01*
X128889502Y-73004820D01*
X128830537Y-72894506D01*
X128751185Y-72797815D01*
X128654494Y-72718463D01*
X128544180Y-72659498D01*
X128424482Y-72623188D01*
X128300000Y-72610928D01*
X125700000Y-72610928D01*
X125575518Y-72623188D01*
X125455820Y-72659498D01*
X125345506Y-72718463D01*
X125248815Y-72797815D01*
X125169463Y-72894506D01*
X125110498Y-73004820D01*
X125074188Y-73124518D01*
X125061928Y-73249000D01*
X124546825Y-73249000D01*
X124650553Y-72998579D01*
X124714000Y-72679609D01*
X124714000Y-72354391D01*
X124650553Y-72035421D01*
X124526097Y-71734958D01*
X124345415Y-71464549D01*
X124115451Y-71234585D01*
X123845042Y-71053903D01*
X123636484Y-70967515D01*
X126028987Y-70967515D01*
X126180122Y-71232051D01*
X126539830Y-71358124D01*
X126917221Y-71411600D01*
X127297794Y-71390423D01*
X127666923Y-71295407D01*
X127819878Y-71232051D01*
X127971013Y-70967515D01*
X127000000Y-69996502D01*
X126028987Y-70967515D01*
X123636484Y-70967515D01*
X123544579Y-70929447D01*
X123225609Y-70866000D01*
X122900391Y-70866000D01*
X122581421Y-70929447D01*
X122280958Y-71053903D01*
X122010549Y-71234585D01*
X121907242Y-71337892D01*
X121913899Y-69386221D01*
X125057400Y-69386221D01*
X125078577Y-69766794D01*
X125173593Y-70135923D01*
X125236949Y-70288878D01*
X125501485Y-70440013D01*
X126472498Y-69469000D01*
X127527502Y-69469000D01*
X128498515Y-70440013D01*
X128763051Y-70288878D01*
X128889124Y-69929170D01*
X128942600Y-69551779D01*
X128921423Y-69171206D01*
X128826407Y-68802077D01*
X128763051Y-68649122D01*
X128498515Y-68497987D01*
X127527502Y-69469000D01*
X126472498Y-69469000D01*
X125501485Y-68497987D01*
X125236949Y-68649122D01*
X125110876Y-69008830D01*
X125057400Y-69386221D01*
X121913899Y-69386221D01*
X121918728Y-67970485D01*
X126028987Y-67970485D01*
X127000000Y-68941498D01*
X127971013Y-67970485D01*
X127819878Y-67705949D01*
X127460170Y-67579876D01*
X127082779Y-67526400D01*
X126702206Y-67547577D01*
X126333077Y-67642593D01*
X126180122Y-67705949D01*
X126028987Y-67970485D01*
X121918728Y-67970485D01*
X121939713Y-61819000D01*
X125061928Y-61819000D01*
X125061928Y-64419000D01*
X125074188Y-64543482D01*
X125110498Y-64663180D01*
X125169463Y-64773494D01*
X125248815Y-64870185D01*
X125345506Y-64949537D01*
X125455820Y-65008502D01*
X125575518Y-65044812D01*
X125700000Y-65057072D01*
X128300000Y-65057072D01*
X128424482Y-65044812D01*
X128544180Y-65008502D01*
X128654494Y-64949537D01*
X128751185Y-64870185D01*
X128830537Y-64773494D01*
X128889502Y-64663180D01*
X128925812Y-64543482D01*
X128938072Y-64419000D01*
X128938072Y-61819000D01*
X128925812Y-61694518D01*
X128889502Y-61574820D01*
X128830537Y-61464506D01*
X128751185Y-61367815D01*
X128654494Y-61288463D01*
X128544180Y-61229498D01*
X128424482Y-61193188D01*
X128300000Y-61180928D01*
X125700000Y-61180928D01*
X125575518Y-61193188D01*
X125455820Y-61229498D01*
X125345506Y-61288463D01*
X125248815Y-61367815D01*
X125169463Y-61464506D01*
X125110498Y-61574820D01*
X125074188Y-61694518D01*
X125061928Y-61819000D01*
X121939713Y-61819000D01*
X121953258Y-57848419D01*
X125065000Y-57848419D01*
X125065000Y-58229581D01*
X125139361Y-58603419D01*
X125285225Y-58955566D01*
X125496987Y-59272491D01*
X125766509Y-59542013D01*
X126083434Y-59753775D01*
X126435581Y-59899639D01*
X126809419Y-59974000D01*
X127190581Y-59974000D01*
X127564419Y-59899639D01*
X127916566Y-59753775D01*
X128233491Y-59542013D01*
X128503013Y-59272491D01*
X128714775Y-58955566D01*
X128860639Y-58603419D01*
X128935000Y-58229581D01*
X128935000Y-57848419D01*
X128860639Y-57474581D01*
X128714775Y-57122434D01*
X128503013Y-56805509D01*
X128233491Y-56535987D01*
X127916566Y-56324225D01*
X127564419Y-56178361D01*
X127190581Y-56104000D01*
X126809419Y-56104000D01*
X126435581Y-56178361D01*
X126083434Y-56324225D01*
X125766509Y-56535987D01*
X125496987Y-56805509D01*
X125285225Y-57122434D01*
X125139361Y-57474581D01*
X125065000Y-57848419D01*
X121953258Y-57848419D01*
X121970421Y-52817761D01*
X122066632Y-52753475D01*
X122273475Y-52546632D01*
X122390000Y-52372240D01*
X122506525Y-52546632D01*
X122713368Y-52753475D01*
X122956589Y-52915990D01*
X123226842Y-53027932D01*
X123513740Y-53085000D01*
X123806260Y-53085000D01*
X124093158Y-53027932D01*
X124363411Y-52915990D01*
X124606632Y-52753475D01*
X124813475Y-52546632D01*
X124930000Y-52372240D01*
X125046525Y-52546632D01*
X125253368Y-52753475D01*
X125496589Y-52915990D01*
X125766842Y-53027932D01*
X126053740Y-53085000D01*
X126346260Y-53085000D01*
X126633158Y-53027932D01*
X126903411Y-52915990D01*
X127146632Y-52753475D01*
X127353475Y-52546632D01*
X127474658Y-52365269D01*
X127520539Y-52447457D01*
X127709301Y-52669078D01*
X127937672Y-52849615D01*
X128146735Y-52961345D01*
X128367000Y-52872718D01*
X128367000Y-51973000D01*
X128347000Y-51973000D01*
X128347000Y-51753242D01*
X129133000Y-51756416D01*
G04 #@! TA.AperFunction,Conductor*
D24*
G36*
X129133000Y-51756416D02*
G01*
X129133000Y-51973000D01*
X129113000Y-51973000D01*
X129113000Y-52872718D01*
X129333265Y-52961345D01*
X129542328Y-52849615D01*
X129770699Y-52669078D01*
X129959461Y-52447457D01*
X130005342Y-52365269D01*
X130126525Y-52546632D01*
X130333368Y-52753475D01*
X130576589Y-52915990D01*
X130846842Y-53027932D01*
X131133740Y-53085000D01*
X131426260Y-53085000D01*
X131713158Y-53027932D01*
X131983411Y-52915990D01*
X132122802Y-52822852D01*
X132115021Y-99049593D01*
X68123675Y-99096407D01*
X68138523Y-96294834D01*
X68141081Y-96294325D01*
X68456831Y-96163537D01*
X68740998Y-95973663D01*
X68905000Y-95809661D01*
X69069002Y-95973663D01*
X69353169Y-96163537D01*
X69668919Y-96294325D01*
X70004117Y-96361000D01*
X70345883Y-96361000D01*
X70681081Y-96294325D01*
X70996831Y-96163537D01*
X71280998Y-95973663D01*
X71445000Y-95809661D01*
X71609002Y-95973663D01*
X71893169Y-96163537D01*
X72208919Y-96294325D01*
X72544117Y-96361000D01*
X72885883Y-96361000D01*
X73221081Y-96294325D01*
X73536831Y-96163537D01*
X73820998Y-95973663D01*
X74062663Y-95731998D01*
X74252537Y-95447831D01*
X74383325Y-95132081D01*
X74450000Y-94796883D01*
X74450000Y-94455117D01*
X74383325Y-94119919D01*
X74252537Y-93804169D01*
X74062663Y-93520002D01*
X73842661Y-93300000D01*
X76061928Y-93300000D01*
X76061928Y-95900000D01*
X76074188Y-96024482D01*
X76110498Y-96144180D01*
X76169463Y-96254494D01*
X76248815Y-96351185D01*
X76345506Y-96430537D01*
X76455820Y-96489502D01*
X76575518Y-96525812D01*
X76700000Y-96538072D01*
X79300000Y-96538072D01*
X79424482Y-96525812D01*
X79544180Y-96489502D01*
X79654494Y-96430537D01*
X79751185Y-96351185D01*
X79830537Y-96254494D01*
X79889502Y-96144180D01*
X79903354Y-96098515D01*
X82108987Y-96098515D01*
X82260122Y-96363051D01*
X82619830Y-96489124D01*
X82997221Y-96542600D01*
X83377794Y-96521423D01*
X83746923Y-96426407D01*
X83899878Y-96363051D01*
X84051013Y-96098515D01*
X83080000Y-95127502D01*
X82108987Y-96098515D01*
X79903354Y-96098515D01*
X79925812Y-96024482D01*
X79938072Y-95900000D01*
X79938072Y-94517221D01*
X81137400Y-94517221D01*
X81158577Y-94897794D01*
X81253593Y-95266923D01*
X81316949Y-95419878D01*
X81581485Y-95571013D01*
X82552498Y-94600000D01*
X83607502Y-94600000D01*
X84578515Y-95571013D01*
X84843051Y-95419878D01*
X84969124Y-95060170D01*
X85022600Y-94682779D01*
X85001423Y-94302206D01*
X84906407Y-93933077D01*
X84843051Y-93780122D01*
X84578515Y-93628987D01*
X83607502Y-94600000D01*
X82552498Y-94600000D01*
X81581485Y-93628987D01*
X81316949Y-93780122D01*
X81190876Y-94139830D01*
X81137400Y-94517221D01*
X79938072Y-94517221D01*
X79938072Y-93300000D01*
X79925812Y-93175518D01*
X79903355Y-93101485D01*
X82108987Y-93101485D01*
X83080000Y-94072498D01*
X83852498Y-93300000D01*
X87661928Y-93300000D01*
X87661928Y-95900000D01*
X87674188Y-96024482D01*
X87710498Y-96144180D01*
X87769463Y-96254494D01*
X87848815Y-96351185D01*
X87945506Y-96430537D01*
X88055820Y-96489502D01*
X88175518Y-96525812D01*
X88300000Y-96538072D01*
X90900000Y-96538072D01*
X91024482Y-96525812D01*
X91144180Y-96489502D01*
X91254494Y-96430537D01*
X91351185Y-96351185D01*
X91430537Y-96254494D01*
X91489502Y-96144180D01*
X91503354Y-96098515D01*
X93708987Y-96098515D01*
X93860122Y-96363051D01*
X94219830Y-96489124D01*
X94597221Y-96542600D01*
X94977794Y-96521423D01*
X95346923Y-96426407D01*
X95499878Y-96363051D01*
X95651013Y-96098515D01*
X94680000Y-95127502D01*
X93708987Y-96098515D01*
X91503354Y-96098515D01*
X91525812Y-96024482D01*
X91538072Y-95900000D01*
X91538072Y-94517221D01*
X92737400Y-94517221D01*
X92758577Y-94897794D01*
X92853593Y-95266923D01*
X92916949Y-95419878D01*
X93181485Y-95571013D01*
X94152498Y-94600000D01*
X95207502Y-94600000D01*
X96178515Y-95571013D01*
X96443051Y-95419878D01*
X96569124Y-95060170D01*
X96622600Y-94682779D01*
X96601423Y-94302206D01*
X96506407Y-93933077D01*
X96443051Y-93780122D01*
X96178515Y-93628987D01*
X95207502Y-94600000D01*
X94152498Y-94600000D01*
X93181485Y-93628987D01*
X92916949Y-93780122D01*
X92790876Y-94139830D01*
X92737400Y-94517221D01*
X91538072Y-94517221D01*
X91538072Y-93300000D01*
X91525812Y-93175518D01*
X91503355Y-93101485D01*
X93708987Y-93101485D01*
X94680000Y-94072498D01*
X95437498Y-93315000D01*
X99256928Y-93315000D01*
X99256928Y-95915000D01*
X99269188Y-96039482D01*
X99305498Y-96159180D01*
X99364463Y-96269494D01*
X99443815Y-96366185D01*
X99540506Y-96445537D01*
X99650820Y-96504502D01*
X99770518Y-96540812D01*
X99895000Y-96553072D01*
X102495000Y-96553072D01*
X102619482Y-96540812D01*
X102739180Y-96504502D01*
X102849494Y-96445537D01*
X102946185Y-96366185D01*
X103025537Y-96269494D01*
X103084502Y-96159180D01*
X103098354Y-96113515D01*
X105303987Y-96113515D01*
X105455122Y-96378051D01*
X105814830Y-96504124D01*
X106192221Y-96557600D01*
X106572794Y-96536423D01*
X106941923Y-96441407D01*
X107094878Y-96378051D01*
X107246013Y-96113515D01*
X106275000Y-95142502D01*
X105303987Y-96113515D01*
X103098354Y-96113515D01*
X103120812Y-96039482D01*
X103133072Y-95915000D01*
X103133072Y-94532221D01*
X104332400Y-94532221D01*
X104353577Y-94912794D01*
X104448593Y-95281923D01*
X104511949Y-95434878D01*
X104776485Y-95586013D01*
X105747498Y-94615000D01*
X106802502Y-94615000D01*
X107773515Y-95586013D01*
X108038051Y-95434878D01*
X108164124Y-95075170D01*
X108217600Y-94697779D01*
X108196423Y-94317206D01*
X108101407Y-93948077D01*
X108038051Y-93795122D01*
X107773515Y-93643987D01*
X106802502Y-94615000D01*
X105747498Y-94615000D01*
X104776485Y-93643987D01*
X104511949Y-93795122D01*
X104385876Y-94154830D01*
X104332400Y-94532221D01*
X103133072Y-94532221D01*
X103133072Y-93315000D01*
X103120812Y-93190518D01*
X103098355Y-93116485D01*
X105303987Y-93116485D01*
X106275000Y-94087498D01*
X107047498Y-93315000D01*
X110813928Y-93315000D01*
X110813928Y-95915000D01*
X110826188Y-96039482D01*
X110862498Y-96159180D01*
X110921463Y-96269494D01*
X111000815Y-96366185D01*
X111097506Y-96445537D01*
X111207820Y-96504502D01*
X111327518Y-96540812D01*
X111452000Y-96553072D01*
X114052000Y-96553072D01*
X114176482Y-96540812D01*
X114296180Y-96504502D01*
X114406494Y-96445537D01*
X114503185Y-96366185D01*
X114582537Y-96269494D01*
X114641502Y-96159180D01*
X114655354Y-96113515D01*
X116860987Y-96113515D01*
X117012122Y-96378051D01*
X117371830Y-96504124D01*
X117749221Y-96557600D01*
X118129794Y-96536423D01*
X118498923Y-96441407D01*
X118651878Y-96378051D01*
X118803013Y-96113515D01*
X118469370Y-95779872D01*
X126765000Y-95779872D01*
X126765000Y-96220128D01*
X126850890Y-96651925D01*
X127019369Y-97058669D01*
X127263962Y-97424729D01*
X127575271Y-97736038D01*
X127941331Y-97980631D01*
X128348075Y-98149110D01*
X128779872Y-98235000D01*
X129220128Y-98235000D01*
X129651925Y-98149110D01*
X130058669Y-97980631D01*
X130424729Y-97736038D01*
X130736038Y-97424729D01*
X130980631Y-97058669D01*
X131149110Y-96651925D01*
X131235000Y-96220128D01*
X131235000Y-95779872D01*
X131149110Y-95348075D01*
X130980631Y-94941331D01*
X130736038Y-94575271D01*
X130424729Y-94263962D01*
X130058669Y-94019369D01*
X129651925Y-93850890D01*
X129220128Y-93765000D01*
X128779872Y-93765000D01*
X128348075Y-93850890D01*
X127941331Y-94019369D01*
X127575271Y-94263962D01*
X127263962Y-94575271D01*
X127019369Y-94941331D01*
X126850890Y-95348075D01*
X126765000Y-95779872D01*
X118469370Y-95779872D01*
X117832000Y-95142502D01*
X116860987Y-96113515D01*
X114655354Y-96113515D01*
X114677812Y-96039482D01*
X114690072Y-95915000D01*
X114690072Y-94532221D01*
X115889400Y-94532221D01*
X115910577Y-94912794D01*
X116005593Y-95281923D01*
X116068949Y-95434878D01*
X116333485Y-95586013D01*
X117304498Y-94615000D01*
X118359502Y-94615000D01*
X119330515Y-95586013D01*
X119595051Y-95434878D01*
X119721124Y-95075170D01*
X119774600Y-94697779D01*
X119753423Y-94317206D01*
X119658407Y-93948077D01*
X119595051Y-93795122D01*
X119330515Y-93643987D01*
X118359502Y-94615000D01*
X117304498Y-94615000D01*
X116333485Y-93643987D01*
X116068949Y-93795122D01*
X115942876Y-94154830D01*
X115889400Y-94532221D01*
X114690072Y-94532221D01*
X114690072Y-93315000D01*
X114677812Y-93190518D01*
X114655355Y-93116485D01*
X116860987Y-93116485D01*
X117832000Y-94087498D01*
X118803013Y-93116485D01*
X118651878Y-92851949D01*
X118292170Y-92725876D01*
X117914779Y-92672400D01*
X117534206Y-92693577D01*
X117165077Y-92788593D01*
X117012122Y-92851949D01*
X116860987Y-93116485D01*
X114655355Y-93116485D01*
X114641502Y-93070820D01*
X114582537Y-92960506D01*
X114503185Y-92863815D01*
X114406494Y-92784463D01*
X114296180Y-92725498D01*
X114176482Y-92689188D01*
X114052000Y-92676928D01*
X111452000Y-92676928D01*
X111327518Y-92689188D01*
X111207820Y-92725498D01*
X111097506Y-92784463D01*
X111000815Y-92863815D01*
X110921463Y-92960506D01*
X110862498Y-93070820D01*
X110826188Y-93190518D01*
X110813928Y-93315000D01*
X107047498Y-93315000D01*
X107246013Y-93116485D01*
X107094878Y-92851949D01*
X106735170Y-92725876D01*
X106357779Y-92672400D01*
X105977206Y-92693577D01*
X105608077Y-92788593D01*
X105455122Y-92851949D01*
X105303987Y-93116485D01*
X103098355Y-93116485D01*
X103084502Y-93070820D01*
X103025537Y-92960506D01*
X102946185Y-92863815D01*
X102849494Y-92784463D01*
X102739180Y-92725498D01*
X102619482Y-92689188D01*
X102495000Y-92676928D01*
X99895000Y-92676928D01*
X99770518Y-92689188D01*
X99650820Y-92725498D01*
X99540506Y-92784463D01*
X99443815Y-92863815D01*
X99364463Y-92960506D01*
X99305498Y-93070820D01*
X99269188Y-93190518D01*
X99256928Y-93315000D01*
X95437498Y-93315000D01*
X95651013Y-93101485D01*
X95499878Y-92836949D01*
X95140170Y-92710876D01*
X94762779Y-92657400D01*
X94382206Y-92678577D01*
X94013077Y-92773593D01*
X93860122Y-92836949D01*
X93708987Y-93101485D01*
X91503355Y-93101485D01*
X91489502Y-93055820D01*
X91430537Y-92945506D01*
X91351185Y-92848815D01*
X91254494Y-92769463D01*
X91144180Y-92710498D01*
X91024482Y-92674188D01*
X90900000Y-92661928D01*
X88300000Y-92661928D01*
X88175518Y-92674188D01*
X88055820Y-92710498D01*
X87945506Y-92769463D01*
X87848815Y-92848815D01*
X87769463Y-92945506D01*
X87710498Y-93055820D01*
X87674188Y-93175518D01*
X87661928Y-93300000D01*
X83852498Y-93300000D01*
X84051013Y-93101485D01*
X83899878Y-92836949D01*
X83540170Y-92710876D01*
X83162779Y-92657400D01*
X82782206Y-92678577D01*
X82413077Y-92773593D01*
X82260122Y-92836949D01*
X82108987Y-93101485D01*
X79903355Y-93101485D01*
X79889502Y-93055820D01*
X79830537Y-92945506D01*
X79751185Y-92848815D01*
X79654494Y-92769463D01*
X79544180Y-92710498D01*
X79424482Y-92674188D01*
X79300000Y-92661928D01*
X76700000Y-92661928D01*
X76575518Y-92674188D01*
X76455820Y-92710498D01*
X76345506Y-92769463D01*
X76248815Y-92848815D01*
X76169463Y-92945506D01*
X76110498Y-93055820D01*
X76074188Y-93175518D01*
X76061928Y-93300000D01*
X73842661Y-93300000D01*
X73820998Y-93278337D01*
X73536831Y-93088463D01*
X73221081Y-92957675D01*
X72885883Y-92891000D01*
X72544117Y-92891000D01*
X72208919Y-92957675D01*
X71893169Y-93088463D01*
X71609002Y-93278337D01*
X71445000Y-93442339D01*
X71280998Y-93278337D01*
X70996831Y-93088463D01*
X70681081Y-92957675D01*
X70345883Y-92891000D01*
X70004117Y-92891000D01*
X69668919Y-92957675D01*
X69353169Y-93088463D01*
X69069002Y-93278337D01*
X68905000Y-93442339D01*
X68740998Y-93278337D01*
X68456831Y-93088463D01*
X68156176Y-92963927D01*
X68159050Y-92421681D01*
X68272729Y-92399068D01*
X68442889Y-92328586D01*
X68596028Y-92226262D01*
X68726262Y-92096028D01*
X68828586Y-91942889D01*
X68899068Y-91772729D01*
X68935000Y-91592089D01*
X68935000Y-91407911D01*
X68899068Y-91227271D01*
X68828586Y-91057111D01*
X68726262Y-90903972D01*
X68596028Y-90773738D01*
X68442889Y-90671414D01*
X68272729Y-90600932D01*
X68168809Y-90580261D01*
X68189358Y-86702931D01*
X68191316Y-86700000D01*
X69061928Y-86700000D01*
X69074188Y-86824482D01*
X69110498Y-86944180D01*
X69169463Y-87054494D01*
X69248815Y-87151185D01*
X69345506Y-87230537D01*
X69455820Y-87289502D01*
X69575518Y-87325812D01*
X69700000Y-87338072D01*
X69968250Y-87335000D01*
X70127000Y-87176250D01*
X70127000Y-86273000D01*
X70873000Y-86273000D01*
X70873000Y-87176250D01*
X71031750Y-87335000D01*
X71300000Y-87338072D01*
X71424482Y-87325812D01*
X71544180Y-87289502D01*
X71654494Y-87230537D01*
X71751185Y-87151185D01*
X71830537Y-87054494D01*
X71889502Y-86944180D01*
X71925812Y-86824482D01*
X71938072Y-86700000D01*
X71935000Y-86431750D01*
X71776250Y-86273000D01*
X70873000Y-86273000D01*
X70127000Y-86273000D01*
X69223750Y-86273000D01*
X69065000Y-86431750D01*
X69061928Y-86700000D01*
X68191316Y-86700000D01*
X68271680Y-86579727D01*
X68379853Y-86318574D01*
X68435000Y-86041335D01*
X68435000Y-85758665D01*
X68379853Y-85481426D01*
X68271680Y-85220273D01*
X68197801Y-85109706D01*
X68197852Y-85100000D01*
X69061928Y-85100000D01*
X69065000Y-85368250D01*
X69223750Y-85527000D01*
X70127000Y-85527000D01*
X70127000Y-84623750D01*
X70873000Y-84623750D01*
X70873000Y-85527000D01*
X71776250Y-85527000D01*
X71935000Y-85368250D01*
X71938072Y-85100000D01*
X71925812Y-84975518D01*
X71889502Y-84855820D01*
X71830537Y-84745506D01*
X71751185Y-84648815D01*
X71654494Y-84569463D01*
X71544180Y-84510498D01*
X71424482Y-84474188D01*
X71300000Y-84461928D01*
X71031750Y-84465000D01*
X70873000Y-84623750D01*
X70127000Y-84623750D01*
X69968250Y-84465000D01*
X69700000Y-84461928D01*
X69575518Y-84474188D01*
X69455820Y-84510498D01*
X69345506Y-84569463D01*
X69248815Y-84648815D01*
X69169463Y-84745506D01*
X69110498Y-84855820D01*
X69074188Y-84975518D01*
X69061928Y-85100000D01*
X68197852Y-85100000D01*
X68226330Y-79726746D01*
X79110224Y-79704837D01*
X79100932Y-79727271D01*
X79065000Y-79907911D01*
X79065000Y-80065000D01*
X78907911Y-80065000D01*
X78727271Y-80100932D01*
X78557111Y-80171414D01*
X78403972Y-80273738D01*
X78273738Y-80403972D01*
X78171414Y-80557111D01*
X78100932Y-80727271D01*
X78065000Y-80907911D01*
X78065000Y-81065000D01*
X77907911Y-81065000D01*
X77727271Y-81100932D01*
X77557111Y-81171414D01*
X77403972Y-81273738D01*
X77273738Y-81403972D01*
X77171414Y-81557111D01*
X77100932Y-81727271D01*
X77065000Y-81907911D01*
X77065000Y-82092089D01*
X77100932Y-82272729D01*
X77171414Y-82442889D01*
X77273738Y-82596028D01*
X77403972Y-82726262D01*
X77557111Y-82828586D01*
X77727271Y-82899068D01*
X77907911Y-82935000D01*
X78092089Y-82935000D01*
X78272729Y-82899068D01*
X78442889Y-82828586D01*
X78500000Y-82790426D01*
X78557111Y-82828586D01*
X78727271Y-82899068D01*
X78907911Y-82935000D01*
X79092089Y-82935000D01*
X79272729Y-82899068D01*
X79442889Y-82828586D01*
X79500000Y-82790426D01*
X79557111Y-82828586D01*
X79727271Y-82899068D01*
X79907911Y-82935000D01*
X80065000Y-82935000D01*
X80065000Y-83092089D01*
X80100932Y-83272729D01*
X80171414Y-83442889D01*
X80209574Y-83500000D01*
X80171414Y-83557111D01*
X80100932Y-83727271D01*
X80065000Y-83907911D01*
X80065000Y-84092089D01*
X80100932Y-84272729D01*
X80171414Y-84442889D01*
X80209574Y-84500000D01*
X80171414Y-84557111D01*
X80100932Y-84727271D01*
X80065000Y-84907911D01*
X80065000Y-85092089D01*
X80100932Y-85272729D01*
X80171414Y-85442889D01*
X80273738Y-85596028D01*
X80403972Y-85726262D01*
X80557111Y-85828586D01*
X80727271Y-85899068D01*
X80907911Y-85935000D01*
X81092089Y-85935000D01*
X81272729Y-85899068D01*
X81442889Y-85828586D01*
X81500000Y-85790426D01*
X81557111Y-85828586D01*
X81727271Y-85899068D01*
X81907911Y-85935000D01*
X82065000Y-85935000D01*
X82065000Y-86092089D01*
X82100932Y-86272729D01*
X82171414Y-86442889D01*
X82209574Y-86500000D01*
X82171414Y-86557111D01*
X82100932Y-86727271D01*
X82065000Y-86907911D01*
X82065000Y-87092089D01*
X82100932Y-87272729D01*
X82171414Y-87442889D01*
X82209574Y-87500000D01*
X82171414Y-87557111D01*
X82100932Y-87727271D01*
X82065000Y-87907911D01*
X82065000Y-88092089D01*
X82100932Y-88272729D01*
X82171414Y-88442889D01*
X82273738Y-88596028D01*
X82403972Y-88726262D01*
X82557111Y-88828586D01*
X82727271Y-88899068D01*
X82907911Y-88935000D01*
X83092089Y-88935000D01*
X83272729Y-88899068D01*
X83442889Y-88828586D01*
X83500000Y-88790426D01*
X83557111Y-88828586D01*
X83727271Y-88899068D01*
X83907911Y-88935000D01*
X84092089Y-88935000D01*
X84272729Y-88899068D01*
X84442889Y-88828586D01*
X84500000Y-88790426D01*
X84557111Y-88828586D01*
X84727271Y-88899068D01*
X84907911Y-88935000D01*
X85092089Y-88935000D01*
X85272729Y-88899068D01*
X85442889Y-88828586D01*
X85500000Y-88790426D01*
X85557111Y-88828586D01*
X85727271Y-88899068D01*
X85907911Y-88935000D01*
X86092089Y-88935000D01*
X86272729Y-88899068D01*
X86442889Y-88828586D01*
X86500000Y-88790426D01*
X86557111Y-88828586D01*
X86727271Y-88899068D01*
X86907911Y-88935000D01*
X87092089Y-88935000D01*
X87272729Y-88899068D01*
X87442889Y-88828586D01*
X87596028Y-88726262D01*
X87726262Y-88596028D01*
X87828586Y-88442889D01*
X87899068Y-88272729D01*
X87935000Y-88092089D01*
X87935000Y-87907911D01*
X87899068Y-87727271D01*
X87828586Y-87557111D01*
X87790426Y-87500000D01*
X87828586Y-87442889D01*
X87899068Y-87272729D01*
X87935000Y-87092089D01*
X87935000Y-86907911D01*
X87899068Y-86727271D01*
X87828586Y-86557111D01*
X87790426Y-86500000D01*
X87828586Y-86442889D01*
X87899068Y-86272729D01*
X87935000Y-86092089D01*
X87935000Y-85935000D01*
X88092089Y-85935000D01*
X88272729Y-85899068D01*
X88442889Y-85828586D01*
X88596028Y-85726262D01*
X88726262Y-85596028D01*
X88828586Y-85442889D01*
X88899068Y-85272729D01*
X88935000Y-85092089D01*
X88935000Y-84907911D01*
X88899068Y-84727271D01*
X88828586Y-84557111D01*
X88790426Y-84500000D01*
X88828586Y-84442889D01*
X88899068Y-84272729D01*
X88935000Y-84092089D01*
X88935000Y-83907911D01*
X88899068Y-83727271D01*
X88828586Y-83557111D01*
X88790426Y-83500000D01*
X88828586Y-83442889D01*
X88899068Y-83272729D01*
X88935000Y-83092089D01*
X88935000Y-82935000D01*
X89092089Y-82935000D01*
X89272729Y-82899068D01*
X89442889Y-82828586D01*
X89500000Y-82790426D01*
X89557111Y-82828586D01*
X89727271Y-82899068D01*
X89907911Y-82935000D01*
X90092089Y-82935000D01*
X90272729Y-82899068D01*
X90442889Y-82828586D01*
X90500000Y-82790426D01*
X90557111Y-82828586D01*
X90727271Y-82899068D01*
X90907911Y-82935000D01*
X91092089Y-82935000D01*
X91272729Y-82899068D01*
X91442889Y-82828586D01*
X91500000Y-82790426D01*
X91557111Y-82828586D01*
X91727271Y-82899068D01*
X91907911Y-82935000D01*
X92065000Y-82935000D01*
X92065000Y-83092089D01*
X92086587Y-83200612D01*
X92042889Y-83171414D01*
X91872729Y-83100932D01*
X91692089Y-83065000D01*
X91507911Y-83065000D01*
X91327271Y-83100932D01*
X91157111Y-83171414D01*
X91003972Y-83273738D01*
X90873738Y-83403972D01*
X90771414Y-83557111D01*
X90700932Y-83727271D01*
X90665000Y-83907911D01*
X90665000Y-84092089D01*
X90700932Y-84272729D01*
X90771414Y-84442889D01*
X90873738Y-84596028D01*
X91003972Y-84726262D01*
X91157111Y-84828586D01*
X91327271Y-84899068D01*
X91507911Y-84935000D01*
X91692089Y-84935000D01*
X91872729Y-84899068D01*
X92042889Y-84828586D01*
X92086587Y-84799388D01*
X92065000Y-84907911D01*
X92065000Y-85092089D01*
X92100932Y-85272729D01*
X92171414Y-85442889D01*
X92273738Y-85596028D01*
X92403972Y-85726262D01*
X92557111Y-85828586D01*
X92727271Y-85899068D01*
X92907911Y-85935000D01*
X93065000Y-85935000D01*
X93065000Y-86092089D01*
X93100932Y-86272729D01*
X93171414Y-86442889D01*
X93209574Y-86500000D01*
X93171414Y-86557111D01*
X93100932Y-86727271D01*
X93065000Y-86907911D01*
X93065000Y-87092089D01*
X93100932Y-87272729D01*
X93171414Y-87442889D01*
X93273738Y-87596028D01*
X93403972Y-87726262D01*
X93557111Y-87828586D01*
X93727271Y-87899068D01*
X93907911Y-87935000D01*
X94092089Y-87935000D01*
X94272729Y-87899068D01*
X94442889Y-87828586D01*
X94500000Y-87790426D01*
X94557111Y-87828586D01*
X94727271Y-87899068D01*
X94907911Y-87935000D01*
X95092089Y-87935000D01*
X95272729Y-87899068D01*
X95442889Y-87828586D01*
X95500000Y-87790426D01*
X95557111Y-87828586D01*
X95727271Y-87899068D01*
X95907911Y-87935000D01*
X96092089Y-87935000D01*
X96272729Y-87899068D01*
X96274283Y-87898424D01*
X117094000Y-87898424D01*
X117094000Y-88123576D01*
X117137925Y-88344401D01*
X117224087Y-88552413D01*
X117349174Y-88739620D01*
X117508380Y-88898826D01*
X117695587Y-89023913D01*
X117903599Y-89110075D01*
X118124424Y-89154000D01*
X118349576Y-89154000D01*
X118570401Y-89110075D01*
X118778413Y-89023913D01*
X118965620Y-88898826D01*
X119124826Y-88739620D01*
X119249913Y-88552413D01*
X119336075Y-88344401D01*
X119380000Y-88123576D01*
X119380000Y-87898424D01*
X119336075Y-87677599D01*
X119249913Y-87469587D01*
X119124826Y-87282380D01*
X118965620Y-87123174D01*
X118778413Y-86998087D01*
X118570401Y-86911925D01*
X118349576Y-86868000D01*
X118124424Y-86868000D01*
X117903599Y-86911925D01*
X117695587Y-86998087D01*
X117508380Y-87123174D01*
X117349174Y-87282380D01*
X117224087Y-87469587D01*
X117137925Y-87677599D01*
X117094000Y-87898424D01*
X96274283Y-87898424D01*
X96442889Y-87828586D01*
X96596028Y-87726262D01*
X96726262Y-87596028D01*
X96828586Y-87442889D01*
X96899068Y-87272729D01*
X96935000Y-87092089D01*
X96935000Y-86907911D01*
X96899068Y-86727271D01*
X96828586Y-86557111D01*
X96790426Y-86500000D01*
X96828586Y-86442889D01*
X96899068Y-86272729D01*
X96935000Y-86092089D01*
X96935000Y-85935000D01*
X97092089Y-85935000D01*
X97272729Y-85899068D01*
X97442889Y-85828586D01*
X97500000Y-85790426D01*
X97557111Y-85828586D01*
X97727271Y-85899068D01*
X97907911Y-85935000D01*
X98092089Y-85935000D01*
X98272729Y-85899068D01*
X98442889Y-85828586D01*
X98596028Y-85726262D01*
X98726262Y-85596028D01*
X98828586Y-85442889D01*
X98899068Y-85272729D01*
X98907284Y-85231424D01*
X112014000Y-85231424D01*
X112014000Y-85456576D01*
X112057925Y-85677401D01*
X112144087Y-85885413D01*
X112269174Y-86072620D01*
X112428380Y-86231826D01*
X112615587Y-86356913D01*
X112823599Y-86443075D01*
X113044424Y-86487000D01*
X113269576Y-86487000D01*
X113490401Y-86443075D01*
X113698413Y-86356913D01*
X113885620Y-86231826D01*
X114044826Y-86072620D01*
X114169913Y-85885413D01*
X114256075Y-85677401D01*
X114300000Y-85456576D01*
X114300000Y-85231424D01*
X114256075Y-85010599D01*
X114171327Y-84806000D01*
X125061928Y-84806000D01*
X125061928Y-87406000D01*
X125074188Y-87530482D01*
X125110498Y-87650180D01*
X125169463Y-87760494D01*
X125248815Y-87857185D01*
X125345506Y-87936537D01*
X125455820Y-87995502D01*
X125575518Y-88031812D01*
X125700000Y-88044072D01*
X128300000Y-88044072D01*
X128424482Y-88031812D01*
X128544180Y-87995502D01*
X128654494Y-87936537D01*
X128751185Y-87857185D01*
X128830537Y-87760494D01*
X128889502Y-87650180D01*
X128925812Y-87530482D01*
X128938072Y-87406000D01*
X128938072Y-84806000D01*
X128925812Y-84681518D01*
X128889502Y-84561820D01*
X128830537Y-84451506D01*
X128751185Y-84354815D01*
X128654494Y-84275463D01*
X128544180Y-84216498D01*
X128424482Y-84180188D01*
X128300000Y-84167928D01*
X125700000Y-84167928D01*
X125575518Y-84180188D01*
X125455820Y-84216498D01*
X125345506Y-84275463D01*
X125248815Y-84354815D01*
X125169463Y-84451506D01*
X125110498Y-84561820D01*
X125074188Y-84681518D01*
X125061928Y-84806000D01*
X114171327Y-84806000D01*
X114169913Y-84802587D01*
X114044826Y-84615380D01*
X113885620Y-84456174D01*
X113698413Y-84331087D01*
X113490401Y-84244925D01*
X113269576Y-84201000D01*
X113044424Y-84201000D01*
X112823599Y-84244925D01*
X112615587Y-84331087D01*
X112428380Y-84456174D01*
X112269174Y-84615380D01*
X112144087Y-84802587D01*
X112057925Y-85010599D01*
X112014000Y-85231424D01*
X98907284Y-85231424D01*
X98935000Y-85092089D01*
X98935000Y-84907911D01*
X98899068Y-84727271D01*
X98828586Y-84557111D01*
X98790426Y-84500000D01*
X98828586Y-84442889D01*
X98899068Y-84272729D01*
X98935000Y-84092089D01*
X98935000Y-83907911D01*
X98899068Y-83727271D01*
X98828586Y-83557111D01*
X98790426Y-83500000D01*
X98828586Y-83442889D01*
X98899068Y-83272729D01*
X98935000Y-83092089D01*
X98935000Y-82935000D01*
X99092089Y-82935000D01*
X99272729Y-82899068D01*
X99442889Y-82828586D01*
X99500000Y-82790426D01*
X99557111Y-82828586D01*
X99727271Y-82899068D01*
X99907911Y-82935000D01*
X100092089Y-82935000D01*
X100272729Y-82899068D01*
X100442889Y-82828586D01*
X100500000Y-82790426D01*
X100557111Y-82828586D01*
X100727271Y-82899068D01*
X100907911Y-82935000D01*
X101092089Y-82935000D01*
X101272729Y-82899068D01*
X101442889Y-82828586D01*
X101500000Y-82790426D01*
X101557111Y-82828586D01*
X101727271Y-82899068D01*
X101907911Y-82935000D01*
X102065000Y-82935000D01*
X102065000Y-83092089D01*
X102100932Y-83272729D01*
X102171414Y-83442889D01*
X102209574Y-83500000D01*
X102171414Y-83557111D01*
X102100932Y-83727271D01*
X102065000Y-83907911D01*
X102065000Y-84092089D01*
X102100932Y-84272729D01*
X102171414Y-84442889D01*
X102273738Y-84596028D01*
X102403972Y-84726262D01*
X102557111Y-84828586D01*
X102727271Y-84899068D01*
X102907911Y-84935000D01*
X103092089Y-84935000D01*
X103272729Y-84899068D01*
X103442889Y-84828586D01*
X103500000Y-84790426D01*
X103557111Y-84828586D01*
X103727271Y-84899068D01*
X103907911Y-84935000D01*
X104092089Y-84935000D01*
X104272729Y-84899068D01*
X104442889Y-84828586D01*
X104500000Y-84790426D01*
X104557111Y-84828586D01*
X104727271Y-84899068D01*
X104907911Y-84935000D01*
X105092089Y-84935000D01*
X105272729Y-84899068D01*
X105442889Y-84828586D01*
X105500000Y-84790426D01*
X105557111Y-84828586D01*
X105727271Y-84899068D01*
X105907911Y-84935000D01*
X106092089Y-84935000D01*
X106272729Y-84899068D01*
X106442889Y-84828586D01*
X106596028Y-84726262D01*
X106697303Y-84624987D01*
X106827873Y-84679070D01*
X107008513Y-84715002D01*
X107192691Y-84715002D01*
X107373331Y-84679070D01*
X107543491Y-84608588D01*
X107696630Y-84506264D01*
X107826864Y-84376030D01*
X107929188Y-84222891D01*
X107999670Y-84052731D01*
X108035602Y-83872091D01*
X108035602Y-83687913D01*
X107999670Y-83507273D01*
X107929188Y-83337113D01*
X107826864Y-83183974D01*
X107696630Y-83053740D01*
X107543491Y-82951416D01*
X107373331Y-82880934D01*
X107192691Y-82845002D01*
X107008513Y-82845002D01*
X106925761Y-82861463D01*
X106899068Y-82727271D01*
X106884220Y-82691424D01*
X119380000Y-82691424D01*
X119380000Y-82916576D01*
X119423925Y-83137401D01*
X119510087Y-83345413D01*
X119635174Y-83532620D01*
X119794380Y-83691826D01*
X119981587Y-83816913D01*
X120189599Y-83903075D01*
X120410424Y-83947000D01*
X120635576Y-83947000D01*
X120856401Y-83903075D01*
X121064413Y-83816913D01*
X121251620Y-83691826D01*
X121410826Y-83532620D01*
X121535913Y-83345413D01*
X121622075Y-83137401D01*
X121666000Y-82916576D01*
X121666000Y-82691424D01*
X121622075Y-82470599D01*
X121535913Y-82262587D01*
X121410826Y-82075380D01*
X121251620Y-81916174D01*
X121064413Y-81791087D01*
X120856401Y-81704925D01*
X120635576Y-81661000D01*
X120410424Y-81661000D01*
X120189599Y-81704925D01*
X119981587Y-81791087D01*
X119794380Y-81916174D01*
X119635174Y-82075380D01*
X119510087Y-82262587D01*
X119423925Y-82470599D01*
X119380000Y-82691424D01*
X106884220Y-82691424D01*
X106828586Y-82557111D01*
X106726262Y-82403972D01*
X106596028Y-82273738D01*
X106442889Y-82171414D01*
X106272729Y-82100932D01*
X106092089Y-82065000D01*
X105935000Y-82065000D01*
X105935000Y-81907911D01*
X105899068Y-81727271D01*
X105828586Y-81557111D01*
X105726262Y-81403972D01*
X105596028Y-81273738D01*
X105442889Y-81171414D01*
X105272729Y-81100932D01*
X105092089Y-81065000D01*
X104935000Y-81065000D01*
X104935000Y-80907911D01*
X104920581Y-80835419D01*
X125065000Y-80835419D01*
X125065000Y-81216581D01*
X125139361Y-81590419D01*
X125285225Y-81942566D01*
X125496987Y-82259491D01*
X125766509Y-82529013D01*
X126083434Y-82740775D01*
X126435581Y-82886639D01*
X126809419Y-82961000D01*
X127190581Y-82961000D01*
X127564419Y-82886639D01*
X127916566Y-82740775D01*
X128233491Y-82529013D01*
X128503013Y-82259491D01*
X128714775Y-81942566D01*
X128860639Y-81590419D01*
X128935000Y-81216581D01*
X128935000Y-80835419D01*
X128860639Y-80461581D01*
X128714775Y-80109434D01*
X128503013Y-79792509D01*
X128233491Y-79522987D01*
X127916566Y-79311225D01*
X127564419Y-79165361D01*
X127190581Y-79091000D01*
X126809419Y-79091000D01*
X126435581Y-79165361D01*
X126083434Y-79311225D01*
X125766509Y-79522987D01*
X125496987Y-79792509D01*
X125285225Y-80109434D01*
X125139361Y-80461581D01*
X125065000Y-80835419D01*
X104920581Y-80835419D01*
X104899068Y-80727271D01*
X104828586Y-80557111D01*
X104726262Y-80403972D01*
X104596028Y-80273738D01*
X104442889Y-80171414D01*
X104272729Y-80100932D01*
X104092089Y-80065000D01*
X103935000Y-80065000D01*
X103935000Y-79907911D01*
X103899068Y-79727271D01*
X103869132Y-79654999D01*
X121752681Y-79619000D01*
X121777452Y-79616510D01*
X121801262Y-79609235D01*
X121823195Y-79597454D01*
X121842408Y-79581622D01*
X121858163Y-79562345D01*
X121869855Y-79540365D01*
X121877034Y-79516526D01*
X121879424Y-79492433D01*
X121888862Y-76725728D01*
X122010549Y-76847415D01*
X122280958Y-77028097D01*
X122581421Y-77152553D01*
X122900391Y-77216000D01*
X123225609Y-77216000D01*
X123544579Y-77152553D01*
X123845042Y-77028097D01*
X124115451Y-76847415D01*
X124345415Y-76617451D01*
X124526097Y-76347042D01*
X124650553Y-76046579D01*
X124714000Y-75727609D01*
X124714000Y-75402391D01*
X124650553Y-75083421D01*
X124526097Y-74782958D01*
X124345415Y-74512549D01*
X124115451Y-74282585D01*
X123845042Y-74101903D01*
X123698009Y-74041000D01*
X123845042Y-73980097D01*
X124115451Y-73799415D01*
X124345415Y-73569451D01*
X124526097Y-73299042D01*
X124546825Y-73249000D01*
X125061928Y-73249000D01*
X125061928Y-75849000D01*
X125074188Y-75973482D01*
X125110498Y-76093180D01*
X125169463Y-76203494D01*
X125248815Y-76300185D01*
X125345506Y-76379537D01*
X125455820Y-76438502D01*
X125575518Y-76474812D01*
X125700000Y-76487072D01*
X128300000Y-76487072D01*
X128424482Y-76474812D01*
X128544180Y-76438502D01*
X128654494Y-76379537D01*
X128751185Y-76300185D01*
X128830537Y-76203494D01*
X128889502Y-76093180D01*
X128925812Y-75973482D01*
X128938072Y-75849000D01*
X128938072Y-73249000D01*
X128925812Y-73124518D01*
X128889502Y-73004820D01*
X128830537Y-72894506D01*
X128751185Y-72797815D01*
X128654494Y-72718463D01*
X128544180Y-72659498D01*
X128424482Y-72623188D01*
X128300000Y-72610928D01*
X125700000Y-72610928D01*
X125575518Y-72623188D01*
X125455820Y-72659498D01*
X125345506Y-72718463D01*
X125248815Y-72797815D01*
X125169463Y-72894506D01*
X125110498Y-73004820D01*
X125074188Y-73124518D01*
X125061928Y-73249000D01*
X124546825Y-73249000D01*
X124650553Y-72998579D01*
X124714000Y-72679609D01*
X124714000Y-72354391D01*
X124650553Y-72035421D01*
X124526097Y-71734958D01*
X124345415Y-71464549D01*
X124115451Y-71234585D01*
X123845042Y-71053903D01*
X123636484Y-70967515D01*
X126028987Y-70967515D01*
X126180122Y-71232051D01*
X126539830Y-71358124D01*
X126917221Y-71411600D01*
X127297794Y-71390423D01*
X127666923Y-71295407D01*
X127819878Y-71232051D01*
X127971013Y-70967515D01*
X127000000Y-69996502D01*
X126028987Y-70967515D01*
X123636484Y-70967515D01*
X123544579Y-70929447D01*
X123225609Y-70866000D01*
X122900391Y-70866000D01*
X122581421Y-70929447D01*
X122280958Y-71053903D01*
X122010549Y-71234585D01*
X121907242Y-71337892D01*
X121913899Y-69386221D01*
X125057400Y-69386221D01*
X125078577Y-69766794D01*
X125173593Y-70135923D01*
X125236949Y-70288878D01*
X125501485Y-70440013D01*
X126472498Y-69469000D01*
X127527502Y-69469000D01*
X128498515Y-70440013D01*
X128763051Y-70288878D01*
X128889124Y-69929170D01*
X128942600Y-69551779D01*
X128921423Y-69171206D01*
X128826407Y-68802077D01*
X128763051Y-68649122D01*
X128498515Y-68497987D01*
X127527502Y-69469000D01*
X126472498Y-69469000D01*
X125501485Y-68497987D01*
X125236949Y-68649122D01*
X125110876Y-69008830D01*
X125057400Y-69386221D01*
X121913899Y-69386221D01*
X121918728Y-67970485D01*
X126028987Y-67970485D01*
X127000000Y-68941498D01*
X127971013Y-67970485D01*
X127819878Y-67705949D01*
X127460170Y-67579876D01*
X127082779Y-67526400D01*
X126702206Y-67547577D01*
X126333077Y-67642593D01*
X126180122Y-67705949D01*
X126028987Y-67970485D01*
X121918728Y-67970485D01*
X121939713Y-61819000D01*
X125061928Y-61819000D01*
X125061928Y-64419000D01*
X125074188Y-64543482D01*
X125110498Y-64663180D01*
X125169463Y-64773494D01*
X125248815Y-64870185D01*
X125345506Y-64949537D01*
X125455820Y-65008502D01*
X125575518Y-65044812D01*
X125700000Y-65057072D01*
X128300000Y-65057072D01*
X128424482Y-65044812D01*
X128544180Y-65008502D01*
X128654494Y-64949537D01*
X128751185Y-64870185D01*
X128830537Y-64773494D01*
X128889502Y-64663180D01*
X128925812Y-64543482D01*
X128938072Y-64419000D01*
X128938072Y-61819000D01*
X128925812Y-61694518D01*
X128889502Y-61574820D01*
X128830537Y-61464506D01*
X128751185Y-61367815D01*
X128654494Y-61288463D01*
X128544180Y-61229498D01*
X128424482Y-61193188D01*
X128300000Y-61180928D01*
X125700000Y-61180928D01*
X125575518Y-61193188D01*
X125455820Y-61229498D01*
X125345506Y-61288463D01*
X125248815Y-61367815D01*
X125169463Y-61464506D01*
X125110498Y-61574820D01*
X125074188Y-61694518D01*
X125061928Y-61819000D01*
X121939713Y-61819000D01*
X121953258Y-57848419D01*
X125065000Y-57848419D01*
X125065000Y-58229581D01*
X125139361Y-58603419D01*
X125285225Y-58955566D01*
X125496987Y-59272491D01*
X125766509Y-59542013D01*
X126083434Y-59753775D01*
X126435581Y-59899639D01*
X126809419Y-59974000D01*
X127190581Y-59974000D01*
X127564419Y-59899639D01*
X127916566Y-59753775D01*
X128233491Y-59542013D01*
X128503013Y-59272491D01*
X128714775Y-58955566D01*
X128860639Y-58603419D01*
X128935000Y-58229581D01*
X128935000Y-57848419D01*
X128860639Y-57474581D01*
X128714775Y-57122434D01*
X128503013Y-56805509D01*
X128233491Y-56535987D01*
X127916566Y-56324225D01*
X127564419Y-56178361D01*
X127190581Y-56104000D01*
X126809419Y-56104000D01*
X126435581Y-56178361D01*
X126083434Y-56324225D01*
X125766509Y-56535987D01*
X125496987Y-56805509D01*
X125285225Y-57122434D01*
X125139361Y-57474581D01*
X125065000Y-57848419D01*
X121953258Y-57848419D01*
X121970421Y-52817761D01*
X122066632Y-52753475D01*
X122273475Y-52546632D01*
X122390000Y-52372240D01*
X122506525Y-52546632D01*
X122713368Y-52753475D01*
X122956589Y-52915990D01*
X123226842Y-53027932D01*
X123513740Y-53085000D01*
X123806260Y-53085000D01*
X124093158Y-53027932D01*
X124363411Y-52915990D01*
X124606632Y-52753475D01*
X124813475Y-52546632D01*
X124930000Y-52372240D01*
X125046525Y-52546632D01*
X125253368Y-52753475D01*
X125496589Y-52915990D01*
X125766842Y-53027932D01*
X126053740Y-53085000D01*
X126346260Y-53085000D01*
X126633158Y-53027932D01*
X126903411Y-52915990D01*
X127146632Y-52753475D01*
X127353475Y-52546632D01*
X127474658Y-52365269D01*
X127520539Y-52447457D01*
X127709301Y-52669078D01*
X127937672Y-52849615D01*
X128146735Y-52961345D01*
X128367000Y-52872718D01*
X128367000Y-51973000D01*
X128347000Y-51973000D01*
X128347000Y-51753242D01*
X129133000Y-51756416D01*
G37*
G04 #@! TD.AperFunction*
M02*
