G04 #@! TF.GenerationSoftware,KiCad,Pcbnew,(5.1.9)-1*
G04 #@! TF.CreationDate,2021-06-19T22:35:00+01:00*
G04 #@! TF.ProjectId,garden,67617264-656e-42e6-9b69-6361645f7063,rev?*
G04 #@! TF.SameCoordinates,Original*
G04 #@! TF.FileFunction,Legend,Top*
G04 #@! TF.FilePolarity,Positive*
%FSLAX46Y46*%
G04 Gerber Fmt 4.6, Leading zero omitted, Abs format (unit mm)*
G04 Created by KiCad (PCBNEW (5.1.9)-1) date 2021-06-19 22:35:00*
%MOMM*%
%LPD*%
G01*
G04 APERTURE LIST*
%ADD10C,0.150000*%
%ADD11C,0.200000*%
%ADD12C,0.120000*%
G04 APERTURE END LIST*
D10*
X56447619Y-91252380D02*
X56447619Y-90252380D01*
X56876190Y-90347619D02*
X56923809Y-90300000D01*
X57019047Y-90252380D01*
X57257142Y-90252380D01*
X57352380Y-90300000D01*
X57400000Y-90347619D01*
X57447619Y-90442857D01*
X57447619Y-90538095D01*
X57400000Y-90680952D01*
X56828571Y-91252380D01*
X57447619Y-91252380D01*
X58447619Y-91157142D02*
X58400000Y-91204761D01*
X58257142Y-91252380D01*
X58161904Y-91252380D01*
X58019047Y-91204761D01*
X57923809Y-91109523D01*
X57876190Y-91014285D01*
X57828571Y-90823809D01*
X57828571Y-90680952D01*
X57876190Y-90490476D01*
X57923809Y-90395238D01*
X58019047Y-90300000D01*
X58161904Y-90252380D01*
X58257142Y-90252380D01*
X58400000Y-90300000D01*
X58447619Y-90347619D01*
X59066666Y-90252380D02*
X59161904Y-90252380D01*
X59257142Y-90300000D01*
X59304761Y-90347619D01*
X59352380Y-90442857D01*
X59400000Y-90633333D01*
X59400000Y-90871428D01*
X59352380Y-91061904D01*
X59304761Y-91157142D01*
X59257142Y-91204761D01*
X59161904Y-91252380D01*
X59066666Y-91252380D01*
X58971428Y-91204761D01*
X58923809Y-91157142D01*
X58876190Y-91061904D01*
X58828571Y-90871428D01*
X58828571Y-90633333D01*
X58876190Y-90442857D01*
X58923809Y-90347619D01*
X58971428Y-90300000D01*
X59066666Y-90252380D01*
D11*
X110897619Y-55495238D02*
X110897619Y-55876190D01*
X109797619Y-55876190D01*
X110321428Y-55228571D02*
X110321428Y-54961904D01*
X110897619Y-54847619D02*
X110897619Y-55228571D01*
X109797619Y-55228571D01*
X109797619Y-54847619D01*
X110897619Y-54504761D02*
X109797619Y-54504761D01*
X109797619Y-54314285D01*
X109850000Y-54200000D01*
X109954761Y-54123809D01*
X110059523Y-54085714D01*
X110269047Y-54047619D01*
X110426190Y-54047619D01*
X110635714Y-54085714D01*
X110740476Y-54123809D01*
X110845238Y-54200000D01*
X110897619Y-54314285D01*
X110897619Y-54504761D01*
X109797619Y-53552380D02*
X109797619Y-53476190D01*
X109850000Y-53400000D01*
X109902380Y-53361904D01*
X110007142Y-53323809D01*
X110216666Y-53285714D01*
X110478571Y-53285714D01*
X110688095Y-53323809D01*
X110792857Y-53361904D01*
X110845238Y-53400000D01*
X110897619Y-53476190D01*
X110897619Y-53552380D01*
X110845238Y-53628571D01*
X110792857Y-53666666D01*
X110688095Y-53704761D01*
X110478571Y-53742857D01*
X110216666Y-53742857D01*
X110007142Y-53704761D01*
X109902380Y-53666666D01*
X109850000Y-53628571D01*
X109797619Y-53552380D01*
D10*
X75404761Y-100371428D02*
X76166666Y-100371428D01*
X77357142Y-100704761D02*
X77500000Y-100752380D01*
X77738095Y-100752380D01*
X77833333Y-100704761D01*
X77880952Y-100657142D01*
X77928571Y-100561904D01*
X77928571Y-100466666D01*
X77880952Y-100371428D01*
X77833333Y-100323809D01*
X77738095Y-100276190D01*
X77547619Y-100228571D01*
X77452380Y-100180952D01*
X77404761Y-100133333D01*
X77357142Y-100038095D01*
X77357142Y-99942857D01*
X77404761Y-99847619D01*
X77452380Y-99800000D01*
X77547619Y-99752380D01*
X77785714Y-99752380D01*
X77928571Y-99800000D01*
X78261904Y-99752380D02*
X78500000Y-100752380D01*
X78690476Y-100038095D01*
X78880952Y-100752380D01*
X79119047Y-99752380D01*
X79404761Y-99752380D02*
X80023809Y-99752380D01*
X79690476Y-100133333D01*
X79833333Y-100133333D01*
X79928571Y-100180952D01*
X79976190Y-100228571D01*
X80023809Y-100323809D01*
X80023809Y-100561904D01*
X79976190Y-100657142D01*
X79928571Y-100704761D01*
X79833333Y-100752380D01*
X79547619Y-100752380D01*
X79452380Y-100704761D01*
X79404761Y-100657142D01*
X81404761Y-99752380D02*
X81595238Y-99752380D01*
X81690476Y-99800000D01*
X81785714Y-99895238D01*
X81833333Y-100085714D01*
X81833333Y-100419047D01*
X81785714Y-100609523D01*
X81690476Y-100704761D01*
X81595238Y-100752380D01*
X81404761Y-100752380D01*
X81309523Y-100704761D01*
X81214285Y-100609523D01*
X81166666Y-100419047D01*
X81166666Y-100085714D01*
X81214285Y-99895238D01*
X81309523Y-99800000D01*
X81404761Y-99752380D01*
X82261904Y-99752380D02*
X82261904Y-100561904D01*
X82309523Y-100657142D01*
X82357142Y-100704761D01*
X82452380Y-100752380D01*
X82642857Y-100752380D01*
X82738095Y-100704761D01*
X82785714Y-100657142D01*
X82833333Y-100561904D01*
X82833333Y-99752380D01*
X83166666Y-99752380D02*
X83738095Y-99752380D01*
X83452380Y-100752380D02*
X83452380Y-99752380D01*
X84833333Y-100371428D02*
X85595238Y-100371428D01*
X85214285Y-100752380D02*
X85214285Y-99990476D01*
X87104761Y-100401428D02*
X87866666Y-100401428D01*
X89057142Y-100734761D02*
X89200000Y-100782380D01*
X89438095Y-100782380D01*
X89533333Y-100734761D01*
X89580952Y-100687142D01*
X89628571Y-100591904D01*
X89628571Y-100496666D01*
X89580952Y-100401428D01*
X89533333Y-100353809D01*
X89438095Y-100306190D01*
X89247619Y-100258571D01*
X89152380Y-100210952D01*
X89104761Y-100163333D01*
X89057142Y-100068095D01*
X89057142Y-99972857D01*
X89104761Y-99877619D01*
X89152380Y-99830000D01*
X89247619Y-99782380D01*
X89485714Y-99782380D01*
X89628571Y-99830000D01*
X89961904Y-99782380D02*
X90200000Y-100782380D01*
X90390476Y-100068095D01*
X90580952Y-100782380D01*
X90819047Y-99782380D01*
X91152380Y-99877619D02*
X91200000Y-99830000D01*
X91295238Y-99782380D01*
X91533333Y-99782380D01*
X91628571Y-99830000D01*
X91676190Y-99877619D01*
X91723809Y-99972857D01*
X91723809Y-100068095D01*
X91676190Y-100210952D01*
X91104761Y-100782380D01*
X91723809Y-100782380D01*
X93104761Y-99782380D02*
X93295238Y-99782380D01*
X93390476Y-99830000D01*
X93485714Y-99925238D01*
X93533333Y-100115714D01*
X93533333Y-100449047D01*
X93485714Y-100639523D01*
X93390476Y-100734761D01*
X93295238Y-100782380D01*
X93104761Y-100782380D01*
X93009523Y-100734761D01*
X92914285Y-100639523D01*
X92866666Y-100449047D01*
X92866666Y-100115714D01*
X92914285Y-99925238D01*
X93009523Y-99830000D01*
X93104761Y-99782380D01*
X93961904Y-99782380D02*
X93961904Y-100591904D01*
X94009523Y-100687142D01*
X94057142Y-100734761D01*
X94152380Y-100782380D01*
X94342857Y-100782380D01*
X94438095Y-100734761D01*
X94485714Y-100687142D01*
X94533333Y-100591904D01*
X94533333Y-99782380D01*
X94866666Y-99782380D02*
X95438095Y-99782380D01*
X95152380Y-100782380D02*
X95152380Y-99782380D01*
X96533333Y-100401428D02*
X97295238Y-100401428D01*
X96914285Y-100782380D02*
X96914285Y-100020476D01*
X64552380Y-100538095D02*
X64552380Y-99919047D01*
X64933333Y-100252380D01*
X64933333Y-100109523D01*
X64980952Y-100014285D01*
X65028571Y-99966666D01*
X65123809Y-99919047D01*
X65361904Y-99919047D01*
X65457142Y-99966666D01*
X65504761Y-100014285D01*
X65552380Y-100109523D01*
X65552380Y-100395238D01*
X65504761Y-100490476D01*
X65457142Y-100538095D01*
X64552380Y-99633333D02*
X65552380Y-99300000D01*
X64552380Y-98966666D01*
X64552380Y-98728571D02*
X64552380Y-98109523D01*
X64933333Y-98442857D01*
X64933333Y-98300000D01*
X64980952Y-98204761D01*
X65028571Y-98157142D01*
X65123809Y-98109523D01*
X65361904Y-98109523D01*
X65457142Y-98157142D01*
X65504761Y-98204761D01*
X65552380Y-98300000D01*
X65552380Y-98585714D01*
X65504761Y-98680952D01*
X65457142Y-98728571D01*
X53661904Y-79852380D02*
X54280952Y-79852380D01*
X53947619Y-80233333D01*
X54090476Y-80233333D01*
X54185714Y-80280952D01*
X54233333Y-80328571D01*
X54280952Y-80423809D01*
X54280952Y-80661904D01*
X54233333Y-80757142D01*
X54185714Y-80804761D01*
X54090476Y-80852380D01*
X53804761Y-80852380D01*
X53709523Y-80804761D01*
X53661904Y-80757142D01*
X54566666Y-79852380D02*
X54900000Y-80852380D01*
X55233333Y-79852380D01*
X55471428Y-79852380D02*
X56090476Y-79852380D01*
X55757142Y-80233333D01*
X55900000Y-80233333D01*
X55995238Y-80280952D01*
X56042857Y-80328571D01*
X56090476Y-80423809D01*
X56090476Y-80661904D01*
X56042857Y-80757142D01*
X55995238Y-80804761D01*
X55900000Y-80852380D01*
X55614285Y-80852380D01*
X55519047Y-80804761D01*
X55471428Y-80757142D01*
X132786428Y-64856761D02*
X132786428Y-64094857D01*
X132643571Y-62523428D02*
X132691190Y-62380571D01*
X132738809Y-62332952D01*
X132834047Y-62285333D01*
X132976904Y-62285333D01*
X133072142Y-62332952D01*
X133119761Y-62380571D01*
X133167380Y-62475809D01*
X133167380Y-62856761D01*
X132167380Y-62856761D01*
X132167380Y-62523428D01*
X132215000Y-62428190D01*
X132262619Y-62380571D01*
X132357857Y-62332952D01*
X132453095Y-62332952D01*
X132548333Y-62380571D01*
X132595952Y-62428190D01*
X132643571Y-62523428D01*
X132643571Y-62856761D01*
X133167380Y-61428190D02*
X132643571Y-61428190D01*
X132548333Y-61475809D01*
X132500714Y-61571047D01*
X132500714Y-61761523D01*
X132548333Y-61856761D01*
X133119761Y-61428190D02*
X133167380Y-61523428D01*
X133167380Y-61761523D01*
X133119761Y-61856761D01*
X133024523Y-61904380D01*
X132929285Y-61904380D01*
X132834047Y-61856761D01*
X132786428Y-61761523D01*
X132786428Y-61523428D01*
X132738809Y-61428190D01*
X132500714Y-61094857D02*
X132500714Y-60713904D01*
X132167380Y-60952000D02*
X133024523Y-60952000D01*
X133119761Y-60904380D01*
X133167380Y-60809142D01*
X133167380Y-60713904D01*
X132500714Y-60523428D02*
X132500714Y-60142476D01*
X132167380Y-60380571D02*
X133024523Y-60380571D01*
X133119761Y-60332952D01*
X133167380Y-60237714D01*
X133167380Y-60142476D01*
X133119761Y-59428190D02*
X133167380Y-59523428D01*
X133167380Y-59713904D01*
X133119761Y-59809142D01*
X133024523Y-59856761D01*
X132643571Y-59856761D01*
X132548333Y-59809142D01*
X132500714Y-59713904D01*
X132500714Y-59523428D01*
X132548333Y-59428190D01*
X132643571Y-59380571D01*
X132738809Y-59380571D01*
X132834047Y-59856761D01*
X133167380Y-58952000D02*
X132500714Y-58952000D01*
X132691190Y-58952000D02*
X132595952Y-58904380D01*
X132548333Y-58856761D01*
X132500714Y-58761523D01*
X132500714Y-58666285D01*
X132500714Y-58428190D02*
X133167380Y-58190095D01*
X132500714Y-57952000D02*
X133167380Y-58190095D01*
X133405476Y-58285333D01*
X133453095Y-58332952D01*
X133500714Y-58428190D01*
X132786428Y-56809142D02*
X132786428Y-56047238D01*
X133167380Y-56428190D02*
X132405476Y-56428190D01*
X132786428Y-75977285D02*
X132786428Y-75215380D01*
X133119761Y-74024904D02*
X133167380Y-73882047D01*
X133167380Y-73643952D01*
X133119761Y-73548714D01*
X133072142Y-73501095D01*
X132976904Y-73453476D01*
X132881666Y-73453476D01*
X132786428Y-73501095D01*
X132738809Y-73548714D01*
X132691190Y-73643952D01*
X132643571Y-73834428D01*
X132595952Y-73929666D01*
X132548333Y-73977285D01*
X132453095Y-74024904D01*
X132357857Y-74024904D01*
X132262619Y-73977285D01*
X132215000Y-73929666D01*
X132167380Y-73834428D01*
X132167380Y-73596333D01*
X132215000Y-73453476D01*
X133167380Y-72882047D02*
X133119761Y-72977285D01*
X133072142Y-73024904D01*
X132976904Y-73072523D01*
X132691190Y-73072523D01*
X132595952Y-73024904D01*
X132548333Y-72977285D01*
X132500714Y-72882047D01*
X132500714Y-72739190D01*
X132548333Y-72643952D01*
X132595952Y-72596333D01*
X132691190Y-72548714D01*
X132976904Y-72548714D01*
X133072142Y-72596333D01*
X133119761Y-72643952D01*
X133167380Y-72739190D01*
X133167380Y-72882047D01*
X133167380Y-71977285D02*
X133119761Y-72072523D01*
X133024523Y-72120142D01*
X132167380Y-72120142D01*
X133167380Y-71167761D02*
X132643571Y-71167761D01*
X132548333Y-71215380D01*
X132500714Y-71310619D01*
X132500714Y-71501095D01*
X132548333Y-71596333D01*
X133119761Y-71167761D02*
X133167380Y-71263000D01*
X133167380Y-71501095D01*
X133119761Y-71596333D01*
X133024523Y-71643952D01*
X132929285Y-71643952D01*
X132834047Y-71596333D01*
X132786428Y-71501095D01*
X132786428Y-71263000D01*
X132738809Y-71167761D01*
X133167380Y-70691571D02*
X132500714Y-70691571D01*
X132691190Y-70691571D02*
X132595952Y-70643952D01*
X132548333Y-70596333D01*
X132500714Y-70501095D01*
X132500714Y-70405857D01*
X132786428Y-69310619D02*
X132786428Y-68548714D01*
X133167380Y-68929666D02*
X132405476Y-68929666D01*
X58297619Y-60952380D02*
X57964285Y-60476190D01*
X57726190Y-60952380D02*
X57726190Y-59952380D01*
X58107142Y-59952380D01*
X58202380Y-60000000D01*
X58250000Y-60047619D01*
X58297619Y-60142857D01*
X58297619Y-60285714D01*
X58250000Y-60380952D01*
X58202380Y-60428571D01*
X58107142Y-60476190D01*
X57726190Y-60476190D01*
X58726190Y-60428571D02*
X59059523Y-60428571D01*
X59202380Y-60952380D02*
X58726190Y-60952380D01*
X58726190Y-59952380D01*
X59202380Y-59952380D01*
X59583333Y-60904761D02*
X59726190Y-60952380D01*
X59964285Y-60952380D01*
X60059523Y-60904761D01*
X60107142Y-60857142D01*
X60154761Y-60761904D01*
X60154761Y-60666666D01*
X60107142Y-60571428D01*
X60059523Y-60523809D01*
X59964285Y-60476190D01*
X59773809Y-60428571D01*
X59678571Y-60380952D01*
X59630952Y-60333333D01*
X59583333Y-60238095D01*
X59583333Y-60142857D01*
X59630952Y-60047619D01*
X59678571Y-60000000D01*
X59773809Y-59952380D01*
X60011904Y-59952380D01*
X60154761Y-60000000D01*
X60583333Y-60428571D02*
X60916666Y-60428571D01*
X61059523Y-60952380D02*
X60583333Y-60952380D01*
X60583333Y-59952380D01*
X61059523Y-59952380D01*
X61345238Y-59952380D02*
X61916666Y-59952380D01*
X61630952Y-60952380D02*
X61630952Y-59952380D01*
X105370380Y-69508285D02*
X106370380Y-69174952D01*
X105370380Y-68841619D01*
X105846571Y-68508285D02*
X105846571Y-68174952D01*
X106370380Y-68032095D02*
X106370380Y-68508285D01*
X105370380Y-68508285D01*
X105370380Y-68032095D01*
X106275142Y-67603523D02*
X106322761Y-67555904D01*
X106370380Y-67603523D01*
X106322761Y-67651142D01*
X106275142Y-67603523D01*
X106370380Y-67603523D01*
X106370380Y-67127333D02*
X105370380Y-67127333D01*
X105370380Y-66889238D01*
X105418000Y-66746380D01*
X105513238Y-66651142D01*
X105608476Y-66603523D01*
X105798952Y-66555904D01*
X105941809Y-66555904D01*
X106132285Y-66603523D01*
X106227523Y-66651142D01*
X106322761Y-66746380D01*
X106370380Y-66889238D01*
X106370380Y-67127333D01*
X106370380Y-66127333D02*
X105703714Y-66127333D01*
X105370380Y-66127333D02*
X105418000Y-66174952D01*
X105465619Y-66127333D01*
X105418000Y-66079714D01*
X105370380Y-66127333D01*
X105465619Y-66127333D01*
X106370380Y-65651142D02*
X105703714Y-65651142D01*
X105894190Y-65651142D02*
X105798952Y-65603523D01*
X105751333Y-65555904D01*
X105703714Y-65460666D01*
X105703714Y-65365428D01*
X106322761Y-64651142D02*
X106370380Y-64746380D01*
X106370380Y-64936857D01*
X106322761Y-65032095D01*
X106227523Y-65079714D01*
X105846571Y-65079714D01*
X105751333Y-65032095D01*
X105703714Y-64936857D01*
X105703714Y-64746380D01*
X105751333Y-64651142D01*
X105846571Y-64603523D01*
X105941809Y-64603523D01*
X106037047Y-65079714D01*
X106322761Y-63746380D02*
X106370380Y-63841619D01*
X106370380Y-64032095D01*
X106322761Y-64127333D01*
X106275142Y-64174952D01*
X106179904Y-64222571D01*
X105894190Y-64222571D01*
X105798952Y-64174952D01*
X105751333Y-64127333D01*
X105703714Y-64032095D01*
X105703714Y-63841619D01*
X105751333Y-63746380D01*
X105703714Y-63460666D02*
X105703714Y-63079714D01*
X105370380Y-63317809D02*
X106227523Y-63317809D01*
X106322761Y-63270190D01*
X106370380Y-63174952D01*
X106370380Y-63079714D01*
D11*
X107497619Y-55495238D02*
X107497619Y-55876190D01*
X106397619Y-55876190D01*
X106921428Y-55228571D02*
X106921428Y-54961904D01*
X107497619Y-54847619D02*
X107497619Y-55228571D01*
X106397619Y-55228571D01*
X106397619Y-54847619D01*
X107497619Y-54504761D02*
X106397619Y-54504761D01*
X106397619Y-54314285D01*
X106450000Y-54200000D01*
X106554761Y-54123809D01*
X106659523Y-54085714D01*
X106869047Y-54047619D01*
X107026190Y-54047619D01*
X107235714Y-54085714D01*
X107340476Y-54123809D01*
X107445238Y-54200000D01*
X107497619Y-54314285D01*
X107497619Y-54504761D01*
X106502380Y-53742857D02*
X106450000Y-53704761D01*
X106397619Y-53628571D01*
X106397619Y-53438095D01*
X106450000Y-53361904D01*
X106502380Y-53323809D01*
X106607142Y-53285714D01*
X106711904Y-53285714D01*
X106869047Y-53323809D01*
X107497619Y-53780952D01*
X107497619Y-53285714D01*
X109197619Y-55495238D02*
X109197619Y-55876190D01*
X108097619Y-55876190D01*
X108621428Y-55228571D02*
X108621428Y-54961904D01*
X109197619Y-54847619D02*
X109197619Y-55228571D01*
X108097619Y-55228571D01*
X108097619Y-54847619D01*
X109197619Y-54504761D02*
X108097619Y-54504761D01*
X108097619Y-54314285D01*
X108150000Y-54200000D01*
X108254761Y-54123809D01*
X108359523Y-54085714D01*
X108569047Y-54047619D01*
X108726190Y-54047619D01*
X108935714Y-54085714D01*
X109040476Y-54123809D01*
X109145238Y-54200000D01*
X109197619Y-54314285D01*
X109197619Y-54504761D01*
X109197619Y-53285714D02*
X109197619Y-53742857D01*
X109197619Y-53514285D02*
X108097619Y-53514285D01*
X108254761Y-53590476D01*
X108359523Y-53666666D01*
X108411904Y-53742857D01*
D10*
X112390357Y-54567857D02*
X112540357Y-53367857D01*
X112997500Y-53367857D01*
X113104642Y-53425000D01*
X113154642Y-53482142D01*
X113197500Y-53596428D01*
X113176071Y-53767857D01*
X113104642Y-53882142D01*
X113040357Y-53939285D01*
X112918928Y-53996428D01*
X112461785Y-53996428D01*
X113761785Y-54567857D02*
X113654642Y-54510714D01*
X113611785Y-54396428D01*
X113740357Y-53367857D01*
X114733214Y-54567857D02*
X114811785Y-53939285D01*
X114768928Y-53825000D01*
X114661785Y-53767857D01*
X114433214Y-53767857D01*
X114311785Y-53825000D01*
X114740357Y-54510714D02*
X114618928Y-54567857D01*
X114333214Y-54567857D01*
X114226071Y-54510714D01*
X114183214Y-54396428D01*
X114197500Y-54282142D01*
X114268928Y-54167857D01*
X114390357Y-54110714D01*
X114676071Y-54110714D01*
X114797500Y-54053571D01*
X115404642Y-53767857D02*
X115304642Y-54567857D01*
X115390357Y-53882142D02*
X115454642Y-53825000D01*
X115576071Y-53767857D01*
X115747500Y-53767857D01*
X115854642Y-53825000D01*
X115897500Y-53939285D01*
X115818928Y-54567857D01*
X116318928Y-53767857D02*
X116776071Y-53767857D01*
X116540357Y-53367857D02*
X116411785Y-54396428D01*
X116454642Y-54510714D01*
X116561785Y-54567857D01*
X116676071Y-54567857D01*
X118140357Y-53367857D02*
X118018928Y-54339285D01*
X118061785Y-54453571D01*
X118111785Y-54510714D01*
X118218928Y-54567857D01*
X118447500Y-54567857D01*
X118568928Y-54510714D01*
X118633214Y-54453571D01*
X118704642Y-54339285D01*
X118826071Y-53367857D01*
X119347500Y-53767857D02*
X119247500Y-54567857D01*
X119333214Y-53882142D02*
X119397500Y-53825000D01*
X119518928Y-53767857D01*
X119690357Y-53767857D01*
X119797500Y-53825000D01*
X119840357Y-53939285D01*
X119761785Y-54567857D01*
X120847500Y-54567857D02*
X120997500Y-53367857D01*
X120854642Y-54510714D02*
X120733214Y-54567857D01*
X120504642Y-54567857D01*
X120397500Y-54510714D01*
X120347500Y-54453571D01*
X120304642Y-54339285D01*
X120347500Y-53996428D01*
X120418928Y-53882142D01*
X120483214Y-53825000D01*
X120604642Y-53767857D01*
X120833214Y-53767857D01*
X120940357Y-53825000D01*
X121883214Y-54510714D02*
X121761785Y-54567857D01*
X121533214Y-54567857D01*
X121426071Y-54510714D01*
X121383214Y-54396428D01*
X121440357Y-53939285D01*
X121511785Y-53825000D01*
X121633214Y-53767857D01*
X121861785Y-53767857D01*
X121968928Y-53825000D01*
X122011785Y-53939285D01*
X121997500Y-54053571D01*
X121411785Y-54167857D01*
X122961785Y-54567857D02*
X123040357Y-53939285D01*
X122997500Y-53825000D01*
X122890357Y-53767857D01*
X122661785Y-53767857D01*
X122540357Y-53825000D01*
X122968928Y-54510714D02*
X122847500Y-54567857D01*
X122561785Y-54567857D01*
X122454642Y-54510714D01*
X122411785Y-54396428D01*
X122426071Y-54282142D01*
X122497500Y-54167857D01*
X122618928Y-54110714D01*
X122904642Y-54110714D01*
X123026071Y-54053571D01*
X124047500Y-54567857D02*
X124197500Y-53367857D01*
X124054642Y-54510714D02*
X123933214Y-54567857D01*
X123704642Y-54567857D01*
X123597500Y-54510714D01*
X123547500Y-54453571D01*
X123504642Y-54339285D01*
X123547500Y-53996428D01*
X123618928Y-53882142D01*
X123683214Y-53825000D01*
X123804642Y-53767857D01*
X124033214Y-53767857D01*
X124140357Y-53825000D01*
X124618928Y-54567857D02*
X124718928Y-53767857D01*
X124768928Y-53367857D02*
X124704642Y-53425000D01*
X124754642Y-53482142D01*
X124818928Y-53425000D01*
X124768928Y-53367857D01*
X124754642Y-53482142D01*
X125118928Y-53767857D02*
X125576071Y-53767857D01*
X125190357Y-54567857D02*
X125318928Y-53539285D01*
X125390357Y-53425000D01*
X125511785Y-53367857D01*
X125626071Y-53367857D01*
X125876071Y-54567857D02*
X125976071Y-53767857D01*
X126026071Y-53367857D02*
X125961785Y-53425000D01*
X126011785Y-53482142D01*
X126076071Y-53425000D01*
X126026071Y-53367857D01*
X126011785Y-53482142D01*
X126911785Y-54510714D02*
X126790357Y-54567857D01*
X126561785Y-54567857D01*
X126454642Y-54510714D01*
X126411785Y-54396428D01*
X126468928Y-53939285D01*
X126540357Y-53825000D01*
X126661785Y-53767857D01*
X126890357Y-53767857D01*
X126997500Y-53825000D01*
X127040357Y-53939285D01*
X127026071Y-54053571D01*
X126440357Y-54167857D01*
X127476071Y-54567857D02*
X127576071Y-53767857D01*
X127547500Y-53996428D02*
X127618928Y-53882142D01*
X127683214Y-53825000D01*
X127804642Y-53767857D01*
X127918928Y-53767857D01*
X113076071Y-56517857D02*
X112747500Y-55946428D01*
X112390357Y-56517857D02*
X112540357Y-55317857D01*
X112997500Y-55317857D01*
X113104642Y-55375000D01*
X113154642Y-55432142D01*
X113197500Y-55546428D01*
X113176071Y-55717857D01*
X113104642Y-55832142D01*
X113040357Y-55889285D01*
X112918928Y-55946428D01*
X112461785Y-55946428D01*
X114054642Y-56460714D02*
X113933214Y-56517857D01*
X113704642Y-56517857D01*
X113597500Y-56460714D01*
X113554642Y-56346428D01*
X113611785Y-55889285D01*
X113683214Y-55775000D01*
X113804642Y-55717857D01*
X114033214Y-55717857D01*
X114140357Y-55775000D01*
X114183214Y-55889285D01*
X114168928Y-56003571D01*
X113583214Y-56117857D01*
X114604642Y-55717857D02*
X114790357Y-56517857D01*
X115176071Y-55717857D01*
X116483214Y-55317857D02*
X117226071Y-55317857D01*
X116768928Y-55775000D01*
X116940357Y-55775000D01*
X117047500Y-55832142D01*
X117097500Y-55889285D01*
X117140357Y-56003571D01*
X117104642Y-56289285D01*
X117033214Y-56403571D01*
X116968928Y-56460714D01*
X116847500Y-56517857D01*
X116504642Y-56517857D01*
X116397500Y-56460714D01*
X116347500Y-56403571D01*
X72215000Y-100161904D02*
X72167380Y-100257142D01*
X72167380Y-100400000D01*
X72215000Y-100542857D01*
X72310238Y-100638095D01*
X72405476Y-100685714D01*
X72595952Y-100733333D01*
X72738809Y-100733333D01*
X72929285Y-100685714D01*
X73024523Y-100638095D01*
X73119761Y-100542857D01*
X73167380Y-100400000D01*
X73167380Y-100304761D01*
X73119761Y-100161904D01*
X73072142Y-100114285D01*
X72738809Y-100114285D01*
X72738809Y-100304761D01*
X73167380Y-99685714D02*
X72167380Y-99685714D01*
X73167380Y-99114285D01*
X72167380Y-99114285D01*
X73167380Y-98638095D02*
X72167380Y-98638095D01*
X72167380Y-98400000D01*
X72215000Y-98257142D01*
X72310238Y-98161904D01*
X72405476Y-98114285D01*
X72595952Y-98066666D01*
X72738809Y-98066666D01*
X72929285Y-98114285D01*
X73024523Y-98161904D01*
X73119761Y-98257142D01*
X73167380Y-98400000D01*
X73167380Y-98638095D01*
X70604761Y-100590476D02*
X70652380Y-100447619D01*
X70652380Y-100209523D01*
X70604761Y-100114285D01*
X70557142Y-100066666D01*
X70461904Y-100019047D01*
X70366666Y-100019047D01*
X70271428Y-100066666D01*
X70223809Y-100114285D01*
X70176190Y-100209523D01*
X70128571Y-100400000D01*
X70080952Y-100495238D01*
X70033333Y-100542857D01*
X69938095Y-100590476D01*
X69842857Y-100590476D01*
X69747619Y-100542857D01*
X69700000Y-100495238D01*
X69652380Y-100400000D01*
X69652380Y-100161904D01*
X69700000Y-100019047D01*
X70557142Y-99019047D02*
X70604761Y-99066666D01*
X70652380Y-99209523D01*
X70652380Y-99304761D01*
X70604761Y-99447619D01*
X70509523Y-99542857D01*
X70414285Y-99590476D01*
X70223809Y-99638095D01*
X70080952Y-99638095D01*
X69890476Y-99590476D01*
X69795238Y-99542857D01*
X69700000Y-99447619D01*
X69652380Y-99304761D01*
X69652380Y-99209523D01*
X69700000Y-99066666D01*
X69747619Y-99019047D01*
X70652380Y-98114285D02*
X70652380Y-98590476D01*
X69652380Y-98590476D01*
X68004761Y-100614285D02*
X68052380Y-100471428D01*
X68052380Y-100233333D01*
X68004761Y-100138095D01*
X67957142Y-100090476D01*
X67861904Y-100042857D01*
X67766666Y-100042857D01*
X67671428Y-100090476D01*
X67623809Y-100138095D01*
X67576190Y-100233333D01*
X67528571Y-100423809D01*
X67480952Y-100519047D01*
X67433333Y-100566666D01*
X67338095Y-100614285D01*
X67242857Y-100614285D01*
X67147619Y-100566666D01*
X67100000Y-100519047D01*
X67052380Y-100423809D01*
X67052380Y-100185714D01*
X67100000Y-100042857D01*
X68052380Y-99614285D02*
X67052380Y-99614285D01*
X67052380Y-99376190D01*
X67100000Y-99233333D01*
X67195238Y-99138095D01*
X67290476Y-99090476D01*
X67480952Y-99042857D01*
X67623809Y-99042857D01*
X67814285Y-99090476D01*
X67909523Y-99138095D01*
X68004761Y-99233333D01*
X68052380Y-99376190D01*
X68052380Y-99614285D01*
X67766666Y-98661904D02*
X67766666Y-98185714D01*
X68052380Y-98757142D02*
X67052380Y-98423809D01*
X68052380Y-98090476D01*
X54138095Y-87700000D02*
X54042857Y-87652380D01*
X53900000Y-87652380D01*
X53757142Y-87700000D01*
X53661904Y-87795238D01*
X53614285Y-87890476D01*
X53566666Y-88080952D01*
X53566666Y-88223809D01*
X53614285Y-88414285D01*
X53661904Y-88509523D01*
X53757142Y-88604761D01*
X53900000Y-88652380D01*
X53995238Y-88652380D01*
X54138095Y-88604761D01*
X54185714Y-88557142D01*
X54185714Y-88223809D01*
X53995238Y-88223809D01*
X54614285Y-88652380D02*
X54614285Y-87652380D01*
X55185714Y-88652380D01*
X55185714Y-87652380D01*
X55661904Y-88652380D02*
X55661904Y-87652380D01*
X55900000Y-87652380D01*
X56042857Y-87700000D01*
X56138095Y-87795238D01*
X56185714Y-87890476D01*
X56233333Y-88080952D01*
X56233333Y-88223809D01*
X56185714Y-88414285D01*
X56138095Y-88509523D01*
X56042857Y-88604761D01*
X55900000Y-88652380D01*
X55661904Y-88652380D01*
X53609523Y-85904761D02*
X53752380Y-85952380D01*
X53990476Y-85952380D01*
X54085714Y-85904761D01*
X54133333Y-85857142D01*
X54180952Y-85761904D01*
X54180952Y-85666666D01*
X54133333Y-85571428D01*
X54085714Y-85523809D01*
X53990476Y-85476190D01*
X53800000Y-85428571D01*
X53704761Y-85380952D01*
X53657142Y-85333333D01*
X53609523Y-85238095D01*
X53609523Y-85142857D01*
X53657142Y-85047619D01*
X53704761Y-85000000D01*
X53800000Y-84952380D01*
X54038095Y-84952380D01*
X54180952Y-85000000D01*
X55180952Y-85857142D02*
X55133333Y-85904761D01*
X54990476Y-85952380D01*
X54895238Y-85952380D01*
X54752380Y-85904761D01*
X54657142Y-85809523D01*
X54609523Y-85714285D01*
X54561904Y-85523809D01*
X54561904Y-85380952D01*
X54609523Y-85190476D01*
X54657142Y-85095238D01*
X54752380Y-85000000D01*
X54895238Y-84952380D01*
X54990476Y-84952380D01*
X55133333Y-85000000D01*
X55180952Y-85047619D01*
X56085714Y-85952380D02*
X55609523Y-85952380D01*
X55609523Y-84952380D01*
X53685714Y-83404761D02*
X53828571Y-83452380D01*
X54066666Y-83452380D01*
X54161904Y-83404761D01*
X54209523Y-83357142D01*
X54257142Y-83261904D01*
X54257142Y-83166666D01*
X54209523Y-83071428D01*
X54161904Y-83023809D01*
X54066666Y-82976190D01*
X53876190Y-82928571D01*
X53780952Y-82880952D01*
X53733333Y-82833333D01*
X53685714Y-82738095D01*
X53685714Y-82642857D01*
X53733333Y-82547619D01*
X53780952Y-82500000D01*
X53876190Y-82452380D01*
X54114285Y-82452380D01*
X54257142Y-82500000D01*
X54685714Y-83452380D02*
X54685714Y-82452380D01*
X54923809Y-82452380D01*
X55066666Y-82500000D01*
X55161904Y-82595238D01*
X55209523Y-82690476D01*
X55257142Y-82880952D01*
X55257142Y-83023809D01*
X55209523Y-83214285D01*
X55161904Y-83309523D01*
X55066666Y-83404761D01*
X54923809Y-83452380D01*
X54685714Y-83452380D01*
X55638095Y-83166666D02*
X56114285Y-83166666D01*
X55542857Y-83452380D02*
X55876190Y-82452380D01*
X56209523Y-83452380D01*
X63152380Y-97752380D02*
X62152380Y-97752380D01*
X62247619Y-97323809D02*
X62200000Y-97276190D01*
X62152380Y-97180952D01*
X62152380Y-96942857D01*
X62200000Y-96847619D01*
X62247619Y-96800000D01*
X62342857Y-96752380D01*
X62438095Y-96752380D01*
X62580952Y-96800000D01*
X63152380Y-97371428D01*
X63152380Y-96752380D01*
X63057142Y-95752380D02*
X63104761Y-95800000D01*
X63152380Y-95942857D01*
X63152380Y-96038095D01*
X63104761Y-96180952D01*
X63009523Y-96276190D01*
X62914285Y-96323809D01*
X62723809Y-96371428D01*
X62580952Y-96371428D01*
X62390476Y-96323809D01*
X62295238Y-96276190D01*
X62200000Y-96180952D01*
X62152380Y-96038095D01*
X62152380Y-95942857D01*
X62200000Y-95800000D01*
X62247619Y-95752380D01*
X63152380Y-94800000D02*
X63152380Y-95371428D01*
X63152380Y-95085714D02*
X62152380Y-95085714D01*
X62295238Y-95180952D01*
X62390476Y-95276190D01*
X62438095Y-95371428D01*
X132786428Y-88367619D02*
X132786428Y-87605714D01*
X133167380Y-86367619D02*
X132167380Y-86367619D01*
X132167380Y-85986666D01*
X132215000Y-85891428D01*
X132262619Y-85843809D01*
X132357857Y-85796190D01*
X132500714Y-85796190D01*
X132595952Y-85843809D01*
X132643571Y-85891428D01*
X132691190Y-85986666D01*
X132691190Y-86367619D01*
X133167380Y-85367619D02*
X132500714Y-85367619D01*
X132691190Y-85367619D02*
X132595952Y-85320000D01*
X132548333Y-85272380D01*
X132500714Y-85177142D01*
X132500714Y-85081904D01*
X133119761Y-84367619D02*
X133167380Y-84462857D01*
X133167380Y-84653333D01*
X133119761Y-84748571D01*
X133024523Y-84796190D01*
X132643571Y-84796190D01*
X132548333Y-84748571D01*
X132500714Y-84653333D01*
X132500714Y-84462857D01*
X132548333Y-84367619D01*
X132643571Y-84320000D01*
X132738809Y-84320000D01*
X132834047Y-84796190D01*
X133119761Y-83939047D02*
X133167380Y-83843809D01*
X133167380Y-83653333D01*
X133119761Y-83558095D01*
X133024523Y-83510476D01*
X132976904Y-83510476D01*
X132881666Y-83558095D01*
X132834047Y-83653333D01*
X132834047Y-83796190D01*
X132786428Y-83891428D01*
X132691190Y-83939047D01*
X132643571Y-83939047D01*
X132548333Y-83891428D01*
X132500714Y-83796190D01*
X132500714Y-83653333D01*
X132548333Y-83558095D01*
X133167380Y-82320000D02*
X132167380Y-82320000D01*
X133167380Y-81843809D02*
X132167380Y-81843809D01*
X133167380Y-81272380D01*
X132167380Y-81272380D01*
X132786428Y-80034285D02*
X132786428Y-79272380D01*
X133167380Y-79653333D02*
X132405476Y-79653333D01*
X98704761Y-100371428D02*
X99466666Y-100371428D01*
X100657142Y-100704761D02*
X100800000Y-100752380D01*
X101038095Y-100752380D01*
X101133333Y-100704761D01*
X101180952Y-100657142D01*
X101228571Y-100561904D01*
X101228571Y-100466666D01*
X101180952Y-100371428D01*
X101133333Y-100323809D01*
X101038095Y-100276190D01*
X100847619Y-100228571D01*
X100752380Y-100180952D01*
X100704761Y-100133333D01*
X100657142Y-100038095D01*
X100657142Y-99942857D01*
X100704761Y-99847619D01*
X100752380Y-99800000D01*
X100847619Y-99752380D01*
X101085714Y-99752380D01*
X101228571Y-99800000D01*
X101561904Y-99752380D02*
X101800000Y-100752380D01*
X101990476Y-100038095D01*
X102180952Y-100752380D01*
X102419047Y-99752380D01*
X103323809Y-100752380D02*
X102752380Y-100752380D01*
X103038095Y-100752380D02*
X103038095Y-99752380D01*
X102942857Y-99895238D01*
X102847619Y-99990476D01*
X102752380Y-100038095D01*
X104704761Y-99752380D02*
X104895238Y-99752380D01*
X104990476Y-99800000D01*
X105085714Y-99895238D01*
X105133333Y-100085714D01*
X105133333Y-100419047D01*
X105085714Y-100609523D01*
X104990476Y-100704761D01*
X104895238Y-100752380D01*
X104704761Y-100752380D01*
X104609523Y-100704761D01*
X104514285Y-100609523D01*
X104466666Y-100419047D01*
X104466666Y-100085714D01*
X104514285Y-99895238D01*
X104609523Y-99800000D01*
X104704761Y-99752380D01*
X105561904Y-99752380D02*
X105561904Y-100561904D01*
X105609523Y-100657142D01*
X105657142Y-100704761D01*
X105752380Y-100752380D01*
X105942857Y-100752380D01*
X106038095Y-100704761D01*
X106085714Y-100657142D01*
X106133333Y-100561904D01*
X106133333Y-99752380D01*
X106466666Y-99752380D02*
X107038095Y-99752380D01*
X106752380Y-100752380D02*
X106752380Y-99752380D01*
X108133333Y-100371428D02*
X108895238Y-100371428D01*
X108514285Y-100752380D02*
X108514285Y-99990476D01*
X110104761Y-100401428D02*
X110866666Y-100401428D01*
X112057142Y-100734761D02*
X112200000Y-100782380D01*
X112438095Y-100782380D01*
X112533333Y-100734761D01*
X112580952Y-100687142D01*
X112628571Y-100591904D01*
X112628571Y-100496666D01*
X112580952Y-100401428D01*
X112533333Y-100353809D01*
X112438095Y-100306190D01*
X112247619Y-100258571D01*
X112152380Y-100210952D01*
X112104761Y-100163333D01*
X112057142Y-100068095D01*
X112057142Y-99972857D01*
X112104761Y-99877619D01*
X112152380Y-99830000D01*
X112247619Y-99782380D01*
X112485714Y-99782380D01*
X112628571Y-99830000D01*
X112961904Y-99782380D02*
X113200000Y-100782380D01*
X113390476Y-100068095D01*
X113580952Y-100782380D01*
X113819047Y-99782380D01*
X114390476Y-99782380D02*
X114485714Y-99782380D01*
X114580952Y-99830000D01*
X114628571Y-99877619D01*
X114676190Y-99972857D01*
X114723809Y-100163333D01*
X114723809Y-100401428D01*
X114676190Y-100591904D01*
X114628571Y-100687142D01*
X114580952Y-100734761D01*
X114485714Y-100782380D01*
X114390476Y-100782380D01*
X114295238Y-100734761D01*
X114247619Y-100687142D01*
X114200000Y-100591904D01*
X114152380Y-100401428D01*
X114152380Y-100163333D01*
X114200000Y-99972857D01*
X114247619Y-99877619D01*
X114295238Y-99830000D01*
X114390476Y-99782380D01*
X116104761Y-99782380D02*
X116295238Y-99782380D01*
X116390476Y-99830000D01*
X116485714Y-99925238D01*
X116533333Y-100115714D01*
X116533333Y-100449047D01*
X116485714Y-100639523D01*
X116390476Y-100734761D01*
X116295238Y-100782380D01*
X116104761Y-100782380D01*
X116009523Y-100734761D01*
X115914285Y-100639523D01*
X115866666Y-100449047D01*
X115866666Y-100115714D01*
X115914285Y-99925238D01*
X116009523Y-99830000D01*
X116104761Y-99782380D01*
X116961904Y-99782380D02*
X116961904Y-100591904D01*
X117009523Y-100687142D01*
X117057142Y-100734761D01*
X117152380Y-100782380D01*
X117342857Y-100782380D01*
X117438095Y-100734761D01*
X117485714Y-100687142D01*
X117533333Y-100591904D01*
X117533333Y-99782380D01*
X117866666Y-99782380D02*
X118438095Y-99782380D01*
X118152380Y-100782380D02*
X118152380Y-99782380D01*
X119533333Y-100401428D02*
X120295238Y-100401428D01*
X119914285Y-100782380D02*
X119914285Y-100020476D01*
D12*
X109435000Y-52985000D02*
X109435000Y-50700000D01*
X107965000Y-52985000D02*
X109435000Y-52985000D01*
X107965000Y-50700000D02*
X107965000Y-52985000D01*
X112170000Y-52930000D02*
X112170000Y-51600000D01*
X113500000Y-52930000D02*
X112170000Y-52930000D01*
X114770000Y-52930000D02*
X114770000Y-50270000D01*
X114770000Y-50270000D02*
X132610000Y-50270000D01*
X114770000Y-52930000D02*
X132610000Y-52930000D01*
X132610000Y-52930000D02*
X132610000Y-50270000D01*
X82066000Y-56087000D02*
X81686000Y-56087000D01*
X82066000Y-49667000D02*
X82066000Y-56087000D01*
X100306000Y-49667000D02*
X100306000Y-56087000D01*
X82066000Y-49667000D02*
X100306000Y-49667000D01*
X100306000Y-75412000D02*
X99306000Y-75412000D01*
X100306000Y-74632000D02*
X100306000Y-75412000D01*
X82066000Y-75412000D02*
X83066000Y-75412000D01*
X82066000Y-74632000D02*
X82066000Y-75412000D01*
X72759698Y-88615000D02*
X72759698Y-87815000D01*
X73159698Y-88215000D02*
X72359698Y-88215000D01*
X64669000Y-86433000D02*
X64669000Y-85367000D01*
X64709000Y-86668000D02*
X64709000Y-85132000D01*
X64749000Y-86848000D02*
X64749000Y-84952000D01*
X64789000Y-86998000D02*
X64789000Y-84802000D01*
X64829000Y-87129000D02*
X64829000Y-84671000D01*
X64869000Y-87246000D02*
X64869000Y-84554000D01*
X64909000Y-87353000D02*
X64909000Y-84447000D01*
X64949000Y-87452000D02*
X64949000Y-84348000D01*
X64989000Y-87545000D02*
X64989000Y-84255000D01*
X65029000Y-87631000D02*
X65029000Y-84169000D01*
X65069000Y-87713000D02*
X65069000Y-84087000D01*
X65109000Y-87790000D02*
X65109000Y-84010000D01*
X65149000Y-87864000D02*
X65149000Y-83936000D01*
X65189000Y-87934000D02*
X65189000Y-83866000D01*
X65229000Y-88002000D02*
X65229000Y-83798000D01*
X65269000Y-88066000D02*
X65269000Y-83734000D01*
X65309000Y-88128000D02*
X65309000Y-83672000D01*
X65349000Y-88187000D02*
X65349000Y-83613000D01*
X65389000Y-88245000D02*
X65389000Y-83555000D01*
X65429000Y-88300000D02*
X65429000Y-83500000D01*
X65469000Y-88354000D02*
X65469000Y-83446000D01*
X65509000Y-88405000D02*
X65509000Y-83395000D01*
X65549000Y-88456000D02*
X65549000Y-83344000D01*
X65589000Y-88504000D02*
X65589000Y-83296000D01*
X65629000Y-88551000D02*
X65629000Y-83249000D01*
X65669000Y-88597000D02*
X65669000Y-83203000D01*
X65709000Y-88641000D02*
X65709000Y-83159000D01*
X65749000Y-88684000D02*
X65749000Y-83116000D01*
X65789000Y-88726000D02*
X65789000Y-83074000D01*
X65829000Y-88767000D02*
X65829000Y-83033000D01*
X65869000Y-88807000D02*
X65869000Y-82993000D01*
X65909000Y-88845000D02*
X65909000Y-82955000D01*
X65949000Y-88883000D02*
X65949000Y-82917000D01*
X65989000Y-84860000D02*
X65989000Y-82881000D01*
X65989000Y-88919000D02*
X65989000Y-86940000D01*
X66029000Y-84860000D02*
X66029000Y-82845000D01*
X66029000Y-88955000D02*
X66029000Y-86940000D01*
X66069000Y-84860000D02*
X66069000Y-82810000D01*
X66069000Y-88990000D02*
X66069000Y-86940000D01*
X66109000Y-84860000D02*
X66109000Y-82776000D01*
X66109000Y-89024000D02*
X66109000Y-86940000D01*
X66149000Y-84860000D02*
X66149000Y-82744000D01*
X66149000Y-89056000D02*
X66149000Y-86940000D01*
X66189000Y-84860000D02*
X66189000Y-82711000D01*
X66189000Y-89089000D02*
X66189000Y-86940000D01*
X66229000Y-84860000D02*
X66229000Y-82680000D01*
X66229000Y-89120000D02*
X66229000Y-86940000D01*
X66269000Y-84860000D02*
X66269000Y-82650000D01*
X66269000Y-89150000D02*
X66269000Y-86940000D01*
X66309000Y-84860000D02*
X66309000Y-82620000D01*
X66309000Y-89180000D02*
X66309000Y-86940000D01*
X66349000Y-84860000D02*
X66349000Y-82591000D01*
X66349000Y-89209000D02*
X66349000Y-86940000D01*
X66389000Y-84860000D02*
X66389000Y-82562000D01*
X66389000Y-89238000D02*
X66389000Y-86940000D01*
X66429000Y-84860000D02*
X66429000Y-82535000D01*
X66429000Y-89265000D02*
X66429000Y-86940000D01*
X66469000Y-84860000D02*
X66469000Y-82508000D01*
X66469000Y-89292000D02*
X66469000Y-86940000D01*
X66509000Y-84860000D02*
X66509000Y-82482000D01*
X66509000Y-89318000D02*
X66509000Y-86940000D01*
X66549000Y-84860000D02*
X66549000Y-82456000D01*
X66549000Y-89344000D02*
X66549000Y-86940000D01*
X66589000Y-84860000D02*
X66589000Y-82431000D01*
X66589000Y-89369000D02*
X66589000Y-86940000D01*
X66629000Y-84860000D02*
X66629000Y-82407000D01*
X66629000Y-89393000D02*
X66629000Y-86940000D01*
X66669000Y-84860000D02*
X66669000Y-82383000D01*
X66669000Y-89417000D02*
X66669000Y-86940000D01*
X66709000Y-84860000D02*
X66709000Y-82360000D01*
X66709000Y-89440000D02*
X66709000Y-86940000D01*
X66749000Y-84860000D02*
X66749000Y-82338000D01*
X66749000Y-89462000D02*
X66749000Y-86940000D01*
X66789000Y-84860000D02*
X66789000Y-82316000D01*
X66789000Y-89484000D02*
X66789000Y-86940000D01*
X66829000Y-84860000D02*
X66829000Y-82294000D01*
X66829000Y-89506000D02*
X66829000Y-86940000D01*
X66869000Y-84860000D02*
X66869000Y-82273000D01*
X66869000Y-89527000D02*
X66869000Y-86940000D01*
X66909000Y-84860000D02*
X66909000Y-82253000D01*
X66909000Y-89547000D02*
X66909000Y-86940000D01*
X66949000Y-84860000D02*
X66949000Y-82234000D01*
X66949000Y-89566000D02*
X66949000Y-86940000D01*
X66989000Y-84860000D02*
X66989000Y-82214000D01*
X66989000Y-89586000D02*
X66989000Y-86940000D01*
X67029000Y-84860000D02*
X67029000Y-82196000D01*
X67029000Y-89604000D02*
X67029000Y-86940000D01*
X67069000Y-84860000D02*
X67069000Y-82178000D01*
X67069000Y-89622000D02*
X67069000Y-86940000D01*
X67109000Y-84860000D02*
X67109000Y-82160000D01*
X67109000Y-89640000D02*
X67109000Y-86940000D01*
X67149000Y-84860000D02*
X67149000Y-82143000D01*
X67149000Y-89657000D02*
X67149000Y-86940000D01*
X67189000Y-84860000D02*
X67189000Y-82126000D01*
X67189000Y-89674000D02*
X67189000Y-86940000D01*
X67229000Y-84860000D02*
X67229000Y-82110000D01*
X67229000Y-89690000D02*
X67229000Y-86940000D01*
X67269000Y-84860000D02*
X67269000Y-82095000D01*
X67269000Y-89705000D02*
X67269000Y-86940000D01*
X67309000Y-84860000D02*
X67309000Y-82079000D01*
X67309000Y-89721000D02*
X67309000Y-86940000D01*
X67349000Y-84860000D02*
X67349000Y-82065000D01*
X67349000Y-89735000D02*
X67349000Y-86940000D01*
X67389000Y-84860000D02*
X67389000Y-82050000D01*
X67389000Y-89750000D02*
X67389000Y-86940000D01*
X67429000Y-84860000D02*
X67429000Y-82037000D01*
X67429000Y-89763000D02*
X67429000Y-86940000D01*
X67469000Y-84860000D02*
X67469000Y-82023000D01*
X67469000Y-89777000D02*
X67469000Y-86940000D01*
X67509000Y-84860000D02*
X67509000Y-82011000D01*
X67509000Y-89789000D02*
X67509000Y-86940000D01*
X67549000Y-84860000D02*
X67549000Y-81998000D01*
X67549000Y-89802000D02*
X67549000Y-86940000D01*
X67589000Y-84860000D02*
X67589000Y-81986000D01*
X67589000Y-89814000D02*
X67589000Y-86940000D01*
X67629000Y-84860000D02*
X67629000Y-81975000D01*
X67629000Y-89825000D02*
X67629000Y-86940000D01*
X67669000Y-84860000D02*
X67669000Y-81964000D01*
X67669000Y-89836000D02*
X67669000Y-86940000D01*
X67709000Y-84860000D02*
X67709000Y-81953000D01*
X67709000Y-89847000D02*
X67709000Y-86940000D01*
X67749000Y-84860000D02*
X67749000Y-81943000D01*
X67749000Y-89857000D02*
X67749000Y-86940000D01*
X67789000Y-84860000D02*
X67789000Y-81933000D01*
X67789000Y-89867000D02*
X67789000Y-86940000D01*
X67829000Y-84860000D02*
X67829000Y-81924000D01*
X67829000Y-89876000D02*
X67829000Y-86940000D01*
X67869000Y-84860000D02*
X67869000Y-81915000D01*
X67869000Y-89885000D02*
X67869000Y-86940000D01*
X67909000Y-84860000D02*
X67909000Y-81906000D01*
X67909000Y-89894000D02*
X67909000Y-86940000D01*
X67949000Y-84860000D02*
X67949000Y-81898000D01*
X67949000Y-89902000D02*
X67949000Y-86940000D01*
X67989000Y-84860000D02*
X67989000Y-81890000D01*
X67989000Y-89910000D02*
X67989000Y-86940000D01*
X68029000Y-84860000D02*
X68029000Y-81883000D01*
X68029000Y-89917000D02*
X68029000Y-86940000D01*
X68070000Y-89924000D02*
X68070000Y-81876000D01*
X68110000Y-89930000D02*
X68110000Y-81870000D01*
X68150000Y-89937000D02*
X68150000Y-81863000D01*
X68190000Y-89942000D02*
X68190000Y-81858000D01*
X68230000Y-89948000D02*
X68230000Y-81852000D01*
X68270000Y-89952000D02*
X68270000Y-81848000D01*
X68310000Y-89957000D02*
X68310000Y-81843000D01*
X68350000Y-89961000D02*
X68350000Y-81839000D01*
X68390000Y-89965000D02*
X68390000Y-81835000D01*
X68430000Y-89968000D02*
X68430000Y-81832000D01*
X68470000Y-89971000D02*
X68470000Y-81829000D01*
X68510000Y-89974000D02*
X68510000Y-81826000D01*
X68550000Y-89976000D02*
X68550000Y-81824000D01*
X68590000Y-89977000D02*
X68590000Y-81823000D01*
X68630000Y-89979000D02*
X68630000Y-81821000D01*
X68670000Y-89980000D02*
X68670000Y-81820000D01*
X68710000Y-89980000D02*
X68710000Y-81820000D01*
X68750000Y-89980000D02*
X68750000Y-81820000D01*
X72870000Y-85900000D02*
G75*
G03*
X72870000Y-85900000I-4120000J0D01*
G01*
X76841422Y-78810000D02*
X77358578Y-78810000D01*
X76841422Y-77390000D02*
X77358578Y-77390000D01*
X73437221Y-76260000D02*
X73762779Y-76260000D01*
X73437221Y-75240000D02*
X73762779Y-75240000D01*
X73830000Y-77040000D02*
X71400000Y-77040000D01*
X72070000Y-80110000D02*
X73830000Y-80110000D01*
X71746359Y-81330000D02*
X72053641Y-81330000D01*
X71746359Y-80570000D02*
X72053641Y-80570000D01*
X66200000Y-79550000D02*
X66200000Y-75650000D01*
X68200000Y-79550000D02*
X68200000Y-75650000D01*
X66200000Y-79550000D02*
X68200000Y-79550000D01*
X76300000Y-82350000D02*
X76300000Y-86250000D01*
X74300000Y-82350000D02*
X74300000Y-86250000D01*
X76300000Y-82350000D02*
X74300000Y-82350000D01*
X75650000Y-74800000D02*
X79550000Y-74800000D01*
X75650000Y-76800000D02*
X79550000Y-76800000D01*
X75650000Y-74800000D02*
X75650000Y-76800000D01*
X65500000Y-75600000D02*
X65500000Y-78400000D01*
X65500000Y-78400000D02*
X63500000Y-78400000D01*
X63500000Y-78400000D02*
X63500000Y-75600000D01*
X63500000Y-75600000D02*
X65500000Y-75600000D01*
X55500000Y-68198000D02*
X53600000Y-68198000D01*
X59400000Y-68198000D02*
X57400000Y-68198000D01*
X55500000Y-77598000D02*
X53600000Y-77598000D01*
X59400000Y-77598000D02*
X57400000Y-77598000D01*
X53600000Y-68198000D02*
X53600000Y-77598000D01*
X77800000Y-73750000D02*
X76600000Y-73750000D01*
X77900000Y-66550000D02*
X76500000Y-66550000D01*
X77900000Y-73750000D02*
X77900000Y-66550000D01*
X71300000Y-73750000D02*
X72700000Y-73750000D01*
X71300000Y-66550000D02*
X72700000Y-66550000D01*
X71300000Y-73750000D02*
X71300000Y-66550000D01*
X78390000Y-67809420D02*
X78390000Y-68090580D01*
X79410000Y-67809420D02*
X79410000Y-68090580D01*
X98704000Y-84832000D02*
X99634000Y-84832000D01*
X101864000Y-84832000D02*
X100934000Y-84832000D01*
X101864000Y-84832000D02*
X101864000Y-82672000D01*
X98704000Y-84832000D02*
X98704000Y-83372000D01*
X81020000Y-76946359D02*
X81020000Y-77253641D01*
X81780000Y-76946359D02*
X81780000Y-77253641D01*
X98253641Y-77820000D02*
X97946359Y-77820000D01*
X98253641Y-78580000D02*
X97946359Y-78580000D01*
X77220000Y-84960000D02*
X77220000Y-83500000D01*
X80380000Y-84960000D02*
X80380000Y-82800000D01*
X80380000Y-84960000D02*
X79450000Y-84960000D01*
X77220000Y-84960000D02*
X78150000Y-84960000D01*
X89020000Y-84960000D02*
X89020000Y-83500000D01*
X92180000Y-84960000D02*
X92180000Y-82800000D01*
X92180000Y-84960000D02*
X91250000Y-84960000D01*
X89020000Y-84960000D02*
X89950000Y-84960000D01*
X75160000Y-99500000D02*
X75660000Y-99500000D01*
X75160000Y-98760000D02*
X75160000Y-99500000D01*
X81853000Y-95623000D02*
X81806000Y-95669000D01*
X84150000Y-93325000D02*
X84115000Y-93361000D01*
X82046000Y-95839000D02*
X82011000Y-95874000D01*
X84355000Y-93531000D02*
X84308000Y-93577000D01*
X85680000Y-89339000D02*
X85680000Y-99260000D01*
X75400000Y-89339000D02*
X75400000Y-99260000D01*
X75400000Y-99260000D02*
X85680000Y-99260000D01*
X75400000Y-89339000D02*
X85680000Y-89339000D01*
X75400000Y-92299000D02*
X85680000Y-92299000D01*
X75400000Y-97200000D02*
X85680000Y-97200000D01*
X75400000Y-98700000D02*
X85680000Y-98700000D01*
X84760000Y-94600000D02*
G75*
G03*
X84760000Y-94600000I-1680000J0D01*
G01*
X78028805Y-96280253D02*
G75*
G02*
X77316000Y-96135000I-28805J1680253D01*
G01*
X76464574Y-95283042D02*
G75*
G02*
X76465000Y-93916000I1535426J683042D01*
G01*
X77316958Y-93064574D02*
G75*
G02*
X78684000Y-93065000I683042J-1535426D01*
G01*
X79535426Y-93916958D02*
G75*
G02*
X79535000Y-95284000I-1535426J-683042D01*
G01*
X78683318Y-96134756D02*
G75*
G02*
X78000000Y-96280000I-683318J1534756D01*
G01*
X86760000Y-99500000D02*
X87260000Y-99500000D01*
X86760000Y-98760000D02*
X86760000Y-99500000D01*
X93453000Y-95623000D02*
X93406000Y-95669000D01*
X95750000Y-93325000D02*
X95715000Y-93361000D01*
X93646000Y-95839000D02*
X93611000Y-95874000D01*
X95955000Y-93531000D02*
X95908000Y-93577000D01*
X97280000Y-89339000D02*
X97280000Y-99260000D01*
X87000000Y-89339000D02*
X87000000Y-99260000D01*
X87000000Y-99260000D02*
X97280000Y-99260000D01*
X87000000Y-89339000D02*
X97280000Y-89339000D01*
X87000000Y-92299000D02*
X97280000Y-92299000D01*
X87000000Y-97200000D02*
X97280000Y-97200000D01*
X87000000Y-98700000D02*
X97280000Y-98700000D01*
X96360000Y-94600000D02*
G75*
G03*
X96360000Y-94600000I-1680000J0D01*
G01*
X89628805Y-96280253D02*
G75*
G02*
X88916000Y-96135000I-28805J1680253D01*
G01*
X88064574Y-95283042D02*
G75*
G02*
X88065000Y-93916000I1535426J683042D01*
G01*
X88916958Y-93064574D02*
G75*
G02*
X90284000Y-93065000I683042J-1535426D01*
G01*
X91135426Y-93916958D02*
G75*
G02*
X91135000Y-95284000I-1535426J-683042D01*
G01*
X90283318Y-96134756D02*
G75*
G02*
X89600000Y-96280000I-683318J1534756D01*
G01*
X81150000Y-88400000D02*
X77250000Y-88400000D01*
X81150000Y-86400000D02*
X77250000Y-86400000D01*
X81150000Y-88400000D02*
X81150000Y-86400000D01*
X92850000Y-88400000D02*
X88950000Y-88400000D01*
X92850000Y-86400000D02*
X88950000Y-86400000D01*
X92850000Y-88400000D02*
X92850000Y-86400000D01*
X102246359Y-77520000D02*
X102553641Y-77520000D01*
X102246359Y-78280000D02*
X102553641Y-78280000D01*
X104720000Y-87060000D02*
X105650000Y-87060000D01*
X107880000Y-87060000D02*
X106950000Y-87060000D01*
X107880000Y-87060000D02*
X107880000Y-84900000D01*
X104720000Y-87060000D02*
X104720000Y-85600000D01*
X100483641Y-78231000D02*
X100176359Y-78231000D01*
X100483641Y-77471000D02*
X100176359Y-77471000D01*
X114177578Y-79554000D02*
X113660422Y-79554000D01*
X114177578Y-80974000D02*
X113660422Y-80974000D01*
X120013000Y-87305000D02*
X120013000Y-86375000D01*
X120013000Y-84145000D02*
X120013000Y-85075000D01*
X120013000Y-84145000D02*
X117853000Y-84145000D01*
X120013000Y-87305000D02*
X118553000Y-87305000D01*
X128680000Y-58039000D02*
G75*
G03*
X128680000Y-58039000I-1680000J0D01*
G01*
X131100000Y-65719000D02*
X131100000Y-55439000D01*
X129600000Y-65719000D02*
X129600000Y-55439000D01*
X124699000Y-65719000D02*
X124699000Y-55439000D01*
X121739000Y-65719000D02*
X121739000Y-55439000D01*
X131660000Y-65719000D02*
X131660000Y-55439000D01*
X121739000Y-65719000D02*
X131660000Y-65719000D01*
X121739000Y-55439000D02*
X131660000Y-55439000D01*
X125931000Y-56764000D02*
X125977000Y-56811000D01*
X128239000Y-59073000D02*
X128274000Y-59108000D01*
X125725000Y-56969000D02*
X125761000Y-57004000D01*
X128023000Y-59266000D02*
X128069000Y-59313000D01*
X131160000Y-65959000D02*
X131900000Y-65959000D01*
X131900000Y-65959000D02*
X131900000Y-65459000D01*
X128680253Y-63090195D02*
G75*
G02*
X128535000Y-63803000I-1680253J-28805D01*
G01*
X127683042Y-64654426D02*
G75*
G02*
X126316000Y-64654000I-683042J1535426D01*
G01*
X125464574Y-63802042D02*
G75*
G02*
X125465000Y-62435000I1535426J683042D01*
G01*
X126316958Y-61583574D02*
G75*
G02*
X127684000Y-61584000I683042J-1535426D01*
G01*
X128534756Y-62435682D02*
G75*
G02*
X128680000Y-63119000I-1534756J-683318D01*
G01*
X128680000Y-81026000D02*
G75*
G03*
X128680000Y-81026000I-1680000J0D01*
G01*
X131100000Y-88706000D02*
X131100000Y-78426000D01*
X129600000Y-88706000D02*
X129600000Y-78426000D01*
X124699000Y-88706000D02*
X124699000Y-78426000D01*
X121739000Y-88706000D02*
X121739000Y-78426000D01*
X131660000Y-88706000D02*
X131660000Y-78426000D01*
X121739000Y-88706000D02*
X131660000Y-88706000D01*
X121739000Y-78426000D02*
X131660000Y-78426000D01*
X125931000Y-79751000D02*
X125977000Y-79798000D01*
X128239000Y-82060000D02*
X128274000Y-82095000D01*
X125725000Y-79956000D02*
X125761000Y-79991000D01*
X128023000Y-82253000D02*
X128069000Y-82300000D01*
X131160000Y-88946000D02*
X131900000Y-88946000D01*
X131900000Y-88946000D02*
X131900000Y-88446000D01*
X128680253Y-86077195D02*
G75*
G02*
X128535000Y-86790000I-1680253J-28805D01*
G01*
X127683042Y-87641426D02*
G75*
G02*
X126316000Y-87641000I-683042J1535426D01*
G01*
X125464574Y-86789042D02*
G75*
G02*
X125465000Y-85422000I1535426J683042D01*
G01*
X126316958Y-84570574D02*
G75*
G02*
X127684000Y-84571000I683042J-1535426D01*
G01*
X128534756Y-85422682D02*
G75*
G02*
X128680000Y-86106000I-1534756J-683318D01*
G01*
X107955000Y-94615000D02*
G75*
G03*
X107955000Y-94615000I-1680000J0D01*
G01*
X98595000Y-98715000D02*
X108875000Y-98715000D01*
X98595000Y-97215000D02*
X108875000Y-97215000D01*
X98595000Y-92314000D02*
X108875000Y-92314000D01*
X98595000Y-89354000D02*
X108875000Y-89354000D01*
X98595000Y-99275000D02*
X108875000Y-99275000D01*
X98595000Y-89354000D02*
X98595000Y-99275000D01*
X108875000Y-89354000D02*
X108875000Y-99275000D01*
X107550000Y-93546000D02*
X107503000Y-93592000D01*
X105241000Y-95854000D02*
X105206000Y-95889000D01*
X107345000Y-93340000D02*
X107310000Y-93376000D01*
X105048000Y-95638000D02*
X105001000Y-95684000D01*
X98355000Y-98775000D02*
X98355000Y-99515000D01*
X98355000Y-99515000D02*
X98855000Y-99515000D01*
X101223805Y-96295253D02*
G75*
G02*
X100511000Y-96150000I-28805J1680253D01*
G01*
X99659574Y-95298042D02*
G75*
G02*
X99660000Y-93931000I1535426J683042D01*
G01*
X100511958Y-93079574D02*
G75*
G02*
X101879000Y-93080000I683042J-1535426D01*
G01*
X102730426Y-93931958D02*
G75*
G02*
X102730000Y-95299000I-1535426J-683042D01*
G01*
X101878318Y-96149756D02*
G75*
G02*
X101195000Y-96295000I-683318J1534756D01*
G01*
X119512000Y-94615000D02*
G75*
G03*
X119512000Y-94615000I-1680000J0D01*
G01*
X110152000Y-98715000D02*
X120432000Y-98715000D01*
X110152000Y-97215000D02*
X120432000Y-97215000D01*
X110152000Y-92314000D02*
X120432000Y-92314000D01*
X110152000Y-89354000D02*
X120432000Y-89354000D01*
X110152000Y-99275000D02*
X120432000Y-99275000D01*
X110152000Y-89354000D02*
X110152000Y-99275000D01*
X120432000Y-89354000D02*
X120432000Y-99275000D01*
X119107000Y-93546000D02*
X119060000Y-93592000D01*
X116798000Y-95854000D02*
X116763000Y-95889000D01*
X118902000Y-93340000D02*
X118867000Y-93376000D01*
X116605000Y-95638000D02*
X116558000Y-95684000D01*
X109912000Y-98775000D02*
X109912000Y-99515000D01*
X109912000Y-99515000D02*
X110412000Y-99515000D01*
X112780805Y-96295253D02*
G75*
G02*
X112068000Y-96150000I-28805J1680253D01*
G01*
X111216574Y-95298042D02*
G75*
G02*
X111217000Y-93931000I1535426J683042D01*
G01*
X112068958Y-93079574D02*
G75*
G02*
X113436000Y-93080000I683042J-1535426D01*
G01*
X114287426Y-93931958D02*
G75*
G02*
X114287000Y-95299000I-1535426J-683042D01*
G01*
X113435318Y-96149756D02*
G75*
G02*
X112752000Y-96295000I-683318J1534756D01*
G01*
X128680000Y-69469000D02*
G75*
G03*
X128680000Y-69469000I-1680000J0D01*
G01*
X131100000Y-77149000D02*
X131100000Y-66869000D01*
X129600000Y-77149000D02*
X129600000Y-66869000D01*
X124699000Y-77149000D02*
X124699000Y-66869000D01*
X121739000Y-77149000D02*
X121739000Y-66869000D01*
X131660000Y-77149000D02*
X131660000Y-66869000D01*
X121739000Y-77149000D02*
X131660000Y-77149000D01*
X121739000Y-66869000D02*
X131660000Y-66869000D01*
X125931000Y-68194000D02*
X125977000Y-68241000D01*
X128239000Y-70503000D02*
X128274000Y-70538000D01*
X125725000Y-68399000D02*
X125761000Y-68434000D01*
X128023000Y-70696000D02*
X128069000Y-70743000D01*
X131160000Y-77389000D02*
X131900000Y-77389000D01*
X131900000Y-77389000D02*
X131900000Y-76889000D01*
X128680253Y-74520195D02*
G75*
G02*
X128535000Y-75233000I-1680253J-28805D01*
G01*
X127683042Y-76084426D02*
G75*
G02*
X126316000Y-76084000I-683042J1535426D01*
G01*
X125464574Y-75232042D02*
G75*
G02*
X125465000Y-73865000I1535426J683042D01*
G01*
X126316958Y-73013574D02*
G75*
G02*
X127684000Y-73014000I683042J-1535426D01*
G01*
X128534756Y-73865682D02*
G75*
G02*
X128680000Y-74549000I-1534756J-683318D01*
G01*
X67980000Y-70146359D02*
X67980000Y-70453641D01*
X67220000Y-70146359D02*
X67220000Y-70453641D01*
X65096359Y-66870000D02*
X65403641Y-66870000D01*
X65096359Y-67630000D02*
X65403641Y-67630000D01*
X76360000Y-61400000D02*
X76360000Y-59450000D01*
X76360000Y-61400000D02*
X76360000Y-63350000D01*
X66240000Y-61400000D02*
X66240000Y-59450000D01*
X66240000Y-61400000D02*
X66240000Y-64850000D01*
X111379000Y-74717000D02*
X108454000Y-74717000D01*
X111379000Y-74717000D02*
X112879000Y-74717000D01*
X111379000Y-77937000D02*
X109879000Y-77937000D01*
X111379000Y-77937000D02*
X112879000Y-77937000D01*
X120201000Y-62631064D02*
X120201000Y-58526936D01*
X116781000Y-62631064D02*
X116781000Y-58526936D01*
X116500000Y-69850000D02*
X116500000Y-72775000D01*
X116500000Y-69850000D02*
X116500000Y-68350000D01*
X119720000Y-69850000D02*
X119720000Y-71350000D01*
X119720000Y-69850000D02*
X119720000Y-68350000D01*
X106511000Y-59955000D02*
X107361000Y-59955000D01*
X106511000Y-72125000D02*
X106511000Y-59955000D01*
X107361000Y-72125000D02*
X106511000Y-72125000D01*
X111731000Y-59955000D02*
X111731000Y-62280000D01*
X110881000Y-59955000D02*
X111731000Y-59955000D01*
X111731000Y-69800000D02*
X114121000Y-69800000D01*
X111731000Y-72125000D02*
X111731000Y-69800000D01*
X110881000Y-72125000D02*
X111731000Y-72125000D01*
X111135000Y-52985000D02*
X111135000Y-50700000D01*
X109665000Y-52985000D02*
X111135000Y-52985000D01*
X109665000Y-50700000D02*
X109665000Y-52985000D01*
X107735000Y-52985000D02*
X107735000Y-50700000D01*
X106265000Y-52985000D02*
X107735000Y-52985000D01*
X106265000Y-50700000D02*
X106265000Y-52985000D01*
X117092000Y-77053221D02*
X117092000Y-77378779D01*
X118112000Y-77053221D02*
X118112000Y-77378779D01*
X110835221Y-83441000D02*
X111160779Y-83441000D01*
X110835221Y-82421000D02*
X111160779Y-82421000D01*
X117962000Y-80804936D02*
X117962000Y-82009064D01*
X119782000Y-80804936D02*
X119782000Y-82009064D01*
X110739422Y-85546000D02*
X111256578Y-85546000D01*
X110739422Y-84126000D02*
X111256578Y-84126000D01*
X111009000Y-78654000D02*
X108559000Y-78654000D01*
X109209000Y-81874000D02*
X111009000Y-81874000D01*
X117563000Y-79526000D02*
X117563000Y-82076000D01*
X115863000Y-79526000D02*
X115863000Y-82076000D01*
X117563000Y-79526000D02*
X115863000Y-79526000D01*
X114642000Y-81558000D02*
X114642000Y-84108000D01*
X112942000Y-81558000D02*
X112942000Y-84108000D01*
X114642000Y-81558000D02*
X112942000Y-81558000D01*
X56720000Y-66780000D02*
X62280000Y-66780000D01*
X56720000Y-62700000D02*
X56720000Y-65300000D01*
X56720000Y-61220000D02*
X62280000Y-61220000D01*
X62280000Y-62700000D02*
X62280000Y-65300000D01*
X73280000Y-52740000D02*
X73280000Y-54200000D01*
X70120000Y-52740000D02*
X70120000Y-54900000D01*
X70120000Y-52740000D02*
X71050000Y-52740000D01*
X73280000Y-52740000D02*
X72350000Y-52740000D01*
X69580000Y-52740000D02*
X69580000Y-54200000D01*
X66420000Y-52740000D02*
X66420000Y-54900000D01*
X66420000Y-52740000D02*
X67350000Y-52740000D01*
X69580000Y-52740000D02*
X68650000Y-52740000D01*
X102453000Y-88122000D02*
X98553000Y-88122000D01*
X102453000Y-86122000D02*
X98553000Y-86122000D01*
X102453000Y-88122000D02*
X102453000Y-86122000D01*
X112867000Y-88600000D02*
X108967000Y-88600000D01*
X112867000Y-86600000D02*
X108967000Y-86600000D01*
X112867000Y-88600000D02*
X112867000Y-86600000D01*
X63295000Y-98026000D02*
X63795000Y-98026000D01*
X63295000Y-97286000D02*
X63295000Y-98026000D01*
X74275000Y-91466000D02*
X74275000Y-97786000D01*
X63535000Y-91466000D02*
X63535000Y-97786000D01*
X63535000Y-97786000D02*
X74275000Y-97786000D01*
X63535000Y-91466000D02*
X74275000Y-91466000D01*
X63535000Y-91926000D02*
X74275000Y-91926000D01*
X63535000Y-97226000D02*
X74275000Y-97226000D01*
X56100000Y-78700000D02*
X56100000Y-79200000D01*
X56840000Y-78700000D02*
X56100000Y-78700000D01*
X62660000Y-89680000D02*
X56340000Y-89680000D01*
X62660000Y-78940000D02*
X56340000Y-78940000D01*
X56340000Y-78940000D02*
X56340000Y-89680000D01*
X62660000Y-78940000D02*
X62660000Y-89680000D01*
X62200000Y-78940000D02*
X62200000Y-89680000D01*
X56900000Y-78940000D02*
X56900000Y-89680000D01*
D10*
X80252380Y-73361904D02*
X81061904Y-73361904D01*
X81157142Y-73314285D01*
X81204761Y-73266666D01*
X81252380Y-73171428D01*
X81252380Y-72980952D01*
X81204761Y-72885714D01*
X81157142Y-72838095D01*
X81061904Y-72790476D01*
X80252380Y-72790476D01*
X80585714Y-71885714D02*
X81252380Y-71885714D01*
X80204761Y-72123809D02*
X80919047Y-72361904D01*
X80919047Y-71742857D01*
X128238095Y-98952380D02*
X128238095Y-97952380D01*
X128238095Y-98428571D02*
X128809523Y-98428571D01*
X128809523Y-98952380D02*
X128809523Y-97952380D01*
X129190476Y-97952380D02*
X129809523Y-97952380D01*
X129476190Y-98333333D01*
X129619047Y-98333333D01*
X129714285Y-98380952D01*
X129761904Y-98428571D01*
X129809523Y-98523809D01*
X129809523Y-98761904D01*
X129761904Y-98857142D01*
X129714285Y-98904761D01*
X129619047Y-98952380D01*
X129333333Y-98952380D01*
X129238095Y-98904761D01*
X129190476Y-98857142D01*
X57238095Y-98952380D02*
X57238095Y-97952380D01*
X57238095Y-98428571D02*
X57809523Y-98428571D01*
X57809523Y-98952380D02*
X57809523Y-97952380D01*
X58238095Y-98047619D02*
X58285714Y-98000000D01*
X58380952Y-97952380D01*
X58619047Y-97952380D01*
X58714285Y-98000000D01*
X58761904Y-98047619D01*
X58809523Y-98142857D01*
X58809523Y-98238095D01*
X58761904Y-98380952D01*
X58190476Y-98952380D01*
X58809523Y-98952380D01*
X57238095Y-57152380D02*
X57238095Y-56152380D01*
X57238095Y-56628571D02*
X57809523Y-56628571D01*
X57809523Y-57152380D02*
X57809523Y-56152380D01*
X58809523Y-57152380D02*
X58238095Y-57152380D01*
X58523809Y-57152380D02*
X58523809Y-56152380D01*
X58428571Y-56295238D01*
X58333333Y-56390476D01*
X58238095Y-56438095D01*
X64702380Y-58642857D02*
X64226190Y-58976190D01*
X64702380Y-59214285D02*
X63702380Y-59214285D01*
X63702380Y-58833333D01*
X63750000Y-58738095D01*
X63797619Y-58690476D01*
X63892857Y-58642857D01*
X64035714Y-58642857D01*
X64130952Y-58690476D01*
X64178571Y-58738095D01*
X64226190Y-58833333D01*
X64226190Y-59214285D01*
X64702380Y-57690476D02*
X64702380Y-58261904D01*
X64702380Y-57976190D02*
X63702380Y-57976190D01*
X63845238Y-58071428D01*
X63940476Y-58166666D01*
X63988095Y-58261904D01*
X64130952Y-57119047D02*
X64083333Y-57214285D01*
X64035714Y-57261904D01*
X63940476Y-57309523D01*
X63892857Y-57309523D01*
X63797619Y-57261904D01*
X63750000Y-57214285D01*
X63702380Y-57119047D01*
X63702380Y-56928571D01*
X63750000Y-56833333D01*
X63797619Y-56785714D01*
X63892857Y-56738095D01*
X63940476Y-56738095D01*
X64035714Y-56785714D01*
X64083333Y-56833333D01*
X64130952Y-56928571D01*
X64130952Y-57119047D01*
X64178571Y-57214285D01*
X64226190Y-57261904D01*
X64321428Y-57309523D01*
X64511904Y-57309523D01*
X64607142Y-57261904D01*
X64654761Y-57214285D01*
X64702380Y-57119047D01*
X64702380Y-56928571D01*
X64654761Y-56833333D01*
X64607142Y-56785714D01*
X64511904Y-56738095D01*
X64321428Y-56738095D01*
X64226190Y-56785714D01*
X64178571Y-56833333D01*
X64130952Y-56928571D01*
X71583333Y-90607142D02*
X71535714Y-90654761D01*
X71392857Y-90702380D01*
X71297619Y-90702380D01*
X71154761Y-90654761D01*
X71059523Y-90559523D01*
X71011904Y-90464285D01*
X70964285Y-90273809D01*
X70964285Y-90130952D01*
X71011904Y-89940476D01*
X71059523Y-89845238D01*
X71154761Y-89750000D01*
X71297619Y-89702380D01*
X71392857Y-89702380D01*
X71535714Y-89750000D01*
X71583333Y-89797619D01*
X71964285Y-89797619D02*
X72011904Y-89750000D01*
X72107142Y-89702380D01*
X72345238Y-89702380D01*
X72440476Y-89750000D01*
X72488095Y-89797619D01*
X72535714Y-89892857D01*
X72535714Y-89988095D01*
X72488095Y-90130952D01*
X71916666Y-90702380D01*
X72535714Y-90702380D01*
X80107142Y-78892857D02*
X80154761Y-78940476D01*
X80202380Y-79083333D01*
X80202380Y-79178571D01*
X80154761Y-79321428D01*
X80059523Y-79416666D01*
X79964285Y-79464285D01*
X79773809Y-79511904D01*
X79630952Y-79511904D01*
X79440476Y-79464285D01*
X79345238Y-79416666D01*
X79250000Y-79321428D01*
X79202380Y-79178571D01*
X79202380Y-79083333D01*
X79250000Y-78940476D01*
X79297619Y-78892857D01*
X80202380Y-77940476D02*
X80202380Y-78511904D01*
X80202380Y-78226190D02*
X79202380Y-78226190D01*
X79345238Y-78321428D01*
X79440476Y-78416666D01*
X79488095Y-78511904D01*
X79202380Y-77035714D02*
X79202380Y-77511904D01*
X79678571Y-77559523D01*
X79630952Y-77511904D01*
X79583333Y-77416666D01*
X79583333Y-77178571D01*
X79630952Y-77083333D01*
X79678571Y-77035714D01*
X79773809Y-76988095D01*
X80011904Y-76988095D01*
X80107142Y-77035714D01*
X80154761Y-77083333D01*
X80202380Y-77178571D01*
X80202380Y-77416666D01*
X80154761Y-77511904D01*
X80107142Y-77559523D01*
X73083333Y-82602380D02*
X72750000Y-82126190D01*
X72511904Y-82602380D02*
X72511904Y-81602380D01*
X72892857Y-81602380D01*
X72988095Y-81650000D01*
X73035714Y-81697619D01*
X73083333Y-81792857D01*
X73083333Y-81935714D01*
X73035714Y-82030952D01*
X72988095Y-82078571D01*
X72892857Y-82126190D01*
X72511904Y-82126190D01*
X73988095Y-81602380D02*
X73511904Y-81602380D01*
X73464285Y-82078571D01*
X73511904Y-82030952D01*
X73607142Y-81983333D01*
X73845238Y-81983333D01*
X73940476Y-82030952D01*
X73988095Y-82078571D01*
X74035714Y-82173809D01*
X74035714Y-82411904D01*
X73988095Y-82507142D01*
X73940476Y-82554761D01*
X73845238Y-82602380D01*
X73607142Y-82602380D01*
X73511904Y-82554761D01*
X73464285Y-82507142D01*
X70857142Y-74857142D02*
X70809523Y-74904761D01*
X70666666Y-74952380D01*
X70571428Y-74952380D01*
X70428571Y-74904761D01*
X70333333Y-74809523D01*
X70285714Y-74714285D01*
X70238095Y-74523809D01*
X70238095Y-74380952D01*
X70285714Y-74190476D01*
X70333333Y-74095238D01*
X70428571Y-74000000D01*
X70571428Y-73952380D01*
X70666666Y-73952380D01*
X70809523Y-74000000D01*
X70857142Y-74047619D01*
X71809523Y-74952380D02*
X71238095Y-74952380D01*
X71523809Y-74952380D02*
X71523809Y-73952380D01*
X71428571Y-74095238D01*
X71333333Y-74190476D01*
X71238095Y-74238095D01*
X72666666Y-73952380D02*
X72476190Y-73952380D01*
X72380952Y-74000000D01*
X72333333Y-74047619D01*
X72238095Y-74190476D01*
X72190476Y-74380952D01*
X72190476Y-74761904D01*
X72238095Y-74857142D01*
X72285714Y-74904761D01*
X72380952Y-74952380D01*
X72571428Y-74952380D01*
X72666666Y-74904761D01*
X72714285Y-74857142D01*
X72761904Y-74761904D01*
X72761904Y-74523809D01*
X72714285Y-74428571D01*
X72666666Y-74380952D01*
X72571428Y-74333333D01*
X72380952Y-74333333D01*
X72285714Y-74380952D01*
X72238095Y-74428571D01*
X72190476Y-74523809D01*
X70902380Y-76811904D02*
X71711904Y-76811904D01*
X71807142Y-76764285D01*
X71854761Y-76716666D01*
X71902380Y-76621428D01*
X71902380Y-76430952D01*
X71854761Y-76335714D01*
X71807142Y-76288095D01*
X71711904Y-76240476D01*
X70902380Y-76240476D01*
X71902380Y-75716666D02*
X71902380Y-75526190D01*
X71854761Y-75430952D01*
X71807142Y-75383333D01*
X71664285Y-75288095D01*
X71473809Y-75240476D01*
X71092857Y-75240476D01*
X70997619Y-75288095D01*
X70950000Y-75335714D01*
X70902380Y-75430952D01*
X70902380Y-75621428D01*
X70950000Y-75716666D01*
X70997619Y-75764285D01*
X71092857Y-75811904D01*
X71330952Y-75811904D01*
X71426190Y-75764285D01*
X71473809Y-75716666D01*
X71521428Y-75621428D01*
X71521428Y-75430952D01*
X71473809Y-75335714D01*
X71426190Y-75288095D01*
X71330952Y-75240476D01*
X69285714Y-81561904D02*
X69019047Y-81180952D01*
X68828571Y-81561904D02*
X68828571Y-80761904D01*
X69133333Y-80761904D01*
X69209523Y-80800000D01*
X69247619Y-80838095D01*
X69285714Y-80914285D01*
X69285714Y-81028571D01*
X69247619Y-81104761D01*
X69209523Y-81142857D01*
X69133333Y-81180952D01*
X68828571Y-81180952D01*
X69590476Y-80838095D02*
X69628571Y-80800000D01*
X69704761Y-80761904D01*
X69895238Y-80761904D01*
X69971428Y-80800000D01*
X70009523Y-80838095D01*
X70047619Y-80914285D01*
X70047619Y-80990476D01*
X70009523Y-81104761D01*
X69552380Y-81561904D01*
X70047619Y-81561904D01*
X70314285Y-80761904D02*
X70809523Y-80761904D01*
X70542857Y-81066666D01*
X70657142Y-81066666D01*
X70733333Y-81104761D01*
X70771428Y-81142857D01*
X70809523Y-81219047D01*
X70809523Y-81409523D01*
X70771428Y-81485714D01*
X70733333Y-81523809D01*
X70657142Y-81561904D01*
X70428571Y-81561904D01*
X70352380Y-81523809D01*
X70314285Y-81485714D01*
X69452380Y-78514285D02*
X68452380Y-78514285D01*
X68452380Y-78276190D01*
X68500000Y-78133333D01*
X68595238Y-78038095D01*
X68690476Y-77990476D01*
X68880952Y-77942857D01*
X69023809Y-77942857D01*
X69214285Y-77990476D01*
X69309523Y-78038095D01*
X69404761Y-78133333D01*
X69452380Y-78276190D01*
X69452380Y-78514285D01*
X69452380Y-76990476D02*
X69452380Y-77561904D01*
X69452380Y-77276190D02*
X68452380Y-77276190D01*
X68595238Y-77371428D01*
X68690476Y-77466666D01*
X68738095Y-77561904D01*
X68452380Y-76371428D02*
X68452380Y-76276190D01*
X68500000Y-76180952D01*
X68547619Y-76133333D01*
X68642857Y-76085714D01*
X68833333Y-76038095D01*
X69071428Y-76038095D01*
X69261904Y-76085714D01*
X69357142Y-76133333D01*
X69404761Y-76180952D01*
X69452380Y-76276190D01*
X69452380Y-76371428D01*
X69404761Y-76466666D01*
X69357142Y-76514285D01*
X69261904Y-76561904D01*
X69071428Y-76609523D01*
X68833333Y-76609523D01*
X68642857Y-76561904D01*
X68547619Y-76514285D01*
X68500000Y-76466666D01*
X68452380Y-76371428D01*
X74052380Y-85614285D02*
X73052380Y-85614285D01*
X73052380Y-85376190D01*
X73100000Y-85233333D01*
X73195238Y-85138095D01*
X73290476Y-85090476D01*
X73480952Y-85042857D01*
X73623809Y-85042857D01*
X73814285Y-85090476D01*
X73909523Y-85138095D01*
X74004761Y-85233333D01*
X74052380Y-85376190D01*
X74052380Y-85614285D01*
X74052380Y-84090476D02*
X74052380Y-84661904D01*
X74052380Y-84376190D02*
X73052380Y-84376190D01*
X73195238Y-84471428D01*
X73290476Y-84566666D01*
X73338095Y-84661904D01*
X73147619Y-83709523D02*
X73100000Y-83661904D01*
X73052380Y-83566666D01*
X73052380Y-83328571D01*
X73100000Y-83233333D01*
X73147619Y-83185714D01*
X73242857Y-83138095D01*
X73338095Y-83138095D01*
X73480952Y-83185714D01*
X74052380Y-83757142D01*
X74052380Y-83138095D01*
X81352380Y-75938095D02*
X80352380Y-75938095D01*
X80352380Y-75700000D01*
X80400000Y-75557142D01*
X80495238Y-75461904D01*
X80590476Y-75414285D01*
X80780952Y-75366666D01*
X80923809Y-75366666D01*
X81114285Y-75414285D01*
X81209523Y-75461904D01*
X81304761Y-75557142D01*
X81352380Y-75700000D01*
X81352380Y-75938095D01*
X80352380Y-75033333D02*
X80352380Y-74366666D01*
X81352380Y-74795238D01*
X70116666Y-73514285D02*
X69783333Y-73780952D01*
X70116666Y-73971428D02*
X69416666Y-73971428D01*
X69416666Y-73666666D01*
X69450000Y-73590476D01*
X69483333Y-73552380D01*
X69550000Y-73514285D01*
X69650000Y-73514285D01*
X69716666Y-73552380D01*
X69750000Y-73590476D01*
X69783333Y-73666666D01*
X69783333Y-73971428D01*
X69483333Y-73209523D02*
X69450000Y-73171428D01*
X69416666Y-73095238D01*
X69416666Y-72904761D01*
X69450000Y-72828571D01*
X69483333Y-72790476D01*
X69550000Y-72752380D01*
X69616666Y-72752380D01*
X69716666Y-72790476D01*
X70116666Y-73247619D01*
X70116666Y-72752380D01*
X69416666Y-72485714D02*
X69416666Y-71952380D01*
X70116666Y-72295238D01*
X63833333Y-74461904D02*
X63833333Y-75033333D01*
X63795238Y-75147619D01*
X63719047Y-75223809D01*
X63604761Y-75261904D01*
X63528571Y-75261904D01*
X64214285Y-75261904D02*
X64214285Y-74461904D01*
X64519047Y-74461904D01*
X64595238Y-74500000D01*
X64633333Y-74538095D01*
X64671428Y-74614285D01*
X64671428Y-74728571D01*
X64633333Y-74804761D01*
X64595238Y-74842857D01*
X64519047Y-74880952D01*
X64214285Y-74880952D01*
X65433333Y-75261904D02*
X64976190Y-75261904D01*
X65204761Y-75261904D02*
X65204761Y-74461904D01*
X65128571Y-74576190D01*
X65052380Y-74652380D01*
X64976190Y-74690476D01*
X53952380Y-69583333D02*
X54666666Y-69583333D01*
X54809523Y-69630952D01*
X54904761Y-69726190D01*
X54952380Y-69869047D01*
X54952380Y-69964285D01*
X54952380Y-69059523D02*
X54952380Y-68869047D01*
X54904761Y-68773809D01*
X54857142Y-68726190D01*
X54714285Y-68630952D01*
X54523809Y-68583333D01*
X54142857Y-68583333D01*
X54047619Y-68630952D01*
X54000000Y-68678571D01*
X53952380Y-68773809D01*
X53952380Y-68964285D01*
X54000000Y-69059523D01*
X54047619Y-69107142D01*
X54142857Y-69154761D01*
X54380952Y-69154761D01*
X54476190Y-69107142D01*
X54523809Y-69059523D01*
X54571428Y-68964285D01*
X54571428Y-68773809D01*
X54523809Y-68678571D01*
X54476190Y-68630952D01*
X54380952Y-68583333D01*
X71052380Y-70266666D02*
X71052380Y-70742857D01*
X70052380Y-70742857D01*
X71052380Y-69409523D02*
X71052380Y-69980952D01*
X71052380Y-69695238D02*
X70052380Y-69695238D01*
X70195238Y-69790476D01*
X70290476Y-69885714D01*
X70338095Y-69980952D01*
X79257142Y-71492857D02*
X79304761Y-71540476D01*
X79352380Y-71683333D01*
X79352380Y-71778571D01*
X79304761Y-71921428D01*
X79209523Y-72016666D01*
X79114285Y-72064285D01*
X78923809Y-72111904D01*
X78780952Y-72111904D01*
X78590476Y-72064285D01*
X78495238Y-72016666D01*
X78400000Y-71921428D01*
X78352380Y-71778571D01*
X78352380Y-71683333D01*
X78400000Y-71540476D01*
X78447619Y-71492857D01*
X78447619Y-71111904D02*
X78400000Y-71064285D01*
X78352380Y-70969047D01*
X78352380Y-70730952D01*
X78400000Y-70635714D01*
X78447619Y-70588095D01*
X78542857Y-70540476D01*
X78638095Y-70540476D01*
X78780952Y-70588095D01*
X79352380Y-71159523D01*
X79352380Y-70540476D01*
X79352380Y-69588095D02*
X79352380Y-70159523D01*
X79352380Y-69873809D02*
X78352380Y-69873809D01*
X78495238Y-69969047D01*
X78590476Y-70064285D01*
X78638095Y-70159523D01*
X103297619Y-85345238D02*
X103250000Y-85440476D01*
X103154761Y-85535714D01*
X103011904Y-85678571D01*
X102964285Y-85773809D01*
X102964285Y-85869047D01*
X103202380Y-85821428D02*
X103154761Y-85916666D01*
X103059523Y-86011904D01*
X102869047Y-86059523D01*
X102535714Y-86059523D01*
X102345238Y-86011904D01*
X102250000Y-85916666D01*
X102202380Y-85821428D01*
X102202380Y-85630952D01*
X102250000Y-85535714D01*
X102345238Y-85440476D01*
X102535714Y-85392857D01*
X102869047Y-85392857D01*
X103059523Y-85440476D01*
X103154761Y-85535714D01*
X103202380Y-85630952D01*
X103202380Y-85821428D01*
X102202380Y-85059523D02*
X102202380Y-84440476D01*
X102583333Y-84773809D01*
X102583333Y-84630952D01*
X102630952Y-84535714D01*
X102678571Y-84488095D01*
X102773809Y-84440476D01*
X103011904Y-84440476D01*
X103107142Y-84488095D01*
X103154761Y-84535714D01*
X103202380Y-84630952D01*
X103202380Y-84916666D01*
X103154761Y-85011904D01*
X103107142Y-85059523D01*
X82757142Y-76902380D02*
X82423809Y-76426190D01*
X82185714Y-76902380D02*
X82185714Y-75902380D01*
X82566666Y-75902380D01*
X82661904Y-75950000D01*
X82709523Y-75997619D01*
X82757142Y-76092857D01*
X82757142Y-76235714D01*
X82709523Y-76330952D01*
X82661904Y-76378571D01*
X82566666Y-76426190D01*
X82185714Y-76426190D01*
X83138095Y-75997619D02*
X83185714Y-75950000D01*
X83280952Y-75902380D01*
X83519047Y-75902380D01*
X83614285Y-75950000D01*
X83661904Y-75997619D01*
X83709523Y-76092857D01*
X83709523Y-76188095D01*
X83661904Y-76330952D01*
X83090476Y-76902380D01*
X83709523Y-76902380D01*
X84661904Y-76902380D02*
X84090476Y-76902380D01*
X84376190Y-76902380D02*
X84376190Y-75902380D01*
X84280952Y-76045238D01*
X84185714Y-76140476D01*
X84090476Y-76188095D01*
X95057142Y-78452380D02*
X94723809Y-77976190D01*
X94485714Y-78452380D02*
X94485714Y-77452380D01*
X94866666Y-77452380D01*
X94961904Y-77500000D01*
X95009523Y-77547619D01*
X95057142Y-77642857D01*
X95057142Y-77785714D01*
X95009523Y-77880952D01*
X94961904Y-77928571D01*
X94866666Y-77976190D01*
X94485714Y-77976190D01*
X95438095Y-77547619D02*
X95485714Y-77500000D01*
X95580952Y-77452380D01*
X95819047Y-77452380D01*
X95914285Y-77500000D01*
X95961904Y-77547619D01*
X96009523Y-77642857D01*
X96009523Y-77738095D01*
X95961904Y-77880952D01*
X95390476Y-78452380D01*
X96009523Y-78452380D01*
X96628571Y-77452380D02*
X96723809Y-77452380D01*
X96819047Y-77500000D01*
X96866666Y-77547619D01*
X96914285Y-77642857D01*
X96961904Y-77833333D01*
X96961904Y-78071428D01*
X96914285Y-78261904D01*
X96866666Y-78357142D01*
X96819047Y-78404761D01*
X96723809Y-78452380D01*
X96628571Y-78452380D01*
X96533333Y-78404761D01*
X96485714Y-78357142D01*
X96438095Y-78261904D01*
X96390476Y-78071428D01*
X96390476Y-77833333D01*
X96438095Y-77642857D01*
X96485714Y-77547619D01*
X96533333Y-77500000D01*
X96628571Y-77452380D01*
X77547619Y-81595238D02*
X77500000Y-81690476D01*
X77404761Y-81785714D01*
X77261904Y-81928571D01*
X77214285Y-82023809D01*
X77214285Y-82119047D01*
X77452380Y-82071428D02*
X77404761Y-82166666D01*
X77309523Y-82261904D01*
X77119047Y-82309523D01*
X76785714Y-82309523D01*
X76595238Y-82261904D01*
X76500000Y-82166666D01*
X76452380Y-82071428D01*
X76452380Y-81880952D01*
X76500000Y-81785714D01*
X76595238Y-81690476D01*
X76785714Y-81642857D01*
X77119047Y-81642857D01*
X77309523Y-81690476D01*
X77404761Y-81785714D01*
X77452380Y-81880952D01*
X77452380Y-82071428D01*
X76452380Y-81309523D02*
X76452380Y-80642857D01*
X77452380Y-81071428D01*
X91904761Y-86297619D02*
X91809523Y-86250000D01*
X91714285Y-86154761D01*
X91571428Y-86011904D01*
X91476190Y-85964285D01*
X91380952Y-85964285D01*
X91428571Y-86202380D02*
X91333333Y-86154761D01*
X91238095Y-86059523D01*
X91190476Y-85869047D01*
X91190476Y-85535714D01*
X91238095Y-85345238D01*
X91333333Y-85250000D01*
X91428571Y-85202380D01*
X91619047Y-85202380D01*
X91714285Y-85250000D01*
X91809523Y-85345238D01*
X91857142Y-85535714D01*
X91857142Y-85869047D01*
X91809523Y-86059523D01*
X91714285Y-86154761D01*
X91619047Y-86202380D01*
X91428571Y-86202380D01*
X92714285Y-85202380D02*
X92523809Y-85202380D01*
X92428571Y-85250000D01*
X92380952Y-85297619D01*
X92285714Y-85440476D01*
X92238095Y-85630952D01*
X92238095Y-86011904D01*
X92285714Y-86107142D01*
X92333333Y-86154761D01*
X92428571Y-86202380D01*
X92619047Y-86202380D01*
X92714285Y-86154761D01*
X92761904Y-86107142D01*
X92809523Y-86011904D01*
X92809523Y-85773809D01*
X92761904Y-85678571D01*
X92714285Y-85630952D01*
X92619047Y-85583333D01*
X92428571Y-85583333D01*
X92333333Y-85630952D01*
X92285714Y-85678571D01*
X92238095Y-85773809D01*
X83390476Y-89552380D02*
X83390476Y-90266666D01*
X83342857Y-90409523D01*
X83247619Y-90504761D01*
X83104761Y-90552380D01*
X83009523Y-90552380D01*
X84390476Y-90552380D02*
X83819047Y-90552380D01*
X84104761Y-90552380D02*
X84104761Y-89552380D01*
X84009523Y-89695238D01*
X83914285Y-89790476D01*
X83819047Y-89838095D01*
X84771428Y-89647619D02*
X84819047Y-89600000D01*
X84914285Y-89552380D01*
X85152380Y-89552380D01*
X85247619Y-89600000D01*
X85295238Y-89647619D01*
X85342857Y-89742857D01*
X85342857Y-89838095D01*
X85295238Y-89980952D01*
X84723809Y-90552380D01*
X85342857Y-90552380D01*
X94990476Y-89652380D02*
X94990476Y-90366666D01*
X94942857Y-90509523D01*
X94847619Y-90604761D01*
X94704761Y-90652380D01*
X94609523Y-90652380D01*
X95990476Y-90652380D02*
X95419047Y-90652380D01*
X95704761Y-90652380D02*
X95704761Y-89652380D01*
X95609523Y-89795238D01*
X95514285Y-89890476D01*
X95419047Y-89938095D01*
X96942857Y-90652380D02*
X96371428Y-90652380D01*
X96657142Y-90652380D02*
X96657142Y-89652380D01*
X96561904Y-89795238D01*
X96466666Y-89890476D01*
X96371428Y-89938095D01*
X82352380Y-88414285D02*
X81352380Y-88414285D01*
X81352380Y-88176190D01*
X81400000Y-88033333D01*
X81495238Y-87938095D01*
X81590476Y-87890476D01*
X81780952Y-87842857D01*
X81923809Y-87842857D01*
X82114285Y-87890476D01*
X82209523Y-87938095D01*
X82304761Y-88033333D01*
X82352380Y-88176190D01*
X82352380Y-88414285D01*
X82352380Y-86890476D02*
X82352380Y-87461904D01*
X82352380Y-87176190D02*
X81352380Y-87176190D01*
X81495238Y-87271428D01*
X81590476Y-87366666D01*
X81638095Y-87461904D01*
X82352380Y-85938095D02*
X82352380Y-86509523D01*
X82352380Y-86223809D02*
X81352380Y-86223809D01*
X81495238Y-86319047D01*
X81590476Y-86414285D01*
X81638095Y-86509523D01*
X93261904Y-88702380D02*
X93261904Y-87702380D01*
X93500000Y-87702380D01*
X93642857Y-87750000D01*
X93738095Y-87845238D01*
X93785714Y-87940476D01*
X93833333Y-88130952D01*
X93833333Y-88273809D01*
X93785714Y-88464285D01*
X93738095Y-88559523D01*
X93642857Y-88654761D01*
X93500000Y-88702380D01*
X93261904Y-88702380D01*
X94166666Y-87702380D02*
X94785714Y-87702380D01*
X94452380Y-88083333D01*
X94595238Y-88083333D01*
X94690476Y-88130952D01*
X94738095Y-88178571D01*
X94785714Y-88273809D01*
X94785714Y-88511904D01*
X94738095Y-88607142D01*
X94690476Y-88654761D01*
X94595238Y-88702380D01*
X94309523Y-88702380D01*
X94214285Y-88654761D01*
X94166666Y-88607142D01*
X102633333Y-79552380D02*
X102300000Y-79076190D01*
X102061904Y-79552380D02*
X102061904Y-78552380D01*
X102442857Y-78552380D01*
X102538095Y-78600000D01*
X102585714Y-78647619D01*
X102633333Y-78742857D01*
X102633333Y-78885714D01*
X102585714Y-78980952D01*
X102538095Y-79028571D01*
X102442857Y-79076190D01*
X102061904Y-79076190D01*
X102966666Y-78552380D02*
X103633333Y-78552380D01*
X103204761Y-79552380D01*
X109188095Y-85676190D02*
X109150000Y-85752380D01*
X109073809Y-85828571D01*
X108959523Y-85942857D01*
X108921428Y-86019047D01*
X108921428Y-86095238D01*
X109111904Y-86057142D02*
X109073809Y-86133333D01*
X108997619Y-86209523D01*
X108845238Y-86247619D01*
X108578571Y-86247619D01*
X108426190Y-86209523D01*
X108350000Y-86133333D01*
X108311904Y-86057142D01*
X108311904Y-85904761D01*
X108350000Y-85828571D01*
X108426190Y-85752380D01*
X108578571Y-85714285D01*
X108845238Y-85714285D01*
X108997619Y-85752380D01*
X109073809Y-85828571D01*
X109111904Y-85904761D01*
X109111904Y-86057142D01*
X108388095Y-85409523D02*
X108350000Y-85371428D01*
X108311904Y-85295238D01*
X108311904Y-85104761D01*
X108350000Y-85028571D01*
X108388095Y-84990476D01*
X108464285Y-84952380D01*
X108540476Y-84952380D01*
X108654761Y-84990476D01*
X109111904Y-85447619D01*
X109111904Y-84952380D01*
X99757142Y-77152380D02*
X99423809Y-76676190D01*
X99185714Y-77152380D02*
X99185714Y-76152380D01*
X99566666Y-76152380D01*
X99661904Y-76200000D01*
X99709523Y-76247619D01*
X99757142Y-76342857D01*
X99757142Y-76485714D01*
X99709523Y-76580952D01*
X99661904Y-76628571D01*
X99566666Y-76676190D01*
X99185714Y-76676190D01*
X100709523Y-77152380D02*
X100138095Y-77152380D01*
X100423809Y-77152380D02*
X100423809Y-76152380D01*
X100328571Y-76295238D01*
X100233333Y-76390476D01*
X100138095Y-76438095D01*
X101614285Y-76152380D02*
X101138095Y-76152380D01*
X101090476Y-76628571D01*
X101138095Y-76580952D01*
X101233333Y-76533333D01*
X101471428Y-76533333D01*
X101566666Y-76580952D01*
X101614285Y-76628571D01*
X101661904Y-76723809D01*
X101661904Y-76961904D01*
X101614285Y-77057142D01*
X101566666Y-77104761D01*
X101471428Y-77152380D01*
X101233333Y-77152380D01*
X101138095Y-77104761D01*
X101090476Y-77057142D01*
X112957142Y-79157142D02*
X112909523Y-79204761D01*
X112766666Y-79252380D01*
X112671428Y-79252380D01*
X112528571Y-79204761D01*
X112433333Y-79109523D01*
X112385714Y-79014285D01*
X112338095Y-78823809D01*
X112338095Y-78680952D01*
X112385714Y-78490476D01*
X112433333Y-78395238D01*
X112528571Y-78300000D01*
X112671428Y-78252380D01*
X112766666Y-78252380D01*
X112909523Y-78300000D01*
X112957142Y-78347619D01*
X113909523Y-79252380D02*
X113338095Y-79252380D01*
X113623809Y-79252380D02*
X113623809Y-78252380D01*
X113528571Y-78395238D01*
X113433333Y-78490476D01*
X113338095Y-78538095D01*
X114242857Y-78252380D02*
X114861904Y-78252380D01*
X114528571Y-78633333D01*
X114671428Y-78633333D01*
X114766666Y-78680952D01*
X114814285Y-78728571D01*
X114861904Y-78823809D01*
X114861904Y-79061904D01*
X114814285Y-79157142D01*
X114766666Y-79204761D01*
X114671428Y-79252380D01*
X114385714Y-79252380D01*
X114290476Y-79204761D01*
X114242857Y-79157142D01*
X117387619Y-86201238D02*
X117340000Y-86296476D01*
X117244761Y-86391714D01*
X117101904Y-86534571D01*
X117054285Y-86629809D01*
X117054285Y-86725047D01*
X117292380Y-86677428D02*
X117244761Y-86772666D01*
X117149523Y-86867904D01*
X116959047Y-86915523D01*
X116625714Y-86915523D01*
X116435238Y-86867904D01*
X116340000Y-86772666D01*
X116292380Y-86677428D01*
X116292380Y-86486952D01*
X116340000Y-86391714D01*
X116435238Y-86296476D01*
X116625714Y-86248857D01*
X116959047Y-86248857D01*
X117149523Y-86296476D01*
X117244761Y-86391714D01*
X117292380Y-86486952D01*
X117292380Y-86677428D01*
X116292380Y-85344095D02*
X116292380Y-85820285D01*
X116768571Y-85867904D01*
X116720952Y-85820285D01*
X116673333Y-85725047D01*
X116673333Y-85486952D01*
X116720952Y-85391714D01*
X116768571Y-85344095D01*
X116863809Y-85296476D01*
X117101904Y-85296476D01*
X117197142Y-85344095D01*
X117244761Y-85391714D01*
X117292380Y-85486952D01*
X117292380Y-85725047D01*
X117244761Y-85820285D01*
X117197142Y-85867904D01*
X122134380Y-61293333D02*
X122848666Y-61293333D01*
X122991523Y-61340952D01*
X123086761Y-61436190D01*
X123134380Y-61579047D01*
X123134380Y-61674285D01*
X122229619Y-60864761D02*
X122182000Y-60817142D01*
X122134380Y-60721904D01*
X122134380Y-60483809D01*
X122182000Y-60388571D01*
X122229619Y-60340952D01*
X122324857Y-60293333D01*
X122420095Y-60293333D01*
X122562952Y-60340952D01*
X123134380Y-60912380D01*
X123134380Y-60293333D01*
X122134380Y-83899333D02*
X122848666Y-83899333D01*
X122991523Y-83946952D01*
X123086761Y-84042190D01*
X123134380Y-84185047D01*
X123134380Y-84280285D01*
X122134380Y-82994571D02*
X122134380Y-83185047D01*
X122182000Y-83280285D01*
X122229619Y-83327904D01*
X122372476Y-83423142D01*
X122562952Y-83470761D01*
X122943904Y-83470761D01*
X123039142Y-83423142D01*
X123086761Y-83375523D01*
X123134380Y-83280285D01*
X123134380Y-83089809D01*
X123086761Y-82994571D01*
X123039142Y-82946952D01*
X122943904Y-82899333D01*
X122705809Y-82899333D01*
X122610571Y-82946952D01*
X122562952Y-82994571D01*
X122515333Y-83089809D01*
X122515333Y-83280285D01*
X122562952Y-83375523D01*
X122610571Y-83423142D01*
X122705809Y-83470761D01*
X107466666Y-89652380D02*
X107466666Y-90366666D01*
X107419047Y-90509523D01*
X107323809Y-90604761D01*
X107180952Y-90652380D01*
X107085714Y-90652380D01*
X108419047Y-89652380D02*
X107942857Y-89652380D01*
X107895238Y-90128571D01*
X107942857Y-90080952D01*
X108038095Y-90033333D01*
X108276190Y-90033333D01*
X108371428Y-90080952D01*
X108419047Y-90128571D01*
X108466666Y-90223809D01*
X108466666Y-90461904D01*
X108419047Y-90557142D01*
X108371428Y-90604761D01*
X108276190Y-90652380D01*
X108038095Y-90652380D01*
X107942857Y-90604761D01*
X107895238Y-90557142D01*
X118966666Y-89852380D02*
X118966666Y-90566666D01*
X118919047Y-90709523D01*
X118823809Y-90804761D01*
X118680952Y-90852380D01*
X118585714Y-90852380D01*
X119871428Y-90185714D02*
X119871428Y-90852380D01*
X119633333Y-89804761D02*
X119395238Y-90519047D01*
X120014285Y-90519047D01*
X122261380Y-72342333D02*
X122975666Y-72342333D01*
X123118523Y-72389952D01*
X123213761Y-72485190D01*
X123261380Y-72628047D01*
X123261380Y-72723285D01*
X122261380Y-71961380D02*
X122261380Y-71342333D01*
X122642333Y-71675666D01*
X122642333Y-71532809D01*
X122689952Y-71437571D01*
X122737571Y-71389952D01*
X122832809Y-71342333D01*
X123070904Y-71342333D01*
X123166142Y-71389952D01*
X123213761Y-71437571D01*
X123261380Y-71532809D01*
X123261380Y-71818523D01*
X123213761Y-71913761D01*
X123166142Y-71961380D01*
X69252380Y-70042857D02*
X68776190Y-70376190D01*
X69252380Y-70614285D02*
X68252380Y-70614285D01*
X68252380Y-70233333D01*
X68300000Y-70138095D01*
X68347619Y-70090476D01*
X68442857Y-70042857D01*
X68585714Y-70042857D01*
X68680952Y-70090476D01*
X68728571Y-70138095D01*
X68776190Y-70233333D01*
X68776190Y-70614285D01*
X69252380Y-69090476D02*
X69252380Y-69661904D01*
X69252380Y-69376190D02*
X68252380Y-69376190D01*
X68395238Y-69471428D01*
X68490476Y-69566666D01*
X68538095Y-69661904D01*
X68252380Y-68757142D02*
X68252380Y-68138095D01*
X68633333Y-68471428D01*
X68633333Y-68328571D01*
X68680952Y-68233333D01*
X68728571Y-68185714D01*
X68823809Y-68138095D01*
X69061904Y-68138095D01*
X69157142Y-68185714D01*
X69204761Y-68233333D01*
X69252380Y-68328571D01*
X69252380Y-68614285D01*
X69204761Y-68709523D01*
X69157142Y-68757142D01*
X67115333Y-67702380D02*
X66782000Y-67226190D01*
X66543904Y-67702380D02*
X66543904Y-66702380D01*
X66924857Y-66702380D01*
X67020095Y-66750000D01*
X67067714Y-66797619D01*
X67115333Y-66892857D01*
X67115333Y-67035714D01*
X67067714Y-67130952D01*
X67020095Y-67178571D01*
X66924857Y-67226190D01*
X66543904Y-67226190D01*
X67448666Y-66702380D02*
X68067714Y-66702380D01*
X67734380Y-67083333D01*
X67877238Y-67083333D01*
X67972476Y-67130952D01*
X68020095Y-67178571D01*
X68067714Y-67273809D01*
X68067714Y-67511904D01*
X68020095Y-67607142D01*
X67972476Y-67654761D01*
X67877238Y-67702380D01*
X67591523Y-67702380D01*
X67496285Y-67654761D01*
X67448666Y-67607142D01*
X74538095Y-56652380D02*
X74538095Y-57461904D01*
X74585714Y-57557142D01*
X74633333Y-57604761D01*
X74728571Y-57652380D01*
X74919047Y-57652380D01*
X75014285Y-57604761D01*
X75061904Y-57557142D01*
X75109523Y-57461904D01*
X75109523Y-56652380D01*
X75490476Y-56652380D02*
X76109523Y-56652380D01*
X75776190Y-57033333D01*
X75919047Y-57033333D01*
X76014285Y-57080952D01*
X76061904Y-57128571D01*
X76109523Y-57223809D01*
X76109523Y-57461904D01*
X76061904Y-57557142D01*
X76014285Y-57604761D01*
X75919047Y-57652380D01*
X75633333Y-57652380D01*
X75538095Y-57604761D01*
X75490476Y-57557142D01*
X110617095Y-73329380D02*
X110617095Y-74138904D01*
X110664714Y-74234142D01*
X110712333Y-74281761D01*
X110807571Y-74329380D01*
X110998047Y-74329380D01*
X111093285Y-74281761D01*
X111140904Y-74234142D01*
X111188523Y-74138904D01*
X111188523Y-73329380D01*
X111617095Y-73424619D02*
X111664714Y-73377000D01*
X111759952Y-73329380D01*
X111998047Y-73329380D01*
X112093285Y-73377000D01*
X112140904Y-73424619D01*
X112188523Y-73519857D01*
X112188523Y-73615095D01*
X112140904Y-73757952D01*
X111569476Y-74329380D01*
X112188523Y-74329380D01*
X115952380Y-61166666D02*
X115476190Y-61500000D01*
X115952380Y-61738095D02*
X114952380Y-61738095D01*
X114952380Y-61357142D01*
X115000000Y-61261904D01*
X115047619Y-61214285D01*
X115142857Y-61166666D01*
X115285714Y-61166666D01*
X115380952Y-61214285D01*
X115428571Y-61261904D01*
X115476190Y-61357142D01*
X115476190Y-61738095D01*
X115047619Y-60785714D02*
X115000000Y-60738095D01*
X114952380Y-60642857D01*
X114952380Y-60404761D01*
X115000000Y-60309523D01*
X115047619Y-60261904D01*
X115142857Y-60214285D01*
X115238095Y-60214285D01*
X115380952Y-60261904D01*
X115952380Y-60833333D01*
X115952380Y-60214285D01*
X116165380Y-66420904D02*
X116974904Y-66420904D01*
X117070142Y-66373285D01*
X117117761Y-66325666D01*
X117165380Y-66230428D01*
X117165380Y-66039952D01*
X117117761Y-65944714D01*
X117070142Y-65897095D01*
X116974904Y-65849476D01*
X116165380Y-65849476D01*
X117165380Y-64849476D02*
X117165380Y-65420904D01*
X117165380Y-65135190D02*
X116165380Y-65135190D01*
X116308238Y-65230428D01*
X116403476Y-65325666D01*
X116451095Y-65420904D01*
X102152380Y-73542857D02*
X101676190Y-73876190D01*
X102152380Y-74114285D02*
X101152380Y-74114285D01*
X101152380Y-73733333D01*
X101200000Y-73638095D01*
X101247619Y-73590476D01*
X101342857Y-73542857D01*
X101485714Y-73542857D01*
X101580952Y-73590476D01*
X101628571Y-73638095D01*
X101676190Y-73733333D01*
X101676190Y-74114285D01*
X102152380Y-72590476D02*
X102152380Y-73161904D01*
X102152380Y-72876190D02*
X101152380Y-72876190D01*
X101295238Y-72971428D01*
X101390476Y-73066666D01*
X101438095Y-73161904D01*
X102152380Y-72114285D02*
X102152380Y-71923809D01*
X102104761Y-71828571D01*
X102057142Y-71780952D01*
X101914285Y-71685714D01*
X101723809Y-71638095D01*
X101342857Y-71638095D01*
X101247619Y-71685714D01*
X101200000Y-71733333D01*
X101152380Y-71828571D01*
X101152380Y-72019047D01*
X101200000Y-72114285D01*
X101247619Y-72161904D01*
X101342857Y-72209523D01*
X101580952Y-72209523D01*
X101676190Y-72161904D01*
X101723809Y-72114285D01*
X101771428Y-72019047D01*
X101771428Y-71828571D01*
X101723809Y-71733333D01*
X101676190Y-71685714D01*
X101580952Y-71638095D01*
X105752380Y-76066666D02*
X105276190Y-76400000D01*
X105752380Y-76638095D02*
X104752380Y-76638095D01*
X104752380Y-76257142D01*
X104800000Y-76161904D01*
X104847619Y-76114285D01*
X104942857Y-76066666D01*
X105085714Y-76066666D01*
X105180952Y-76114285D01*
X105228571Y-76161904D01*
X105276190Y-76257142D01*
X105276190Y-76638095D01*
X105085714Y-75209523D02*
X105752380Y-75209523D01*
X104704761Y-75447619D02*
X105419047Y-75685714D01*
X105419047Y-75066666D01*
X104452380Y-76066666D02*
X103976190Y-76400000D01*
X104452380Y-76638095D02*
X103452380Y-76638095D01*
X103452380Y-76257142D01*
X103500000Y-76161904D01*
X103547619Y-76114285D01*
X103642857Y-76066666D01*
X103785714Y-76066666D01*
X103880952Y-76114285D01*
X103928571Y-76161904D01*
X103976190Y-76257142D01*
X103976190Y-76638095D01*
X104452380Y-75114285D02*
X104452380Y-75685714D01*
X104452380Y-75400000D02*
X103452380Y-75400000D01*
X103595238Y-75495238D01*
X103690476Y-75590476D01*
X103738095Y-75685714D01*
X115757142Y-88852380D02*
X115423809Y-88376190D01*
X115185714Y-88852380D02*
X115185714Y-87852380D01*
X115566666Y-87852380D01*
X115661904Y-87900000D01*
X115709523Y-87947619D01*
X115757142Y-88042857D01*
X115757142Y-88185714D01*
X115709523Y-88280952D01*
X115661904Y-88328571D01*
X115566666Y-88376190D01*
X115185714Y-88376190D01*
X116709523Y-88852380D02*
X116138095Y-88852380D01*
X116423809Y-88852380D02*
X116423809Y-87852380D01*
X116328571Y-87995238D01*
X116233333Y-88090476D01*
X116138095Y-88138095D01*
X117566666Y-88185714D02*
X117566666Y-88852380D01*
X117328571Y-87804761D02*
X117090476Y-88519047D01*
X117709523Y-88519047D01*
X106497380Y-80525857D02*
X106021190Y-80859190D01*
X106497380Y-81097285D02*
X105497380Y-81097285D01*
X105497380Y-80716333D01*
X105545000Y-80621095D01*
X105592619Y-80573476D01*
X105687857Y-80525857D01*
X105830714Y-80525857D01*
X105925952Y-80573476D01*
X105973571Y-80621095D01*
X106021190Y-80716333D01*
X106021190Y-81097285D01*
X105497380Y-80192523D02*
X105497380Y-79573476D01*
X105878333Y-79906809D01*
X105878333Y-79763952D01*
X105925952Y-79668714D01*
X105973571Y-79621095D01*
X106068809Y-79573476D01*
X106306904Y-79573476D01*
X106402142Y-79621095D01*
X106449761Y-79668714D01*
X106497380Y-79763952D01*
X106497380Y-80049666D01*
X106449761Y-80144904D01*
X106402142Y-80192523D01*
X106497380Y-78621095D02*
X106497380Y-79192523D01*
X106497380Y-78906809D02*
X105497380Y-78906809D01*
X105640238Y-79002047D01*
X105735476Y-79097285D01*
X105783095Y-79192523D01*
X102481142Y-71318380D02*
X102147809Y-70842190D01*
X101909714Y-71318380D02*
X101909714Y-70318380D01*
X102290666Y-70318380D01*
X102385904Y-70366000D01*
X102433523Y-70413619D01*
X102481142Y-70508857D01*
X102481142Y-70651714D01*
X102433523Y-70746952D01*
X102385904Y-70794571D01*
X102290666Y-70842190D01*
X101909714Y-70842190D01*
X102862095Y-70413619D02*
X102909714Y-70366000D01*
X103004952Y-70318380D01*
X103243047Y-70318380D01*
X103338285Y-70366000D01*
X103385904Y-70413619D01*
X103433523Y-70508857D01*
X103433523Y-70604095D01*
X103385904Y-70746952D01*
X102814476Y-71318380D01*
X103433523Y-71318380D01*
X104290666Y-70318380D02*
X104100190Y-70318380D01*
X104004952Y-70366000D01*
X103957333Y-70413619D01*
X103862095Y-70556476D01*
X103814476Y-70746952D01*
X103814476Y-71127904D01*
X103862095Y-71223142D01*
X103909714Y-71270761D01*
X104004952Y-71318380D01*
X104195428Y-71318380D01*
X104290666Y-71270761D01*
X104338285Y-71223142D01*
X104385904Y-71127904D01*
X104385904Y-70889809D01*
X104338285Y-70794571D01*
X104290666Y-70746952D01*
X104195428Y-70699333D01*
X104004952Y-70699333D01*
X103909714Y-70746952D01*
X103862095Y-70794571D01*
X103814476Y-70889809D01*
X81057142Y-60352666D02*
X81104761Y-60400285D01*
X81152380Y-60543142D01*
X81152380Y-60638380D01*
X81104761Y-60781238D01*
X81009523Y-60876476D01*
X80914285Y-60924095D01*
X80723809Y-60971714D01*
X80580952Y-60971714D01*
X80390476Y-60924095D01*
X80295238Y-60876476D01*
X80200000Y-60781238D01*
X80152380Y-60638380D01*
X80152380Y-60543142D01*
X80200000Y-60400285D01*
X80247619Y-60352666D01*
X81152380Y-59876476D02*
X81152380Y-59686000D01*
X81104761Y-59590761D01*
X81057142Y-59543142D01*
X80914285Y-59447904D01*
X80723809Y-59400285D01*
X80342857Y-59400285D01*
X80247619Y-59447904D01*
X80200000Y-59495523D01*
X80152380Y-59590761D01*
X80152380Y-59781238D01*
X80200000Y-59876476D01*
X80247619Y-59924095D01*
X80342857Y-59971714D01*
X80580952Y-59971714D01*
X80676190Y-59924095D01*
X80723809Y-59876476D01*
X80771428Y-59781238D01*
X80771428Y-59590761D01*
X80723809Y-59495523D01*
X80676190Y-59447904D01*
X80580952Y-59400285D01*
X115276380Y-72215333D02*
X115990666Y-72215333D01*
X116133523Y-72262952D01*
X116228761Y-72358190D01*
X116276380Y-72501047D01*
X116276380Y-72596285D01*
X116276380Y-71215333D02*
X116276380Y-71786761D01*
X116276380Y-71501047D02*
X115276380Y-71501047D01*
X115419238Y-71596285D01*
X115514476Y-71691523D01*
X115562095Y-71786761D01*
X103966666Y-63961904D02*
X103700000Y-63580952D01*
X103509523Y-63961904D02*
X103509523Y-63161904D01*
X103814285Y-63161904D01*
X103890476Y-63200000D01*
X103928571Y-63238095D01*
X103966666Y-63314285D01*
X103966666Y-63428571D01*
X103928571Y-63504761D01*
X103890476Y-63542857D01*
X103814285Y-63580952D01*
X103509523Y-63580952D01*
X104423809Y-63504761D02*
X104347619Y-63466666D01*
X104309523Y-63428571D01*
X104271428Y-63352380D01*
X104271428Y-63314285D01*
X104309523Y-63238095D01*
X104347619Y-63200000D01*
X104423809Y-63161904D01*
X104576190Y-63161904D01*
X104652380Y-63200000D01*
X104690476Y-63238095D01*
X104728571Y-63314285D01*
X104728571Y-63352380D01*
X104690476Y-63428571D01*
X104652380Y-63466666D01*
X104576190Y-63504761D01*
X104423809Y-63504761D01*
X104347619Y-63542857D01*
X104309523Y-63580952D01*
X104271428Y-63657142D01*
X104271428Y-63809523D01*
X104309523Y-63885714D01*
X104347619Y-63923809D01*
X104423809Y-63961904D01*
X104576190Y-63961904D01*
X104652380Y-63923809D01*
X104690476Y-63885714D01*
X104728571Y-63809523D01*
X104728571Y-63657142D01*
X104690476Y-63580952D01*
X104652380Y-63542857D01*
X104576190Y-63504761D01*
X104066666Y-60161904D02*
X103800000Y-59780952D01*
X103609523Y-60161904D02*
X103609523Y-59361904D01*
X103914285Y-59361904D01*
X103990476Y-59400000D01*
X104028571Y-59438095D01*
X104066666Y-59514285D01*
X104066666Y-59628571D01*
X104028571Y-59704761D01*
X103990476Y-59742857D01*
X103914285Y-59780952D01*
X103609523Y-59780952D01*
X104447619Y-60161904D02*
X104600000Y-60161904D01*
X104676190Y-60123809D01*
X104714285Y-60085714D01*
X104790476Y-59971428D01*
X104828571Y-59819047D01*
X104828571Y-59514285D01*
X104790476Y-59438095D01*
X104752380Y-59400000D01*
X104676190Y-59361904D01*
X104523809Y-59361904D01*
X104447619Y-59400000D01*
X104409523Y-59438095D01*
X104371428Y-59514285D01*
X104371428Y-59704761D01*
X104409523Y-59780952D01*
X104447619Y-59819047D01*
X104523809Y-59857142D01*
X104676190Y-59857142D01*
X104752380Y-59819047D01*
X104790476Y-59780952D01*
X104828571Y-59704761D01*
X102012714Y-57945904D02*
X101746047Y-57564952D01*
X101555571Y-57945904D02*
X101555571Y-57145904D01*
X101860333Y-57145904D01*
X101936523Y-57184000D01*
X101974619Y-57222095D01*
X102012714Y-57298285D01*
X102012714Y-57412571D01*
X101974619Y-57488761D01*
X101936523Y-57526857D01*
X101860333Y-57564952D01*
X101555571Y-57564952D01*
X102774619Y-57945904D02*
X102317476Y-57945904D01*
X102546047Y-57945904D02*
X102546047Y-57145904D01*
X102469857Y-57260190D01*
X102393666Y-57336380D01*
X102317476Y-57374476D01*
X103269857Y-57145904D02*
X103346047Y-57145904D01*
X103422238Y-57184000D01*
X103460333Y-57222095D01*
X103498428Y-57298285D01*
X103536523Y-57450666D01*
X103536523Y-57641142D01*
X103498428Y-57793523D01*
X103460333Y-57869714D01*
X103422238Y-57907809D01*
X103346047Y-57945904D01*
X103269857Y-57945904D01*
X103193666Y-57907809D01*
X103155571Y-57869714D01*
X103117476Y-57793523D01*
X103079380Y-57641142D01*
X103079380Y-57450666D01*
X103117476Y-57298285D01*
X103155571Y-57222095D01*
X103193666Y-57184000D01*
X103269857Y-57145904D01*
X104157142Y-61652380D02*
X103823809Y-61176190D01*
X103585714Y-61652380D02*
X103585714Y-60652380D01*
X103966666Y-60652380D01*
X104061904Y-60700000D01*
X104109523Y-60747619D01*
X104157142Y-60842857D01*
X104157142Y-60985714D01*
X104109523Y-61080952D01*
X104061904Y-61128571D01*
X103966666Y-61176190D01*
X103585714Y-61176190D01*
X104538095Y-60747619D02*
X104585714Y-60700000D01*
X104680952Y-60652380D01*
X104919047Y-60652380D01*
X105014285Y-60700000D01*
X105061904Y-60747619D01*
X105109523Y-60842857D01*
X105109523Y-60938095D01*
X105061904Y-61080952D01*
X104490476Y-61652380D01*
X105109523Y-61652380D01*
X106014285Y-60652380D02*
X105538095Y-60652380D01*
X105490476Y-61128571D01*
X105538095Y-61080952D01*
X105633333Y-61033333D01*
X105871428Y-61033333D01*
X105966666Y-61080952D01*
X106014285Y-61128571D01*
X106061904Y-61223809D01*
X106061904Y-61461904D01*
X106014285Y-61557142D01*
X105966666Y-61604761D01*
X105871428Y-61652380D01*
X105633333Y-61652380D01*
X105538095Y-61604761D01*
X105490476Y-61557142D01*
X69107142Y-66952380D02*
X68773809Y-66476190D01*
X68535714Y-66952380D02*
X68535714Y-65952380D01*
X68916666Y-65952380D01*
X69011904Y-66000000D01*
X69059523Y-66047619D01*
X69107142Y-66142857D01*
X69107142Y-66285714D01*
X69059523Y-66380952D01*
X69011904Y-66428571D01*
X68916666Y-66476190D01*
X68535714Y-66476190D01*
X69488095Y-66047619D02*
X69535714Y-66000000D01*
X69630952Y-65952380D01*
X69869047Y-65952380D01*
X69964285Y-66000000D01*
X70011904Y-66047619D01*
X70059523Y-66142857D01*
X70059523Y-66238095D01*
X70011904Y-66380952D01*
X69440476Y-66952380D01*
X70059523Y-66952380D01*
X70440476Y-66047619D02*
X70488095Y-66000000D01*
X70583333Y-65952380D01*
X70821428Y-65952380D01*
X70916666Y-66000000D01*
X70964285Y-66047619D01*
X71011904Y-66142857D01*
X71011904Y-66238095D01*
X70964285Y-66380952D01*
X70392857Y-66952380D01*
X71011904Y-66952380D01*
X118181380Y-75096666D02*
X117705190Y-75430000D01*
X118181380Y-75668095D02*
X117181380Y-75668095D01*
X117181380Y-75287142D01*
X117229000Y-75191904D01*
X117276619Y-75144285D01*
X117371857Y-75096666D01*
X117514714Y-75096666D01*
X117609952Y-75144285D01*
X117657571Y-75191904D01*
X117705190Y-75287142D01*
X117705190Y-75668095D01*
X117181380Y-74239523D02*
X117181380Y-74430000D01*
X117229000Y-74525238D01*
X117276619Y-74572857D01*
X117419476Y-74668095D01*
X117609952Y-74715714D01*
X117990904Y-74715714D01*
X118086142Y-74668095D01*
X118133761Y-74620476D01*
X118181380Y-74525238D01*
X118181380Y-74334761D01*
X118133761Y-74239523D01*
X118086142Y-74191904D01*
X117990904Y-74144285D01*
X117752809Y-74144285D01*
X117657571Y-74191904D01*
X117609952Y-74239523D01*
X117562333Y-74334761D01*
X117562333Y-74525238D01*
X117609952Y-74620476D01*
X117657571Y-74668095D01*
X117752809Y-74715714D01*
X115657142Y-75642857D02*
X115704761Y-75690476D01*
X115752380Y-75833333D01*
X115752380Y-75928571D01*
X115704761Y-76071428D01*
X115609523Y-76166666D01*
X115514285Y-76214285D01*
X115323809Y-76261904D01*
X115180952Y-76261904D01*
X114990476Y-76214285D01*
X114895238Y-76166666D01*
X114800000Y-76071428D01*
X114752380Y-75928571D01*
X114752380Y-75833333D01*
X114800000Y-75690476D01*
X114847619Y-75642857D01*
X114847619Y-75261904D02*
X114800000Y-75214285D01*
X114752380Y-75119047D01*
X114752380Y-74880952D01*
X114800000Y-74785714D01*
X114847619Y-74738095D01*
X114942857Y-74690476D01*
X115038095Y-74690476D01*
X115180952Y-74738095D01*
X115752380Y-75309523D01*
X115752380Y-74690476D01*
X114752380Y-74071428D02*
X114752380Y-73976190D01*
X114800000Y-73880952D01*
X114847619Y-73833333D01*
X114942857Y-73785714D01*
X115133333Y-73738095D01*
X115371428Y-73738095D01*
X115561904Y-73785714D01*
X115657142Y-73833333D01*
X115704761Y-73880952D01*
X115752380Y-73976190D01*
X115752380Y-74071428D01*
X115704761Y-74166666D01*
X115657142Y-74214285D01*
X115561904Y-74261904D01*
X115371428Y-74309523D01*
X115133333Y-74309523D01*
X114942857Y-74261904D01*
X114847619Y-74214285D01*
X114800000Y-74166666D01*
X114752380Y-74071428D01*
X108985714Y-83614285D02*
X109023809Y-83652380D01*
X109061904Y-83766666D01*
X109061904Y-83842857D01*
X109023809Y-83957142D01*
X108947619Y-84033333D01*
X108871428Y-84071428D01*
X108719047Y-84109523D01*
X108604761Y-84109523D01*
X108452380Y-84071428D01*
X108376190Y-84033333D01*
X108300000Y-83957142D01*
X108261904Y-83842857D01*
X108261904Y-83766666D01*
X108300000Y-83652380D01*
X108338095Y-83614285D01*
X109061904Y-82852380D02*
X109061904Y-83309523D01*
X109061904Y-83080952D02*
X108261904Y-83080952D01*
X108376190Y-83157142D01*
X108452380Y-83233333D01*
X108490476Y-83309523D01*
X109061904Y-82090476D02*
X109061904Y-82547619D01*
X109061904Y-82319047D02*
X108261904Y-82319047D01*
X108376190Y-82395238D01*
X108452380Y-82471428D01*
X108490476Y-82547619D01*
X119737142Y-78366857D02*
X119784761Y-78414476D01*
X119832380Y-78557333D01*
X119832380Y-78652571D01*
X119784761Y-78795428D01*
X119689523Y-78890666D01*
X119594285Y-78938285D01*
X119403809Y-78985904D01*
X119260952Y-78985904D01*
X119070476Y-78938285D01*
X118975238Y-78890666D01*
X118880000Y-78795428D01*
X118832380Y-78652571D01*
X118832380Y-78557333D01*
X118880000Y-78414476D01*
X118927619Y-78366857D01*
X119832380Y-77414476D02*
X119832380Y-77985904D01*
X119832380Y-77700190D02*
X118832380Y-77700190D01*
X118975238Y-77795428D01*
X119070476Y-77890666D01*
X119118095Y-77985904D01*
X119165714Y-76557333D02*
X119832380Y-76557333D01*
X118784761Y-76795428D02*
X119499047Y-77033523D01*
X119499047Y-76414476D01*
X110685714Y-86485714D02*
X110647619Y-86523809D01*
X110533333Y-86561904D01*
X110457142Y-86561904D01*
X110342857Y-86523809D01*
X110266666Y-86447619D01*
X110228571Y-86371428D01*
X110190476Y-86219047D01*
X110190476Y-86104761D01*
X110228571Y-85952380D01*
X110266666Y-85876190D01*
X110342857Y-85800000D01*
X110457142Y-85761904D01*
X110533333Y-85761904D01*
X110647619Y-85800000D01*
X110685714Y-85838095D01*
X111447619Y-86561904D02*
X110990476Y-86561904D01*
X111219047Y-86561904D02*
X111219047Y-85761904D01*
X111142857Y-85876190D01*
X111066666Y-85952380D01*
X110990476Y-85990476D01*
X111752380Y-85838095D02*
X111790476Y-85800000D01*
X111866666Y-85761904D01*
X112057142Y-85761904D01*
X112133333Y-85800000D01*
X112171428Y-85838095D01*
X112209523Y-85914285D01*
X112209523Y-85990476D01*
X112171428Y-86104761D01*
X111714285Y-86561904D01*
X112209523Y-86561904D01*
X106894380Y-81914904D02*
X107703904Y-81914904D01*
X107799142Y-81867285D01*
X107846761Y-81819666D01*
X107894380Y-81724428D01*
X107894380Y-81533952D01*
X107846761Y-81438714D01*
X107799142Y-81391095D01*
X107703904Y-81343476D01*
X106894380Y-81343476D01*
X106894380Y-80962523D02*
X106894380Y-80295857D01*
X107894380Y-80724428D01*
X117165380Y-84558095D02*
X116165380Y-84558095D01*
X116165380Y-84320000D01*
X116213000Y-84177142D01*
X116308238Y-84081904D01*
X116403476Y-84034285D01*
X116593952Y-83986666D01*
X116736809Y-83986666D01*
X116927285Y-84034285D01*
X117022523Y-84081904D01*
X117117761Y-84177142D01*
X117165380Y-84320000D01*
X117165380Y-84558095D01*
X116260619Y-83605714D02*
X116213000Y-83558095D01*
X116165380Y-83462857D01*
X116165380Y-83224761D01*
X116213000Y-83129523D01*
X116260619Y-83081904D01*
X116355857Y-83034285D01*
X116451095Y-83034285D01*
X116593952Y-83081904D01*
X117165380Y-83653333D01*
X117165380Y-83034285D01*
X115768380Y-84177095D02*
X114768380Y-84177095D01*
X114768380Y-83939000D01*
X114816000Y-83796142D01*
X114911238Y-83700904D01*
X115006476Y-83653285D01*
X115196952Y-83605666D01*
X115339809Y-83605666D01*
X115530285Y-83653285D01*
X115625523Y-83700904D01*
X115720761Y-83796142D01*
X115768380Y-83939000D01*
X115768380Y-84177095D01*
X115768380Y-82653285D02*
X115768380Y-83224714D01*
X115768380Y-82939000D02*
X114768380Y-82939000D01*
X114911238Y-83034238D01*
X115006476Y-83129476D01*
X115054095Y-83224714D01*
X57912666Y-64150761D02*
X58055523Y-64198380D01*
X58293619Y-64198380D01*
X58388857Y-64150761D01*
X58436476Y-64103142D01*
X58484095Y-64007904D01*
X58484095Y-63912666D01*
X58436476Y-63817428D01*
X58388857Y-63769809D01*
X58293619Y-63722190D01*
X58103142Y-63674571D01*
X58007904Y-63626952D01*
X57960285Y-63579333D01*
X57912666Y-63484095D01*
X57912666Y-63388857D01*
X57960285Y-63293619D01*
X58007904Y-63246000D01*
X58103142Y-63198380D01*
X58341238Y-63198380D01*
X58484095Y-63246000D01*
X58817428Y-63198380D02*
X59055523Y-64198380D01*
X59246000Y-63484095D01*
X59436476Y-64198380D01*
X59674571Y-63198380D01*
X60579333Y-64198380D02*
X60007904Y-64198380D01*
X60293619Y-64198380D02*
X60293619Y-63198380D01*
X60198380Y-63341238D01*
X60103142Y-63436476D01*
X60007904Y-63484095D01*
X66717142Y-56452380D02*
X66383809Y-55976190D01*
X66145714Y-56452380D02*
X66145714Y-55452380D01*
X66526666Y-55452380D01*
X66621904Y-55500000D01*
X66669523Y-55547619D01*
X66717142Y-55642857D01*
X66717142Y-55785714D01*
X66669523Y-55880952D01*
X66621904Y-55928571D01*
X66526666Y-55976190D01*
X66145714Y-55976190D01*
X67669523Y-56452380D02*
X67098095Y-56452380D01*
X67383809Y-56452380D02*
X67383809Y-55452380D01*
X67288571Y-55595238D01*
X67193333Y-55690476D01*
X67098095Y-55738095D01*
X68002857Y-55452380D02*
X68669523Y-55452380D01*
X68240952Y-56452380D01*
X74157142Y-56452380D02*
X73823809Y-55976190D01*
X73585714Y-56452380D02*
X73585714Y-55452380D01*
X73966666Y-55452380D01*
X74061904Y-55500000D01*
X74109523Y-55547619D01*
X74157142Y-55642857D01*
X74157142Y-55785714D01*
X74109523Y-55880952D01*
X74061904Y-55928571D01*
X73966666Y-55976190D01*
X73585714Y-55976190D01*
X75109523Y-56452380D02*
X74538095Y-56452380D01*
X74823809Y-56452380D02*
X74823809Y-55452380D01*
X74728571Y-55595238D01*
X74633333Y-55690476D01*
X74538095Y-55738095D01*
X75966666Y-55452380D02*
X75776190Y-55452380D01*
X75680952Y-55500000D01*
X75633333Y-55547619D01*
X75538095Y-55690476D01*
X75490476Y-55880952D01*
X75490476Y-56261904D01*
X75538095Y-56357142D01*
X75585714Y-56404761D01*
X75680952Y-56452380D01*
X75871428Y-56452380D01*
X75966666Y-56404761D01*
X76014285Y-56357142D01*
X76061904Y-56261904D01*
X76061904Y-56023809D01*
X76014285Y-55928571D01*
X75966666Y-55880952D01*
X75871428Y-55833333D01*
X75680952Y-55833333D01*
X75585714Y-55880952D01*
X75538095Y-55928571D01*
X75490476Y-56023809D01*
X74747619Y-53795238D02*
X74700000Y-53890476D01*
X74604761Y-53985714D01*
X74461904Y-54128571D01*
X74414285Y-54223809D01*
X74414285Y-54319047D01*
X74652380Y-54271428D02*
X74604761Y-54366666D01*
X74509523Y-54461904D01*
X74319047Y-54509523D01*
X73985714Y-54509523D01*
X73795238Y-54461904D01*
X73700000Y-54366666D01*
X73652380Y-54271428D01*
X73652380Y-54080952D01*
X73700000Y-53985714D01*
X73795238Y-53890476D01*
X73985714Y-53842857D01*
X74319047Y-53842857D01*
X74509523Y-53890476D01*
X74604761Y-53985714D01*
X74652380Y-54080952D01*
X74652380Y-54271428D01*
X73985714Y-52985714D02*
X74652380Y-52985714D01*
X73604761Y-53223809D02*
X74319047Y-53461904D01*
X74319047Y-52842857D01*
X66147619Y-53795238D02*
X66100000Y-53890476D01*
X66004761Y-53985714D01*
X65861904Y-54128571D01*
X65814285Y-54223809D01*
X65814285Y-54319047D01*
X66052380Y-54271428D02*
X66004761Y-54366666D01*
X65909523Y-54461904D01*
X65719047Y-54509523D01*
X65385714Y-54509523D01*
X65195238Y-54461904D01*
X65100000Y-54366666D01*
X65052380Y-54271428D01*
X65052380Y-54080952D01*
X65100000Y-53985714D01*
X65195238Y-53890476D01*
X65385714Y-53842857D01*
X65719047Y-53842857D01*
X65909523Y-53890476D01*
X66004761Y-53985714D01*
X66052380Y-54080952D01*
X66052380Y-54271428D01*
X66052380Y-52890476D02*
X66052380Y-53461904D01*
X66052380Y-53176190D02*
X65052380Y-53176190D01*
X65195238Y-53271428D01*
X65290476Y-53366666D01*
X65338095Y-53461904D01*
X77957142Y-61666666D02*
X78004761Y-61714285D01*
X78052380Y-61857142D01*
X78052380Y-61952380D01*
X78004761Y-62095238D01*
X77909523Y-62190476D01*
X77814285Y-62238095D01*
X77623809Y-62285714D01*
X77480952Y-62285714D01*
X77290476Y-62238095D01*
X77195238Y-62190476D01*
X77100000Y-62095238D01*
X77052380Y-61952380D01*
X77052380Y-61857142D01*
X77100000Y-61714285D01*
X77147619Y-61666666D01*
X77052380Y-60809523D02*
X77052380Y-61000000D01*
X77100000Y-61095238D01*
X77147619Y-61142857D01*
X77290476Y-61238095D01*
X77480952Y-61285714D01*
X77861904Y-61285714D01*
X77957142Y-61238095D01*
X78004761Y-61190476D01*
X78052380Y-61095238D01*
X78052380Y-60904761D01*
X78004761Y-60809523D01*
X77957142Y-60761904D01*
X77861904Y-60714285D01*
X77623809Y-60714285D01*
X77528571Y-60761904D01*
X77480952Y-60809523D01*
X77433333Y-60904761D01*
X77433333Y-61095238D01*
X77480952Y-61190476D01*
X77528571Y-61238095D01*
X77623809Y-61285714D01*
X64833333Y-63357142D02*
X64785714Y-63404761D01*
X64642857Y-63452380D01*
X64547619Y-63452380D01*
X64404761Y-63404761D01*
X64309523Y-63309523D01*
X64261904Y-63214285D01*
X64214285Y-63023809D01*
X64214285Y-62880952D01*
X64261904Y-62690476D01*
X64309523Y-62595238D01*
X64404761Y-62500000D01*
X64547619Y-62452380D01*
X64642857Y-62452380D01*
X64785714Y-62500000D01*
X64833333Y-62547619D01*
X65690476Y-62785714D02*
X65690476Y-63452380D01*
X65452380Y-62404761D02*
X65214285Y-63119047D01*
X65833333Y-63119047D01*
X65261904Y-82914285D02*
X64880952Y-83180952D01*
X65261904Y-83371428D02*
X64461904Y-83371428D01*
X64461904Y-83066666D01*
X64500000Y-82990476D01*
X64538095Y-82952380D01*
X64614285Y-82914285D01*
X64728571Y-82914285D01*
X64804761Y-82952380D01*
X64842857Y-82990476D01*
X64880952Y-83066666D01*
X64880952Y-83371428D01*
X65261904Y-82152380D02*
X65261904Y-82609523D01*
X65261904Y-82380952D02*
X64461904Y-82380952D01*
X64576190Y-82457142D01*
X64652380Y-82533333D01*
X64690476Y-82609523D01*
X64538095Y-81847619D02*
X64500000Y-81809523D01*
X64461904Y-81733333D01*
X64461904Y-81542857D01*
X64500000Y-81466666D01*
X64538095Y-81428571D01*
X64614285Y-81390476D01*
X64690476Y-81390476D01*
X64804761Y-81428571D01*
X65261904Y-81885714D01*
X65261904Y-81390476D01*
X64061904Y-82914285D02*
X63680952Y-83180952D01*
X64061904Y-83371428D02*
X63261904Y-83371428D01*
X63261904Y-83066666D01*
X63300000Y-82990476D01*
X63338095Y-82952380D01*
X63414285Y-82914285D01*
X63528571Y-82914285D01*
X63604761Y-82952380D01*
X63642857Y-82990476D01*
X63680952Y-83066666D01*
X63680952Y-83371428D01*
X64061904Y-82152380D02*
X64061904Y-82609523D01*
X64061904Y-82380952D02*
X63261904Y-82380952D01*
X63376190Y-82457142D01*
X63452380Y-82533333D01*
X63490476Y-82609523D01*
X64061904Y-81390476D02*
X64061904Y-81847619D01*
X64061904Y-81619047D02*
X63261904Y-81619047D01*
X63376190Y-81695238D01*
X63452380Y-81771428D01*
X63490476Y-81847619D01*
X102761904Y-87552380D02*
X102761904Y-86552380D01*
X103000000Y-86552380D01*
X103142857Y-86600000D01*
X103238095Y-86695238D01*
X103285714Y-86790476D01*
X103333333Y-86980952D01*
X103333333Y-87123809D01*
X103285714Y-87314285D01*
X103238095Y-87409523D01*
X103142857Y-87504761D01*
X103000000Y-87552380D01*
X102761904Y-87552380D01*
X103809523Y-87552380D02*
X104000000Y-87552380D01*
X104095238Y-87504761D01*
X104142857Y-87457142D01*
X104238095Y-87314285D01*
X104285714Y-87123809D01*
X104285714Y-86742857D01*
X104238095Y-86647619D01*
X104190476Y-86600000D01*
X104095238Y-86552380D01*
X103904761Y-86552380D01*
X103809523Y-86600000D01*
X103761904Y-86647619D01*
X103714285Y-86742857D01*
X103714285Y-86980952D01*
X103761904Y-87076190D01*
X103809523Y-87123809D01*
X103904761Y-87171428D01*
X104095238Y-87171428D01*
X104190476Y-87123809D01*
X104238095Y-87076190D01*
X104285714Y-86980952D01*
X113061904Y-88752380D02*
X113061904Y-87752380D01*
X113300000Y-87752380D01*
X113442857Y-87800000D01*
X113538095Y-87895238D01*
X113585714Y-87990476D01*
X113633333Y-88180952D01*
X113633333Y-88323809D01*
X113585714Y-88514285D01*
X113538095Y-88609523D01*
X113442857Y-88704761D01*
X113300000Y-88752380D01*
X113061904Y-88752380D01*
X114204761Y-88180952D02*
X114109523Y-88133333D01*
X114061904Y-88085714D01*
X114014285Y-87990476D01*
X114014285Y-87942857D01*
X114061904Y-87847619D01*
X114109523Y-87800000D01*
X114204761Y-87752380D01*
X114395238Y-87752380D01*
X114490476Y-87800000D01*
X114538095Y-87847619D01*
X114585714Y-87942857D01*
X114585714Y-87990476D01*
X114538095Y-88085714D01*
X114490476Y-88133333D01*
X114395238Y-88180952D01*
X114204761Y-88180952D01*
X114109523Y-88228571D01*
X114061904Y-88276190D01*
X114014285Y-88371428D01*
X114014285Y-88561904D01*
X114061904Y-88657142D01*
X114109523Y-88704761D01*
X114204761Y-88752380D01*
X114395238Y-88752380D01*
X114490476Y-88704761D01*
X114538095Y-88657142D01*
X114585714Y-88561904D01*
X114585714Y-88371428D01*
X114538095Y-88276190D01*
X114490476Y-88228571D01*
X114395238Y-88180952D01*
X118197333Y-65381142D02*
X118149714Y-65428761D01*
X118006857Y-65476380D01*
X117911619Y-65476380D01*
X117768761Y-65428761D01*
X117673523Y-65333523D01*
X117625904Y-65238285D01*
X117578285Y-65047809D01*
X117578285Y-64904952D01*
X117625904Y-64714476D01*
X117673523Y-64619238D01*
X117768761Y-64524000D01*
X117911619Y-64476380D01*
X118006857Y-64476380D01*
X118149714Y-64524000D01*
X118197333Y-64571619D01*
X119149714Y-65476380D02*
X118578285Y-65476380D01*
X118864000Y-65476380D02*
X118864000Y-64476380D01*
X118768761Y-64619238D01*
X118673523Y-64714476D01*
X118578285Y-64762095D01*
X72966666Y-92152380D02*
X72966666Y-92866666D01*
X72919047Y-93009523D01*
X72823809Y-93104761D01*
X72680952Y-93152380D01*
X72585714Y-93152380D01*
X73347619Y-92152380D02*
X74014285Y-92152380D01*
X73585714Y-93152380D01*
X61252380Y-88933333D02*
X61966666Y-88933333D01*
X62109523Y-88980952D01*
X62204761Y-89076190D01*
X62252380Y-89219047D01*
X62252380Y-89314285D01*
X61680952Y-88314285D02*
X61633333Y-88409523D01*
X61585714Y-88457142D01*
X61490476Y-88504761D01*
X61442857Y-88504761D01*
X61347619Y-88457142D01*
X61300000Y-88409523D01*
X61252380Y-88314285D01*
X61252380Y-88123809D01*
X61300000Y-88028571D01*
X61347619Y-87980952D01*
X61442857Y-87933333D01*
X61490476Y-87933333D01*
X61585714Y-87980952D01*
X61633333Y-88028571D01*
X61680952Y-88123809D01*
X61680952Y-88314285D01*
X61728571Y-88409523D01*
X61776190Y-88457142D01*
X61871428Y-88504761D01*
X62061904Y-88504761D01*
X62157142Y-88457142D01*
X62204761Y-88409523D01*
X62252380Y-88314285D01*
X62252380Y-88123809D01*
X62204761Y-88028571D01*
X62157142Y-87980952D01*
X62061904Y-87933333D01*
X61871428Y-87933333D01*
X61776190Y-87980952D01*
X61728571Y-88028571D01*
X61680952Y-88123809D01*
M02*
