G04 #@! TF.GenerationSoftware,KiCad,Pcbnew,(5.1.9)-1*
G04 #@! TF.CreationDate,2021-06-19T22:35:00+01:00*
G04 #@! TF.ProjectId,garden,67617264-656e-42e6-9b69-6361645f7063,rev?*
G04 #@! TF.SameCoordinates,Original*
G04 #@! TF.FileFunction,Copper,L4,Bot*
G04 #@! TF.FilePolarity,Positive*
%FSLAX46Y46*%
G04 Gerber Fmt 4.6, Leading zero omitted, Abs format (unit mm)*
G04 Created by KiCad (PCBNEW (5.1.9)-1) date 2021-06-19 22:35:00*
%MOMM*%
%LPD*%
G01*
G04 APERTURE LIST*
G04 #@! TA.AperFunction,ComponentPad*
%ADD10O,1.700000X1.700000*%
G04 #@! TD*
G04 #@! TA.AperFunction,ComponentPad*
%ADD11R,1.700000X1.700000*%
G04 #@! TD*
G04 #@! TA.AperFunction,ComponentPad*
%ADD12C,1.600000*%
G04 #@! TD*
G04 #@! TA.AperFunction,ComponentPad*
%ADD13R,1.600000X1.600000*%
G04 #@! TD*
G04 #@! TA.AperFunction,ComponentPad*
%ADD14O,2.100000X1.000000*%
G04 #@! TD*
G04 #@! TA.AperFunction,ComponentPad*
%ADD15O,1.600000X1.000000*%
G04 #@! TD*
G04 #@! TA.AperFunction,ComponentPad*
%ADD16C,2.600000*%
G04 #@! TD*
G04 #@! TA.AperFunction,ComponentPad*
%ADD17R,2.600000X2.600000*%
G04 #@! TD*
G04 #@! TA.AperFunction,ComponentPad*
%ADD18C,2.200000*%
G04 #@! TD*
G04 #@! TA.AperFunction,ComponentPad*
%ADD19R,2.200000X2.200000*%
G04 #@! TD*
G04 #@! TA.AperFunction,ViaPad*
%ADD20C,0.600000*%
G04 #@! TD*
G04 #@! TA.AperFunction,ViaPad*
%ADD21C,1.016000*%
G04 #@! TD*
G04 #@! TA.AperFunction,ViaPad*
%ADD22C,2.032000*%
G04 #@! TD*
G04 #@! TA.AperFunction,Conductor*
%ADD23C,0.177800*%
G04 #@! TD*
G04 #@! TA.AperFunction,Conductor*
%ADD24C,0.203200*%
G04 #@! TD*
G04 #@! TA.AperFunction,Conductor*
%ADD25C,0.635000*%
G04 #@! TD*
G04 #@! TA.AperFunction,Conductor*
%ADD26C,0.254000*%
G04 #@! TD*
G04 #@! TA.AperFunction,Conductor*
%ADD27C,0.100000*%
G04 #@! TD*
G04 APERTURE END LIST*
D10*
X131280000Y-51600000D03*
X128740000Y-51600000D03*
X126200000Y-51600000D03*
X123660000Y-51600000D03*
X121120000Y-51600000D03*
X118580000Y-51600000D03*
X116040000Y-51600000D03*
D11*
X113500000Y-51600000D03*
D12*
X67000000Y-85900000D03*
D13*
X70500000Y-85900000D03*
D14*
X60630000Y-77218000D03*
X60630000Y-68578000D03*
D15*
X56450000Y-68578000D03*
X56450000Y-77218000D03*
D16*
X83080000Y-94600000D03*
D17*
X78000000Y-94600000D03*
D16*
X94680000Y-94600000D03*
D17*
X89600000Y-94600000D03*
D16*
X127000000Y-58039000D03*
D17*
X127000000Y-63119000D03*
D16*
X127000000Y-81026000D03*
D17*
X127000000Y-86106000D03*
D16*
X106275000Y-94615000D03*
D17*
X101195000Y-94615000D03*
D16*
X117832000Y-94615000D03*
D17*
X112752000Y-94615000D03*
D16*
X127000000Y-69469000D03*
D17*
X127000000Y-74549000D03*
D18*
X72715000Y-94626000D03*
X70175000Y-94626000D03*
X67635000Y-94626000D03*
D19*
X65095000Y-94626000D03*
D18*
X59500000Y-88120000D03*
X59500000Y-85580000D03*
X59500000Y-83040000D03*
D19*
X59500000Y-80500000D03*
D20*
X118745000Y-65913000D03*
D21*
X112903000Y-70739000D03*
D20*
X116459000Y-73533000D03*
D21*
X120523000Y-82804000D03*
X113157000Y-85344000D03*
X112014000Y-76835000D03*
X118237000Y-88011000D03*
D22*
X123063000Y-72517000D03*
X123063000Y-75565000D03*
D20*
X106172000Y-78359000D03*
D21*
X66700000Y-65900000D03*
X64200000Y-61800000D03*
X101400000Y-78900000D03*
D20*
X82490302Y-77309698D03*
X99400000Y-78800000D03*
X78000000Y-82000000D03*
X79000000Y-82000000D03*
X80000000Y-82000000D03*
X81000000Y-82000000D03*
X81000000Y-83000000D03*
X81000000Y-84000000D03*
X81000000Y-85000000D03*
X82000000Y-85000000D03*
X83000000Y-85000000D03*
X83000000Y-86000000D03*
X83000000Y-87000000D03*
X83000000Y-88000000D03*
X84000000Y-88000000D03*
X85000000Y-88000000D03*
X86000000Y-88000000D03*
X87000000Y-88000000D03*
X87000000Y-87000000D03*
X87000000Y-86000000D03*
X87000000Y-85000000D03*
X88000000Y-85000000D03*
X88000000Y-84000000D03*
X88000000Y-83000000D03*
X88000000Y-82000000D03*
X89000000Y-82000000D03*
X90000000Y-82000000D03*
X91000000Y-82000000D03*
X92000000Y-82000000D03*
X93000000Y-82000000D03*
X93000000Y-83000000D03*
X93000000Y-84000000D03*
X93000000Y-85000000D03*
X94000000Y-85000000D03*
X94000000Y-86000000D03*
X94000000Y-87000000D03*
X95000000Y-87000000D03*
X96000000Y-87000000D03*
X96000000Y-86000000D03*
X96000000Y-85000000D03*
X97000000Y-85000000D03*
X98000000Y-85000000D03*
X98000000Y-84000000D03*
X98000000Y-83000000D03*
X98000000Y-82000000D03*
X99000000Y-82000000D03*
X100000000Y-82000000D03*
X101000000Y-82000000D03*
X102000000Y-82000000D03*
X103000000Y-82000000D03*
X103000000Y-83000000D03*
X103000000Y-84000000D03*
X104000000Y-84000000D03*
X105000000Y-84000000D03*
X106000000Y-84000000D03*
X106000000Y-83000000D03*
X105000000Y-83000000D03*
X105000000Y-82000000D03*
X104000000Y-81000000D03*
X103000000Y-80000000D03*
X103000000Y-81000000D03*
X102000000Y-81000000D03*
X101000000Y-81000000D03*
X100000000Y-81000000D03*
X99000000Y-81000000D03*
X98000000Y-81000000D03*
X98000000Y-80000000D03*
X97000000Y-80000000D03*
X97000000Y-79000000D03*
X96000000Y-79000000D03*
X95000000Y-79000000D03*
X94000000Y-79000000D03*
X93000000Y-79000000D03*
X92000000Y-79000000D03*
X91000000Y-79000000D03*
X90000000Y-79000000D03*
X89000000Y-79000000D03*
X88000000Y-79000000D03*
X87000000Y-79000000D03*
X86000000Y-79000000D03*
X85000000Y-79000000D03*
X84000000Y-79000000D03*
X83000000Y-79000000D03*
X82000000Y-79000000D03*
X81000000Y-79000000D03*
X80000000Y-80000000D03*
X79000000Y-81000000D03*
X104000000Y-83000000D03*
X104000000Y-82000000D03*
X97000000Y-81000000D03*
X97000000Y-82000000D03*
X97000000Y-83000000D03*
X97000000Y-84000000D03*
X96000000Y-84000000D03*
X96000000Y-83000000D03*
X96000000Y-82000000D03*
X96000000Y-81000000D03*
X96000000Y-80000000D03*
X95000000Y-80000000D03*
X95000000Y-81000000D03*
X95000000Y-82000000D03*
X95000000Y-83000000D03*
X95000000Y-84000000D03*
X95000000Y-85000000D03*
X95000000Y-86000000D03*
X94000000Y-84000000D03*
X94000000Y-83000000D03*
X94000000Y-82000000D03*
X94000000Y-81000000D03*
X94000000Y-80000000D03*
X93000000Y-80000000D03*
X93000000Y-81000000D03*
X92000000Y-81000000D03*
X92000000Y-80000000D03*
X91000000Y-80000000D03*
X91000000Y-81000000D03*
X90000000Y-81000000D03*
X90000000Y-80000000D03*
X89000000Y-80000000D03*
X89000000Y-81000000D03*
X88000000Y-81000000D03*
X88000000Y-80000000D03*
X87000000Y-80000000D03*
X87000000Y-81000000D03*
X87000000Y-82000000D03*
X87000000Y-83000000D03*
X87000000Y-84000000D03*
X86000000Y-84000000D03*
X86000000Y-85000000D03*
X86000000Y-86000000D03*
X86000000Y-87000000D03*
X85000000Y-87000000D03*
X85000000Y-86000000D03*
X85000000Y-85000000D03*
X85000000Y-84000000D03*
X85000000Y-83000000D03*
X86000000Y-83000000D03*
X86000000Y-82000000D03*
X85000000Y-82000000D03*
X85000000Y-81000000D03*
X86000000Y-81000000D03*
X86000000Y-80000000D03*
X85000000Y-80000000D03*
X84000000Y-80000000D03*
X83000000Y-80000000D03*
X82000000Y-80000000D03*
X81000000Y-80000000D03*
X80000000Y-81000000D03*
X81000000Y-81000000D03*
X82000000Y-81000000D03*
X83000000Y-81000000D03*
X84000000Y-81000000D03*
X84000000Y-82000000D03*
X83000000Y-82000000D03*
X82000000Y-82000000D03*
X82000000Y-83000000D03*
X83000000Y-83000000D03*
X84000000Y-83000000D03*
X84000000Y-84000000D03*
X83000000Y-84000000D03*
X82000000Y-84000000D03*
X84000000Y-85000000D03*
X84000000Y-86000000D03*
X84000000Y-87000000D03*
D22*
X78700000Y-73500000D03*
D20*
X67800000Y-71900000D03*
X88100000Y-66900000D03*
X92200000Y-66800000D03*
X91200000Y-66800000D03*
X90200000Y-66800000D03*
X89200000Y-66900000D03*
D21*
X85400000Y-76682600D03*
D22*
X97100000Y-57500000D03*
D21*
X79300000Y-57400000D03*
D20*
X78400000Y-60500000D03*
X120650000Y-66929000D03*
X110744000Y-75057000D03*
X106426000Y-72644000D03*
D21*
X64200000Y-60000000D03*
D22*
X78200000Y-65150000D03*
D21*
X79300000Y-58900000D03*
D20*
X115988563Y-77808223D03*
X116205000Y-67310000D03*
X116205000Y-64262000D03*
D22*
X130683000Y-68453000D03*
X130683000Y-71247000D03*
X130683000Y-73914000D03*
X130683000Y-65786000D03*
D20*
X114046000Y-87249000D03*
D21*
X115189000Y-84836000D03*
D20*
X102616000Y-68326000D03*
X102616000Y-74422000D03*
X103378000Y-74803000D03*
X106045000Y-76962000D03*
X104300000Y-68600000D03*
X70000000Y-57000000D03*
X68700000Y-57000000D03*
X79900000Y-72200000D03*
X101200000Y-75100000D03*
X101854000Y-62484000D03*
X68100000Y-62000000D03*
X69500000Y-62000000D03*
X102700000Y-62400000D03*
X80650000Y-68700000D03*
X62200000Y-83700000D03*
X80650000Y-67400000D03*
X68000000Y-91500000D03*
X105029000Y-74803000D03*
X106553000Y-76327000D03*
X105100000Y-69000000D03*
D22*
X63800000Y-69900000D03*
D21*
X67500000Y-74250000D03*
D20*
X64700000Y-72200000D03*
X64700000Y-73600000D03*
X66400000Y-72100000D03*
X65000000Y-66250000D03*
X77600000Y-62900000D03*
X66800000Y-69000000D03*
X78500000Y-62900000D03*
X107100602Y-83780002D03*
X91600000Y-84000000D03*
X95600000Y-72900000D03*
X84100000Y-72400000D03*
X80900000Y-65800000D03*
X80900000Y-64500000D03*
X80900000Y-63400000D03*
D23*
X78000000Y-82000000D02*
X79000000Y-82000000D01*
X80000000Y-82000000D02*
X81000000Y-82000000D01*
X81000000Y-83000000D02*
X81000000Y-84000000D01*
X81000000Y-85000000D02*
X82000000Y-85000000D01*
X83000000Y-85000000D02*
X83000000Y-86000000D01*
X83000000Y-87000000D02*
X83000000Y-88000000D01*
X84000000Y-88000000D02*
X85000000Y-88000000D01*
X86000000Y-88000000D02*
X87000000Y-88000000D01*
X87000000Y-87000000D02*
X87000000Y-86000000D01*
X87000000Y-85000000D02*
X88000000Y-85000000D01*
X88000000Y-84000000D02*
X88000000Y-83000000D01*
X88000000Y-82000000D02*
X89000000Y-82000000D01*
X90000000Y-82000000D02*
X91000000Y-82000000D01*
X92000000Y-82000000D02*
X93000000Y-82000000D01*
X93000000Y-83000000D02*
X93000000Y-84000000D01*
X93000000Y-85000000D02*
X94000000Y-85000000D01*
X94000000Y-86000000D02*
X94000000Y-87000000D01*
X95000000Y-87000000D02*
X96000000Y-87000000D01*
X96000000Y-86000000D02*
X96000000Y-85000000D01*
X97000000Y-85000000D02*
X98000000Y-85000000D01*
X98000000Y-84000000D02*
X98000000Y-83000000D01*
X98000000Y-82000000D02*
X99000000Y-82000000D01*
X100000000Y-82000000D02*
X101000000Y-82000000D01*
X102000000Y-82000000D02*
X103000000Y-82000000D01*
X103000000Y-83000000D02*
X103000000Y-84000000D01*
X104000000Y-84000000D02*
X105000000Y-84000000D01*
X106000000Y-84000000D02*
X106000000Y-83000000D01*
X105000000Y-83000000D02*
X105000000Y-82000000D01*
X104000000Y-81000000D02*
X103000000Y-80000000D01*
X104000000Y-81000000D02*
X103000000Y-81000000D01*
X102000000Y-81000000D02*
X101000000Y-81000000D01*
X100000000Y-81000000D02*
X99000000Y-81000000D01*
X98000000Y-81000000D02*
X98000000Y-80000000D01*
X97000000Y-80000000D02*
X97000000Y-79000000D01*
X96000000Y-79000000D02*
X95000000Y-79000000D01*
X94000000Y-79000000D02*
X93000000Y-79000000D01*
X92000000Y-79000000D02*
X91000000Y-79000000D01*
X90000000Y-79000000D02*
X89000000Y-79000000D01*
X88000000Y-79000000D02*
X87000000Y-79000000D01*
X86000000Y-79000000D02*
X85000000Y-79000000D01*
X84000000Y-79000000D02*
X83000000Y-79000000D01*
X82000000Y-79000000D02*
X81000000Y-79000000D01*
X80000000Y-80000000D02*
X79000000Y-81000000D01*
X105000000Y-83000000D02*
X104000000Y-83000000D01*
X97000000Y-80000000D02*
X97000000Y-81000000D01*
X97000000Y-82000000D02*
X97000000Y-83000000D01*
X97000000Y-84000000D02*
X96000000Y-84000000D01*
X96000000Y-83000000D02*
X96000000Y-82000000D01*
X96000000Y-81000000D02*
X96000000Y-80000000D01*
X95000000Y-80000000D02*
X95000000Y-81000000D01*
X95000000Y-83000000D02*
X95000000Y-84000000D01*
X95000000Y-85000000D02*
X95000000Y-86000000D01*
X94000000Y-84000000D02*
X94000000Y-83000000D01*
X94000000Y-82000000D02*
X94000000Y-81000000D01*
X94000000Y-80000000D02*
X93000000Y-80000000D01*
X93000000Y-81000000D02*
X92000000Y-81000000D01*
X92000000Y-80000000D02*
X91000000Y-80000000D01*
X91000000Y-81000000D02*
X90000000Y-81000000D01*
X90000000Y-80000000D02*
X89000000Y-80000000D01*
X89000000Y-81000000D02*
X88000000Y-81000000D01*
X88000000Y-80000000D02*
X87000000Y-80000000D01*
X87000000Y-81000000D02*
X87000000Y-82000000D01*
X87000000Y-83000000D02*
X87000000Y-84000000D01*
X86000000Y-84000000D02*
X86000000Y-85000000D01*
X86000000Y-86000000D02*
X86000000Y-87000000D01*
X85000000Y-87000000D02*
X85000000Y-86000000D01*
X85000000Y-85000000D02*
X85000000Y-84000000D01*
X85000000Y-83000000D02*
X86000000Y-83000000D01*
X86000000Y-82000000D02*
X85000000Y-82000000D01*
X85000000Y-81000000D02*
X86000000Y-81000000D01*
X86000000Y-80000000D02*
X85000000Y-80000000D01*
X84000000Y-80000000D02*
X83000000Y-80000000D01*
X83000000Y-80000000D02*
X82000000Y-80000000D01*
X80000000Y-81000000D02*
X81000000Y-81000000D01*
X82000000Y-81000000D02*
X83000000Y-81000000D01*
X84000000Y-81000000D02*
X84000000Y-82000000D01*
X83000000Y-82000000D02*
X82000000Y-82000000D01*
X82000000Y-83000000D02*
X83000000Y-83000000D01*
X84000000Y-83000000D02*
X84000000Y-84000000D01*
X83000000Y-84000000D02*
X82000000Y-84000000D01*
X84000000Y-85000000D02*
X84000000Y-86000000D01*
D24*
X116205000Y-64262000D02*
X116205000Y-67310000D01*
X115189000Y-86106000D02*
X114046000Y-87249000D01*
X115189000Y-84836000D02*
X115189000Y-86106000D01*
X102616000Y-74422000D02*
X102616000Y-74549000D01*
X102616000Y-68326000D02*
X102616000Y-74422000D01*
X105537000Y-76962000D02*
X103378000Y-74803000D01*
X106045000Y-76962000D02*
X105537000Y-76962000D01*
X104300000Y-73881000D02*
X103378000Y-74803000D01*
X104300000Y-68600000D02*
X104300000Y-73881000D01*
D23*
X70000000Y-57000000D02*
X68700000Y-57000000D01*
D24*
X79900000Y-72200000D02*
X80400000Y-72200000D01*
X82012401Y-73812401D02*
X100212401Y-73812401D01*
X80400000Y-72200000D02*
X82012401Y-73812401D01*
X101200000Y-74800000D02*
X101200000Y-75100000D01*
X100212401Y-73812401D02*
X101200000Y-74800000D01*
X101092000Y-61722000D02*
X101854000Y-62484000D01*
X80264000Y-61722000D02*
X101092000Y-61722000D01*
X80264000Y-61722000D02*
X74422000Y-61722000D01*
X74422000Y-61722000D02*
X72800000Y-60100000D01*
X72800000Y-60100000D02*
X68800000Y-60100000D01*
X68100000Y-60800000D02*
X68100000Y-62000000D01*
X68800000Y-60100000D02*
X68100000Y-60800000D01*
X99314000Y-62230000D02*
X100558599Y-63474599D01*
X80899000Y-62230000D02*
X99314000Y-62230000D01*
X69730000Y-62230000D02*
X69500000Y-62000000D01*
X80899000Y-62230000D02*
X69730000Y-62230000D01*
X100558599Y-63474599D02*
X102025401Y-63474599D01*
X102700000Y-62800000D02*
X102700000Y-62400000D01*
X102025401Y-63474599D02*
X102700000Y-62800000D01*
X71200000Y-68700000D02*
X68900000Y-71000000D01*
X68900000Y-71000000D02*
X68900000Y-78088828D01*
X80650000Y-68700000D02*
X71200000Y-68700000D01*
X61408828Y-85580000D02*
X59500000Y-85580000D01*
X68900000Y-78088828D02*
X66494414Y-80494414D01*
X62544414Y-84044414D02*
X62200000Y-83700000D01*
X62544414Y-84444414D02*
X62544414Y-84044414D01*
X66494414Y-80494414D02*
X62544414Y-84444414D01*
X62544414Y-84444414D02*
X61408828Y-85580000D01*
X80650000Y-67400000D02*
X80350000Y-67700000D01*
X80350000Y-67700000D02*
X70950000Y-67700000D01*
X70950000Y-67700000D02*
X68450000Y-70200000D01*
X68450000Y-70200000D02*
X68450000Y-78000000D01*
X63410000Y-83040000D02*
X59500000Y-83040000D01*
X68450000Y-78000000D02*
X66125000Y-80325000D01*
X66125000Y-80325000D02*
X63410000Y-83040000D01*
X67635000Y-91865000D02*
X67635000Y-94626000D01*
X68000000Y-91500000D02*
X67635000Y-91865000D01*
X106553000Y-76327000D02*
X105029000Y-74803000D01*
X105100000Y-74732000D02*
X105029000Y-74803000D01*
X105100000Y-69000000D02*
X105100000Y-74732000D01*
D25*
X64257999Y-74757999D02*
X63800000Y-74300000D01*
X67500000Y-74250000D02*
X66992001Y-74757999D01*
X66992001Y-74757999D02*
X64257999Y-74757999D01*
X63800000Y-69900000D02*
X63800000Y-74300000D01*
D24*
X64700000Y-72200000D02*
X64700000Y-73600000D01*
X64800000Y-72100000D02*
X64700000Y-72200000D01*
X66400000Y-72100000D02*
X64800000Y-72100000D01*
X64900000Y-63600000D02*
X65700000Y-62800000D01*
X64900000Y-66150000D02*
X64900000Y-63600000D01*
X65000000Y-66250000D02*
X64900000Y-66150000D01*
X77500000Y-62800000D02*
X77600000Y-62900000D01*
X65700000Y-62800000D02*
X77500000Y-62800000D01*
X66800000Y-69000000D02*
X72100000Y-63700000D01*
X78457514Y-62900000D02*
X78500000Y-62900000D01*
X77657514Y-63700000D02*
X78457514Y-62900000D01*
X72100000Y-63700000D02*
X77657514Y-63700000D01*
X107100602Y-83780002D02*
X102680604Y-88200000D01*
X102680604Y-88200000D02*
X91800000Y-88200000D01*
X91600000Y-88000000D02*
X91600000Y-84000000D01*
X91800000Y-88200000D02*
X91600000Y-88000000D01*
X95600000Y-72900000D02*
X95900000Y-72600000D01*
X95900000Y-72600000D02*
X95900000Y-66200000D01*
X95900000Y-66200000D02*
X96600000Y-65500000D01*
X103238828Y-65500000D02*
X107000000Y-61738828D01*
X96600000Y-65500000D02*
X103238828Y-65500000D01*
X107000000Y-61738828D02*
X107000000Y-59900000D01*
X111718990Y-55181010D02*
X123818990Y-55181010D01*
X107000000Y-59900000D02*
X111718990Y-55181010D01*
X126200000Y-52800000D02*
X126200000Y-51600000D01*
X123818990Y-55181010D02*
X126200000Y-52800000D01*
X84100000Y-72400000D02*
X84400000Y-72100000D01*
X84400000Y-72100000D02*
X84400000Y-65600000D01*
X84400000Y-65600000D02*
X85218990Y-64781010D01*
X85218990Y-64781010D02*
X85237980Y-64800000D01*
X99603353Y-65081010D02*
X103118990Y-65081010D01*
X99322344Y-64800000D02*
X99603353Y-65081010D01*
X85237980Y-64800000D02*
X99322344Y-64800000D01*
X103118990Y-65081010D02*
X106500000Y-61700000D01*
X106500000Y-61700000D02*
X106500000Y-59600000D01*
X106500000Y-59600000D02*
X111300000Y-54800000D01*
X111300000Y-54800000D02*
X121600000Y-54800000D01*
X123660000Y-52740000D02*
X123660000Y-51600000D01*
X121600000Y-54800000D02*
X123660000Y-52740000D01*
X119900000Y-54400000D02*
X121120000Y-53180000D01*
X111000000Y-54400000D02*
X119900000Y-54400000D01*
X105900000Y-59500000D02*
X111000000Y-54400000D01*
X105900000Y-61638828D02*
X105900000Y-59500000D01*
X121120000Y-53180000D02*
X121120000Y-51600000D01*
X102838828Y-64700000D02*
X105900000Y-61638828D01*
X99761172Y-64700000D02*
X102838828Y-64700000D01*
X99461172Y-64400000D02*
X99761172Y-64700000D01*
X82300000Y-64400000D02*
X99461172Y-64400000D01*
X80900000Y-65800000D02*
X82300000Y-64400000D01*
X80900000Y-64500000D02*
X81600000Y-63800000D01*
X81600000Y-63800000D02*
X99400000Y-63800000D01*
X99400000Y-63800000D02*
X99900000Y-64300000D01*
X99900000Y-64300000D02*
X102700000Y-64300000D01*
X102700000Y-64300000D02*
X105300000Y-61700000D01*
X105300000Y-61700000D02*
X105300000Y-59100000D01*
X105300000Y-59100000D02*
X110600000Y-53800000D01*
X110600000Y-53800000D02*
X117800000Y-53800000D01*
X118580000Y-53020000D02*
X118580000Y-51600000D01*
X117800000Y-53800000D02*
X118580000Y-53020000D01*
X80900000Y-63400000D02*
X81400000Y-62900000D01*
X100400780Y-63855609D02*
X102183220Y-63855609D01*
X99445172Y-62900000D02*
X100400780Y-63855609D01*
X102183220Y-63855609D02*
X104500000Y-61538829D01*
X81400000Y-62900000D02*
X99445172Y-62900000D01*
X104500000Y-61538829D02*
X104500000Y-59100000D01*
X104500000Y-59100000D02*
X110300000Y-53300000D01*
X110300000Y-53300000D02*
X115600000Y-53300000D01*
X116040000Y-52860000D02*
X116040000Y-51600000D01*
X115600000Y-53300000D02*
X116040000Y-52860000D01*
D26*
X76374477Y-57019311D02*
X76380656Y-57043429D01*
X76391422Y-57065877D01*
X76406360Y-57085794D01*
X76424897Y-57102413D01*
X76446320Y-57115097D01*
X76469806Y-57123358D01*
X76500000Y-57127000D01*
X105431291Y-57127000D01*
X104004732Y-58553559D01*
X103976626Y-58576625D01*
X103953560Y-58604731D01*
X103953558Y-58604733D01*
X103884576Y-58688788D01*
X103816178Y-58816753D01*
X103774059Y-58955602D01*
X103759836Y-59100000D01*
X103763401Y-59136193D01*
X103763400Y-61233719D01*
X103309705Y-61687415D01*
X103296028Y-61673738D01*
X103142889Y-61571414D01*
X102972729Y-61500932D01*
X102792089Y-61465000D01*
X102607911Y-61465000D01*
X102427271Y-61500932D01*
X102257111Y-61571414D01*
X102194727Y-61613098D01*
X102126729Y-61584932D01*
X101964340Y-61552630D01*
X101638445Y-61226736D01*
X101615375Y-61198625D01*
X101503213Y-61106576D01*
X101375249Y-61038178D01*
X101236399Y-60996058D01*
X101128186Y-60985400D01*
X101128183Y-60985400D01*
X101092000Y-60981836D01*
X101055817Y-60985400D01*
X74727109Y-60985400D01*
X73346446Y-59604737D01*
X73323375Y-59576625D01*
X73211213Y-59484576D01*
X73083249Y-59416178D01*
X72944399Y-59374058D01*
X72836186Y-59363400D01*
X72836183Y-59363400D01*
X72800000Y-59359836D01*
X72763817Y-59363400D01*
X68836175Y-59363400D01*
X68799999Y-59359837D01*
X68763823Y-59363400D01*
X68763814Y-59363400D01*
X68655601Y-59374058D01*
X68516751Y-59416178D01*
X68388787Y-59484576D01*
X68276625Y-59576625D01*
X68253554Y-59604737D01*
X67604732Y-60253559D01*
X67576625Y-60276626D01*
X67484576Y-60388788D01*
X67416178Y-60516752D01*
X67374058Y-60655602D01*
X67363400Y-60763814D01*
X67359836Y-60800000D01*
X67363400Y-60836184D01*
X67363401Y-61419443D01*
X67271414Y-61557111D01*
X67200932Y-61727271D01*
X67165000Y-61907911D01*
X67165000Y-62063400D01*
X65736186Y-62063400D01*
X65700000Y-62059836D01*
X65663814Y-62063400D01*
X65555601Y-62074058D01*
X65416751Y-62116178D01*
X65330646Y-62162202D01*
X65288787Y-62184576D01*
X65241512Y-62223374D01*
X65176625Y-62276625D01*
X65153559Y-62304731D01*
X64404732Y-63053559D01*
X64376626Y-63076625D01*
X64353560Y-63104731D01*
X64353558Y-63104733D01*
X64284576Y-63188788D01*
X64216178Y-63316753D01*
X64213070Y-63327000D01*
X64180790Y-63433414D01*
X64174059Y-63455602D01*
X64159836Y-63600000D01*
X64163401Y-63636193D01*
X64163400Y-65826458D01*
X64100932Y-65977271D01*
X64065000Y-66157911D01*
X64065000Y-66342089D01*
X64100932Y-66522729D01*
X64171414Y-66692889D01*
X64273738Y-66846028D01*
X64403972Y-66976262D01*
X64557111Y-67078586D01*
X64727271Y-67149068D01*
X64907911Y-67185000D01*
X65092089Y-67185000D01*
X65272729Y-67149068D01*
X65442889Y-67078586D01*
X65596028Y-66976262D01*
X65726262Y-66846028D01*
X65828586Y-66692889D01*
X65899068Y-66522729D01*
X65935000Y-66342089D01*
X65935000Y-66157911D01*
X65899068Y-65977271D01*
X65828586Y-65807111D01*
X65726262Y-65653972D01*
X65636600Y-65564310D01*
X65636600Y-63905109D01*
X66005110Y-63536600D01*
X71221690Y-63536600D01*
X66689661Y-68068630D01*
X66527271Y-68100932D01*
X66357111Y-68171414D01*
X66203972Y-68273738D01*
X66073738Y-68403972D01*
X65971414Y-68557111D01*
X65900932Y-68727271D01*
X65865000Y-68907911D01*
X65865000Y-69092089D01*
X65900932Y-69272729D01*
X65971414Y-69442889D01*
X66073738Y-69596028D01*
X66203972Y-69726262D01*
X66357111Y-69828586D01*
X66527271Y-69899068D01*
X66707911Y-69935000D01*
X66892089Y-69935000D01*
X67072729Y-69899068D01*
X67242889Y-69828586D01*
X67396028Y-69726262D01*
X67526262Y-69596028D01*
X67628586Y-69442889D01*
X67699068Y-69272729D01*
X67731370Y-69110339D01*
X72405110Y-64436600D01*
X76708471Y-64436600D01*
X76612447Y-64668421D01*
X76549000Y-64987391D01*
X76549000Y-65312609D01*
X76612447Y-65631579D01*
X76736903Y-65932042D01*
X76917585Y-66202451D01*
X77147549Y-66432415D01*
X77417958Y-66613097D01*
X77718421Y-66737553D01*
X78037391Y-66801000D01*
X78362609Y-66801000D01*
X78681579Y-66737553D01*
X78982042Y-66613097D01*
X79252451Y-66432415D01*
X79482415Y-66202451D01*
X79663097Y-65932042D01*
X79787553Y-65631579D01*
X79851000Y-65312609D01*
X79851000Y-64987391D01*
X79787553Y-64668421D01*
X79663097Y-64367958D01*
X79482415Y-64097549D01*
X79252451Y-63867585D01*
X78993657Y-63694664D01*
X79096028Y-63626262D01*
X79226262Y-63496028D01*
X79328586Y-63342889D01*
X79399068Y-63172729D01*
X79435000Y-62992089D01*
X79435000Y-62966600D01*
X80067484Y-62966600D01*
X80000932Y-63127271D01*
X79965000Y-63307911D01*
X79965000Y-63492089D01*
X80000932Y-63672729D01*
X80071414Y-63842889D01*
X80142983Y-63950000D01*
X80071414Y-64057111D01*
X80000932Y-64227271D01*
X79965000Y-64407911D01*
X79965000Y-64592089D01*
X80000932Y-64772729D01*
X80071414Y-64942889D01*
X80173738Y-65096028D01*
X80227710Y-65150000D01*
X80173738Y-65203972D01*
X80071414Y-65357111D01*
X80000932Y-65527271D01*
X79965000Y-65707911D01*
X79965000Y-65892089D01*
X80000932Y-66072729D01*
X80071414Y-66242889D01*
X80173738Y-66396028D01*
X80303972Y-66526262D01*
X80308620Y-66529368D01*
X80207111Y-66571414D01*
X80053972Y-66673738D01*
X79923738Y-66803972D01*
X79821414Y-66957111D01*
X79818809Y-66963400D01*
X70986186Y-66963400D01*
X70950000Y-66959836D01*
X70913814Y-66963400D01*
X70805601Y-66974058D01*
X70666751Y-67016178D01*
X70538787Y-67084576D01*
X70426625Y-67176625D01*
X70403559Y-67204731D01*
X67954732Y-69653559D01*
X67926625Y-69676626D01*
X67903559Y-69704732D01*
X67903558Y-69704733D01*
X67896546Y-69713277D01*
X67834576Y-69788788D01*
X67766178Y-69916752D01*
X67724058Y-70055602D01*
X67713400Y-70163814D01*
X67709836Y-70200000D01*
X67713400Y-70236183D01*
X67713400Y-73127055D01*
X67612576Y-73107000D01*
X67387424Y-73107000D01*
X67166599Y-73150925D01*
X66958587Y-73237087D01*
X66771380Y-73362174D01*
X66612174Y-73521380D01*
X66487087Y-73708587D01*
X66446944Y-73805499D01*
X65612441Y-73805499D01*
X65635000Y-73692089D01*
X65635000Y-73507911D01*
X65599068Y-73327271D01*
X65528586Y-73157111D01*
X65436600Y-73019444D01*
X65436600Y-72836600D01*
X65819444Y-72836600D01*
X65957111Y-72928586D01*
X66127271Y-72999068D01*
X66307911Y-73035000D01*
X66492089Y-73035000D01*
X66672729Y-72999068D01*
X66842889Y-72928586D01*
X66996028Y-72826262D01*
X67126262Y-72696028D01*
X67228586Y-72542889D01*
X67299068Y-72372729D01*
X67335000Y-72192089D01*
X67335000Y-72007911D01*
X67299068Y-71827271D01*
X67228586Y-71657111D01*
X67126262Y-71503972D01*
X66996028Y-71373738D01*
X66842889Y-71271414D01*
X66672729Y-71200932D01*
X66492089Y-71165000D01*
X66307911Y-71165000D01*
X66127271Y-71200932D01*
X65957111Y-71271414D01*
X65819444Y-71363400D01*
X65123541Y-71363400D01*
X64972729Y-71300932D01*
X64792089Y-71265000D01*
X64752500Y-71265000D01*
X64752500Y-71249200D01*
X64852451Y-71182415D01*
X65082415Y-70952451D01*
X65263097Y-70682042D01*
X65387553Y-70381579D01*
X65451000Y-70062609D01*
X65451000Y-69737391D01*
X65387553Y-69418421D01*
X65263097Y-69117958D01*
X65082415Y-68847549D01*
X64852451Y-68617585D01*
X64582042Y-68436903D01*
X64281579Y-68312447D01*
X63962609Y-68249000D01*
X63637391Y-68249000D01*
X63318421Y-68312447D01*
X63017958Y-68436903D01*
X62747549Y-68617585D01*
X62517585Y-68847549D01*
X62336903Y-69117958D01*
X62212447Y-69418421D01*
X62149000Y-69737391D01*
X62149000Y-70062609D01*
X62212447Y-70381579D01*
X62336903Y-70682042D01*
X62517585Y-70952451D01*
X62747549Y-71182415D01*
X62847500Y-71249201D01*
X62847501Y-74253205D01*
X62842892Y-74300000D01*
X62861283Y-74486722D01*
X62915749Y-74666269D01*
X63001806Y-74827271D01*
X63004195Y-74831741D01*
X63123223Y-74976778D01*
X63159565Y-75006603D01*
X63551388Y-75398425D01*
X63581221Y-75434777D01*
X63726258Y-75553805D01*
X63891730Y-75642251D01*
X64060503Y-75693448D01*
X64071276Y-75696716D01*
X64257998Y-75715107D01*
X64304783Y-75710499D01*
X66945216Y-75710499D01*
X66992001Y-75715107D01*
X67038786Y-75710499D01*
X67178724Y-75696716D01*
X67358270Y-75642251D01*
X67523742Y-75553805D01*
X67668779Y-75434777D01*
X67698608Y-75398430D01*
X67713401Y-75383637D01*
X67713401Y-77694889D01*
X65629737Y-79778554D01*
X65629732Y-79778558D01*
X63104891Y-82303400D01*
X61072841Y-82303400D01*
X61037537Y-82218169D01*
X60970310Y-82117557D01*
X61051185Y-82051185D01*
X61130537Y-81954494D01*
X61189502Y-81844180D01*
X61225812Y-81724482D01*
X61238072Y-81600000D01*
X61238072Y-79400000D01*
X61225812Y-79275518D01*
X61189502Y-79155820D01*
X61130537Y-79045506D01*
X61051185Y-78948815D01*
X60954494Y-78869463D01*
X60844180Y-78810498D01*
X60724482Y-78774188D01*
X60600000Y-78761928D01*
X58400000Y-78761928D01*
X58275518Y-78774188D01*
X58155820Y-78810498D01*
X58045506Y-78869463D01*
X57948815Y-78948815D01*
X57869463Y-79045506D01*
X57810498Y-79155820D01*
X57774188Y-79275518D01*
X57761928Y-79400000D01*
X57761928Y-81600000D01*
X57774188Y-81724482D01*
X57810498Y-81844180D01*
X57869463Y-81954494D01*
X57948815Y-82051185D01*
X58029690Y-82117557D01*
X57962463Y-82218169D01*
X57831675Y-82533919D01*
X57765000Y-82869117D01*
X57765000Y-83210883D01*
X57831675Y-83546081D01*
X57962463Y-83861831D01*
X58152337Y-84145998D01*
X58316339Y-84310000D01*
X58152337Y-84474002D01*
X57962463Y-84758169D01*
X57831675Y-85073919D01*
X57765000Y-85409117D01*
X57765000Y-85750883D01*
X57831675Y-86086081D01*
X57962463Y-86401831D01*
X58152337Y-86685998D01*
X58394002Y-86927663D01*
X58675074Y-87115469D01*
X59500000Y-87940395D01*
X60324926Y-87115469D01*
X60605998Y-86927663D01*
X60640959Y-86892702D01*
X66186903Y-86892702D01*
X66258486Y-87136671D01*
X66513996Y-87257571D01*
X66788184Y-87326300D01*
X67070512Y-87340217D01*
X67350130Y-87298787D01*
X67616292Y-87203603D01*
X67741514Y-87136671D01*
X67813097Y-86892702D01*
X67000000Y-86079605D01*
X66186903Y-86892702D01*
X60640959Y-86892702D01*
X60847663Y-86685998D01*
X61037537Y-86401831D01*
X61072841Y-86316600D01*
X61372645Y-86316600D01*
X61408828Y-86320164D01*
X61445011Y-86316600D01*
X61445014Y-86316600D01*
X61553227Y-86305942D01*
X61692077Y-86263822D01*
X61820041Y-86195424D01*
X61932203Y-86103375D01*
X61955273Y-86075264D01*
X62060025Y-85970512D01*
X65559783Y-85970512D01*
X65601213Y-86250130D01*
X65696397Y-86516292D01*
X65763329Y-86641514D01*
X66007298Y-86713097D01*
X66820395Y-85900000D01*
X67179605Y-85900000D01*
X67992702Y-86713097D01*
X68236671Y-86641514D01*
X68357571Y-86386004D01*
X68426300Y-86111816D01*
X68440217Y-85829488D01*
X68398787Y-85549870D01*
X68303603Y-85283708D01*
X68236671Y-85158486D01*
X68037340Y-85100000D01*
X69061928Y-85100000D01*
X69061928Y-86700000D01*
X69074188Y-86824482D01*
X69110498Y-86944180D01*
X69169463Y-87054494D01*
X69248815Y-87151185D01*
X69345506Y-87230537D01*
X69455820Y-87289502D01*
X69575518Y-87325812D01*
X69700000Y-87338072D01*
X71300000Y-87338072D01*
X71424482Y-87325812D01*
X71544180Y-87289502D01*
X71654494Y-87230537D01*
X71751185Y-87151185D01*
X71830537Y-87054494D01*
X71889502Y-86944180D01*
X71925812Y-86824482D01*
X71938072Y-86700000D01*
X71938072Y-85100000D01*
X71925812Y-84975518D01*
X71889502Y-84855820D01*
X71830537Y-84745506D01*
X71751185Y-84648815D01*
X71654494Y-84569463D01*
X71544180Y-84510498D01*
X71424482Y-84474188D01*
X71300000Y-84461928D01*
X69700000Y-84461928D01*
X69575518Y-84474188D01*
X69455820Y-84510498D01*
X69345506Y-84569463D01*
X69248815Y-84648815D01*
X69169463Y-84745506D01*
X69110498Y-84855820D01*
X69074188Y-84975518D01*
X69061928Y-85100000D01*
X68037340Y-85100000D01*
X67992702Y-85086903D01*
X67179605Y-85900000D01*
X66820395Y-85900000D01*
X66007298Y-85086903D01*
X65763329Y-85158486D01*
X65642429Y-85413996D01*
X65573700Y-85688184D01*
X65559783Y-85970512D01*
X62060025Y-85970512D01*
X63039687Y-84990851D01*
X63067788Y-84967789D01*
X63090851Y-84939687D01*
X63090856Y-84939682D01*
X63090861Y-84939676D01*
X63123239Y-84907298D01*
X66186903Y-84907298D01*
X67000000Y-85720395D01*
X67813097Y-84907298D01*
X67741514Y-84663329D01*
X67486004Y-84542429D01*
X67211816Y-84473700D01*
X66929488Y-84459783D01*
X66649870Y-84501213D01*
X66383708Y-84596397D01*
X66258486Y-84663329D01*
X66186903Y-84907298D01*
X63123239Y-84907298D01*
X64122626Y-83907911D01*
X90665000Y-83907911D01*
X90665000Y-84092089D01*
X90700932Y-84272729D01*
X90771414Y-84442889D01*
X90863401Y-84580557D01*
X90863400Y-87963817D01*
X90859836Y-88000000D01*
X90863400Y-88036183D01*
X90863400Y-88036185D01*
X90874058Y-88144398D01*
X90916178Y-88283248D01*
X90948864Y-88344399D01*
X90984576Y-88411212D01*
X91043694Y-88483247D01*
X91076625Y-88523374D01*
X91104732Y-88546441D01*
X91253554Y-88695263D01*
X91276625Y-88723375D01*
X91388787Y-88815424D01*
X91516751Y-88883822D01*
X91655598Y-88925941D01*
X91655601Y-88925942D01*
X91800000Y-88940164D01*
X91836186Y-88936600D01*
X102644421Y-88936600D01*
X102680604Y-88940164D01*
X102716787Y-88936600D01*
X102716790Y-88936600D01*
X102825003Y-88925942D01*
X102963853Y-88883822D01*
X103091817Y-88815424D01*
X103203979Y-88723375D01*
X103227050Y-88695263D01*
X104765402Y-87156911D01*
X113111000Y-87156911D01*
X113111000Y-87341089D01*
X113146932Y-87521729D01*
X113217414Y-87691889D01*
X113319738Y-87845028D01*
X113449972Y-87975262D01*
X113603111Y-88077586D01*
X113773271Y-88148068D01*
X113953911Y-88184000D01*
X114138089Y-88184000D01*
X114318729Y-88148068D01*
X114488889Y-88077586D01*
X114642028Y-87975262D01*
X114772262Y-87845028D01*
X114874586Y-87691889D01*
X114945068Y-87521729D01*
X114977370Y-87359340D01*
X115684269Y-86652441D01*
X115712375Y-86629375D01*
X115804424Y-86517213D01*
X115872822Y-86389249D01*
X115914942Y-86250399D01*
X115925600Y-86142186D01*
X115925600Y-86142177D01*
X115929163Y-86106001D01*
X115925600Y-86069825D01*
X115925600Y-85715846D01*
X116076826Y-85564620D01*
X116201913Y-85377413D01*
X116288075Y-85169401D01*
X116332000Y-84948576D01*
X116332000Y-84806000D01*
X125061928Y-84806000D01*
X125061928Y-87406000D01*
X125074188Y-87530482D01*
X125110498Y-87650180D01*
X125169463Y-87760494D01*
X125248815Y-87857185D01*
X125345506Y-87936537D01*
X125455820Y-87995502D01*
X125575518Y-88031812D01*
X125700000Y-88044072D01*
X128300000Y-88044072D01*
X128424482Y-88031812D01*
X128544180Y-87995502D01*
X128654494Y-87936537D01*
X128751185Y-87857185D01*
X128830537Y-87760494D01*
X128889502Y-87650180D01*
X128925812Y-87530482D01*
X128938072Y-87406000D01*
X128938072Y-84806000D01*
X128925812Y-84681518D01*
X128889502Y-84561820D01*
X128830537Y-84451506D01*
X128751185Y-84354815D01*
X128654494Y-84275463D01*
X128544180Y-84216498D01*
X128424482Y-84180188D01*
X128300000Y-84167928D01*
X125700000Y-84167928D01*
X125575518Y-84180188D01*
X125455820Y-84216498D01*
X125345506Y-84275463D01*
X125248815Y-84354815D01*
X125169463Y-84451506D01*
X125110498Y-84561820D01*
X125074188Y-84681518D01*
X125061928Y-84806000D01*
X116332000Y-84806000D01*
X116332000Y-84723424D01*
X116288075Y-84502599D01*
X116201913Y-84294587D01*
X116076826Y-84107380D01*
X115917620Y-83948174D01*
X115730413Y-83823087D01*
X115522401Y-83736925D01*
X115301576Y-83693000D01*
X115076424Y-83693000D01*
X114855599Y-83736925D01*
X114647587Y-83823087D01*
X114460380Y-83948174D01*
X114301174Y-84107380D01*
X114176087Y-84294587D01*
X114089925Y-84502599D01*
X114046000Y-84723424D01*
X114046000Y-84948576D01*
X114089925Y-85169401D01*
X114176087Y-85377413D01*
X114301174Y-85564620D01*
X114452401Y-85715847D01*
X114452401Y-85800889D01*
X113935660Y-86317630D01*
X113773271Y-86349932D01*
X113603111Y-86420414D01*
X113449972Y-86522738D01*
X113319738Y-86652972D01*
X113217414Y-86806111D01*
X113146932Y-86976271D01*
X113111000Y-87156911D01*
X104765402Y-87156911D01*
X107210942Y-84711372D01*
X107373331Y-84679070D01*
X107543491Y-84608588D01*
X107696630Y-84506264D01*
X107826864Y-84376030D01*
X107929188Y-84222891D01*
X107999670Y-84052731D01*
X108035602Y-83872091D01*
X108035602Y-83687913D01*
X107999670Y-83507273D01*
X107929188Y-83337113D01*
X107826864Y-83183974D01*
X107696630Y-83053740D01*
X107543491Y-82951416D01*
X107373331Y-82880934D01*
X107192691Y-82845002D01*
X107008513Y-82845002D01*
X106827873Y-82880934D01*
X106657713Y-82951416D01*
X106504574Y-83053740D01*
X106374340Y-83183974D01*
X106272016Y-83337113D01*
X106201534Y-83507273D01*
X106169232Y-83669662D01*
X102375495Y-87463400D01*
X92336600Y-87463400D01*
X92336600Y-84580556D01*
X92428586Y-84442889D01*
X92499068Y-84272729D01*
X92535000Y-84092089D01*
X92535000Y-83907911D01*
X92499068Y-83727271D01*
X92428586Y-83557111D01*
X92326262Y-83403972D01*
X92196028Y-83273738D01*
X92042889Y-83171414D01*
X91872729Y-83100932D01*
X91692089Y-83065000D01*
X91507911Y-83065000D01*
X91327271Y-83100932D01*
X91157111Y-83171414D01*
X91003972Y-83273738D01*
X90873738Y-83403972D01*
X90771414Y-83557111D01*
X90700932Y-83727271D01*
X90665000Y-83907911D01*
X64122626Y-83907911D01*
X67040856Y-80989682D01*
X67040861Y-80989676D01*
X67195118Y-80835419D01*
X125065000Y-80835419D01*
X125065000Y-81216581D01*
X125139361Y-81590419D01*
X125285225Y-81942566D01*
X125496987Y-82259491D01*
X125766509Y-82529013D01*
X126083434Y-82740775D01*
X126435581Y-82886639D01*
X126809419Y-82961000D01*
X127190581Y-82961000D01*
X127564419Y-82886639D01*
X127916566Y-82740775D01*
X128233491Y-82529013D01*
X128503013Y-82259491D01*
X128714775Y-81942566D01*
X128860639Y-81590419D01*
X128935000Y-81216581D01*
X128935000Y-80835419D01*
X128860639Y-80461581D01*
X128714775Y-80109434D01*
X128503013Y-79792509D01*
X128233491Y-79522987D01*
X127916566Y-79311225D01*
X127564419Y-79165361D01*
X127190581Y-79091000D01*
X126809419Y-79091000D01*
X126435581Y-79165361D01*
X126083434Y-79311225D01*
X125766509Y-79522987D01*
X125496987Y-79792509D01*
X125285225Y-80109434D01*
X125139361Y-80461581D01*
X125065000Y-80835419D01*
X67195118Y-80835419D01*
X69395263Y-78635274D01*
X69423375Y-78612203D01*
X69515424Y-78500041D01*
X69583822Y-78372077D01*
X69625942Y-78233227D01*
X69636600Y-78125014D01*
X69636600Y-78125005D01*
X69640163Y-78088829D01*
X69636600Y-78052653D01*
X69636600Y-71305109D01*
X71505110Y-69436600D01*
X80069444Y-69436600D01*
X80207111Y-69528586D01*
X80377271Y-69599068D01*
X80557911Y-69635000D01*
X80742089Y-69635000D01*
X80922729Y-69599068D01*
X81092889Y-69528586D01*
X81246028Y-69426262D01*
X81376262Y-69296028D01*
X81478586Y-69142889D01*
X81549068Y-68972729D01*
X81585000Y-68792089D01*
X81585000Y-68607911D01*
X81549068Y-68427271D01*
X81478586Y-68257111D01*
X81376262Y-68103972D01*
X81322290Y-68050000D01*
X81376262Y-67996028D01*
X81478586Y-67842889D01*
X81549068Y-67672729D01*
X81585000Y-67492089D01*
X81585000Y-67307911D01*
X81549068Y-67127271D01*
X81478586Y-66957111D01*
X81376262Y-66803972D01*
X81246028Y-66673738D01*
X81241380Y-66670632D01*
X81342889Y-66628586D01*
X81496028Y-66526262D01*
X81626262Y-66396028D01*
X81728586Y-66242889D01*
X81799068Y-66072729D01*
X81831370Y-65910340D01*
X82605110Y-65136600D01*
X83827405Y-65136600D01*
X83784576Y-65188788D01*
X83716178Y-65316753D01*
X83674059Y-65455602D01*
X83659836Y-65600000D01*
X83663401Y-65636193D01*
X83663400Y-71568809D01*
X83657111Y-71571414D01*
X83503972Y-71673738D01*
X83373738Y-71803972D01*
X83271414Y-71957111D01*
X83200932Y-72127271D01*
X83165000Y-72307911D01*
X83165000Y-72492089D01*
X83200932Y-72672729D01*
X83271414Y-72842889D01*
X83373738Y-72996028D01*
X83453511Y-73075801D01*
X82317510Y-73075801D01*
X80946446Y-71704737D01*
X80923375Y-71676625D01*
X80811213Y-71584576D01*
X80683249Y-71516178D01*
X80544399Y-71474058D01*
X80488227Y-71468526D01*
X80342889Y-71371414D01*
X80172729Y-71300932D01*
X79992089Y-71265000D01*
X79807911Y-71265000D01*
X79627271Y-71300932D01*
X79457111Y-71371414D01*
X79303972Y-71473738D01*
X79173738Y-71603972D01*
X79071414Y-71757111D01*
X79000932Y-71927271D01*
X78965000Y-72107911D01*
X78965000Y-72292089D01*
X79000932Y-72472729D01*
X79071414Y-72642889D01*
X79173738Y-72796028D01*
X79303972Y-72926262D01*
X79457111Y-73028586D01*
X79627271Y-73099068D01*
X79807911Y-73135000D01*
X79992089Y-73135000D01*
X80172729Y-73099068D01*
X80232572Y-73074281D01*
X81465955Y-74307664D01*
X81489026Y-74335776D01*
X81601188Y-74427825D01*
X81729152Y-74496223D01*
X81868002Y-74538343D01*
X81976215Y-74549001D01*
X81976224Y-74549001D01*
X82012400Y-74552564D01*
X82048576Y-74549001D01*
X99907292Y-74549001D01*
X100281791Y-74923500D01*
X100265000Y-75007911D01*
X100265000Y-75192089D01*
X100300932Y-75372729D01*
X100371414Y-75542889D01*
X100473738Y-75696028D01*
X100603972Y-75826262D01*
X100757111Y-75928586D01*
X100927271Y-75999068D01*
X101107911Y-76035000D01*
X101292089Y-76035000D01*
X101472729Y-75999068D01*
X101642889Y-75928586D01*
X101796028Y-75826262D01*
X101926262Y-75696028D01*
X102028586Y-75542889D01*
X102099068Y-75372729D01*
X102129200Y-75221246D01*
X102173111Y-75250586D01*
X102343271Y-75321068D01*
X102523911Y-75357000D01*
X102623656Y-75357000D01*
X102651738Y-75399028D01*
X102781972Y-75529262D01*
X102935111Y-75631586D01*
X103105271Y-75702068D01*
X103267661Y-75734370D01*
X104990559Y-77457269D01*
X105013625Y-77485375D01*
X105125787Y-77577424D01*
X105253751Y-77645822D01*
X105392601Y-77687942D01*
X105458156Y-77694399D01*
X105602111Y-77790586D01*
X105772271Y-77861068D01*
X105952911Y-77897000D01*
X106137089Y-77897000D01*
X106317729Y-77861068D01*
X106487889Y-77790586D01*
X106599314Y-77716134D01*
X115053563Y-77716134D01*
X115053563Y-77900312D01*
X115089495Y-78080952D01*
X115159977Y-78251112D01*
X115262301Y-78404251D01*
X115392535Y-78534485D01*
X115545674Y-78636809D01*
X115715834Y-78707291D01*
X115896474Y-78743223D01*
X116080652Y-78743223D01*
X116261292Y-78707291D01*
X116431452Y-78636809D01*
X116584591Y-78534485D01*
X116714825Y-78404251D01*
X116817149Y-78251112D01*
X116887631Y-78080952D01*
X116923563Y-77900312D01*
X116923563Y-77716134D01*
X116887631Y-77535494D01*
X116817149Y-77365334D01*
X116714825Y-77212195D01*
X116584591Y-77081961D01*
X116431452Y-76979637D01*
X116261292Y-76909155D01*
X116080652Y-76873223D01*
X115896474Y-76873223D01*
X115715834Y-76909155D01*
X115545674Y-76979637D01*
X115392535Y-77081961D01*
X115262301Y-77212195D01*
X115159977Y-77365334D01*
X115089495Y-77535494D01*
X115053563Y-77716134D01*
X106599314Y-77716134D01*
X106641028Y-77688262D01*
X106771262Y-77558028D01*
X106873586Y-77404889D01*
X106944068Y-77234729D01*
X106956571Y-77171872D01*
X106995889Y-77155586D01*
X107149028Y-77053262D01*
X107279262Y-76923028D01*
X107381586Y-76769889D01*
X107452068Y-76599729D01*
X107488000Y-76419089D01*
X107488000Y-76234911D01*
X107452068Y-76054271D01*
X107381586Y-75884111D01*
X107279262Y-75730972D01*
X107149028Y-75600738D01*
X106995889Y-75498414D01*
X106825729Y-75427932D01*
X106663339Y-75395630D01*
X106232620Y-74964911D01*
X109809000Y-74964911D01*
X109809000Y-75149089D01*
X109844932Y-75329729D01*
X109915414Y-75499889D01*
X110017738Y-75653028D01*
X110147972Y-75783262D01*
X110301111Y-75885586D01*
X110471271Y-75956068D01*
X110651911Y-75992000D01*
X110836089Y-75992000D01*
X111016729Y-75956068D01*
X111186889Y-75885586D01*
X111241643Y-75849000D01*
X125061928Y-75849000D01*
X125074188Y-75973482D01*
X125110498Y-76093180D01*
X125169463Y-76203494D01*
X125248815Y-76300185D01*
X125345506Y-76379537D01*
X125455820Y-76438502D01*
X125575518Y-76474812D01*
X125700000Y-76487072D01*
X126714250Y-76484000D01*
X126873000Y-76325250D01*
X126873000Y-74676000D01*
X127127000Y-74676000D01*
X127127000Y-76325250D01*
X127285750Y-76484000D01*
X128300000Y-76487072D01*
X128424482Y-76474812D01*
X128544180Y-76438502D01*
X128654494Y-76379537D01*
X128751185Y-76300185D01*
X128830537Y-76203494D01*
X128889502Y-76093180D01*
X128925812Y-75973482D01*
X128938072Y-75849000D01*
X128935000Y-74834750D01*
X128776250Y-74676000D01*
X127127000Y-74676000D01*
X126873000Y-74676000D01*
X125223750Y-74676000D01*
X125065000Y-74834750D01*
X125061928Y-75849000D01*
X111241643Y-75849000D01*
X111340028Y-75783262D01*
X111470262Y-75653028D01*
X111572586Y-75499889D01*
X111643068Y-75329729D01*
X111679000Y-75149089D01*
X111679000Y-74964911D01*
X111643068Y-74784271D01*
X111572586Y-74614111D01*
X111470262Y-74460972D01*
X111340028Y-74330738D01*
X111186889Y-74228414D01*
X111016729Y-74157932D01*
X110836089Y-74122000D01*
X110651911Y-74122000D01*
X110471271Y-74157932D01*
X110301111Y-74228414D01*
X110147972Y-74330738D01*
X110017738Y-74460972D01*
X109915414Y-74614111D01*
X109844932Y-74784271D01*
X109809000Y-74964911D01*
X106232620Y-74964911D01*
X105960370Y-74692661D01*
X105928068Y-74530271D01*
X105857586Y-74360111D01*
X105836600Y-74328703D01*
X105836600Y-73374691D01*
X105983111Y-73472586D01*
X106153271Y-73543068D01*
X106333911Y-73579000D01*
X106518089Y-73579000D01*
X106698729Y-73543068D01*
X106868889Y-73472586D01*
X107022028Y-73370262D01*
X107143290Y-73249000D01*
X125061928Y-73249000D01*
X125065000Y-74263250D01*
X125223750Y-74422000D01*
X126873000Y-74422000D01*
X126873000Y-72772750D01*
X127127000Y-72772750D01*
X127127000Y-74422000D01*
X128776250Y-74422000D01*
X128935000Y-74263250D01*
X128938072Y-73249000D01*
X128925812Y-73124518D01*
X128889502Y-73004820D01*
X128830537Y-72894506D01*
X128751185Y-72797815D01*
X128654494Y-72718463D01*
X128544180Y-72659498D01*
X128424482Y-72623188D01*
X128300000Y-72610928D01*
X127285750Y-72614000D01*
X127127000Y-72772750D01*
X126873000Y-72772750D01*
X126714250Y-72614000D01*
X125700000Y-72610928D01*
X125575518Y-72623188D01*
X125455820Y-72659498D01*
X125345506Y-72718463D01*
X125248815Y-72797815D01*
X125169463Y-72894506D01*
X125110498Y-73004820D01*
X125074188Y-73124518D01*
X125061928Y-73249000D01*
X107143290Y-73249000D01*
X107152262Y-73240028D01*
X107254586Y-73086889D01*
X107325068Y-72916729D01*
X107361000Y-72736089D01*
X107361000Y-72551911D01*
X107325068Y-72371271D01*
X107254586Y-72201111D01*
X107152262Y-72047972D01*
X107022028Y-71917738D01*
X106868889Y-71815414D01*
X106698729Y-71744932D01*
X106518089Y-71709000D01*
X106333911Y-71709000D01*
X106153271Y-71744932D01*
X105983111Y-71815414D01*
X105836600Y-71913309D01*
X105836600Y-69580556D01*
X105928586Y-69442889D01*
X105996711Y-69278419D01*
X125065000Y-69278419D01*
X125065000Y-69659581D01*
X125139361Y-70033419D01*
X125285225Y-70385566D01*
X125496987Y-70702491D01*
X125766509Y-70972013D01*
X126083434Y-71183775D01*
X126435581Y-71329639D01*
X126809419Y-71404000D01*
X127190581Y-71404000D01*
X127564419Y-71329639D01*
X127916566Y-71183775D01*
X128233491Y-70972013D01*
X128503013Y-70702491D01*
X128714775Y-70385566D01*
X128860639Y-70033419D01*
X128935000Y-69659581D01*
X128935000Y-69278419D01*
X128860639Y-68904581D01*
X128714775Y-68552434D01*
X128503013Y-68235509D01*
X128233491Y-67965987D01*
X127916566Y-67754225D01*
X127564419Y-67608361D01*
X127190581Y-67534000D01*
X126809419Y-67534000D01*
X126435581Y-67608361D01*
X126083434Y-67754225D01*
X125766509Y-67965987D01*
X125496987Y-68235509D01*
X125285225Y-68552434D01*
X125139361Y-68904581D01*
X125065000Y-69278419D01*
X105996711Y-69278419D01*
X105999068Y-69272729D01*
X106035000Y-69092089D01*
X106035000Y-68907911D01*
X105999068Y-68727271D01*
X105928586Y-68557111D01*
X105826262Y-68403972D01*
X105696028Y-68273738D01*
X105542889Y-68171414D01*
X105372729Y-68100932D01*
X105192089Y-68065000D01*
X105067040Y-68065000D01*
X105026262Y-68003972D01*
X104896028Y-67873738D01*
X104742889Y-67771414D01*
X104572729Y-67700932D01*
X104392089Y-67665000D01*
X104207911Y-67665000D01*
X104027271Y-67700932D01*
X103857111Y-67771414D01*
X103703972Y-67873738D01*
X103573738Y-68003972D01*
X103520970Y-68082944D01*
X103515068Y-68053271D01*
X103444586Y-67883111D01*
X103342262Y-67729972D01*
X103212028Y-67599738D01*
X103058889Y-67497414D01*
X102888729Y-67426932D01*
X102708089Y-67391000D01*
X102523911Y-67391000D01*
X102343271Y-67426932D01*
X102173111Y-67497414D01*
X102019972Y-67599738D01*
X101889738Y-67729972D01*
X101787414Y-67883111D01*
X101716932Y-68053271D01*
X101681000Y-68233911D01*
X101681000Y-68418089D01*
X101716932Y-68598729D01*
X101787414Y-68768889D01*
X101879400Y-68906556D01*
X101879401Y-73841443D01*
X101787414Y-73979111D01*
X101716932Y-74149271D01*
X101696059Y-74254208D01*
X101695273Y-74253563D01*
X100758846Y-73317137D01*
X100735776Y-73289026D01*
X100623614Y-73196977D01*
X100495650Y-73128579D01*
X100356800Y-73086459D01*
X100248587Y-73075801D01*
X100248584Y-73075801D01*
X100212401Y-73072237D01*
X100176218Y-73075801D01*
X96518348Y-73075801D01*
X96535000Y-72992089D01*
X96535000Y-72974589D01*
X96583822Y-72883249D01*
X96625942Y-72744399D01*
X96636600Y-72636186D01*
X96636600Y-72636177D01*
X96640163Y-72600001D01*
X96636600Y-72563825D01*
X96636600Y-66505109D01*
X96905109Y-66236600D01*
X103202645Y-66236600D01*
X103238828Y-66240164D01*
X103275011Y-66236600D01*
X103275014Y-66236600D01*
X103383227Y-66225942D01*
X103522077Y-66183822D01*
X103650041Y-66115424D01*
X103762203Y-66023375D01*
X103785274Y-65995263D01*
X105610626Y-64169911D01*
X115270000Y-64169911D01*
X115270000Y-64354089D01*
X115305932Y-64534729D01*
X115376414Y-64704889D01*
X115468400Y-64842556D01*
X115468401Y-66729443D01*
X115376414Y-66867111D01*
X115305932Y-67037271D01*
X115270000Y-67217911D01*
X115270000Y-67402089D01*
X115305932Y-67582729D01*
X115376414Y-67752889D01*
X115478738Y-67906028D01*
X115608972Y-68036262D01*
X115762111Y-68138586D01*
X115932271Y-68209068D01*
X116112911Y-68245000D01*
X116297089Y-68245000D01*
X116477729Y-68209068D01*
X116647889Y-68138586D01*
X116801028Y-68036262D01*
X116931262Y-67906028D01*
X117033586Y-67752889D01*
X117104068Y-67582729D01*
X117140000Y-67402089D01*
X117140000Y-67217911D01*
X117104068Y-67037271D01*
X117033586Y-66867111D01*
X117013408Y-66836911D01*
X119715000Y-66836911D01*
X119715000Y-67021089D01*
X119750932Y-67201729D01*
X119821414Y-67371889D01*
X119923738Y-67525028D01*
X120053972Y-67655262D01*
X120207111Y-67757586D01*
X120377271Y-67828068D01*
X120557911Y-67864000D01*
X120742089Y-67864000D01*
X120922729Y-67828068D01*
X121092889Y-67757586D01*
X121246028Y-67655262D01*
X121376262Y-67525028D01*
X121478586Y-67371889D01*
X121549068Y-67201729D01*
X121585000Y-67021089D01*
X121585000Y-66836911D01*
X121549068Y-66656271D01*
X121478586Y-66486111D01*
X121376262Y-66332972D01*
X121246028Y-66202738D01*
X121092889Y-66100414D01*
X120922729Y-66029932D01*
X120742089Y-65994000D01*
X120557911Y-65994000D01*
X120377271Y-66029932D01*
X120207111Y-66100414D01*
X120053972Y-66202738D01*
X119923738Y-66332972D01*
X119821414Y-66486111D01*
X119750932Y-66656271D01*
X119715000Y-66836911D01*
X117013408Y-66836911D01*
X116941600Y-66729444D01*
X116941600Y-65623391D01*
X129032000Y-65623391D01*
X129032000Y-65948609D01*
X129095447Y-66267579D01*
X129219903Y-66568042D01*
X129400585Y-66838451D01*
X129630549Y-67068415D01*
X129707003Y-67119500D01*
X129630549Y-67170585D01*
X129400585Y-67400549D01*
X129219903Y-67670958D01*
X129095447Y-67971421D01*
X129032000Y-68290391D01*
X129032000Y-68615609D01*
X129095447Y-68934579D01*
X129219903Y-69235042D01*
X129400585Y-69505451D01*
X129630549Y-69735415D01*
X129802037Y-69850000D01*
X129630549Y-69964585D01*
X129400585Y-70194549D01*
X129219903Y-70464958D01*
X129095447Y-70765421D01*
X129032000Y-71084391D01*
X129032000Y-71409609D01*
X129095447Y-71728579D01*
X129219903Y-72029042D01*
X129400585Y-72299451D01*
X129630549Y-72529415D01*
X129707003Y-72580500D01*
X129630549Y-72631585D01*
X129400585Y-72861549D01*
X129219903Y-73131958D01*
X129095447Y-73432421D01*
X129032000Y-73751391D01*
X129032000Y-74076609D01*
X129095447Y-74395579D01*
X129219903Y-74696042D01*
X129400585Y-74966451D01*
X129630549Y-75196415D01*
X129900958Y-75377097D01*
X130201421Y-75501553D01*
X130520391Y-75565000D01*
X130845609Y-75565000D01*
X131164579Y-75501553D01*
X131465042Y-75377097D01*
X131735451Y-75196415D01*
X131965415Y-74966451D01*
X132146097Y-74696042D01*
X132270553Y-74395579D01*
X132334000Y-74076609D01*
X132334000Y-73751391D01*
X132270553Y-73432421D01*
X132146097Y-73131958D01*
X131965415Y-72861549D01*
X131735451Y-72631585D01*
X131658997Y-72580500D01*
X131735451Y-72529415D01*
X131965415Y-72299451D01*
X132146097Y-72029042D01*
X132270553Y-71728579D01*
X132334000Y-71409609D01*
X132334000Y-71084391D01*
X132270553Y-70765421D01*
X132146097Y-70464958D01*
X131965415Y-70194549D01*
X131735451Y-69964585D01*
X131563963Y-69850000D01*
X131735451Y-69735415D01*
X131965415Y-69505451D01*
X132146097Y-69235042D01*
X132270553Y-68934579D01*
X132334000Y-68615609D01*
X132334000Y-68290391D01*
X132270553Y-67971421D01*
X132146097Y-67670958D01*
X131965415Y-67400549D01*
X131735451Y-67170585D01*
X131658997Y-67119500D01*
X131735451Y-67068415D01*
X131965415Y-66838451D01*
X132146097Y-66568042D01*
X132270553Y-66267579D01*
X132334000Y-65948609D01*
X132334000Y-65623391D01*
X132270553Y-65304421D01*
X132146097Y-65003958D01*
X131965415Y-64733549D01*
X131735451Y-64503585D01*
X131465042Y-64322903D01*
X131164579Y-64198447D01*
X130845609Y-64135000D01*
X130520391Y-64135000D01*
X130201421Y-64198447D01*
X129900958Y-64322903D01*
X129630549Y-64503585D01*
X129400585Y-64733549D01*
X129219903Y-65003958D01*
X129095447Y-65304421D01*
X129032000Y-65623391D01*
X116941600Y-65623391D01*
X116941600Y-64842556D01*
X117033586Y-64704889D01*
X117104068Y-64534729D01*
X117127088Y-64419000D01*
X125061928Y-64419000D01*
X125074188Y-64543482D01*
X125110498Y-64663180D01*
X125169463Y-64773494D01*
X125248815Y-64870185D01*
X125345506Y-64949537D01*
X125455820Y-65008502D01*
X125575518Y-65044812D01*
X125700000Y-65057072D01*
X126714250Y-65054000D01*
X126873000Y-64895250D01*
X126873000Y-63246000D01*
X127127000Y-63246000D01*
X127127000Y-64895250D01*
X127285750Y-65054000D01*
X128300000Y-65057072D01*
X128424482Y-65044812D01*
X128544180Y-65008502D01*
X128654494Y-64949537D01*
X128751185Y-64870185D01*
X128830537Y-64773494D01*
X128889502Y-64663180D01*
X128925812Y-64543482D01*
X128938072Y-64419000D01*
X128935000Y-63404750D01*
X128776250Y-63246000D01*
X127127000Y-63246000D01*
X126873000Y-63246000D01*
X125223750Y-63246000D01*
X125065000Y-63404750D01*
X125061928Y-64419000D01*
X117127088Y-64419000D01*
X117140000Y-64354089D01*
X117140000Y-64169911D01*
X117104068Y-63989271D01*
X117033586Y-63819111D01*
X116931262Y-63665972D01*
X116801028Y-63535738D01*
X116647889Y-63433414D01*
X116477729Y-63362932D01*
X116297089Y-63327000D01*
X116112911Y-63327000D01*
X115932271Y-63362932D01*
X115762111Y-63433414D01*
X115608972Y-63535738D01*
X115478738Y-63665972D01*
X115376414Y-63819111D01*
X115305932Y-63989271D01*
X115270000Y-64169911D01*
X105610626Y-64169911D01*
X107495268Y-62285269D01*
X107523374Y-62262203D01*
X107615424Y-62150041D01*
X107683822Y-62022077D01*
X107725942Y-61883227D01*
X107732267Y-61819000D01*
X125061928Y-61819000D01*
X125065000Y-62833250D01*
X125223750Y-62992000D01*
X126873000Y-62992000D01*
X126873000Y-61342750D01*
X127127000Y-61342750D01*
X127127000Y-62992000D01*
X128776250Y-62992000D01*
X128935000Y-62833250D01*
X128938072Y-61819000D01*
X128925812Y-61694518D01*
X128889502Y-61574820D01*
X128830537Y-61464506D01*
X128751185Y-61367815D01*
X128654494Y-61288463D01*
X128544180Y-61229498D01*
X128424482Y-61193188D01*
X128300000Y-61180928D01*
X127285750Y-61184000D01*
X127127000Y-61342750D01*
X126873000Y-61342750D01*
X126714250Y-61184000D01*
X125700000Y-61180928D01*
X125575518Y-61193188D01*
X125455820Y-61229498D01*
X125345506Y-61288463D01*
X125248815Y-61367815D01*
X125169463Y-61464506D01*
X125110498Y-61574820D01*
X125074188Y-61694518D01*
X125061928Y-61819000D01*
X107732267Y-61819000D01*
X107736600Y-61775014D01*
X107736600Y-61775005D01*
X107740163Y-61738829D01*
X107736600Y-61702653D01*
X107736600Y-60205109D01*
X110093290Y-57848419D01*
X125065000Y-57848419D01*
X125065000Y-58229581D01*
X125139361Y-58603419D01*
X125285225Y-58955566D01*
X125496987Y-59272491D01*
X125766509Y-59542013D01*
X126083434Y-59753775D01*
X126435581Y-59899639D01*
X126809419Y-59974000D01*
X127190581Y-59974000D01*
X127564419Y-59899639D01*
X127916566Y-59753775D01*
X128233491Y-59542013D01*
X128503013Y-59272491D01*
X128714775Y-58955566D01*
X128860639Y-58603419D01*
X128935000Y-58229581D01*
X128935000Y-57848419D01*
X128860639Y-57474581D01*
X128714775Y-57122434D01*
X128503013Y-56805509D01*
X128233491Y-56535987D01*
X127916566Y-56324225D01*
X127564419Y-56178361D01*
X127190581Y-56104000D01*
X126809419Y-56104000D01*
X126435581Y-56178361D01*
X126083434Y-56324225D01*
X125766509Y-56535987D01*
X125496987Y-56805509D01*
X125285225Y-57122434D01*
X125139361Y-57474581D01*
X125065000Y-57848419D01*
X110093290Y-57848419D01*
X112024100Y-55917610D01*
X123782807Y-55917610D01*
X123818990Y-55921174D01*
X123855173Y-55917610D01*
X123855176Y-55917610D01*
X123963389Y-55906952D01*
X124102239Y-55864832D01*
X124230203Y-55796434D01*
X124342365Y-55704385D01*
X124365436Y-55676274D01*
X126695273Y-53346437D01*
X126723374Y-53323375D01*
X126746437Y-53295273D01*
X126746442Y-53295268D01*
X126815424Y-53211213D01*
X126832108Y-53180000D01*
X126883822Y-53083249D01*
X126925942Y-52944399D01*
X126930524Y-52897873D01*
X127146632Y-52753475D01*
X127353475Y-52546632D01*
X127470000Y-52372240D01*
X127586525Y-52546632D01*
X127793368Y-52753475D01*
X128036589Y-52915990D01*
X128306842Y-53027932D01*
X128593740Y-53085000D01*
X128886260Y-53085000D01*
X129173158Y-53027932D01*
X129443411Y-52915990D01*
X129686632Y-52753475D01*
X129893475Y-52546632D01*
X130015195Y-52364466D01*
X130084822Y-52481355D01*
X130279731Y-52697588D01*
X130513080Y-52871641D01*
X130775901Y-52996825D01*
X130923110Y-53041476D01*
X131153000Y-52920155D01*
X131153000Y-51727000D01*
X131133000Y-51727000D01*
X131133000Y-51473000D01*
X131153000Y-51473000D01*
X131153000Y-51453000D01*
X131407000Y-51453000D01*
X131407000Y-51473000D01*
X131427000Y-51473000D01*
X131427000Y-51727000D01*
X131407000Y-51727000D01*
X131407000Y-52920155D01*
X131636890Y-53041476D01*
X131784099Y-52996825D01*
X132046920Y-52871641D01*
X132280269Y-52697588D01*
X132373000Y-52594712D01*
X132373000Y-91973000D01*
X124600000Y-91973000D01*
X124575224Y-91975440D01*
X124551399Y-91982667D01*
X124529443Y-91994403D01*
X124510197Y-92010197D01*
X124494403Y-92029443D01*
X124482667Y-92051399D01*
X124475440Y-92075224D01*
X124473000Y-92100000D01*
X124473000Y-99873000D01*
X62527000Y-99873000D01*
X62527000Y-93526000D01*
X63356928Y-93526000D01*
X63356928Y-95726000D01*
X63369188Y-95850482D01*
X63405498Y-95970180D01*
X63464463Y-96080494D01*
X63543815Y-96177185D01*
X63640506Y-96256537D01*
X63750820Y-96315502D01*
X63870518Y-96351812D01*
X63995000Y-96364072D01*
X66195000Y-96364072D01*
X66319482Y-96351812D01*
X66439180Y-96315502D01*
X66549494Y-96256537D01*
X66646185Y-96177185D01*
X66712557Y-96096310D01*
X66813169Y-96163537D01*
X67128919Y-96294325D01*
X67464117Y-96361000D01*
X67805883Y-96361000D01*
X68141081Y-96294325D01*
X68456831Y-96163537D01*
X68740998Y-95973663D01*
X68905000Y-95809661D01*
X69069002Y-95973663D01*
X69353169Y-96163537D01*
X69668919Y-96294325D01*
X70004117Y-96361000D01*
X70345883Y-96361000D01*
X70681081Y-96294325D01*
X70996831Y-96163537D01*
X71280998Y-95973663D01*
X71421949Y-95832712D01*
X71687893Y-95832712D01*
X71795726Y-96107338D01*
X72102384Y-96258216D01*
X72432585Y-96346369D01*
X72773639Y-96368409D01*
X73112439Y-96323489D01*
X73435966Y-96213336D01*
X73634274Y-96107338D01*
X73742107Y-95832712D01*
X72715000Y-94805605D01*
X71687893Y-95832712D01*
X71421949Y-95832712D01*
X71522663Y-95731998D01*
X71710469Y-95450926D01*
X72535395Y-94626000D01*
X72894605Y-94626000D01*
X73921712Y-95653107D01*
X74196338Y-95545274D01*
X74347216Y-95238616D01*
X74435369Y-94908415D01*
X74457409Y-94567361D01*
X74412489Y-94228561D01*
X74302336Y-93905034D01*
X74196338Y-93706726D01*
X73921712Y-93598893D01*
X72894605Y-94626000D01*
X72535395Y-94626000D01*
X71710469Y-93801074D01*
X71522663Y-93520002D01*
X71421949Y-93419288D01*
X71687893Y-93419288D01*
X72715000Y-94446395D01*
X73742107Y-93419288D01*
X73695269Y-93300000D01*
X76061928Y-93300000D01*
X76061928Y-95900000D01*
X76074188Y-96024482D01*
X76110498Y-96144180D01*
X76169463Y-96254494D01*
X76248815Y-96351185D01*
X76345506Y-96430537D01*
X76455820Y-96489502D01*
X76575518Y-96525812D01*
X76700000Y-96538072D01*
X79300000Y-96538072D01*
X79424482Y-96525812D01*
X79544180Y-96489502D01*
X79654494Y-96430537D01*
X79751185Y-96351185D01*
X79830537Y-96254494D01*
X79889502Y-96144180D01*
X79925812Y-96024482D01*
X79938072Y-95900000D01*
X79938072Y-94409419D01*
X81145000Y-94409419D01*
X81145000Y-94790581D01*
X81219361Y-95164419D01*
X81365225Y-95516566D01*
X81576987Y-95833491D01*
X81846509Y-96103013D01*
X82163434Y-96314775D01*
X82515581Y-96460639D01*
X82889419Y-96535000D01*
X83270581Y-96535000D01*
X83644419Y-96460639D01*
X83996566Y-96314775D01*
X84313491Y-96103013D01*
X84583013Y-95833491D01*
X84794775Y-95516566D01*
X84940639Y-95164419D01*
X85015000Y-94790581D01*
X85015000Y-94409419D01*
X84940639Y-94035581D01*
X84794775Y-93683434D01*
X84583013Y-93366509D01*
X84516504Y-93300000D01*
X87661928Y-93300000D01*
X87661928Y-95900000D01*
X87674188Y-96024482D01*
X87710498Y-96144180D01*
X87769463Y-96254494D01*
X87848815Y-96351185D01*
X87945506Y-96430537D01*
X88055820Y-96489502D01*
X88175518Y-96525812D01*
X88300000Y-96538072D01*
X90900000Y-96538072D01*
X91024482Y-96525812D01*
X91144180Y-96489502D01*
X91254494Y-96430537D01*
X91351185Y-96351185D01*
X91430537Y-96254494D01*
X91489502Y-96144180D01*
X91525812Y-96024482D01*
X91538072Y-95900000D01*
X91538072Y-94409419D01*
X92745000Y-94409419D01*
X92745000Y-94790581D01*
X92819361Y-95164419D01*
X92965225Y-95516566D01*
X93176987Y-95833491D01*
X93446509Y-96103013D01*
X93763434Y-96314775D01*
X94115581Y-96460639D01*
X94489419Y-96535000D01*
X94870581Y-96535000D01*
X95244419Y-96460639D01*
X95596566Y-96314775D01*
X95913491Y-96103013D01*
X96183013Y-95833491D01*
X96394775Y-95516566D01*
X96540639Y-95164419D01*
X96615000Y-94790581D01*
X96615000Y-94409419D01*
X96540639Y-94035581D01*
X96394775Y-93683434D01*
X96183013Y-93366509D01*
X96131504Y-93315000D01*
X99256928Y-93315000D01*
X99256928Y-95915000D01*
X99269188Y-96039482D01*
X99305498Y-96159180D01*
X99364463Y-96269494D01*
X99443815Y-96366185D01*
X99540506Y-96445537D01*
X99650820Y-96504502D01*
X99770518Y-96540812D01*
X99895000Y-96553072D01*
X102495000Y-96553072D01*
X102619482Y-96540812D01*
X102739180Y-96504502D01*
X102849494Y-96445537D01*
X102946185Y-96366185D01*
X103025537Y-96269494D01*
X103084502Y-96159180D01*
X103120812Y-96039482D01*
X103133072Y-95915000D01*
X103133072Y-94424419D01*
X104340000Y-94424419D01*
X104340000Y-94805581D01*
X104414361Y-95179419D01*
X104560225Y-95531566D01*
X104771987Y-95848491D01*
X105041509Y-96118013D01*
X105358434Y-96329775D01*
X105710581Y-96475639D01*
X106084419Y-96550000D01*
X106465581Y-96550000D01*
X106839419Y-96475639D01*
X107191566Y-96329775D01*
X107508491Y-96118013D01*
X107778013Y-95848491D01*
X107989775Y-95531566D01*
X108135639Y-95179419D01*
X108210000Y-94805581D01*
X108210000Y-94424419D01*
X108135639Y-94050581D01*
X107989775Y-93698434D01*
X107778013Y-93381509D01*
X107711504Y-93315000D01*
X110813928Y-93315000D01*
X110813928Y-95915000D01*
X110826188Y-96039482D01*
X110862498Y-96159180D01*
X110921463Y-96269494D01*
X111000815Y-96366185D01*
X111097506Y-96445537D01*
X111207820Y-96504502D01*
X111327518Y-96540812D01*
X111452000Y-96553072D01*
X114052000Y-96553072D01*
X114176482Y-96540812D01*
X114296180Y-96504502D01*
X114406494Y-96445537D01*
X114503185Y-96366185D01*
X114582537Y-96269494D01*
X114641502Y-96159180D01*
X114677812Y-96039482D01*
X114690072Y-95915000D01*
X114690072Y-94424419D01*
X115897000Y-94424419D01*
X115897000Y-94805581D01*
X115971361Y-95179419D01*
X116117225Y-95531566D01*
X116328987Y-95848491D01*
X116598509Y-96118013D01*
X116915434Y-96329775D01*
X117267581Y-96475639D01*
X117641419Y-96550000D01*
X118022581Y-96550000D01*
X118396419Y-96475639D01*
X118748566Y-96329775D01*
X119065491Y-96118013D01*
X119335013Y-95848491D01*
X119546775Y-95531566D01*
X119692639Y-95179419D01*
X119767000Y-94805581D01*
X119767000Y-94424419D01*
X119692639Y-94050581D01*
X119546775Y-93698434D01*
X119335013Y-93381509D01*
X119065491Y-93111987D01*
X118748566Y-92900225D01*
X118396419Y-92754361D01*
X118022581Y-92680000D01*
X117641419Y-92680000D01*
X117267581Y-92754361D01*
X116915434Y-92900225D01*
X116598509Y-93111987D01*
X116328987Y-93381509D01*
X116117225Y-93698434D01*
X115971361Y-94050581D01*
X115897000Y-94424419D01*
X114690072Y-94424419D01*
X114690072Y-93315000D01*
X114677812Y-93190518D01*
X114641502Y-93070820D01*
X114582537Y-92960506D01*
X114503185Y-92863815D01*
X114406494Y-92784463D01*
X114296180Y-92725498D01*
X114176482Y-92689188D01*
X114052000Y-92676928D01*
X111452000Y-92676928D01*
X111327518Y-92689188D01*
X111207820Y-92725498D01*
X111097506Y-92784463D01*
X111000815Y-92863815D01*
X110921463Y-92960506D01*
X110862498Y-93070820D01*
X110826188Y-93190518D01*
X110813928Y-93315000D01*
X107711504Y-93315000D01*
X107508491Y-93111987D01*
X107191566Y-92900225D01*
X106839419Y-92754361D01*
X106465581Y-92680000D01*
X106084419Y-92680000D01*
X105710581Y-92754361D01*
X105358434Y-92900225D01*
X105041509Y-93111987D01*
X104771987Y-93381509D01*
X104560225Y-93698434D01*
X104414361Y-94050581D01*
X104340000Y-94424419D01*
X103133072Y-94424419D01*
X103133072Y-93315000D01*
X103120812Y-93190518D01*
X103084502Y-93070820D01*
X103025537Y-92960506D01*
X102946185Y-92863815D01*
X102849494Y-92784463D01*
X102739180Y-92725498D01*
X102619482Y-92689188D01*
X102495000Y-92676928D01*
X99895000Y-92676928D01*
X99770518Y-92689188D01*
X99650820Y-92725498D01*
X99540506Y-92784463D01*
X99443815Y-92863815D01*
X99364463Y-92960506D01*
X99305498Y-93070820D01*
X99269188Y-93190518D01*
X99256928Y-93315000D01*
X96131504Y-93315000D01*
X95913491Y-93096987D01*
X95596566Y-92885225D01*
X95244419Y-92739361D01*
X94870581Y-92665000D01*
X94489419Y-92665000D01*
X94115581Y-92739361D01*
X93763434Y-92885225D01*
X93446509Y-93096987D01*
X93176987Y-93366509D01*
X92965225Y-93683434D01*
X92819361Y-94035581D01*
X92745000Y-94409419D01*
X91538072Y-94409419D01*
X91538072Y-93300000D01*
X91525812Y-93175518D01*
X91489502Y-93055820D01*
X91430537Y-92945506D01*
X91351185Y-92848815D01*
X91254494Y-92769463D01*
X91144180Y-92710498D01*
X91024482Y-92674188D01*
X90900000Y-92661928D01*
X88300000Y-92661928D01*
X88175518Y-92674188D01*
X88055820Y-92710498D01*
X87945506Y-92769463D01*
X87848815Y-92848815D01*
X87769463Y-92945506D01*
X87710498Y-93055820D01*
X87674188Y-93175518D01*
X87661928Y-93300000D01*
X84516504Y-93300000D01*
X84313491Y-93096987D01*
X83996566Y-92885225D01*
X83644419Y-92739361D01*
X83270581Y-92665000D01*
X82889419Y-92665000D01*
X82515581Y-92739361D01*
X82163434Y-92885225D01*
X81846509Y-93096987D01*
X81576987Y-93366509D01*
X81365225Y-93683434D01*
X81219361Y-94035581D01*
X81145000Y-94409419D01*
X79938072Y-94409419D01*
X79938072Y-93300000D01*
X79925812Y-93175518D01*
X79889502Y-93055820D01*
X79830537Y-92945506D01*
X79751185Y-92848815D01*
X79654494Y-92769463D01*
X79544180Y-92710498D01*
X79424482Y-92674188D01*
X79300000Y-92661928D01*
X76700000Y-92661928D01*
X76575518Y-92674188D01*
X76455820Y-92710498D01*
X76345506Y-92769463D01*
X76248815Y-92848815D01*
X76169463Y-92945506D01*
X76110498Y-93055820D01*
X76074188Y-93175518D01*
X76061928Y-93300000D01*
X73695269Y-93300000D01*
X73634274Y-93144662D01*
X73327616Y-92993784D01*
X72997415Y-92905631D01*
X72656361Y-92883591D01*
X72317561Y-92928511D01*
X71994034Y-93038664D01*
X71795726Y-93144662D01*
X71687893Y-93419288D01*
X71421949Y-93419288D01*
X71280998Y-93278337D01*
X70996831Y-93088463D01*
X70681081Y-92957675D01*
X70345883Y-92891000D01*
X70004117Y-92891000D01*
X69668919Y-92957675D01*
X69353169Y-93088463D01*
X69069002Y-93278337D01*
X68905000Y-93442339D01*
X68740998Y-93278337D01*
X68456831Y-93088463D01*
X68371600Y-93053159D01*
X68371600Y-92358115D01*
X68442889Y-92328586D01*
X68596028Y-92226262D01*
X68726262Y-92096028D01*
X68828586Y-91942889D01*
X68899068Y-91772729D01*
X68935000Y-91592089D01*
X68935000Y-91407911D01*
X68899068Y-91227271D01*
X68828586Y-91057111D01*
X68726262Y-90903972D01*
X68596028Y-90773738D01*
X68442889Y-90671414D01*
X68272729Y-90600932D01*
X68092089Y-90565000D01*
X67907911Y-90565000D01*
X67727271Y-90600932D01*
X67557111Y-90671414D01*
X67403972Y-90773738D01*
X67273738Y-90903972D01*
X67171414Y-91057111D01*
X67100932Y-91227271D01*
X67067487Y-91395408D01*
X67019576Y-91453788D01*
X66951178Y-91581752D01*
X66909058Y-91720602D01*
X66902888Y-91783248D01*
X66894836Y-91865000D01*
X66898400Y-91901184D01*
X66898400Y-93053159D01*
X66813169Y-93088463D01*
X66712557Y-93155690D01*
X66646185Y-93074815D01*
X66549494Y-92995463D01*
X66439180Y-92936498D01*
X66319482Y-92900188D01*
X66195000Y-92887928D01*
X63995000Y-92887928D01*
X63870518Y-92900188D01*
X63750820Y-92936498D01*
X63640506Y-92995463D01*
X63543815Y-93074815D01*
X63464463Y-93171506D01*
X63405498Y-93281820D01*
X63369188Y-93401518D01*
X63356928Y-93526000D01*
X62527000Y-93526000D01*
X62527000Y-91900000D01*
X62524560Y-91875224D01*
X62517333Y-91851399D01*
X62505597Y-91829443D01*
X62489803Y-91810197D01*
X62470557Y-91794403D01*
X62448601Y-91782667D01*
X62424776Y-91775440D01*
X62400000Y-91773000D01*
X55127000Y-91773000D01*
X55127000Y-89326712D01*
X58472893Y-89326712D01*
X58580726Y-89601338D01*
X58887384Y-89752216D01*
X59217585Y-89840369D01*
X59558639Y-89862409D01*
X59897439Y-89817489D01*
X60220966Y-89707336D01*
X60419274Y-89601338D01*
X60527107Y-89326712D01*
X59500000Y-88299605D01*
X58472893Y-89326712D01*
X55127000Y-89326712D01*
X55127000Y-88178639D01*
X57757591Y-88178639D01*
X57802511Y-88517439D01*
X57912664Y-88840966D01*
X58018662Y-89039274D01*
X58293288Y-89147107D01*
X59320395Y-88120000D01*
X59679605Y-88120000D01*
X60706712Y-89147107D01*
X60981338Y-89039274D01*
X61132216Y-88732616D01*
X61220369Y-88402415D01*
X61242409Y-88061361D01*
X61197489Y-87722561D01*
X61087336Y-87399034D01*
X60981338Y-87200726D01*
X60706712Y-87092893D01*
X59679605Y-88120000D01*
X59320395Y-88120000D01*
X58293288Y-87092893D01*
X58018662Y-87200726D01*
X57867784Y-87507384D01*
X57779631Y-87837585D01*
X57757591Y-88178639D01*
X55127000Y-88178639D01*
X55127000Y-77718599D01*
X55135724Y-77742976D01*
X55257631Y-77930764D01*
X55413831Y-78091161D01*
X55598322Y-78218003D01*
X55804013Y-78306415D01*
X56023000Y-78353000D01*
X56323000Y-78353000D01*
X56323000Y-77345000D01*
X56577000Y-77345000D01*
X56577000Y-78353000D01*
X56877000Y-78353000D01*
X57095987Y-78306415D01*
X57301678Y-78218003D01*
X57486169Y-78091161D01*
X57642369Y-77930764D01*
X57764276Y-77742976D01*
X57844119Y-77519874D01*
X58985881Y-77519874D01*
X59065724Y-77742976D01*
X59187631Y-77930764D01*
X59343831Y-78091161D01*
X59528322Y-78218003D01*
X59734013Y-78306415D01*
X59953000Y-78353000D01*
X60503000Y-78353000D01*
X60503000Y-77345000D01*
X60757000Y-77345000D01*
X60757000Y-78353000D01*
X61307000Y-78353000D01*
X61525987Y-78306415D01*
X61731678Y-78218003D01*
X61916169Y-78091161D01*
X62072369Y-77930764D01*
X62194276Y-77742976D01*
X62274119Y-77519874D01*
X62147954Y-77345000D01*
X60757000Y-77345000D01*
X60503000Y-77345000D01*
X59112046Y-77345000D01*
X58985881Y-77519874D01*
X57844119Y-77519874D01*
X57717954Y-77345000D01*
X56577000Y-77345000D01*
X56323000Y-77345000D01*
X56303000Y-77345000D01*
X56303000Y-77091000D01*
X56323000Y-77091000D01*
X56323000Y-76083000D01*
X56577000Y-76083000D01*
X56577000Y-77091000D01*
X57717954Y-77091000D01*
X57844119Y-76916126D01*
X58985881Y-76916126D01*
X59112046Y-77091000D01*
X60503000Y-77091000D01*
X60503000Y-77071000D01*
X60757000Y-77071000D01*
X60757000Y-77091000D01*
X62147954Y-77091000D01*
X62274119Y-76916126D01*
X62194276Y-76693024D01*
X62072369Y-76505236D01*
X61916169Y-76344839D01*
X61731678Y-76217997D01*
X61525987Y-76129585D01*
X61307000Y-76083000D01*
X61016904Y-76083000D01*
X61023108Y-76068022D01*
X61060000Y-75882552D01*
X61060000Y-75693448D01*
X61023108Y-75507978D01*
X60950741Y-75333269D01*
X60845681Y-75176036D01*
X60711964Y-75042319D01*
X60554731Y-74937259D01*
X60380022Y-74864892D01*
X60194552Y-74828000D01*
X60005448Y-74828000D01*
X59819978Y-74864892D01*
X59645269Y-74937259D01*
X59488036Y-75042319D01*
X59354319Y-75176036D01*
X59249259Y-75333269D01*
X59176892Y-75507978D01*
X59140000Y-75693448D01*
X59140000Y-75882552D01*
X59176892Y-76068022D01*
X59249259Y-76242731D01*
X59328206Y-76360884D01*
X59187631Y-76505236D01*
X59065724Y-76693024D01*
X58985881Y-76916126D01*
X57844119Y-76916126D01*
X57764276Y-76693024D01*
X57642369Y-76505236D01*
X57486169Y-76344839D01*
X57301678Y-76217997D01*
X57095987Y-76129585D01*
X56877000Y-76083000D01*
X56577000Y-76083000D01*
X56323000Y-76083000D01*
X56023000Y-76083000D01*
X55804013Y-76129585D01*
X55598322Y-76217997D01*
X55413831Y-76344839D01*
X55257631Y-76505236D01*
X55135724Y-76693024D01*
X55127000Y-76717401D01*
X55127000Y-69078599D01*
X55135724Y-69102976D01*
X55257631Y-69290764D01*
X55413831Y-69451161D01*
X55598322Y-69578003D01*
X55804013Y-69666415D01*
X56023000Y-69713000D01*
X56323000Y-69713000D01*
X56323000Y-68705000D01*
X56577000Y-68705000D01*
X56577000Y-69713000D01*
X56877000Y-69713000D01*
X57095987Y-69666415D01*
X57301678Y-69578003D01*
X57486169Y-69451161D01*
X57642369Y-69290764D01*
X57764276Y-69102976D01*
X57844119Y-68879874D01*
X58985881Y-68879874D01*
X59065724Y-69102976D01*
X59187631Y-69290764D01*
X59328206Y-69435116D01*
X59249259Y-69553269D01*
X59176892Y-69727978D01*
X59140000Y-69913448D01*
X59140000Y-70102552D01*
X59176892Y-70288022D01*
X59249259Y-70462731D01*
X59354319Y-70619964D01*
X59488036Y-70753681D01*
X59645269Y-70858741D01*
X59819978Y-70931108D01*
X60005448Y-70968000D01*
X60194552Y-70968000D01*
X60380022Y-70931108D01*
X60554731Y-70858741D01*
X60711964Y-70753681D01*
X60845681Y-70619964D01*
X60950741Y-70462731D01*
X61023108Y-70288022D01*
X61060000Y-70102552D01*
X61060000Y-69913448D01*
X61023108Y-69727978D01*
X61016904Y-69713000D01*
X61307000Y-69713000D01*
X61525987Y-69666415D01*
X61731678Y-69578003D01*
X61916169Y-69451161D01*
X62072369Y-69290764D01*
X62194276Y-69102976D01*
X62274119Y-68879874D01*
X62147954Y-68705000D01*
X60757000Y-68705000D01*
X60757000Y-68725000D01*
X60503000Y-68725000D01*
X60503000Y-68705000D01*
X59112046Y-68705000D01*
X58985881Y-68879874D01*
X57844119Y-68879874D01*
X57717954Y-68705000D01*
X56577000Y-68705000D01*
X56323000Y-68705000D01*
X56303000Y-68705000D01*
X56303000Y-68451000D01*
X56323000Y-68451000D01*
X56323000Y-67443000D01*
X56577000Y-67443000D01*
X56577000Y-68451000D01*
X57717954Y-68451000D01*
X57844119Y-68276126D01*
X58985881Y-68276126D01*
X59112046Y-68451000D01*
X60503000Y-68451000D01*
X60503000Y-67443000D01*
X60757000Y-67443000D01*
X60757000Y-68451000D01*
X62147954Y-68451000D01*
X62274119Y-68276126D01*
X62194276Y-68053024D01*
X62072369Y-67865236D01*
X61916169Y-67704839D01*
X61731678Y-67577997D01*
X61525987Y-67489585D01*
X61307000Y-67443000D01*
X60757000Y-67443000D01*
X60503000Y-67443000D01*
X59953000Y-67443000D01*
X59734013Y-67489585D01*
X59528322Y-67577997D01*
X59343831Y-67704839D01*
X59187631Y-67865236D01*
X59065724Y-68053024D01*
X58985881Y-68276126D01*
X57844119Y-68276126D01*
X57764276Y-68053024D01*
X57642369Y-67865236D01*
X57486169Y-67704839D01*
X57301678Y-67577997D01*
X57095987Y-67489585D01*
X56877000Y-67443000D01*
X56577000Y-67443000D01*
X56323000Y-67443000D01*
X56023000Y-67443000D01*
X55804013Y-67489585D01*
X55598322Y-67577997D01*
X55413831Y-67704839D01*
X55257631Y-67865236D01*
X55135724Y-68053024D01*
X55127000Y-68077401D01*
X55127000Y-59887424D01*
X63057000Y-59887424D01*
X63057000Y-60112576D01*
X63100925Y-60333401D01*
X63187087Y-60541413D01*
X63312174Y-60728620D01*
X63471380Y-60887826D01*
X63658587Y-61012913D01*
X63866599Y-61099075D01*
X64087424Y-61143000D01*
X64312576Y-61143000D01*
X64533401Y-61099075D01*
X64741413Y-61012913D01*
X64928620Y-60887826D01*
X65087826Y-60728620D01*
X65212913Y-60541413D01*
X65299075Y-60333401D01*
X65343000Y-60112576D01*
X65343000Y-59887424D01*
X65299075Y-59666599D01*
X65212913Y-59458587D01*
X65087826Y-59271380D01*
X64928620Y-59112174D01*
X64741413Y-58987087D01*
X64533401Y-58900925D01*
X64312576Y-58857000D01*
X64087424Y-58857000D01*
X63866599Y-58900925D01*
X63658587Y-58987087D01*
X63471380Y-59112174D01*
X63312174Y-59271380D01*
X63187087Y-59458587D01*
X63100925Y-59666599D01*
X63057000Y-59887424D01*
X55127000Y-59887424D01*
X55127000Y-58787424D01*
X78157000Y-58787424D01*
X78157000Y-59012576D01*
X78200925Y-59233401D01*
X78287087Y-59441413D01*
X78412174Y-59628620D01*
X78571380Y-59787826D01*
X78758587Y-59912913D01*
X78966599Y-59999075D01*
X79187424Y-60043000D01*
X79412576Y-60043000D01*
X79633401Y-59999075D01*
X79841413Y-59912913D01*
X80028620Y-59787826D01*
X80187826Y-59628620D01*
X80312913Y-59441413D01*
X80399075Y-59233401D01*
X80443000Y-59012576D01*
X80443000Y-58787424D01*
X80399075Y-58566599D01*
X80312913Y-58358587D01*
X80187826Y-58171380D01*
X80028620Y-58012174D01*
X79841413Y-57887087D01*
X79633401Y-57800925D01*
X79412576Y-57757000D01*
X79187424Y-57757000D01*
X78966599Y-57800925D01*
X78758587Y-57887087D01*
X78571380Y-58012174D01*
X78412174Y-58171380D01*
X78287087Y-58358587D01*
X78200925Y-58566599D01*
X78157000Y-58787424D01*
X55127000Y-58787424D01*
X55127000Y-58227000D01*
X62400000Y-58227000D01*
X62424776Y-58224560D01*
X62448601Y-58217333D01*
X62470557Y-58205597D01*
X62489803Y-58189803D01*
X62505597Y-58170557D01*
X62517333Y-58148601D01*
X62524560Y-58124776D01*
X62527000Y-58100000D01*
X62527000Y-56907911D01*
X67765000Y-56907911D01*
X67765000Y-57092089D01*
X67800932Y-57272729D01*
X67871414Y-57442889D01*
X67973738Y-57596028D01*
X68103972Y-57726262D01*
X68257111Y-57828586D01*
X68427271Y-57899068D01*
X68607911Y-57935000D01*
X68792089Y-57935000D01*
X68972729Y-57899068D01*
X69142889Y-57828586D01*
X69296028Y-57726262D01*
X69298390Y-57723900D01*
X69401610Y-57723900D01*
X69403972Y-57726262D01*
X69557111Y-57828586D01*
X69727271Y-57899068D01*
X69907911Y-57935000D01*
X70092089Y-57935000D01*
X70272729Y-57899068D01*
X70442889Y-57828586D01*
X70596028Y-57726262D01*
X70726262Y-57596028D01*
X70828586Y-57442889D01*
X70899068Y-57272729D01*
X70935000Y-57092089D01*
X70935000Y-56907911D01*
X70899068Y-56727271D01*
X70828586Y-56557111D01*
X70726262Y-56403972D01*
X70596028Y-56273738D01*
X70442889Y-56171414D01*
X70272729Y-56100932D01*
X70092089Y-56065000D01*
X69907911Y-56065000D01*
X69727271Y-56100932D01*
X69557111Y-56171414D01*
X69403972Y-56273738D01*
X69401610Y-56276100D01*
X69298390Y-56276100D01*
X69296028Y-56273738D01*
X69142889Y-56171414D01*
X68972729Y-56100932D01*
X68792089Y-56065000D01*
X68607911Y-56065000D01*
X68427271Y-56100932D01*
X68257111Y-56171414D01*
X68103972Y-56273738D01*
X67973738Y-56403972D01*
X67871414Y-56557111D01*
X67800932Y-56727271D01*
X67765000Y-56907911D01*
X62527000Y-56907911D01*
X62527000Y-50627000D01*
X75391045Y-50627000D01*
X76374477Y-57019311D01*
G04 #@! TA.AperFunction,Conductor*
D27*
G36*
X76374477Y-57019311D02*
G01*
X76380656Y-57043429D01*
X76391422Y-57065877D01*
X76406360Y-57085794D01*
X76424897Y-57102413D01*
X76446320Y-57115097D01*
X76469806Y-57123358D01*
X76500000Y-57127000D01*
X105431291Y-57127000D01*
X104004732Y-58553559D01*
X103976626Y-58576625D01*
X103953560Y-58604731D01*
X103953558Y-58604733D01*
X103884576Y-58688788D01*
X103816178Y-58816753D01*
X103774059Y-58955602D01*
X103759836Y-59100000D01*
X103763401Y-59136193D01*
X103763400Y-61233719D01*
X103309705Y-61687415D01*
X103296028Y-61673738D01*
X103142889Y-61571414D01*
X102972729Y-61500932D01*
X102792089Y-61465000D01*
X102607911Y-61465000D01*
X102427271Y-61500932D01*
X102257111Y-61571414D01*
X102194727Y-61613098D01*
X102126729Y-61584932D01*
X101964340Y-61552630D01*
X101638445Y-61226736D01*
X101615375Y-61198625D01*
X101503213Y-61106576D01*
X101375249Y-61038178D01*
X101236399Y-60996058D01*
X101128186Y-60985400D01*
X101128183Y-60985400D01*
X101092000Y-60981836D01*
X101055817Y-60985400D01*
X74727109Y-60985400D01*
X73346446Y-59604737D01*
X73323375Y-59576625D01*
X73211213Y-59484576D01*
X73083249Y-59416178D01*
X72944399Y-59374058D01*
X72836186Y-59363400D01*
X72836183Y-59363400D01*
X72800000Y-59359836D01*
X72763817Y-59363400D01*
X68836175Y-59363400D01*
X68799999Y-59359837D01*
X68763823Y-59363400D01*
X68763814Y-59363400D01*
X68655601Y-59374058D01*
X68516751Y-59416178D01*
X68388787Y-59484576D01*
X68276625Y-59576625D01*
X68253554Y-59604737D01*
X67604732Y-60253559D01*
X67576625Y-60276626D01*
X67484576Y-60388788D01*
X67416178Y-60516752D01*
X67374058Y-60655602D01*
X67363400Y-60763814D01*
X67359836Y-60800000D01*
X67363400Y-60836184D01*
X67363401Y-61419443D01*
X67271414Y-61557111D01*
X67200932Y-61727271D01*
X67165000Y-61907911D01*
X67165000Y-62063400D01*
X65736186Y-62063400D01*
X65700000Y-62059836D01*
X65663814Y-62063400D01*
X65555601Y-62074058D01*
X65416751Y-62116178D01*
X65330646Y-62162202D01*
X65288787Y-62184576D01*
X65241512Y-62223374D01*
X65176625Y-62276625D01*
X65153559Y-62304731D01*
X64404732Y-63053559D01*
X64376626Y-63076625D01*
X64353560Y-63104731D01*
X64353558Y-63104733D01*
X64284576Y-63188788D01*
X64216178Y-63316753D01*
X64213070Y-63327000D01*
X64180790Y-63433414D01*
X64174059Y-63455602D01*
X64159836Y-63600000D01*
X64163401Y-63636193D01*
X64163400Y-65826458D01*
X64100932Y-65977271D01*
X64065000Y-66157911D01*
X64065000Y-66342089D01*
X64100932Y-66522729D01*
X64171414Y-66692889D01*
X64273738Y-66846028D01*
X64403972Y-66976262D01*
X64557111Y-67078586D01*
X64727271Y-67149068D01*
X64907911Y-67185000D01*
X65092089Y-67185000D01*
X65272729Y-67149068D01*
X65442889Y-67078586D01*
X65596028Y-66976262D01*
X65726262Y-66846028D01*
X65828586Y-66692889D01*
X65899068Y-66522729D01*
X65935000Y-66342089D01*
X65935000Y-66157911D01*
X65899068Y-65977271D01*
X65828586Y-65807111D01*
X65726262Y-65653972D01*
X65636600Y-65564310D01*
X65636600Y-63905109D01*
X66005110Y-63536600D01*
X71221690Y-63536600D01*
X66689661Y-68068630D01*
X66527271Y-68100932D01*
X66357111Y-68171414D01*
X66203972Y-68273738D01*
X66073738Y-68403972D01*
X65971414Y-68557111D01*
X65900932Y-68727271D01*
X65865000Y-68907911D01*
X65865000Y-69092089D01*
X65900932Y-69272729D01*
X65971414Y-69442889D01*
X66073738Y-69596028D01*
X66203972Y-69726262D01*
X66357111Y-69828586D01*
X66527271Y-69899068D01*
X66707911Y-69935000D01*
X66892089Y-69935000D01*
X67072729Y-69899068D01*
X67242889Y-69828586D01*
X67396028Y-69726262D01*
X67526262Y-69596028D01*
X67628586Y-69442889D01*
X67699068Y-69272729D01*
X67731370Y-69110339D01*
X72405110Y-64436600D01*
X76708471Y-64436600D01*
X76612447Y-64668421D01*
X76549000Y-64987391D01*
X76549000Y-65312609D01*
X76612447Y-65631579D01*
X76736903Y-65932042D01*
X76917585Y-66202451D01*
X77147549Y-66432415D01*
X77417958Y-66613097D01*
X77718421Y-66737553D01*
X78037391Y-66801000D01*
X78362609Y-66801000D01*
X78681579Y-66737553D01*
X78982042Y-66613097D01*
X79252451Y-66432415D01*
X79482415Y-66202451D01*
X79663097Y-65932042D01*
X79787553Y-65631579D01*
X79851000Y-65312609D01*
X79851000Y-64987391D01*
X79787553Y-64668421D01*
X79663097Y-64367958D01*
X79482415Y-64097549D01*
X79252451Y-63867585D01*
X78993657Y-63694664D01*
X79096028Y-63626262D01*
X79226262Y-63496028D01*
X79328586Y-63342889D01*
X79399068Y-63172729D01*
X79435000Y-62992089D01*
X79435000Y-62966600D01*
X80067484Y-62966600D01*
X80000932Y-63127271D01*
X79965000Y-63307911D01*
X79965000Y-63492089D01*
X80000932Y-63672729D01*
X80071414Y-63842889D01*
X80142983Y-63950000D01*
X80071414Y-64057111D01*
X80000932Y-64227271D01*
X79965000Y-64407911D01*
X79965000Y-64592089D01*
X80000932Y-64772729D01*
X80071414Y-64942889D01*
X80173738Y-65096028D01*
X80227710Y-65150000D01*
X80173738Y-65203972D01*
X80071414Y-65357111D01*
X80000932Y-65527271D01*
X79965000Y-65707911D01*
X79965000Y-65892089D01*
X80000932Y-66072729D01*
X80071414Y-66242889D01*
X80173738Y-66396028D01*
X80303972Y-66526262D01*
X80308620Y-66529368D01*
X80207111Y-66571414D01*
X80053972Y-66673738D01*
X79923738Y-66803972D01*
X79821414Y-66957111D01*
X79818809Y-66963400D01*
X70986186Y-66963400D01*
X70950000Y-66959836D01*
X70913814Y-66963400D01*
X70805601Y-66974058D01*
X70666751Y-67016178D01*
X70538787Y-67084576D01*
X70426625Y-67176625D01*
X70403559Y-67204731D01*
X67954732Y-69653559D01*
X67926625Y-69676626D01*
X67903559Y-69704732D01*
X67903558Y-69704733D01*
X67896546Y-69713277D01*
X67834576Y-69788788D01*
X67766178Y-69916752D01*
X67724058Y-70055602D01*
X67713400Y-70163814D01*
X67709836Y-70200000D01*
X67713400Y-70236183D01*
X67713400Y-73127055D01*
X67612576Y-73107000D01*
X67387424Y-73107000D01*
X67166599Y-73150925D01*
X66958587Y-73237087D01*
X66771380Y-73362174D01*
X66612174Y-73521380D01*
X66487087Y-73708587D01*
X66446944Y-73805499D01*
X65612441Y-73805499D01*
X65635000Y-73692089D01*
X65635000Y-73507911D01*
X65599068Y-73327271D01*
X65528586Y-73157111D01*
X65436600Y-73019444D01*
X65436600Y-72836600D01*
X65819444Y-72836600D01*
X65957111Y-72928586D01*
X66127271Y-72999068D01*
X66307911Y-73035000D01*
X66492089Y-73035000D01*
X66672729Y-72999068D01*
X66842889Y-72928586D01*
X66996028Y-72826262D01*
X67126262Y-72696028D01*
X67228586Y-72542889D01*
X67299068Y-72372729D01*
X67335000Y-72192089D01*
X67335000Y-72007911D01*
X67299068Y-71827271D01*
X67228586Y-71657111D01*
X67126262Y-71503972D01*
X66996028Y-71373738D01*
X66842889Y-71271414D01*
X66672729Y-71200932D01*
X66492089Y-71165000D01*
X66307911Y-71165000D01*
X66127271Y-71200932D01*
X65957111Y-71271414D01*
X65819444Y-71363400D01*
X65123541Y-71363400D01*
X64972729Y-71300932D01*
X64792089Y-71265000D01*
X64752500Y-71265000D01*
X64752500Y-71249200D01*
X64852451Y-71182415D01*
X65082415Y-70952451D01*
X65263097Y-70682042D01*
X65387553Y-70381579D01*
X65451000Y-70062609D01*
X65451000Y-69737391D01*
X65387553Y-69418421D01*
X65263097Y-69117958D01*
X65082415Y-68847549D01*
X64852451Y-68617585D01*
X64582042Y-68436903D01*
X64281579Y-68312447D01*
X63962609Y-68249000D01*
X63637391Y-68249000D01*
X63318421Y-68312447D01*
X63017958Y-68436903D01*
X62747549Y-68617585D01*
X62517585Y-68847549D01*
X62336903Y-69117958D01*
X62212447Y-69418421D01*
X62149000Y-69737391D01*
X62149000Y-70062609D01*
X62212447Y-70381579D01*
X62336903Y-70682042D01*
X62517585Y-70952451D01*
X62747549Y-71182415D01*
X62847500Y-71249201D01*
X62847501Y-74253205D01*
X62842892Y-74300000D01*
X62861283Y-74486722D01*
X62915749Y-74666269D01*
X63001806Y-74827271D01*
X63004195Y-74831741D01*
X63123223Y-74976778D01*
X63159565Y-75006603D01*
X63551388Y-75398425D01*
X63581221Y-75434777D01*
X63726258Y-75553805D01*
X63891730Y-75642251D01*
X64060503Y-75693448D01*
X64071276Y-75696716D01*
X64257998Y-75715107D01*
X64304783Y-75710499D01*
X66945216Y-75710499D01*
X66992001Y-75715107D01*
X67038786Y-75710499D01*
X67178724Y-75696716D01*
X67358270Y-75642251D01*
X67523742Y-75553805D01*
X67668779Y-75434777D01*
X67698608Y-75398430D01*
X67713401Y-75383637D01*
X67713401Y-77694889D01*
X65629737Y-79778554D01*
X65629732Y-79778558D01*
X63104891Y-82303400D01*
X61072841Y-82303400D01*
X61037537Y-82218169D01*
X60970310Y-82117557D01*
X61051185Y-82051185D01*
X61130537Y-81954494D01*
X61189502Y-81844180D01*
X61225812Y-81724482D01*
X61238072Y-81600000D01*
X61238072Y-79400000D01*
X61225812Y-79275518D01*
X61189502Y-79155820D01*
X61130537Y-79045506D01*
X61051185Y-78948815D01*
X60954494Y-78869463D01*
X60844180Y-78810498D01*
X60724482Y-78774188D01*
X60600000Y-78761928D01*
X58400000Y-78761928D01*
X58275518Y-78774188D01*
X58155820Y-78810498D01*
X58045506Y-78869463D01*
X57948815Y-78948815D01*
X57869463Y-79045506D01*
X57810498Y-79155820D01*
X57774188Y-79275518D01*
X57761928Y-79400000D01*
X57761928Y-81600000D01*
X57774188Y-81724482D01*
X57810498Y-81844180D01*
X57869463Y-81954494D01*
X57948815Y-82051185D01*
X58029690Y-82117557D01*
X57962463Y-82218169D01*
X57831675Y-82533919D01*
X57765000Y-82869117D01*
X57765000Y-83210883D01*
X57831675Y-83546081D01*
X57962463Y-83861831D01*
X58152337Y-84145998D01*
X58316339Y-84310000D01*
X58152337Y-84474002D01*
X57962463Y-84758169D01*
X57831675Y-85073919D01*
X57765000Y-85409117D01*
X57765000Y-85750883D01*
X57831675Y-86086081D01*
X57962463Y-86401831D01*
X58152337Y-86685998D01*
X58394002Y-86927663D01*
X58675074Y-87115469D01*
X59500000Y-87940395D01*
X60324926Y-87115469D01*
X60605998Y-86927663D01*
X60640959Y-86892702D01*
X66186903Y-86892702D01*
X66258486Y-87136671D01*
X66513996Y-87257571D01*
X66788184Y-87326300D01*
X67070512Y-87340217D01*
X67350130Y-87298787D01*
X67616292Y-87203603D01*
X67741514Y-87136671D01*
X67813097Y-86892702D01*
X67000000Y-86079605D01*
X66186903Y-86892702D01*
X60640959Y-86892702D01*
X60847663Y-86685998D01*
X61037537Y-86401831D01*
X61072841Y-86316600D01*
X61372645Y-86316600D01*
X61408828Y-86320164D01*
X61445011Y-86316600D01*
X61445014Y-86316600D01*
X61553227Y-86305942D01*
X61692077Y-86263822D01*
X61820041Y-86195424D01*
X61932203Y-86103375D01*
X61955273Y-86075264D01*
X62060025Y-85970512D01*
X65559783Y-85970512D01*
X65601213Y-86250130D01*
X65696397Y-86516292D01*
X65763329Y-86641514D01*
X66007298Y-86713097D01*
X66820395Y-85900000D01*
X67179605Y-85900000D01*
X67992702Y-86713097D01*
X68236671Y-86641514D01*
X68357571Y-86386004D01*
X68426300Y-86111816D01*
X68440217Y-85829488D01*
X68398787Y-85549870D01*
X68303603Y-85283708D01*
X68236671Y-85158486D01*
X68037340Y-85100000D01*
X69061928Y-85100000D01*
X69061928Y-86700000D01*
X69074188Y-86824482D01*
X69110498Y-86944180D01*
X69169463Y-87054494D01*
X69248815Y-87151185D01*
X69345506Y-87230537D01*
X69455820Y-87289502D01*
X69575518Y-87325812D01*
X69700000Y-87338072D01*
X71300000Y-87338072D01*
X71424482Y-87325812D01*
X71544180Y-87289502D01*
X71654494Y-87230537D01*
X71751185Y-87151185D01*
X71830537Y-87054494D01*
X71889502Y-86944180D01*
X71925812Y-86824482D01*
X71938072Y-86700000D01*
X71938072Y-85100000D01*
X71925812Y-84975518D01*
X71889502Y-84855820D01*
X71830537Y-84745506D01*
X71751185Y-84648815D01*
X71654494Y-84569463D01*
X71544180Y-84510498D01*
X71424482Y-84474188D01*
X71300000Y-84461928D01*
X69700000Y-84461928D01*
X69575518Y-84474188D01*
X69455820Y-84510498D01*
X69345506Y-84569463D01*
X69248815Y-84648815D01*
X69169463Y-84745506D01*
X69110498Y-84855820D01*
X69074188Y-84975518D01*
X69061928Y-85100000D01*
X68037340Y-85100000D01*
X67992702Y-85086903D01*
X67179605Y-85900000D01*
X66820395Y-85900000D01*
X66007298Y-85086903D01*
X65763329Y-85158486D01*
X65642429Y-85413996D01*
X65573700Y-85688184D01*
X65559783Y-85970512D01*
X62060025Y-85970512D01*
X63039687Y-84990851D01*
X63067788Y-84967789D01*
X63090851Y-84939687D01*
X63090856Y-84939682D01*
X63090861Y-84939676D01*
X63123239Y-84907298D01*
X66186903Y-84907298D01*
X67000000Y-85720395D01*
X67813097Y-84907298D01*
X67741514Y-84663329D01*
X67486004Y-84542429D01*
X67211816Y-84473700D01*
X66929488Y-84459783D01*
X66649870Y-84501213D01*
X66383708Y-84596397D01*
X66258486Y-84663329D01*
X66186903Y-84907298D01*
X63123239Y-84907298D01*
X64122626Y-83907911D01*
X90665000Y-83907911D01*
X90665000Y-84092089D01*
X90700932Y-84272729D01*
X90771414Y-84442889D01*
X90863401Y-84580557D01*
X90863400Y-87963817D01*
X90859836Y-88000000D01*
X90863400Y-88036183D01*
X90863400Y-88036185D01*
X90874058Y-88144398D01*
X90916178Y-88283248D01*
X90948864Y-88344399D01*
X90984576Y-88411212D01*
X91043694Y-88483247D01*
X91076625Y-88523374D01*
X91104732Y-88546441D01*
X91253554Y-88695263D01*
X91276625Y-88723375D01*
X91388787Y-88815424D01*
X91516751Y-88883822D01*
X91655598Y-88925941D01*
X91655601Y-88925942D01*
X91800000Y-88940164D01*
X91836186Y-88936600D01*
X102644421Y-88936600D01*
X102680604Y-88940164D01*
X102716787Y-88936600D01*
X102716790Y-88936600D01*
X102825003Y-88925942D01*
X102963853Y-88883822D01*
X103091817Y-88815424D01*
X103203979Y-88723375D01*
X103227050Y-88695263D01*
X104765402Y-87156911D01*
X113111000Y-87156911D01*
X113111000Y-87341089D01*
X113146932Y-87521729D01*
X113217414Y-87691889D01*
X113319738Y-87845028D01*
X113449972Y-87975262D01*
X113603111Y-88077586D01*
X113773271Y-88148068D01*
X113953911Y-88184000D01*
X114138089Y-88184000D01*
X114318729Y-88148068D01*
X114488889Y-88077586D01*
X114642028Y-87975262D01*
X114772262Y-87845028D01*
X114874586Y-87691889D01*
X114945068Y-87521729D01*
X114977370Y-87359340D01*
X115684269Y-86652441D01*
X115712375Y-86629375D01*
X115804424Y-86517213D01*
X115872822Y-86389249D01*
X115914942Y-86250399D01*
X115925600Y-86142186D01*
X115925600Y-86142177D01*
X115929163Y-86106001D01*
X115925600Y-86069825D01*
X115925600Y-85715846D01*
X116076826Y-85564620D01*
X116201913Y-85377413D01*
X116288075Y-85169401D01*
X116332000Y-84948576D01*
X116332000Y-84806000D01*
X125061928Y-84806000D01*
X125061928Y-87406000D01*
X125074188Y-87530482D01*
X125110498Y-87650180D01*
X125169463Y-87760494D01*
X125248815Y-87857185D01*
X125345506Y-87936537D01*
X125455820Y-87995502D01*
X125575518Y-88031812D01*
X125700000Y-88044072D01*
X128300000Y-88044072D01*
X128424482Y-88031812D01*
X128544180Y-87995502D01*
X128654494Y-87936537D01*
X128751185Y-87857185D01*
X128830537Y-87760494D01*
X128889502Y-87650180D01*
X128925812Y-87530482D01*
X128938072Y-87406000D01*
X128938072Y-84806000D01*
X128925812Y-84681518D01*
X128889502Y-84561820D01*
X128830537Y-84451506D01*
X128751185Y-84354815D01*
X128654494Y-84275463D01*
X128544180Y-84216498D01*
X128424482Y-84180188D01*
X128300000Y-84167928D01*
X125700000Y-84167928D01*
X125575518Y-84180188D01*
X125455820Y-84216498D01*
X125345506Y-84275463D01*
X125248815Y-84354815D01*
X125169463Y-84451506D01*
X125110498Y-84561820D01*
X125074188Y-84681518D01*
X125061928Y-84806000D01*
X116332000Y-84806000D01*
X116332000Y-84723424D01*
X116288075Y-84502599D01*
X116201913Y-84294587D01*
X116076826Y-84107380D01*
X115917620Y-83948174D01*
X115730413Y-83823087D01*
X115522401Y-83736925D01*
X115301576Y-83693000D01*
X115076424Y-83693000D01*
X114855599Y-83736925D01*
X114647587Y-83823087D01*
X114460380Y-83948174D01*
X114301174Y-84107380D01*
X114176087Y-84294587D01*
X114089925Y-84502599D01*
X114046000Y-84723424D01*
X114046000Y-84948576D01*
X114089925Y-85169401D01*
X114176087Y-85377413D01*
X114301174Y-85564620D01*
X114452401Y-85715847D01*
X114452401Y-85800889D01*
X113935660Y-86317630D01*
X113773271Y-86349932D01*
X113603111Y-86420414D01*
X113449972Y-86522738D01*
X113319738Y-86652972D01*
X113217414Y-86806111D01*
X113146932Y-86976271D01*
X113111000Y-87156911D01*
X104765402Y-87156911D01*
X107210942Y-84711372D01*
X107373331Y-84679070D01*
X107543491Y-84608588D01*
X107696630Y-84506264D01*
X107826864Y-84376030D01*
X107929188Y-84222891D01*
X107999670Y-84052731D01*
X108035602Y-83872091D01*
X108035602Y-83687913D01*
X107999670Y-83507273D01*
X107929188Y-83337113D01*
X107826864Y-83183974D01*
X107696630Y-83053740D01*
X107543491Y-82951416D01*
X107373331Y-82880934D01*
X107192691Y-82845002D01*
X107008513Y-82845002D01*
X106827873Y-82880934D01*
X106657713Y-82951416D01*
X106504574Y-83053740D01*
X106374340Y-83183974D01*
X106272016Y-83337113D01*
X106201534Y-83507273D01*
X106169232Y-83669662D01*
X102375495Y-87463400D01*
X92336600Y-87463400D01*
X92336600Y-84580556D01*
X92428586Y-84442889D01*
X92499068Y-84272729D01*
X92535000Y-84092089D01*
X92535000Y-83907911D01*
X92499068Y-83727271D01*
X92428586Y-83557111D01*
X92326262Y-83403972D01*
X92196028Y-83273738D01*
X92042889Y-83171414D01*
X91872729Y-83100932D01*
X91692089Y-83065000D01*
X91507911Y-83065000D01*
X91327271Y-83100932D01*
X91157111Y-83171414D01*
X91003972Y-83273738D01*
X90873738Y-83403972D01*
X90771414Y-83557111D01*
X90700932Y-83727271D01*
X90665000Y-83907911D01*
X64122626Y-83907911D01*
X67040856Y-80989682D01*
X67040861Y-80989676D01*
X67195118Y-80835419D01*
X125065000Y-80835419D01*
X125065000Y-81216581D01*
X125139361Y-81590419D01*
X125285225Y-81942566D01*
X125496987Y-82259491D01*
X125766509Y-82529013D01*
X126083434Y-82740775D01*
X126435581Y-82886639D01*
X126809419Y-82961000D01*
X127190581Y-82961000D01*
X127564419Y-82886639D01*
X127916566Y-82740775D01*
X128233491Y-82529013D01*
X128503013Y-82259491D01*
X128714775Y-81942566D01*
X128860639Y-81590419D01*
X128935000Y-81216581D01*
X128935000Y-80835419D01*
X128860639Y-80461581D01*
X128714775Y-80109434D01*
X128503013Y-79792509D01*
X128233491Y-79522987D01*
X127916566Y-79311225D01*
X127564419Y-79165361D01*
X127190581Y-79091000D01*
X126809419Y-79091000D01*
X126435581Y-79165361D01*
X126083434Y-79311225D01*
X125766509Y-79522987D01*
X125496987Y-79792509D01*
X125285225Y-80109434D01*
X125139361Y-80461581D01*
X125065000Y-80835419D01*
X67195118Y-80835419D01*
X69395263Y-78635274D01*
X69423375Y-78612203D01*
X69515424Y-78500041D01*
X69583822Y-78372077D01*
X69625942Y-78233227D01*
X69636600Y-78125014D01*
X69636600Y-78125005D01*
X69640163Y-78088829D01*
X69636600Y-78052653D01*
X69636600Y-71305109D01*
X71505110Y-69436600D01*
X80069444Y-69436600D01*
X80207111Y-69528586D01*
X80377271Y-69599068D01*
X80557911Y-69635000D01*
X80742089Y-69635000D01*
X80922729Y-69599068D01*
X81092889Y-69528586D01*
X81246028Y-69426262D01*
X81376262Y-69296028D01*
X81478586Y-69142889D01*
X81549068Y-68972729D01*
X81585000Y-68792089D01*
X81585000Y-68607911D01*
X81549068Y-68427271D01*
X81478586Y-68257111D01*
X81376262Y-68103972D01*
X81322290Y-68050000D01*
X81376262Y-67996028D01*
X81478586Y-67842889D01*
X81549068Y-67672729D01*
X81585000Y-67492089D01*
X81585000Y-67307911D01*
X81549068Y-67127271D01*
X81478586Y-66957111D01*
X81376262Y-66803972D01*
X81246028Y-66673738D01*
X81241380Y-66670632D01*
X81342889Y-66628586D01*
X81496028Y-66526262D01*
X81626262Y-66396028D01*
X81728586Y-66242889D01*
X81799068Y-66072729D01*
X81831370Y-65910340D01*
X82605110Y-65136600D01*
X83827405Y-65136600D01*
X83784576Y-65188788D01*
X83716178Y-65316753D01*
X83674059Y-65455602D01*
X83659836Y-65600000D01*
X83663401Y-65636193D01*
X83663400Y-71568809D01*
X83657111Y-71571414D01*
X83503972Y-71673738D01*
X83373738Y-71803972D01*
X83271414Y-71957111D01*
X83200932Y-72127271D01*
X83165000Y-72307911D01*
X83165000Y-72492089D01*
X83200932Y-72672729D01*
X83271414Y-72842889D01*
X83373738Y-72996028D01*
X83453511Y-73075801D01*
X82317510Y-73075801D01*
X80946446Y-71704737D01*
X80923375Y-71676625D01*
X80811213Y-71584576D01*
X80683249Y-71516178D01*
X80544399Y-71474058D01*
X80488227Y-71468526D01*
X80342889Y-71371414D01*
X80172729Y-71300932D01*
X79992089Y-71265000D01*
X79807911Y-71265000D01*
X79627271Y-71300932D01*
X79457111Y-71371414D01*
X79303972Y-71473738D01*
X79173738Y-71603972D01*
X79071414Y-71757111D01*
X79000932Y-71927271D01*
X78965000Y-72107911D01*
X78965000Y-72292089D01*
X79000932Y-72472729D01*
X79071414Y-72642889D01*
X79173738Y-72796028D01*
X79303972Y-72926262D01*
X79457111Y-73028586D01*
X79627271Y-73099068D01*
X79807911Y-73135000D01*
X79992089Y-73135000D01*
X80172729Y-73099068D01*
X80232572Y-73074281D01*
X81465955Y-74307664D01*
X81489026Y-74335776D01*
X81601188Y-74427825D01*
X81729152Y-74496223D01*
X81868002Y-74538343D01*
X81976215Y-74549001D01*
X81976224Y-74549001D01*
X82012400Y-74552564D01*
X82048576Y-74549001D01*
X99907292Y-74549001D01*
X100281791Y-74923500D01*
X100265000Y-75007911D01*
X100265000Y-75192089D01*
X100300932Y-75372729D01*
X100371414Y-75542889D01*
X100473738Y-75696028D01*
X100603972Y-75826262D01*
X100757111Y-75928586D01*
X100927271Y-75999068D01*
X101107911Y-76035000D01*
X101292089Y-76035000D01*
X101472729Y-75999068D01*
X101642889Y-75928586D01*
X101796028Y-75826262D01*
X101926262Y-75696028D01*
X102028586Y-75542889D01*
X102099068Y-75372729D01*
X102129200Y-75221246D01*
X102173111Y-75250586D01*
X102343271Y-75321068D01*
X102523911Y-75357000D01*
X102623656Y-75357000D01*
X102651738Y-75399028D01*
X102781972Y-75529262D01*
X102935111Y-75631586D01*
X103105271Y-75702068D01*
X103267661Y-75734370D01*
X104990559Y-77457269D01*
X105013625Y-77485375D01*
X105125787Y-77577424D01*
X105253751Y-77645822D01*
X105392601Y-77687942D01*
X105458156Y-77694399D01*
X105602111Y-77790586D01*
X105772271Y-77861068D01*
X105952911Y-77897000D01*
X106137089Y-77897000D01*
X106317729Y-77861068D01*
X106487889Y-77790586D01*
X106599314Y-77716134D01*
X115053563Y-77716134D01*
X115053563Y-77900312D01*
X115089495Y-78080952D01*
X115159977Y-78251112D01*
X115262301Y-78404251D01*
X115392535Y-78534485D01*
X115545674Y-78636809D01*
X115715834Y-78707291D01*
X115896474Y-78743223D01*
X116080652Y-78743223D01*
X116261292Y-78707291D01*
X116431452Y-78636809D01*
X116584591Y-78534485D01*
X116714825Y-78404251D01*
X116817149Y-78251112D01*
X116887631Y-78080952D01*
X116923563Y-77900312D01*
X116923563Y-77716134D01*
X116887631Y-77535494D01*
X116817149Y-77365334D01*
X116714825Y-77212195D01*
X116584591Y-77081961D01*
X116431452Y-76979637D01*
X116261292Y-76909155D01*
X116080652Y-76873223D01*
X115896474Y-76873223D01*
X115715834Y-76909155D01*
X115545674Y-76979637D01*
X115392535Y-77081961D01*
X115262301Y-77212195D01*
X115159977Y-77365334D01*
X115089495Y-77535494D01*
X115053563Y-77716134D01*
X106599314Y-77716134D01*
X106641028Y-77688262D01*
X106771262Y-77558028D01*
X106873586Y-77404889D01*
X106944068Y-77234729D01*
X106956571Y-77171872D01*
X106995889Y-77155586D01*
X107149028Y-77053262D01*
X107279262Y-76923028D01*
X107381586Y-76769889D01*
X107452068Y-76599729D01*
X107488000Y-76419089D01*
X107488000Y-76234911D01*
X107452068Y-76054271D01*
X107381586Y-75884111D01*
X107279262Y-75730972D01*
X107149028Y-75600738D01*
X106995889Y-75498414D01*
X106825729Y-75427932D01*
X106663339Y-75395630D01*
X106232620Y-74964911D01*
X109809000Y-74964911D01*
X109809000Y-75149089D01*
X109844932Y-75329729D01*
X109915414Y-75499889D01*
X110017738Y-75653028D01*
X110147972Y-75783262D01*
X110301111Y-75885586D01*
X110471271Y-75956068D01*
X110651911Y-75992000D01*
X110836089Y-75992000D01*
X111016729Y-75956068D01*
X111186889Y-75885586D01*
X111241643Y-75849000D01*
X125061928Y-75849000D01*
X125074188Y-75973482D01*
X125110498Y-76093180D01*
X125169463Y-76203494D01*
X125248815Y-76300185D01*
X125345506Y-76379537D01*
X125455820Y-76438502D01*
X125575518Y-76474812D01*
X125700000Y-76487072D01*
X126714250Y-76484000D01*
X126873000Y-76325250D01*
X126873000Y-74676000D01*
X127127000Y-74676000D01*
X127127000Y-76325250D01*
X127285750Y-76484000D01*
X128300000Y-76487072D01*
X128424482Y-76474812D01*
X128544180Y-76438502D01*
X128654494Y-76379537D01*
X128751185Y-76300185D01*
X128830537Y-76203494D01*
X128889502Y-76093180D01*
X128925812Y-75973482D01*
X128938072Y-75849000D01*
X128935000Y-74834750D01*
X128776250Y-74676000D01*
X127127000Y-74676000D01*
X126873000Y-74676000D01*
X125223750Y-74676000D01*
X125065000Y-74834750D01*
X125061928Y-75849000D01*
X111241643Y-75849000D01*
X111340028Y-75783262D01*
X111470262Y-75653028D01*
X111572586Y-75499889D01*
X111643068Y-75329729D01*
X111679000Y-75149089D01*
X111679000Y-74964911D01*
X111643068Y-74784271D01*
X111572586Y-74614111D01*
X111470262Y-74460972D01*
X111340028Y-74330738D01*
X111186889Y-74228414D01*
X111016729Y-74157932D01*
X110836089Y-74122000D01*
X110651911Y-74122000D01*
X110471271Y-74157932D01*
X110301111Y-74228414D01*
X110147972Y-74330738D01*
X110017738Y-74460972D01*
X109915414Y-74614111D01*
X109844932Y-74784271D01*
X109809000Y-74964911D01*
X106232620Y-74964911D01*
X105960370Y-74692661D01*
X105928068Y-74530271D01*
X105857586Y-74360111D01*
X105836600Y-74328703D01*
X105836600Y-73374691D01*
X105983111Y-73472586D01*
X106153271Y-73543068D01*
X106333911Y-73579000D01*
X106518089Y-73579000D01*
X106698729Y-73543068D01*
X106868889Y-73472586D01*
X107022028Y-73370262D01*
X107143290Y-73249000D01*
X125061928Y-73249000D01*
X125065000Y-74263250D01*
X125223750Y-74422000D01*
X126873000Y-74422000D01*
X126873000Y-72772750D01*
X127127000Y-72772750D01*
X127127000Y-74422000D01*
X128776250Y-74422000D01*
X128935000Y-74263250D01*
X128938072Y-73249000D01*
X128925812Y-73124518D01*
X128889502Y-73004820D01*
X128830537Y-72894506D01*
X128751185Y-72797815D01*
X128654494Y-72718463D01*
X128544180Y-72659498D01*
X128424482Y-72623188D01*
X128300000Y-72610928D01*
X127285750Y-72614000D01*
X127127000Y-72772750D01*
X126873000Y-72772750D01*
X126714250Y-72614000D01*
X125700000Y-72610928D01*
X125575518Y-72623188D01*
X125455820Y-72659498D01*
X125345506Y-72718463D01*
X125248815Y-72797815D01*
X125169463Y-72894506D01*
X125110498Y-73004820D01*
X125074188Y-73124518D01*
X125061928Y-73249000D01*
X107143290Y-73249000D01*
X107152262Y-73240028D01*
X107254586Y-73086889D01*
X107325068Y-72916729D01*
X107361000Y-72736089D01*
X107361000Y-72551911D01*
X107325068Y-72371271D01*
X107254586Y-72201111D01*
X107152262Y-72047972D01*
X107022028Y-71917738D01*
X106868889Y-71815414D01*
X106698729Y-71744932D01*
X106518089Y-71709000D01*
X106333911Y-71709000D01*
X106153271Y-71744932D01*
X105983111Y-71815414D01*
X105836600Y-71913309D01*
X105836600Y-69580556D01*
X105928586Y-69442889D01*
X105996711Y-69278419D01*
X125065000Y-69278419D01*
X125065000Y-69659581D01*
X125139361Y-70033419D01*
X125285225Y-70385566D01*
X125496987Y-70702491D01*
X125766509Y-70972013D01*
X126083434Y-71183775D01*
X126435581Y-71329639D01*
X126809419Y-71404000D01*
X127190581Y-71404000D01*
X127564419Y-71329639D01*
X127916566Y-71183775D01*
X128233491Y-70972013D01*
X128503013Y-70702491D01*
X128714775Y-70385566D01*
X128860639Y-70033419D01*
X128935000Y-69659581D01*
X128935000Y-69278419D01*
X128860639Y-68904581D01*
X128714775Y-68552434D01*
X128503013Y-68235509D01*
X128233491Y-67965987D01*
X127916566Y-67754225D01*
X127564419Y-67608361D01*
X127190581Y-67534000D01*
X126809419Y-67534000D01*
X126435581Y-67608361D01*
X126083434Y-67754225D01*
X125766509Y-67965987D01*
X125496987Y-68235509D01*
X125285225Y-68552434D01*
X125139361Y-68904581D01*
X125065000Y-69278419D01*
X105996711Y-69278419D01*
X105999068Y-69272729D01*
X106035000Y-69092089D01*
X106035000Y-68907911D01*
X105999068Y-68727271D01*
X105928586Y-68557111D01*
X105826262Y-68403972D01*
X105696028Y-68273738D01*
X105542889Y-68171414D01*
X105372729Y-68100932D01*
X105192089Y-68065000D01*
X105067040Y-68065000D01*
X105026262Y-68003972D01*
X104896028Y-67873738D01*
X104742889Y-67771414D01*
X104572729Y-67700932D01*
X104392089Y-67665000D01*
X104207911Y-67665000D01*
X104027271Y-67700932D01*
X103857111Y-67771414D01*
X103703972Y-67873738D01*
X103573738Y-68003972D01*
X103520970Y-68082944D01*
X103515068Y-68053271D01*
X103444586Y-67883111D01*
X103342262Y-67729972D01*
X103212028Y-67599738D01*
X103058889Y-67497414D01*
X102888729Y-67426932D01*
X102708089Y-67391000D01*
X102523911Y-67391000D01*
X102343271Y-67426932D01*
X102173111Y-67497414D01*
X102019972Y-67599738D01*
X101889738Y-67729972D01*
X101787414Y-67883111D01*
X101716932Y-68053271D01*
X101681000Y-68233911D01*
X101681000Y-68418089D01*
X101716932Y-68598729D01*
X101787414Y-68768889D01*
X101879400Y-68906556D01*
X101879401Y-73841443D01*
X101787414Y-73979111D01*
X101716932Y-74149271D01*
X101696059Y-74254208D01*
X101695273Y-74253563D01*
X100758846Y-73317137D01*
X100735776Y-73289026D01*
X100623614Y-73196977D01*
X100495650Y-73128579D01*
X100356800Y-73086459D01*
X100248587Y-73075801D01*
X100248584Y-73075801D01*
X100212401Y-73072237D01*
X100176218Y-73075801D01*
X96518348Y-73075801D01*
X96535000Y-72992089D01*
X96535000Y-72974589D01*
X96583822Y-72883249D01*
X96625942Y-72744399D01*
X96636600Y-72636186D01*
X96636600Y-72636177D01*
X96640163Y-72600001D01*
X96636600Y-72563825D01*
X96636600Y-66505109D01*
X96905109Y-66236600D01*
X103202645Y-66236600D01*
X103238828Y-66240164D01*
X103275011Y-66236600D01*
X103275014Y-66236600D01*
X103383227Y-66225942D01*
X103522077Y-66183822D01*
X103650041Y-66115424D01*
X103762203Y-66023375D01*
X103785274Y-65995263D01*
X105610626Y-64169911D01*
X115270000Y-64169911D01*
X115270000Y-64354089D01*
X115305932Y-64534729D01*
X115376414Y-64704889D01*
X115468400Y-64842556D01*
X115468401Y-66729443D01*
X115376414Y-66867111D01*
X115305932Y-67037271D01*
X115270000Y-67217911D01*
X115270000Y-67402089D01*
X115305932Y-67582729D01*
X115376414Y-67752889D01*
X115478738Y-67906028D01*
X115608972Y-68036262D01*
X115762111Y-68138586D01*
X115932271Y-68209068D01*
X116112911Y-68245000D01*
X116297089Y-68245000D01*
X116477729Y-68209068D01*
X116647889Y-68138586D01*
X116801028Y-68036262D01*
X116931262Y-67906028D01*
X117033586Y-67752889D01*
X117104068Y-67582729D01*
X117140000Y-67402089D01*
X117140000Y-67217911D01*
X117104068Y-67037271D01*
X117033586Y-66867111D01*
X117013408Y-66836911D01*
X119715000Y-66836911D01*
X119715000Y-67021089D01*
X119750932Y-67201729D01*
X119821414Y-67371889D01*
X119923738Y-67525028D01*
X120053972Y-67655262D01*
X120207111Y-67757586D01*
X120377271Y-67828068D01*
X120557911Y-67864000D01*
X120742089Y-67864000D01*
X120922729Y-67828068D01*
X121092889Y-67757586D01*
X121246028Y-67655262D01*
X121376262Y-67525028D01*
X121478586Y-67371889D01*
X121549068Y-67201729D01*
X121585000Y-67021089D01*
X121585000Y-66836911D01*
X121549068Y-66656271D01*
X121478586Y-66486111D01*
X121376262Y-66332972D01*
X121246028Y-66202738D01*
X121092889Y-66100414D01*
X120922729Y-66029932D01*
X120742089Y-65994000D01*
X120557911Y-65994000D01*
X120377271Y-66029932D01*
X120207111Y-66100414D01*
X120053972Y-66202738D01*
X119923738Y-66332972D01*
X119821414Y-66486111D01*
X119750932Y-66656271D01*
X119715000Y-66836911D01*
X117013408Y-66836911D01*
X116941600Y-66729444D01*
X116941600Y-65623391D01*
X129032000Y-65623391D01*
X129032000Y-65948609D01*
X129095447Y-66267579D01*
X129219903Y-66568042D01*
X129400585Y-66838451D01*
X129630549Y-67068415D01*
X129707003Y-67119500D01*
X129630549Y-67170585D01*
X129400585Y-67400549D01*
X129219903Y-67670958D01*
X129095447Y-67971421D01*
X129032000Y-68290391D01*
X129032000Y-68615609D01*
X129095447Y-68934579D01*
X129219903Y-69235042D01*
X129400585Y-69505451D01*
X129630549Y-69735415D01*
X129802037Y-69850000D01*
X129630549Y-69964585D01*
X129400585Y-70194549D01*
X129219903Y-70464958D01*
X129095447Y-70765421D01*
X129032000Y-71084391D01*
X129032000Y-71409609D01*
X129095447Y-71728579D01*
X129219903Y-72029042D01*
X129400585Y-72299451D01*
X129630549Y-72529415D01*
X129707003Y-72580500D01*
X129630549Y-72631585D01*
X129400585Y-72861549D01*
X129219903Y-73131958D01*
X129095447Y-73432421D01*
X129032000Y-73751391D01*
X129032000Y-74076609D01*
X129095447Y-74395579D01*
X129219903Y-74696042D01*
X129400585Y-74966451D01*
X129630549Y-75196415D01*
X129900958Y-75377097D01*
X130201421Y-75501553D01*
X130520391Y-75565000D01*
X130845609Y-75565000D01*
X131164579Y-75501553D01*
X131465042Y-75377097D01*
X131735451Y-75196415D01*
X131965415Y-74966451D01*
X132146097Y-74696042D01*
X132270553Y-74395579D01*
X132334000Y-74076609D01*
X132334000Y-73751391D01*
X132270553Y-73432421D01*
X132146097Y-73131958D01*
X131965415Y-72861549D01*
X131735451Y-72631585D01*
X131658997Y-72580500D01*
X131735451Y-72529415D01*
X131965415Y-72299451D01*
X132146097Y-72029042D01*
X132270553Y-71728579D01*
X132334000Y-71409609D01*
X132334000Y-71084391D01*
X132270553Y-70765421D01*
X132146097Y-70464958D01*
X131965415Y-70194549D01*
X131735451Y-69964585D01*
X131563963Y-69850000D01*
X131735451Y-69735415D01*
X131965415Y-69505451D01*
X132146097Y-69235042D01*
X132270553Y-68934579D01*
X132334000Y-68615609D01*
X132334000Y-68290391D01*
X132270553Y-67971421D01*
X132146097Y-67670958D01*
X131965415Y-67400549D01*
X131735451Y-67170585D01*
X131658997Y-67119500D01*
X131735451Y-67068415D01*
X131965415Y-66838451D01*
X132146097Y-66568042D01*
X132270553Y-66267579D01*
X132334000Y-65948609D01*
X132334000Y-65623391D01*
X132270553Y-65304421D01*
X132146097Y-65003958D01*
X131965415Y-64733549D01*
X131735451Y-64503585D01*
X131465042Y-64322903D01*
X131164579Y-64198447D01*
X130845609Y-64135000D01*
X130520391Y-64135000D01*
X130201421Y-64198447D01*
X129900958Y-64322903D01*
X129630549Y-64503585D01*
X129400585Y-64733549D01*
X129219903Y-65003958D01*
X129095447Y-65304421D01*
X129032000Y-65623391D01*
X116941600Y-65623391D01*
X116941600Y-64842556D01*
X117033586Y-64704889D01*
X117104068Y-64534729D01*
X117127088Y-64419000D01*
X125061928Y-64419000D01*
X125074188Y-64543482D01*
X125110498Y-64663180D01*
X125169463Y-64773494D01*
X125248815Y-64870185D01*
X125345506Y-64949537D01*
X125455820Y-65008502D01*
X125575518Y-65044812D01*
X125700000Y-65057072D01*
X126714250Y-65054000D01*
X126873000Y-64895250D01*
X126873000Y-63246000D01*
X127127000Y-63246000D01*
X127127000Y-64895250D01*
X127285750Y-65054000D01*
X128300000Y-65057072D01*
X128424482Y-65044812D01*
X128544180Y-65008502D01*
X128654494Y-64949537D01*
X128751185Y-64870185D01*
X128830537Y-64773494D01*
X128889502Y-64663180D01*
X128925812Y-64543482D01*
X128938072Y-64419000D01*
X128935000Y-63404750D01*
X128776250Y-63246000D01*
X127127000Y-63246000D01*
X126873000Y-63246000D01*
X125223750Y-63246000D01*
X125065000Y-63404750D01*
X125061928Y-64419000D01*
X117127088Y-64419000D01*
X117140000Y-64354089D01*
X117140000Y-64169911D01*
X117104068Y-63989271D01*
X117033586Y-63819111D01*
X116931262Y-63665972D01*
X116801028Y-63535738D01*
X116647889Y-63433414D01*
X116477729Y-63362932D01*
X116297089Y-63327000D01*
X116112911Y-63327000D01*
X115932271Y-63362932D01*
X115762111Y-63433414D01*
X115608972Y-63535738D01*
X115478738Y-63665972D01*
X115376414Y-63819111D01*
X115305932Y-63989271D01*
X115270000Y-64169911D01*
X105610626Y-64169911D01*
X107495268Y-62285269D01*
X107523374Y-62262203D01*
X107615424Y-62150041D01*
X107683822Y-62022077D01*
X107725942Y-61883227D01*
X107732267Y-61819000D01*
X125061928Y-61819000D01*
X125065000Y-62833250D01*
X125223750Y-62992000D01*
X126873000Y-62992000D01*
X126873000Y-61342750D01*
X127127000Y-61342750D01*
X127127000Y-62992000D01*
X128776250Y-62992000D01*
X128935000Y-62833250D01*
X128938072Y-61819000D01*
X128925812Y-61694518D01*
X128889502Y-61574820D01*
X128830537Y-61464506D01*
X128751185Y-61367815D01*
X128654494Y-61288463D01*
X128544180Y-61229498D01*
X128424482Y-61193188D01*
X128300000Y-61180928D01*
X127285750Y-61184000D01*
X127127000Y-61342750D01*
X126873000Y-61342750D01*
X126714250Y-61184000D01*
X125700000Y-61180928D01*
X125575518Y-61193188D01*
X125455820Y-61229498D01*
X125345506Y-61288463D01*
X125248815Y-61367815D01*
X125169463Y-61464506D01*
X125110498Y-61574820D01*
X125074188Y-61694518D01*
X125061928Y-61819000D01*
X107732267Y-61819000D01*
X107736600Y-61775014D01*
X107736600Y-61775005D01*
X107740163Y-61738829D01*
X107736600Y-61702653D01*
X107736600Y-60205109D01*
X110093290Y-57848419D01*
X125065000Y-57848419D01*
X125065000Y-58229581D01*
X125139361Y-58603419D01*
X125285225Y-58955566D01*
X125496987Y-59272491D01*
X125766509Y-59542013D01*
X126083434Y-59753775D01*
X126435581Y-59899639D01*
X126809419Y-59974000D01*
X127190581Y-59974000D01*
X127564419Y-59899639D01*
X127916566Y-59753775D01*
X128233491Y-59542013D01*
X128503013Y-59272491D01*
X128714775Y-58955566D01*
X128860639Y-58603419D01*
X128935000Y-58229581D01*
X128935000Y-57848419D01*
X128860639Y-57474581D01*
X128714775Y-57122434D01*
X128503013Y-56805509D01*
X128233491Y-56535987D01*
X127916566Y-56324225D01*
X127564419Y-56178361D01*
X127190581Y-56104000D01*
X126809419Y-56104000D01*
X126435581Y-56178361D01*
X126083434Y-56324225D01*
X125766509Y-56535987D01*
X125496987Y-56805509D01*
X125285225Y-57122434D01*
X125139361Y-57474581D01*
X125065000Y-57848419D01*
X110093290Y-57848419D01*
X112024100Y-55917610D01*
X123782807Y-55917610D01*
X123818990Y-55921174D01*
X123855173Y-55917610D01*
X123855176Y-55917610D01*
X123963389Y-55906952D01*
X124102239Y-55864832D01*
X124230203Y-55796434D01*
X124342365Y-55704385D01*
X124365436Y-55676274D01*
X126695273Y-53346437D01*
X126723374Y-53323375D01*
X126746437Y-53295273D01*
X126746442Y-53295268D01*
X126815424Y-53211213D01*
X126832108Y-53180000D01*
X126883822Y-53083249D01*
X126925942Y-52944399D01*
X126930524Y-52897873D01*
X127146632Y-52753475D01*
X127353475Y-52546632D01*
X127470000Y-52372240D01*
X127586525Y-52546632D01*
X127793368Y-52753475D01*
X128036589Y-52915990D01*
X128306842Y-53027932D01*
X128593740Y-53085000D01*
X128886260Y-53085000D01*
X129173158Y-53027932D01*
X129443411Y-52915990D01*
X129686632Y-52753475D01*
X129893475Y-52546632D01*
X130015195Y-52364466D01*
X130084822Y-52481355D01*
X130279731Y-52697588D01*
X130513080Y-52871641D01*
X130775901Y-52996825D01*
X130923110Y-53041476D01*
X131153000Y-52920155D01*
X131153000Y-51727000D01*
X131133000Y-51727000D01*
X131133000Y-51473000D01*
X131153000Y-51473000D01*
X131153000Y-51453000D01*
X131407000Y-51453000D01*
X131407000Y-51473000D01*
X131427000Y-51473000D01*
X131427000Y-51727000D01*
X131407000Y-51727000D01*
X131407000Y-52920155D01*
X131636890Y-53041476D01*
X131784099Y-52996825D01*
X132046920Y-52871641D01*
X132280269Y-52697588D01*
X132373000Y-52594712D01*
X132373000Y-91973000D01*
X124600000Y-91973000D01*
X124575224Y-91975440D01*
X124551399Y-91982667D01*
X124529443Y-91994403D01*
X124510197Y-92010197D01*
X124494403Y-92029443D01*
X124482667Y-92051399D01*
X124475440Y-92075224D01*
X124473000Y-92100000D01*
X124473000Y-99873000D01*
X62527000Y-99873000D01*
X62527000Y-93526000D01*
X63356928Y-93526000D01*
X63356928Y-95726000D01*
X63369188Y-95850482D01*
X63405498Y-95970180D01*
X63464463Y-96080494D01*
X63543815Y-96177185D01*
X63640506Y-96256537D01*
X63750820Y-96315502D01*
X63870518Y-96351812D01*
X63995000Y-96364072D01*
X66195000Y-96364072D01*
X66319482Y-96351812D01*
X66439180Y-96315502D01*
X66549494Y-96256537D01*
X66646185Y-96177185D01*
X66712557Y-96096310D01*
X66813169Y-96163537D01*
X67128919Y-96294325D01*
X67464117Y-96361000D01*
X67805883Y-96361000D01*
X68141081Y-96294325D01*
X68456831Y-96163537D01*
X68740998Y-95973663D01*
X68905000Y-95809661D01*
X69069002Y-95973663D01*
X69353169Y-96163537D01*
X69668919Y-96294325D01*
X70004117Y-96361000D01*
X70345883Y-96361000D01*
X70681081Y-96294325D01*
X70996831Y-96163537D01*
X71280998Y-95973663D01*
X71421949Y-95832712D01*
X71687893Y-95832712D01*
X71795726Y-96107338D01*
X72102384Y-96258216D01*
X72432585Y-96346369D01*
X72773639Y-96368409D01*
X73112439Y-96323489D01*
X73435966Y-96213336D01*
X73634274Y-96107338D01*
X73742107Y-95832712D01*
X72715000Y-94805605D01*
X71687893Y-95832712D01*
X71421949Y-95832712D01*
X71522663Y-95731998D01*
X71710469Y-95450926D01*
X72535395Y-94626000D01*
X72894605Y-94626000D01*
X73921712Y-95653107D01*
X74196338Y-95545274D01*
X74347216Y-95238616D01*
X74435369Y-94908415D01*
X74457409Y-94567361D01*
X74412489Y-94228561D01*
X74302336Y-93905034D01*
X74196338Y-93706726D01*
X73921712Y-93598893D01*
X72894605Y-94626000D01*
X72535395Y-94626000D01*
X71710469Y-93801074D01*
X71522663Y-93520002D01*
X71421949Y-93419288D01*
X71687893Y-93419288D01*
X72715000Y-94446395D01*
X73742107Y-93419288D01*
X73695269Y-93300000D01*
X76061928Y-93300000D01*
X76061928Y-95900000D01*
X76074188Y-96024482D01*
X76110498Y-96144180D01*
X76169463Y-96254494D01*
X76248815Y-96351185D01*
X76345506Y-96430537D01*
X76455820Y-96489502D01*
X76575518Y-96525812D01*
X76700000Y-96538072D01*
X79300000Y-96538072D01*
X79424482Y-96525812D01*
X79544180Y-96489502D01*
X79654494Y-96430537D01*
X79751185Y-96351185D01*
X79830537Y-96254494D01*
X79889502Y-96144180D01*
X79925812Y-96024482D01*
X79938072Y-95900000D01*
X79938072Y-94409419D01*
X81145000Y-94409419D01*
X81145000Y-94790581D01*
X81219361Y-95164419D01*
X81365225Y-95516566D01*
X81576987Y-95833491D01*
X81846509Y-96103013D01*
X82163434Y-96314775D01*
X82515581Y-96460639D01*
X82889419Y-96535000D01*
X83270581Y-96535000D01*
X83644419Y-96460639D01*
X83996566Y-96314775D01*
X84313491Y-96103013D01*
X84583013Y-95833491D01*
X84794775Y-95516566D01*
X84940639Y-95164419D01*
X85015000Y-94790581D01*
X85015000Y-94409419D01*
X84940639Y-94035581D01*
X84794775Y-93683434D01*
X84583013Y-93366509D01*
X84516504Y-93300000D01*
X87661928Y-93300000D01*
X87661928Y-95900000D01*
X87674188Y-96024482D01*
X87710498Y-96144180D01*
X87769463Y-96254494D01*
X87848815Y-96351185D01*
X87945506Y-96430537D01*
X88055820Y-96489502D01*
X88175518Y-96525812D01*
X88300000Y-96538072D01*
X90900000Y-96538072D01*
X91024482Y-96525812D01*
X91144180Y-96489502D01*
X91254494Y-96430537D01*
X91351185Y-96351185D01*
X91430537Y-96254494D01*
X91489502Y-96144180D01*
X91525812Y-96024482D01*
X91538072Y-95900000D01*
X91538072Y-94409419D01*
X92745000Y-94409419D01*
X92745000Y-94790581D01*
X92819361Y-95164419D01*
X92965225Y-95516566D01*
X93176987Y-95833491D01*
X93446509Y-96103013D01*
X93763434Y-96314775D01*
X94115581Y-96460639D01*
X94489419Y-96535000D01*
X94870581Y-96535000D01*
X95244419Y-96460639D01*
X95596566Y-96314775D01*
X95913491Y-96103013D01*
X96183013Y-95833491D01*
X96394775Y-95516566D01*
X96540639Y-95164419D01*
X96615000Y-94790581D01*
X96615000Y-94409419D01*
X96540639Y-94035581D01*
X96394775Y-93683434D01*
X96183013Y-93366509D01*
X96131504Y-93315000D01*
X99256928Y-93315000D01*
X99256928Y-95915000D01*
X99269188Y-96039482D01*
X99305498Y-96159180D01*
X99364463Y-96269494D01*
X99443815Y-96366185D01*
X99540506Y-96445537D01*
X99650820Y-96504502D01*
X99770518Y-96540812D01*
X99895000Y-96553072D01*
X102495000Y-96553072D01*
X102619482Y-96540812D01*
X102739180Y-96504502D01*
X102849494Y-96445537D01*
X102946185Y-96366185D01*
X103025537Y-96269494D01*
X103084502Y-96159180D01*
X103120812Y-96039482D01*
X103133072Y-95915000D01*
X103133072Y-94424419D01*
X104340000Y-94424419D01*
X104340000Y-94805581D01*
X104414361Y-95179419D01*
X104560225Y-95531566D01*
X104771987Y-95848491D01*
X105041509Y-96118013D01*
X105358434Y-96329775D01*
X105710581Y-96475639D01*
X106084419Y-96550000D01*
X106465581Y-96550000D01*
X106839419Y-96475639D01*
X107191566Y-96329775D01*
X107508491Y-96118013D01*
X107778013Y-95848491D01*
X107989775Y-95531566D01*
X108135639Y-95179419D01*
X108210000Y-94805581D01*
X108210000Y-94424419D01*
X108135639Y-94050581D01*
X107989775Y-93698434D01*
X107778013Y-93381509D01*
X107711504Y-93315000D01*
X110813928Y-93315000D01*
X110813928Y-95915000D01*
X110826188Y-96039482D01*
X110862498Y-96159180D01*
X110921463Y-96269494D01*
X111000815Y-96366185D01*
X111097506Y-96445537D01*
X111207820Y-96504502D01*
X111327518Y-96540812D01*
X111452000Y-96553072D01*
X114052000Y-96553072D01*
X114176482Y-96540812D01*
X114296180Y-96504502D01*
X114406494Y-96445537D01*
X114503185Y-96366185D01*
X114582537Y-96269494D01*
X114641502Y-96159180D01*
X114677812Y-96039482D01*
X114690072Y-95915000D01*
X114690072Y-94424419D01*
X115897000Y-94424419D01*
X115897000Y-94805581D01*
X115971361Y-95179419D01*
X116117225Y-95531566D01*
X116328987Y-95848491D01*
X116598509Y-96118013D01*
X116915434Y-96329775D01*
X117267581Y-96475639D01*
X117641419Y-96550000D01*
X118022581Y-96550000D01*
X118396419Y-96475639D01*
X118748566Y-96329775D01*
X119065491Y-96118013D01*
X119335013Y-95848491D01*
X119546775Y-95531566D01*
X119692639Y-95179419D01*
X119767000Y-94805581D01*
X119767000Y-94424419D01*
X119692639Y-94050581D01*
X119546775Y-93698434D01*
X119335013Y-93381509D01*
X119065491Y-93111987D01*
X118748566Y-92900225D01*
X118396419Y-92754361D01*
X118022581Y-92680000D01*
X117641419Y-92680000D01*
X117267581Y-92754361D01*
X116915434Y-92900225D01*
X116598509Y-93111987D01*
X116328987Y-93381509D01*
X116117225Y-93698434D01*
X115971361Y-94050581D01*
X115897000Y-94424419D01*
X114690072Y-94424419D01*
X114690072Y-93315000D01*
X114677812Y-93190518D01*
X114641502Y-93070820D01*
X114582537Y-92960506D01*
X114503185Y-92863815D01*
X114406494Y-92784463D01*
X114296180Y-92725498D01*
X114176482Y-92689188D01*
X114052000Y-92676928D01*
X111452000Y-92676928D01*
X111327518Y-92689188D01*
X111207820Y-92725498D01*
X111097506Y-92784463D01*
X111000815Y-92863815D01*
X110921463Y-92960506D01*
X110862498Y-93070820D01*
X110826188Y-93190518D01*
X110813928Y-93315000D01*
X107711504Y-93315000D01*
X107508491Y-93111987D01*
X107191566Y-92900225D01*
X106839419Y-92754361D01*
X106465581Y-92680000D01*
X106084419Y-92680000D01*
X105710581Y-92754361D01*
X105358434Y-92900225D01*
X105041509Y-93111987D01*
X104771987Y-93381509D01*
X104560225Y-93698434D01*
X104414361Y-94050581D01*
X104340000Y-94424419D01*
X103133072Y-94424419D01*
X103133072Y-93315000D01*
X103120812Y-93190518D01*
X103084502Y-93070820D01*
X103025537Y-92960506D01*
X102946185Y-92863815D01*
X102849494Y-92784463D01*
X102739180Y-92725498D01*
X102619482Y-92689188D01*
X102495000Y-92676928D01*
X99895000Y-92676928D01*
X99770518Y-92689188D01*
X99650820Y-92725498D01*
X99540506Y-92784463D01*
X99443815Y-92863815D01*
X99364463Y-92960506D01*
X99305498Y-93070820D01*
X99269188Y-93190518D01*
X99256928Y-93315000D01*
X96131504Y-93315000D01*
X95913491Y-93096987D01*
X95596566Y-92885225D01*
X95244419Y-92739361D01*
X94870581Y-92665000D01*
X94489419Y-92665000D01*
X94115581Y-92739361D01*
X93763434Y-92885225D01*
X93446509Y-93096987D01*
X93176987Y-93366509D01*
X92965225Y-93683434D01*
X92819361Y-94035581D01*
X92745000Y-94409419D01*
X91538072Y-94409419D01*
X91538072Y-93300000D01*
X91525812Y-93175518D01*
X91489502Y-93055820D01*
X91430537Y-92945506D01*
X91351185Y-92848815D01*
X91254494Y-92769463D01*
X91144180Y-92710498D01*
X91024482Y-92674188D01*
X90900000Y-92661928D01*
X88300000Y-92661928D01*
X88175518Y-92674188D01*
X88055820Y-92710498D01*
X87945506Y-92769463D01*
X87848815Y-92848815D01*
X87769463Y-92945506D01*
X87710498Y-93055820D01*
X87674188Y-93175518D01*
X87661928Y-93300000D01*
X84516504Y-93300000D01*
X84313491Y-93096987D01*
X83996566Y-92885225D01*
X83644419Y-92739361D01*
X83270581Y-92665000D01*
X82889419Y-92665000D01*
X82515581Y-92739361D01*
X82163434Y-92885225D01*
X81846509Y-93096987D01*
X81576987Y-93366509D01*
X81365225Y-93683434D01*
X81219361Y-94035581D01*
X81145000Y-94409419D01*
X79938072Y-94409419D01*
X79938072Y-93300000D01*
X79925812Y-93175518D01*
X79889502Y-93055820D01*
X79830537Y-92945506D01*
X79751185Y-92848815D01*
X79654494Y-92769463D01*
X79544180Y-92710498D01*
X79424482Y-92674188D01*
X79300000Y-92661928D01*
X76700000Y-92661928D01*
X76575518Y-92674188D01*
X76455820Y-92710498D01*
X76345506Y-92769463D01*
X76248815Y-92848815D01*
X76169463Y-92945506D01*
X76110498Y-93055820D01*
X76074188Y-93175518D01*
X76061928Y-93300000D01*
X73695269Y-93300000D01*
X73634274Y-93144662D01*
X73327616Y-92993784D01*
X72997415Y-92905631D01*
X72656361Y-92883591D01*
X72317561Y-92928511D01*
X71994034Y-93038664D01*
X71795726Y-93144662D01*
X71687893Y-93419288D01*
X71421949Y-93419288D01*
X71280998Y-93278337D01*
X70996831Y-93088463D01*
X70681081Y-92957675D01*
X70345883Y-92891000D01*
X70004117Y-92891000D01*
X69668919Y-92957675D01*
X69353169Y-93088463D01*
X69069002Y-93278337D01*
X68905000Y-93442339D01*
X68740998Y-93278337D01*
X68456831Y-93088463D01*
X68371600Y-93053159D01*
X68371600Y-92358115D01*
X68442889Y-92328586D01*
X68596028Y-92226262D01*
X68726262Y-92096028D01*
X68828586Y-91942889D01*
X68899068Y-91772729D01*
X68935000Y-91592089D01*
X68935000Y-91407911D01*
X68899068Y-91227271D01*
X68828586Y-91057111D01*
X68726262Y-90903972D01*
X68596028Y-90773738D01*
X68442889Y-90671414D01*
X68272729Y-90600932D01*
X68092089Y-90565000D01*
X67907911Y-90565000D01*
X67727271Y-90600932D01*
X67557111Y-90671414D01*
X67403972Y-90773738D01*
X67273738Y-90903972D01*
X67171414Y-91057111D01*
X67100932Y-91227271D01*
X67067487Y-91395408D01*
X67019576Y-91453788D01*
X66951178Y-91581752D01*
X66909058Y-91720602D01*
X66902888Y-91783248D01*
X66894836Y-91865000D01*
X66898400Y-91901184D01*
X66898400Y-93053159D01*
X66813169Y-93088463D01*
X66712557Y-93155690D01*
X66646185Y-93074815D01*
X66549494Y-92995463D01*
X66439180Y-92936498D01*
X66319482Y-92900188D01*
X66195000Y-92887928D01*
X63995000Y-92887928D01*
X63870518Y-92900188D01*
X63750820Y-92936498D01*
X63640506Y-92995463D01*
X63543815Y-93074815D01*
X63464463Y-93171506D01*
X63405498Y-93281820D01*
X63369188Y-93401518D01*
X63356928Y-93526000D01*
X62527000Y-93526000D01*
X62527000Y-91900000D01*
X62524560Y-91875224D01*
X62517333Y-91851399D01*
X62505597Y-91829443D01*
X62489803Y-91810197D01*
X62470557Y-91794403D01*
X62448601Y-91782667D01*
X62424776Y-91775440D01*
X62400000Y-91773000D01*
X55127000Y-91773000D01*
X55127000Y-89326712D01*
X58472893Y-89326712D01*
X58580726Y-89601338D01*
X58887384Y-89752216D01*
X59217585Y-89840369D01*
X59558639Y-89862409D01*
X59897439Y-89817489D01*
X60220966Y-89707336D01*
X60419274Y-89601338D01*
X60527107Y-89326712D01*
X59500000Y-88299605D01*
X58472893Y-89326712D01*
X55127000Y-89326712D01*
X55127000Y-88178639D01*
X57757591Y-88178639D01*
X57802511Y-88517439D01*
X57912664Y-88840966D01*
X58018662Y-89039274D01*
X58293288Y-89147107D01*
X59320395Y-88120000D01*
X59679605Y-88120000D01*
X60706712Y-89147107D01*
X60981338Y-89039274D01*
X61132216Y-88732616D01*
X61220369Y-88402415D01*
X61242409Y-88061361D01*
X61197489Y-87722561D01*
X61087336Y-87399034D01*
X60981338Y-87200726D01*
X60706712Y-87092893D01*
X59679605Y-88120000D01*
X59320395Y-88120000D01*
X58293288Y-87092893D01*
X58018662Y-87200726D01*
X57867784Y-87507384D01*
X57779631Y-87837585D01*
X57757591Y-88178639D01*
X55127000Y-88178639D01*
X55127000Y-77718599D01*
X55135724Y-77742976D01*
X55257631Y-77930764D01*
X55413831Y-78091161D01*
X55598322Y-78218003D01*
X55804013Y-78306415D01*
X56023000Y-78353000D01*
X56323000Y-78353000D01*
X56323000Y-77345000D01*
X56577000Y-77345000D01*
X56577000Y-78353000D01*
X56877000Y-78353000D01*
X57095987Y-78306415D01*
X57301678Y-78218003D01*
X57486169Y-78091161D01*
X57642369Y-77930764D01*
X57764276Y-77742976D01*
X57844119Y-77519874D01*
X58985881Y-77519874D01*
X59065724Y-77742976D01*
X59187631Y-77930764D01*
X59343831Y-78091161D01*
X59528322Y-78218003D01*
X59734013Y-78306415D01*
X59953000Y-78353000D01*
X60503000Y-78353000D01*
X60503000Y-77345000D01*
X60757000Y-77345000D01*
X60757000Y-78353000D01*
X61307000Y-78353000D01*
X61525987Y-78306415D01*
X61731678Y-78218003D01*
X61916169Y-78091161D01*
X62072369Y-77930764D01*
X62194276Y-77742976D01*
X62274119Y-77519874D01*
X62147954Y-77345000D01*
X60757000Y-77345000D01*
X60503000Y-77345000D01*
X59112046Y-77345000D01*
X58985881Y-77519874D01*
X57844119Y-77519874D01*
X57717954Y-77345000D01*
X56577000Y-77345000D01*
X56323000Y-77345000D01*
X56303000Y-77345000D01*
X56303000Y-77091000D01*
X56323000Y-77091000D01*
X56323000Y-76083000D01*
X56577000Y-76083000D01*
X56577000Y-77091000D01*
X57717954Y-77091000D01*
X57844119Y-76916126D01*
X58985881Y-76916126D01*
X59112046Y-77091000D01*
X60503000Y-77091000D01*
X60503000Y-77071000D01*
X60757000Y-77071000D01*
X60757000Y-77091000D01*
X62147954Y-77091000D01*
X62274119Y-76916126D01*
X62194276Y-76693024D01*
X62072369Y-76505236D01*
X61916169Y-76344839D01*
X61731678Y-76217997D01*
X61525987Y-76129585D01*
X61307000Y-76083000D01*
X61016904Y-76083000D01*
X61023108Y-76068022D01*
X61060000Y-75882552D01*
X61060000Y-75693448D01*
X61023108Y-75507978D01*
X60950741Y-75333269D01*
X60845681Y-75176036D01*
X60711964Y-75042319D01*
X60554731Y-74937259D01*
X60380022Y-74864892D01*
X60194552Y-74828000D01*
X60005448Y-74828000D01*
X59819978Y-74864892D01*
X59645269Y-74937259D01*
X59488036Y-75042319D01*
X59354319Y-75176036D01*
X59249259Y-75333269D01*
X59176892Y-75507978D01*
X59140000Y-75693448D01*
X59140000Y-75882552D01*
X59176892Y-76068022D01*
X59249259Y-76242731D01*
X59328206Y-76360884D01*
X59187631Y-76505236D01*
X59065724Y-76693024D01*
X58985881Y-76916126D01*
X57844119Y-76916126D01*
X57764276Y-76693024D01*
X57642369Y-76505236D01*
X57486169Y-76344839D01*
X57301678Y-76217997D01*
X57095987Y-76129585D01*
X56877000Y-76083000D01*
X56577000Y-76083000D01*
X56323000Y-76083000D01*
X56023000Y-76083000D01*
X55804013Y-76129585D01*
X55598322Y-76217997D01*
X55413831Y-76344839D01*
X55257631Y-76505236D01*
X55135724Y-76693024D01*
X55127000Y-76717401D01*
X55127000Y-69078599D01*
X55135724Y-69102976D01*
X55257631Y-69290764D01*
X55413831Y-69451161D01*
X55598322Y-69578003D01*
X55804013Y-69666415D01*
X56023000Y-69713000D01*
X56323000Y-69713000D01*
X56323000Y-68705000D01*
X56577000Y-68705000D01*
X56577000Y-69713000D01*
X56877000Y-69713000D01*
X57095987Y-69666415D01*
X57301678Y-69578003D01*
X57486169Y-69451161D01*
X57642369Y-69290764D01*
X57764276Y-69102976D01*
X57844119Y-68879874D01*
X58985881Y-68879874D01*
X59065724Y-69102976D01*
X59187631Y-69290764D01*
X59328206Y-69435116D01*
X59249259Y-69553269D01*
X59176892Y-69727978D01*
X59140000Y-69913448D01*
X59140000Y-70102552D01*
X59176892Y-70288022D01*
X59249259Y-70462731D01*
X59354319Y-70619964D01*
X59488036Y-70753681D01*
X59645269Y-70858741D01*
X59819978Y-70931108D01*
X60005448Y-70968000D01*
X60194552Y-70968000D01*
X60380022Y-70931108D01*
X60554731Y-70858741D01*
X60711964Y-70753681D01*
X60845681Y-70619964D01*
X60950741Y-70462731D01*
X61023108Y-70288022D01*
X61060000Y-70102552D01*
X61060000Y-69913448D01*
X61023108Y-69727978D01*
X61016904Y-69713000D01*
X61307000Y-69713000D01*
X61525987Y-69666415D01*
X61731678Y-69578003D01*
X61916169Y-69451161D01*
X62072369Y-69290764D01*
X62194276Y-69102976D01*
X62274119Y-68879874D01*
X62147954Y-68705000D01*
X60757000Y-68705000D01*
X60757000Y-68725000D01*
X60503000Y-68725000D01*
X60503000Y-68705000D01*
X59112046Y-68705000D01*
X58985881Y-68879874D01*
X57844119Y-68879874D01*
X57717954Y-68705000D01*
X56577000Y-68705000D01*
X56323000Y-68705000D01*
X56303000Y-68705000D01*
X56303000Y-68451000D01*
X56323000Y-68451000D01*
X56323000Y-67443000D01*
X56577000Y-67443000D01*
X56577000Y-68451000D01*
X57717954Y-68451000D01*
X57844119Y-68276126D01*
X58985881Y-68276126D01*
X59112046Y-68451000D01*
X60503000Y-68451000D01*
X60503000Y-67443000D01*
X60757000Y-67443000D01*
X60757000Y-68451000D01*
X62147954Y-68451000D01*
X62274119Y-68276126D01*
X62194276Y-68053024D01*
X62072369Y-67865236D01*
X61916169Y-67704839D01*
X61731678Y-67577997D01*
X61525987Y-67489585D01*
X61307000Y-67443000D01*
X60757000Y-67443000D01*
X60503000Y-67443000D01*
X59953000Y-67443000D01*
X59734013Y-67489585D01*
X59528322Y-67577997D01*
X59343831Y-67704839D01*
X59187631Y-67865236D01*
X59065724Y-68053024D01*
X58985881Y-68276126D01*
X57844119Y-68276126D01*
X57764276Y-68053024D01*
X57642369Y-67865236D01*
X57486169Y-67704839D01*
X57301678Y-67577997D01*
X57095987Y-67489585D01*
X56877000Y-67443000D01*
X56577000Y-67443000D01*
X56323000Y-67443000D01*
X56023000Y-67443000D01*
X55804013Y-67489585D01*
X55598322Y-67577997D01*
X55413831Y-67704839D01*
X55257631Y-67865236D01*
X55135724Y-68053024D01*
X55127000Y-68077401D01*
X55127000Y-59887424D01*
X63057000Y-59887424D01*
X63057000Y-60112576D01*
X63100925Y-60333401D01*
X63187087Y-60541413D01*
X63312174Y-60728620D01*
X63471380Y-60887826D01*
X63658587Y-61012913D01*
X63866599Y-61099075D01*
X64087424Y-61143000D01*
X64312576Y-61143000D01*
X64533401Y-61099075D01*
X64741413Y-61012913D01*
X64928620Y-60887826D01*
X65087826Y-60728620D01*
X65212913Y-60541413D01*
X65299075Y-60333401D01*
X65343000Y-60112576D01*
X65343000Y-59887424D01*
X65299075Y-59666599D01*
X65212913Y-59458587D01*
X65087826Y-59271380D01*
X64928620Y-59112174D01*
X64741413Y-58987087D01*
X64533401Y-58900925D01*
X64312576Y-58857000D01*
X64087424Y-58857000D01*
X63866599Y-58900925D01*
X63658587Y-58987087D01*
X63471380Y-59112174D01*
X63312174Y-59271380D01*
X63187087Y-59458587D01*
X63100925Y-59666599D01*
X63057000Y-59887424D01*
X55127000Y-59887424D01*
X55127000Y-58787424D01*
X78157000Y-58787424D01*
X78157000Y-59012576D01*
X78200925Y-59233401D01*
X78287087Y-59441413D01*
X78412174Y-59628620D01*
X78571380Y-59787826D01*
X78758587Y-59912913D01*
X78966599Y-59999075D01*
X79187424Y-60043000D01*
X79412576Y-60043000D01*
X79633401Y-59999075D01*
X79841413Y-59912913D01*
X80028620Y-59787826D01*
X80187826Y-59628620D01*
X80312913Y-59441413D01*
X80399075Y-59233401D01*
X80443000Y-59012576D01*
X80443000Y-58787424D01*
X80399075Y-58566599D01*
X80312913Y-58358587D01*
X80187826Y-58171380D01*
X80028620Y-58012174D01*
X79841413Y-57887087D01*
X79633401Y-57800925D01*
X79412576Y-57757000D01*
X79187424Y-57757000D01*
X78966599Y-57800925D01*
X78758587Y-57887087D01*
X78571380Y-58012174D01*
X78412174Y-58171380D01*
X78287087Y-58358587D01*
X78200925Y-58566599D01*
X78157000Y-58787424D01*
X55127000Y-58787424D01*
X55127000Y-58227000D01*
X62400000Y-58227000D01*
X62424776Y-58224560D01*
X62448601Y-58217333D01*
X62470557Y-58205597D01*
X62489803Y-58189803D01*
X62505597Y-58170557D01*
X62517333Y-58148601D01*
X62524560Y-58124776D01*
X62527000Y-58100000D01*
X62527000Y-56907911D01*
X67765000Y-56907911D01*
X67765000Y-57092089D01*
X67800932Y-57272729D01*
X67871414Y-57442889D01*
X67973738Y-57596028D01*
X68103972Y-57726262D01*
X68257111Y-57828586D01*
X68427271Y-57899068D01*
X68607911Y-57935000D01*
X68792089Y-57935000D01*
X68972729Y-57899068D01*
X69142889Y-57828586D01*
X69296028Y-57726262D01*
X69298390Y-57723900D01*
X69401610Y-57723900D01*
X69403972Y-57726262D01*
X69557111Y-57828586D01*
X69727271Y-57899068D01*
X69907911Y-57935000D01*
X70092089Y-57935000D01*
X70272729Y-57899068D01*
X70442889Y-57828586D01*
X70596028Y-57726262D01*
X70726262Y-57596028D01*
X70828586Y-57442889D01*
X70899068Y-57272729D01*
X70935000Y-57092089D01*
X70935000Y-56907911D01*
X70899068Y-56727271D01*
X70828586Y-56557111D01*
X70726262Y-56403972D01*
X70596028Y-56273738D01*
X70442889Y-56171414D01*
X70272729Y-56100932D01*
X70092089Y-56065000D01*
X69907911Y-56065000D01*
X69727271Y-56100932D01*
X69557111Y-56171414D01*
X69403972Y-56273738D01*
X69401610Y-56276100D01*
X69298390Y-56276100D01*
X69296028Y-56273738D01*
X69142889Y-56171414D01*
X68972729Y-56100932D01*
X68792089Y-56065000D01*
X68607911Y-56065000D01*
X68427271Y-56100932D01*
X68257111Y-56171414D01*
X68103972Y-56273738D01*
X67973738Y-56403972D01*
X67871414Y-56557111D01*
X67800932Y-56727271D01*
X67765000Y-56907911D01*
X62527000Y-56907911D01*
X62527000Y-50627000D01*
X75391045Y-50627000D01*
X76374477Y-57019311D01*
G37*
G04 #@! TD.AperFunction*
D26*
X95404732Y-65653559D02*
X95376626Y-65676625D01*
X95353560Y-65704731D01*
X95353558Y-65704733D01*
X95284576Y-65788788D01*
X95242903Y-65866753D01*
X95216179Y-65916751D01*
X95176838Y-66046442D01*
X95174059Y-66055602D01*
X95159836Y-66200000D01*
X95163401Y-66236193D01*
X95163400Y-72068809D01*
X95157111Y-72071414D01*
X95003972Y-72173738D01*
X94873738Y-72303972D01*
X94771414Y-72457111D01*
X94700932Y-72627271D01*
X94665000Y-72807911D01*
X94665000Y-72992089D01*
X94681652Y-73075801D01*
X84746489Y-73075801D01*
X84826262Y-72996028D01*
X84928586Y-72842889D01*
X84999068Y-72672729D01*
X85035000Y-72492089D01*
X85035000Y-72474589D01*
X85083822Y-72383249D01*
X85125942Y-72244399D01*
X85136600Y-72136186D01*
X85136600Y-72136177D01*
X85140163Y-72100001D01*
X85136600Y-72063825D01*
X85136600Y-65905109D01*
X85505110Y-65536600D01*
X95521691Y-65536600D01*
X95404732Y-65653559D01*
G04 #@! TA.AperFunction,Conductor*
D27*
G36*
X95404732Y-65653559D02*
G01*
X95376626Y-65676625D01*
X95353560Y-65704731D01*
X95353558Y-65704733D01*
X95284576Y-65788788D01*
X95242903Y-65866753D01*
X95216179Y-65916751D01*
X95176838Y-66046442D01*
X95174059Y-66055602D01*
X95159836Y-66200000D01*
X95163401Y-66236193D01*
X95163400Y-72068809D01*
X95157111Y-72071414D01*
X95003972Y-72173738D01*
X94873738Y-72303972D01*
X94771414Y-72457111D01*
X94700932Y-72627271D01*
X94665000Y-72807911D01*
X94665000Y-72992089D01*
X94681652Y-73075801D01*
X84746489Y-73075801D01*
X84826262Y-72996028D01*
X84928586Y-72842889D01*
X84999068Y-72672729D01*
X85035000Y-72492089D01*
X85035000Y-72474589D01*
X85083822Y-72383249D01*
X85125942Y-72244399D01*
X85136600Y-72136186D01*
X85136600Y-72136177D01*
X85140163Y-72100001D01*
X85136600Y-72063825D01*
X85136600Y-65905109D01*
X85505110Y-65536600D01*
X95521691Y-65536600D01*
X95404732Y-65653559D01*
G37*
G04 #@! TD.AperFunction*
M02*
