G04 #@! TF.GenerationSoftware,KiCad,Pcbnew,(5.1.9)-1*
G04 #@! TF.CreationDate,2021-06-19T22:35:00+01:00*
G04 #@! TF.ProjectId,garden,67617264-656e-42e6-9b69-6361645f7063,rev?*
G04 #@! TF.SameCoordinates,Original*
G04 #@! TF.FileFunction,Soldermask,Bot*
G04 #@! TF.FilePolarity,Negative*
%FSLAX46Y46*%
G04 Gerber Fmt 4.6, Leading zero omitted, Abs format (unit mm)*
G04 Created by KiCad (PCBNEW (5.1.9)-1) date 2021-06-19 22:35:00*
%MOMM*%
%LPD*%
G01*
G04 APERTURE LIST*
%ADD10O,1.700000X1.700000*%
%ADD11R,1.700000X1.700000*%
%ADD12C,3.200000*%
%ADD13C,1.600000*%
%ADD14R,1.600000X1.600000*%
%ADD15O,2.100000X1.000000*%
%ADD16C,0.650000*%
%ADD17O,1.600000X1.000000*%
%ADD18C,2.600000*%
%ADD19R,2.600000X2.600000*%
%ADD20C,2.200000*%
%ADD21R,2.200000X2.200000*%
%ADD22C,0.254000*%
%ADD23C,0.100000*%
G04 APERTURE END LIST*
D10*
X131280000Y-51600000D03*
X128740000Y-51600000D03*
X126200000Y-51600000D03*
X123660000Y-51600000D03*
X121120000Y-51600000D03*
X118580000Y-51600000D03*
X116040000Y-51600000D03*
D11*
X113500000Y-51600000D03*
D12*
X129000000Y-96000000D03*
X58000000Y-96000000D03*
X58000000Y-54000000D03*
D13*
X67000000Y-85900000D03*
D14*
X70500000Y-85900000D03*
D15*
X60630000Y-77218000D03*
X60630000Y-68578000D03*
D16*
X60100000Y-70008000D03*
D17*
X56450000Y-68578000D03*
D16*
X60100000Y-75788000D03*
D17*
X56450000Y-77218000D03*
D18*
X83080000Y-94600000D03*
D19*
X78000000Y-94600000D03*
D18*
X94680000Y-94600000D03*
D19*
X89600000Y-94600000D03*
D18*
X127000000Y-58039000D03*
D19*
X127000000Y-63119000D03*
D18*
X127000000Y-81026000D03*
D19*
X127000000Y-86106000D03*
D18*
X106275000Y-94615000D03*
D19*
X101195000Y-94615000D03*
D18*
X117832000Y-94615000D03*
D19*
X112752000Y-94615000D03*
D18*
X127000000Y-69469000D03*
D19*
X127000000Y-74549000D03*
D20*
X72715000Y-94626000D03*
X70175000Y-94626000D03*
X67635000Y-94626000D03*
D21*
X65095000Y-94626000D03*
D20*
X59500000Y-88120000D03*
X59500000Y-85580000D03*
X59500000Y-83040000D03*
D21*
X59500000Y-80500000D03*
D22*
X93599000Y-68199000D02*
X86995000Y-68199000D01*
X86995000Y-62611000D01*
X93599000Y-62611000D01*
X93599000Y-68199000D01*
D23*
G36*
X93599000Y-68199000D02*
G01*
X86995000Y-68199000D01*
X86995000Y-62611000D01*
X93599000Y-62611000D01*
X93599000Y-68199000D01*
G37*
M02*
