G04 #@! TF.GenerationSoftware,KiCad,Pcbnew,(5.1.9)-1*
G04 #@! TF.CreationDate,2021-06-19T22:35:00+01:00*
G04 #@! TF.ProjectId,garden,67617264-656e-42e6-9b69-6361645f7063,rev?*
G04 #@! TF.SameCoordinates,Original*
G04 #@! TF.FileFunction,Soldermask,Top*
G04 #@! TF.FilePolarity,Negative*
%FSLAX46Y46*%
G04 Gerber Fmt 4.6, Leading zero omitted, Abs format (unit mm)*
G04 Created by KiCad (PCBNEW (5.1.9)-1) date 2021-06-19 22:35:00*
%MOMM*%
%LPD*%
G01*
G04 APERTURE LIST*
%ADD10O,1.700000X1.700000*%
%ADD11R,1.700000X1.700000*%
%ADD12R,2.000000X0.900000*%
%ADD13R,0.900000X2.000000*%
%ADD14R,5.000000X5.000000*%
%ADD15C,3.200000*%
%ADD16C,1.600000*%
%ADD17R,1.600000X1.600000*%
%ADD18R,1.220000X0.650000*%
%ADD19R,1.200000X0.900000*%
%ADD20R,0.900000X1.200000*%
%ADD21C,0.100000*%
%ADD22R,1.450000X0.600000*%
%ADD23R,1.450000X0.300000*%
%ADD24O,2.100000X1.000000*%
%ADD25C,0.650000*%
%ADD26O,1.600000X1.000000*%
%ADD27R,3.500000X2.200000*%
%ADD28R,0.800000X0.900000*%
%ADD29C,2.600000*%
%ADD30R,2.600000X2.600000*%
%ADD31R,0.900000X0.800000*%
%ADD32R,1.060000X0.650000*%
%ADD33R,0.500000X0.500000*%
%ADD34R,1.000000X0.750000*%
%ADD35C,2.200000*%
%ADD36R,2.200000X2.200000*%
G04 APERTURE END LIST*
G36*
G01*
X108956250Y-51150000D02*
X108443750Y-51150000D01*
G75*
G02*
X108225000Y-50931250I0J218750D01*
G01*
X108225000Y-50493750D01*
G75*
G02*
X108443750Y-50275000I218750J0D01*
G01*
X108956250Y-50275000D01*
G75*
G02*
X109175000Y-50493750I0J-218750D01*
G01*
X109175000Y-50931250D01*
G75*
G02*
X108956250Y-51150000I-218750J0D01*
G01*
G37*
G36*
G01*
X108956250Y-52725000D02*
X108443750Y-52725000D01*
G75*
G02*
X108225000Y-52506250I0J218750D01*
G01*
X108225000Y-52068750D01*
G75*
G02*
X108443750Y-51850000I218750J0D01*
G01*
X108956250Y-51850000D01*
G75*
G02*
X109175000Y-52068750I0J-218750D01*
G01*
X109175000Y-52506250D01*
G75*
G02*
X108956250Y-52725000I-218750J0D01*
G01*
G37*
D10*
X131280000Y-51600000D03*
X128740000Y-51600000D03*
X126200000Y-51600000D03*
X123660000Y-51600000D03*
X121120000Y-51600000D03*
X118580000Y-51600000D03*
X116040000Y-51600000D03*
D11*
X113500000Y-51600000D03*
D12*
X99686000Y-57277000D03*
X99686000Y-58547000D03*
X99686000Y-59817000D03*
X99686000Y-61087000D03*
X99686000Y-62357000D03*
X99686000Y-63627000D03*
X99686000Y-64897000D03*
X99686000Y-66167000D03*
X99686000Y-67437000D03*
X99686000Y-68707000D03*
X99686000Y-69977000D03*
X99686000Y-71247000D03*
X99686000Y-72517000D03*
X99686000Y-73787000D03*
D13*
X96901000Y-74787000D03*
X95631000Y-74787000D03*
X94361000Y-74787000D03*
X93091000Y-74787000D03*
X91821000Y-74787000D03*
X90551000Y-74787000D03*
X89281000Y-74787000D03*
X88011000Y-74787000D03*
X86741000Y-74787000D03*
X85471000Y-74787000D03*
D12*
X82686000Y-73787000D03*
X82686000Y-72517000D03*
X82686000Y-71247000D03*
X82686000Y-69977000D03*
X82686000Y-68707000D03*
X82686000Y-67437000D03*
X82686000Y-66167000D03*
X82686000Y-64897000D03*
X82686000Y-63627000D03*
X82686000Y-62357000D03*
X82686000Y-61087000D03*
X82686000Y-59817000D03*
X82686000Y-58547000D03*
X82686000Y-57277000D03*
D14*
X90186000Y-64777000D03*
D15*
X129000000Y-96000000D03*
X58000000Y-96000000D03*
X58000000Y-54000000D03*
G36*
G01*
X65077500Y-57940000D02*
X65422500Y-57940000D01*
G75*
G02*
X65570000Y-58087500I0J-147500D01*
G01*
X65570000Y-58382500D01*
G75*
G02*
X65422500Y-58530000I-147500J0D01*
G01*
X65077500Y-58530000D01*
G75*
G02*
X64930000Y-58382500I0J147500D01*
G01*
X64930000Y-58087500D01*
G75*
G02*
X65077500Y-57940000I147500J0D01*
G01*
G37*
G36*
G01*
X65077500Y-56970000D02*
X65422500Y-56970000D01*
G75*
G02*
X65570000Y-57117500I0J-147500D01*
G01*
X65570000Y-57412500D01*
G75*
G02*
X65422500Y-57560000I-147500J0D01*
G01*
X65077500Y-57560000D01*
G75*
G02*
X64930000Y-57412500I0J147500D01*
G01*
X64930000Y-57117500D01*
G75*
G02*
X65077500Y-56970000I147500J0D01*
G01*
G37*
D16*
X67000000Y-85900000D03*
D17*
X70500000Y-85900000D03*
G36*
G01*
X77550000Y-78556250D02*
X77550000Y-77643750D01*
G75*
G02*
X77793750Y-77400000I243750J0D01*
G01*
X78281250Y-77400000D01*
G75*
G02*
X78525000Y-77643750I0J-243750D01*
G01*
X78525000Y-78556250D01*
G75*
G02*
X78281250Y-78800000I-243750J0D01*
G01*
X77793750Y-78800000D01*
G75*
G02*
X77550000Y-78556250I0J243750D01*
G01*
G37*
G36*
G01*
X75675000Y-78556250D02*
X75675000Y-77643750D01*
G75*
G02*
X75918750Y-77400000I243750J0D01*
G01*
X76406250Y-77400000D01*
G75*
G02*
X76650000Y-77643750I0J-243750D01*
G01*
X76650000Y-78556250D01*
G75*
G02*
X76406250Y-78800000I-243750J0D01*
G01*
X75918750Y-78800000D01*
G75*
G02*
X75675000Y-78556250I0J243750D01*
G01*
G37*
G36*
G01*
X74110000Y-80777500D02*
X74110000Y-81122500D01*
G75*
G02*
X73962500Y-81270000I-147500J0D01*
G01*
X73667500Y-81270000D01*
G75*
G02*
X73520000Y-81122500I0J147500D01*
G01*
X73520000Y-80777500D01*
G75*
G02*
X73667500Y-80630000I147500J0D01*
G01*
X73962500Y-80630000D01*
G75*
G02*
X74110000Y-80777500I0J-147500D01*
G01*
G37*
G36*
G01*
X75080000Y-80777500D02*
X75080000Y-81122500D01*
G75*
G02*
X74932500Y-81270000I-147500J0D01*
G01*
X74637500Y-81270000D01*
G75*
G02*
X74490000Y-81122500I0J147500D01*
G01*
X74490000Y-80777500D01*
G75*
G02*
X74637500Y-80630000I147500J0D01*
G01*
X74932500Y-80630000D01*
G75*
G02*
X75080000Y-80777500I0J-147500D01*
G01*
G37*
G36*
G01*
X73950000Y-76006250D02*
X73950000Y-75493750D01*
G75*
G02*
X74168750Y-75275000I218750J0D01*
G01*
X74606250Y-75275000D01*
G75*
G02*
X74825000Y-75493750I0J-218750D01*
G01*
X74825000Y-76006250D01*
G75*
G02*
X74606250Y-76225000I-218750J0D01*
G01*
X74168750Y-76225000D01*
G75*
G02*
X73950000Y-76006250I0J218750D01*
G01*
G37*
G36*
G01*
X72375000Y-76006250D02*
X72375000Y-75493750D01*
G75*
G02*
X72593750Y-75275000I218750J0D01*
G01*
X73031250Y-75275000D01*
G75*
G02*
X73250000Y-75493750I0J-218750D01*
G01*
X73250000Y-76006250D01*
G75*
G02*
X73031250Y-76225000I-218750J0D01*
G01*
X72593750Y-76225000D01*
G75*
G02*
X72375000Y-76006250I0J218750D01*
G01*
G37*
D18*
X74260000Y-77600000D03*
X74260000Y-78550000D03*
X74260000Y-79500000D03*
X71640000Y-79500000D03*
X71640000Y-78550000D03*
X71640000Y-77600000D03*
G36*
G01*
X72140000Y-81135000D02*
X72140000Y-80765000D01*
G75*
G02*
X72275000Y-80630000I135000J0D01*
G01*
X72545000Y-80630000D01*
G75*
G02*
X72680000Y-80765000I0J-135000D01*
G01*
X72680000Y-81135000D01*
G75*
G02*
X72545000Y-81270000I-135000J0D01*
G01*
X72275000Y-81270000D01*
G75*
G02*
X72140000Y-81135000I0J135000D01*
G01*
G37*
G36*
G01*
X71120000Y-81135000D02*
X71120000Y-80765000D01*
G75*
G02*
X71255000Y-80630000I135000J0D01*
G01*
X71525000Y-80630000D01*
G75*
G02*
X71660000Y-80765000I0J-135000D01*
G01*
X71660000Y-81135000D01*
G75*
G02*
X71525000Y-81270000I-135000J0D01*
G01*
X71255000Y-81270000D01*
G75*
G02*
X71120000Y-81135000I0J135000D01*
G01*
G37*
D19*
X67200000Y-75650000D03*
X67200000Y-78950000D03*
X75300000Y-86250000D03*
X75300000Y-82950000D03*
D20*
X79550000Y-75800000D03*
X76250000Y-75800000D03*
G36*
G01*
X68577500Y-73190000D02*
X68922500Y-73190000D01*
G75*
G02*
X69070000Y-73337500I0J-147500D01*
G01*
X69070000Y-73632500D01*
G75*
G02*
X68922500Y-73780000I-147500J0D01*
G01*
X68577500Y-73780000D01*
G75*
G02*
X68430000Y-73632500I0J147500D01*
G01*
X68430000Y-73337500D01*
G75*
G02*
X68577500Y-73190000I147500J0D01*
G01*
G37*
G36*
G01*
X68577500Y-72220000D02*
X68922500Y-72220000D01*
G75*
G02*
X69070000Y-72367500I0J-147500D01*
G01*
X69070000Y-72662500D01*
G75*
G02*
X68922500Y-72810000I-147500J0D01*
G01*
X68577500Y-72810000D01*
G75*
G02*
X68430000Y-72662500I0J147500D01*
G01*
X68430000Y-72367500D01*
G75*
G02*
X68577500Y-72220000I147500J0D01*
G01*
G37*
D21*
G36*
X64500000Y-77275000D02*
G01*
X63750000Y-76775000D01*
X63750000Y-75775000D01*
X65250000Y-75775000D01*
X65250000Y-76775000D01*
X64500000Y-77275000D01*
G37*
G36*
X63750000Y-78225000D02*
G01*
X63750000Y-77075000D01*
X64500000Y-77575000D01*
X65250000Y-77075000D01*
X65250000Y-78225000D01*
X63750000Y-78225000D01*
G37*
D22*
X61545000Y-76148000D03*
X61545000Y-75348000D03*
X61545000Y-70448000D03*
X61545000Y-69648000D03*
X61545000Y-69648000D03*
X61545000Y-70448000D03*
X61545000Y-75348000D03*
X61545000Y-76148000D03*
D23*
X61545000Y-71148000D03*
X61545000Y-71648000D03*
X61545000Y-72148000D03*
X61545000Y-73148000D03*
X61545000Y-73648000D03*
X61545000Y-74148000D03*
X61545000Y-74648000D03*
X61545000Y-72648000D03*
D24*
X60630000Y-77218000D03*
X60630000Y-68578000D03*
D25*
X60100000Y-70008000D03*
D26*
X56450000Y-68578000D03*
D25*
X60100000Y-75788000D03*
D26*
X56450000Y-77218000D03*
D27*
X74600000Y-67200000D03*
X74600000Y-73100000D03*
G36*
G01*
X78650000Y-68275000D02*
X79150000Y-68275000D01*
G75*
G02*
X79375000Y-68500000I0J-225000D01*
G01*
X79375000Y-68950000D01*
G75*
G02*
X79150000Y-69175000I-225000J0D01*
G01*
X78650000Y-69175000D01*
G75*
G02*
X78425000Y-68950000I0J225000D01*
G01*
X78425000Y-68500000D01*
G75*
G02*
X78650000Y-68275000I225000J0D01*
G01*
G37*
G36*
G01*
X78650000Y-66725000D02*
X79150000Y-66725000D01*
G75*
G02*
X79375000Y-66950000I0J-225000D01*
G01*
X79375000Y-67400000D01*
G75*
G02*
X79150000Y-67625000I-225000J0D01*
G01*
X78650000Y-67625000D01*
G75*
G02*
X78425000Y-67400000I0J225000D01*
G01*
X78425000Y-66950000D01*
G75*
G02*
X78650000Y-66725000I225000J0D01*
G01*
G37*
D28*
X100284000Y-85072000D03*
X99334000Y-83072000D03*
X101234000Y-83072000D03*
G36*
G01*
X81215000Y-77340000D02*
X81585000Y-77340000D01*
G75*
G02*
X81720000Y-77475000I0J-135000D01*
G01*
X81720000Y-77745000D01*
G75*
G02*
X81585000Y-77880000I-135000J0D01*
G01*
X81215000Y-77880000D01*
G75*
G02*
X81080000Y-77745000I0J135000D01*
G01*
X81080000Y-77475000D01*
G75*
G02*
X81215000Y-77340000I135000J0D01*
G01*
G37*
G36*
G01*
X81215000Y-76320000D02*
X81585000Y-76320000D01*
G75*
G02*
X81720000Y-76455000I0J-135000D01*
G01*
X81720000Y-76725000D01*
G75*
G02*
X81585000Y-76860000I-135000J0D01*
G01*
X81215000Y-76860000D01*
G75*
G02*
X81080000Y-76725000I0J135000D01*
G01*
X81080000Y-76455000D01*
G75*
G02*
X81215000Y-76320000I135000J0D01*
G01*
G37*
G36*
G01*
X97860000Y-78015000D02*
X97860000Y-78385000D01*
G75*
G02*
X97725000Y-78520000I-135000J0D01*
G01*
X97455000Y-78520000D01*
G75*
G02*
X97320000Y-78385000I0J135000D01*
G01*
X97320000Y-78015000D01*
G75*
G02*
X97455000Y-77880000I135000J0D01*
G01*
X97725000Y-77880000D01*
G75*
G02*
X97860000Y-78015000I0J-135000D01*
G01*
G37*
G36*
G01*
X98880000Y-78015000D02*
X98880000Y-78385000D01*
G75*
G02*
X98745000Y-78520000I-135000J0D01*
G01*
X98475000Y-78520000D01*
G75*
G02*
X98340000Y-78385000I0J135000D01*
G01*
X98340000Y-78015000D01*
G75*
G02*
X98475000Y-77880000I135000J0D01*
G01*
X98745000Y-77880000D01*
G75*
G02*
X98880000Y-78015000I0J-135000D01*
G01*
G37*
X78800000Y-85200000D03*
X77850000Y-83200000D03*
X79750000Y-83200000D03*
X90600000Y-85200000D03*
X89650000Y-83200000D03*
X91550000Y-83200000D03*
D29*
X83080000Y-94600000D03*
D30*
X78000000Y-94600000D03*
D29*
X94680000Y-94600000D03*
D30*
X89600000Y-94600000D03*
D20*
X77250000Y-87400000D03*
X80550000Y-87400000D03*
X88950000Y-87400000D03*
X92250000Y-87400000D03*
G36*
G01*
X102640000Y-78085000D02*
X102640000Y-77715000D01*
G75*
G02*
X102775000Y-77580000I135000J0D01*
G01*
X103045000Y-77580000D01*
G75*
G02*
X103180000Y-77715000I0J-135000D01*
G01*
X103180000Y-78085000D01*
G75*
G02*
X103045000Y-78220000I-135000J0D01*
G01*
X102775000Y-78220000D01*
G75*
G02*
X102640000Y-78085000I0J135000D01*
G01*
G37*
G36*
G01*
X101620000Y-78085000D02*
X101620000Y-77715000D01*
G75*
G02*
X101755000Y-77580000I135000J0D01*
G01*
X102025000Y-77580000D01*
G75*
G02*
X102160000Y-77715000I0J-135000D01*
G01*
X102160000Y-78085000D01*
G75*
G02*
X102025000Y-78220000I-135000J0D01*
G01*
X101755000Y-78220000D01*
G75*
G02*
X101620000Y-78085000I0J135000D01*
G01*
G37*
D28*
X106300000Y-87300000D03*
X105350000Y-85300000D03*
X107250000Y-85300000D03*
G36*
G01*
X100090000Y-77666000D02*
X100090000Y-78036000D01*
G75*
G02*
X99955000Y-78171000I-135000J0D01*
G01*
X99685000Y-78171000D01*
G75*
G02*
X99550000Y-78036000I0J135000D01*
G01*
X99550000Y-77666000D01*
G75*
G02*
X99685000Y-77531000I135000J0D01*
G01*
X99955000Y-77531000D01*
G75*
G02*
X100090000Y-77666000I0J-135000D01*
G01*
G37*
G36*
G01*
X101110000Y-77666000D02*
X101110000Y-78036000D01*
G75*
G02*
X100975000Y-78171000I-135000J0D01*
G01*
X100705000Y-78171000D01*
G75*
G02*
X100570000Y-78036000I0J135000D01*
G01*
X100570000Y-77666000D01*
G75*
G02*
X100705000Y-77531000I135000J0D01*
G01*
X100975000Y-77531000D01*
G75*
G02*
X101110000Y-77666000I0J-135000D01*
G01*
G37*
G36*
G01*
X113469000Y-79807750D02*
X113469000Y-80720250D01*
G75*
G02*
X113225250Y-80964000I-243750J0D01*
G01*
X112737750Y-80964000D01*
G75*
G02*
X112494000Y-80720250I0J243750D01*
G01*
X112494000Y-79807750D01*
G75*
G02*
X112737750Y-79564000I243750J0D01*
G01*
X113225250Y-79564000D01*
G75*
G02*
X113469000Y-79807750I0J-243750D01*
G01*
G37*
G36*
G01*
X115344000Y-79807750D02*
X115344000Y-80720250D01*
G75*
G02*
X115100250Y-80964000I-243750J0D01*
G01*
X114612750Y-80964000D01*
G75*
G02*
X114369000Y-80720250I0J243750D01*
G01*
X114369000Y-79807750D01*
G75*
G02*
X114612750Y-79564000I243750J0D01*
G01*
X115100250Y-79564000D01*
G75*
G02*
X115344000Y-79807750I0J-243750D01*
G01*
G37*
D31*
X120253000Y-85725000D03*
X118253000Y-86675000D03*
X118253000Y-84775000D03*
D29*
X127000000Y-58039000D03*
D30*
X127000000Y-63119000D03*
D29*
X127000000Y-81026000D03*
D30*
X127000000Y-86106000D03*
D29*
X106275000Y-94615000D03*
D30*
X101195000Y-94615000D03*
D29*
X117832000Y-94615000D03*
D30*
X112752000Y-94615000D03*
D29*
X127000000Y-69469000D03*
D30*
X127000000Y-74549000D03*
G36*
G01*
X67415000Y-70540000D02*
X67785000Y-70540000D01*
G75*
G02*
X67920000Y-70675000I0J-135000D01*
G01*
X67920000Y-70945000D01*
G75*
G02*
X67785000Y-71080000I-135000J0D01*
G01*
X67415000Y-71080000D01*
G75*
G02*
X67280000Y-70945000I0J135000D01*
G01*
X67280000Y-70675000D01*
G75*
G02*
X67415000Y-70540000I135000J0D01*
G01*
G37*
G36*
G01*
X67415000Y-69520000D02*
X67785000Y-69520000D01*
G75*
G02*
X67920000Y-69655000I0J-135000D01*
G01*
X67920000Y-69925000D01*
G75*
G02*
X67785000Y-70060000I-135000J0D01*
G01*
X67415000Y-70060000D01*
G75*
G02*
X67280000Y-69925000I0J135000D01*
G01*
X67280000Y-69655000D01*
G75*
G02*
X67415000Y-69520000I135000J0D01*
G01*
G37*
G36*
G01*
X65490000Y-67435000D02*
X65490000Y-67065000D01*
G75*
G02*
X65625000Y-66930000I135000J0D01*
G01*
X65895000Y-66930000D01*
G75*
G02*
X66030000Y-67065000I0J-135000D01*
G01*
X66030000Y-67435000D01*
G75*
G02*
X65895000Y-67570000I-135000J0D01*
G01*
X65625000Y-67570000D01*
G75*
G02*
X65490000Y-67435000I0J135000D01*
G01*
G37*
G36*
G01*
X64470000Y-67435000D02*
X64470000Y-67065000D01*
G75*
G02*
X64605000Y-66930000I135000J0D01*
G01*
X64875000Y-66930000D01*
G75*
G02*
X65010000Y-67065000I0J-135000D01*
G01*
X65010000Y-67435000D01*
G75*
G02*
X64875000Y-67570000I-135000J0D01*
G01*
X64605000Y-67570000D01*
G75*
G02*
X64470000Y-67435000I0J135000D01*
G01*
G37*
G36*
G01*
X67005000Y-59900000D02*
X66705000Y-59900000D01*
G75*
G02*
X66555000Y-59750000I0J150000D01*
G01*
X66555000Y-58100000D01*
G75*
G02*
X66705000Y-57950000I150000J0D01*
G01*
X67005000Y-57950000D01*
G75*
G02*
X67155000Y-58100000I0J-150000D01*
G01*
X67155000Y-59750000D01*
G75*
G02*
X67005000Y-59900000I-150000J0D01*
G01*
G37*
G36*
G01*
X68275000Y-59900000D02*
X67975000Y-59900000D01*
G75*
G02*
X67825000Y-59750000I0J150000D01*
G01*
X67825000Y-58100000D01*
G75*
G02*
X67975000Y-57950000I150000J0D01*
G01*
X68275000Y-57950000D01*
G75*
G02*
X68425000Y-58100000I0J-150000D01*
G01*
X68425000Y-59750000D01*
G75*
G02*
X68275000Y-59900000I-150000J0D01*
G01*
G37*
G36*
G01*
X69545000Y-59900000D02*
X69245000Y-59900000D01*
G75*
G02*
X69095000Y-59750000I0J150000D01*
G01*
X69095000Y-58100000D01*
G75*
G02*
X69245000Y-57950000I150000J0D01*
G01*
X69545000Y-57950000D01*
G75*
G02*
X69695000Y-58100000I0J-150000D01*
G01*
X69695000Y-59750000D01*
G75*
G02*
X69545000Y-59900000I-150000J0D01*
G01*
G37*
G36*
G01*
X70815000Y-59900000D02*
X70515000Y-59900000D01*
G75*
G02*
X70365000Y-59750000I0J150000D01*
G01*
X70365000Y-58100000D01*
G75*
G02*
X70515000Y-57950000I150000J0D01*
G01*
X70815000Y-57950000D01*
G75*
G02*
X70965000Y-58100000I0J-150000D01*
G01*
X70965000Y-59750000D01*
G75*
G02*
X70815000Y-59900000I-150000J0D01*
G01*
G37*
G36*
G01*
X72085000Y-59900000D02*
X71785000Y-59900000D01*
G75*
G02*
X71635000Y-59750000I0J150000D01*
G01*
X71635000Y-58100000D01*
G75*
G02*
X71785000Y-57950000I150000J0D01*
G01*
X72085000Y-57950000D01*
G75*
G02*
X72235000Y-58100000I0J-150000D01*
G01*
X72235000Y-59750000D01*
G75*
G02*
X72085000Y-59900000I-150000J0D01*
G01*
G37*
G36*
G01*
X73355000Y-59900000D02*
X73055000Y-59900000D01*
G75*
G02*
X72905000Y-59750000I0J150000D01*
G01*
X72905000Y-58100000D01*
G75*
G02*
X73055000Y-57950000I150000J0D01*
G01*
X73355000Y-57950000D01*
G75*
G02*
X73505000Y-58100000I0J-150000D01*
G01*
X73505000Y-59750000D01*
G75*
G02*
X73355000Y-59900000I-150000J0D01*
G01*
G37*
G36*
G01*
X74625000Y-59900000D02*
X74325000Y-59900000D01*
G75*
G02*
X74175000Y-59750000I0J150000D01*
G01*
X74175000Y-58100000D01*
G75*
G02*
X74325000Y-57950000I150000J0D01*
G01*
X74625000Y-57950000D01*
G75*
G02*
X74775000Y-58100000I0J-150000D01*
G01*
X74775000Y-59750000D01*
G75*
G02*
X74625000Y-59900000I-150000J0D01*
G01*
G37*
G36*
G01*
X75895000Y-59900000D02*
X75595000Y-59900000D01*
G75*
G02*
X75445000Y-59750000I0J150000D01*
G01*
X75445000Y-58100000D01*
G75*
G02*
X75595000Y-57950000I150000J0D01*
G01*
X75895000Y-57950000D01*
G75*
G02*
X76045000Y-58100000I0J-150000D01*
G01*
X76045000Y-59750000D01*
G75*
G02*
X75895000Y-59900000I-150000J0D01*
G01*
G37*
G36*
G01*
X75895000Y-64850000D02*
X75595000Y-64850000D01*
G75*
G02*
X75445000Y-64700000I0J150000D01*
G01*
X75445000Y-63050000D01*
G75*
G02*
X75595000Y-62900000I150000J0D01*
G01*
X75895000Y-62900000D01*
G75*
G02*
X76045000Y-63050000I0J-150000D01*
G01*
X76045000Y-64700000D01*
G75*
G02*
X75895000Y-64850000I-150000J0D01*
G01*
G37*
G36*
G01*
X74625000Y-64850000D02*
X74325000Y-64850000D01*
G75*
G02*
X74175000Y-64700000I0J150000D01*
G01*
X74175000Y-63050000D01*
G75*
G02*
X74325000Y-62900000I150000J0D01*
G01*
X74625000Y-62900000D01*
G75*
G02*
X74775000Y-63050000I0J-150000D01*
G01*
X74775000Y-64700000D01*
G75*
G02*
X74625000Y-64850000I-150000J0D01*
G01*
G37*
G36*
G01*
X73355000Y-64850000D02*
X73055000Y-64850000D01*
G75*
G02*
X72905000Y-64700000I0J150000D01*
G01*
X72905000Y-63050000D01*
G75*
G02*
X73055000Y-62900000I150000J0D01*
G01*
X73355000Y-62900000D01*
G75*
G02*
X73505000Y-63050000I0J-150000D01*
G01*
X73505000Y-64700000D01*
G75*
G02*
X73355000Y-64850000I-150000J0D01*
G01*
G37*
G36*
G01*
X72085000Y-64850000D02*
X71785000Y-64850000D01*
G75*
G02*
X71635000Y-64700000I0J150000D01*
G01*
X71635000Y-63050000D01*
G75*
G02*
X71785000Y-62900000I150000J0D01*
G01*
X72085000Y-62900000D01*
G75*
G02*
X72235000Y-63050000I0J-150000D01*
G01*
X72235000Y-64700000D01*
G75*
G02*
X72085000Y-64850000I-150000J0D01*
G01*
G37*
G36*
G01*
X70815000Y-64850000D02*
X70515000Y-64850000D01*
G75*
G02*
X70365000Y-64700000I0J150000D01*
G01*
X70365000Y-63050000D01*
G75*
G02*
X70515000Y-62900000I150000J0D01*
G01*
X70815000Y-62900000D01*
G75*
G02*
X70965000Y-63050000I0J-150000D01*
G01*
X70965000Y-64700000D01*
G75*
G02*
X70815000Y-64850000I-150000J0D01*
G01*
G37*
G36*
G01*
X69545000Y-64850000D02*
X69245000Y-64850000D01*
G75*
G02*
X69095000Y-64700000I0J150000D01*
G01*
X69095000Y-63050000D01*
G75*
G02*
X69245000Y-62900000I150000J0D01*
G01*
X69545000Y-62900000D01*
G75*
G02*
X69695000Y-63050000I0J-150000D01*
G01*
X69695000Y-64700000D01*
G75*
G02*
X69545000Y-64850000I-150000J0D01*
G01*
G37*
G36*
G01*
X68275000Y-64850000D02*
X67975000Y-64850000D01*
G75*
G02*
X67825000Y-64700000I0J150000D01*
G01*
X67825000Y-63050000D01*
G75*
G02*
X67975000Y-62900000I150000J0D01*
G01*
X68275000Y-62900000D01*
G75*
G02*
X68425000Y-63050000I0J-150000D01*
G01*
X68425000Y-64700000D01*
G75*
G02*
X68275000Y-64850000I-150000J0D01*
G01*
G37*
G36*
G01*
X67005000Y-64850000D02*
X66705000Y-64850000D01*
G75*
G02*
X66555000Y-64700000I0J150000D01*
G01*
X66555000Y-63050000D01*
G75*
G02*
X66705000Y-62900000I150000J0D01*
G01*
X67005000Y-62900000D01*
G75*
G02*
X67155000Y-63050000I0J-150000D01*
G01*
X67155000Y-64700000D01*
G75*
G02*
X67005000Y-64850000I-150000J0D01*
G01*
G37*
G36*
G01*
X112854000Y-75402000D02*
X112854000Y-75252000D01*
G75*
G02*
X112929000Y-75177000I75000J0D01*
G01*
X114229000Y-75177000D01*
G75*
G02*
X114304000Y-75252000I0J-75000D01*
G01*
X114304000Y-75402000D01*
G75*
G02*
X114229000Y-75477000I-75000J0D01*
G01*
X112929000Y-75477000D01*
G75*
G02*
X112854000Y-75402000I0J75000D01*
G01*
G37*
G36*
G01*
X112854000Y-75902000D02*
X112854000Y-75752000D01*
G75*
G02*
X112929000Y-75677000I75000J0D01*
G01*
X114229000Y-75677000D01*
G75*
G02*
X114304000Y-75752000I0J-75000D01*
G01*
X114304000Y-75902000D01*
G75*
G02*
X114229000Y-75977000I-75000J0D01*
G01*
X112929000Y-75977000D01*
G75*
G02*
X112854000Y-75902000I0J75000D01*
G01*
G37*
G36*
G01*
X112854000Y-76402000D02*
X112854000Y-76252000D01*
G75*
G02*
X112929000Y-76177000I75000J0D01*
G01*
X114229000Y-76177000D01*
G75*
G02*
X114304000Y-76252000I0J-75000D01*
G01*
X114304000Y-76402000D01*
G75*
G02*
X114229000Y-76477000I-75000J0D01*
G01*
X112929000Y-76477000D01*
G75*
G02*
X112854000Y-76402000I0J75000D01*
G01*
G37*
G36*
G01*
X112854000Y-76902000D02*
X112854000Y-76752000D01*
G75*
G02*
X112929000Y-76677000I75000J0D01*
G01*
X114229000Y-76677000D01*
G75*
G02*
X114304000Y-76752000I0J-75000D01*
G01*
X114304000Y-76902000D01*
G75*
G02*
X114229000Y-76977000I-75000J0D01*
G01*
X112929000Y-76977000D01*
G75*
G02*
X112854000Y-76902000I0J75000D01*
G01*
G37*
G36*
G01*
X112854000Y-77402000D02*
X112854000Y-77252000D01*
G75*
G02*
X112929000Y-77177000I75000J0D01*
G01*
X114229000Y-77177000D01*
G75*
G02*
X114304000Y-77252000I0J-75000D01*
G01*
X114304000Y-77402000D01*
G75*
G02*
X114229000Y-77477000I-75000J0D01*
G01*
X112929000Y-77477000D01*
G75*
G02*
X112854000Y-77402000I0J75000D01*
G01*
G37*
G36*
G01*
X108454000Y-77402000D02*
X108454000Y-77252000D01*
G75*
G02*
X108529000Y-77177000I75000J0D01*
G01*
X109829000Y-77177000D01*
G75*
G02*
X109904000Y-77252000I0J-75000D01*
G01*
X109904000Y-77402000D01*
G75*
G02*
X109829000Y-77477000I-75000J0D01*
G01*
X108529000Y-77477000D01*
G75*
G02*
X108454000Y-77402000I0J75000D01*
G01*
G37*
G36*
G01*
X108454000Y-76902000D02*
X108454000Y-76752000D01*
G75*
G02*
X108529000Y-76677000I75000J0D01*
G01*
X109829000Y-76677000D01*
G75*
G02*
X109904000Y-76752000I0J-75000D01*
G01*
X109904000Y-76902000D01*
G75*
G02*
X109829000Y-76977000I-75000J0D01*
G01*
X108529000Y-76977000D01*
G75*
G02*
X108454000Y-76902000I0J75000D01*
G01*
G37*
G36*
G01*
X108454000Y-76402000D02*
X108454000Y-76252000D01*
G75*
G02*
X108529000Y-76177000I75000J0D01*
G01*
X109829000Y-76177000D01*
G75*
G02*
X109904000Y-76252000I0J-75000D01*
G01*
X109904000Y-76402000D01*
G75*
G02*
X109829000Y-76477000I-75000J0D01*
G01*
X108529000Y-76477000D01*
G75*
G02*
X108454000Y-76402000I0J75000D01*
G01*
G37*
G36*
G01*
X108454000Y-75902000D02*
X108454000Y-75752000D01*
G75*
G02*
X108529000Y-75677000I75000J0D01*
G01*
X109829000Y-75677000D01*
G75*
G02*
X109904000Y-75752000I0J-75000D01*
G01*
X109904000Y-75902000D01*
G75*
G02*
X109829000Y-75977000I-75000J0D01*
G01*
X108529000Y-75977000D01*
G75*
G02*
X108454000Y-75902000I0J75000D01*
G01*
G37*
G36*
G01*
X108454000Y-75402000D02*
X108454000Y-75252000D01*
G75*
G02*
X108529000Y-75177000I75000J0D01*
G01*
X109829000Y-75177000D01*
G75*
G02*
X109904000Y-75252000I0J-75000D01*
G01*
X109904000Y-75402000D01*
G75*
G02*
X109829000Y-75477000I-75000J0D01*
G01*
X108529000Y-75477000D01*
G75*
G02*
X108454000Y-75402000I0J75000D01*
G01*
G37*
G36*
G01*
X119916001Y-58354000D02*
X117065999Y-58354000D01*
G75*
G02*
X116816000Y-58104001I0J249999D01*
G01*
X116816000Y-57253999D01*
G75*
G02*
X117065999Y-57004000I249999J0D01*
G01*
X119916001Y-57004000D01*
G75*
G02*
X120166000Y-57253999I0J-249999D01*
G01*
X120166000Y-58104001D01*
G75*
G02*
X119916001Y-58354000I-249999J0D01*
G01*
G37*
G36*
G01*
X119916001Y-64154000D02*
X117065999Y-64154000D01*
G75*
G02*
X116816000Y-63904001I0J249999D01*
G01*
X116816000Y-63053999D01*
G75*
G02*
X117065999Y-62804000I249999J0D01*
G01*
X119916001Y-62804000D01*
G75*
G02*
X120166000Y-63053999I0J-249999D01*
G01*
X120166000Y-63904001D01*
G75*
G02*
X119916001Y-64154000I-249999J0D01*
G01*
G37*
G36*
G01*
X117185000Y-68375000D02*
X117035000Y-68375000D01*
G75*
G02*
X116960000Y-68300000I0J75000D01*
G01*
X116960000Y-67000000D01*
G75*
G02*
X117035000Y-66925000I75000J0D01*
G01*
X117185000Y-66925000D01*
G75*
G02*
X117260000Y-67000000I0J-75000D01*
G01*
X117260000Y-68300000D01*
G75*
G02*
X117185000Y-68375000I-75000J0D01*
G01*
G37*
G36*
G01*
X117685000Y-68375000D02*
X117535000Y-68375000D01*
G75*
G02*
X117460000Y-68300000I0J75000D01*
G01*
X117460000Y-67000000D01*
G75*
G02*
X117535000Y-66925000I75000J0D01*
G01*
X117685000Y-66925000D01*
G75*
G02*
X117760000Y-67000000I0J-75000D01*
G01*
X117760000Y-68300000D01*
G75*
G02*
X117685000Y-68375000I-75000J0D01*
G01*
G37*
G36*
G01*
X118185000Y-68375000D02*
X118035000Y-68375000D01*
G75*
G02*
X117960000Y-68300000I0J75000D01*
G01*
X117960000Y-67000000D01*
G75*
G02*
X118035000Y-66925000I75000J0D01*
G01*
X118185000Y-66925000D01*
G75*
G02*
X118260000Y-67000000I0J-75000D01*
G01*
X118260000Y-68300000D01*
G75*
G02*
X118185000Y-68375000I-75000J0D01*
G01*
G37*
G36*
G01*
X118685000Y-68375000D02*
X118535000Y-68375000D01*
G75*
G02*
X118460000Y-68300000I0J75000D01*
G01*
X118460000Y-67000000D01*
G75*
G02*
X118535000Y-66925000I75000J0D01*
G01*
X118685000Y-66925000D01*
G75*
G02*
X118760000Y-67000000I0J-75000D01*
G01*
X118760000Y-68300000D01*
G75*
G02*
X118685000Y-68375000I-75000J0D01*
G01*
G37*
G36*
G01*
X119185000Y-68375000D02*
X119035000Y-68375000D01*
G75*
G02*
X118960000Y-68300000I0J75000D01*
G01*
X118960000Y-67000000D01*
G75*
G02*
X119035000Y-66925000I75000J0D01*
G01*
X119185000Y-66925000D01*
G75*
G02*
X119260000Y-67000000I0J-75000D01*
G01*
X119260000Y-68300000D01*
G75*
G02*
X119185000Y-68375000I-75000J0D01*
G01*
G37*
G36*
G01*
X119185000Y-72775000D02*
X119035000Y-72775000D01*
G75*
G02*
X118960000Y-72700000I0J75000D01*
G01*
X118960000Y-71400000D01*
G75*
G02*
X119035000Y-71325000I75000J0D01*
G01*
X119185000Y-71325000D01*
G75*
G02*
X119260000Y-71400000I0J-75000D01*
G01*
X119260000Y-72700000D01*
G75*
G02*
X119185000Y-72775000I-75000J0D01*
G01*
G37*
G36*
G01*
X118685000Y-72775000D02*
X118535000Y-72775000D01*
G75*
G02*
X118460000Y-72700000I0J75000D01*
G01*
X118460000Y-71400000D01*
G75*
G02*
X118535000Y-71325000I75000J0D01*
G01*
X118685000Y-71325000D01*
G75*
G02*
X118760000Y-71400000I0J-75000D01*
G01*
X118760000Y-72700000D01*
G75*
G02*
X118685000Y-72775000I-75000J0D01*
G01*
G37*
G36*
G01*
X118185000Y-72775000D02*
X118035000Y-72775000D01*
G75*
G02*
X117960000Y-72700000I0J75000D01*
G01*
X117960000Y-71400000D01*
G75*
G02*
X118035000Y-71325000I75000J0D01*
G01*
X118185000Y-71325000D01*
G75*
G02*
X118260000Y-71400000I0J-75000D01*
G01*
X118260000Y-72700000D01*
G75*
G02*
X118185000Y-72775000I-75000J0D01*
G01*
G37*
G36*
G01*
X117685000Y-72775000D02*
X117535000Y-72775000D01*
G75*
G02*
X117460000Y-72700000I0J75000D01*
G01*
X117460000Y-71400000D01*
G75*
G02*
X117535000Y-71325000I75000J0D01*
G01*
X117685000Y-71325000D01*
G75*
G02*
X117760000Y-71400000I0J-75000D01*
G01*
X117760000Y-72700000D01*
G75*
G02*
X117685000Y-72775000I-75000J0D01*
G01*
G37*
G36*
G01*
X117185000Y-72775000D02*
X117035000Y-72775000D01*
G75*
G02*
X116960000Y-72700000I0J75000D01*
G01*
X116960000Y-71400000D01*
G75*
G02*
X117035000Y-71325000I75000J0D01*
G01*
X117185000Y-71325000D01*
G75*
G02*
X117260000Y-71400000I0J-75000D01*
G01*
X117260000Y-72700000D01*
G75*
G02*
X117185000Y-72775000I-75000J0D01*
G01*
G37*
G36*
G01*
X102697500Y-73342000D02*
X103042500Y-73342000D01*
G75*
G02*
X103190000Y-73489500I0J-147500D01*
G01*
X103190000Y-73784500D01*
G75*
G02*
X103042500Y-73932000I-147500J0D01*
G01*
X102697500Y-73932000D01*
G75*
G02*
X102550000Y-73784500I0J147500D01*
G01*
X102550000Y-73489500D01*
G75*
G02*
X102697500Y-73342000I147500J0D01*
G01*
G37*
G36*
G01*
X102697500Y-72372000D02*
X103042500Y-72372000D01*
G75*
G02*
X103190000Y-72519500I0J-147500D01*
G01*
X103190000Y-72814500D01*
G75*
G02*
X103042500Y-72962000I-147500J0D01*
G01*
X102697500Y-72962000D01*
G75*
G02*
X102550000Y-72814500I0J147500D01*
G01*
X102550000Y-72519500D01*
G75*
G02*
X102697500Y-72372000I147500J0D01*
G01*
G37*
G36*
G01*
X105237500Y-73342000D02*
X105582500Y-73342000D01*
G75*
G02*
X105730000Y-73489500I0J-147500D01*
G01*
X105730000Y-73784500D01*
G75*
G02*
X105582500Y-73932000I-147500J0D01*
G01*
X105237500Y-73932000D01*
G75*
G02*
X105090000Y-73784500I0J147500D01*
G01*
X105090000Y-73489500D01*
G75*
G02*
X105237500Y-73342000I147500J0D01*
G01*
G37*
G36*
G01*
X105237500Y-72372000D02*
X105582500Y-72372000D01*
G75*
G02*
X105730000Y-72519500I0J-147500D01*
G01*
X105730000Y-72814500D01*
G75*
G02*
X105582500Y-72962000I-147500J0D01*
G01*
X105237500Y-72962000D01*
G75*
G02*
X105090000Y-72814500I0J147500D01*
G01*
X105090000Y-72519500D01*
G75*
G02*
X105237500Y-72372000I147500J0D01*
G01*
G37*
G36*
G01*
X103967500Y-73342000D02*
X104312500Y-73342000D01*
G75*
G02*
X104460000Y-73489500I0J-147500D01*
G01*
X104460000Y-73784500D01*
G75*
G02*
X104312500Y-73932000I-147500J0D01*
G01*
X103967500Y-73932000D01*
G75*
G02*
X103820000Y-73784500I0J147500D01*
G01*
X103820000Y-73489500D01*
G75*
G02*
X103967500Y-73342000I147500J0D01*
G01*
G37*
G36*
G01*
X103967500Y-72372000D02*
X104312500Y-72372000D01*
G75*
G02*
X104460000Y-72519500I0J-147500D01*
G01*
X104460000Y-72814500D01*
G75*
G02*
X104312500Y-72962000I-147500J0D01*
G01*
X103967500Y-72962000D01*
G75*
G02*
X103820000Y-72814500I0J147500D01*
G01*
X103820000Y-72519500D01*
G75*
G02*
X103967500Y-72372000I147500J0D01*
G01*
G37*
G36*
G01*
X115488500Y-86551000D02*
X115143500Y-86551000D01*
G75*
G02*
X114996000Y-86403500I0J147500D01*
G01*
X114996000Y-86108500D01*
G75*
G02*
X115143500Y-85961000I147500J0D01*
G01*
X115488500Y-85961000D01*
G75*
G02*
X115636000Y-86108500I0J-147500D01*
G01*
X115636000Y-86403500D01*
G75*
G02*
X115488500Y-86551000I-147500J0D01*
G01*
G37*
G36*
G01*
X115488500Y-87521000D02*
X115143500Y-87521000D01*
G75*
G02*
X114996000Y-87373500I0J147500D01*
G01*
X114996000Y-87078500D01*
G75*
G02*
X115143500Y-86931000I147500J0D01*
G01*
X115488500Y-86931000D01*
G75*
G02*
X115636000Y-87078500I0J-147500D01*
G01*
X115636000Y-87373500D01*
G75*
G02*
X115488500Y-87521000I-147500J0D01*
G01*
G37*
G36*
G01*
X107142500Y-79311000D02*
X107487500Y-79311000D01*
G75*
G02*
X107635000Y-79458500I0J-147500D01*
G01*
X107635000Y-79753500D01*
G75*
G02*
X107487500Y-79901000I-147500J0D01*
G01*
X107142500Y-79901000D01*
G75*
G02*
X106995000Y-79753500I0J147500D01*
G01*
X106995000Y-79458500D01*
G75*
G02*
X107142500Y-79311000I147500J0D01*
G01*
G37*
G36*
G01*
X107142500Y-78341000D02*
X107487500Y-78341000D01*
G75*
G02*
X107635000Y-78488500I0J-147500D01*
G01*
X107635000Y-78783500D01*
G75*
G02*
X107487500Y-78931000I-147500J0D01*
G01*
X107142500Y-78931000D01*
G75*
G02*
X106995000Y-78783500I0J147500D01*
G01*
X106995000Y-78488500D01*
G75*
G02*
X107142500Y-78341000I147500J0D01*
G01*
G37*
G36*
G01*
X103188000Y-69423500D02*
X103188000Y-69768500D01*
G75*
G02*
X103040500Y-69916000I-147500J0D01*
G01*
X102745500Y-69916000D01*
G75*
G02*
X102598000Y-69768500I0J147500D01*
G01*
X102598000Y-69423500D01*
G75*
G02*
X102745500Y-69276000I147500J0D01*
G01*
X103040500Y-69276000D01*
G75*
G02*
X103188000Y-69423500I0J-147500D01*
G01*
G37*
G36*
G01*
X104158000Y-69423500D02*
X104158000Y-69768500D01*
G75*
G02*
X104010500Y-69916000I-147500J0D01*
G01*
X103715500Y-69916000D01*
G75*
G02*
X103568000Y-69768500I0J147500D01*
G01*
X103568000Y-69423500D01*
G75*
G02*
X103715500Y-69276000I147500J0D01*
G01*
X104010500Y-69276000D01*
G75*
G02*
X104158000Y-69423500I0J-147500D01*
G01*
G37*
G36*
G01*
X80872500Y-57710000D02*
X80527500Y-57710000D01*
G75*
G02*
X80380000Y-57562500I0J147500D01*
G01*
X80380000Y-57267500D01*
G75*
G02*
X80527500Y-57120000I147500J0D01*
G01*
X80872500Y-57120000D01*
G75*
G02*
X81020000Y-57267500I0J-147500D01*
G01*
X81020000Y-57562500D01*
G75*
G02*
X80872500Y-57710000I-147500J0D01*
G01*
G37*
G36*
G01*
X80872500Y-58680000D02*
X80527500Y-58680000D01*
G75*
G02*
X80380000Y-58532500I0J147500D01*
G01*
X80380000Y-58237500D01*
G75*
G02*
X80527500Y-58090000I147500J0D01*
G01*
X80872500Y-58090000D01*
G75*
G02*
X81020000Y-58237500I0J-147500D01*
G01*
X81020000Y-58532500D01*
G75*
G02*
X80872500Y-58680000I-147500J0D01*
G01*
G37*
G36*
G01*
X110371000Y-61440000D02*
X107871000Y-61440000D01*
G75*
G02*
X107621000Y-61190000I0J250000D01*
G01*
X107621000Y-60090000D01*
G75*
G02*
X107871000Y-59840000I250000J0D01*
G01*
X110371000Y-59840000D01*
G75*
G02*
X110621000Y-60090000I0J-250000D01*
G01*
X110621000Y-61190000D01*
G75*
G02*
X110371000Y-61440000I-250000J0D01*
G01*
G37*
G36*
G01*
X110371000Y-72240000D02*
X107871000Y-72240000D01*
G75*
G02*
X107621000Y-71990000I0J250000D01*
G01*
X107621000Y-70890000D01*
G75*
G02*
X107871000Y-70640000I250000J0D01*
G01*
X110371000Y-70640000D01*
G75*
G02*
X110621000Y-70890000I0J-250000D01*
G01*
X110621000Y-71990000D01*
G75*
G02*
X110371000Y-72240000I-250000J0D01*
G01*
G37*
G36*
G01*
X113871000Y-63540000D02*
X108871000Y-63540000D01*
G75*
G02*
X108621000Y-63290000I0J250000D01*
G01*
X108621000Y-62790000D01*
G75*
G02*
X108871000Y-62540000I250000J0D01*
G01*
X113871000Y-62540000D01*
G75*
G02*
X114121000Y-62790000I0J-250000D01*
G01*
X114121000Y-63290000D01*
G75*
G02*
X113871000Y-63540000I-250000J0D01*
G01*
G37*
G36*
G01*
X113871000Y-65540000D02*
X108871000Y-65540000D01*
G75*
G02*
X108621000Y-65290000I0J250000D01*
G01*
X108621000Y-64790000D01*
G75*
G02*
X108871000Y-64540000I250000J0D01*
G01*
X113871000Y-64540000D01*
G75*
G02*
X114121000Y-64790000I0J-250000D01*
G01*
X114121000Y-65290000D01*
G75*
G02*
X113871000Y-65540000I-250000J0D01*
G01*
G37*
G36*
G01*
X113871000Y-67540000D02*
X108871000Y-67540000D01*
G75*
G02*
X108621000Y-67290000I0J250000D01*
G01*
X108621000Y-66790000D01*
G75*
G02*
X108871000Y-66540000I250000J0D01*
G01*
X113871000Y-66540000D01*
G75*
G02*
X114121000Y-66790000I0J-250000D01*
G01*
X114121000Y-67290000D01*
G75*
G02*
X113871000Y-67540000I-250000J0D01*
G01*
G37*
G36*
G01*
X113871000Y-69540000D02*
X108871000Y-69540000D01*
G75*
G02*
X108621000Y-69290000I0J250000D01*
G01*
X108621000Y-68790000D01*
G75*
G02*
X108871000Y-68540000I250000J0D01*
G01*
X113871000Y-68540000D01*
G75*
G02*
X114121000Y-68790000I0J-250000D01*
G01*
X114121000Y-69290000D01*
G75*
G02*
X113871000Y-69540000I-250000J0D01*
G01*
G37*
G36*
G01*
X110656250Y-51150000D02*
X110143750Y-51150000D01*
G75*
G02*
X109925000Y-50931250I0J218750D01*
G01*
X109925000Y-50493750D01*
G75*
G02*
X110143750Y-50275000I218750J0D01*
G01*
X110656250Y-50275000D01*
G75*
G02*
X110875000Y-50493750I0J-218750D01*
G01*
X110875000Y-50931250D01*
G75*
G02*
X110656250Y-51150000I-218750J0D01*
G01*
G37*
G36*
G01*
X110656250Y-52725000D02*
X110143750Y-52725000D01*
G75*
G02*
X109925000Y-52506250I0J218750D01*
G01*
X109925000Y-52068750D01*
G75*
G02*
X110143750Y-51850000I218750J0D01*
G01*
X110656250Y-51850000D01*
G75*
G02*
X110875000Y-52068750I0J-218750D01*
G01*
X110875000Y-52506250D01*
G75*
G02*
X110656250Y-52725000I-218750J0D01*
G01*
G37*
G36*
G01*
X102490000Y-63772500D02*
X102490000Y-63427500D01*
G75*
G02*
X102637500Y-63280000I147500J0D01*
G01*
X102932500Y-63280000D01*
G75*
G02*
X103080000Y-63427500I0J-147500D01*
G01*
X103080000Y-63772500D01*
G75*
G02*
X102932500Y-63920000I-147500J0D01*
G01*
X102637500Y-63920000D01*
G75*
G02*
X102490000Y-63772500I0J147500D01*
G01*
G37*
G36*
G01*
X101520000Y-63772500D02*
X101520000Y-63427500D01*
G75*
G02*
X101667500Y-63280000I147500J0D01*
G01*
X101962500Y-63280000D01*
G75*
G02*
X102110000Y-63427500I0J-147500D01*
G01*
X102110000Y-63772500D01*
G75*
G02*
X101962500Y-63920000I-147500J0D01*
G01*
X101667500Y-63920000D01*
G75*
G02*
X101520000Y-63772500I0J147500D01*
G01*
G37*
G36*
G01*
X102590000Y-59972500D02*
X102590000Y-59627500D01*
G75*
G02*
X102737500Y-59480000I147500J0D01*
G01*
X103032500Y-59480000D01*
G75*
G02*
X103180000Y-59627500I0J-147500D01*
G01*
X103180000Y-59972500D01*
G75*
G02*
X103032500Y-60120000I-147500J0D01*
G01*
X102737500Y-60120000D01*
G75*
G02*
X102590000Y-59972500I0J147500D01*
G01*
G37*
G36*
G01*
X101620000Y-59972500D02*
X101620000Y-59627500D01*
G75*
G02*
X101767500Y-59480000I147500J0D01*
G01*
X102062500Y-59480000D01*
G75*
G02*
X102210000Y-59627500I0J-147500D01*
G01*
X102210000Y-59972500D01*
G75*
G02*
X102062500Y-60120000I-147500J0D01*
G01*
X101767500Y-60120000D01*
G75*
G02*
X101620000Y-59972500I0J147500D01*
G01*
G37*
G36*
G01*
X102590000Y-58772500D02*
X102590000Y-58427500D01*
G75*
G02*
X102737500Y-58280000I147500J0D01*
G01*
X103032500Y-58280000D01*
G75*
G02*
X103180000Y-58427500I0J-147500D01*
G01*
X103180000Y-58772500D01*
G75*
G02*
X103032500Y-58920000I-147500J0D01*
G01*
X102737500Y-58920000D01*
G75*
G02*
X102590000Y-58772500I0J147500D01*
G01*
G37*
G36*
G01*
X101620000Y-58772500D02*
X101620000Y-58427500D01*
G75*
G02*
X101767500Y-58280000I147500J0D01*
G01*
X102062500Y-58280000D01*
G75*
G02*
X102210000Y-58427500I0J-147500D01*
G01*
X102210000Y-58772500D01*
G75*
G02*
X102062500Y-58920000I-147500J0D01*
G01*
X101767500Y-58920000D01*
G75*
G02*
X101620000Y-58772500I0J147500D01*
G01*
G37*
G36*
G01*
X107256250Y-51150000D02*
X106743750Y-51150000D01*
G75*
G02*
X106525000Y-50931250I0J218750D01*
G01*
X106525000Y-50493750D01*
G75*
G02*
X106743750Y-50275000I218750J0D01*
G01*
X107256250Y-50275000D01*
G75*
G02*
X107475000Y-50493750I0J-218750D01*
G01*
X107475000Y-50931250D01*
G75*
G02*
X107256250Y-51150000I-218750J0D01*
G01*
G37*
G36*
G01*
X107256250Y-52725000D02*
X106743750Y-52725000D01*
G75*
G02*
X106525000Y-52506250I0J218750D01*
G01*
X106525000Y-52068750D01*
G75*
G02*
X106743750Y-51850000I218750J0D01*
G01*
X107256250Y-51850000D01*
G75*
G02*
X107475000Y-52068750I0J-218750D01*
G01*
X107475000Y-52506250D01*
G75*
G02*
X107256250Y-52725000I-218750J0D01*
G01*
G37*
G36*
G01*
X102210000Y-60927500D02*
X102210000Y-61272500D01*
G75*
G02*
X102062500Y-61420000I-147500J0D01*
G01*
X101767500Y-61420000D01*
G75*
G02*
X101620000Y-61272500I0J147500D01*
G01*
X101620000Y-60927500D01*
G75*
G02*
X101767500Y-60780000I147500J0D01*
G01*
X102062500Y-60780000D01*
G75*
G02*
X102210000Y-60927500I0J-147500D01*
G01*
G37*
G36*
G01*
X103180000Y-60927500D02*
X103180000Y-61272500D01*
G75*
G02*
X103032500Y-61420000I-147500J0D01*
G01*
X102737500Y-61420000D01*
G75*
G02*
X102590000Y-61272500I0J147500D01*
G01*
X102590000Y-60927500D01*
G75*
G02*
X102737500Y-60780000I147500J0D01*
G01*
X103032500Y-60780000D01*
G75*
G02*
X103180000Y-60927500I0J-147500D01*
G01*
G37*
G36*
G01*
X70277500Y-68340000D02*
X70622500Y-68340000D01*
G75*
G02*
X70770000Y-68487500I0J-147500D01*
G01*
X70770000Y-68782500D01*
G75*
G02*
X70622500Y-68930000I-147500J0D01*
G01*
X70277500Y-68930000D01*
G75*
G02*
X70130000Y-68782500I0J147500D01*
G01*
X70130000Y-68487500D01*
G75*
G02*
X70277500Y-68340000I147500J0D01*
G01*
G37*
G36*
G01*
X70277500Y-67370000D02*
X70622500Y-67370000D01*
G75*
G02*
X70770000Y-67517500I0J-147500D01*
G01*
X70770000Y-67812500D01*
G75*
G02*
X70622500Y-67960000I-147500J0D01*
G01*
X70277500Y-67960000D01*
G75*
G02*
X70130000Y-67812500I0J147500D01*
G01*
X70130000Y-67517500D01*
G75*
G02*
X70277500Y-67370000I147500J0D01*
G01*
G37*
G36*
G01*
X117345750Y-77566000D02*
X117858250Y-77566000D01*
G75*
G02*
X118077000Y-77784750I0J-218750D01*
G01*
X118077000Y-78222250D01*
G75*
G02*
X117858250Y-78441000I-218750J0D01*
G01*
X117345750Y-78441000D01*
G75*
G02*
X117127000Y-78222250I0J218750D01*
G01*
X117127000Y-77784750D01*
G75*
G02*
X117345750Y-77566000I218750J0D01*
G01*
G37*
G36*
G01*
X117345750Y-75991000D02*
X117858250Y-75991000D01*
G75*
G02*
X118077000Y-76209750I0J-218750D01*
G01*
X118077000Y-76647250D01*
G75*
G02*
X117858250Y-76866000I-218750J0D01*
G01*
X117345750Y-76866000D01*
G75*
G02*
X117127000Y-76647250I0J218750D01*
G01*
X117127000Y-76209750D01*
G75*
G02*
X117345750Y-75991000I218750J0D01*
G01*
G37*
G36*
G01*
X115372500Y-77210000D02*
X115027500Y-77210000D01*
G75*
G02*
X114880000Y-77062500I0J147500D01*
G01*
X114880000Y-76767500D01*
G75*
G02*
X115027500Y-76620000I147500J0D01*
G01*
X115372500Y-76620000D01*
G75*
G02*
X115520000Y-76767500I0J-147500D01*
G01*
X115520000Y-77062500D01*
G75*
G02*
X115372500Y-77210000I-147500J0D01*
G01*
G37*
G36*
G01*
X115372500Y-78180000D02*
X115027500Y-78180000D01*
G75*
G02*
X114880000Y-78032500I0J147500D01*
G01*
X114880000Y-77737500D01*
G75*
G02*
X115027500Y-77590000I147500J0D01*
G01*
X115372500Y-77590000D01*
G75*
G02*
X115520000Y-77737500I0J-147500D01*
G01*
X115520000Y-78032500D01*
G75*
G02*
X115372500Y-78180000I-147500J0D01*
G01*
G37*
G36*
G01*
X111348000Y-83187250D02*
X111348000Y-82674750D01*
G75*
G02*
X111566750Y-82456000I218750J0D01*
G01*
X112004250Y-82456000D01*
G75*
G02*
X112223000Y-82674750I0J-218750D01*
G01*
X112223000Y-83187250D01*
G75*
G02*
X112004250Y-83406000I-218750J0D01*
G01*
X111566750Y-83406000D01*
G75*
G02*
X111348000Y-83187250I0J218750D01*
G01*
G37*
G36*
G01*
X109773000Y-83187250D02*
X109773000Y-82674750D01*
G75*
G02*
X109991750Y-82456000I218750J0D01*
G01*
X110429250Y-82456000D01*
G75*
G02*
X110648000Y-82674750I0J-218750D01*
G01*
X110648000Y-83187250D01*
G75*
G02*
X110429250Y-83406000I-218750J0D01*
G01*
X109991750Y-83406000D01*
G75*
G02*
X109773000Y-83187250I0J218750D01*
G01*
G37*
G36*
G01*
X118247000Y-82182000D02*
X119497000Y-82182000D01*
G75*
G02*
X119747000Y-82432000I0J-250000D01*
G01*
X119747000Y-83182000D01*
G75*
G02*
X119497000Y-83432000I-250000J0D01*
G01*
X118247000Y-83432000D01*
G75*
G02*
X117997000Y-83182000I0J250000D01*
G01*
X117997000Y-82432000D01*
G75*
G02*
X118247000Y-82182000I250000J0D01*
G01*
G37*
G36*
G01*
X118247000Y-79382000D02*
X119497000Y-79382000D01*
G75*
G02*
X119747000Y-79632000I0J-250000D01*
G01*
X119747000Y-80382000D01*
G75*
G02*
X119497000Y-80632000I-250000J0D01*
G01*
X118247000Y-80632000D01*
G75*
G02*
X117997000Y-80382000I0J250000D01*
G01*
X117997000Y-79632000D01*
G75*
G02*
X118247000Y-79382000I250000J0D01*
G01*
G37*
G36*
G01*
X111448000Y-85292250D02*
X111448000Y-84379750D01*
G75*
G02*
X111691750Y-84136000I243750J0D01*
G01*
X112179250Y-84136000D01*
G75*
G02*
X112423000Y-84379750I0J-243750D01*
G01*
X112423000Y-85292250D01*
G75*
G02*
X112179250Y-85536000I-243750J0D01*
G01*
X111691750Y-85536000D01*
G75*
G02*
X111448000Y-85292250I0J243750D01*
G01*
G37*
G36*
G01*
X109573000Y-85292250D02*
X109573000Y-84379750D01*
G75*
G02*
X109816750Y-84136000I243750J0D01*
G01*
X110304250Y-84136000D01*
G75*
G02*
X110548000Y-84379750I0J-243750D01*
G01*
X110548000Y-85292250D01*
G75*
G02*
X110304250Y-85536000I-243750J0D01*
G01*
X109816750Y-85536000D01*
G75*
G02*
X109573000Y-85292250I0J243750D01*
G01*
G37*
D32*
X111209000Y-79314000D03*
X111209000Y-81214000D03*
X109009000Y-81214000D03*
X109009000Y-80264000D03*
X109009000Y-79314000D03*
D33*
X116713000Y-82126000D03*
X116713000Y-79926000D03*
X113792000Y-84158000D03*
X113792000Y-81958000D03*
D34*
X62500000Y-65875000D03*
X62500000Y-62125000D03*
X56500000Y-62125000D03*
X56500000Y-65875000D03*
G36*
G01*
X69710000Y-55827500D02*
X69710000Y-56172500D01*
G75*
G02*
X69562500Y-56320000I-147500J0D01*
G01*
X69267500Y-56320000D01*
G75*
G02*
X69120000Y-56172500I0J147500D01*
G01*
X69120000Y-55827500D01*
G75*
G02*
X69267500Y-55680000I147500J0D01*
G01*
X69562500Y-55680000D01*
G75*
G02*
X69710000Y-55827500I0J-147500D01*
G01*
G37*
G36*
G01*
X70680000Y-55827500D02*
X70680000Y-56172500D01*
G75*
G02*
X70532500Y-56320000I-147500J0D01*
G01*
X70237500Y-56320000D01*
G75*
G02*
X70090000Y-56172500I0J147500D01*
G01*
X70090000Y-55827500D01*
G75*
G02*
X70237500Y-55680000I147500J0D01*
G01*
X70532500Y-55680000D01*
G75*
G02*
X70680000Y-55827500I0J-147500D01*
G01*
G37*
G36*
G01*
X72590000Y-56172500D02*
X72590000Y-55827500D01*
G75*
G02*
X72737500Y-55680000I147500J0D01*
G01*
X73032500Y-55680000D01*
G75*
G02*
X73180000Y-55827500I0J-147500D01*
G01*
X73180000Y-56172500D01*
G75*
G02*
X73032500Y-56320000I-147500J0D01*
G01*
X72737500Y-56320000D01*
G75*
G02*
X72590000Y-56172500I0J147500D01*
G01*
G37*
G36*
G01*
X71620000Y-56172500D02*
X71620000Y-55827500D01*
G75*
G02*
X71767500Y-55680000I147500J0D01*
G01*
X72062500Y-55680000D01*
G75*
G02*
X72210000Y-55827500I0J-147500D01*
G01*
X72210000Y-56172500D01*
G75*
G02*
X72062500Y-56320000I-147500J0D01*
G01*
X71767500Y-56320000D01*
G75*
G02*
X71620000Y-56172500I0J147500D01*
G01*
G37*
D28*
X71700000Y-52500000D03*
X72650000Y-54500000D03*
X70750000Y-54500000D03*
X68000000Y-52500000D03*
X68950000Y-54500000D03*
X67050000Y-54500000D03*
G36*
G01*
X77427500Y-59775000D02*
X77772500Y-59775000D01*
G75*
G02*
X77920000Y-59922500I0J-147500D01*
G01*
X77920000Y-60217500D01*
G75*
G02*
X77772500Y-60365000I-147500J0D01*
G01*
X77427500Y-60365000D01*
G75*
G02*
X77280000Y-60217500I0J147500D01*
G01*
X77280000Y-59922500D01*
G75*
G02*
X77427500Y-59775000I147500J0D01*
G01*
G37*
G36*
G01*
X77427500Y-58805000D02*
X77772500Y-58805000D01*
G75*
G02*
X77920000Y-58952500I0J-147500D01*
G01*
X77920000Y-59247500D01*
G75*
G02*
X77772500Y-59395000I-147500J0D01*
G01*
X77427500Y-59395000D01*
G75*
G02*
X77280000Y-59247500I0J147500D01*
G01*
X77280000Y-58952500D01*
G75*
G02*
X77427500Y-58805000I147500J0D01*
G01*
G37*
G36*
G01*
X65127500Y-61490000D02*
X65472500Y-61490000D01*
G75*
G02*
X65620000Y-61637500I0J-147500D01*
G01*
X65620000Y-61932500D01*
G75*
G02*
X65472500Y-62080000I-147500J0D01*
G01*
X65127500Y-62080000D01*
G75*
G02*
X64980000Y-61932500I0J147500D01*
G01*
X64980000Y-61637500D01*
G75*
G02*
X65127500Y-61490000I147500J0D01*
G01*
G37*
G36*
G01*
X65127500Y-60520000D02*
X65472500Y-60520000D01*
G75*
G02*
X65620000Y-60667500I0J-147500D01*
G01*
X65620000Y-60962500D01*
G75*
G02*
X65472500Y-61110000I-147500J0D01*
G01*
X65127500Y-61110000D01*
G75*
G02*
X64980000Y-60962500I0J147500D01*
G01*
X64980000Y-60667500D01*
G75*
G02*
X65127500Y-60520000I147500J0D01*
G01*
G37*
G36*
G01*
X64727500Y-80490000D02*
X65072500Y-80490000D01*
G75*
G02*
X65220000Y-80637500I0J-147500D01*
G01*
X65220000Y-80932500D01*
G75*
G02*
X65072500Y-81080000I-147500J0D01*
G01*
X64727500Y-81080000D01*
G75*
G02*
X64580000Y-80932500I0J147500D01*
G01*
X64580000Y-80637500D01*
G75*
G02*
X64727500Y-80490000I147500J0D01*
G01*
G37*
G36*
G01*
X64727500Y-79520000D02*
X65072500Y-79520000D01*
G75*
G02*
X65220000Y-79667500I0J-147500D01*
G01*
X65220000Y-79962500D01*
G75*
G02*
X65072500Y-80110000I-147500J0D01*
G01*
X64727500Y-80110000D01*
G75*
G02*
X64580000Y-79962500I0J147500D01*
G01*
X64580000Y-79667500D01*
G75*
G02*
X64727500Y-79520000I147500J0D01*
G01*
G37*
G36*
G01*
X63527500Y-80490000D02*
X63872500Y-80490000D01*
G75*
G02*
X64020000Y-80637500I0J-147500D01*
G01*
X64020000Y-80932500D01*
G75*
G02*
X63872500Y-81080000I-147500J0D01*
G01*
X63527500Y-81080000D01*
G75*
G02*
X63380000Y-80932500I0J147500D01*
G01*
X63380000Y-80637500D01*
G75*
G02*
X63527500Y-80490000I147500J0D01*
G01*
G37*
G36*
G01*
X63527500Y-79520000D02*
X63872500Y-79520000D01*
G75*
G02*
X64020000Y-79667500I0J-147500D01*
G01*
X64020000Y-79962500D01*
G75*
G02*
X63872500Y-80110000I-147500J0D01*
G01*
X63527500Y-80110000D01*
G75*
G02*
X63380000Y-79962500I0J147500D01*
G01*
X63380000Y-79667500D01*
G75*
G02*
X63527500Y-79520000I147500J0D01*
G01*
G37*
D20*
X98553000Y-87122000D03*
X101853000Y-87122000D03*
X108967000Y-87600000D03*
X112267000Y-87600000D03*
G36*
G01*
X119952000Y-65740500D02*
X119952000Y-66085500D01*
G75*
G02*
X119804500Y-66233000I-147500J0D01*
G01*
X119509500Y-66233000D01*
G75*
G02*
X119362000Y-66085500I0J147500D01*
G01*
X119362000Y-65740500D01*
G75*
G02*
X119509500Y-65593000I147500J0D01*
G01*
X119804500Y-65593000D01*
G75*
G02*
X119952000Y-65740500I0J-147500D01*
G01*
G37*
G36*
G01*
X120922000Y-65740500D02*
X120922000Y-66085500D01*
G75*
G02*
X120774500Y-66233000I-147500J0D01*
G01*
X120479500Y-66233000D01*
G75*
G02*
X120332000Y-66085500I0J147500D01*
G01*
X120332000Y-65740500D01*
G75*
G02*
X120479500Y-65593000I147500J0D01*
G01*
X120774500Y-65593000D01*
G75*
G02*
X120922000Y-65740500I0J-147500D01*
G01*
G37*
D35*
X72715000Y-94626000D03*
X70175000Y-94626000D03*
X67635000Y-94626000D03*
D36*
X65095000Y-94626000D03*
D35*
X59500000Y-88120000D03*
X59500000Y-85580000D03*
X59500000Y-83040000D03*
D36*
X59500000Y-80500000D03*
M02*
