M48
; DRILL file {KiCad (5.1.0-728-gb5c80fe68)} date 28/05/2019 23:33:40
; FORMAT={-:-/ absolute / inch / decimal}
; #@! TF.CreationDate,2019-05-28T23:33:40+01:00
; #@! TF.GenerationSoftware,Kicad,Pcbnew,(5.1.0-728-gb5c80fe68)
FMAT,2
INCH
T1C0.0138
T2C0.0250
T3C0.0315
T4C0.0394
T5C0.0433
T6C0.0472
T7C0.0500
T8C0.0512
T9C0.2520
%
G90
G05
T1
X2.7525Y-3.2125
X2.8225Y-3.3225
X3.2575Y-3.3925
X3.26Y-3.22
X3.2825Y-3.2925
X3.477Y-3.747
X3.485Y-3.475
X3.655Y-3.0025
X3.6774Y-2.9765
X3.68Y-3.8
X3.6983Y-2.9541
X3.72Y-3.2225
X3.7207Y-2.9332
X3.7248Y-3.0475
X3.7267Y-3.0155
X3.7524Y-2.9987
X3.7558Y-2.9683
X3.7625Y-3.2125
X3.7775Y-3.09
X3.81Y-2.78
X3.86Y-2.785
X3.865Y-2.96
X3.9Y-3.405
X3.905Y-2.81
X4.035Y-2.79
X4.06Y-2.84
X4.145Y-2.83
X4.155Y-3.085
X4.2Y-2.8
X4.29Y-3.24
X4.29Y-3.37
X4.29Y-3.43
X4.29Y-3.49
X4.315Y-2.51
X4.34Y-3.7
X4.35Y-3.275
X4.375Y-3.1
X4.395Y-2.59
X4.425Y-2.8
X4.465Y-3.065
X4.465Y-4.075
X4.52Y-3.73
X4.525Y-3.375
X4.53Y-3.24
X4.53Y-3.24
X4.615Y-3.405
X4.64Y-2.82
X4.725Y-2.55
X4.725Y-2.7
X4.85Y-3.225
X4.85Y-3.275
X5.175Y-2.275
X5.3Y-2.275
T2
X2.9725Y-4.07
X2.975Y-3.9625
X3.0275Y-3.6325
X3.0375Y-4.07
X3.04Y-3.965
X3.0925Y-4.07
X3.0975Y-3.965
X3.12Y-3.6375
X3.15Y-3.84
X3.1625Y-5.5125
X3.225Y-3.535
X3.295Y-3.6289
X3.305Y-3.5425
X3.36Y-3.5425
X3.45Y-5.515
X3.67Y-4.1
X3.8375Y-4.555
X3.95Y-4.1
X3.955Y-4.3225
X4.0125Y-4.195
X4.0125Y-4.3625
X4.0525Y-4.15
X4.125Y-2.79
X4.13Y-4.09
X4.2275Y-3.4025
X4.26Y-2.71
X4.335Y-4.28
X4.335Y-4.4125
X4.375Y-2.505
X4.49Y-3.1
X4.6Y-4.315
X4.61Y-4.375
X4.6125Y-4.5375
X4.64Y-3.54
X4.675Y-4.4625
X4.6825Y-4.2625
X4.692Y-3.0975
X4.7025Y-3.8575
X4.7225Y-4.295
X4.7775Y-4.7425
X4.78Y-3.7075
X4.785Y-3.65
X4.7975Y-4.475
X4.8Y-4.27
X4.83Y-2.61
X4.89Y-4.0325
X4.895Y-4.2475
X4.895Y-4.3725
X4.9475Y-3.915
X4.995Y-3.8525
X5.0Y-3.7075
X5.1025Y-4.33
X5.12Y-3.8975
X5.1375Y-3.66
X5.1375Y-5.065
X5.1425Y-3.7475
X5.29Y-4.33
X5.32Y-5.24
X5.395Y-3.9325
X5.41Y-3.76
X5.5975Y-3.7075
T3
X5.2797Y-3.0575
X5.4175Y-3.0575
X2.965Y-2.69
X3.0634Y-2.69
X4.49Y-5.2172
X4.49Y-5.355
T4
X4.8275Y-2.9575
X4.5875Y-3.8
X4.5875Y-3.925
X5.9275Y-2.61
X4.9675Y-4.9575
X4.9675Y-5.0575
X4.9675Y-5.1575
X4.9675Y-5.2575
X4.9675Y-5.4575
X4.9675Y-5.5575
X4.9675Y-5.6575
X4.99Y-2.3325
X4.48Y-4.235
X3.9Y-4.725
X5.05Y-3.0
X5.05Y-3.1
X5.05Y-3.2
X5.05Y-3.3
X5.05Y-3.4
X5.05Y-3.5
X2.435Y-4.1175
X2.435Y-4.2175
X2.435Y-4.3175
X2.435Y-4.4175
X2.435Y-4.5175
X2.435Y-4.6175
X2.435Y-4.7175
X2.435Y-4.8175
X2.435Y-4.9175
X2.435Y-5.0175
X5.385Y-5.63
X3.45Y-4.725
X4.835Y-2.7725
X5.035Y-4.45
X4.23Y-4.505
T5
X5.0675Y-4.0075
X5.1675Y-4.0075
X5.2675Y-4.0075
X3.425Y-5.69
X3.525Y-5.69
X3.625Y-5.69
X3.725Y-5.69
X2.91Y-5.69
X3.01Y-5.69
X3.11Y-5.69
X3.21Y-5.69
X5.0675Y-4.2175
X5.1675Y-4.2175
X5.2675Y-4.2175
T6
X5.7225Y-2.9875
X5.8225Y-2.9875
X5.9225Y-2.9875
T7
X2.5575Y-5.225
X2.58Y-3.59
X2.6Y-4.015
X2.765Y-4.215
X2.7675Y-4.115
X2.815Y-5.1675
X2.8522Y-2.07
X3.2125Y-4.7375
X3.3225Y-5.4125
X3.61Y-2.475
X5.1525Y-2.465
X5.265Y-2.4325
X5.45Y-2.77
X5.45Y-2.8675
X5.49Y-2.39
X5.635Y-3.645
X5.65Y-4.225
T8
X5.825Y-4.42
X5.825Y-4.62
X5.825Y-3.8375
X5.825Y-4.0375
X5.825Y-4.97
X5.825Y-5.17
X5.825Y-3.255
X5.825Y-3.455
T9
X2.5Y-5.575
X2.5Y-2.25
X5.825Y-5.575
X5.82Y-2.25
T0
M30
