G04 #@! TF.GenerationSoftware,KiCad,Pcbnew,(5.1.0-728-gb5c80fe68)*
G04 #@! TF.CreationDate,2019-05-28T10:59:10+01:00*
G04 #@! TF.ProjectId,garden,67617264-656e-42e6-9b69-6361645f7063,rev?*
G04 #@! TF.SameCoordinates,Original*
G04 #@! TF.FileFunction,Legend,Top*
G04 #@! TF.FilePolarity,Positive*
%FSLAX46Y46*%
G04 Gerber Fmt 4.6, Leading zero omitted, Abs format (unit mm)*
G04 Created by KiCad (PCBNEW (5.1.0-728-gb5c80fe68)) date 2019-05-28 10:59:10*
%MOMM*%
%LPD*%
G04 APERTURE LIST*
%ADD10C,0.150000*%
%ADD11C,0.889000*%
%ADD12C,0.200000*%
%ADD13C,0.300000*%
%ADD14C,0.120000*%
G04 APERTURE END LIST*
D10*
X105132476Y-117038380D02*
X105132476Y-116038380D01*
X105513428Y-116038380D01*
X105608666Y-116086000D01*
X105656285Y-116133619D01*
X105703904Y-116228857D01*
X105703904Y-116371714D01*
X105656285Y-116466952D01*
X105608666Y-116514571D01*
X105513428Y-116562190D01*
X105132476Y-116562190D01*
X106703904Y-117038380D02*
X106370571Y-116562190D01*
X106132476Y-117038380D02*
X106132476Y-116038380D01*
X106513428Y-116038380D01*
X106608666Y-116086000D01*
X106656285Y-116133619D01*
X106703904Y-116228857D01*
X106703904Y-116371714D01*
X106656285Y-116466952D01*
X106608666Y-116514571D01*
X106513428Y-116562190D01*
X106132476Y-116562190D01*
X107132476Y-116514571D02*
X107465809Y-116514571D01*
X107608666Y-117038380D02*
X107132476Y-117038380D01*
X107132476Y-116038380D01*
X107608666Y-116038380D01*
X107989619Y-116990761D02*
X108132476Y-117038380D01*
X108370571Y-117038380D01*
X108465809Y-116990761D01*
X108513428Y-116943142D01*
X108561047Y-116847904D01*
X108561047Y-116752666D01*
X108513428Y-116657428D01*
X108465809Y-116609809D01*
X108370571Y-116562190D01*
X108180095Y-116514571D01*
X108084857Y-116466952D01*
X108037238Y-116419333D01*
X107989619Y-116324095D01*
X107989619Y-116228857D01*
X108037238Y-116133619D01*
X108084857Y-116086000D01*
X108180095Y-116038380D01*
X108418190Y-116038380D01*
X108561047Y-116086000D01*
X108751523Y-117133619D02*
X109513428Y-117133619D01*
X109751523Y-117038380D02*
X109751523Y-116038380D01*
X136159952Y-145740380D02*
X135588523Y-145740380D01*
X135874238Y-145740380D02*
X135874238Y-144740380D01*
X135779000Y-144883238D01*
X135683761Y-144978476D01*
X135588523Y-145026095D01*
X136540904Y-144835619D02*
X136588523Y-144788000D01*
X136683761Y-144740380D01*
X136921857Y-144740380D01*
X137017095Y-144788000D01*
X137064714Y-144835619D01*
X137112333Y-144930857D01*
X137112333Y-145026095D01*
X137064714Y-145168952D01*
X136493285Y-145740380D01*
X137112333Y-145740380D01*
X137398047Y-144740380D02*
X137731380Y-145740380D01*
X138064714Y-144740380D01*
X111839619Y-110259761D02*
X111982476Y-110307380D01*
X112220571Y-110307380D01*
X112315809Y-110259761D01*
X112363428Y-110212142D01*
X112411047Y-110116904D01*
X112411047Y-110021666D01*
X112363428Y-109926428D01*
X112315809Y-109878809D01*
X112220571Y-109831190D01*
X112030095Y-109783571D01*
X111934857Y-109735952D01*
X111887238Y-109688333D01*
X111839619Y-109593095D01*
X111839619Y-109497857D01*
X111887238Y-109402619D01*
X111934857Y-109355000D01*
X112030095Y-109307380D01*
X112268190Y-109307380D01*
X112411047Y-109355000D01*
X112744380Y-109307380D02*
X112982476Y-110307380D01*
X113172952Y-109593095D01*
X113363428Y-110307380D01*
X113601523Y-109307380D01*
X114172952Y-109307380D02*
X114268190Y-109307380D01*
X114363428Y-109355000D01*
X114411047Y-109402619D01*
X114458666Y-109497857D01*
X114506285Y-109688333D01*
X114506285Y-109926428D01*
X114458666Y-110116904D01*
X114411047Y-110212142D01*
X114363428Y-110259761D01*
X114268190Y-110307380D01*
X114172952Y-110307380D01*
X114077714Y-110259761D01*
X114030095Y-110212142D01*
X113982476Y-110116904D01*
X113934857Y-109926428D01*
X113934857Y-109688333D01*
X113982476Y-109497857D01*
X114030095Y-109402619D01*
X114077714Y-109355000D01*
X114172952Y-109307380D01*
X114696761Y-110402619D02*
X115458666Y-110402619D01*
X115696761Y-110307380D02*
X115696761Y-109307380D01*
X125936619Y-115720761D02*
X126079476Y-115768380D01*
X126317571Y-115768380D01*
X126412809Y-115720761D01*
X126460428Y-115673142D01*
X126508047Y-115577904D01*
X126508047Y-115482666D01*
X126460428Y-115387428D01*
X126412809Y-115339809D01*
X126317571Y-115292190D01*
X126127095Y-115244571D01*
X126031857Y-115196952D01*
X125984238Y-115149333D01*
X125936619Y-115054095D01*
X125936619Y-114958857D01*
X125984238Y-114863619D01*
X126031857Y-114816000D01*
X126127095Y-114768380D01*
X126365190Y-114768380D01*
X126508047Y-114816000D01*
X126841380Y-114768380D02*
X127079476Y-115768380D01*
X127269952Y-115054095D01*
X127460428Y-115768380D01*
X127698523Y-114768380D01*
X128603285Y-115768380D02*
X128031857Y-115768380D01*
X128317571Y-115768380D02*
X128317571Y-114768380D01*
X128222333Y-114911238D01*
X128127095Y-115006476D01*
X128031857Y-115054095D01*
X128793761Y-115863619D02*
X129555666Y-115863619D01*
X129793761Y-115768380D02*
X129793761Y-114768380D01*
X117919666Y-100099761D02*
X118062523Y-100147380D01*
X118300619Y-100147380D01*
X118395857Y-100099761D01*
X118443476Y-100052142D01*
X118491095Y-99956904D01*
X118491095Y-99861666D01*
X118443476Y-99766428D01*
X118395857Y-99718809D01*
X118300619Y-99671190D01*
X118110142Y-99623571D01*
X118014904Y-99575952D01*
X117967285Y-99528333D01*
X117919666Y-99433095D01*
X117919666Y-99337857D01*
X117967285Y-99242619D01*
X118014904Y-99195000D01*
X118110142Y-99147380D01*
X118348238Y-99147380D01*
X118491095Y-99195000D01*
X118824428Y-99147380D02*
X119062523Y-100147380D01*
X119253000Y-99433095D01*
X119443476Y-100147380D01*
X119681571Y-99147380D01*
X120586333Y-100147380D02*
X120014904Y-100147380D01*
X120300619Y-100147380D02*
X120300619Y-99147380D01*
X120205380Y-99290238D01*
X120110142Y-99385476D01*
X120014904Y-99433095D01*
X117919666Y-97305761D02*
X118062523Y-97353380D01*
X118300619Y-97353380D01*
X118395857Y-97305761D01*
X118443476Y-97258142D01*
X118491095Y-97162904D01*
X118491095Y-97067666D01*
X118443476Y-96972428D01*
X118395857Y-96924809D01*
X118300619Y-96877190D01*
X118110142Y-96829571D01*
X118014904Y-96781952D01*
X117967285Y-96734333D01*
X117919666Y-96639095D01*
X117919666Y-96543857D01*
X117967285Y-96448619D01*
X118014904Y-96401000D01*
X118110142Y-96353380D01*
X118348238Y-96353380D01*
X118491095Y-96401000D01*
X118824428Y-96353380D02*
X119062523Y-97353380D01*
X119253000Y-96639095D01*
X119443476Y-97353380D01*
X119681571Y-96353380D01*
X120253000Y-96353380D02*
X120348238Y-96353380D01*
X120443476Y-96401000D01*
X120491095Y-96448619D01*
X120538714Y-96543857D01*
X120586333Y-96734333D01*
X120586333Y-96972428D01*
X120538714Y-97162904D01*
X120491095Y-97258142D01*
X120443476Y-97305761D01*
X120348238Y-97353380D01*
X120253000Y-97353380D01*
X120157761Y-97305761D01*
X120110142Y-97258142D01*
X120062523Y-97162904D01*
X120014904Y-96972428D01*
X120014904Y-96734333D01*
X120062523Y-96543857D01*
X120110142Y-96448619D01*
X120157761Y-96401000D01*
X120253000Y-96353380D01*
X118181642Y-76033380D02*
X118514976Y-77033380D01*
X118848309Y-76033380D01*
X119610214Y-76366714D02*
X119610214Y-77033380D01*
X119181642Y-76366714D02*
X119181642Y-76890523D01*
X119229261Y-76985761D01*
X119324500Y-77033380D01*
X119467357Y-77033380D01*
X119562595Y-76985761D01*
X119610214Y-76938142D01*
X120038785Y-76985761D02*
X120134023Y-77033380D01*
X120324500Y-77033380D01*
X120419738Y-76985761D01*
X120467357Y-76890523D01*
X120467357Y-76842904D01*
X120419738Y-76747666D01*
X120324500Y-76700047D01*
X120181642Y-76700047D01*
X120086404Y-76652428D01*
X120038785Y-76557190D01*
X120038785Y-76509571D01*
X120086404Y-76414333D01*
X120181642Y-76366714D01*
X120324500Y-76366714D01*
X120419738Y-76414333D01*
X120895928Y-77033380D02*
X120895928Y-76033380D01*
X120895928Y-76414333D02*
X120991166Y-76366714D01*
X121181642Y-76366714D01*
X121276880Y-76414333D01*
X121324500Y-76461952D01*
X121372119Y-76557190D01*
X121372119Y-76842904D01*
X121324500Y-76938142D01*
X121276880Y-76985761D01*
X121181642Y-77033380D01*
X120991166Y-77033380D01*
X120895928Y-76985761D01*
X128428904Y-58824880D02*
X129047952Y-58824880D01*
X128714619Y-59205833D01*
X128857476Y-59205833D01*
X128952714Y-59253452D01*
X129000333Y-59301071D01*
X129047952Y-59396309D01*
X129047952Y-59634404D01*
X129000333Y-59729642D01*
X128952714Y-59777261D01*
X128857476Y-59824880D01*
X128571761Y-59824880D01*
X128476523Y-59777261D01*
X128428904Y-59729642D01*
X129333666Y-58824880D02*
X129667000Y-59824880D01*
X130000333Y-58824880D01*
X130238428Y-58824880D02*
X130857476Y-58824880D01*
X130524142Y-59205833D01*
X130667000Y-59205833D01*
X130762238Y-59253452D01*
X130809857Y-59301071D01*
X130857476Y-59396309D01*
X130857476Y-59634404D01*
X130809857Y-59729642D01*
X130762238Y-59777261D01*
X130667000Y-59824880D01*
X130381285Y-59824880D01*
X130286047Y-59777261D01*
X130238428Y-59729642D01*
X118872095Y-70112000D02*
X118776857Y-70064380D01*
X118634000Y-70064380D01*
X118491142Y-70112000D01*
X118395904Y-70207238D01*
X118348285Y-70302476D01*
X118300666Y-70492952D01*
X118300666Y-70635809D01*
X118348285Y-70826285D01*
X118395904Y-70921523D01*
X118491142Y-71016761D01*
X118634000Y-71064380D01*
X118729238Y-71064380D01*
X118872095Y-71016761D01*
X118919714Y-70969142D01*
X118919714Y-70635809D01*
X118729238Y-70635809D01*
X119348285Y-71064380D02*
X119348285Y-70064380D01*
X119919714Y-71064380D01*
X119919714Y-70064380D01*
X120395904Y-71064380D02*
X120395904Y-70064380D01*
X120634000Y-70064380D01*
X120776857Y-70112000D01*
X120872095Y-70207238D01*
X120919714Y-70302476D01*
X120967333Y-70492952D01*
X120967333Y-70635809D01*
X120919714Y-70826285D01*
X120872095Y-70921523D01*
X120776857Y-71016761D01*
X120634000Y-71064380D01*
X120395904Y-71064380D01*
X152336666Y-65873380D02*
X152670000Y-66873380D01*
X153003333Y-65873380D01*
X153908095Y-66778142D02*
X153860476Y-66825761D01*
X153717619Y-66873380D01*
X153622380Y-66873380D01*
X153479523Y-66825761D01*
X153384285Y-66730523D01*
X153336666Y-66635285D01*
X153289047Y-66444809D01*
X153289047Y-66301952D01*
X153336666Y-66111476D01*
X153384285Y-66016238D01*
X153479523Y-65921000D01*
X153622380Y-65873380D01*
X153717619Y-65873380D01*
X153860476Y-65921000D01*
X153908095Y-65968619D01*
X154908095Y-66778142D02*
X154860476Y-66825761D01*
X154717619Y-66873380D01*
X154622380Y-66873380D01*
X154479523Y-66825761D01*
X154384285Y-66730523D01*
X154336666Y-66635285D01*
X154289047Y-66444809D01*
X154289047Y-66301952D01*
X154336666Y-66111476D01*
X154384285Y-66016238D01*
X154479523Y-65921000D01*
X154622380Y-65873380D01*
X154717619Y-65873380D01*
X154860476Y-65921000D01*
X154908095Y-65968619D01*
X71423857Y-124611380D02*
X71661952Y-125611380D01*
X71852428Y-124897095D01*
X72042904Y-125611380D01*
X72281000Y-124611380D01*
X72661952Y-125611380D02*
X72661952Y-124944714D01*
X72661952Y-124611380D02*
X72614333Y-124659000D01*
X72661952Y-124706619D01*
X72709571Y-124659000D01*
X72661952Y-124611380D01*
X72661952Y-124706619D01*
X73138142Y-125611380D02*
X73138142Y-124944714D01*
X73138142Y-125135190D02*
X73185761Y-125039952D01*
X73233380Y-124992333D01*
X73328619Y-124944714D01*
X73423857Y-124944714D01*
X74138142Y-125563761D02*
X74042904Y-125611380D01*
X73852428Y-125611380D01*
X73757190Y-125563761D01*
X73709571Y-125468523D01*
X73709571Y-125087571D01*
X73757190Y-124992333D01*
X73852428Y-124944714D01*
X74042904Y-124944714D01*
X74138142Y-124992333D01*
X74185761Y-125087571D01*
X74185761Y-125182809D01*
X73709571Y-125278047D01*
X75042904Y-125611380D02*
X75042904Y-124611380D01*
X75042904Y-125563761D02*
X74947666Y-125611380D01*
X74757190Y-125611380D01*
X74661952Y-125563761D01*
X74614333Y-125516142D01*
X74566714Y-125420904D01*
X74566714Y-125135190D01*
X74614333Y-125039952D01*
X74661952Y-124992333D01*
X74757190Y-124944714D01*
X74947666Y-124944714D01*
X75042904Y-124992333D01*
X75519095Y-125611380D02*
X75519095Y-124611380D01*
X75519095Y-125087571D02*
X76090523Y-125087571D01*
X76090523Y-125611380D02*
X76090523Y-124611380D01*
X76995285Y-124944714D02*
X76995285Y-125611380D01*
X76566714Y-124944714D02*
X76566714Y-125468523D01*
X76614333Y-125563761D01*
X76709571Y-125611380D01*
X76852428Y-125611380D01*
X76947666Y-125563761D01*
X76995285Y-125516142D01*
X77328619Y-124944714D02*
X77709571Y-124944714D01*
X77471476Y-124611380D02*
X77471476Y-125468523D01*
X77519095Y-125563761D01*
X77614333Y-125611380D01*
X77709571Y-125611380D01*
X79328619Y-124659000D02*
X79233380Y-124611380D01*
X79090523Y-124611380D01*
X78947666Y-124659000D01*
X78852428Y-124754238D01*
X78804809Y-124849476D01*
X78757190Y-125039952D01*
X78757190Y-125182809D01*
X78804809Y-125373285D01*
X78852428Y-125468523D01*
X78947666Y-125563761D01*
X79090523Y-125611380D01*
X79185761Y-125611380D01*
X79328619Y-125563761D01*
X79376238Y-125516142D01*
X79376238Y-125182809D01*
X79185761Y-125182809D01*
X80233380Y-125611380D02*
X80233380Y-125087571D01*
X80185761Y-124992333D01*
X80090523Y-124944714D01*
X79900047Y-124944714D01*
X79804809Y-124992333D01*
X80233380Y-125563761D02*
X80138142Y-125611380D01*
X79900047Y-125611380D01*
X79804809Y-125563761D01*
X79757190Y-125468523D01*
X79757190Y-125373285D01*
X79804809Y-125278047D01*
X79900047Y-125230428D01*
X80138142Y-125230428D01*
X80233380Y-125182809D01*
X80709571Y-125611380D02*
X80709571Y-124944714D01*
X80709571Y-125135190D02*
X80757190Y-125039952D01*
X80804809Y-124992333D01*
X80900047Y-124944714D01*
X80995285Y-124944714D01*
X81757190Y-125611380D02*
X81757190Y-124611380D01*
X81757190Y-125563761D02*
X81661952Y-125611380D01*
X81471476Y-125611380D01*
X81376238Y-125563761D01*
X81328619Y-125516142D01*
X81281000Y-125420904D01*
X81281000Y-125135190D01*
X81328619Y-125039952D01*
X81376238Y-124992333D01*
X81471476Y-124944714D01*
X81661952Y-124944714D01*
X81757190Y-124992333D01*
X82614333Y-125563761D02*
X82519095Y-125611380D01*
X82328619Y-125611380D01*
X82233380Y-125563761D01*
X82185761Y-125468523D01*
X82185761Y-125087571D01*
X82233380Y-124992333D01*
X82328619Y-124944714D01*
X82519095Y-124944714D01*
X82614333Y-124992333D01*
X82661952Y-125087571D01*
X82661952Y-125182809D01*
X82185761Y-125278047D01*
X83090523Y-124944714D02*
X83090523Y-125611380D01*
X83090523Y-125039952D02*
X83138142Y-124992333D01*
X83233380Y-124944714D01*
X83376238Y-124944714D01*
X83471476Y-124992333D01*
X83519095Y-125087571D01*
X83519095Y-125611380D01*
X85328619Y-125516142D02*
X85281000Y-125563761D01*
X85138142Y-125611380D01*
X85042904Y-125611380D01*
X84900047Y-125563761D01*
X84804809Y-125468523D01*
X84757190Y-125373285D01*
X84709571Y-125182809D01*
X84709571Y-125039952D01*
X84757190Y-124849476D01*
X84804809Y-124754238D01*
X84900047Y-124659000D01*
X85042904Y-124611380D01*
X85138142Y-124611380D01*
X85281000Y-124659000D01*
X85328619Y-124706619D01*
X85900047Y-125611380D02*
X85804809Y-125563761D01*
X85757190Y-125516142D01*
X85709571Y-125420904D01*
X85709571Y-125135190D01*
X85757190Y-125039952D01*
X85804809Y-124992333D01*
X85900047Y-124944714D01*
X86042904Y-124944714D01*
X86138142Y-124992333D01*
X86185761Y-125039952D01*
X86233380Y-125135190D01*
X86233380Y-125420904D01*
X86185761Y-125516142D01*
X86138142Y-125563761D01*
X86042904Y-125611380D01*
X85900047Y-125611380D01*
X86661952Y-124944714D02*
X86661952Y-125611380D01*
X86661952Y-125039952D02*
X86709571Y-124992333D01*
X86804809Y-124944714D01*
X86947666Y-124944714D01*
X87042904Y-124992333D01*
X87090523Y-125087571D01*
X87090523Y-125611380D01*
X87423857Y-124944714D02*
X87804809Y-124944714D01*
X87566714Y-124611380D02*
X87566714Y-125468523D01*
X87614333Y-125563761D01*
X87709571Y-125611380D01*
X87804809Y-125611380D01*
X88138142Y-125611380D02*
X88138142Y-124944714D01*
X88138142Y-125135190D02*
X88185761Y-125039952D01*
X88233380Y-124992333D01*
X88328619Y-124944714D01*
X88423857Y-124944714D01*
X88900047Y-125611380D02*
X88804809Y-125563761D01*
X88757190Y-125516142D01*
X88709571Y-125420904D01*
X88709571Y-125135190D01*
X88757190Y-125039952D01*
X88804809Y-124992333D01*
X88900047Y-124944714D01*
X89042904Y-124944714D01*
X89138142Y-124992333D01*
X89185761Y-125039952D01*
X89233380Y-125135190D01*
X89233380Y-125420904D01*
X89185761Y-125516142D01*
X89138142Y-125563761D01*
X89042904Y-125611380D01*
X88900047Y-125611380D01*
X89804809Y-125611380D02*
X89709571Y-125563761D01*
X89661952Y-125468523D01*
X89661952Y-124611380D01*
X90328619Y-125611380D02*
X90233380Y-125563761D01*
X90185761Y-125468523D01*
X90185761Y-124611380D01*
X91090523Y-125563761D02*
X90995285Y-125611380D01*
X90804809Y-125611380D01*
X90709571Y-125563761D01*
X90661952Y-125468523D01*
X90661952Y-125087571D01*
X90709571Y-124992333D01*
X90804809Y-124944714D01*
X90995285Y-124944714D01*
X91090523Y-124992333D01*
X91138142Y-125087571D01*
X91138142Y-125182809D01*
X90661952Y-125278047D01*
X91566714Y-125611380D02*
X91566714Y-124944714D01*
X91566714Y-125135190D02*
X91614333Y-125039952D01*
X91661952Y-124992333D01*
X91757190Y-124944714D01*
X91852428Y-124944714D01*
X72090523Y-127261380D02*
X71757190Y-126785190D01*
X71519095Y-127261380D02*
X71519095Y-126261380D01*
X71900047Y-126261380D01*
X71995285Y-126309000D01*
X72042904Y-126356619D01*
X72090523Y-126451857D01*
X72090523Y-126594714D01*
X72042904Y-126689952D01*
X71995285Y-126737571D01*
X71900047Y-126785190D01*
X71519095Y-126785190D01*
X72900047Y-127213761D02*
X72804809Y-127261380D01*
X72614333Y-127261380D01*
X72519095Y-127213761D01*
X72471476Y-127118523D01*
X72471476Y-126737571D01*
X72519095Y-126642333D01*
X72614333Y-126594714D01*
X72804809Y-126594714D01*
X72900047Y-126642333D01*
X72947666Y-126737571D01*
X72947666Y-126832809D01*
X72471476Y-126928047D01*
X73281000Y-126594714D02*
X73519095Y-127261380D01*
X73757190Y-126594714D01*
X75423857Y-127261380D02*
X74852428Y-127261380D01*
X75138142Y-127261380D02*
X75138142Y-126261380D01*
X75042904Y-126404238D01*
X74947666Y-126499476D01*
X74852428Y-126547095D01*
X64706595Y-104084500D02*
X64611357Y-104036880D01*
X64468500Y-104036880D01*
X64325642Y-104084500D01*
X64230404Y-104179738D01*
X64182785Y-104274976D01*
X64135166Y-104465452D01*
X64135166Y-104608309D01*
X64182785Y-104798785D01*
X64230404Y-104894023D01*
X64325642Y-104989261D01*
X64468500Y-105036880D01*
X64563738Y-105036880D01*
X64706595Y-104989261D01*
X64754214Y-104941642D01*
X64754214Y-104608309D01*
X64563738Y-104608309D01*
X65182785Y-105036880D02*
X65182785Y-104036880D01*
X65754214Y-105036880D01*
X65754214Y-104036880D01*
X66230404Y-105036880D02*
X66230404Y-104036880D01*
X66468500Y-104036880D01*
X66611357Y-104084500D01*
X66706595Y-104179738D01*
X66754214Y-104274976D01*
X66801833Y-104465452D01*
X66801833Y-104608309D01*
X66754214Y-104798785D01*
X66706595Y-104894023D01*
X66611357Y-104989261D01*
X66468500Y-105036880D01*
X66230404Y-105036880D01*
X64833595Y-106624500D02*
X64738357Y-106576880D01*
X64595500Y-106576880D01*
X64452642Y-106624500D01*
X64357404Y-106719738D01*
X64309785Y-106814976D01*
X64262166Y-107005452D01*
X64262166Y-107148309D01*
X64309785Y-107338785D01*
X64357404Y-107434023D01*
X64452642Y-107529261D01*
X64595500Y-107576880D01*
X64690738Y-107576880D01*
X64833595Y-107529261D01*
X64881214Y-107481642D01*
X64881214Y-107148309D01*
X64690738Y-107148309D01*
X65309785Y-107576880D02*
X65309785Y-106576880D01*
X65881214Y-107576880D01*
X65881214Y-106576880D01*
X66357404Y-107576880D02*
X66357404Y-106576880D01*
X66595500Y-106576880D01*
X66738357Y-106624500D01*
X66833595Y-106719738D01*
X66881214Y-106814976D01*
X66928833Y-107005452D01*
X66928833Y-107148309D01*
X66881214Y-107338785D01*
X66833595Y-107434023D01*
X66738357Y-107529261D01*
X66595500Y-107576880D01*
X66357404Y-107576880D01*
X64365333Y-110116880D02*
X64365333Y-109116880D01*
X64746285Y-109116880D01*
X64841523Y-109164500D01*
X64889142Y-109212119D01*
X64936761Y-109307357D01*
X64936761Y-109450214D01*
X64889142Y-109545452D01*
X64841523Y-109593071D01*
X64746285Y-109640690D01*
X64365333Y-109640690D01*
X65698666Y-109593071D02*
X65365333Y-109593071D01*
X65365333Y-110116880D02*
X65365333Y-109116880D01*
X65841523Y-109116880D01*
X66412952Y-109116880D02*
X66508190Y-109116880D01*
X66603428Y-109164500D01*
X66651047Y-109212119D01*
X66698666Y-109307357D01*
X66746285Y-109497833D01*
X66746285Y-109735928D01*
X66698666Y-109926404D01*
X66651047Y-110021642D01*
X66603428Y-110069261D01*
X66508190Y-110116880D01*
X66412952Y-110116880D01*
X66317714Y-110069261D01*
X66270095Y-110021642D01*
X66222476Y-109926404D01*
X66174857Y-109735928D01*
X66174857Y-109497833D01*
X66222476Y-109307357D01*
X66270095Y-109212119D01*
X66317714Y-109164500D01*
X66412952Y-109116880D01*
X64301833Y-112529880D02*
X64301833Y-111529880D01*
X64682785Y-111529880D01*
X64778023Y-111577500D01*
X64825642Y-111625119D01*
X64873261Y-111720357D01*
X64873261Y-111863214D01*
X64825642Y-111958452D01*
X64778023Y-112006071D01*
X64682785Y-112053690D01*
X64301833Y-112053690D01*
X65635166Y-112006071D02*
X65301833Y-112006071D01*
X65301833Y-112529880D02*
X65301833Y-111529880D01*
X65778023Y-111529880D01*
X66682785Y-112529880D02*
X66111357Y-112529880D01*
X66397071Y-112529880D02*
X66397071Y-111529880D01*
X66301833Y-111672738D01*
X66206595Y-111767976D01*
X66111357Y-111815595D01*
X64301833Y-115196880D02*
X64301833Y-114196880D01*
X64682785Y-114196880D01*
X64778023Y-114244500D01*
X64825642Y-114292119D01*
X64873261Y-114387357D01*
X64873261Y-114530214D01*
X64825642Y-114625452D01*
X64778023Y-114673071D01*
X64682785Y-114720690D01*
X64301833Y-114720690D01*
X65635166Y-114673071D02*
X65301833Y-114673071D01*
X65301833Y-115196880D02*
X65301833Y-114196880D01*
X65778023Y-114196880D01*
X66111357Y-114292119D02*
X66158976Y-114244500D01*
X66254214Y-114196880D01*
X66492309Y-114196880D01*
X66587547Y-114244500D01*
X66635166Y-114292119D01*
X66682785Y-114387357D01*
X66682785Y-114482595D01*
X66635166Y-114625452D01*
X66063738Y-115196880D01*
X66682785Y-115196880D01*
X64301833Y-117800380D02*
X64301833Y-116800380D01*
X64682785Y-116800380D01*
X64778023Y-116848000D01*
X64825642Y-116895619D01*
X64873261Y-116990857D01*
X64873261Y-117133714D01*
X64825642Y-117228952D01*
X64778023Y-117276571D01*
X64682785Y-117324190D01*
X64301833Y-117324190D01*
X65254214Y-117514666D02*
X65730404Y-117514666D01*
X65158976Y-117800380D02*
X65492309Y-116800380D01*
X65825642Y-117800380D01*
X66682785Y-117800380D02*
X66111357Y-117800380D01*
X66397071Y-117800380D02*
X66397071Y-116800380D01*
X66301833Y-116943238D01*
X66206595Y-117038476D01*
X66111357Y-117086095D01*
X64301833Y-120276880D02*
X64301833Y-119276880D01*
X64682785Y-119276880D01*
X64778023Y-119324500D01*
X64825642Y-119372119D01*
X64873261Y-119467357D01*
X64873261Y-119610214D01*
X64825642Y-119705452D01*
X64778023Y-119753071D01*
X64682785Y-119800690D01*
X64301833Y-119800690D01*
X65254214Y-119991166D02*
X65730404Y-119991166D01*
X65158976Y-120276880D02*
X65492309Y-119276880D01*
X65825642Y-120276880D01*
X66111357Y-119372119D02*
X66158976Y-119324500D01*
X66254214Y-119276880D01*
X66492309Y-119276880D01*
X66587547Y-119324500D01*
X66635166Y-119372119D01*
X66682785Y-119467357D01*
X66682785Y-119562595D01*
X66635166Y-119705452D01*
X66063738Y-120276880D01*
X66682785Y-120276880D01*
X64238333Y-122880380D02*
X64238333Y-121880380D01*
X64619285Y-121880380D01*
X64714523Y-121928000D01*
X64762142Y-121975619D01*
X64809761Y-122070857D01*
X64809761Y-122213714D01*
X64762142Y-122308952D01*
X64714523Y-122356571D01*
X64619285Y-122404190D01*
X64238333Y-122404190D01*
X65190714Y-122594666D02*
X65666904Y-122594666D01*
X65095476Y-122880380D02*
X65428809Y-121880380D01*
X65762142Y-122880380D01*
X66000238Y-121880380D02*
X66619285Y-121880380D01*
X66285952Y-122261333D01*
X66428809Y-122261333D01*
X66524047Y-122308952D01*
X66571666Y-122356571D01*
X66619285Y-122451809D01*
X66619285Y-122689904D01*
X66571666Y-122785142D01*
X66524047Y-122832761D01*
X66428809Y-122880380D01*
X66143095Y-122880380D01*
X66047857Y-122832761D01*
X66000238Y-122785142D01*
X63976404Y-124483880D02*
X64595452Y-124483880D01*
X64262119Y-124864833D01*
X64404976Y-124864833D01*
X64500214Y-124912452D01*
X64547833Y-124960071D01*
X64595452Y-125055309D01*
X64595452Y-125293404D01*
X64547833Y-125388642D01*
X64500214Y-125436261D01*
X64404976Y-125483880D01*
X64119261Y-125483880D01*
X64024023Y-125436261D01*
X63976404Y-125388642D01*
X64881166Y-124483880D02*
X65214500Y-125483880D01*
X65547833Y-124483880D01*
X65785928Y-124483880D02*
X66404976Y-124483880D01*
X66071642Y-124864833D01*
X66214500Y-124864833D01*
X66309738Y-124912452D01*
X66357357Y-124960071D01*
X66404976Y-125055309D01*
X66404976Y-125293404D01*
X66357357Y-125388642D01*
X66309738Y-125436261D01*
X66214500Y-125483880D01*
X65928785Y-125483880D01*
X65833547Y-125436261D01*
X65785928Y-125388642D01*
X64531952Y-127896880D02*
X63960523Y-127896880D01*
X64246238Y-127896880D02*
X64246238Y-126896880D01*
X64151000Y-127039738D01*
X64055761Y-127134976D01*
X63960523Y-127182595D01*
X64912904Y-126992119D02*
X64960523Y-126944500D01*
X65055761Y-126896880D01*
X65293857Y-126896880D01*
X65389095Y-126944500D01*
X65436714Y-126992119D01*
X65484333Y-127087357D01*
X65484333Y-127182595D01*
X65436714Y-127325452D01*
X64865285Y-127896880D01*
X65484333Y-127896880D01*
X65770047Y-126896880D02*
X66103380Y-127896880D01*
X66436714Y-126896880D01*
X86447380Y-138652095D02*
X86447380Y-138033047D01*
X86828333Y-138366380D01*
X86828333Y-138223523D01*
X86875952Y-138128285D01*
X86923571Y-138080666D01*
X87018809Y-138033047D01*
X87256904Y-138033047D01*
X87352142Y-138080666D01*
X87399761Y-138128285D01*
X87447380Y-138223523D01*
X87447380Y-138509238D01*
X87399761Y-138604476D01*
X87352142Y-138652095D01*
X86447380Y-137747333D02*
X87447380Y-137414000D01*
X86447380Y-137080666D01*
X86447380Y-136842571D02*
X86447380Y-136223523D01*
X86828333Y-136556857D01*
X86828333Y-136414000D01*
X86875952Y-136318761D01*
X86923571Y-136271142D01*
X87018809Y-136223523D01*
X87256904Y-136223523D01*
X87352142Y-136271142D01*
X87399761Y-136318761D01*
X87447380Y-136414000D01*
X87447380Y-136699714D01*
X87399761Y-136794952D01*
X87352142Y-136842571D01*
X94115000Y-138175904D02*
X94067380Y-138271142D01*
X94067380Y-138414000D01*
X94115000Y-138556857D01*
X94210238Y-138652095D01*
X94305476Y-138699714D01*
X94495952Y-138747333D01*
X94638809Y-138747333D01*
X94829285Y-138699714D01*
X94924523Y-138652095D01*
X95019761Y-138556857D01*
X95067380Y-138414000D01*
X95067380Y-138318761D01*
X95019761Y-138175904D01*
X94972142Y-138128285D01*
X94638809Y-138128285D01*
X94638809Y-138318761D01*
X95067380Y-137699714D02*
X94067380Y-137699714D01*
X95067380Y-137128285D01*
X94067380Y-137128285D01*
X95067380Y-136652095D02*
X94067380Y-136652095D01*
X94067380Y-136414000D01*
X94115000Y-136271142D01*
X94210238Y-136175904D01*
X94305476Y-136128285D01*
X94495952Y-136080666D01*
X94638809Y-136080666D01*
X94829285Y-136128285D01*
X94924523Y-136175904D01*
X95019761Y-136271142D01*
X95067380Y-136414000D01*
X95067380Y-136652095D01*
X92479761Y-138604476D02*
X92527380Y-138461619D01*
X92527380Y-138223523D01*
X92479761Y-138128285D01*
X92432142Y-138080666D01*
X92336904Y-138033047D01*
X92241666Y-138033047D01*
X92146428Y-138080666D01*
X92098809Y-138128285D01*
X92051190Y-138223523D01*
X92003571Y-138414000D01*
X91955952Y-138509238D01*
X91908333Y-138556857D01*
X91813095Y-138604476D01*
X91717857Y-138604476D01*
X91622619Y-138556857D01*
X91575000Y-138509238D01*
X91527380Y-138414000D01*
X91527380Y-138175904D01*
X91575000Y-138033047D01*
X92432142Y-137033047D02*
X92479761Y-137080666D01*
X92527380Y-137223523D01*
X92527380Y-137318761D01*
X92479761Y-137461619D01*
X92384523Y-137556857D01*
X92289285Y-137604476D01*
X92098809Y-137652095D01*
X91955952Y-137652095D01*
X91765476Y-137604476D01*
X91670238Y-137556857D01*
X91575000Y-137461619D01*
X91527380Y-137318761D01*
X91527380Y-137223523D01*
X91575000Y-137080666D01*
X91622619Y-137033047D01*
X92527380Y-136128285D02*
X92527380Y-136604476D01*
X91527380Y-136604476D01*
X90003261Y-138628285D02*
X90050880Y-138485428D01*
X90050880Y-138247333D01*
X90003261Y-138152095D01*
X89955642Y-138104476D01*
X89860404Y-138056857D01*
X89765166Y-138056857D01*
X89669928Y-138104476D01*
X89622309Y-138152095D01*
X89574690Y-138247333D01*
X89527071Y-138437809D01*
X89479452Y-138533047D01*
X89431833Y-138580666D01*
X89336595Y-138628285D01*
X89241357Y-138628285D01*
X89146119Y-138580666D01*
X89098500Y-138533047D01*
X89050880Y-138437809D01*
X89050880Y-138199714D01*
X89098500Y-138056857D01*
X90050880Y-137628285D02*
X89050880Y-137628285D01*
X89050880Y-137390190D01*
X89098500Y-137247333D01*
X89193738Y-137152095D01*
X89288976Y-137104476D01*
X89479452Y-137056857D01*
X89622309Y-137056857D01*
X89812785Y-137104476D01*
X89908023Y-137152095D01*
X90003261Y-137247333D01*
X90050880Y-137390190D01*
X90050880Y-137628285D01*
X89765166Y-136675904D02*
X89765166Y-136199714D01*
X90050880Y-136771142D02*
X89050880Y-136437809D01*
X90050880Y-136104476D01*
X81034000Y-138175904D02*
X80986380Y-138271142D01*
X80986380Y-138414000D01*
X81034000Y-138556857D01*
X81129238Y-138652095D01*
X81224476Y-138699714D01*
X81414952Y-138747333D01*
X81557809Y-138747333D01*
X81748285Y-138699714D01*
X81843523Y-138652095D01*
X81938761Y-138556857D01*
X81986380Y-138414000D01*
X81986380Y-138318761D01*
X81938761Y-138175904D01*
X81891142Y-138128285D01*
X81557809Y-138128285D01*
X81557809Y-138318761D01*
X81986380Y-137699714D02*
X80986380Y-137699714D01*
X81986380Y-137128285D01*
X80986380Y-137128285D01*
X81986380Y-136652095D02*
X80986380Y-136652095D01*
X80986380Y-136414000D01*
X81034000Y-136271142D01*
X81129238Y-136175904D01*
X81224476Y-136128285D01*
X81414952Y-136080666D01*
X81557809Y-136080666D01*
X81748285Y-136128285D01*
X81843523Y-136175904D01*
X81938761Y-136271142D01*
X81986380Y-136414000D01*
X81986380Y-136652095D01*
X79398761Y-138604476D02*
X79446380Y-138461619D01*
X79446380Y-138223523D01*
X79398761Y-138128285D01*
X79351142Y-138080666D01*
X79255904Y-138033047D01*
X79160666Y-138033047D01*
X79065428Y-138080666D01*
X79017809Y-138128285D01*
X78970190Y-138223523D01*
X78922571Y-138414000D01*
X78874952Y-138509238D01*
X78827333Y-138556857D01*
X78732095Y-138604476D01*
X78636857Y-138604476D01*
X78541619Y-138556857D01*
X78494000Y-138509238D01*
X78446380Y-138414000D01*
X78446380Y-138175904D01*
X78494000Y-138033047D01*
X79351142Y-137033047D02*
X79398761Y-137080666D01*
X79446380Y-137223523D01*
X79446380Y-137318761D01*
X79398761Y-137461619D01*
X79303523Y-137556857D01*
X79208285Y-137604476D01*
X79017809Y-137652095D01*
X78874952Y-137652095D01*
X78684476Y-137604476D01*
X78589238Y-137556857D01*
X78494000Y-137461619D01*
X78446380Y-137318761D01*
X78446380Y-137223523D01*
X78494000Y-137080666D01*
X78541619Y-137033047D01*
X79446380Y-136128285D02*
X79446380Y-136604476D01*
X78446380Y-136604476D01*
X76922261Y-138628285D02*
X76969880Y-138485428D01*
X76969880Y-138247333D01*
X76922261Y-138152095D01*
X76874642Y-138104476D01*
X76779404Y-138056857D01*
X76684166Y-138056857D01*
X76588928Y-138104476D01*
X76541309Y-138152095D01*
X76493690Y-138247333D01*
X76446071Y-138437809D01*
X76398452Y-138533047D01*
X76350833Y-138580666D01*
X76255595Y-138628285D01*
X76160357Y-138628285D01*
X76065119Y-138580666D01*
X76017500Y-138533047D01*
X75969880Y-138437809D01*
X75969880Y-138199714D01*
X76017500Y-138056857D01*
X76969880Y-137628285D02*
X75969880Y-137628285D01*
X75969880Y-137390190D01*
X76017500Y-137247333D01*
X76112738Y-137152095D01*
X76207976Y-137104476D01*
X76398452Y-137056857D01*
X76541309Y-137056857D01*
X76731785Y-137104476D01*
X76827023Y-137152095D01*
X76922261Y-137247333D01*
X76969880Y-137390190D01*
X76969880Y-137628285D01*
X76684166Y-136675904D02*
X76684166Y-136199714D01*
X76969880Y-136771142D02*
X75969880Y-136437809D01*
X76969880Y-136104476D01*
X73366380Y-138652095D02*
X73366380Y-138033047D01*
X73747333Y-138366380D01*
X73747333Y-138223523D01*
X73794952Y-138128285D01*
X73842571Y-138080666D01*
X73937809Y-138033047D01*
X74175904Y-138033047D01*
X74271142Y-138080666D01*
X74318761Y-138128285D01*
X74366380Y-138223523D01*
X74366380Y-138509238D01*
X74318761Y-138604476D01*
X74271142Y-138652095D01*
X73366380Y-137747333D02*
X74366380Y-137414000D01*
X73366380Y-137080666D01*
X73366380Y-136842571D02*
X73366380Y-136223523D01*
X73747333Y-136556857D01*
X73747333Y-136414000D01*
X73794952Y-136318761D01*
X73842571Y-136271142D01*
X73937809Y-136223523D01*
X74175904Y-136223523D01*
X74271142Y-136271142D01*
X74318761Y-136318761D01*
X74366380Y-136414000D01*
X74366380Y-136699714D01*
X74318761Y-136794952D01*
X74271142Y-136842571D01*
X89162119Y-140977880D02*
X89162119Y-139977880D01*
X89590690Y-140073119D02*
X89638309Y-140025500D01*
X89733547Y-139977880D01*
X89971642Y-139977880D01*
X90066880Y-140025500D01*
X90114500Y-140073119D01*
X90162119Y-140168357D01*
X90162119Y-140263595D01*
X90114500Y-140406452D01*
X89543071Y-140977880D01*
X90162119Y-140977880D01*
X91162119Y-140882642D02*
X91114500Y-140930261D01*
X90971642Y-140977880D01*
X90876404Y-140977880D01*
X90733547Y-140930261D01*
X90638309Y-140835023D01*
X90590690Y-140739785D01*
X90543071Y-140549309D01*
X90543071Y-140406452D01*
X90590690Y-140215976D01*
X90638309Y-140120738D01*
X90733547Y-140025500D01*
X90876404Y-139977880D01*
X90971642Y-139977880D01*
X91114500Y-140025500D01*
X91162119Y-140073119D01*
X92114500Y-140977880D02*
X91543071Y-140977880D01*
X91828785Y-140977880D02*
X91828785Y-139977880D01*
X91733547Y-140120738D01*
X91638309Y-140215976D01*
X91543071Y-140263595D01*
X76208119Y-141041380D02*
X76208119Y-140041380D01*
X76636690Y-140136619D02*
X76684309Y-140089000D01*
X76779547Y-140041380D01*
X77017642Y-140041380D01*
X77112880Y-140089000D01*
X77160500Y-140136619D01*
X77208119Y-140231857D01*
X77208119Y-140327095D01*
X77160500Y-140469952D01*
X76589071Y-141041380D01*
X77208119Y-141041380D01*
X78208119Y-140946142D02*
X78160500Y-140993761D01*
X78017642Y-141041380D01*
X77922404Y-141041380D01*
X77779547Y-140993761D01*
X77684309Y-140898523D01*
X77636690Y-140803285D01*
X77589071Y-140612809D01*
X77589071Y-140469952D01*
X77636690Y-140279476D01*
X77684309Y-140184238D01*
X77779547Y-140089000D01*
X77922404Y-140041380D01*
X78017642Y-140041380D01*
X78160500Y-140089000D01*
X78208119Y-140136619D01*
X78827166Y-140041380D02*
X78922404Y-140041380D01*
X79017642Y-140089000D01*
X79065261Y-140136619D01*
X79112880Y-140231857D01*
X79160500Y-140422333D01*
X79160500Y-140660428D01*
X79112880Y-140850904D01*
X79065261Y-140946142D01*
X79017642Y-140993761D01*
X78922404Y-141041380D01*
X78827166Y-141041380D01*
X78731928Y-140993761D01*
X78684309Y-140946142D01*
X78636690Y-140850904D01*
X78589071Y-140660428D01*
X78589071Y-140422333D01*
X78636690Y-140231857D01*
X78684309Y-140136619D01*
X78731928Y-140089000D01*
X78827166Y-140041380D01*
D11*
X129302785Y-73025000D02*
G75*
G03X129302785Y-73025000I-969285J0D01*
G01*
D10*
X126410357Y-79284285D02*
X126482928Y-79066571D01*
X126482928Y-78703714D01*
X126410357Y-78558571D01*
X126337785Y-78486000D01*
X126192642Y-78413428D01*
X126047500Y-78413428D01*
X125902357Y-78486000D01*
X125829785Y-78558571D01*
X125757214Y-78703714D01*
X125684642Y-78994000D01*
X125612071Y-79139142D01*
X125539500Y-79211714D01*
X125394357Y-79284285D01*
X125249214Y-79284285D01*
X125104071Y-79211714D01*
X125031500Y-79139142D01*
X124958928Y-78994000D01*
X124958928Y-78631142D01*
X125031500Y-78413428D01*
X124958928Y-77905428D02*
X126482928Y-77542571D01*
X125394357Y-77252285D01*
X126482928Y-76962000D01*
X124958928Y-76599142D01*
X126482928Y-76018571D02*
X124958928Y-76018571D01*
X124958928Y-75655714D01*
X125031500Y-75438000D01*
X125176642Y-75292857D01*
X125321785Y-75220285D01*
X125612071Y-75147714D01*
X125829785Y-75147714D01*
X126120071Y-75220285D01*
X126265214Y-75292857D01*
X126410357Y-75438000D01*
X126482928Y-75655714D01*
X126482928Y-76018571D01*
X137782904Y-131145642D02*
X139331095Y-131145642D01*
X141295380Y-132603357D02*
X140295380Y-132603357D01*
X140295380Y-132222404D01*
X140343000Y-132127166D01*
X140390619Y-132079547D01*
X140485857Y-132031928D01*
X140628714Y-132031928D01*
X140723952Y-132079547D01*
X140771571Y-132127166D01*
X140819190Y-132222404D01*
X140819190Y-132603357D01*
X141295380Y-131603357D02*
X140628714Y-131603357D01*
X140819190Y-131603357D02*
X140723952Y-131555738D01*
X140676333Y-131508119D01*
X140628714Y-131412880D01*
X140628714Y-131317642D01*
X141247761Y-130603357D02*
X141295380Y-130698595D01*
X141295380Y-130889071D01*
X141247761Y-130984309D01*
X141152523Y-131031928D01*
X140771571Y-131031928D01*
X140676333Y-130984309D01*
X140628714Y-130889071D01*
X140628714Y-130698595D01*
X140676333Y-130603357D01*
X140771571Y-130555738D01*
X140866809Y-130555738D01*
X140962047Y-131031928D01*
X141247761Y-130174785D02*
X141295380Y-130079547D01*
X141295380Y-129889071D01*
X141247761Y-129793833D01*
X141152523Y-129746214D01*
X141104904Y-129746214D01*
X141009666Y-129793833D01*
X140962047Y-129889071D01*
X140962047Y-130031928D01*
X140914428Y-130127166D01*
X140819190Y-130174785D01*
X140771571Y-130174785D01*
X140676333Y-130127166D01*
X140628714Y-130031928D01*
X140628714Y-129889071D01*
X140676333Y-129793833D01*
X141247761Y-129365261D02*
X141295380Y-129270023D01*
X141295380Y-129079547D01*
X141247761Y-128984309D01*
X141152523Y-128936690D01*
X141104904Y-128936690D01*
X141009666Y-128984309D01*
X140962047Y-129079547D01*
X140962047Y-129222404D01*
X140914428Y-129317642D01*
X140819190Y-129365261D01*
X140771571Y-129365261D01*
X140676333Y-129317642D01*
X140628714Y-129222404D01*
X140628714Y-129079547D01*
X140676333Y-128984309D01*
X140628714Y-128079547D02*
X141295380Y-128079547D01*
X140628714Y-128508119D02*
X141152523Y-128508119D01*
X141247761Y-128460500D01*
X141295380Y-128365261D01*
X141295380Y-128222404D01*
X141247761Y-128127166D01*
X141200142Y-128079547D01*
X141295380Y-127603357D02*
X140628714Y-127603357D01*
X140819190Y-127603357D02*
X140723952Y-127555738D01*
X140676333Y-127508119D01*
X140628714Y-127412880D01*
X140628714Y-127317642D01*
X141247761Y-126603357D02*
X141295380Y-126698595D01*
X141295380Y-126889071D01*
X141247761Y-126984309D01*
X141152523Y-127031928D01*
X140771571Y-127031928D01*
X140676333Y-126984309D01*
X140628714Y-126889071D01*
X140628714Y-126698595D01*
X140676333Y-126603357D01*
X140771571Y-126555738D01*
X140866809Y-126555738D01*
X140962047Y-127031928D01*
X141295380Y-125365261D02*
X140295380Y-125365261D01*
X141295380Y-124889071D02*
X140295380Y-124889071D01*
X141295380Y-124317642D01*
X140295380Y-124317642D01*
X137782904Y-126065642D02*
X139331095Y-126065642D01*
X138557000Y-126839738D02*
X138557000Y-125291547D01*
X137719404Y-112603642D02*
X139267595Y-112603642D01*
X138493500Y-113377738D02*
X138493500Y-111829547D01*
X141374761Y-118141357D02*
X141422380Y-117998500D01*
X141422380Y-117760404D01*
X141374761Y-117665166D01*
X141327142Y-117617547D01*
X141231904Y-117569928D01*
X141136666Y-117569928D01*
X141041428Y-117617547D01*
X140993809Y-117665166D01*
X140946190Y-117760404D01*
X140898571Y-117950880D01*
X140850952Y-118046119D01*
X140803333Y-118093738D01*
X140708095Y-118141357D01*
X140612857Y-118141357D01*
X140517619Y-118093738D01*
X140470000Y-118046119D01*
X140422380Y-117950880D01*
X140422380Y-117712785D01*
X140470000Y-117569928D01*
X140422380Y-117236595D02*
X141422380Y-116998500D01*
X140708095Y-116808023D01*
X141422380Y-116617547D01*
X140422380Y-116379452D01*
X141422380Y-115474690D02*
X141422380Y-116046119D01*
X141422380Y-115760404D02*
X140422380Y-115760404D01*
X140565238Y-115855642D01*
X140660476Y-115950880D01*
X140708095Y-116046119D01*
X140422380Y-114093738D02*
X140422380Y-113903261D01*
X140470000Y-113808023D01*
X140565238Y-113712785D01*
X140755714Y-113665166D01*
X141089047Y-113665166D01*
X141279523Y-113712785D01*
X141374761Y-113808023D01*
X141422380Y-113903261D01*
X141422380Y-114093738D01*
X141374761Y-114188976D01*
X141279523Y-114284214D01*
X141089047Y-114331833D01*
X140755714Y-114331833D01*
X140565238Y-114284214D01*
X140470000Y-114188976D01*
X140422380Y-114093738D01*
X140422380Y-113236595D02*
X141231904Y-113236595D01*
X141327142Y-113188976D01*
X141374761Y-113141357D01*
X141422380Y-113046119D01*
X141422380Y-112855642D01*
X141374761Y-112760404D01*
X141327142Y-112712785D01*
X141231904Y-112665166D01*
X140422380Y-112665166D01*
X140422380Y-112331833D02*
X140422380Y-111760404D01*
X141422380Y-112046119D02*
X140422380Y-112046119D01*
X137719404Y-117683642D02*
X139267595Y-117683642D01*
X137719404Y-102380142D02*
X139267595Y-102380142D01*
X137719404Y-97300142D02*
X139267595Y-97300142D01*
X138493500Y-98074238D02*
X138493500Y-96526047D01*
X141422380Y-103337857D02*
X140422380Y-103337857D01*
X140422380Y-102956904D01*
X140470000Y-102861666D01*
X140517619Y-102814047D01*
X140612857Y-102766428D01*
X140755714Y-102766428D01*
X140850952Y-102814047D01*
X140898571Y-102861666D01*
X140946190Y-102956904D01*
X140946190Y-103337857D01*
X140755714Y-101909285D02*
X141422380Y-101909285D01*
X140755714Y-102337857D02*
X141279523Y-102337857D01*
X141374761Y-102290238D01*
X141422380Y-102195000D01*
X141422380Y-102052142D01*
X141374761Y-101956904D01*
X141327142Y-101909285D01*
X141422380Y-101433095D02*
X140755714Y-101433095D01*
X140850952Y-101433095D02*
X140803333Y-101385476D01*
X140755714Y-101290238D01*
X140755714Y-101147380D01*
X140803333Y-101052142D01*
X140898571Y-101004523D01*
X141422380Y-101004523D01*
X140898571Y-101004523D02*
X140803333Y-100956904D01*
X140755714Y-100861666D01*
X140755714Y-100718809D01*
X140803333Y-100623571D01*
X140898571Y-100575952D01*
X141422380Y-100575952D01*
X140755714Y-100099761D02*
X141755714Y-100099761D01*
X140803333Y-100099761D02*
X140755714Y-100004523D01*
X140755714Y-99814047D01*
X140803333Y-99718809D01*
X140850952Y-99671190D01*
X140946190Y-99623571D01*
X141231904Y-99623571D01*
X141327142Y-99671190D01*
X141374761Y-99718809D01*
X141422380Y-99814047D01*
X141422380Y-100004523D01*
X141374761Y-100099761D01*
X140422380Y-98242619D02*
X140422380Y-98052142D01*
X140470000Y-97956904D01*
X140565238Y-97861666D01*
X140755714Y-97814047D01*
X141089047Y-97814047D01*
X141279523Y-97861666D01*
X141374761Y-97956904D01*
X141422380Y-98052142D01*
X141422380Y-98242619D01*
X141374761Y-98337857D01*
X141279523Y-98433095D01*
X141089047Y-98480714D01*
X140755714Y-98480714D01*
X140565238Y-98433095D01*
X140470000Y-98337857D01*
X140422380Y-98242619D01*
X140422380Y-97385476D02*
X141231904Y-97385476D01*
X141327142Y-97337857D01*
X141374761Y-97290238D01*
X141422380Y-97195000D01*
X141422380Y-97004523D01*
X141374761Y-96909285D01*
X141327142Y-96861666D01*
X141231904Y-96814047D01*
X140422380Y-96814047D01*
X140422380Y-96480714D02*
X140422380Y-95909285D01*
X141422380Y-96195000D02*
X140422380Y-96195000D01*
X137655904Y-87775142D02*
X139204095Y-87775142D01*
X137655904Y-82695142D02*
X139204095Y-82695142D01*
X138430000Y-83469238D02*
X138430000Y-81921047D01*
X141311261Y-90590000D02*
X141358880Y-90447142D01*
X141358880Y-90209047D01*
X141311261Y-90113809D01*
X141263642Y-90066190D01*
X141168404Y-90018571D01*
X141073166Y-90018571D01*
X140977928Y-90066190D01*
X140930309Y-90113809D01*
X140882690Y-90209047D01*
X140835071Y-90399523D01*
X140787452Y-90494761D01*
X140739833Y-90542380D01*
X140644595Y-90590000D01*
X140549357Y-90590000D01*
X140454119Y-90542380D01*
X140406500Y-90494761D01*
X140358880Y-90399523D01*
X140358880Y-90161428D01*
X140406500Y-90018571D01*
X141358880Y-89447142D02*
X141311261Y-89542380D01*
X141263642Y-89590000D01*
X141168404Y-89637619D01*
X140882690Y-89637619D01*
X140787452Y-89590000D01*
X140739833Y-89542380D01*
X140692214Y-89447142D01*
X140692214Y-89304285D01*
X140739833Y-89209047D01*
X140787452Y-89161428D01*
X140882690Y-89113809D01*
X141168404Y-89113809D01*
X141263642Y-89161428D01*
X141311261Y-89209047D01*
X141358880Y-89304285D01*
X141358880Y-89447142D01*
X141358880Y-88542380D02*
X141311261Y-88637619D01*
X141216023Y-88685238D01*
X140358880Y-88685238D01*
X141358880Y-87732857D02*
X140835071Y-87732857D01*
X140739833Y-87780476D01*
X140692214Y-87875714D01*
X140692214Y-88066190D01*
X140739833Y-88161428D01*
X141311261Y-87732857D02*
X141358880Y-87828095D01*
X141358880Y-88066190D01*
X141311261Y-88161428D01*
X141216023Y-88209047D01*
X141120785Y-88209047D01*
X141025547Y-88161428D01*
X140977928Y-88066190D01*
X140977928Y-87828095D01*
X140930309Y-87732857D01*
X141358880Y-87256666D02*
X140692214Y-87256666D01*
X140882690Y-87256666D02*
X140787452Y-87209047D01*
X140739833Y-87161428D01*
X140692214Y-87066190D01*
X140692214Y-86970952D01*
X141358880Y-85875714D02*
X140358880Y-85875714D01*
X140358880Y-85494761D01*
X140406500Y-85399523D01*
X140454119Y-85351904D01*
X140549357Y-85304285D01*
X140692214Y-85304285D01*
X140787452Y-85351904D01*
X140835071Y-85399523D01*
X140882690Y-85494761D01*
X140882690Y-85875714D01*
X141358880Y-84732857D02*
X141311261Y-84828095D01*
X141263642Y-84875714D01*
X141168404Y-84923333D01*
X140882690Y-84923333D01*
X140787452Y-84875714D01*
X140739833Y-84828095D01*
X140692214Y-84732857D01*
X140692214Y-84590000D01*
X140739833Y-84494761D01*
X140787452Y-84447142D01*
X140882690Y-84399523D01*
X141168404Y-84399523D01*
X141263642Y-84447142D01*
X141311261Y-84494761D01*
X141358880Y-84590000D01*
X141358880Y-84732857D01*
X140692214Y-84066190D02*
X141358880Y-83875714D01*
X140882690Y-83685238D01*
X141358880Y-83494761D01*
X140692214Y-83304285D01*
X141311261Y-82542380D02*
X141358880Y-82637619D01*
X141358880Y-82828095D01*
X141311261Y-82923333D01*
X141216023Y-82970952D01*
X140835071Y-82970952D01*
X140739833Y-82923333D01*
X140692214Y-82828095D01*
X140692214Y-82637619D01*
X140739833Y-82542380D01*
X140835071Y-82494761D01*
X140930309Y-82494761D01*
X141025547Y-82970952D01*
X141358880Y-82066190D02*
X140692214Y-82066190D01*
X140882690Y-82066190D02*
X140787452Y-82018571D01*
X140739833Y-81970952D01*
X140692214Y-81875714D01*
X140692214Y-81780476D01*
X141358880Y-80685238D02*
X140358880Y-80685238D01*
X141358880Y-80209047D02*
X140358880Y-80209047D01*
X141358880Y-79637619D01*
X140358880Y-79637619D01*
X72286880Y-89383785D02*
X73286880Y-89050452D01*
X72286880Y-88717119D01*
X72763071Y-88383785D02*
X72763071Y-88050452D01*
X73286880Y-87907595D02*
X73286880Y-88383785D01*
X72286880Y-88383785D01*
X72286880Y-87907595D01*
X73191642Y-87479023D02*
X73239261Y-87431404D01*
X73286880Y-87479023D01*
X73239261Y-87526642D01*
X73191642Y-87479023D01*
X73286880Y-87479023D01*
X73286880Y-87002833D02*
X72286880Y-87002833D01*
X72286880Y-86764738D01*
X72334500Y-86621880D01*
X72429738Y-86526642D01*
X72524976Y-86479023D01*
X72715452Y-86431404D01*
X72858309Y-86431404D01*
X73048785Y-86479023D01*
X73144023Y-86526642D01*
X73239261Y-86621880D01*
X73286880Y-86764738D01*
X73286880Y-87002833D01*
X73286880Y-86002833D02*
X72620214Y-86002833D01*
X72286880Y-86002833D02*
X72334500Y-86050452D01*
X72382119Y-86002833D01*
X72334500Y-85955214D01*
X72286880Y-86002833D01*
X72382119Y-86002833D01*
X73286880Y-85526642D02*
X72620214Y-85526642D01*
X72810690Y-85526642D02*
X72715452Y-85479023D01*
X72667833Y-85431404D01*
X72620214Y-85336166D01*
X72620214Y-85240928D01*
X73239261Y-84526642D02*
X73286880Y-84621880D01*
X73286880Y-84812357D01*
X73239261Y-84907595D01*
X73144023Y-84955214D01*
X72763071Y-84955214D01*
X72667833Y-84907595D01*
X72620214Y-84812357D01*
X72620214Y-84621880D01*
X72667833Y-84526642D01*
X72763071Y-84479023D01*
X72858309Y-84479023D01*
X72953547Y-84955214D01*
X73239261Y-83621880D02*
X73286880Y-83717119D01*
X73286880Y-83907595D01*
X73239261Y-84002833D01*
X73191642Y-84050452D01*
X73096404Y-84098071D01*
X72810690Y-84098071D01*
X72715452Y-84050452D01*
X72667833Y-84002833D01*
X72620214Y-83907595D01*
X72620214Y-83717119D01*
X72667833Y-83621880D01*
X72620214Y-83336166D02*
X72620214Y-82955214D01*
X72286880Y-83193309D02*
X73144023Y-83193309D01*
X73239261Y-83145690D01*
X73286880Y-83050452D01*
X73286880Y-82955214D01*
D12*
X75431761Y-51170619D02*
X75050809Y-51170619D01*
X75050809Y-50070619D01*
X75698428Y-50594428D02*
X75965095Y-50594428D01*
X76079380Y-51170619D02*
X75698428Y-51170619D01*
X75698428Y-50070619D01*
X76079380Y-50070619D01*
X76422238Y-51170619D02*
X76422238Y-50070619D01*
X76612714Y-50070619D01*
X76727000Y-50123000D01*
X76803190Y-50227761D01*
X76841285Y-50332523D01*
X76879380Y-50542047D01*
X76879380Y-50699190D01*
X76841285Y-50908714D01*
X76803190Y-51013476D01*
X76727000Y-51118238D01*
X76612714Y-51170619D01*
X76422238Y-51170619D01*
X77146047Y-50070619D02*
X77641285Y-50070619D01*
X77374619Y-50489666D01*
X77488904Y-50489666D01*
X77565095Y-50542047D01*
X77603190Y-50594428D01*
X77641285Y-50699190D01*
X77641285Y-50961095D01*
X77603190Y-51065857D01*
X77565095Y-51118238D01*
X77488904Y-51170619D01*
X77260333Y-51170619D01*
X77184142Y-51118238D01*
X77146047Y-51065857D01*
X79749761Y-51170619D02*
X79368809Y-51170619D01*
X79368809Y-50070619D01*
X80016428Y-50594428D02*
X80283095Y-50594428D01*
X80397380Y-51170619D02*
X80016428Y-51170619D01*
X80016428Y-50070619D01*
X80397380Y-50070619D01*
X80740238Y-51170619D02*
X80740238Y-50070619D01*
X80930714Y-50070619D01*
X81045000Y-50123000D01*
X81121190Y-50227761D01*
X81159285Y-50332523D01*
X81197380Y-50542047D01*
X81197380Y-50699190D01*
X81159285Y-50908714D01*
X81121190Y-51013476D01*
X81045000Y-51118238D01*
X80930714Y-51170619D01*
X80740238Y-51170619D01*
X81502142Y-50175380D02*
X81540238Y-50123000D01*
X81616428Y-50070619D01*
X81806904Y-50070619D01*
X81883095Y-50123000D01*
X81921190Y-50175380D01*
X81959285Y-50280142D01*
X81959285Y-50384904D01*
X81921190Y-50542047D01*
X81464047Y-51170619D01*
X81959285Y-51170619D01*
X84067761Y-51170619D02*
X83686809Y-51170619D01*
X83686809Y-50070619D01*
X84334428Y-50594428D02*
X84601095Y-50594428D01*
X84715380Y-51170619D02*
X84334428Y-51170619D01*
X84334428Y-50070619D01*
X84715380Y-50070619D01*
X85058238Y-51170619D02*
X85058238Y-50070619D01*
X85248714Y-50070619D01*
X85363000Y-50123000D01*
X85439190Y-50227761D01*
X85477285Y-50332523D01*
X85515380Y-50542047D01*
X85515380Y-50699190D01*
X85477285Y-50908714D01*
X85439190Y-51013476D01*
X85363000Y-51118238D01*
X85248714Y-51170619D01*
X85058238Y-51170619D01*
X86277285Y-51170619D02*
X85820142Y-51170619D01*
X86048714Y-51170619D02*
X86048714Y-50070619D01*
X85972523Y-50227761D01*
X85896333Y-50332523D01*
X85820142Y-50384904D01*
X87877761Y-51170619D02*
X87496809Y-51170619D01*
X87496809Y-50070619D01*
X88144428Y-50594428D02*
X88411095Y-50594428D01*
X88525380Y-51170619D02*
X88144428Y-51170619D01*
X88144428Y-50070619D01*
X88525380Y-50070619D01*
X88868238Y-51170619D02*
X88868238Y-50070619D01*
X89058714Y-50070619D01*
X89173000Y-50123000D01*
X89249190Y-50227761D01*
X89287285Y-50332523D01*
X89325380Y-50542047D01*
X89325380Y-50699190D01*
X89287285Y-50908714D01*
X89249190Y-51013476D01*
X89173000Y-51118238D01*
X89058714Y-51170619D01*
X88868238Y-51170619D01*
X89820619Y-50070619D02*
X89896809Y-50070619D01*
X89973000Y-50123000D01*
X90011095Y-50175380D01*
X90049190Y-50280142D01*
X90087285Y-50489666D01*
X90087285Y-50751571D01*
X90049190Y-50961095D01*
X90011095Y-51065857D01*
X89973000Y-51118238D01*
X89896809Y-51170619D01*
X89820619Y-51170619D01*
X89744428Y-51118238D01*
X89706333Y-51065857D01*
X89668238Y-50961095D01*
X89630142Y-50751571D01*
X89630142Y-50489666D01*
X89668238Y-50280142D01*
X89706333Y-50175380D01*
X89744428Y-50123000D01*
X89820619Y-50070619D01*
D13*
X115650095Y-58627428D02*
X114350095Y-58627428D01*
X114350095Y-58132190D01*
X114412000Y-58008380D01*
X114473904Y-57946476D01*
X114597714Y-57884571D01*
X114783428Y-57884571D01*
X114907238Y-57946476D01*
X114969142Y-58008380D01*
X115031047Y-58132190D01*
X115031047Y-58627428D01*
X115650095Y-56584571D02*
X115031047Y-57017904D01*
X115650095Y-57327428D02*
X114350095Y-57327428D01*
X114350095Y-56832190D01*
X114412000Y-56708380D01*
X114473904Y-56646476D01*
X114597714Y-56584571D01*
X114783428Y-56584571D01*
X114907238Y-56646476D01*
X114969142Y-56708380D01*
X115031047Y-56832190D01*
X115031047Y-57327428D01*
X114350095Y-55779809D02*
X114350095Y-55532190D01*
X114412000Y-55408380D01*
X114535809Y-55284571D01*
X114783428Y-55222666D01*
X115216761Y-55222666D01*
X115464380Y-55284571D01*
X115588190Y-55408380D01*
X115650095Y-55532190D01*
X115650095Y-55779809D01*
X115588190Y-55903619D01*
X115464380Y-56027428D01*
X115216761Y-56089333D01*
X114783428Y-56089333D01*
X114535809Y-56027428D01*
X114412000Y-55903619D01*
X114350095Y-55779809D01*
X114412000Y-53984571D02*
X114350095Y-54108380D01*
X114350095Y-54294095D01*
X114412000Y-54479809D01*
X114535809Y-54603619D01*
X114659619Y-54665523D01*
X114907238Y-54727428D01*
X115092952Y-54727428D01*
X115340571Y-54665523D01*
X115464380Y-54603619D01*
X115588190Y-54479809D01*
X115650095Y-54294095D01*
X115650095Y-54170285D01*
X115588190Y-53984571D01*
X115526285Y-53922666D01*
X115092952Y-53922666D01*
X115092952Y-54170285D01*
X115650095Y-52622666D02*
X115031047Y-53056000D01*
X115650095Y-53365523D02*
X114350095Y-53365523D01*
X114350095Y-52870285D01*
X114412000Y-52746476D01*
X114473904Y-52684571D01*
X114597714Y-52622666D01*
X114783428Y-52622666D01*
X114907238Y-52684571D01*
X114969142Y-52746476D01*
X115031047Y-52870285D01*
X115031047Y-53365523D01*
X115278666Y-52127428D02*
X115278666Y-51508380D01*
X115650095Y-52251238D02*
X114350095Y-51817904D01*
X115650095Y-51384571D01*
X115650095Y-50951238D02*
X114350095Y-50951238D01*
X115278666Y-50517904D01*
X114350095Y-50084571D01*
X115650095Y-50084571D01*
X125429095Y-54720095D02*
X124810047Y-55153428D01*
X125429095Y-55462952D02*
X124129095Y-55462952D01*
X124129095Y-54967714D01*
X124191000Y-54843904D01*
X124252904Y-54782000D01*
X124376714Y-54720095D01*
X124562428Y-54720095D01*
X124686238Y-54782000D01*
X124748142Y-54843904D01*
X124810047Y-54967714D01*
X124810047Y-55462952D01*
X124748142Y-54162952D02*
X124748142Y-53729619D01*
X125429095Y-53543904D02*
X125429095Y-54162952D01*
X124129095Y-54162952D01*
X124129095Y-53543904D01*
X125367190Y-53048666D02*
X125429095Y-52862952D01*
X125429095Y-52553428D01*
X125367190Y-52429619D01*
X125305285Y-52367714D01*
X125181476Y-52305809D01*
X125057666Y-52305809D01*
X124933857Y-52367714D01*
X124871952Y-52429619D01*
X124810047Y-52553428D01*
X124748142Y-52801047D01*
X124686238Y-52924857D01*
X124624333Y-52986761D01*
X124500523Y-53048666D01*
X124376714Y-53048666D01*
X124252904Y-52986761D01*
X124191000Y-52924857D01*
X124129095Y-52801047D01*
X124129095Y-52491523D01*
X124191000Y-52305809D01*
X124748142Y-51748666D02*
X124748142Y-51315333D01*
X125429095Y-51129619D02*
X125429095Y-51748666D01*
X124129095Y-51748666D01*
X124129095Y-51129619D01*
X124129095Y-50758190D02*
X124129095Y-50015333D01*
X125429095Y-50386761D02*
X124129095Y-50386761D01*
D14*
X108642000Y-114427000D02*
G75*
G03X108642000Y-114427000I-1200000J0D01*
G01*
X114992000Y-107569000D02*
G75*
G03X114992000Y-107569000I-1200000J0D01*
G01*
X129089000Y-113030000D02*
G75*
G03X129089000Y-113030000I-1200000J0D01*
G01*
X127946000Y-59245500D02*
G75*
G03X127946000Y-59245500I-1200000J0D01*
G01*
X151758500Y-66294000D02*
G75*
G03X151758500Y-66294000I-1200000J0D01*
G01*
X123818500Y-75120500D02*
G75*
G03X123818500Y-75120500I-1200000J0D01*
G01*
X124009000Y-70421500D02*
G75*
G03X124009000Y-70421500I-1200000J0D01*
G01*
X137979000Y-143002000D02*
G75*
G03X137979000Y-143002000I-1200000J0D01*
G01*
X117722500Y-99695000D02*
G75*
G03X117722500Y-99695000I-1200000J0D01*
G01*
X117722500Y-96520000D02*
G75*
G03X117722500Y-96520000I-1200000J0D01*
G01*
X133675500Y-112030500D02*
X133675500Y-116090500D01*
X135945500Y-112030500D02*
X133675500Y-112030500D01*
X135945500Y-116090500D02*
X135945500Y-112030500D01*
X131461500Y-97020000D02*
X135521500Y-97020000D01*
X131461500Y-94750000D02*
X131461500Y-97020000D01*
X135521500Y-94750000D02*
X131461500Y-94750000D01*
X73375759Y-66172000D02*
X73375759Y-66802000D01*
X73060759Y-66487000D02*
X73690759Y-66487000D01*
X79802000Y-67924000D02*
X79802000Y-68728000D01*
X79762000Y-67693000D02*
X79762000Y-68959000D01*
X79722000Y-67524000D02*
X79722000Y-69128000D01*
X79682000Y-67386000D02*
X79682000Y-69266000D01*
X79642000Y-67267000D02*
X79642000Y-69385000D01*
X79602000Y-67161000D02*
X79602000Y-69491000D01*
X79562000Y-67064000D02*
X79562000Y-69588000D01*
X79522000Y-66976000D02*
X79522000Y-69676000D01*
X79482000Y-66894000D02*
X79482000Y-69758000D01*
X79442000Y-66817000D02*
X79442000Y-69835000D01*
X79402000Y-66745000D02*
X79402000Y-69907000D01*
X79362000Y-66676000D02*
X79362000Y-69976000D01*
X79322000Y-66612000D02*
X79322000Y-70040000D01*
X79282000Y-66550000D02*
X79282000Y-70102000D01*
X79242000Y-66492000D02*
X79242000Y-70160000D01*
X79202000Y-66436000D02*
X79202000Y-70216000D01*
X79162000Y-66382000D02*
X79162000Y-70270000D01*
X79122000Y-66331000D02*
X79122000Y-70321000D01*
X79082000Y-66282000D02*
X79082000Y-70370000D01*
X79042000Y-66234000D02*
X79042000Y-70418000D01*
X79002000Y-66189000D02*
X79002000Y-70463000D01*
X78962000Y-66144000D02*
X78962000Y-70508000D01*
X78922000Y-66102000D02*
X78922000Y-70550000D01*
X78882000Y-66061000D02*
X78882000Y-70591000D01*
X78842000Y-69366000D02*
X78842000Y-70631000D01*
X78842000Y-66021000D02*
X78842000Y-67286000D01*
X78802000Y-69366000D02*
X78802000Y-70669000D01*
X78802000Y-65983000D02*
X78802000Y-67286000D01*
X78762000Y-69366000D02*
X78762000Y-70706000D01*
X78762000Y-65946000D02*
X78762000Y-67286000D01*
X78722000Y-69366000D02*
X78722000Y-70742000D01*
X78722000Y-65910000D02*
X78722000Y-67286000D01*
X78682000Y-69366000D02*
X78682000Y-70776000D01*
X78682000Y-65876000D02*
X78682000Y-67286000D01*
X78642000Y-69366000D02*
X78642000Y-70810000D01*
X78642000Y-65842000D02*
X78642000Y-67286000D01*
X78602000Y-69366000D02*
X78602000Y-70842000D01*
X78602000Y-65810000D02*
X78602000Y-67286000D01*
X78562000Y-69366000D02*
X78562000Y-70874000D01*
X78562000Y-65778000D02*
X78562000Y-67286000D01*
X78522000Y-69366000D02*
X78522000Y-70904000D01*
X78522000Y-65748000D02*
X78522000Y-67286000D01*
X78482000Y-69366000D02*
X78482000Y-70933000D01*
X78482000Y-65719000D02*
X78482000Y-67286000D01*
X78442000Y-69366000D02*
X78442000Y-70962000D01*
X78442000Y-65690000D02*
X78442000Y-67286000D01*
X78402000Y-69366000D02*
X78402000Y-70990000D01*
X78402000Y-65662000D02*
X78402000Y-67286000D01*
X78362000Y-69366000D02*
X78362000Y-71016000D01*
X78362000Y-65636000D02*
X78362000Y-67286000D01*
X78322000Y-69366000D02*
X78322000Y-71042000D01*
X78322000Y-65610000D02*
X78322000Y-67286000D01*
X78282000Y-69366000D02*
X78282000Y-71068000D01*
X78282000Y-65584000D02*
X78282000Y-67286000D01*
X78242000Y-69366000D02*
X78242000Y-71092000D01*
X78242000Y-65560000D02*
X78242000Y-67286000D01*
X78202000Y-69366000D02*
X78202000Y-71116000D01*
X78202000Y-65536000D02*
X78202000Y-67286000D01*
X78162000Y-69366000D02*
X78162000Y-71138000D01*
X78162000Y-65514000D02*
X78162000Y-67286000D01*
X78122000Y-69366000D02*
X78122000Y-71160000D01*
X78122000Y-65492000D02*
X78122000Y-67286000D01*
X78082000Y-69366000D02*
X78082000Y-71182000D01*
X78082000Y-65470000D02*
X78082000Y-67286000D01*
X78042000Y-69366000D02*
X78042000Y-71202000D01*
X78042000Y-65450000D02*
X78042000Y-67286000D01*
X78002000Y-69366000D02*
X78002000Y-71222000D01*
X78002000Y-65430000D02*
X78002000Y-67286000D01*
X77962000Y-69366000D02*
X77962000Y-71242000D01*
X77962000Y-65410000D02*
X77962000Y-67286000D01*
X77922000Y-69366000D02*
X77922000Y-71260000D01*
X77922000Y-65392000D02*
X77922000Y-67286000D01*
X77882000Y-69366000D02*
X77882000Y-71278000D01*
X77882000Y-65374000D02*
X77882000Y-67286000D01*
X77842000Y-69366000D02*
X77842000Y-71296000D01*
X77842000Y-65356000D02*
X77842000Y-67286000D01*
X77802000Y-69366000D02*
X77802000Y-71312000D01*
X77802000Y-65340000D02*
X77802000Y-67286000D01*
X77762000Y-69366000D02*
X77762000Y-71328000D01*
X77762000Y-65324000D02*
X77762000Y-67286000D01*
X77722000Y-69366000D02*
X77722000Y-71344000D01*
X77722000Y-65308000D02*
X77722000Y-67286000D01*
X77682000Y-69366000D02*
X77682000Y-71359000D01*
X77682000Y-65293000D02*
X77682000Y-67286000D01*
X77642000Y-69366000D02*
X77642000Y-71373000D01*
X77642000Y-65279000D02*
X77642000Y-67286000D01*
X77602000Y-69366000D02*
X77602000Y-71387000D01*
X77602000Y-65265000D02*
X77602000Y-67286000D01*
X77562000Y-69366000D02*
X77562000Y-71400000D01*
X77562000Y-65252000D02*
X77562000Y-67286000D01*
X77522000Y-69366000D02*
X77522000Y-71412000D01*
X77522000Y-65240000D02*
X77522000Y-67286000D01*
X77482000Y-69366000D02*
X77482000Y-71424000D01*
X77482000Y-65228000D02*
X77482000Y-67286000D01*
X77442000Y-69366000D02*
X77442000Y-71436000D01*
X77442000Y-65216000D02*
X77442000Y-67286000D01*
X77402000Y-69366000D02*
X77402000Y-71447000D01*
X77402000Y-65205000D02*
X77402000Y-67286000D01*
X77362000Y-69366000D02*
X77362000Y-71457000D01*
X77362000Y-65195000D02*
X77362000Y-67286000D01*
X77322000Y-69366000D02*
X77322000Y-71467000D01*
X77322000Y-65185000D02*
X77322000Y-67286000D01*
X77282000Y-69366000D02*
X77282000Y-71476000D01*
X77282000Y-65176000D02*
X77282000Y-67286000D01*
X77241000Y-69366000D02*
X77241000Y-71485000D01*
X77241000Y-65167000D02*
X77241000Y-67286000D01*
X77201000Y-69366000D02*
X77201000Y-71493000D01*
X77201000Y-65159000D02*
X77201000Y-67286000D01*
X77161000Y-69366000D02*
X77161000Y-71501000D01*
X77161000Y-65151000D02*
X77161000Y-67286000D01*
X77121000Y-69366000D02*
X77121000Y-71508000D01*
X77121000Y-65144000D02*
X77121000Y-67286000D01*
X77081000Y-69366000D02*
X77081000Y-71515000D01*
X77081000Y-65137000D02*
X77081000Y-67286000D01*
X77041000Y-69366000D02*
X77041000Y-71521000D01*
X77041000Y-65131000D02*
X77041000Y-67286000D01*
X77001000Y-69366000D02*
X77001000Y-71527000D01*
X77001000Y-65125000D02*
X77001000Y-67286000D01*
X76961000Y-69366000D02*
X76961000Y-71532000D01*
X76961000Y-65120000D02*
X76961000Y-67286000D01*
X76921000Y-69366000D02*
X76921000Y-71537000D01*
X76921000Y-65115000D02*
X76921000Y-67286000D01*
X76881000Y-69366000D02*
X76881000Y-71541000D01*
X76881000Y-65111000D02*
X76881000Y-67286000D01*
X76841000Y-69366000D02*
X76841000Y-71544000D01*
X76841000Y-65108000D02*
X76841000Y-67286000D01*
X76801000Y-69366000D02*
X76801000Y-71548000D01*
X76801000Y-65104000D02*
X76801000Y-67286000D01*
X76761000Y-65102000D02*
X76761000Y-71550000D01*
X76721000Y-65099000D02*
X76721000Y-71553000D01*
X76681000Y-65098000D02*
X76681000Y-71554000D01*
X76641000Y-65096000D02*
X76641000Y-71556000D01*
X76601000Y-65096000D02*
X76601000Y-71556000D01*
X76561000Y-65096000D02*
X76561000Y-71556000D01*
X79831000Y-68326000D02*
G75*
G03X79831000Y-68326000I-3270000J0D01*
G01*
X111331000Y-138276698D02*
X112131000Y-138276698D01*
X111731000Y-138676698D02*
X111731000Y-137876698D01*
X113513000Y-130186000D02*
X114579000Y-130186000D01*
X113278000Y-130226000D02*
X114814000Y-130226000D01*
X113098000Y-130266000D02*
X114994000Y-130266000D01*
X112948000Y-130306000D02*
X115144000Y-130306000D01*
X112817000Y-130346000D02*
X115275000Y-130346000D01*
X112700000Y-130386000D02*
X115392000Y-130386000D01*
X112593000Y-130426000D02*
X115499000Y-130426000D01*
X112494000Y-130466000D02*
X115598000Y-130466000D01*
X112401000Y-130506000D02*
X115691000Y-130506000D01*
X112315000Y-130546000D02*
X115777000Y-130546000D01*
X112233000Y-130586000D02*
X115859000Y-130586000D01*
X112156000Y-130626000D02*
X115936000Y-130626000D01*
X112082000Y-130666000D02*
X116010000Y-130666000D01*
X112012000Y-130706000D02*
X116080000Y-130706000D01*
X111944000Y-130746000D02*
X116148000Y-130746000D01*
X111880000Y-130786000D02*
X116212000Y-130786000D01*
X111818000Y-130826000D02*
X116274000Y-130826000D01*
X111759000Y-130866000D02*
X116333000Y-130866000D01*
X111701000Y-130906000D02*
X116391000Y-130906000D01*
X111646000Y-130946000D02*
X116446000Y-130946000D01*
X111592000Y-130986000D02*
X116500000Y-130986000D01*
X111541000Y-131026000D02*
X116551000Y-131026000D01*
X111490000Y-131066000D02*
X116602000Y-131066000D01*
X111442000Y-131106000D02*
X116650000Y-131106000D01*
X111395000Y-131146000D02*
X116697000Y-131146000D01*
X111349000Y-131186000D02*
X116743000Y-131186000D01*
X111305000Y-131226000D02*
X116787000Y-131226000D01*
X111262000Y-131266000D02*
X116830000Y-131266000D01*
X111220000Y-131306000D02*
X116872000Y-131306000D01*
X111179000Y-131346000D02*
X116913000Y-131346000D01*
X111139000Y-131386000D02*
X116953000Y-131386000D01*
X111101000Y-131426000D02*
X116991000Y-131426000D01*
X111063000Y-131466000D02*
X117029000Y-131466000D01*
X115086000Y-131506000D02*
X117065000Y-131506000D01*
X111027000Y-131506000D02*
X113006000Y-131506000D01*
X115086000Y-131546000D02*
X117101000Y-131546000D01*
X110991000Y-131546000D02*
X113006000Y-131546000D01*
X115086000Y-131586000D02*
X117136000Y-131586000D01*
X110956000Y-131586000D02*
X113006000Y-131586000D01*
X115086000Y-131626000D02*
X117170000Y-131626000D01*
X110922000Y-131626000D02*
X113006000Y-131626000D01*
X115086000Y-131666000D02*
X117202000Y-131666000D01*
X110890000Y-131666000D02*
X113006000Y-131666000D01*
X115086000Y-131706000D02*
X117235000Y-131706000D01*
X110857000Y-131706000D02*
X113006000Y-131706000D01*
X115086000Y-131746000D02*
X117266000Y-131746000D01*
X110826000Y-131746000D02*
X113006000Y-131746000D01*
X115086000Y-131786000D02*
X117296000Y-131786000D01*
X110796000Y-131786000D02*
X113006000Y-131786000D01*
X115086000Y-131826000D02*
X117326000Y-131826000D01*
X110766000Y-131826000D02*
X113006000Y-131826000D01*
X115086000Y-131866000D02*
X117355000Y-131866000D01*
X110737000Y-131866000D02*
X113006000Y-131866000D01*
X115086000Y-131906000D02*
X117384000Y-131906000D01*
X110708000Y-131906000D02*
X113006000Y-131906000D01*
X115086000Y-131946000D02*
X117411000Y-131946000D01*
X110681000Y-131946000D02*
X113006000Y-131946000D01*
X115086000Y-131986000D02*
X117438000Y-131986000D01*
X110654000Y-131986000D02*
X113006000Y-131986000D01*
X115086000Y-132026000D02*
X117464000Y-132026000D01*
X110628000Y-132026000D02*
X113006000Y-132026000D01*
X115086000Y-132066000D02*
X117490000Y-132066000D01*
X110602000Y-132066000D02*
X113006000Y-132066000D01*
X115086000Y-132106000D02*
X117515000Y-132106000D01*
X110577000Y-132106000D02*
X113006000Y-132106000D01*
X115086000Y-132146000D02*
X117539000Y-132146000D01*
X110553000Y-132146000D02*
X113006000Y-132146000D01*
X115086000Y-132186000D02*
X117563000Y-132186000D01*
X110529000Y-132186000D02*
X113006000Y-132186000D01*
X115086000Y-132226000D02*
X117586000Y-132226000D01*
X110506000Y-132226000D02*
X113006000Y-132226000D01*
X115086000Y-132266000D02*
X117608000Y-132266000D01*
X110484000Y-132266000D02*
X113006000Y-132266000D01*
X115086000Y-132306000D02*
X117630000Y-132306000D01*
X110462000Y-132306000D02*
X113006000Y-132306000D01*
X115086000Y-132346000D02*
X117652000Y-132346000D01*
X110440000Y-132346000D02*
X113006000Y-132346000D01*
X115086000Y-132386000D02*
X117673000Y-132386000D01*
X110419000Y-132386000D02*
X113006000Y-132386000D01*
X115086000Y-132426000D02*
X117693000Y-132426000D01*
X110399000Y-132426000D02*
X113006000Y-132426000D01*
X115086000Y-132466000D02*
X117712000Y-132466000D01*
X110380000Y-132466000D02*
X113006000Y-132466000D01*
X115086000Y-132506000D02*
X117732000Y-132506000D01*
X110360000Y-132506000D02*
X113006000Y-132506000D01*
X115086000Y-132546000D02*
X117750000Y-132546000D01*
X110342000Y-132546000D02*
X113006000Y-132546000D01*
X115086000Y-132586000D02*
X117768000Y-132586000D01*
X110324000Y-132586000D02*
X113006000Y-132586000D01*
X115086000Y-132626000D02*
X117786000Y-132626000D01*
X110306000Y-132626000D02*
X113006000Y-132626000D01*
X115086000Y-132666000D02*
X117803000Y-132666000D01*
X110289000Y-132666000D02*
X113006000Y-132666000D01*
X115086000Y-132706000D02*
X117820000Y-132706000D01*
X110272000Y-132706000D02*
X113006000Y-132706000D01*
X115086000Y-132746000D02*
X117836000Y-132746000D01*
X110256000Y-132746000D02*
X113006000Y-132746000D01*
X115086000Y-132786000D02*
X117851000Y-132786000D01*
X110241000Y-132786000D02*
X113006000Y-132786000D01*
X115086000Y-132826000D02*
X117867000Y-132826000D01*
X110225000Y-132826000D02*
X113006000Y-132826000D01*
X115086000Y-132866000D02*
X117881000Y-132866000D01*
X110211000Y-132866000D02*
X113006000Y-132866000D01*
X115086000Y-132906000D02*
X117896000Y-132906000D01*
X110196000Y-132906000D02*
X113006000Y-132906000D01*
X115086000Y-132946000D02*
X117909000Y-132946000D01*
X110183000Y-132946000D02*
X113006000Y-132946000D01*
X115086000Y-132986000D02*
X117923000Y-132986000D01*
X110169000Y-132986000D02*
X113006000Y-132986000D01*
X115086000Y-133026000D02*
X117935000Y-133026000D01*
X110157000Y-133026000D02*
X113006000Y-133026000D01*
X115086000Y-133066000D02*
X117948000Y-133066000D01*
X110144000Y-133066000D02*
X113006000Y-133066000D01*
X115086000Y-133106000D02*
X117960000Y-133106000D01*
X110132000Y-133106000D02*
X113006000Y-133106000D01*
X115086000Y-133146000D02*
X117971000Y-133146000D01*
X110121000Y-133146000D02*
X113006000Y-133146000D01*
X115086000Y-133186000D02*
X117982000Y-133186000D01*
X110110000Y-133186000D02*
X113006000Y-133186000D01*
X115086000Y-133226000D02*
X117993000Y-133226000D01*
X110099000Y-133226000D02*
X113006000Y-133226000D01*
X115086000Y-133266000D02*
X118003000Y-133266000D01*
X110089000Y-133266000D02*
X113006000Y-133266000D01*
X115086000Y-133306000D02*
X118013000Y-133306000D01*
X110079000Y-133306000D02*
X113006000Y-133306000D01*
X115086000Y-133346000D02*
X118022000Y-133346000D01*
X110070000Y-133346000D02*
X113006000Y-133346000D01*
X115086000Y-133386000D02*
X118031000Y-133386000D01*
X110061000Y-133386000D02*
X113006000Y-133386000D01*
X115086000Y-133426000D02*
X118040000Y-133426000D01*
X110052000Y-133426000D02*
X113006000Y-133426000D01*
X115086000Y-133466000D02*
X118048000Y-133466000D01*
X110044000Y-133466000D02*
X113006000Y-133466000D01*
X115086000Y-133506000D02*
X118056000Y-133506000D01*
X110036000Y-133506000D02*
X113006000Y-133506000D01*
X115086000Y-133546000D02*
X118063000Y-133546000D01*
X110029000Y-133546000D02*
X113006000Y-133546000D01*
X110022000Y-133587000D02*
X118070000Y-133587000D01*
X110016000Y-133627000D02*
X118076000Y-133627000D01*
X110009000Y-133667000D02*
X118083000Y-133667000D01*
X110004000Y-133707000D02*
X118088000Y-133707000D01*
X109998000Y-133747000D02*
X118094000Y-133747000D01*
X109994000Y-133787000D02*
X118098000Y-133787000D01*
X109989000Y-133827000D02*
X118103000Y-133827000D01*
X109985000Y-133867000D02*
X118107000Y-133867000D01*
X109981000Y-133907000D02*
X118111000Y-133907000D01*
X109978000Y-133947000D02*
X118114000Y-133947000D01*
X109975000Y-133987000D02*
X118117000Y-133987000D01*
X109972000Y-134027000D02*
X118120000Y-134027000D01*
X109970000Y-134067000D02*
X118122000Y-134067000D01*
X109969000Y-134107000D02*
X118123000Y-134107000D01*
X109967000Y-134147000D02*
X118125000Y-134147000D01*
X109966000Y-134187000D02*
X118126000Y-134187000D01*
X109966000Y-134227000D02*
X118126000Y-134227000D01*
X109966000Y-134267000D02*
X118126000Y-134267000D01*
X118166000Y-134267000D02*
G75*
G03X118166000Y-134267000I-4120000J0D01*
G01*
X139864198Y-80375500D02*
X139864198Y-79575500D01*
X140264198Y-79975500D02*
X139464198Y-79975500D01*
X131773500Y-78193500D02*
X131773500Y-77127500D01*
X131813500Y-78428500D02*
X131813500Y-76892500D01*
X131853500Y-78608500D02*
X131853500Y-76712500D01*
X131893500Y-78758500D02*
X131893500Y-76562500D01*
X131933500Y-78889500D02*
X131933500Y-76431500D01*
X131973500Y-79006500D02*
X131973500Y-76314500D01*
X132013500Y-79113500D02*
X132013500Y-76207500D01*
X132053500Y-79212500D02*
X132053500Y-76108500D01*
X132093500Y-79305500D02*
X132093500Y-76015500D01*
X132133500Y-79391500D02*
X132133500Y-75929500D01*
X132173500Y-79473500D02*
X132173500Y-75847500D01*
X132213500Y-79550500D02*
X132213500Y-75770500D01*
X132253500Y-79624500D02*
X132253500Y-75696500D01*
X132293500Y-79694500D02*
X132293500Y-75626500D01*
X132333500Y-79762500D02*
X132333500Y-75558500D01*
X132373500Y-79826500D02*
X132373500Y-75494500D01*
X132413500Y-79888500D02*
X132413500Y-75432500D01*
X132453500Y-79947500D02*
X132453500Y-75373500D01*
X132493500Y-80005500D02*
X132493500Y-75315500D01*
X132533500Y-80060500D02*
X132533500Y-75260500D01*
X132573500Y-80114500D02*
X132573500Y-75206500D01*
X132613500Y-80165500D02*
X132613500Y-75155500D01*
X132653500Y-80216500D02*
X132653500Y-75104500D01*
X132693500Y-80264500D02*
X132693500Y-75056500D01*
X132733500Y-80311500D02*
X132733500Y-75009500D01*
X132773500Y-80357500D02*
X132773500Y-74963500D01*
X132813500Y-80401500D02*
X132813500Y-74919500D01*
X132853500Y-80444500D02*
X132853500Y-74876500D01*
X132893500Y-80486500D02*
X132893500Y-74834500D01*
X132933500Y-80527500D02*
X132933500Y-74793500D01*
X132973500Y-80567500D02*
X132973500Y-74753500D01*
X133013500Y-80605500D02*
X133013500Y-74715500D01*
X133053500Y-80643500D02*
X133053500Y-74677500D01*
X133093500Y-76620500D02*
X133093500Y-74641500D01*
X133093500Y-80679500D02*
X133093500Y-78700500D01*
X133133500Y-76620500D02*
X133133500Y-74605500D01*
X133133500Y-80715500D02*
X133133500Y-78700500D01*
X133173500Y-76620500D02*
X133173500Y-74570500D01*
X133173500Y-80750500D02*
X133173500Y-78700500D01*
X133213500Y-76620500D02*
X133213500Y-74536500D01*
X133213500Y-80784500D02*
X133213500Y-78700500D01*
X133253500Y-76620500D02*
X133253500Y-74504500D01*
X133253500Y-80816500D02*
X133253500Y-78700500D01*
X133293500Y-76620500D02*
X133293500Y-74471500D01*
X133293500Y-80849500D02*
X133293500Y-78700500D01*
X133333500Y-76620500D02*
X133333500Y-74440500D01*
X133333500Y-80880500D02*
X133333500Y-78700500D01*
X133373500Y-76620500D02*
X133373500Y-74410500D01*
X133373500Y-80910500D02*
X133373500Y-78700500D01*
X133413500Y-76620500D02*
X133413500Y-74380500D01*
X133413500Y-80940500D02*
X133413500Y-78700500D01*
X133453500Y-76620500D02*
X133453500Y-74351500D01*
X133453500Y-80969500D02*
X133453500Y-78700500D01*
X133493500Y-76620500D02*
X133493500Y-74322500D01*
X133493500Y-80998500D02*
X133493500Y-78700500D01*
X133533500Y-76620500D02*
X133533500Y-74295500D01*
X133533500Y-81025500D02*
X133533500Y-78700500D01*
X133573500Y-76620500D02*
X133573500Y-74268500D01*
X133573500Y-81052500D02*
X133573500Y-78700500D01*
X133613500Y-76620500D02*
X133613500Y-74242500D01*
X133613500Y-81078500D02*
X133613500Y-78700500D01*
X133653500Y-76620500D02*
X133653500Y-74216500D01*
X133653500Y-81104500D02*
X133653500Y-78700500D01*
X133693500Y-76620500D02*
X133693500Y-74191500D01*
X133693500Y-81129500D02*
X133693500Y-78700500D01*
X133733500Y-76620500D02*
X133733500Y-74167500D01*
X133733500Y-81153500D02*
X133733500Y-78700500D01*
X133773500Y-76620500D02*
X133773500Y-74143500D01*
X133773500Y-81177500D02*
X133773500Y-78700500D01*
X133813500Y-76620500D02*
X133813500Y-74120500D01*
X133813500Y-81200500D02*
X133813500Y-78700500D01*
X133853500Y-76620500D02*
X133853500Y-74098500D01*
X133853500Y-81222500D02*
X133853500Y-78700500D01*
X133893500Y-76620500D02*
X133893500Y-74076500D01*
X133893500Y-81244500D02*
X133893500Y-78700500D01*
X133933500Y-76620500D02*
X133933500Y-74054500D01*
X133933500Y-81266500D02*
X133933500Y-78700500D01*
X133973500Y-76620500D02*
X133973500Y-74033500D01*
X133973500Y-81287500D02*
X133973500Y-78700500D01*
X134013500Y-76620500D02*
X134013500Y-74013500D01*
X134013500Y-81307500D02*
X134013500Y-78700500D01*
X134053500Y-76620500D02*
X134053500Y-73994500D01*
X134053500Y-81326500D02*
X134053500Y-78700500D01*
X134093500Y-76620500D02*
X134093500Y-73974500D01*
X134093500Y-81346500D02*
X134093500Y-78700500D01*
X134133500Y-76620500D02*
X134133500Y-73956500D01*
X134133500Y-81364500D02*
X134133500Y-78700500D01*
X134173500Y-76620500D02*
X134173500Y-73938500D01*
X134173500Y-81382500D02*
X134173500Y-78700500D01*
X134213500Y-76620500D02*
X134213500Y-73920500D01*
X134213500Y-81400500D02*
X134213500Y-78700500D01*
X134253500Y-76620500D02*
X134253500Y-73903500D01*
X134253500Y-81417500D02*
X134253500Y-78700500D01*
X134293500Y-76620500D02*
X134293500Y-73886500D01*
X134293500Y-81434500D02*
X134293500Y-78700500D01*
X134333500Y-76620500D02*
X134333500Y-73870500D01*
X134333500Y-81450500D02*
X134333500Y-78700500D01*
X134373500Y-76620500D02*
X134373500Y-73855500D01*
X134373500Y-81465500D02*
X134373500Y-78700500D01*
X134413500Y-76620500D02*
X134413500Y-73839500D01*
X134413500Y-81481500D02*
X134413500Y-78700500D01*
X134453500Y-76620500D02*
X134453500Y-73825500D01*
X134453500Y-81495500D02*
X134453500Y-78700500D01*
X134493500Y-76620500D02*
X134493500Y-73810500D01*
X134493500Y-81510500D02*
X134493500Y-78700500D01*
X134533500Y-76620500D02*
X134533500Y-73797500D01*
X134533500Y-81523500D02*
X134533500Y-78700500D01*
X134573500Y-76620500D02*
X134573500Y-73783500D01*
X134573500Y-81537500D02*
X134573500Y-78700500D01*
X134613500Y-76620500D02*
X134613500Y-73771500D01*
X134613500Y-81549500D02*
X134613500Y-78700500D01*
X134653500Y-76620500D02*
X134653500Y-73758500D01*
X134653500Y-81562500D02*
X134653500Y-78700500D01*
X134693500Y-76620500D02*
X134693500Y-73746500D01*
X134693500Y-81574500D02*
X134693500Y-78700500D01*
X134733500Y-76620500D02*
X134733500Y-73735500D01*
X134733500Y-81585500D02*
X134733500Y-78700500D01*
X134773500Y-76620500D02*
X134773500Y-73724500D01*
X134773500Y-81596500D02*
X134773500Y-78700500D01*
X134813500Y-76620500D02*
X134813500Y-73713500D01*
X134813500Y-81607500D02*
X134813500Y-78700500D01*
X134853500Y-76620500D02*
X134853500Y-73703500D01*
X134853500Y-81617500D02*
X134853500Y-78700500D01*
X134893500Y-76620500D02*
X134893500Y-73693500D01*
X134893500Y-81627500D02*
X134893500Y-78700500D01*
X134933500Y-76620500D02*
X134933500Y-73684500D01*
X134933500Y-81636500D02*
X134933500Y-78700500D01*
X134973500Y-76620500D02*
X134973500Y-73675500D01*
X134973500Y-81645500D02*
X134973500Y-78700500D01*
X135013500Y-76620500D02*
X135013500Y-73666500D01*
X135013500Y-81654500D02*
X135013500Y-78700500D01*
X135053500Y-76620500D02*
X135053500Y-73658500D01*
X135053500Y-81662500D02*
X135053500Y-78700500D01*
X135093500Y-76620500D02*
X135093500Y-73650500D01*
X135093500Y-81670500D02*
X135093500Y-78700500D01*
X135133500Y-76620500D02*
X135133500Y-73643500D01*
X135133500Y-81677500D02*
X135133500Y-78700500D01*
X135174500Y-81684500D02*
X135174500Y-73636500D01*
X135214500Y-81690500D02*
X135214500Y-73630500D01*
X135254500Y-81697500D02*
X135254500Y-73623500D01*
X135294500Y-81702500D02*
X135294500Y-73618500D01*
X135334500Y-81708500D02*
X135334500Y-73612500D01*
X135374500Y-81712500D02*
X135374500Y-73608500D01*
X135414500Y-81717500D02*
X135414500Y-73603500D01*
X135454500Y-81721500D02*
X135454500Y-73599500D01*
X135494500Y-81725500D02*
X135494500Y-73595500D01*
X135534500Y-81728500D02*
X135534500Y-73592500D01*
X135574500Y-81731500D02*
X135574500Y-73589500D01*
X135614500Y-81734500D02*
X135614500Y-73586500D01*
X135654500Y-81736500D02*
X135654500Y-73584500D01*
X135694500Y-81737500D02*
X135694500Y-73583500D01*
X135734500Y-81739500D02*
X135734500Y-73581500D01*
X135774500Y-81740500D02*
X135774500Y-73580500D01*
X135814500Y-81740500D02*
X135814500Y-73580500D01*
X135854500Y-81740500D02*
X135854500Y-73580500D01*
X139974500Y-77660500D02*
G75*
G03X139974500Y-77660500I-4120000J0D01*
G01*
X60519000Y-103254500D02*
X61849000Y-103254500D01*
X60519000Y-104584500D02*
X60519000Y-103254500D01*
X60519000Y-105854500D02*
X63179000Y-105854500D01*
X63179000Y-105854500D02*
X63179000Y-128774500D01*
X60519000Y-105854500D02*
X60519000Y-128774500D01*
X60519000Y-128774500D02*
X63179000Y-128774500D01*
X85195000Y-147926000D02*
X85695000Y-147926000D01*
X85195000Y-147186000D02*
X85195000Y-147926000D01*
X96175000Y-141366000D02*
X96175000Y-147686000D01*
X85435000Y-141366000D02*
X85435000Y-147686000D01*
X85435000Y-147686000D02*
X96175000Y-147686000D01*
X85435000Y-141366000D02*
X96175000Y-141366000D01*
X85435000Y-141826000D02*
X96175000Y-141826000D01*
X85435000Y-147126000D02*
X96175000Y-147126000D01*
X93972748Y-115137000D02*
X94495252Y-115137000D01*
X93972748Y-113717000D02*
X94495252Y-113717000D01*
X93909248Y-111454000D02*
X94431752Y-111454000D01*
X93909248Y-110034000D02*
X94431752Y-110034000D01*
X72114000Y-147926000D02*
X72614000Y-147926000D01*
X72114000Y-147186000D02*
X72114000Y-147926000D01*
X83094000Y-141366000D02*
X83094000Y-147686000D01*
X72354000Y-141366000D02*
X72354000Y-147686000D01*
X72354000Y-147686000D02*
X83094000Y-147686000D01*
X72354000Y-141366000D02*
X83094000Y-141366000D01*
X72354000Y-141826000D02*
X83094000Y-141826000D01*
X72354000Y-147126000D02*
X83094000Y-147126000D01*
X61172000Y-76592000D02*
X62022000Y-76592000D01*
X61172000Y-88762000D02*
X61172000Y-76592000D01*
X62022000Y-88762000D02*
X61172000Y-88762000D01*
X66392000Y-76592000D02*
X66392000Y-78917000D01*
X65542000Y-76592000D02*
X66392000Y-76592000D01*
X66392000Y-86437000D02*
X68782000Y-86437000D01*
X66392000Y-88762000D02*
X66392000Y-86437000D01*
X65542000Y-88762000D02*
X66392000Y-88762000D01*
X74070500Y-76576500D02*
X74920500Y-76576500D01*
X74070500Y-88746500D02*
X74070500Y-76576500D01*
X74920500Y-88746500D02*
X74070500Y-88746500D01*
X79290500Y-76576500D02*
X79290500Y-78901500D01*
X78440500Y-76576500D02*
X79290500Y-76576500D01*
X79290500Y-86421500D02*
X81680500Y-86421500D01*
X79290500Y-88746500D02*
X79290500Y-86421500D01*
X78440500Y-88746500D02*
X79290500Y-88746500D01*
X120249000Y-116532000D02*
X120249000Y-118982000D01*
X123469000Y-118332000D02*
X123469000Y-116532000D01*
X125174500Y-146200500D02*
X127174500Y-146200500D01*
X122854500Y-145820500D02*
X122854500Y-123780500D01*
X122854500Y-123780500D02*
X132294500Y-123780500D01*
X132294500Y-123780500D02*
X132294500Y-145820500D01*
X132294500Y-145820500D02*
X122854500Y-145820500D01*
X148025752Y-121337000D02*
X147503248Y-121337000D01*
X148025752Y-122757000D02*
X147503248Y-122757000D01*
X115454500Y-120085752D02*
X115454500Y-119563248D01*
X114034500Y-120085752D02*
X114034500Y-119563248D01*
X142355000Y-123398000D02*
X142355000Y-123898000D01*
X143095000Y-123398000D02*
X142355000Y-123398000D01*
X146963000Y-130060000D02*
X146567000Y-129665000D01*
X149609000Y-132706000D02*
X149229000Y-132326000D01*
X146681000Y-130311000D02*
X146301000Y-129931000D01*
X149343000Y-132972000D02*
X148947000Y-132577000D01*
X146674000Y-124690000D02*
X146567000Y-124584000D01*
X149609000Y-127626000D02*
X149502000Y-127519000D01*
X146408000Y-124956000D02*
X146301000Y-124850000D01*
X149343000Y-127892000D02*
X149236000Y-127785000D01*
X153915000Y-133918000D02*
X142595000Y-133918000D01*
X153915000Y-123638000D02*
X142595000Y-123638000D01*
X142595000Y-123638000D02*
X142595000Y-133918000D01*
X153915000Y-123638000D02*
X153915000Y-133918000D01*
X151855000Y-123638000D02*
X151855000Y-133918000D01*
X145655000Y-123638000D02*
X145655000Y-133918000D01*
X143155000Y-123638000D02*
X143155000Y-133918000D01*
X150135000Y-131318000D02*
G75*
G03X150135000Y-131318000I-2180000J0D01*
G01*
X150135000Y-126238000D02*
G75*
G03X150135000Y-126238000I-2180000J0D01*
G01*
X117908000Y-117222748D02*
X117908000Y-117745252D01*
X119328000Y-117222748D02*
X119328000Y-117745252D01*
X147098936Y-108288500D02*
X148303064Y-108288500D01*
X147098936Y-106468500D02*
X148303064Y-106468500D01*
X146844936Y-93429500D02*
X148049064Y-93429500D01*
X146844936Y-91609500D02*
X148049064Y-91609500D01*
X118035000Y-110854748D02*
X118035000Y-111377252D01*
X119455000Y-110854748D02*
X119455000Y-111377252D01*
X118162000Y-105783748D02*
X118162000Y-106306252D01*
X119582000Y-105783748D02*
X119582000Y-106306252D01*
X120310000Y-110161500D02*
X120310000Y-112611500D01*
X123530000Y-111961500D02*
X123530000Y-110161500D01*
X120310000Y-105208500D02*
X120310000Y-107658500D01*
X123530000Y-107008500D02*
X123530000Y-105208500D01*
X133105500Y-103854500D02*
X133105500Y-105364500D01*
X129404500Y-103854500D02*
X129404500Y-105364500D01*
X126134500Y-105364500D02*
X136374500Y-105364500D01*
X136374500Y-103854500D02*
X136374500Y-108495500D01*
X126134500Y-103854500D02*
X126134500Y-108495500D01*
X126134500Y-108495500D02*
X136374500Y-108495500D01*
X126134500Y-103854500D02*
X136374500Y-103854500D01*
X142355000Y-109428000D02*
X142355000Y-109928000D01*
X143095000Y-109428000D02*
X142355000Y-109428000D01*
X146963000Y-116090000D02*
X146567000Y-115695000D01*
X149609000Y-118736000D02*
X149229000Y-118356000D01*
X146681000Y-116341000D02*
X146301000Y-115961000D01*
X149343000Y-119002000D02*
X148947000Y-118607000D01*
X146674000Y-110720000D02*
X146567000Y-110614000D01*
X149609000Y-113656000D02*
X149502000Y-113549000D01*
X146408000Y-110986000D02*
X146301000Y-110880000D01*
X149343000Y-113922000D02*
X149236000Y-113815000D01*
X153915000Y-119948000D02*
X142595000Y-119948000D01*
X153915000Y-109668000D02*
X142595000Y-109668000D01*
X142595000Y-109668000D02*
X142595000Y-119948000D01*
X153915000Y-109668000D02*
X153915000Y-119948000D01*
X151855000Y-109668000D02*
X151855000Y-119948000D01*
X145655000Y-109668000D02*
X145655000Y-119948000D01*
X143155000Y-109668000D02*
X143155000Y-119948000D01*
X150135000Y-117348000D02*
G75*
G03X150135000Y-117348000I-2180000J0D01*
G01*
X150135000Y-112268000D02*
G75*
G03X150135000Y-112268000I-2180000J0D01*
G01*
X142355000Y-94632500D02*
X142355000Y-95132500D01*
X143095000Y-94632500D02*
X142355000Y-94632500D01*
X146963000Y-101294500D02*
X146567000Y-100899500D01*
X149609000Y-103940500D02*
X149229000Y-103560500D01*
X146681000Y-101545500D02*
X146301000Y-101165500D01*
X149343000Y-104206500D02*
X148947000Y-103811500D01*
X146674000Y-95924500D02*
X146567000Y-95818500D01*
X149609000Y-98860500D02*
X149502000Y-98753500D01*
X146408000Y-96190500D02*
X146301000Y-96084500D01*
X149343000Y-99126500D02*
X149236000Y-99019500D01*
X153915000Y-105152500D02*
X142595000Y-105152500D01*
X153915000Y-94872500D02*
X142595000Y-94872500D01*
X142595000Y-94872500D02*
X142595000Y-105152500D01*
X153915000Y-94872500D02*
X153915000Y-105152500D01*
X151855000Y-94872500D02*
X151855000Y-105152500D01*
X145655000Y-94872500D02*
X145655000Y-105152500D01*
X143155000Y-94872500D02*
X143155000Y-105152500D01*
X150135000Y-102552500D02*
G75*
G03X150135000Y-102552500I-2180000J0D01*
G01*
X150135000Y-97472500D02*
G75*
G03X150135000Y-97472500I-2180000J0D01*
G01*
X133105500Y-98520500D02*
X133105500Y-100030500D01*
X129404500Y-98520500D02*
X129404500Y-100030500D01*
X126134500Y-100030500D02*
X136374500Y-100030500D01*
X136374500Y-98520500D02*
X136374500Y-103161500D01*
X126134500Y-98520500D02*
X126134500Y-103161500D01*
X126134500Y-103161500D02*
X136374500Y-103161500D01*
X126134500Y-98520500D02*
X136374500Y-98520500D01*
X121983500Y-90975500D02*
X118533500Y-90975500D01*
X121983500Y-90975500D02*
X123933500Y-90975500D01*
X121983500Y-96095500D02*
X120033500Y-96095500D01*
X121983500Y-96095500D02*
X123933500Y-96095500D01*
X122244752Y-97270500D02*
X121722248Y-97270500D01*
X122244752Y-98690500D02*
X121722248Y-98690500D01*
X122244752Y-100445500D02*
X121722248Y-100445500D01*
X122244752Y-101865500D02*
X121722248Y-101865500D01*
X153941500Y-78182500D02*
X152701500Y-78182500D01*
X153941500Y-76942500D02*
X153941500Y-78182500D01*
X142081500Y-77942500D02*
X142081500Y-69322500D01*
X153701500Y-77942500D02*
X153701500Y-69322500D01*
X153701500Y-69322500D02*
X142081500Y-69322500D01*
X153701500Y-77942500D02*
X142081500Y-77942500D01*
X142355000Y-79837000D02*
X142355000Y-80337000D01*
X143095000Y-79837000D02*
X142355000Y-79837000D01*
X146963000Y-86499000D02*
X146567000Y-86104000D01*
X149609000Y-89145000D02*
X149229000Y-88765000D01*
X146681000Y-86750000D02*
X146301000Y-86370000D01*
X149343000Y-89411000D02*
X148947000Y-89016000D01*
X146674000Y-81129000D02*
X146567000Y-81023000D01*
X149609000Y-84065000D02*
X149502000Y-83958000D01*
X146408000Y-81395000D02*
X146301000Y-81289000D01*
X149343000Y-84331000D02*
X149236000Y-84224000D01*
X153915000Y-90357000D02*
X142595000Y-90357000D01*
X153915000Y-80077000D02*
X142595000Y-80077000D01*
X142595000Y-80077000D02*
X142595000Y-90357000D01*
X153915000Y-80077000D02*
X153915000Y-90357000D01*
X151855000Y-80077000D02*
X151855000Y-90357000D01*
X145655000Y-80077000D02*
X145655000Y-90357000D01*
X143155000Y-80077000D02*
X143155000Y-90357000D01*
X150135000Y-87757000D02*
G75*
G03X150135000Y-87757000I-2180000J0D01*
G01*
X150135000Y-82677000D02*
G75*
G03X150135000Y-82677000I-2180000J0D01*
G01*
X144597500Y-63861000D02*
X144597500Y-67921000D01*
X146867500Y-63861000D02*
X144597500Y-63861000D01*
X146867500Y-67921000D02*
X146867500Y-63861000D01*
X106164748Y-76910000D02*
X106687252Y-76910000D01*
X106164748Y-75490000D02*
X106687252Y-75490000D01*
X94495252Y-104954000D02*
X93972748Y-104954000D01*
X94495252Y-106374000D02*
X93972748Y-106374000D01*
X87122000Y-101346000D02*
X87122000Y-93726000D01*
X87017010Y-93726723D02*
G75*
G02X87122000Y-93726000I104990J-7619277D01*
G01*
X83312000Y-93726000D02*
X83417000Y-93726000D01*
X83312000Y-101346000D02*
X83312000Y-93726000D01*
X87122000Y-101346000D02*
X83312000Y-101346000D01*
X87017000Y-93726000D02*
X83417000Y-93726000D01*
X116896000Y-64899000D02*
X116896000Y-66359000D01*
X113736000Y-64899000D02*
X113736000Y-67059000D01*
X113736000Y-64899000D02*
X114666000Y-64899000D01*
X116896000Y-64899000D02*
X115966000Y-64899000D01*
D10*
X92060000Y-81605000D02*
X90760000Y-81605000D01*
X112410000Y-80630000D02*
X111360000Y-80630000D01*
X112410000Y-100980000D02*
X111360000Y-100980000D01*
X92060000Y-100980000D02*
X93110000Y-100980000D01*
X92060000Y-80630000D02*
X93110000Y-80630000D01*
X92060000Y-100980000D02*
X92060000Y-99930000D01*
X112410000Y-100980000D02*
X112410000Y-99930000D01*
X112410000Y-80630000D02*
X112410000Y-81680000D01*
X92060000Y-80630000D02*
X92060000Y-81605000D01*
D14*
X136782000Y-49594000D02*
X136782000Y-49854000D01*
X136782000Y-52134000D02*
X136782000Y-54044000D01*
X136782000Y-54044000D02*
X136272000Y-54044000D01*
X128902000Y-54044000D02*
X128902000Y-52134000D01*
X128902000Y-49854000D02*
X128902000Y-49594000D01*
X128902000Y-54044000D02*
X129412000Y-54044000D01*
D10*
X93385500Y-63339000D02*
X93385500Y-45339000D01*
X106385500Y-63339000D02*
X93385500Y-63339000D01*
X106385500Y-45339000D02*
X106385500Y-63339000D01*
X93385500Y-45339000D02*
X106385500Y-45339000D01*
X93385500Y-49339000D02*
X106385500Y-49339000D01*
D14*
X138029500Y-61382000D02*
X138029500Y-58182000D01*
X135909500Y-58182000D02*
X135909500Y-61382000D01*
X135909500Y-61382000D02*
X138029500Y-61382000D01*
X118024000Y-70275000D02*
X118024000Y-68155000D01*
X114824000Y-70275000D02*
X118024000Y-70275000D01*
X118024000Y-68155000D02*
X114824000Y-68155000D01*
D10*
X115224000Y-74182000D02*
X116424000Y-74182000D01*
X116424000Y-75932000D02*
X115224000Y-75932000D01*
D14*
X115324000Y-73621000D02*
X116324000Y-73621000D01*
X116324000Y-71921000D02*
X115324000Y-71921000D01*
X81065000Y-95004000D02*
X81065000Y-96004000D01*
X82765000Y-96004000D02*
X82765000Y-95004000D01*
X82765000Y-99814000D02*
X82765000Y-98814000D01*
X81065000Y-98814000D02*
X81065000Y-99814000D01*
X111514000Y-105244000D02*
X112514000Y-105244000D01*
X112514000Y-103544000D02*
X111514000Y-103544000D01*
X117944000Y-81970500D02*
X117944000Y-80970500D01*
X116244000Y-80970500D02*
X116244000Y-81970500D01*
X141834500Y-65413000D02*
X141834500Y-66413000D01*
X143534500Y-66413000D02*
X143534500Y-65413000D01*
X107354000Y-65413000D02*
X107354000Y-66413000D01*
X109054000Y-66413000D02*
X109054000Y-65413000D01*
D10*
X110525000Y-68340000D02*
X111725000Y-68340000D01*
X111725000Y-70090000D02*
X110525000Y-70090000D01*
X117090000Y-51678000D02*
X117340000Y-51678000D01*
X117090000Y-61178000D02*
X117090000Y-51678000D01*
X117340000Y-61178000D02*
X117090000Y-61178000D01*
X118840000Y-51678000D02*
X121840000Y-51678000D01*
X123590000Y-61178000D02*
X123340000Y-61178000D01*
X123590000Y-51678000D02*
X123590000Y-61178000D01*
X123340000Y-51678000D02*
X123590000Y-51678000D01*
X121840000Y-61178000D02*
X118840000Y-61178000D01*
X113796000Y-61225000D02*
X113546000Y-61225000D01*
X113796000Y-51725000D02*
X113796000Y-61225000D01*
X113546000Y-51725000D02*
X113796000Y-51725000D01*
X112046000Y-61225000D02*
X109046000Y-61225000D01*
X107296000Y-51725000D02*
X107546000Y-51725000D01*
X107296000Y-61225000D02*
X107296000Y-51725000D01*
X107546000Y-61225000D02*
X107296000Y-61225000D01*
X109046000Y-51725000D02*
X112046000Y-51725000D01*
D14*
X100037000Y-76573000D02*
X100037000Y-75573000D01*
X98337000Y-75573000D02*
X98337000Y-76573000D01*
X115482000Y-88400000D02*
X115482000Y-89400000D01*
X117182000Y-89400000D02*
X117182000Y-88400000D01*
X105910000Y-103925000D02*
X104910000Y-103925000D01*
X104910000Y-105625000D02*
X105910000Y-105625000D01*
X89750000Y-90670000D02*
X89750000Y-89670000D01*
X88050000Y-89670000D02*
X88050000Y-90670000D01*
X89750000Y-97655000D02*
X89750000Y-96655000D01*
X88050000Y-96655000D02*
X88050000Y-97655000D01*
X119769000Y-66890000D02*
X120769000Y-66890000D01*
X120769000Y-65190000D02*
X119769000Y-65190000D01*
X90319000Y-53405000D02*
X87519000Y-53405000D01*
X90319000Y-52005000D02*
X87519000Y-52005000D01*
X90319000Y-53405000D02*
X90319000Y-52005000D01*
X86128000Y-53405000D02*
X83328000Y-53405000D01*
X86128000Y-52005000D02*
X83328000Y-52005000D01*
X86128000Y-53405000D02*
X86128000Y-52005000D01*
X81937000Y-53405000D02*
X79137000Y-53405000D01*
X81937000Y-52005000D02*
X79137000Y-52005000D01*
X81937000Y-53405000D02*
X81937000Y-52005000D01*
X77746000Y-53405000D02*
X74946000Y-53405000D01*
X77746000Y-52005000D02*
X74946000Y-52005000D01*
X77746000Y-53405000D02*
X77746000Y-52005000D01*
D10*
X88279000Y-59528000D02*
X88279000Y-58328000D01*
X90029000Y-58328000D02*
X90029000Y-59528000D01*
X85866000Y-59528000D02*
X85866000Y-58328000D01*
X87616000Y-58328000D02*
X87616000Y-59528000D01*
X83453000Y-59528000D02*
X83453000Y-58328000D01*
X85203000Y-58328000D02*
X85203000Y-59528000D01*
X80913000Y-59528000D02*
X80913000Y-58328000D01*
X82663000Y-58328000D02*
X82663000Y-59528000D01*
D14*
X140307500Y-69005500D02*
X134297500Y-69005500D01*
X138057500Y-62185500D02*
X134297500Y-62185500D01*
X134297500Y-69005500D02*
X134297500Y-67745500D01*
X134297500Y-62185500D02*
X134297500Y-63445500D01*
X126940000Y-90230000D02*
X129600000Y-90230000D01*
X126940000Y-77470000D02*
X126940000Y-90230000D01*
X129600000Y-77470000D02*
X129600000Y-90230000D01*
X126940000Y-77470000D02*
X129600000Y-77470000D01*
X126940000Y-76200000D02*
X126940000Y-74870000D01*
X126940000Y-74870000D02*
X128270000Y-74870000D01*
D10*
X105703904Y-111881380D02*
X106275333Y-111881380D01*
X105989619Y-112881380D02*
X105989619Y-111881380D01*
X106608666Y-112881380D02*
X106608666Y-111881380D01*
X106989619Y-111881380D01*
X107084857Y-111929000D01*
X107132476Y-111976619D01*
X107180095Y-112071857D01*
X107180095Y-112214714D01*
X107132476Y-112309952D01*
X107084857Y-112357571D01*
X106989619Y-112405190D01*
X106608666Y-112405190D01*
X108132476Y-112881380D02*
X107561047Y-112881380D01*
X107846761Y-112881380D02*
X107846761Y-111881380D01*
X107751523Y-112024238D01*
X107656285Y-112119476D01*
X107561047Y-112167095D01*
X108751523Y-111881380D02*
X108846761Y-111881380D01*
X108942000Y-111929000D01*
X108989619Y-111976619D01*
X109037238Y-112071857D01*
X109084857Y-112262333D01*
X109084857Y-112500428D01*
X109037238Y-112690904D01*
X108989619Y-112786142D01*
X108942000Y-112833761D01*
X108846761Y-112881380D01*
X108751523Y-112881380D01*
X108656285Y-112833761D01*
X108608666Y-112786142D01*
X108561047Y-112690904D01*
X108513428Y-112500428D01*
X108513428Y-112262333D01*
X108561047Y-112071857D01*
X108608666Y-111976619D01*
X108656285Y-111929000D01*
X108751523Y-111881380D01*
X109482095Y-107021380D02*
X110053523Y-107021380D01*
X109767809Y-108021380D02*
X109767809Y-107021380D01*
X110386857Y-108021380D02*
X110386857Y-107021380D01*
X110767809Y-107021380D01*
X110863047Y-107069000D01*
X110910666Y-107116619D01*
X110958285Y-107211857D01*
X110958285Y-107354714D01*
X110910666Y-107449952D01*
X110863047Y-107497571D01*
X110767809Y-107545190D01*
X110386857Y-107545190D01*
X111434476Y-108021380D02*
X111624952Y-108021380D01*
X111720190Y-107973761D01*
X111767809Y-107926142D01*
X111863047Y-107783285D01*
X111910666Y-107592809D01*
X111910666Y-107211857D01*
X111863047Y-107116619D01*
X111815428Y-107069000D01*
X111720190Y-107021380D01*
X111529714Y-107021380D01*
X111434476Y-107069000D01*
X111386857Y-107116619D01*
X111339238Y-107211857D01*
X111339238Y-107449952D01*
X111386857Y-107545190D01*
X111434476Y-107592809D01*
X111529714Y-107640428D01*
X111720190Y-107640428D01*
X111815428Y-107592809D01*
X111863047Y-107545190D01*
X111910666Y-107449952D01*
X126627095Y-110484380D02*
X127198523Y-110484380D01*
X126912809Y-111484380D02*
X126912809Y-110484380D01*
X127531857Y-111484380D02*
X127531857Y-110484380D01*
X127912809Y-110484380D01*
X128008047Y-110532000D01*
X128055666Y-110579619D01*
X128103285Y-110674857D01*
X128103285Y-110817714D01*
X128055666Y-110912952D01*
X128008047Y-110960571D01*
X127912809Y-111008190D01*
X127531857Y-111008190D01*
X128674714Y-110912952D02*
X128579476Y-110865333D01*
X128531857Y-110817714D01*
X128484238Y-110722476D01*
X128484238Y-110674857D01*
X128531857Y-110579619D01*
X128579476Y-110532000D01*
X128674714Y-110484380D01*
X128865190Y-110484380D01*
X128960428Y-110532000D01*
X129008047Y-110579619D01*
X129055666Y-110674857D01*
X129055666Y-110722476D01*
X129008047Y-110817714D01*
X128960428Y-110865333D01*
X128865190Y-110912952D01*
X128674714Y-110912952D01*
X128579476Y-110960571D01*
X128531857Y-111008190D01*
X128484238Y-111103428D01*
X128484238Y-111293904D01*
X128531857Y-111389142D01*
X128579476Y-111436761D01*
X128674714Y-111484380D01*
X128865190Y-111484380D01*
X128960428Y-111436761D01*
X129008047Y-111389142D01*
X129055666Y-111293904D01*
X129055666Y-111103428D01*
X129008047Y-111008190D01*
X128960428Y-110960571D01*
X128865190Y-110912952D01*
X125484095Y-56699880D02*
X126055523Y-56699880D01*
X125769809Y-57699880D02*
X125769809Y-56699880D01*
X126388857Y-57699880D02*
X126388857Y-56699880D01*
X126769809Y-56699880D01*
X126865047Y-56747500D01*
X126912666Y-56795119D01*
X126960285Y-56890357D01*
X126960285Y-57033214D01*
X126912666Y-57128452D01*
X126865047Y-57176071D01*
X126769809Y-57223690D01*
X126388857Y-57223690D01*
X127293619Y-56699880D02*
X127960285Y-56699880D01*
X127531714Y-57699880D01*
X149296595Y-63748380D02*
X149868023Y-63748380D01*
X149582309Y-64748380D02*
X149582309Y-63748380D01*
X150201357Y-64748380D02*
X150201357Y-63748380D01*
X150582309Y-63748380D01*
X150677547Y-63796000D01*
X150725166Y-63843619D01*
X150772785Y-63938857D01*
X150772785Y-64081714D01*
X150725166Y-64176952D01*
X150677547Y-64224571D01*
X150582309Y-64272190D01*
X150201357Y-64272190D01*
X151629928Y-63748380D02*
X151439452Y-63748380D01*
X151344214Y-63796000D01*
X151296595Y-63843619D01*
X151201357Y-63986476D01*
X151153738Y-64176952D01*
X151153738Y-64557904D01*
X151201357Y-64653142D01*
X151248976Y-64700761D01*
X151344214Y-64748380D01*
X151534690Y-64748380D01*
X151629928Y-64700761D01*
X151677547Y-64653142D01*
X151725166Y-64557904D01*
X151725166Y-64319809D01*
X151677547Y-64224571D01*
X151629928Y-64176952D01*
X151534690Y-64129333D01*
X151344214Y-64129333D01*
X151248976Y-64176952D01*
X151201357Y-64224571D01*
X151153738Y-64319809D01*
X121356595Y-72574880D02*
X121928023Y-72574880D01*
X121642309Y-73574880D02*
X121642309Y-72574880D01*
X122261357Y-73574880D02*
X122261357Y-72574880D01*
X122642309Y-72574880D01*
X122737547Y-72622500D01*
X122785166Y-72670119D01*
X122832785Y-72765357D01*
X122832785Y-72908214D01*
X122785166Y-73003452D01*
X122737547Y-73051071D01*
X122642309Y-73098690D01*
X122261357Y-73098690D01*
X123737547Y-72574880D02*
X123261357Y-72574880D01*
X123213738Y-73051071D01*
X123261357Y-73003452D01*
X123356595Y-72955833D01*
X123594690Y-72955833D01*
X123689928Y-73003452D01*
X123737547Y-73051071D01*
X123785166Y-73146309D01*
X123785166Y-73384404D01*
X123737547Y-73479642D01*
X123689928Y-73527261D01*
X123594690Y-73574880D01*
X123356595Y-73574880D01*
X123261357Y-73527261D01*
X123213738Y-73479642D01*
X121547095Y-67875880D02*
X122118523Y-67875880D01*
X121832809Y-68875880D02*
X121832809Y-67875880D01*
X122451857Y-68875880D02*
X122451857Y-67875880D01*
X122832809Y-67875880D01*
X122928047Y-67923500D01*
X122975666Y-67971119D01*
X123023285Y-68066357D01*
X123023285Y-68209214D01*
X122975666Y-68304452D01*
X122928047Y-68352071D01*
X122832809Y-68399690D01*
X122451857Y-68399690D01*
X123880428Y-68209214D02*
X123880428Y-68875880D01*
X123642333Y-67828261D02*
X123404238Y-68542547D01*
X124023285Y-68542547D01*
X135517095Y-140456380D02*
X136088523Y-140456380D01*
X135802809Y-141456380D02*
X135802809Y-140456380D01*
X136421857Y-141456380D02*
X136421857Y-140456380D01*
X136802809Y-140456380D01*
X136898047Y-140504000D01*
X136945666Y-140551619D01*
X136993285Y-140646857D01*
X136993285Y-140789714D01*
X136945666Y-140884952D01*
X136898047Y-140932571D01*
X136802809Y-140980190D01*
X136421857Y-140980190D01*
X137326619Y-140456380D02*
X137945666Y-140456380D01*
X137612333Y-140837333D01*
X137755190Y-140837333D01*
X137850428Y-140884952D01*
X137898047Y-140932571D01*
X137945666Y-141027809D01*
X137945666Y-141265904D01*
X137898047Y-141361142D01*
X137850428Y-141408761D01*
X137755190Y-141456380D01*
X137469476Y-141456380D01*
X137374238Y-141408761D01*
X137326619Y-141361142D01*
X115260595Y-101052380D02*
X115832023Y-101052380D01*
X115546309Y-102052380D02*
X115546309Y-101052380D01*
X116165357Y-102052380D02*
X116165357Y-101052380D01*
X116546309Y-101052380D01*
X116641547Y-101100000D01*
X116689166Y-101147619D01*
X116736785Y-101242857D01*
X116736785Y-101385714D01*
X116689166Y-101480952D01*
X116641547Y-101528571D01*
X116546309Y-101576190D01*
X116165357Y-101576190D01*
X117117738Y-101147619D02*
X117165357Y-101100000D01*
X117260595Y-101052380D01*
X117498690Y-101052380D01*
X117593928Y-101100000D01*
X117641547Y-101147619D01*
X117689166Y-101242857D01*
X117689166Y-101338095D01*
X117641547Y-101480952D01*
X117070119Y-102052380D01*
X117689166Y-102052380D01*
X115260595Y-93974380D02*
X115832023Y-93974380D01*
X115546309Y-94974380D02*
X115546309Y-93974380D01*
X116165357Y-94974380D02*
X116165357Y-93974380D01*
X116546309Y-93974380D01*
X116641547Y-94022000D01*
X116689166Y-94069619D01*
X116736785Y-94164857D01*
X116736785Y-94307714D01*
X116689166Y-94402952D01*
X116641547Y-94450571D01*
X116546309Y-94498190D01*
X116165357Y-94498190D01*
X117689166Y-94974380D02*
X117117738Y-94974380D01*
X117403452Y-94974380D02*
X117403452Y-93974380D01*
X117308214Y-94117238D01*
X117212976Y-94212476D01*
X117117738Y-94260095D01*
X137082880Y-115228595D02*
X136082880Y-115228595D01*
X136082880Y-114990500D01*
X136130500Y-114847642D01*
X136225738Y-114752404D01*
X136320976Y-114704785D01*
X136511452Y-114657166D01*
X136654309Y-114657166D01*
X136844785Y-114704785D01*
X136940023Y-114752404D01*
X137035261Y-114847642D01*
X137082880Y-114990500D01*
X137082880Y-115228595D01*
X137082880Y-114180976D02*
X137082880Y-113990500D01*
X137035261Y-113895261D01*
X136987642Y-113847642D01*
X136844785Y-113752404D01*
X136654309Y-113704785D01*
X136273357Y-113704785D01*
X136178119Y-113752404D01*
X136130500Y-113800023D01*
X136082880Y-113895261D01*
X136082880Y-114085738D01*
X136130500Y-114180976D01*
X136178119Y-114228595D01*
X136273357Y-114276214D01*
X136511452Y-114276214D01*
X136606690Y-114228595D01*
X136654309Y-114180976D01*
X136701928Y-114085738D01*
X136701928Y-113895261D01*
X136654309Y-113800023D01*
X136606690Y-113752404D01*
X136511452Y-113704785D01*
X133092904Y-94432380D02*
X133092904Y-93432380D01*
X133331000Y-93432380D01*
X133473857Y-93480000D01*
X133569095Y-93575238D01*
X133616714Y-93670476D01*
X133664333Y-93860952D01*
X133664333Y-94003809D01*
X133616714Y-94194285D01*
X133569095Y-94289523D01*
X133473857Y-94384761D01*
X133331000Y-94432380D01*
X133092904Y-94432380D01*
X134235761Y-93860952D02*
X134140523Y-93813333D01*
X134092904Y-93765714D01*
X134045285Y-93670476D01*
X134045285Y-93622857D01*
X134092904Y-93527619D01*
X134140523Y-93480000D01*
X134235761Y-93432380D01*
X134426238Y-93432380D01*
X134521476Y-93480000D01*
X134569095Y-93527619D01*
X134616714Y-93622857D01*
X134616714Y-93670476D01*
X134569095Y-93765714D01*
X134521476Y-93813333D01*
X134426238Y-93860952D01*
X134235761Y-93860952D01*
X134140523Y-93908571D01*
X134092904Y-93956190D01*
X134045285Y-94051428D01*
X134045285Y-94241904D01*
X134092904Y-94337142D01*
X134140523Y-94384761D01*
X134235761Y-94432380D01*
X134426238Y-94432380D01*
X134521476Y-94384761D01*
X134569095Y-94337142D01*
X134616714Y-94241904D01*
X134616714Y-94051428D01*
X134569095Y-93956190D01*
X134521476Y-93908571D01*
X134426238Y-93860952D01*
X75918142Y-64283142D02*
X75870523Y-64330761D01*
X75727666Y-64378380D01*
X75632428Y-64378380D01*
X75489571Y-64330761D01*
X75394333Y-64235523D01*
X75346714Y-64140285D01*
X75299095Y-63949809D01*
X75299095Y-63806952D01*
X75346714Y-63616476D01*
X75394333Y-63521238D01*
X75489571Y-63426000D01*
X75632428Y-63378380D01*
X75727666Y-63378380D01*
X75870523Y-63426000D01*
X75918142Y-63473619D01*
X76299095Y-63473619D02*
X76346714Y-63426000D01*
X76441952Y-63378380D01*
X76680047Y-63378380D01*
X76775285Y-63426000D01*
X76822904Y-63473619D01*
X76870523Y-63568857D01*
X76870523Y-63664095D01*
X76822904Y-63806952D01*
X76251476Y-64378380D01*
X76870523Y-64378380D01*
X77203857Y-63378380D02*
X77822904Y-63378380D01*
X77489571Y-63759333D01*
X77632428Y-63759333D01*
X77727666Y-63806952D01*
X77775285Y-63854571D01*
X77822904Y-63949809D01*
X77822904Y-64187904D01*
X77775285Y-64283142D01*
X77727666Y-64330761D01*
X77632428Y-64378380D01*
X77346714Y-64378380D01*
X77251476Y-64330761D01*
X77203857Y-64283142D01*
X109153142Y-134909857D02*
X109200761Y-134957476D01*
X109248380Y-135100333D01*
X109248380Y-135195571D01*
X109200761Y-135338428D01*
X109105523Y-135433666D01*
X109010285Y-135481285D01*
X108819809Y-135528904D01*
X108676952Y-135528904D01*
X108486476Y-135481285D01*
X108391238Y-135433666D01*
X108296000Y-135338428D01*
X108248380Y-135195571D01*
X108248380Y-135100333D01*
X108296000Y-134957476D01*
X108343619Y-134909857D01*
X108343619Y-134528904D02*
X108296000Y-134481285D01*
X108248380Y-134386047D01*
X108248380Y-134147952D01*
X108296000Y-134052714D01*
X108343619Y-134005095D01*
X108438857Y-133957476D01*
X108534095Y-133957476D01*
X108676952Y-134005095D01*
X109248380Y-134576523D01*
X109248380Y-133957476D01*
X108343619Y-133576523D02*
X108296000Y-133528904D01*
X108248380Y-133433666D01*
X108248380Y-133195571D01*
X108296000Y-133100333D01*
X108343619Y-133052714D01*
X108438857Y-133005095D01*
X108534095Y-133005095D01*
X108676952Y-133052714D01*
X109248380Y-133624142D01*
X109248380Y-133005095D01*
X135211642Y-83267642D02*
X135164023Y-83315261D01*
X135021166Y-83362880D01*
X134925928Y-83362880D01*
X134783071Y-83315261D01*
X134687833Y-83220023D01*
X134640214Y-83124785D01*
X134592595Y-82934309D01*
X134592595Y-82791452D01*
X134640214Y-82600976D01*
X134687833Y-82505738D01*
X134783071Y-82410500D01*
X134925928Y-82362880D01*
X135021166Y-82362880D01*
X135164023Y-82410500D01*
X135211642Y-82458119D01*
X135592595Y-82458119D02*
X135640214Y-82410500D01*
X135735452Y-82362880D01*
X135973547Y-82362880D01*
X136068785Y-82410500D01*
X136116404Y-82458119D01*
X136164023Y-82553357D01*
X136164023Y-82648595D01*
X136116404Y-82791452D01*
X135544976Y-83362880D01*
X136164023Y-83362880D01*
X137116404Y-83362880D02*
X136544976Y-83362880D01*
X136830690Y-83362880D02*
X136830690Y-82362880D01*
X136735452Y-82505738D01*
X136640214Y-82600976D01*
X136544976Y-82648595D01*
X61039476Y-101706880D02*
X61039476Y-102421166D01*
X60991857Y-102564023D01*
X60896619Y-102659261D01*
X60753761Y-102706880D01*
X60658523Y-102706880D01*
X62039476Y-102706880D02*
X61468047Y-102706880D01*
X61753761Y-102706880D02*
X61753761Y-101706880D01*
X61658523Y-101849738D01*
X61563285Y-101944976D01*
X61468047Y-101992595D01*
X62658523Y-101706880D02*
X62753761Y-101706880D01*
X62849000Y-101754500D01*
X62896619Y-101802119D01*
X62944238Y-101897357D01*
X62991857Y-102087833D01*
X62991857Y-102325928D01*
X62944238Y-102516404D01*
X62896619Y-102611642D01*
X62849000Y-102659261D01*
X62753761Y-102706880D01*
X62658523Y-102706880D01*
X62563285Y-102659261D01*
X62515666Y-102611642D01*
X62468047Y-102516404D01*
X62420428Y-102325928D01*
X62420428Y-102087833D01*
X62468047Y-101897357D01*
X62515666Y-101802119D01*
X62563285Y-101754500D01*
X62658523Y-101706880D01*
X96821666Y-141755880D02*
X96821666Y-142470166D01*
X96774047Y-142613023D01*
X96678809Y-142708261D01*
X96535952Y-142755880D01*
X96440714Y-142755880D01*
X97202619Y-141755880D02*
X97869285Y-141755880D01*
X97440714Y-142755880D01*
X93591142Y-113229380D02*
X93257809Y-112753190D01*
X93019714Y-113229380D02*
X93019714Y-112229380D01*
X93400666Y-112229380D01*
X93495904Y-112277000D01*
X93543523Y-112324619D01*
X93591142Y-112419857D01*
X93591142Y-112562714D01*
X93543523Y-112657952D01*
X93495904Y-112705571D01*
X93400666Y-112753190D01*
X93019714Y-112753190D01*
X94543523Y-113229380D02*
X93972095Y-113229380D01*
X94257809Y-113229380D02*
X94257809Y-112229380D01*
X94162571Y-112372238D01*
X94067333Y-112467476D01*
X93972095Y-112515095D01*
X94924476Y-112324619D02*
X94972095Y-112277000D01*
X95067333Y-112229380D01*
X95305428Y-112229380D01*
X95400666Y-112277000D01*
X95448285Y-112324619D01*
X95495904Y-112419857D01*
X95495904Y-112515095D01*
X95448285Y-112657952D01*
X94876857Y-113229380D01*
X95495904Y-113229380D01*
X93527642Y-109546380D02*
X93194309Y-109070190D01*
X92956214Y-109546380D02*
X92956214Y-108546380D01*
X93337166Y-108546380D01*
X93432404Y-108594000D01*
X93480023Y-108641619D01*
X93527642Y-108736857D01*
X93527642Y-108879714D01*
X93480023Y-108974952D01*
X93432404Y-109022571D01*
X93337166Y-109070190D01*
X92956214Y-109070190D01*
X94480023Y-109546380D02*
X93908595Y-109546380D01*
X94194309Y-109546380D02*
X94194309Y-108546380D01*
X94099071Y-108689238D01*
X94003833Y-108784476D01*
X93908595Y-108832095D01*
X95432404Y-109546380D02*
X94860976Y-109546380D01*
X95146690Y-109546380D02*
X95146690Y-108546380D01*
X95051452Y-108689238D01*
X94956214Y-108784476D01*
X94860976Y-108832095D01*
X83677166Y-141882880D02*
X83677166Y-142597166D01*
X83629547Y-142740023D01*
X83534309Y-142835261D01*
X83391452Y-142882880D01*
X83296214Y-142882880D01*
X84296214Y-142311452D02*
X84200976Y-142263833D01*
X84153357Y-142216214D01*
X84105738Y-142120976D01*
X84105738Y-142073357D01*
X84153357Y-141978119D01*
X84200976Y-141930500D01*
X84296214Y-141882880D01*
X84486690Y-141882880D01*
X84581928Y-141930500D01*
X84629547Y-141978119D01*
X84677166Y-142073357D01*
X84677166Y-142120976D01*
X84629547Y-142216214D01*
X84581928Y-142263833D01*
X84486690Y-142311452D01*
X84296214Y-142311452D01*
X84200976Y-142359071D01*
X84153357Y-142406690D01*
X84105738Y-142501928D01*
X84105738Y-142692404D01*
X84153357Y-142787642D01*
X84200976Y-142835261D01*
X84296214Y-142882880D01*
X84486690Y-142882880D01*
X84581928Y-142835261D01*
X84629547Y-142787642D01*
X84677166Y-142692404D01*
X84677166Y-142501928D01*
X84629547Y-142406690D01*
X84581928Y-142359071D01*
X84486690Y-142311452D01*
X59534380Y-83010333D02*
X60248666Y-83010333D01*
X60391523Y-83057952D01*
X60486761Y-83153190D01*
X60534380Y-83296047D01*
X60534380Y-83391285D01*
X59534380Y-82629380D02*
X59534380Y-82010333D01*
X59915333Y-82343666D01*
X59915333Y-82200809D01*
X59962952Y-82105571D01*
X60010571Y-82057952D01*
X60105809Y-82010333D01*
X60343904Y-82010333D01*
X60439142Y-82057952D01*
X60486761Y-82105571D01*
X60534380Y-82200809D01*
X60534380Y-82486523D01*
X60486761Y-82581761D01*
X60439142Y-82629380D01*
X72432880Y-82994833D02*
X73147166Y-82994833D01*
X73290023Y-83042452D01*
X73385261Y-83137690D01*
X73432880Y-83280547D01*
X73432880Y-83375785D01*
X73432880Y-81994833D02*
X73432880Y-82566261D01*
X73432880Y-82280547D02*
X72432880Y-82280547D01*
X72575738Y-82375785D01*
X72670976Y-82471023D01*
X72718595Y-82566261D01*
X119594380Y-121157904D02*
X120403904Y-121157904D01*
X120499142Y-121110285D01*
X120546761Y-121062666D01*
X120594380Y-120967428D01*
X120594380Y-120776952D01*
X120546761Y-120681714D01*
X120499142Y-120634095D01*
X120403904Y-120586476D01*
X119594380Y-120586476D01*
X120022952Y-119967428D02*
X119975333Y-120062666D01*
X119927714Y-120110285D01*
X119832476Y-120157904D01*
X119784857Y-120157904D01*
X119689619Y-120110285D01*
X119642000Y-120062666D01*
X119594380Y-119967428D01*
X119594380Y-119776952D01*
X119642000Y-119681714D01*
X119689619Y-119634095D01*
X119784857Y-119586476D01*
X119832476Y-119586476D01*
X119927714Y-119634095D01*
X119975333Y-119681714D01*
X120022952Y-119776952D01*
X120022952Y-119967428D01*
X120070571Y-120062666D01*
X120118190Y-120110285D01*
X120213428Y-120157904D01*
X120403904Y-120157904D01*
X120499142Y-120110285D01*
X120546761Y-120062666D01*
X120594380Y-119967428D01*
X120594380Y-119776952D01*
X120546761Y-119681714D01*
X120499142Y-119634095D01*
X120403904Y-119586476D01*
X120213428Y-119586476D01*
X120118190Y-119634095D01*
X120070571Y-119681714D01*
X120022952Y-119776952D01*
X121386880Y-144462404D02*
X122196404Y-144462404D01*
X122291642Y-144414785D01*
X122339261Y-144367166D01*
X122386880Y-144271928D01*
X122386880Y-144081452D01*
X122339261Y-143986214D01*
X122291642Y-143938595D01*
X122196404Y-143890976D01*
X121386880Y-143890976D01*
X121386880Y-143510023D02*
X121386880Y-142843357D01*
X122386880Y-143271928D01*
X144613333Y-122372380D02*
X144280000Y-121896190D01*
X144041904Y-122372380D02*
X144041904Y-121372380D01*
X144422857Y-121372380D01*
X144518095Y-121420000D01*
X144565714Y-121467619D01*
X144613333Y-121562857D01*
X144613333Y-121705714D01*
X144565714Y-121800952D01*
X144518095Y-121848571D01*
X144422857Y-121896190D01*
X144041904Y-121896190D01*
X145470476Y-121372380D02*
X145280000Y-121372380D01*
X145184761Y-121420000D01*
X145137142Y-121467619D01*
X145041904Y-121610476D01*
X144994285Y-121800952D01*
X144994285Y-122181904D01*
X145041904Y-122277142D01*
X145089523Y-122324761D01*
X145184761Y-122372380D01*
X145375238Y-122372380D01*
X145470476Y-122324761D01*
X145518095Y-122277142D01*
X145565714Y-122181904D01*
X145565714Y-121943809D01*
X145518095Y-121848571D01*
X145470476Y-121800952D01*
X145375238Y-121753333D01*
X145184761Y-121753333D01*
X145089523Y-121800952D01*
X145041904Y-121848571D01*
X144994285Y-121943809D01*
X113546880Y-119991166D02*
X113070690Y-120324500D01*
X113546880Y-120562595D02*
X112546880Y-120562595D01*
X112546880Y-120181642D01*
X112594500Y-120086404D01*
X112642119Y-120038785D01*
X112737357Y-119991166D01*
X112880214Y-119991166D01*
X112975452Y-120038785D01*
X113023071Y-120086404D01*
X113070690Y-120181642D01*
X113070690Y-120562595D01*
X112546880Y-119086404D02*
X112546880Y-119562595D01*
X113023071Y-119610214D01*
X112975452Y-119562595D01*
X112927833Y-119467357D01*
X112927833Y-119229261D01*
X112975452Y-119134023D01*
X113023071Y-119086404D01*
X113118309Y-119038785D01*
X113356404Y-119038785D01*
X113451642Y-119086404D01*
X113499261Y-119134023D01*
X113546880Y-119229261D01*
X113546880Y-119467357D01*
X113499261Y-119562595D01*
X113451642Y-119610214D01*
X154367380Y-129111333D02*
X155081666Y-129111333D01*
X155224523Y-129158952D01*
X155319761Y-129254190D01*
X155367380Y-129397047D01*
X155367380Y-129492285D01*
X154367380Y-128206571D02*
X154367380Y-128397047D01*
X154415000Y-128492285D01*
X154462619Y-128539904D01*
X154605476Y-128635142D01*
X154795952Y-128682761D01*
X155176904Y-128682761D01*
X155272142Y-128635142D01*
X155319761Y-128587523D01*
X155367380Y-128492285D01*
X155367380Y-128301809D01*
X155319761Y-128206571D01*
X155272142Y-128158952D01*
X155176904Y-128111333D01*
X154938809Y-128111333D01*
X154843571Y-128158952D01*
X154795952Y-128206571D01*
X154748333Y-128301809D01*
X154748333Y-128492285D01*
X154795952Y-128587523D01*
X154843571Y-128635142D01*
X154938809Y-128682761D01*
X117197142Y-118126857D02*
X117244761Y-118174476D01*
X117292380Y-118317333D01*
X117292380Y-118412571D01*
X117244761Y-118555428D01*
X117149523Y-118650666D01*
X117054285Y-118698285D01*
X116863809Y-118745904D01*
X116720952Y-118745904D01*
X116530476Y-118698285D01*
X116435238Y-118650666D01*
X116340000Y-118555428D01*
X116292380Y-118412571D01*
X116292380Y-118317333D01*
X116340000Y-118174476D01*
X116387619Y-118126857D01*
X116387619Y-117745904D02*
X116340000Y-117698285D01*
X116292380Y-117603047D01*
X116292380Y-117364952D01*
X116340000Y-117269714D01*
X116387619Y-117222095D01*
X116482857Y-117174476D01*
X116578095Y-117174476D01*
X116720952Y-117222095D01*
X117292380Y-117793523D01*
X117292380Y-117174476D01*
X116292380Y-116555428D02*
X116292380Y-116460190D01*
X116340000Y-116364952D01*
X116387619Y-116317333D01*
X116482857Y-116269714D01*
X116673333Y-116222095D01*
X116911428Y-116222095D01*
X117101904Y-116269714D01*
X117197142Y-116317333D01*
X117244761Y-116364952D01*
X117292380Y-116460190D01*
X117292380Y-116555428D01*
X117244761Y-116650666D01*
X117197142Y-116698285D01*
X117101904Y-116745904D01*
X116911428Y-116793523D01*
X116673333Y-116793523D01*
X116482857Y-116745904D01*
X116387619Y-116698285D01*
X116340000Y-116650666D01*
X116292380Y-116555428D01*
X150963333Y-107767380D02*
X150630000Y-107291190D01*
X150391904Y-107767380D02*
X150391904Y-106767380D01*
X150772857Y-106767380D01*
X150868095Y-106815000D01*
X150915714Y-106862619D01*
X150963333Y-106957857D01*
X150963333Y-107100714D01*
X150915714Y-107195952D01*
X150868095Y-107243571D01*
X150772857Y-107291190D01*
X150391904Y-107291190D01*
X151820476Y-107100714D02*
X151820476Y-107767380D01*
X151582380Y-106719761D02*
X151344285Y-107434047D01*
X151963333Y-107434047D01*
X150836333Y-93035380D02*
X150503000Y-92559190D01*
X150264904Y-93035380D02*
X150264904Y-92035380D01*
X150645857Y-92035380D01*
X150741095Y-92083000D01*
X150788714Y-92130619D01*
X150836333Y-92225857D01*
X150836333Y-92368714D01*
X150788714Y-92463952D01*
X150741095Y-92511571D01*
X150645857Y-92559190D01*
X150264904Y-92559190D01*
X151788714Y-93035380D02*
X151217285Y-93035380D01*
X151503000Y-93035380D02*
X151503000Y-92035380D01*
X151407761Y-92178238D01*
X151312523Y-92273476D01*
X151217285Y-92321095D01*
X117514642Y-113672857D02*
X117562261Y-113720476D01*
X117609880Y-113863333D01*
X117609880Y-113958571D01*
X117562261Y-114101428D01*
X117467023Y-114196666D01*
X117371785Y-114244285D01*
X117181309Y-114291904D01*
X117038452Y-114291904D01*
X116847976Y-114244285D01*
X116752738Y-114196666D01*
X116657500Y-114101428D01*
X116609880Y-113958571D01*
X116609880Y-113863333D01*
X116657500Y-113720476D01*
X116705119Y-113672857D01*
X117609880Y-112720476D02*
X117609880Y-113291904D01*
X117609880Y-113006190D02*
X116609880Y-113006190D01*
X116752738Y-113101428D01*
X116847976Y-113196666D01*
X116895595Y-113291904D01*
X117609880Y-112244285D02*
X117609880Y-112053809D01*
X117562261Y-111958571D01*
X117514642Y-111910952D01*
X117371785Y-111815714D01*
X117181309Y-111768095D01*
X116800357Y-111768095D01*
X116705119Y-111815714D01*
X116657500Y-111863333D01*
X116609880Y-111958571D01*
X116609880Y-112149047D01*
X116657500Y-112244285D01*
X116705119Y-112291904D01*
X116800357Y-112339523D01*
X117038452Y-112339523D01*
X117133690Y-112291904D01*
X117181309Y-112244285D01*
X117228928Y-112149047D01*
X117228928Y-111958571D01*
X117181309Y-111863333D01*
X117133690Y-111815714D01*
X117038452Y-111768095D01*
X117578142Y-107132357D02*
X117625761Y-107179976D01*
X117673380Y-107322833D01*
X117673380Y-107418071D01*
X117625761Y-107560928D01*
X117530523Y-107656166D01*
X117435285Y-107703785D01*
X117244809Y-107751404D01*
X117101952Y-107751404D01*
X116911476Y-107703785D01*
X116816238Y-107656166D01*
X116721000Y-107560928D01*
X116673380Y-107418071D01*
X116673380Y-107322833D01*
X116721000Y-107179976D01*
X116768619Y-107132357D01*
X117673380Y-106179976D02*
X117673380Y-106751404D01*
X117673380Y-106465690D02*
X116673380Y-106465690D01*
X116816238Y-106560928D01*
X116911476Y-106656166D01*
X116959095Y-106751404D01*
X117101952Y-105608547D02*
X117054333Y-105703785D01*
X117006714Y-105751404D01*
X116911476Y-105799023D01*
X116863857Y-105799023D01*
X116768619Y-105751404D01*
X116721000Y-105703785D01*
X116673380Y-105608547D01*
X116673380Y-105418071D01*
X116721000Y-105322833D01*
X116768619Y-105275214D01*
X116863857Y-105227595D01*
X116911476Y-105227595D01*
X117006714Y-105275214D01*
X117054333Y-105322833D01*
X117101952Y-105418071D01*
X117101952Y-105608547D01*
X117149571Y-105703785D01*
X117197190Y-105751404D01*
X117292428Y-105799023D01*
X117482904Y-105799023D01*
X117578142Y-105751404D01*
X117625761Y-105703785D01*
X117673380Y-105608547D01*
X117673380Y-105418071D01*
X117625761Y-105322833D01*
X117578142Y-105275214D01*
X117482904Y-105227595D01*
X117292428Y-105227595D01*
X117197190Y-105275214D01*
X117149571Y-105322833D01*
X117101952Y-105418071D01*
X123912380Y-112775904D02*
X124721904Y-112775904D01*
X124817142Y-112728285D01*
X124864761Y-112680666D01*
X124912380Y-112585428D01*
X124912380Y-112394952D01*
X124864761Y-112299714D01*
X124817142Y-112252095D01*
X124721904Y-112204476D01*
X123912380Y-112204476D01*
X123912380Y-111299714D02*
X123912380Y-111490190D01*
X123960000Y-111585428D01*
X124007619Y-111633047D01*
X124150476Y-111728285D01*
X124340952Y-111775904D01*
X124721904Y-111775904D01*
X124817142Y-111728285D01*
X124864761Y-111680666D01*
X124912380Y-111585428D01*
X124912380Y-111394952D01*
X124864761Y-111299714D01*
X124817142Y-111252095D01*
X124721904Y-111204476D01*
X124483809Y-111204476D01*
X124388571Y-111252095D01*
X124340952Y-111299714D01*
X124293333Y-111394952D01*
X124293333Y-111585428D01*
X124340952Y-111680666D01*
X124388571Y-111728285D01*
X124483809Y-111775904D01*
X123785380Y-107632404D02*
X124594904Y-107632404D01*
X124690142Y-107584785D01*
X124737761Y-107537166D01*
X124785380Y-107441928D01*
X124785380Y-107251452D01*
X124737761Y-107156214D01*
X124690142Y-107108595D01*
X124594904Y-107060976D01*
X123785380Y-107060976D01*
X123785380Y-106108595D02*
X123785380Y-106584785D01*
X124261571Y-106632404D01*
X124213952Y-106584785D01*
X124166333Y-106489547D01*
X124166333Y-106251452D01*
X124213952Y-106156214D01*
X124261571Y-106108595D01*
X124356809Y-106060976D01*
X124594904Y-106060976D01*
X124690142Y-106108595D01*
X124737761Y-106156214D01*
X124785380Y-106251452D01*
X124785380Y-106489547D01*
X124737761Y-106584785D01*
X124690142Y-106632404D01*
X131159261Y-103402119D02*
X131064023Y-103354500D01*
X130968785Y-103259261D01*
X130825928Y-103116404D01*
X130730690Y-103068785D01*
X130635452Y-103068785D01*
X130683071Y-103306880D02*
X130587833Y-103259261D01*
X130492595Y-103164023D01*
X130444976Y-102973547D01*
X130444976Y-102640214D01*
X130492595Y-102449738D01*
X130587833Y-102354500D01*
X130683071Y-102306880D01*
X130873547Y-102306880D01*
X130968785Y-102354500D01*
X131064023Y-102449738D01*
X131111642Y-102640214D01*
X131111642Y-102973547D01*
X131064023Y-103164023D01*
X130968785Y-103259261D01*
X130873547Y-103306880D01*
X130683071Y-103306880D01*
X131444976Y-102306880D02*
X132064023Y-102306880D01*
X131730690Y-102687833D01*
X131873547Y-102687833D01*
X131968785Y-102735452D01*
X132016404Y-102783071D01*
X132064023Y-102878309D01*
X132064023Y-103116404D01*
X132016404Y-103211642D01*
X131968785Y-103259261D01*
X131873547Y-103306880D01*
X131587833Y-103306880D01*
X131492595Y-103259261D01*
X131444976Y-103211642D01*
X154367380Y-115141333D02*
X155081666Y-115141333D01*
X155224523Y-115188952D01*
X155319761Y-115284190D01*
X155367380Y-115427047D01*
X155367380Y-115522285D01*
X154367380Y-114188952D02*
X154367380Y-114665142D01*
X154843571Y-114712761D01*
X154795952Y-114665142D01*
X154748333Y-114569904D01*
X154748333Y-114331809D01*
X154795952Y-114236571D01*
X154843571Y-114188952D01*
X154938809Y-114141333D01*
X155176904Y-114141333D01*
X155272142Y-114188952D01*
X155319761Y-114236571D01*
X155367380Y-114331809D01*
X155367380Y-114569904D01*
X155319761Y-114665142D01*
X155272142Y-114712761D01*
X154367380Y-100345833D02*
X155081666Y-100345833D01*
X155224523Y-100393452D01*
X155319761Y-100488690D01*
X155367380Y-100631547D01*
X155367380Y-100726785D01*
X154700714Y-99441071D02*
X155367380Y-99441071D01*
X154319761Y-99679166D02*
X155034047Y-99917261D01*
X155034047Y-99298214D01*
X128174761Y-98210619D02*
X128079523Y-98163000D01*
X127984285Y-98067761D01*
X127841428Y-97924904D01*
X127746190Y-97877285D01*
X127650952Y-97877285D01*
X127698571Y-98115380D02*
X127603333Y-98067761D01*
X127508095Y-97972523D01*
X127460476Y-97782047D01*
X127460476Y-97448714D01*
X127508095Y-97258238D01*
X127603333Y-97163000D01*
X127698571Y-97115380D01*
X127889047Y-97115380D01*
X127984285Y-97163000D01*
X128079523Y-97258238D01*
X128127142Y-97448714D01*
X128127142Y-97782047D01*
X128079523Y-97972523D01*
X127984285Y-98067761D01*
X127889047Y-98115380D01*
X127698571Y-98115380D01*
X128508095Y-97210619D02*
X128555714Y-97163000D01*
X128650952Y-97115380D01*
X128889047Y-97115380D01*
X128984285Y-97163000D01*
X129031904Y-97210619D01*
X129079523Y-97305857D01*
X129079523Y-97401095D01*
X129031904Y-97543952D01*
X128460476Y-98115380D01*
X129079523Y-98115380D01*
X121221595Y-89587880D02*
X121221595Y-90397404D01*
X121269214Y-90492642D01*
X121316833Y-90540261D01*
X121412071Y-90587880D01*
X121602547Y-90587880D01*
X121697785Y-90540261D01*
X121745404Y-90492642D01*
X121793023Y-90397404D01*
X121793023Y-89587880D01*
X122697785Y-89921214D02*
X122697785Y-90587880D01*
X122459690Y-89540261D02*
X122221595Y-90254547D01*
X122840642Y-90254547D01*
X122547142Y-99987642D02*
X122499523Y-100035261D01*
X122356666Y-100082880D01*
X122261428Y-100082880D01*
X122118571Y-100035261D01*
X122023333Y-99940023D01*
X121975714Y-99844785D01*
X121928095Y-99654309D01*
X121928095Y-99511452D01*
X121975714Y-99320976D01*
X122023333Y-99225738D01*
X122118571Y-99130500D01*
X122261428Y-99082880D01*
X122356666Y-99082880D01*
X122499523Y-99130500D01*
X122547142Y-99178119D01*
X123499523Y-100082880D02*
X122928095Y-100082880D01*
X123213809Y-100082880D02*
X123213809Y-99082880D01*
X123118571Y-99225738D01*
X123023333Y-99320976D01*
X122928095Y-99368595D01*
X123832857Y-99082880D02*
X124499523Y-99082880D01*
X124070952Y-100082880D01*
X121340642Y-103162642D02*
X121293023Y-103210261D01*
X121150166Y-103257880D01*
X121054928Y-103257880D01*
X120912071Y-103210261D01*
X120816833Y-103115023D01*
X120769214Y-103019785D01*
X120721595Y-102829309D01*
X120721595Y-102686452D01*
X120769214Y-102495976D01*
X120816833Y-102400738D01*
X120912071Y-102305500D01*
X121054928Y-102257880D01*
X121150166Y-102257880D01*
X121293023Y-102305500D01*
X121340642Y-102353119D01*
X122293023Y-103257880D02*
X121721595Y-103257880D01*
X122007309Y-103257880D02*
X122007309Y-102257880D01*
X121912071Y-102400738D01*
X121816833Y-102495976D01*
X121721595Y-102543595D01*
X123150166Y-102257880D02*
X122959690Y-102257880D01*
X122864452Y-102305500D01*
X122816833Y-102353119D01*
X122721595Y-102495976D01*
X122673976Y-102686452D01*
X122673976Y-103067404D01*
X122721595Y-103162642D01*
X122769214Y-103210261D01*
X122864452Y-103257880D01*
X123054928Y-103257880D01*
X123150166Y-103210261D01*
X123197785Y-103162642D01*
X123245404Y-103067404D01*
X123245404Y-102829309D01*
X123197785Y-102734071D01*
X123150166Y-102686452D01*
X123054928Y-102638833D01*
X122864452Y-102638833D01*
X122769214Y-102686452D01*
X122721595Y-102734071D01*
X122673976Y-102829309D01*
X147129595Y-78394880D02*
X147129595Y-79204404D01*
X147177214Y-79299642D01*
X147224833Y-79347261D01*
X147320071Y-79394880D01*
X147510547Y-79394880D01*
X147605785Y-79347261D01*
X147653404Y-79299642D01*
X147701023Y-79204404D01*
X147701023Y-78394880D01*
X148081976Y-78394880D02*
X148701023Y-78394880D01*
X148367690Y-78775833D01*
X148510547Y-78775833D01*
X148605785Y-78823452D01*
X148653404Y-78871071D01*
X148701023Y-78966309D01*
X148701023Y-79204404D01*
X148653404Y-79299642D01*
X148605785Y-79347261D01*
X148510547Y-79394880D01*
X148224833Y-79394880D01*
X148129595Y-79347261D01*
X148081976Y-79299642D01*
X142898880Y-91836833D02*
X143613166Y-91836833D01*
X143756023Y-91884452D01*
X143851261Y-91979690D01*
X143898880Y-92122547D01*
X143898880Y-92217785D01*
X142994119Y-91408261D02*
X142946500Y-91360642D01*
X142898880Y-91265404D01*
X142898880Y-91027309D01*
X142946500Y-90932071D01*
X142994119Y-90884452D01*
X143089357Y-90836833D01*
X143184595Y-90836833D01*
X143327452Y-90884452D01*
X143898880Y-91455880D01*
X143898880Y-90836833D01*
X148004880Y-67059095D02*
X147004880Y-67059095D01*
X147004880Y-66821000D01*
X147052500Y-66678142D01*
X147147738Y-66582904D01*
X147242976Y-66535285D01*
X147433452Y-66487666D01*
X147576309Y-66487666D01*
X147766785Y-66535285D01*
X147862023Y-66582904D01*
X147957261Y-66678142D01*
X148004880Y-66821000D01*
X148004880Y-67059095D01*
X147004880Y-66154333D02*
X147004880Y-65487666D01*
X148004880Y-65916238D01*
X62436476Y-134911380D02*
X62436476Y-133911380D01*
X62769809Y-134625666D01*
X63103142Y-133911380D01*
X63103142Y-134911380D01*
X64055523Y-133911380D02*
X63579333Y-133911380D01*
X63531714Y-134387571D01*
X63579333Y-134339952D01*
X63674571Y-134292333D01*
X63912666Y-134292333D01*
X64007904Y-134339952D01*
X64055523Y-134387571D01*
X64103142Y-134482809D01*
X64103142Y-134720904D01*
X64055523Y-134816142D01*
X64007904Y-134863761D01*
X63912666Y-134911380D01*
X63674571Y-134911380D01*
X63579333Y-134863761D01*
X63531714Y-134816142D01*
X147018476Y-134911380D02*
X147018476Y-133911380D01*
X147351809Y-134625666D01*
X147685142Y-133911380D01*
X147685142Y-134911380D01*
X148589904Y-134244714D02*
X148589904Y-134911380D01*
X148351809Y-133863761D02*
X148113714Y-134578047D01*
X148732761Y-134578047D01*
X147018476Y-49694380D02*
X147018476Y-48694380D01*
X147351809Y-49408666D01*
X147685142Y-48694380D01*
X147685142Y-49694380D01*
X148066095Y-48694380D02*
X148685142Y-48694380D01*
X148351809Y-49075333D01*
X148494666Y-49075333D01*
X148589904Y-49122952D01*
X148637523Y-49170571D01*
X148685142Y-49265809D01*
X148685142Y-49503904D01*
X148637523Y-49599142D01*
X148589904Y-49646761D01*
X148494666Y-49694380D01*
X148208952Y-49694380D01*
X148113714Y-49646761D01*
X148066095Y-49599142D01*
X62944476Y-49694380D02*
X62944476Y-48694380D01*
X63277809Y-49408666D01*
X63611142Y-48694380D01*
X63611142Y-49694380D01*
X64039714Y-48789619D02*
X64087333Y-48742000D01*
X64182571Y-48694380D01*
X64420666Y-48694380D01*
X64515904Y-48742000D01*
X64563523Y-48789619D01*
X64611142Y-48884857D01*
X64611142Y-48980095D01*
X64563523Y-49122952D01*
X63992095Y-49694380D01*
X64611142Y-49694380D01*
X105783142Y-74907142D02*
X105735523Y-74954761D01*
X105592666Y-75002380D01*
X105497428Y-75002380D01*
X105354571Y-74954761D01*
X105259333Y-74859523D01*
X105211714Y-74764285D01*
X105164095Y-74573809D01*
X105164095Y-74430952D01*
X105211714Y-74240476D01*
X105259333Y-74145238D01*
X105354571Y-74050000D01*
X105497428Y-74002380D01*
X105592666Y-74002380D01*
X105735523Y-74050000D01*
X105783142Y-74097619D01*
X106735523Y-75002380D02*
X106164095Y-75002380D01*
X106449809Y-75002380D02*
X106449809Y-74002380D01*
X106354571Y-74145238D01*
X106259333Y-74240476D01*
X106164095Y-74288095D01*
X107592666Y-74335714D02*
X107592666Y-75002380D01*
X107354571Y-73954761D02*
X107116476Y-74669047D01*
X107735523Y-74669047D01*
X93591142Y-107671142D02*
X93543523Y-107718761D01*
X93400666Y-107766380D01*
X93305428Y-107766380D01*
X93162571Y-107718761D01*
X93067333Y-107623523D01*
X93019714Y-107528285D01*
X92972095Y-107337809D01*
X92972095Y-107194952D01*
X93019714Y-107004476D01*
X93067333Y-106909238D01*
X93162571Y-106814000D01*
X93305428Y-106766380D01*
X93400666Y-106766380D01*
X93543523Y-106814000D01*
X93591142Y-106861619D01*
X94543523Y-107766380D02*
X93972095Y-107766380D01*
X94257809Y-107766380D02*
X94257809Y-106766380D01*
X94162571Y-106909238D01*
X94067333Y-107004476D01*
X93972095Y-107052095D01*
X95448285Y-106766380D02*
X94972095Y-106766380D01*
X94924476Y-107242571D01*
X94972095Y-107194952D01*
X95067333Y-107147333D01*
X95305428Y-107147333D01*
X95400666Y-107194952D01*
X95448285Y-107242571D01*
X95495904Y-107337809D01*
X95495904Y-107575904D01*
X95448285Y-107671142D01*
X95400666Y-107718761D01*
X95305428Y-107766380D01*
X95067333Y-107766380D01*
X94972095Y-107718761D01*
X94924476Y-107671142D01*
X85193190Y-102965190D02*
X85669380Y-102965190D01*
X84669380Y-103298523D02*
X85193190Y-102965190D01*
X84669380Y-102631857D01*
X85669380Y-101774714D02*
X85669380Y-102346142D01*
X85669380Y-102060428D02*
X84669380Y-102060428D01*
X84812238Y-102155666D01*
X84907476Y-102250904D01*
X84955095Y-102346142D01*
X116871761Y-64555619D02*
X116776523Y-64508000D01*
X116681285Y-64412761D01*
X116538428Y-64269904D01*
X116443190Y-64222285D01*
X116347952Y-64222285D01*
X116395571Y-64460380D02*
X116300333Y-64412761D01*
X116205095Y-64317523D01*
X116157476Y-64127047D01*
X116157476Y-63793714D01*
X116205095Y-63603238D01*
X116300333Y-63508000D01*
X116395571Y-63460380D01*
X116586047Y-63460380D01*
X116681285Y-63508000D01*
X116776523Y-63603238D01*
X116824142Y-63793714D01*
X116824142Y-64127047D01*
X116776523Y-64317523D01*
X116681285Y-64412761D01*
X116586047Y-64460380D01*
X116395571Y-64460380D01*
X117776523Y-64460380D02*
X117205095Y-64460380D01*
X117490809Y-64460380D02*
X117490809Y-63460380D01*
X117395571Y-63603238D01*
X117300333Y-63698476D01*
X117205095Y-63746095D01*
X112268095Y-79208380D02*
X112268095Y-80017904D01*
X112315714Y-80113142D01*
X112363333Y-80160761D01*
X112458571Y-80208380D01*
X112649047Y-80208380D01*
X112744285Y-80160761D01*
X112791904Y-80113142D01*
X112839523Y-80017904D01*
X112839523Y-79208380D01*
X113268095Y-79303619D02*
X113315714Y-79256000D01*
X113410952Y-79208380D01*
X113649047Y-79208380D01*
X113744285Y-79256000D01*
X113791904Y-79303619D01*
X113839523Y-79398857D01*
X113839523Y-79494095D01*
X113791904Y-79636952D01*
X113220476Y-80208380D01*
X113839523Y-80208380D01*
X127454380Y-53132095D02*
X126454380Y-53132095D01*
X126454380Y-52751142D01*
X126502000Y-52655904D01*
X126549619Y-52608285D01*
X126644857Y-52560666D01*
X126787714Y-52560666D01*
X126882952Y-52608285D01*
X126930571Y-52655904D01*
X126978190Y-52751142D01*
X126978190Y-53132095D01*
X127454380Y-51608285D02*
X127454380Y-52179714D01*
X127454380Y-51894000D02*
X126454380Y-51894000D01*
X126597238Y-51989238D01*
X126692476Y-52084476D01*
X126740095Y-52179714D01*
X93043476Y-64587380D02*
X93043476Y-63587380D01*
X93376809Y-64301666D01*
X93710142Y-63587380D01*
X93710142Y-64587380D01*
X94710142Y-64587380D02*
X94138714Y-64587380D01*
X94424428Y-64587380D02*
X94424428Y-63587380D01*
X94329190Y-63730238D01*
X94233952Y-63825476D01*
X94138714Y-63873095D01*
X135621880Y-59920095D02*
X134621880Y-59920095D01*
X134621880Y-59682000D01*
X134669500Y-59539142D01*
X134764738Y-59443904D01*
X134859976Y-59396285D01*
X135050452Y-59348666D01*
X135193309Y-59348666D01*
X135383785Y-59396285D01*
X135479023Y-59443904D01*
X135574261Y-59539142D01*
X135621880Y-59682000D01*
X135621880Y-59920095D01*
X134717119Y-58967714D02*
X134669500Y-58920095D01*
X134621880Y-58824857D01*
X134621880Y-58586761D01*
X134669500Y-58491523D01*
X134717119Y-58443904D01*
X134812357Y-58396285D01*
X134907595Y-58396285D01*
X135050452Y-58443904D01*
X135621880Y-59015333D01*
X135621880Y-58396285D01*
X115085904Y-71445380D02*
X115085904Y-70445380D01*
X115324000Y-70445380D01*
X115466857Y-70493000D01*
X115562095Y-70588238D01*
X115609714Y-70683476D01*
X115657333Y-70873952D01*
X115657333Y-71016809D01*
X115609714Y-71207285D01*
X115562095Y-71302523D01*
X115466857Y-71397761D01*
X115324000Y-71445380D01*
X115085904Y-71445380D01*
X116609714Y-71445380D02*
X116038285Y-71445380D01*
X116324000Y-71445380D02*
X116324000Y-70445380D01*
X116228761Y-70588238D01*
X116133523Y-70683476D01*
X116038285Y-70731095D01*
X118324333Y-75382380D02*
X117991000Y-74906190D01*
X117752904Y-75382380D02*
X117752904Y-74382380D01*
X118133857Y-74382380D01*
X118229095Y-74430000D01*
X118276714Y-74477619D01*
X118324333Y-74572857D01*
X118324333Y-74715714D01*
X118276714Y-74810952D01*
X118229095Y-74858571D01*
X118133857Y-74906190D01*
X117752904Y-74906190D01*
X118657666Y-74382380D02*
X119276714Y-74382380D01*
X118943380Y-74763333D01*
X119086238Y-74763333D01*
X119181476Y-74810952D01*
X119229095Y-74858571D01*
X119276714Y-74953809D01*
X119276714Y-75191904D01*
X119229095Y-75287142D01*
X119181476Y-75334761D01*
X119086238Y-75382380D01*
X118800523Y-75382380D01*
X118705285Y-75334761D01*
X118657666Y-75287142D01*
X118324333Y-73128142D02*
X118276714Y-73175761D01*
X118133857Y-73223380D01*
X118038619Y-73223380D01*
X117895761Y-73175761D01*
X117800523Y-73080523D01*
X117752904Y-72985285D01*
X117705285Y-72794809D01*
X117705285Y-72651952D01*
X117752904Y-72461476D01*
X117800523Y-72366238D01*
X117895761Y-72271000D01*
X118038619Y-72223380D01*
X118133857Y-72223380D01*
X118276714Y-72271000D01*
X118324333Y-72318619D01*
X119276714Y-73223380D02*
X118705285Y-73223380D01*
X118991000Y-73223380D02*
X118991000Y-72223380D01*
X118895761Y-72366238D01*
X118800523Y-72461476D01*
X118705285Y-72509095D01*
X80595742Y-95924666D02*
X80643361Y-95972285D01*
X80690980Y-96115142D01*
X80690980Y-96210380D01*
X80643361Y-96353238D01*
X80548123Y-96448476D01*
X80452885Y-96496095D01*
X80262409Y-96543714D01*
X80119552Y-96543714D01*
X79929076Y-96496095D01*
X79833838Y-96448476D01*
X79738600Y-96353238D01*
X79690980Y-96210380D01*
X79690980Y-96115142D01*
X79738600Y-95972285D01*
X79786219Y-95924666D01*
X79786219Y-95543714D02*
X79738600Y-95496095D01*
X79690980Y-95400857D01*
X79690980Y-95162761D01*
X79738600Y-95067523D01*
X79786219Y-95019904D01*
X79881457Y-94972285D01*
X79976695Y-94972285D01*
X80119552Y-95019904D01*
X80690980Y-95591333D01*
X80690980Y-94972285D01*
X80621142Y-99480666D02*
X80668761Y-99528285D01*
X80716380Y-99671142D01*
X80716380Y-99766380D01*
X80668761Y-99909238D01*
X80573523Y-100004476D01*
X80478285Y-100052095D01*
X80287809Y-100099714D01*
X80144952Y-100099714D01*
X79954476Y-100052095D01*
X79859238Y-100004476D01*
X79764000Y-99909238D01*
X79716380Y-99766380D01*
X79716380Y-99671142D01*
X79764000Y-99528285D01*
X79811619Y-99480666D01*
X79716380Y-99147333D02*
X79716380Y-98528285D01*
X80097333Y-98861619D01*
X80097333Y-98718761D01*
X80144952Y-98623523D01*
X80192571Y-98575904D01*
X80287809Y-98528285D01*
X80525904Y-98528285D01*
X80621142Y-98575904D01*
X80668761Y-98623523D01*
X80716380Y-98718761D01*
X80716380Y-99004476D01*
X80668761Y-99099714D01*
X80621142Y-99147333D01*
X114514333Y-104878142D02*
X114466714Y-104925761D01*
X114323857Y-104973380D01*
X114228619Y-104973380D01*
X114085761Y-104925761D01*
X113990523Y-104830523D01*
X113942904Y-104735285D01*
X113895285Y-104544809D01*
X113895285Y-104401952D01*
X113942904Y-104211476D01*
X113990523Y-104116238D01*
X114085761Y-104021000D01*
X114228619Y-103973380D01*
X114323857Y-103973380D01*
X114466714Y-104021000D01*
X114514333Y-104068619D01*
X115371476Y-104306714D02*
X115371476Y-104973380D01*
X115133380Y-103925761D02*
X114895285Y-104640047D01*
X115514333Y-104640047D01*
X119102142Y-81256166D02*
X119149761Y-81303785D01*
X119197380Y-81446642D01*
X119197380Y-81541880D01*
X119149761Y-81684738D01*
X119054523Y-81779976D01*
X118959285Y-81827595D01*
X118768809Y-81875214D01*
X118625952Y-81875214D01*
X118435476Y-81827595D01*
X118340238Y-81779976D01*
X118245000Y-81684738D01*
X118197380Y-81541880D01*
X118197380Y-81446642D01*
X118245000Y-81303785D01*
X118292619Y-81256166D01*
X118197380Y-80351404D02*
X118197380Y-80827595D01*
X118673571Y-80875214D01*
X118625952Y-80827595D01*
X118578333Y-80732357D01*
X118578333Y-80494261D01*
X118625952Y-80399023D01*
X118673571Y-80351404D01*
X118768809Y-80303785D01*
X119006904Y-80303785D01*
X119102142Y-80351404D01*
X119149761Y-80399023D01*
X119197380Y-80494261D01*
X119197380Y-80732357D01*
X119149761Y-80827595D01*
X119102142Y-80875214D01*
X141136642Y-64809666D02*
X141184261Y-64857285D01*
X141231880Y-65000142D01*
X141231880Y-65095380D01*
X141184261Y-65238238D01*
X141089023Y-65333476D01*
X140993785Y-65381095D01*
X140803309Y-65428714D01*
X140660452Y-65428714D01*
X140469976Y-65381095D01*
X140374738Y-65333476D01*
X140279500Y-65238238D01*
X140231880Y-65095380D01*
X140231880Y-65000142D01*
X140279500Y-64857285D01*
X140327119Y-64809666D01*
X140231880Y-63952523D02*
X140231880Y-64143000D01*
X140279500Y-64238238D01*
X140327119Y-64285857D01*
X140469976Y-64381095D01*
X140660452Y-64428714D01*
X141041404Y-64428714D01*
X141136642Y-64381095D01*
X141184261Y-64333476D01*
X141231880Y-64238238D01*
X141231880Y-64047761D01*
X141184261Y-63952523D01*
X141136642Y-63904904D01*
X141041404Y-63857285D01*
X140803309Y-63857285D01*
X140708071Y-63904904D01*
X140660452Y-63952523D01*
X140612833Y-64047761D01*
X140612833Y-64238238D01*
X140660452Y-64333476D01*
X140708071Y-64381095D01*
X140803309Y-64428714D01*
X110339142Y-66079666D02*
X110386761Y-66127285D01*
X110434380Y-66270142D01*
X110434380Y-66365380D01*
X110386761Y-66508238D01*
X110291523Y-66603476D01*
X110196285Y-66651095D01*
X110005809Y-66698714D01*
X109862952Y-66698714D01*
X109672476Y-66651095D01*
X109577238Y-66603476D01*
X109482000Y-66508238D01*
X109434380Y-66365380D01*
X109434380Y-66270142D01*
X109482000Y-66127285D01*
X109529619Y-66079666D01*
X109434380Y-65746333D02*
X109434380Y-65079666D01*
X110434380Y-65508238D01*
X110831333Y-71318380D02*
X110498000Y-70842190D01*
X110259904Y-71318380D02*
X110259904Y-70318380D01*
X110640857Y-70318380D01*
X110736095Y-70366000D01*
X110783714Y-70413619D01*
X110831333Y-70508857D01*
X110831333Y-70651714D01*
X110783714Y-70746952D01*
X110736095Y-70794571D01*
X110640857Y-70842190D01*
X110259904Y-70842190D01*
X111212285Y-70413619D02*
X111259904Y-70366000D01*
X111355142Y-70318380D01*
X111593238Y-70318380D01*
X111688476Y-70366000D01*
X111736095Y-70413619D01*
X111783714Y-70508857D01*
X111783714Y-70604095D01*
X111736095Y-70746952D01*
X111164666Y-71318380D01*
X111783714Y-71318380D01*
X119062666Y-62507761D02*
X119205523Y-62555380D01*
X119443619Y-62555380D01*
X119538857Y-62507761D01*
X119586476Y-62460142D01*
X119634095Y-62364904D01*
X119634095Y-62269666D01*
X119586476Y-62174428D01*
X119538857Y-62126809D01*
X119443619Y-62079190D01*
X119253142Y-62031571D01*
X119157904Y-61983952D01*
X119110285Y-61936333D01*
X119062666Y-61841095D01*
X119062666Y-61745857D01*
X119110285Y-61650619D01*
X119157904Y-61603000D01*
X119253142Y-61555380D01*
X119491238Y-61555380D01*
X119634095Y-61603000D01*
X119967428Y-61555380D02*
X120205523Y-62555380D01*
X120396000Y-61841095D01*
X120586476Y-62555380D01*
X120824571Y-61555380D01*
X121729333Y-62555380D02*
X121157904Y-62555380D01*
X121443619Y-62555380D02*
X121443619Y-61555380D01*
X121348380Y-61698238D01*
X121253142Y-61793476D01*
X121157904Y-61841095D01*
X109156666Y-62380761D02*
X109299523Y-62428380D01*
X109537619Y-62428380D01*
X109632857Y-62380761D01*
X109680476Y-62333142D01*
X109728095Y-62237904D01*
X109728095Y-62142666D01*
X109680476Y-62047428D01*
X109632857Y-61999809D01*
X109537619Y-61952190D01*
X109347142Y-61904571D01*
X109251904Y-61856952D01*
X109204285Y-61809333D01*
X109156666Y-61714095D01*
X109156666Y-61618857D01*
X109204285Y-61523619D01*
X109251904Y-61476000D01*
X109347142Y-61428380D01*
X109585238Y-61428380D01*
X109728095Y-61476000D01*
X110061428Y-61428380D02*
X110299523Y-62428380D01*
X110490000Y-61714095D01*
X110680476Y-62428380D01*
X110918571Y-61428380D01*
X111251904Y-61523619D02*
X111299523Y-61476000D01*
X111394761Y-61428380D01*
X111632857Y-61428380D01*
X111728095Y-61476000D01*
X111775714Y-61523619D01*
X111823333Y-61618857D01*
X111823333Y-61714095D01*
X111775714Y-61856952D01*
X111204285Y-62428380D01*
X111823333Y-62428380D01*
X101322142Y-77255666D02*
X101369761Y-77303285D01*
X101417380Y-77446142D01*
X101417380Y-77541380D01*
X101369761Y-77684238D01*
X101274523Y-77779476D01*
X101179285Y-77827095D01*
X100988809Y-77874714D01*
X100845952Y-77874714D01*
X100655476Y-77827095D01*
X100560238Y-77779476D01*
X100465000Y-77684238D01*
X100417380Y-77541380D01*
X100417380Y-77446142D01*
X100465000Y-77303285D01*
X100512619Y-77255666D01*
X100845952Y-76684238D02*
X100798333Y-76779476D01*
X100750714Y-76827095D01*
X100655476Y-76874714D01*
X100607857Y-76874714D01*
X100512619Y-76827095D01*
X100465000Y-76779476D01*
X100417380Y-76684238D01*
X100417380Y-76493761D01*
X100465000Y-76398523D01*
X100512619Y-76350904D01*
X100607857Y-76303285D01*
X100655476Y-76303285D01*
X100750714Y-76350904D01*
X100798333Y-76398523D01*
X100845952Y-76493761D01*
X100845952Y-76684238D01*
X100893571Y-76779476D01*
X100941190Y-76827095D01*
X101036428Y-76874714D01*
X101226904Y-76874714D01*
X101322142Y-76827095D01*
X101369761Y-76779476D01*
X101417380Y-76684238D01*
X101417380Y-76493761D01*
X101369761Y-76398523D01*
X101322142Y-76350904D01*
X101226904Y-76303285D01*
X101036428Y-76303285D01*
X100941190Y-76350904D01*
X100893571Y-76398523D01*
X100845952Y-76493761D01*
X116816142Y-91987666D02*
X116863761Y-92035285D01*
X116911380Y-92178142D01*
X116911380Y-92273380D01*
X116863761Y-92416238D01*
X116768523Y-92511476D01*
X116673285Y-92559095D01*
X116482809Y-92606714D01*
X116339952Y-92606714D01*
X116149476Y-92559095D01*
X116054238Y-92511476D01*
X115959000Y-92416238D01*
X115911380Y-92273380D01*
X115911380Y-92178142D01*
X115959000Y-92035285D01*
X116006619Y-91987666D01*
X116911380Y-91511476D02*
X116911380Y-91321000D01*
X116863761Y-91225761D01*
X116816142Y-91178142D01*
X116673285Y-91082904D01*
X116482809Y-91035285D01*
X116101857Y-91035285D01*
X116006619Y-91082904D01*
X115959000Y-91130523D01*
X115911380Y-91225761D01*
X115911380Y-91416238D01*
X115959000Y-91511476D01*
X116006619Y-91559095D01*
X116101857Y-91606714D01*
X116339952Y-91606714D01*
X116435190Y-91559095D01*
X116482809Y-91511476D01*
X116530428Y-91416238D01*
X116530428Y-91225761D01*
X116482809Y-91130523D01*
X116435190Y-91082904D01*
X116339952Y-91035285D01*
X107942142Y-105132142D02*
X107894523Y-105179761D01*
X107751666Y-105227380D01*
X107656428Y-105227380D01*
X107513571Y-105179761D01*
X107418333Y-105084523D01*
X107370714Y-104989285D01*
X107323095Y-104798809D01*
X107323095Y-104655952D01*
X107370714Y-104465476D01*
X107418333Y-104370238D01*
X107513571Y-104275000D01*
X107656428Y-104227380D01*
X107751666Y-104227380D01*
X107894523Y-104275000D01*
X107942142Y-104322619D01*
X108894523Y-105227380D02*
X108323095Y-105227380D01*
X108608809Y-105227380D02*
X108608809Y-104227380D01*
X108513571Y-104370238D01*
X108418333Y-104465476D01*
X108323095Y-104513095D01*
X109513571Y-104227380D02*
X109608809Y-104227380D01*
X109704047Y-104275000D01*
X109751666Y-104322619D01*
X109799285Y-104417857D01*
X109846904Y-104608333D01*
X109846904Y-104846428D01*
X109799285Y-105036904D01*
X109751666Y-105132142D01*
X109704047Y-105179761D01*
X109608809Y-105227380D01*
X109513571Y-105227380D01*
X109418333Y-105179761D01*
X109370714Y-105132142D01*
X109323095Y-105036904D01*
X109275476Y-104846428D01*
X109275476Y-104608333D01*
X109323095Y-104417857D01*
X109370714Y-104322619D01*
X109418333Y-104275000D01*
X109513571Y-104227380D01*
X87225142Y-90812857D02*
X87272761Y-90860476D01*
X87320380Y-91003333D01*
X87320380Y-91098571D01*
X87272761Y-91241428D01*
X87177523Y-91336666D01*
X87082285Y-91384285D01*
X86891809Y-91431904D01*
X86748952Y-91431904D01*
X86558476Y-91384285D01*
X86463238Y-91336666D01*
X86368000Y-91241428D01*
X86320380Y-91098571D01*
X86320380Y-91003333D01*
X86368000Y-90860476D01*
X86415619Y-90812857D01*
X87320380Y-89860476D02*
X87320380Y-90431904D01*
X87320380Y-90146190D02*
X86320380Y-90146190D01*
X86463238Y-90241428D01*
X86558476Y-90336666D01*
X86606095Y-90431904D01*
X87320380Y-88908095D02*
X87320380Y-89479523D01*
X87320380Y-89193809D02*
X86320380Y-89193809D01*
X86463238Y-89289047D01*
X86558476Y-89384285D01*
X86606095Y-89479523D01*
X89384142Y-101099857D02*
X89431761Y-101147476D01*
X89479380Y-101290333D01*
X89479380Y-101385571D01*
X89431761Y-101528428D01*
X89336523Y-101623666D01*
X89241285Y-101671285D01*
X89050809Y-101718904D01*
X88907952Y-101718904D01*
X88717476Y-101671285D01*
X88622238Y-101623666D01*
X88527000Y-101528428D01*
X88479380Y-101385571D01*
X88479380Y-101290333D01*
X88527000Y-101147476D01*
X88574619Y-101099857D01*
X89479380Y-100147476D02*
X89479380Y-100718904D01*
X89479380Y-100433190D02*
X88479380Y-100433190D01*
X88622238Y-100528428D01*
X88717476Y-100623666D01*
X88765095Y-100718904D01*
X88574619Y-99766523D02*
X88527000Y-99718904D01*
X88479380Y-99623666D01*
X88479380Y-99385571D01*
X88527000Y-99290333D01*
X88574619Y-99242714D01*
X88669857Y-99195095D01*
X88765095Y-99195095D01*
X88907952Y-99242714D01*
X89479380Y-99814142D01*
X89479380Y-99195095D01*
X123055142Y-65254142D02*
X123007523Y-65301761D01*
X122864666Y-65349380D01*
X122769428Y-65349380D01*
X122626571Y-65301761D01*
X122531333Y-65206523D01*
X122483714Y-65111285D01*
X122436095Y-64920809D01*
X122436095Y-64777952D01*
X122483714Y-64587476D01*
X122531333Y-64492238D01*
X122626571Y-64397000D01*
X122769428Y-64349380D01*
X122864666Y-64349380D01*
X123007523Y-64397000D01*
X123055142Y-64444619D01*
X124007523Y-65349380D02*
X123436095Y-65349380D01*
X123721809Y-65349380D02*
X123721809Y-64349380D01*
X123626571Y-64492238D01*
X123531333Y-64587476D01*
X123436095Y-64635095D01*
X124340857Y-64349380D02*
X124959904Y-64349380D01*
X124626571Y-64730333D01*
X124769428Y-64730333D01*
X124864666Y-64777952D01*
X124912285Y-64825571D01*
X124959904Y-64920809D01*
X124959904Y-65158904D01*
X124912285Y-65254142D01*
X124864666Y-65301761D01*
X124769428Y-65349380D01*
X124483714Y-65349380D01*
X124388476Y-65301761D01*
X124340857Y-65254142D01*
X87907904Y-54808380D02*
X87907904Y-53808380D01*
X88146000Y-53808380D01*
X88288857Y-53856000D01*
X88384095Y-53951238D01*
X88431714Y-54046476D01*
X88479333Y-54236952D01*
X88479333Y-54379809D01*
X88431714Y-54570285D01*
X88384095Y-54665523D01*
X88288857Y-54760761D01*
X88146000Y-54808380D01*
X87907904Y-54808380D01*
X88812666Y-53808380D02*
X89431714Y-53808380D01*
X89098380Y-54189333D01*
X89241238Y-54189333D01*
X89336476Y-54236952D01*
X89384095Y-54284571D01*
X89431714Y-54379809D01*
X89431714Y-54617904D01*
X89384095Y-54713142D01*
X89336476Y-54760761D01*
X89241238Y-54808380D01*
X88955523Y-54808380D01*
X88860285Y-54760761D01*
X88812666Y-54713142D01*
X83716904Y-54808380D02*
X83716904Y-53808380D01*
X83955000Y-53808380D01*
X84097857Y-53856000D01*
X84193095Y-53951238D01*
X84240714Y-54046476D01*
X84288333Y-54236952D01*
X84288333Y-54379809D01*
X84240714Y-54570285D01*
X84193095Y-54665523D01*
X84097857Y-54760761D01*
X83955000Y-54808380D01*
X83716904Y-54808380D01*
X85145476Y-54141714D02*
X85145476Y-54808380D01*
X84907380Y-53760761D02*
X84669285Y-54475047D01*
X85288333Y-54475047D01*
X79525904Y-54808380D02*
X79525904Y-53808380D01*
X79764000Y-53808380D01*
X79906857Y-53856000D01*
X80002095Y-53951238D01*
X80049714Y-54046476D01*
X80097333Y-54236952D01*
X80097333Y-54379809D01*
X80049714Y-54570285D01*
X80002095Y-54665523D01*
X79906857Y-54760761D01*
X79764000Y-54808380D01*
X79525904Y-54808380D01*
X81002095Y-53808380D02*
X80525904Y-53808380D01*
X80478285Y-54284571D01*
X80525904Y-54236952D01*
X80621142Y-54189333D01*
X80859238Y-54189333D01*
X80954476Y-54236952D01*
X81002095Y-54284571D01*
X81049714Y-54379809D01*
X81049714Y-54617904D01*
X81002095Y-54713142D01*
X80954476Y-54760761D01*
X80859238Y-54808380D01*
X80621142Y-54808380D01*
X80525904Y-54760761D01*
X80478285Y-54713142D01*
X75334904Y-54808380D02*
X75334904Y-53808380D01*
X75573000Y-53808380D01*
X75715857Y-53856000D01*
X75811095Y-53951238D01*
X75858714Y-54046476D01*
X75906333Y-54236952D01*
X75906333Y-54379809D01*
X75858714Y-54570285D01*
X75811095Y-54665523D01*
X75715857Y-54760761D01*
X75573000Y-54808380D01*
X75334904Y-54808380D01*
X76763476Y-53808380D02*
X76573000Y-53808380D01*
X76477761Y-53856000D01*
X76430142Y-53903619D01*
X76334904Y-54046476D01*
X76287285Y-54236952D01*
X76287285Y-54617904D01*
X76334904Y-54713142D01*
X76382523Y-54760761D01*
X76477761Y-54808380D01*
X76668238Y-54808380D01*
X76763476Y-54760761D01*
X76811095Y-54713142D01*
X76858714Y-54617904D01*
X76858714Y-54379809D01*
X76811095Y-54284571D01*
X76763476Y-54236952D01*
X76668238Y-54189333D01*
X76477761Y-54189333D01*
X76382523Y-54236952D01*
X76334904Y-54284571D01*
X76287285Y-54379809D01*
X89733380Y-56681666D02*
X89257190Y-57015000D01*
X89733380Y-57253095D02*
X88733380Y-57253095D01*
X88733380Y-56872142D01*
X88781000Y-56776904D01*
X88828619Y-56729285D01*
X88923857Y-56681666D01*
X89066714Y-56681666D01*
X89161952Y-56729285D01*
X89209571Y-56776904D01*
X89257190Y-56872142D01*
X89257190Y-57253095D01*
X88733380Y-56348333D02*
X88733380Y-55681666D01*
X89733380Y-56110238D01*
X87193380Y-56681666D02*
X86717190Y-57015000D01*
X87193380Y-57253095D02*
X86193380Y-57253095D01*
X86193380Y-56872142D01*
X86241000Y-56776904D01*
X86288619Y-56729285D01*
X86383857Y-56681666D01*
X86526714Y-56681666D01*
X86621952Y-56729285D01*
X86669571Y-56776904D01*
X86717190Y-56872142D01*
X86717190Y-57253095D01*
X86621952Y-56110238D02*
X86574333Y-56205476D01*
X86526714Y-56253095D01*
X86431476Y-56300714D01*
X86383857Y-56300714D01*
X86288619Y-56253095D01*
X86241000Y-56205476D01*
X86193380Y-56110238D01*
X86193380Y-55919761D01*
X86241000Y-55824523D01*
X86288619Y-55776904D01*
X86383857Y-55729285D01*
X86431476Y-55729285D01*
X86526714Y-55776904D01*
X86574333Y-55824523D01*
X86621952Y-55919761D01*
X86621952Y-56110238D01*
X86669571Y-56205476D01*
X86717190Y-56253095D01*
X86812428Y-56300714D01*
X87002904Y-56300714D01*
X87098142Y-56253095D01*
X87145761Y-56205476D01*
X87193380Y-56110238D01*
X87193380Y-55919761D01*
X87145761Y-55824523D01*
X87098142Y-55776904D01*
X87002904Y-55729285D01*
X86812428Y-55729285D01*
X86717190Y-55776904D01*
X86669571Y-55824523D01*
X86621952Y-55919761D01*
X84907380Y-56554666D02*
X84431190Y-56888000D01*
X84907380Y-57126095D02*
X83907380Y-57126095D01*
X83907380Y-56745142D01*
X83955000Y-56649904D01*
X84002619Y-56602285D01*
X84097857Y-56554666D01*
X84240714Y-56554666D01*
X84335952Y-56602285D01*
X84383571Y-56649904D01*
X84431190Y-56745142D01*
X84431190Y-57126095D01*
X84907380Y-56078476D02*
X84907380Y-55888000D01*
X84859761Y-55792761D01*
X84812142Y-55745142D01*
X84669285Y-55649904D01*
X84478809Y-55602285D01*
X84097857Y-55602285D01*
X84002619Y-55649904D01*
X83955000Y-55697523D01*
X83907380Y-55792761D01*
X83907380Y-55983238D01*
X83955000Y-56078476D01*
X84002619Y-56126095D01*
X84097857Y-56173714D01*
X84335952Y-56173714D01*
X84431190Y-56126095D01*
X84478809Y-56078476D01*
X84526428Y-55983238D01*
X84526428Y-55792761D01*
X84478809Y-55697523D01*
X84431190Y-55649904D01*
X84335952Y-55602285D01*
X82367380Y-56649857D02*
X81891190Y-56983190D01*
X82367380Y-57221285D02*
X81367380Y-57221285D01*
X81367380Y-56840333D01*
X81415000Y-56745095D01*
X81462619Y-56697476D01*
X81557857Y-56649857D01*
X81700714Y-56649857D01*
X81795952Y-56697476D01*
X81843571Y-56745095D01*
X81891190Y-56840333D01*
X81891190Y-57221285D01*
X82367380Y-55697476D02*
X82367380Y-56268904D01*
X82367380Y-55983190D02*
X81367380Y-55983190D01*
X81510238Y-56078428D01*
X81605476Y-56173666D01*
X81653095Y-56268904D01*
X81367380Y-55078428D02*
X81367380Y-54983190D01*
X81415000Y-54887952D01*
X81462619Y-54840333D01*
X81557857Y-54792714D01*
X81748333Y-54745095D01*
X81986428Y-54745095D01*
X82176904Y-54792714D01*
X82272142Y-54840333D01*
X82319761Y-54887952D01*
X82367380Y-54983190D01*
X82367380Y-55078428D01*
X82319761Y-55173666D01*
X82272142Y-55221285D01*
X82176904Y-55268904D01*
X81986428Y-55316523D01*
X81748333Y-55316523D01*
X81557857Y-55268904D01*
X81462619Y-55221285D01*
X81415000Y-55173666D01*
X81367380Y-55078428D01*
X132334095Y-68349880D02*
X132334095Y-69159404D01*
X132381714Y-69254642D01*
X132429333Y-69302261D01*
X132524571Y-69349880D01*
X132715047Y-69349880D01*
X132810285Y-69302261D01*
X132857904Y-69254642D01*
X132905523Y-69159404D01*
X132905523Y-68349880D01*
X133905523Y-69349880D02*
X133334095Y-69349880D01*
X133619809Y-69349880D02*
X133619809Y-68349880D01*
X133524571Y-68492738D01*
X133429333Y-68587976D01*
X133334095Y-68635595D01*
X127936666Y-73322380D02*
X127936666Y-74036666D01*
X127889047Y-74179523D01*
X127793809Y-74274761D01*
X127650952Y-74322380D01*
X127555714Y-74322380D01*
X128460476Y-74322380D02*
X128650952Y-74322380D01*
X128746190Y-74274761D01*
X128793809Y-74227142D01*
X128889047Y-74084285D01*
X128936666Y-73893809D01*
X128936666Y-73512857D01*
X128889047Y-73417619D01*
X128841428Y-73370000D01*
X128746190Y-73322380D01*
X128555714Y-73322380D01*
X128460476Y-73370000D01*
X128412857Y-73417619D01*
X128365238Y-73512857D01*
X128365238Y-73750952D01*
X128412857Y-73846190D01*
X128460476Y-73893809D01*
X128555714Y-73941428D01*
X128746190Y-73941428D01*
X128841428Y-73893809D01*
X128889047Y-73846190D01*
X128936666Y-73750952D01*
M02*
