G04 #@! TF.GenerationSoftware,KiCad,Pcbnew,(5.1.0-728-gb5c80fe68)*
G04 #@! TF.CreationDate,2019-05-28T23:33:06+01:00*
G04 #@! TF.ProjectId,garden,67617264-656e-42e6-9b69-6361645f7063,rev?*
G04 #@! TF.SameCoordinates,Original*
G04 #@! TF.FileFunction,Soldermask,Top*
G04 #@! TF.FilePolarity,Negative*
%FSLAX46Y46*%
G04 Gerber Fmt 4.6, Leading zero omitted, Abs format (unit mm)*
G04 Created by KiCad (PCBNEW (5.1.0-728-gb5c80fe68)) date 2019-05-28 23:33:06*
%MOMM*%
%LPD*%
G04 APERTURE LIST*
%ADD10C,2.400000*%
%ADD11C,0.100000*%
%ADD12C,1.825000*%
%ADD13C,2.000000*%
%ADD14R,2.000000X2.000000*%
%ADD15O,2.100000X2.100000*%
%ADD16R,2.100000X2.100000*%
%ADD17C,2.600000*%
%ADD18R,2.600000X2.600000*%
%ADD19C,1.550000*%
%ADD20C,1.400000*%
%ADD21R,1.050000X1.460000*%
%ADD22O,3.400000X1.900000*%
%ADD23R,3.400000X1.900000*%
%ADD24C,3.000000*%
%ADD25R,3.000000X3.000000*%
%ADD26O,2.305000X2.400000*%
%ADD27R,2.305000X2.400000*%
%ADD28C,1.000000*%
%ADD29O,2.100000X2.900000*%
%ADD30R,2.100000X2.900000*%
%ADD31C,6.800000*%
%ADD32R,2.800000X2.400000*%
%ADD33R,1.200000X1.300000*%
%ADD34R,0.700000X1.950000*%
%ADD35R,1.950000X0.700000*%
%ADD36R,1.580000X2.300000*%
%ADD37R,2.780000X2.300000*%
%ADD38R,1.880000X2.500000*%
%ADD39R,0.850000X3.780000*%
%ADD40R,1.200000X4.400000*%
%ADD41R,2.000000X1.400000*%
%ADD42R,1.400000X2.000000*%
%ADD43R,1.100000X1.700000*%
%ADD44R,1.400000X1.650000*%
%ADD45R,1.650000X1.400000*%
%ADD46R,1.800000X3.900000*%
%ADD47R,1.600000X1.600000*%
%ADD48R,1.700000X1.100000*%
%ADD49R,2.400000X1.900000*%
%ADD50R,2.400000X4.200000*%
G04 APERTURE END LIST*
D10*
X99060000Y-120015000D03*
X87630000Y-120015000D03*
X107442000Y-114427000D03*
X113792000Y-107569000D03*
X127889000Y-113030000D03*
X126746000Y-59245500D03*
X150558500Y-66294000D03*
X122618500Y-75120500D03*
X122809000Y-70421500D03*
X136779000Y-143002000D03*
X116522500Y-99695000D03*
X116522500Y-96520000D03*
D11*
G36*
X135674831Y-115084809D02*
G01*
X135771129Y-115140407D01*
X135842605Y-115225588D01*
X135885500Y-115385676D01*
X135885500Y-116570324D01*
X135866191Y-116679831D01*
X135810593Y-116776129D01*
X135725412Y-116847605D01*
X135565324Y-116890500D01*
X134055676Y-116890500D01*
X133946169Y-116871191D01*
X133849871Y-116815593D01*
X133778395Y-116730412D01*
X133735500Y-116570324D01*
X133735500Y-115385676D01*
X133754809Y-115276169D01*
X133810407Y-115179871D01*
X133895588Y-115108395D01*
X134055676Y-115065500D01*
X135565324Y-115065500D01*
X135674831Y-115084809D01*
X135674831Y-115084809D01*
G37*
D12*
X134810500Y-115978000D03*
D11*
G36*
X135674831Y-112109809D02*
G01*
X135771129Y-112165407D01*
X135842605Y-112250588D01*
X135885500Y-112410676D01*
X135885500Y-113595324D01*
X135866191Y-113704831D01*
X135810593Y-113801129D01*
X135725412Y-113872605D01*
X135565324Y-113915500D01*
X134055676Y-113915500D01*
X133946169Y-113896191D01*
X133849871Y-113840593D01*
X133778395Y-113755412D01*
X133735500Y-113595324D01*
X133735500Y-112410676D01*
X133754809Y-112301169D01*
X133810407Y-112204871D01*
X133895588Y-112133395D01*
X134055676Y-112090500D01*
X135565324Y-112090500D01*
X135674831Y-112109809D01*
X135674831Y-112109809D01*
G37*
D12*
X134810500Y-113003000D03*
D11*
G36*
X136110831Y-94829309D02*
G01*
X136207129Y-94884907D01*
X136278605Y-94970088D01*
X136321500Y-95130176D01*
X136321500Y-96639824D01*
X136302191Y-96749331D01*
X136246593Y-96845629D01*
X136161412Y-96917105D01*
X136001324Y-96960000D01*
X134816676Y-96960000D01*
X134707169Y-96940691D01*
X134610871Y-96885093D01*
X134539395Y-96799912D01*
X134496500Y-96639824D01*
X134496500Y-95130176D01*
X134515809Y-95020669D01*
X134571407Y-94924371D01*
X134656588Y-94852895D01*
X134816676Y-94810000D01*
X136001324Y-94810000D01*
X136110831Y-94829309D01*
X136110831Y-94829309D01*
G37*
D12*
X135409000Y-95885000D03*
D11*
G36*
X133135831Y-94829309D02*
G01*
X133232129Y-94884907D01*
X133303605Y-94970088D01*
X133346500Y-95130176D01*
X133346500Y-96639824D01*
X133327191Y-96749331D01*
X133271593Y-96845629D01*
X133186412Y-96917105D01*
X133026324Y-96960000D01*
X131841676Y-96960000D01*
X131732169Y-96940691D01*
X131635871Y-96885093D01*
X131564395Y-96799912D01*
X131521500Y-96639824D01*
X131521500Y-95130176D01*
X131540809Y-95020669D01*
X131596407Y-94924371D01*
X131681588Y-94852895D01*
X131841676Y-94810000D01*
X133026324Y-94810000D01*
X133135831Y-94829309D01*
X133135831Y-94829309D01*
G37*
D12*
X132434000Y-95885000D03*
D13*
X77811000Y-68326000D03*
D14*
X75311000Y-68326000D03*
D13*
X114046000Y-132517000D03*
D14*
X114046000Y-136017000D03*
D13*
X134104500Y-77660500D03*
D14*
X137604500Y-77660500D03*
D15*
X61849000Y-127444500D03*
X61849000Y-124904500D03*
X61849000Y-122364500D03*
X61849000Y-119824500D03*
X61849000Y-117284500D03*
X61849000Y-114744500D03*
X61849000Y-112204500D03*
X61849000Y-109664500D03*
X61849000Y-107124500D03*
D16*
X61849000Y-104584500D03*
D17*
X94615000Y-144526000D03*
X92075000Y-144526000D03*
X89535000Y-144526000D03*
D18*
X86995000Y-144526000D03*
D11*
G36*
X95812290Y-113547321D02*
G01*
X95913635Y-113605833D01*
X95988856Y-113695478D01*
X96034000Y-113863956D01*
X96034000Y-114990044D01*
X96013679Y-115105290D01*
X95955167Y-115206635D01*
X95865522Y-115281856D01*
X95697044Y-115327000D01*
X94820956Y-115327000D01*
X94705710Y-115306679D01*
X94604365Y-115248167D01*
X94529144Y-115158522D01*
X94484000Y-114990044D01*
X94484000Y-113863956D01*
X94504321Y-113748710D01*
X94562833Y-113647365D01*
X94652478Y-113572144D01*
X94820956Y-113527000D01*
X95697044Y-113527000D01*
X95812290Y-113547321D01*
X95812290Y-113547321D01*
G37*
D19*
X95259000Y-114427000D03*
D11*
G36*
X93762290Y-113547321D02*
G01*
X93863635Y-113605833D01*
X93938856Y-113695478D01*
X93984000Y-113863956D01*
X93984000Y-114990044D01*
X93963679Y-115105290D01*
X93905167Y-115206635D01*
X93815522Y-115281856D01*
X93647044Y-115327000D01*
X92770956Y-115327000D01*
X92655710Y-115306679D01*
X92554365Y-115248167D01*
X92479144Y-115158522D01*
X92434000Y-114990044D01*
X92434000Y-113863956D01*
X92454321Y-113748710D01*
X92512833Y-113647365D01*
X92602478Y-113572144D01*
X92770956Y-113527000D01*
X93647044Y-113527000D01*
X93762290Y-113547321D01*
X93762290Y-113547321D01*
G37*
D19*
X93209000Y-114427000D03*
D11*
G36*
X95748790Y-109864321D02*
G01*
X95850135Y-109922833D01*
X95925356Y-110012478D01*
X95970500Y-110180956D01*
X95970500Y-111307044D01*
X95950179Y-111422290D01*
X95891667Y-111523635D01*
X95802022Y-111598856D01*
X95633544Y-111644000D01*
X94757456Y-111644000D01*
X94642210Y-111623679D01*
X94540865Y-111565167D01*
X94465644Y-111475522D01*
X94420500Y-111307044D01*
X94420500Y-110180956D01*
X94440821Y-110065710D01*
X94499333Y-109964365D01*
X94588978Y-109889144D01*
X94757456Y-109844000D01*
X95633544Y-109844000D01*
X95748790Y-109864321D01*
X95748790Y-109864321D01*
G37*
D19*
X95195500Y-110744000D03*
D11*
G36*
X93698790Y-109864321D02*
G01*
X93800135Y-109922833D01*
X93875356Y-110012478D01*
X93920500Y-110180956D01*
X93920500Y-111307044D01*
X93900179Y-111422290D01*
X93841667Y-111523635D01*
X93752022Y-111598856D01*
X93583544Y-111644000D01*
X92707456Y-111644000D01*
X92592210Y-111623679D01*
X92490865Y-111565167D01*
X92415644Y-111475522D01*
X92370500Y-111307044D01*
X92370500Y-110180956D01*
X92390821Y-110065710D01*
X92449333Y-109964365D01*
X92538978Y-109889144D01*
X92707456Y-109844000D01*
X93583544Y-109844000D01*
X93698790Y-109864321D01*
X93698790Y-109864321D01*
G37*
D19*
X93145500Y-110744000D03*
D17*
X81534000Y-144526000D03*
X78994000Y-144526000D03*
X76454000Y-144526000D03*
D18*
X73914000Y-144526000D03*
D11*
G36*
X65282388Y-76298102D02*
G01*
X65380030Y-76358560D01*
X65449239Y-76450207D01*
X65482000Y-76589500D01*
X65482000Y-77964500D01*
X65460898Y-78077388D01*
X65400440Y-78175030D01*
X65308793Y-78244239D01*
X65169500Y-78277000D01*
X62394500Y-78277000D01*
X62281612Y-78255898D01*
X62183970Y-78195440D01*
X62114761Y-78103793D01*
X62082000Y-77964500D01*
X62082000Y-76589500D01*
X62103102Y-76476612D01*
X62163560Y-76378970D01*
X62255207Y-76309761D01*
X62394500Y-76277000D01*
X65169500Y-76277000D01*
X65282388Y-76298102D01*
X65282388Y-76298102D01*
G37*
D13*
X63782000Y-77277000D03*
D11*
G36*
X65282388Y-87098102D02*
G01*
X65380030Y-87158560D01*
X65449239Y-87250207D01*
X65482000Y-87389500D01*
X65482000Y-88764500D01*
X65460898Y-88877388D01*
X65400440Y-88975030D01*
X65308793Y-89044239D01*
X65169500Y-89077000D01*
X62394500Y-89077000D01*
X62281612Y-89055898D01*
X62183970Y-88995440D01*
X62114761Y-88903793D01*
X62082000Y-88764500D01*
X62082000Y-87389500D01*
X62103102Y-87276612D01*
X62163560Y-87178970D01*
X62255207Y-87109761D01*
X62394500Y-87077000D01*
X65169500Y-87077000D01*
X65282388Y-87098102D01*
X65282388Y-87098102D01*
G37*
D13*
X63782000Y-88077000D03*
D11*
G36*
X68751707Y-78998108D02*
G01*
X68856976Y-79058884D01*
X68935109Y-79152000D01*
X68982000Y-79327000D01*
X68982000Y-80027000D01*
X68960892Y-80146707D01*
X68900116Y-80251976D01*
X68807000Y-80330109D01*
X68632000Y-80377000D01*
X63432000Y-80377000D01*
X63312293Y-80355892D01*
X63207024Y-80295116D01*
X63128891Y-80202000D01*
X63082000Y-80027000D01*
X63082000Y-79327000D01*
X63103108Y-79207293D01*
X63163884Y-79102024D01*
X63257000Y-79023891D01*
X63432000Y-78977000D01*
X68632000Y-78977000D01*
X68751707Y-78998108D01*
X68751707Y-78998108D01*
G37*
D20*
X66032000Y-79677000D03*
D11*
G36*
X68751707Y-80998108D02*
G01*
X68856976Y-81058884D01*
X68935109Y-81152000D01*
X68982000Y-81327000D01*
X68982000Y-82027000D01*
X68960892Y-82146707D01*
X68900116Y-82251976D01*
X68807000Y-82330109D01*
X68632000Y-82377000D01*
X63432000Y-82377000D01*
X63312293Y-82355892D01*
X63207024Y-82295116D01*
X63128891Y-82202000D01*
X63082000Y-82027000D01*
X63082000Y-81327000D01*
X63103108Y-81207293D01*
X63163884Y-81102024D01*
X63257000Y-81023891D01*
X63432000Y-80977000D01*
X68632000Y-80977000D01*
X68751707Y-80998108D01*
X68751707Y-80998108D01*
G37*
D20*
X66032000Y-81677000D03*
D11*
G36*
X68751707Y-82998108D02*
G01*
X68856976Y-83058884D01*
X68935109Y-83152000D01*
X68982000Y-83327000D01*
X68982000Y-84027000D01*
X68960892Y-84146707D01*
X68900116Y-84251976D01*
X68807000Y-84330109D01*
X68632000Y-84377000D01*
X63432000Y-84377000D01*
X63312293Y-84355892D01*
X63207024Y-84295116D01*
X63128891Y-84202000D01*
X63082000Y-84027000D01*
X63082000Y-83327000D01*
X63103108Y-83207293D01*
X63163884Y-83102024D01*
X63257000Y-83023891D01*
X63432000Y-82977000D01*
X68632000Y-82977000D01*
X68751707Y-82998108D01*
X68751707Y-82998108D01*
G37*
D20*
X66032000Y-83677000D03*
D11*
G36*
X68751707Y-84998108D02*
G01*
X68856976Y-85058884D01*
X68935109Y-85152000D01*
X68982000Y-85327000D01*
X68982000Y-86027000D01*
X68960892Y-86146707D01*
X68900116Y-86251976D01*
X68807000Y-86330109D01*
X68632000Y-86377000D01*
X63432000Y-86377000D01*
X63312293Y-86355892D01*
X63207024Y-86295116D01*
X63128891Y-86202000D01*
X63082000Y-86027000D01*
X63082000Y-85327000D01*
X63103108Y-85207293D01*
X63163884Y-85102024D01*
X63257000Y-85023891D01*
X63432000Y-84977000D01*
X68632000Y-84977000D01*
X68751707Y-84998108D01*
X68751707Y-84998108D01*
G37*
D20*
X66032000Y-85677000D03*
D11*
G36*
X78180888Y-76282602D02*
G01*
X78278530Y-76343060D01*
X78347739Y-76434707D01*
X78380500Y-76574000D01*
X78380500Y-77949000D01*
X78359398Y-78061888D01*
X78298940Y-78159530D01*
X78207293Y-78228739D01*
X78068000Y-78261500D01*
X75293000Y-78261500D01*
X75180112Y-78240398D01*
X75082470Y-78179940D01*
X75013261Y-78088293D01*
X74980500Y-77949000D01*
X74980500Y-76574000D01*
X75001602Y-76461112D01*
X75062060Y-76363470D01*
X75153707Y-76294261D01*
X75293000Y-76261500D01*
X78068000Y-76261500D01*
X78180888Y-76282602D01*
X78180888Y-76282602D01*
G37*
D13*
X76680500Y-77261500D03*
D11*
G36*
X78180888Y-87082602D02*
G01*
X78278530Y-87143060D01*
X78347739Y-87234707D01*
X78380500Y-87374000D01*
X78380500Y-88749000D01*
X78359398Y-88861888D01*
X78298940Y-88959530D01*
X78207293Y-89028739D01*
X78068000Y-89061500D01*
X75293000Y-89061500D01*
X75180112Y-89040398D01*
X75082470Y-88979940D01*
X75013261Y-88888293D01*
X74980500Y-88749000D01*
X74980500Y-87374000D01*
X75001602Y-87261112D01*
X75062060Y-87163470D01*
X75153707Y-87094261D01*
X75293000Y-87061500D01*
X78068000Y-87061500D01*
X78180888Y-87082602D01*
X78180888Y-87082602D01*
G37*
D13*
X76680500Y-88061500D03*
D11*
G36*
X81650207Y-78982608D02*
G01*
X81755476Y-79043384D01*
X81833609Y-79136500D01*
X81880500Y-79311500D01*
X81880500Y-80011500D01*
X81859392Y-80131207D01*
X81798616Y-80236476D01*
X81705500Y-80314609D01*
X81530500Y-80361500D01*
X76330500Y-80361500D01*
X76210793Y-80340392D01*
X76105524Y-80279616D01*
X76027391Y-80186500D01*
X75980500Y-80011500D01*
X75980500Y-79311500D01*
X76001608Y-79191793D01*
X76062384Y-79086524D01*
X76155500Y-79008391D01*
X76330500Y-78961500D01*
X81530500Y-78961500D01*
X81650207Y-78982608D01*
X81650207Y-78982608D01*
G37*
D20*
X78930500Y-79661500D03*
D11*
G36*
X81650207Y-80982608D02*
G01*
X81755476Y-81043384D01*
X81833609Y-81136500D01*
X81880500Y-81311500D01*
X81880500Y-82011500D01*
X81859392Y-82131207D01*
X81798616Y-82236476D01*
X81705500Y-82314609D01*
X81530500Y-82361500D01*
X76330500Y-82361500D01*
X76210793Y-82340392D01*
X76105524Y-82279616D01*
X76027391Y-82186500D01*
X75980500Y-82011500D01*
X75980500Y-81311500D01*
X76001608Y-81191793D01*
X76062384Y-81086524D01*
X76155500Y-81008391D01*
X76330500Y-80961500D01*
X81530500Y-80961500D01*
X81650207Y-80982608D01*
X81650207Y-80982608D01*
G37*
D20*
X78930500Y-81661500D03*
D11*
G36*
X81650207Y-82982608D02*
G01*
X81755476Y-83043384D01*
X81833609Y-83136500D01*
X81880500Y-83311500D01*
X81880500Y-84011500D01*
X81859392Y-84131207D01*
X81798616Y-84236476D01*
X81705500Y-84314609D01*
X81530500Y-84361500D01*
X76330500Y-84361500D01*
X76210793Y-84340392D01*
X76105524Y-84279616D01*
X76027391Y-84186500D01*
X75980500Y-84011500D01*
X75980500Y-83311500D01*
X76001608Y-83191793D01*
X76062384Y-83086524D01*
X76155500Y-83008391D01*
X76330500Y-82961500D01*
X81530500Y-82961500D01*
X81650207Y-82982608D01*
X81650207Y-82982608D01*
G37*
D20*
X78930500Y-83661500D03*
D11*
G36*
X81650207Y-84982608D02*
G01*
X81755476Y-85043384D01*
X81833609Y-85136500D01*
X81880500Y-85311500D01*
X81880500Y-86011500D01*
X81859392Y-86131207D01*
X81798616Y-86236476D01*
X81705500Y-86314609D01*
X81530500Y-86361500D01*
X76330500Y-86361500D01*
X76210793Y-86340392D01*
X76105524Y-86279616D01*
X76027391Y-86186500D01*
X75980500Y-86011500D01*
X75980500Y-85311500D01*
X76001608Y-85191793D01*
X76062384Y-85086524D01*
X76155500Y-85008391D01*
X76330500Y-84961500D01*
X81530500Y-84961500D01*
X81650207Y-84982608D01*
X81650207Y-84982608D01*
G37*
D20*
X78930500Y-85661500D03*
D21*
X120909000Y-116332000D03*
X122809000Y-116332000D03*
X122809000Y-118532000D03*
X121859000Y-118532000D03*
X120909000Y-118532000D03*
D22*
X126174500Y-125920500D03*
X126174500Y-128460500D03*
X126174500Y-138620500D03*
X126174500Y-131000500D03*
X126174500Y-133540500D03*
X126174500Y-141160500D03*
D23*
X126174500Y-143700500D03*
D11*
G36*
X147292790Y-121167321D02*
G01*
X147394135Y-121225833D01*
X147469356Y-121315478D01*
X147514500Y-121483956D01*
X147514500Y-122610044D01*
X147494179Y-122725290D01*
X147435667Y-122826635D01*
X147346022Y-122901856D01*
X147177544Y-122947000D01*
X146301456Y-122947000D01*
X146186210Y-122926679D01*
X146084865Y-122868167D01*
X146009644Y-122778522D01*
X145964500Y-122610044D01*
X145964500Y-121483956D01*
X145984821Y-121368710D01*
X146043333Y-121267365D01*
X146132978Y-121192144D01*
X146301456Y-121147000D01*
X147177544Y-121147000D01*
X147292790Y-121167321D01*
X147292790Y-121167321D01*
G37*
D19*
X146739500Y-122047000D03*
D11*
G36*
X149342790Y-121167321D02*
G01*
X149444135Y-121225833D01*
X149519356Y-121315478D01*
X149564500Y-121483956D01*
X149564500Y-122610044D01*
X149544179Y-122725290D01*
X149485667Y-122826635D01*
X149396022Y-122901856D01*
X149227544Y-122947000D01*
X148351456Y-122947000D01*
X148236210Y-122926679D01*
X148134865Y-122868167D01*
X148059644Y-122778522D01*
X148014500Y-122610044D01*
X148014500Y-121483956D01*
X148034821Y-121368710D01*
X148093333Y-121267365D01*
X148182978Y-121192144D01*
X148351456Y-121147000D01*
X149227544Y-121147000D01*
X149342790Y-121167321D01*
X149342790Y-121167321D01*
G37*
D19*
X148789500Y-122047000D03*
D11*
G36*
X115422790Y-118044821D02*
G01*
X115524135Y-118103333D01*
X115599356Y-118192978D01*
X115644500Y-118361456D01*
X115644500Y-119237544D01*
X115624179Y-119352790D01*
X115565667Y-119454135D01*
X115476022Y-119529356D01*
X115307544Y-119574500D01*
X114181456Y-119574500D01*
X114066210Y-119554179D01*
X113964865Y-119495667D01*
X113889644Y-119406022D01*
X113844500Y-119237544D01*
X113844500Y-118361456D01*
X113864821Y-118246210D01*
X113923333Y-118144865D01*
X114012978Y-118069644D01*
X114181456Y-118024500D01*
X115307544Y-118024500D01*
X115422790Y-118044821D01*
X115422790Y-118044821D01*
G37*
D19*
X114744500Y-118799500D03*
D11*
G36*
X115422790Y-120094821D02*
G01*
X115524135Y-120153333D01*
X115599356Y-120242978D01*
X115644500Y-120411456D01*
X115644500Y-121287544D01*
X115624179Y-121402790D01*
X115565667Y-121504135D01*
X115476022Y-121579356D01*
X115307544Y-121624500D01*
X114181456Y-121624500D01*
X114066210Y-121604179D01*
X113964865Y-121545667D01*
X113889644Y-121456022D01*
X113844500Y-121287544D01*
X113844500Y-120411456D01*
X113864821Y-120296210D01*
X113923333Y-120194865D01*
X114012978Y-120119644D01*
X114181456Y-120074500D01*
X115307544Y-120074500D01*
X115422790Y-120094821D01*
X115422790Y-120094821D01*
G37*
D19*
X114744500Y-120849500D03*
D24*
X147955000Y-131318000D03*
D25*
X147955000Y-126238000D03*
D11*
G36*
X119296290Y-117754321D02*
G01*
X119397635Y-117812833D01*
X119472856Y-117902478D01*
X119518000Y-118070956D01*
X119518000Y-118947044D01*
X119497679Y-119062290D01*
X119439167Y-119163635D01*
X119349522Y-119238856D01*
X119181044Y-119284000D01*
X118054956Y-119284000D01*
X117939710Y-119263679D01*
X117838365Y-119205167D01*
X117763144Y-119115522D01*
X117718000Y-118947044D01*
X117718000Y-118070956D01*
X117738321Y-117955710D01*
X117796833Y-117854365D01*
X117886478Y-117779144D01*
X118054956Y-117734000D01*
X119181044Y-117734000D01*
X119296290Y-117754321D01*
X119296290Y-117754321D01*
G37*
D19*
X118618000Y-118509000D03*
D11*
G36*
X119296290Y-115704321D02*
G01*
X119397635Y-115762833D01*
X119472856Y-115852478D01*
X119518000Y-116020956D01*
X119518000Y-116897044D01*
X119497679Y-117012290D01*
X119439167Y-117113635D01*
X119349522Y-117188856D01*
X119181044Y-117234000D01*
X118054956Y-117234000D01*
X117939710Y-117213679D01*
X117838365Y-117155167D01*
X117763144Y-117065522D01*
X117718000Y-116897044D01*
X117718000Y-116020956D01*
X117738321Y-115905710D01*
X117796833Y-115804365D01*
X117886478Y-115729144D01*
X118054956Y-115684000D01*
X119181044Y-115684000D01*
X119296290Y-115704321D01*
X119296290Y-115704321D01*
G37*
D19*
X118618000Y-116459000D03*
D11*
G36*
X149890331Y-106322809D02*
G01*
X149986629Y-106378407D01*
X150058105Y-106463588D01*
X150101000Y-106623676D01*
X150101000Y-108133324D01*
X150081691Y-108242831D01*
X150026093Y-108339129D01*
X149940912Y-108410605D01*
X149780824Y-108453500D01*
X148596176Y-108453500D01*
X148486669Y-108434191D01*
X148390371Y-108378593D01*
X148318895Y-108293412D01*
X148276000Y-108133324D01*
X148276000Y-106623676D01*
X148295309Y-106514169D01*
X148350907Y-106417871D01*
X148436088Y-106346395D01*
X148596176Y-106303500D01*
X149780824Y-106303500D01*
X149890331Y-106322809D01*
X149890331Y-106322809D01*
G37*
D12*
X149188500Y-107378500D03*
D11*
G36*
X146915331Y-106322809D02*
G01*
X147011629Y-106378407D01*
X147083105Y-106463588D01*
X147126000Y-106623676D01*
X147126000Y-108133324D01*
X147106691Y-108242831D01*
X147051093Y-108339129D01*
X146965912Y-108410605D01*
X146805824Y-108453500D01*
X145621176Y-108453500D01*
X145511669Y-108434191D01*
X145415371Y-108378593D01*
X145343895Y-108293412D01*
X145301000Y-108133324D01*
X145301000Y-106623676D01*
X145320309Y-106514169D01*
X145375907Y-106417871D01*
X145461088Y-106346395D01*
X145621176Y-106303500D01*
X146805824Y-106303500D01*
X146915331Y-106322809D01*
X146915331Y-106322809D01*
G37*
D12*
X146213500Y-107378500D03*
D11*
G36*
X149636331Y-91463809D02*
G01*
X149732629Y-91519407D01*
X149804105Y-91604588D01*
X149847000Y-91764676D01*
X149847000Y-93274324D01*
X149827691Y-93383831D01*
X149772093Y-93480129D01*
X149686912Y-93551605D01*
X149526824Y-93594500D01*
X148342176Y-93594500D01*
X148232669Y-93575191D01*
X148136371Y-93519593D01*
X148064895Y-93434412D01*
X148022000Y-93274324D01*
X148022000Y-91764676D01*
X148041309Y-91655169D01*
X148096907Y-91558871D01*
X148182088Y-91487395D01*
X148342176Y-91444500D01*
X149526824Y-91444500D01*
X149636331Y-91463809D01*
X149636331Y-91463809D01*
G37*
D12*
X148934500Y-92519500D03*
D11*
G36*
X146661331Y-91463809D02*
G01*
X146757629Y-91519407D01*
X146829105Y-91604588D01*
X146872000Y-91764676D01*
X146872000Y-93274324D01*
X146852691Y-93383831D01*
X146797093Y-93480129D01*
X146711912Y-93551605D01*
X146551824Y-93594500D01*
X145367176Y-93594500D01*
X145257669Y-93575191D01*
X145161371Y-93519593D01*
X145089895Y-93434412D01*
X145047000Y-93274324D01*
X145047000Y-91764676D01*
X145066309Y-91655169D01*
X145121907Y-91558871D01*
X145207088Y-91487395D01*
X145367176Y-91444500D01*
X146551824Y-91444500D01*
X146661331Y-91463809D01*
X146661331Y-91463809D01*
G37*
D12*
X145959500Y-92519500D03*
D11*
G36*
X119423290Y-111386321D02*
G01*
X119524635Y-111444833D01*
X119599856Y-111534478D01*
X119645000Y-111702956D01*
X119645000Y-112579044D01*
X119624679Y-112694290D01*
X119566167Y-112795635D01*
X119476522Y-112870856D01*
X119308044Y-112916000D01*
X118181956Y-112916000D01*
X118066710Y-112895679D01*
X117965365Y-112837167D01*
X117890144Y-112747522D01*
X117845000Y-112579044D01*
X117845000Y-111702956D01*
X117865321Y-111587710D01*
X117923833Y-111486365D01*
X118013478Y-111411144D01*
X118181956Y-111366000D01*
X119308044Y-111366000D01*
X119423290Y-111386321D01*
X119423290Y-111386321D01*
G37*
D19*
X118745000Y-112141000D03*
D11*
G36*
X119423290Y-109336321D02*
G01*
X119524635Y-109394833D01*
X119599856Y-109484478D01*
X119645000Y-109652956D01*
X119645000Y-110529044D01*
X119624679Y-110644290D01*
X119566167Y-110745635D01*
X119476522Y-110820856D01*
X119308044Y-110866000D01*
X118181956Y-110866000D01*
X118066710Y-110845679D01*
X117965365Y-110787167D01*
X117890144Y-110697522D01*
X117845000Y-110529044D01*
X117845000Y-109652956D01*
X117865321Y-109537710D01*
X117923833Y-109436365D01*
X118013478Y-109361144D01*
X118181956Y-109316000D01*
X119308044Y-109316000D01*
X119423290Y-109336321D01*
X119423290Y-109336321D01*
G37*
D19*
X118745000Y-110091000D03*
D11*
G36*
X119550290Y-106315321D02*
G01*
X119651635Y-106373833D01*
X119726856Y-106463478D01*
X119772000Y-106631956D01*
X119772000Y-107508044D01*
X119751679Y-107623290D01*
X119693167Y-107724635D01*
X119603522Y-107799856D01*
X119435044Y-107845000D01*
X118308956Y-107845000D01*
X118193710Y-107824679D01*
X118092365Y-107766167D01*
X118017144Y-107676522D01*
X117972000Y-107508044D01*
X117972000Y-106631956D01*
X117992321Y-106516710D01*
X118050833Y-106415365D01*
X118140478Y-106340144D01*
X118308956Y-106295000D01*
X119435044Y-106295000D01*
X119550290Y-106315321D01*
X119550290Y-106315321D01*
G37*
D19*
X118872000Y-107070000D03*
D11*
G36*
X119550290Y-104265321D02*
G01*
X119651635Y-104323833D01*
X119726856Y-104413478D01*
X119772000Y-104581956D01*
X119772000Y-105458044D01*
X119751679Y-105573290D01*
X119693167Y-105674635D01*
X119603522Y-105749856D01*
X119435044Y-105795000D01*
X118308956Y-105795000D01*
X118193710Y-105774679D01*
X118092365Y-105716167D01*
X118017144Y-105626522D01*
X117972000Y-105458044D01*
X117972000Y-104581956D01*
X117992321Y-104466710D01*
X118050833Y-104365365D01*
X118140478Y-104290144D01*
X118308956Y-104245000D01*
X119435044Y-104245000D01*
X119550290Y-104265321D01*
X119550290Y-104265321D01*
G37*
D19*
X118872000Y-105020000D03*
D21*
X120970000Y-109961500D03*
X122870000Y-109961500D03*
X122870000Y-112161500D03*
X121920000Y-112161500D03*
X120970000Y-112161500D03*
X120970000Y-105008500D03*
X122870000Y-105008500D03*
X122870000Y-107208500D03*
X121920000Y-107208500D03*
X120970000Y-107208500D03*
D26*
X133794500Y-107124500D03*
X131254500Y-107124500D03*
D27*
X128714500Y-107124500D03*
D24*
X147955000Y-117348000D03*
D25*
X147955000Y-112268000D03*
D24*
X147955000Y-102552500D03*
D25*
X147955000Y-97472500D03*
D26*
X133794500Y-101790500D03*
X131254500Y-101790500D03*
D27*
X128714500Y-101790500D03*
D11*
G36*
X125479171Y-91149530D02*
G01*
X125560277Y-91203723D01*
X125614470Y-91284829D01*
X125633500Y-91380500D01*
X125633500Y-91880500D01*
X125614470Y-91976171D01*
X125560277Y-92057277D01*
X125479171Y-92111470D01*
X125383500Y-92130500D01*
X123533500Y-92130500D01*
X123437829Y-92111470D01*
X123356723Y-92057277D01*
X123302530Y-91976171D01*
X123283500Y-91880500D01*
X123283500Y-91380500D01*
X123302530Y-91284829D01*
X123356723Y-91203723D01*
X123437829Y-91149530D01*
X123533500Y-91130500D01*
X125383500Y-91130500D01*
X125479171Y-91149530D01*
X125479171Y-91149530D01*
G37*
D28*
X124458500Y-91630500D03*
D11*
G36*
X125479171Y-92419530D02*
G01*
X125560277Y-92473723D01*
X125614470Y-92554829D01*
X125633500Y-92650500D01*
X125633500Y-93150500D01*
X125614470Y-93246171D01*
X125560277Y-93327277D01*
X125479171Y-93381470D01*
X125383500Y-93400500D01*
X123533500Y-93400500D01*
X123437829Y-93381470D01*
X123356723Y-93327277D01*
X123302530Y-93246171D01*
X123283500Y-93150500D01*
X123283500Y-92650500D01*
X123302530Y-92554829D01*
X123356723Y-92473723D01*
X123437829Y-92419530D01*
X123533500Y-92400500D01*
X125383500Y-92400500D01*
X125479171Y-92419530D01*
X125479171Y-92419530D01*
G37*
D28*
X124458500Y-92900500D03*
D11*
G36*
X125479171Y-93689530D02*
G01*
X125560277Y-93743723D01*
X125614470Y-93824829D01*
X125633500Y-93920500D01*
X125633500Y-94420500D01*
X125614470Y-94516171D01*
X125560277Y-94597277D01*
X125479171Y-94651470D01*
X125383500Y-94670500D01*
X123533500Y-94670500D01*
X123437829Y-94651470D01*
X123356723Y-94597277D01*
X123302530Y-94516171D01*
X123283500Y-94420500D01*
X123283500Y-93920500D01*
X123302530Y-93824829D01*
X123356723Y-93743723D01*
X123437829Y-93689530D01*
X123533500Y-93670500D01*
X125383500Y-93670500D01*
X125479171Y-93689530D01*
X125479171Y-93689530D01*
G37*
D28*
X124458500Y-94170500D03*
D11*
G36*
X125479171Y-94959530D02*
G01*
X125560277Y-95013723D01*
X125614470Y-95094829D01*
X125633500Y-95190500D01*
X125633500Y-95690500D01*
X125614470Y-95786171D01*
X125560277Y-95867277D01*
X125479171Y-95921470D01*
X125383500Y-95940500D01*
X123533500Y-95940500D01*
X123437829Y-95921470D01*
X123356723Y-95867277D01*
X123302530Y-95786171D01*
X123283500Y-95690500D01*
X123283500Y-95190500D01*
X123302530Y-95094829D01*
X123356723Y-95013723D01*
X123437829Y-94959530D01*
X123533500Y-94940500D01*
X125383500Y-94940500D01*
X125479171Y-94959530D01*
X125479171Y-94959530D01*
G37*
D28*
X124458500Y-95440500D03*
D11*
G36*
X120529171Y-94959530D02*
G01*
X120610277Y-95013723D01*
X120664470Y-95094829D01*
X120683500Y-95190500D01*
X120683500Y-95690500D01*
X120664470Y-95786171D01*
X120610277Y-95867277D01*
X120529171Y-95921470D01*
X120433500Y-95940500D01*
X118583500Y-95940500D01*
X118487829Y-95921470D01*
X118406723Y-95867277D01*
X118352530Y-95786171D01*
X118333500Y-95690500D01*
X118333500Y-95190500D01*
X118352530Y-95094829D01*
X118406723Y-95013723D01*
X118487829Y-94959530D01*
X118583500Y-94940500D01*
X120433500Y-94940500D01*
X120529171Y-94959530D01*
X120529171Y-94959530D01*
G37*
D28*
X119508500Y-95440500D03*
D11*
G36*
X120529171Y-93689530D02*
G01*
X120610277Y-93743723D01*
X120664470Y-93824829D01*
X120683500Y-93920500D01*
X120683500Y-94420500D01*
X120664470Y-94516171D01*
X120610277Y-94597277D01*
X120529171Y-94651470D01*
X120433500Y-94670500D01*
X118583500Y-94670500D01*
X118487829Y-94651470D01*
X118406723Y-94597277D01*
X118352530Y-94516171D01*
X118333500Y-94420500D01*
X118333500Y-93920500D01*
X118352530Y-93824829D01*
X118406723Y-93743723D01*
X118487829Y-93689530D01*
X118583500Y-93670500D01*
X120433500Y-93670500D01*
X120529171Y-93689530D01*
X120529171Y-93689530D01*
G37*
D28*
X119508500Y-94170500D03*
D11*
G36*
X120529171Y-92419530D02*
G01*
X120610277Y-92473723D01*
X120664470Y-92554829D01*
X120683500Y-92650500D01*
X120683500Y-93150500D01*
X120664470Y-93246171D01*
X120610277Y-93327277D01*
X120529171Y-93381470D01*
X120433500Y-93400500D01*
X118583500Y-93400500D01*
X118487829Y-93381470D01*
X118406723Y-93327277D01*
X118352530Y-93246171D01*
X118333500Y-93150500D01*
X118333500Y-92650500D01*
X118352530Y-92554829D01*
X118406723Y-92473723D01*
X118487829Y-92419530D01*
X118583500Y-92400500D01*
X120433500Y-92400500D01*
X120529171Y-92419530D01*
X120529171Y-92419530D01*
G37*
D28*
X119508500Y-92900500D03*
D11*
G36*
X120529171Y-91149530D02*
G01*
X120610277Y-91203723D01*
X120664470Y-91284829D01*
X120683500Y-91380500D01*
X120683500Y-91880500D01*
X120664470Y-91976171D01*
X120610277Y-92057277D01*
X120529171Y-92111470D01*
X120433500Y-92130500D01*
X118583500Y-92130500D01*
X118487829Y-92111470D01*
X118406723Y-92057277D01*
X118352530Y-91976171D01*
X118333500Y-91880500D01*
X118333500Y-91380500D01*
X118352530Y-91284829D01*
X118406723Y-91203723D01*
X118487829Y-91149530D01*
X118583500Y-91130500D01*
X120433500Y-91130500D01*
X120529171Y-91149530D01*
X120529171Y-91149530D01*
G37*
D28*
X119508500Y-91630500D03*
D11*
G36*
X121511790Y-97100821D02*
G01*
X121613135Y-97159333D01*
X121688356Y-97248978D01*
X121733500Y-97417456D01*
X121733500Y-98543544D01*
X121713179Y-98658790D01*
X121654667Y-98760135D01*
X121565022Y-98835356D01*
X121396544Y-98880500D01*
X120520456Y-98880500D01*
X120405210Y-98860179D01*
X120303865Y-98801667D01*
X120228644Y-98712022D01*
X120183500Y-98543544D01*
X120183500Y-97417456D01*
X120203821Y-97302210D01*
X120262333Y-97200865D01*
X120351978Y-97125644D01*
X120520456Y-97080500D01*
X121396544Y-97080500D01*
X121511790Y-97100821D01*
X121511790Y-97100821D01*
G37*
D19*
X120958500Y-97980500D03*
D11*
G36*
X123561790Y-97100821D02*
G01*
X123663135Y-97159333D01*
X123738356Y-97248978D01*
X123783500Y-97417456D01*
X123783500Y-98543544D01*
X123763179Y-98658790D01*
X123704667Y-98760135D01*
X123615022Y-98835356D01*
X123446544Y-98880500D01*
X122570456Y-98880500D01*
X122455210Y-98860179D01*
X122353865Y-98801667D01*
X122278644Y-98712022D01*
X122233500Y-98543544D01*
X122233500Y-97417456D01*
X122253821Y-97302210D01*
X122312333Y-97200865D01*
X122401978Y-97125644D01*
X122570456Y-97080500D01*
X123446544Y-97080500D01*
X123561790Y-97100821D01*
X123561790Y-97100821D01*
G37*
D19*
X123008500Y-97980500D03*
D11*
G36*
X121511790Y-100275821D02*
G01*
X121613135Y-100334333D01*
X121688356Y-100423978D01*
X121733500Y-100592456D01*
X121733500Y-101718544D01*
X121713179Y-101833790D01*
X121654667Y-101935135D01*
X121565022Y-102010356D01*
X121396544Y-102055500D01*
X120520456Y-102055500D01*
X120405210Y-102035179D01*
X120303865Y-101976667D01*
X120228644Y-101887022D01*
X120183500Y-101718544D01*
X120183500Y-100592456D01*
X120203821Y-100477210D01*
X120262333Y-100375865D01*
X120351978Y-100300644D01*
X120520456Y-100255500D01*
X121396544Y-100255500D01*
X121511790Y-100275821D01*
X121511790Y-100275821D01*
G37*
D19*
X120958500Y-101155500D03*
D11*
G36*
X123561790Y-100275821D02*
G01*
X123663135Y-100334333D01*
X123738356Y-100423978D01*
X123783500Y-100592456D01*
X123783500Y-101718544D01*
X123763179Y-101833790D01*
X123704667Y-101935135D01*
X123615022Y-102010356D01*
X123446544Y-102055500D01*
X122570456Y-102055500D01*
X122455210Y-102035179D01*
X122353865Y-101976667D01*
X122278644Y-101887022D01*
X122233500Y-101718544D01*
X122233500Y-100592456D01*
X122253821Y-100477210D01*
X122312333Y-100375865D01*
X122401978Y-100300644D01*
X122570456Y-100255500D01*
X123446544Y-100255500D01*
X123561790Y-100275821D01*
X123561790Y-100275821D01*
G37*
D19*
X123008500Y-101155500D03*
D29*
X145351500Y-75882500D03*
X147891500Y-75882500D03*
D30*
X150431500Y-75882500D03*
D24*
X147955000Y-87757000D03*
D25*
X147955000Y-82677000D03*
D11*
G36*
X146596831Y-66915309D02*
G01*
X146693129Y-66970907D01*
X146764605Y-67056088D01*
X146807500Y-67216176D01*
X146807500Y-68400824D01*
X146788191Y-68510331D01*
X146732593Y-68606629D01*
X146647412Y-68678105D01*
X146487324Y-68721000D01*
X144977676Y-68721000D01*
X144868169Y-68701691D01*
X144771871Y-68646093D01*
X144700395Y-68560912D01*
X144657500Y-68400824D01*
X144657500Y-67216176D01*
X144676809Y-67106669D01*
X144732407Y-67010371D01*
X144817588Y-66938895D01*
X144977676Y-66896000D01*
X146487324Y-66896000D01*
X146596831Y-66915309D01*
X146596831Y-66915309D01*
G37*
D12*
X145732500Y-67808500D03*
D11*
G36*
X146596831Y-63940309D02*
G01*
X146693129Y-63995907D01*
X146764605Y-64081088D01*
X146807500Y-64241176D01*
X146807500Y-65425824D01*
X146788191Y-65535331D01*
X146732593Y-65631629D01*
X146647412Y-65703105D01*
X146487324Y-65746000D01*
X144977676Y-65746000D01*
X144868169Y-65726691D01*
X144771871Y-65671093D01*
X144700395Y-65585912D01*
X144657500Y-65425824D01*
X144657500Y-64241176D01*
X144676809Y-64131669D01*
X144732407Y-64035371D01*
X144817588Y-63963895D01*
X144977676Y-63921000D01*
X146487324Y-63921000D01*
X146596831Y-63940309D01*
X146596831Y-63940309D01*
G37*
D12*
X145732500Y-64833500D03*
D31*
X63500000Y-141605000D03*
X147955000Y-141605000D03*
X147828000Y-57150000D03*
X63500000Y-57150000D03*
D11*
G36*
X108004290Y-75320321D02*
G01*
X108105635Y-75378833D01*
X108180856Y-75468478D01*
X108226000Y-75636956D01*
X108226000Y-76763044D01*
X108205679Y-76878290D01*
X108147167Y-76979635D01*
X108057522Y-77054856D01*
X107889044Y-77100000D01*
X107012956Y-77100000D01*
X106897710Y-77079679D01*
X106796365Y-77021167D01*
X106721144Y-76931522D01*
X106676000Y-76763044D01*
X106676000Y-75636956D01*
X106696321Y-75521710D01*
X106754833Y-75420365D01*
X106844478Y-75345144D01*
X107012956Y-75300000D01*
X107889044Y-75300000D01*
X108004290Y-75320321D01*
X108004290Y-75320321D01*
G37*
D19*
X107451000Y-76200000D03*
D11*
G36*
X105954290Y-75320321D02*
G01*
X106055635Y-75378833D01*
X106130856Y-75468478D01*
X106176000Y-75636956D01*
X106176000Y-76763044D01*
X106155679Y-76878290D01*
X106097167Y-76979635D01*
X106007522Y-77054856D01*
X105839044Y-77100000D01*
X104962956Y-77100000D01*
X104847710Y-77079679D01*
X104746365Y-77021167D01*
X104671144Y-76931522D01*
X104626000Y-76763044D01*
X104626000Y-75636956D01*
X104646321Y-75521710D01*
X104704833Y-75420365D01*
X104794478Y-75345144D01*
X104962956Y-75300000D01*
X105839044Y-75300000D01*
X105954290Y-75320321D01*
X105954290Y-75320321D01*
G37*
D19*
X105401000Y-76200000D03*
D11*
G36*
X93762290Y-104784321D02*
G01*
X93863635Y-104842833D01*
X93938856Y-104932478D01*
X93984000Y-105100956D01*
X93984000Y-106227044D01*
X93963679Y-106342290D01*
X93905167Y-106443635D01*
X93815522Y-106518856D01*
X93647044Y-106564000D01*
X92770956Y-106564000D01*
X92655710Y-106543679D01*
X92554365Y-106485167D01*
X92479144Y-106395522D01*
X92434000Y-106227044D01*
X92434000Y-105100956D01*
X92454321Y-104985710D01*
X92512833Y-104884365D01*
X92602478Y-104809144D01*
X92770956Y-104764000D01*
X93647044Y-104764000D01*
X93762290Y-104784321D01*
X93762290Y-104784321D01*
G37*
D19*
X93209000Y-105664000D03*
D11*
G36*
X95812290Y-104784321D02*
G01*
X95913635Y-104842833D01*
X95988856Y-104932478D01*
X96034000Y-105100956D01*
X96034000Y-106227044D01*
X96013679Y-106342290D01*
X95955167Y-106443635D01*
X95865522Y-106518856D01*
X95697044Y-106564000D01*
X94820956Y-106564000D01*
X94705710Y-106543679D01*
X94604365Y-106485167D01*
X94529144Y-106395522D01*
X94484000Y-106227044D01*
X94484000Y-105100956D01*
X94504321Y-104985710D01*
X94562833Y-104884365D01*
X94652478Y-104809144D01*
X94820956Y-104764000D01*
X95697044Y-104764000D01*
X95812290Y-104784321D01*
X95812290Y-104784321D01*
G37*
D19*
X95259000Y-105664000D03*
D32*
X85217000Y-100298500D03*
X85217000Y-94773500D03*
D33*
X115316000Y-64659000D03*
X116266000Y-66659000D03*
X114366000Y-66659000D03*
D34*
X93485000Y-80105000D03*
X93985000Y-80105000D03*
X94485000Y-80105000D03*
X94985000Y-80105000D03*
X95485000Y-80105000D03*
X95985000Y-80105000D03*
X96485000Y-80105000D03*
X96985000Y-80105000D03*
X97485000Y-80105000D03*
X97985000Y-80105000D03*
X98485000Y-80105000D03*
X98985000Y-80105000D03*
X99485000Y-80105000D03*
X99985000Y-80105000D03*
X100485000Y-80105000D03*
X100985000Y-80105000D03*
X101485000Y-80105000D03*
X101985000Y-80105000D03*
X102485000Y-80105000D03*
X102985000Y-80105000D03*
X103485000Y-80105000D03*
X103985000Y-80105000D03*
X104485000Y-80105000D03*
X104985000Y-80105000D03*
X105485000Y-80105000D03*
X105985000Y-80105000D03*
X106485000Y-80105000D03*
X106985000Y-80105000D03*
X107485000Y-80105000D03*
X107985000Y-80105000D03*
X108485000Y-80105000D03*
X108985000Y-80105000D03*
X109485000Y-80105000D03*
X109985000Y-80105000D03*
X110485000Y-80105000D03*
X110985000Y-80105000D03*
D35*
X112935000Y-82055000D03*
X112935000Y-82555000D03*
X112935000Y-83055000D03*
X112935000Y-83555000D03*
X112935000Y-84055000D03*
X112935000Y-84555000D03*
X112935000Y-85055000D03*
X112935000Y-85555000D03*
X112935000Y-86055000D03*
X112935000Y-86555000D03*
X112935000Y-87055000D03*
X112935000Y-87555000D03*
X112935000Y-88055000D03*
X112935000Y-88555000D03*
X112935000Y-89055000D03*
X112935000Y-89555000D03*
X112935000Y-90055000D03*
X112935000Y-90555000D03*
X112935000Y-91055000D03*
X112935000Y-91555000D03*
X112935000Y-92055000D03*
X112935000Y-92555000D03*
X112935000Y-93055000D03*
X112935000Y-93555000D03*
X112935000Y-94055000D03*
X112935000Y-94555000D03*
X112935000Y-95055000D03*
X112935000Y-95555000D03*
X112935000Y-96055000D03*
X112935000Y-96555000D03*
X112935000Y-97055000D03*
X112935000Y-97555000D03*
X112935000Y-98055000D03*
X112935000Y-98555000D03*
X112935000Y-99055000D03*
X112935000Y-99555000D03*
D34*
X110985000Y-101505000D03*
X110485000Y-101505000D03*
X109985000Y-101505000D03*
X109485000Y-101505000D03*
X108985000Y-101505000D03*
X108485000Y-101505000D03*
X107985000Y-101505000D03*
X107485000Y-101505000D03*
X106985000Y-101505000D03*
X106485000Y-101505000D03*
X105985000Y-101505000D03*
X105485000Y-101505000D03*
X104985000Y-101505000D03*
X104485000Y-101505000D03*
X103985000Y-101505000D03*
X103485000Y-101505000D03*
X102985000Y-101505000D03*
X102485000Y-101505000D03*
X101985000Y-101505000D03*
X101485000Y-101505000D03*
X100985000Y-101505000D03*
X100485000Y-101505000D03*
X99985000Y-101505000D03*
X99485000Y-101505000D03*
X98985000Y-101505000D03*
X98485000Y-101505000D03*
X97985000Y-101505000D03*
X97485000Y-101505000D03*
X96985000Y-101505000D03*
X96485000Y-101505000D03*
X95985000Y-101505000D03*
X95485000Y-101505000D03*
X94985000Y-101505000D03*
X94485000Y-101505000D03*
X93985000Y-101505000D03*
X93485000Y-101505000D03*
D35*
X91535000Y-99555000D03*
X91535000Y-99055000D03*
X91535000Y-98555000D03*
X91535000Y-98055000D03*
X91535000Y-97555000D03*
X91535000Y-97055000D03*
X91535000Y-96555000D03*
X91535000Y-96055000D03*
X91535000Y-95555000D03*
X91535000Y-95055000D03*
X91535000Y-94555000D03*
X91535000Y-94055000D03*
X91535000Y-93555000D03*
X91535000Y-93055000D03*
X91535000Y-92555000D03*
X91535000Y-92055000D03*
X91535000Y-91555000D03*
X91535000Y-91055000D03*
X91535000Y-90555000D03*
X91535000Y-90055000D03*
X91535000Y-89555000D03*
X91535000Y-89055000D03*
X91535000Y-88555000D03*
X91535000Y-88055000D03*
X91535000Y-87555000D03*
X91535000Y-87055000D03*
X91535000Y-86555000D03*
X91535000Y-86055000D03*
X91535000Y-85555000D03*
X91535000Y-85055000D03*
X91535000Y-84555000D03*
X91535000Y-84055000D03*
X91535000Y-83555000D03*
X91535000Y-83055000D03*
X91535000Y-82555000D03*
X91535000Y-82055000D03*
D36*
X132002000Y-50994000D03*
X133682000Y-50994000D03*
D37*
X129342000Y-51074000D03*
X136342000Y-51074000D03*
D38*
X129842000Y-53574000D03*
X135842000Y-53574000D03*
D39*
X131542000Y-54654000D03*
X132192000Y-54654000D03*
X132842000Y-54654000D03*
X133492000Y-54654000D03*
X134142000Y-54654000D03*
D40*
X104330500Y-63754000D03*
X103060500Y-63754000D03*
X101790500Y-63754000D03*
X100520500Y-63754000D03*
X99250500Y-63754000D03*
X97980500Y-63754000D03*
X96710500Y-63754000D03*
X95440500Y-63754000D03*
D41*
X136969500Y-57682000D03*
X136969500Y-60682000D03*
D42*
X117324000Y-69215000D03*
X114324000Y-69215000D03*
D43*
X116774000Y-75057000D03*
X114874000Y-75057000D03*
D44*
X116824000Y-72771000D03*
X114824000Y-72771000D03*
D45*
X81915000Y-96504000D03*
X81915000Y-94504000D03*
X81915000Y-98314000D03*
X81915000Y-100314000D03*
D44*
X113014000Y-104394000D03*
X111014000Y-104394000D03*
D45*
X117094000Y-80470500D03*
X117094000Y-82470500D03*
X142684500Y-66913000D03*
X142684500Y-64913000D03*
X108204000Y-66913000D03*
X108204000Y-64913000D03*
D43*
X112075000Y-69215000D03*
X110175000Y-69215000D03*
D46*
X122590000Y-51678000D03*
X122590000Y-61178000D03*
X118090000Y-51678000D03*
X118090000Y-61178000D03*
X108296000Y-61225000D03*
X108296000Y-51725000D03*
X112796000Y-61225000D03*
X112796000Y-51725000D03*
D45*
X99187000Y-75073000D03*
X99187000Y-77073000D03*
X116332000Y-89900000D03*
X116332000Y-87900000D03*
D44*
X104410000Y-104775000D03*
X106410000Y-104775000D03*
D45*
X88900000Y-89170000D03*
X88900000Y-91170000D03*
X88900000Y-96155000D03*
X88900000Y-98155000D03*
D44*
X121269000Y-66040000D03*
X119269000Y-66040000D03*
D47*
X89619000Y-52705000D03*
X87419000Y-52705000D03*
X85428000Y-52705000D03*
X83228000Y-52705000D03*
X81237000Y-52705000D03*
X79037000Y-52705000D03*
X77046000Y-52705000D03*
X74846000Y-52705000D03*
D48*
X89154000Y-57978000D03*
X89154000Y-59878000D03*
X86741000Y-57978000D03*
X86741000Y-59878000D03*
X84328000Y-57978000D03*
X84328000Y-59878000D03*
X81788000Y-57978000D03*
X81788000Y-59878000D03*
D49*
X139357500Y-67895500D03*
X139357500Y-63295500D03*
X139357500Y-65595500D03*
D50*
X133057500Y-65595500D03*
D16*
X128270000Y-76200000D03*
D15*
X128270000Y-78740000D03*
X128270000Y-81280000D03*
X128270000Y-83820000D03*
X128270000Y-86360000D03*
X128270000Y-88900000D03*
M02*
