  0
SECTION
  2
HEADER
  9
$ANGBASE
  50
0.0
  9
$ANGDIR
  70
  1
  9
$MEASUREMENT
  70
0
  0
ENDSEC
  0
SECTION
  2
TABLES
  0
TABLE
  2
LTYPE
  70
4
  0
LTYPE
  5
40F
  2
CONTINUOUS
  70
0
  3
Solid line
  72
65
  73
0
  40
0.0
  0
LTYPE
  5
410
  2
DASHDOT
 70
0
  3
Dash Dot ____ _ ____ _
 72
65
 73
4
 40
2.0
 49
1.25
 49
-0.25
 49
0.25
 49
-0.25
  0
LTYPE
  5
411
  2
DASHED
 70
0
  3
Dashed __ __ __ __ __
 72
65
 73
2
 40
0.75
 49
0.5
 49
-0.25
  0
LTYPE
  5
43B
  2
DOTTED
 70
0
  3
Dotted .  .  .  .
 72
65
 73
2
 40
0.2
 49
0.0
 49
-0.2
  0
ENDTAB
  0
TABLE
  2
STYLE
  70
4
  0
STYLE
  2
KICAD
  70
0
  40
0
  41
1
  42
1
  50
0
  71
0
  3
isocp.shx
  0
STYLE
  2
KICADB
  70
0
  40
0
  41
1
  42
1
  50
0
  71
0
  3
isocp.shx
  0
STYLE
  2
KICADI
  70
0
  40
0
  41
1
  42
1
  50
15
  71
0
  3
isocp.shx
  0
STYLE
  2
KICADBI
  70
0
  40
0
  41
1
  42
1
  50
15
  71
0
  3
isocp.shx
  0
ENDTAB
  0
TABLE
  2
LAYER
  70
30
  0
LAYER
  2
BLACK
  70
0
  62
7
  6
CONTINUOUS
  0
LAYER
  2
GRAY1
  70
0
  62
251
  6
CONTINUOUS
  0
LAYER
  2
GRAY2
  70
0
  62
8
  6
CONTINUOUS
  0
LAYER
  2
GRAY3
  70
0
  62
9
  6
CONTINUOUS
  0
LAYER
  2
WHITE
  70
0
  62
7
  6
CONTINUOUS
  0
LAYER
  2
LYELLOW
  70
0
  62
51
  6
CONTINUOUS
  0
LAYER
  2
BLUE1
  70
0
  62
178
  6
CONTINUOUS
  0
LAYER
  2
GREEN1
  70
0
  62
98
  6
CONTINUOUS
  0
LAYER
  2
CYAN1
  70
0
  62
138
  6
CONTINUOUS
  0
LAYER
  2
RED1
  70
0
  62
18
  6
CONTINUOUS
  0
LAYER
  2
MAGENTA1
  70
0
  62
228
  6
CONTINUOUS
  0
LAYER
  2
BROWN1
  70
0
  62
58
  6
CONTINUOUS
  0
LAYER
  2
BLUE2
  70
0
  62
5
  6
CONTINUOUS
  0
LAYER
  2
GREEN2
  70
0
  62
3
  6
CONTINUOUS
  0
LAYER
  2
CYAN2
  70
0
  62
4
  6
CONTINUOUS
  0
LAYER
  2
RED2
  70
0
  62
1
  6
CONTINUOUS
  0
LAYER
  2
MAGENTA2
  70
0
  62
6
  6
CONTINUOUS
  0
LAYER
  2
BROWN2
  70
0
  62
54
  6
CONTINUOUS
  0
LAYER
  2
BLUE3
  70
0
  62
171
  6
CONTINUOUS
  0
LAYER
  2
GREEN3
  70
0
  62
91
  6
CONTINUOUS
  0
LAYER
  2
CYAN3
  70
0
  62
131
  6
CONTINUOUS
  0
LAYER
  2
RED3
  70
0
  62
11
  6
CONTINUOUS
  0
LAYER
  2
MAGENTA3
  70
0
  62
221
  6
CONTINUOUS
  0
LAYER
  2
YELLOW3
  70
0
  62
2
  6
CONTINUOUS
  0
LAYER
  2
BLUE4
  70
0
  62
5
  6
CONTINUOUS
  0
LAYER
  2
GREEN4
  70
0
  62
3
  6
CONTINUOUS
  0
LAYER
  2
CYAN4
  70
0
  62
4
  6
CONTINUOUS
  0
LAYER
  2
RED4
  70
0
  62
1
  6
CONTINUOUS
  0
LAYER
  2
MAGENTA4
  70
0
  62
6
  6
CONTINUOUS
  0
LAYER
  2
YELLOW4
  70
0
  62
2
  6
CONTINUOUS
  0
ENDTAB
  0
ENDSEC
  0
SECTION
  2
ENTITIES
0
LINE
8
BLACK
6
CONTINUOUS
10
5.87115
20
-4.7832
11
5.87382
21
-4.78533
0
LINE
8
BLACK
6
CONTINUOUS
10
5.87382
20
-4.78533
11
5.8753
21
-4.7884
0
LINE
8
BLACK
6
CONTINUOUS
10
5.8753
20
-4.7884
11
5.87549
21
-4.79011
0
LINE
8
BLACK
6
CONTINUOUS
10
5.87549
20
-4.79011
11
5.87549
21
-4.81989
0
LINE
8
BLACK
6
CONTINUOUS
10
5.87549
20
-4.81989
11
5.87473
21
-4.82322
0
LINE
8
BLACK
6
CONTINUOUS
10
5.87473
20
-4.82322
11
5.8726
21
-4.82589
0
LINE
8
BLACK
6
CONTINUOUS
10
5.8726
20
-4.82589
11
5.86953
21
-4.82737
0
LINE
8
BLACK
6
CONTINUOUS
10
5.86953
20
-4.82737
11
5.86782
21
-4.82756
0
LINE
8
BLACK
6
CONTINUOUS
10
5.86782
20
-4.82756
11
5.84789
21
-4.82756
0
LINE
8
BLACK
6
CONTINUOUS
10
5.84789
20
-4.82756
11
5.84456
21
-4.8268
0
LINE
8
BLACK
6
CONTINUOUS
10
5.84456
20
-4.8268
11
5.84189
21
-4.82467
0
LINE
8
BLACK
6
CONTINUOUS
10
5.84189
20
-4.82467
11
5.84041
21
-4.8216
0
LINE
8
BLACK
6
CONTINUOUS
10
5.84041
20
-4.8216
11
5.84022
21
-4.81989
0
LINE
8
BLACK
6
CONTINUOUS
10
5.84022
20
-4.81989
11
5.84022
21
-4.79011
0
LINE
8
BLACK
6
CONTINUOUS
10
5.84022
20
-4.79011
11
5.84098
21
-4.78678
0
LINE
8
BLACK
6
CONTINUOUS
10
5.84098
20
-4.78678
11
5.8431
21
-4.78411
0
LINE
8
BLACK
6
CONTINUOUS
10
5.8431
20
-4.78411
11
5.84618
21
-4.78263
0
LINE
8
BLACK
6
CONTINUOUS
10
5.84618
20
-4.78263
11
5.84789
21
-4.78244
0
LINE
8
BLACK
6
CONTINUOUS
10
5.84789
20
-4.78244
11
5.86782
21
-4.78244
0
LINE
8
BLACK
6
CONTINUOUS
10
5.86782
20
-4.78244
11
5.87115
21
-4.7832
0
LINE
8
BLACK
6
CONTINUOUS
10
5.79044
20
-4.7832
11
5.79311
21
-4.78533
0
LINE
8
BLACK
6
CONTINUOUS
10
5.79311
20
-4.78533
11
5.79459
21
-4.7884
0
LINE
8
BLACK
6
CONTINUOUS
10
5.79459
20
-4.7884
11
5.79478
21
-4.79011
0
LINE
8
BLACK
6
CONTINUOUS
10
5.79478
20
-4.79011
11
5.79478
21
-4.81989
0
LINE
8
BLACK
6
CONTINUOUS
10
5.79478
20
-4.81989
11
5.79402
21
-4.82322
0
LINE
8
BLACK
6
CONTINUOUS
10
5.79402
20
-4.82322
11
5.7919
21
-4.82589
0
LINE
8
BLACK
6
CONTINUOUS
10
5.7919
20
-4.82589
11
5.78882
21
-4.82737
0
LINE
8
BLACK
6
CONTINUOUS
10
5.78882
20
-4.82737
11
5.78711
21
-4.82756
0
LINE
8
BLACK
6
CONTINUOUS
10
5.78711
20
-4.82756
11
5.76718
21
-4.82756
0
LINE
8
BLACK
6
CONTINUOUS
10
5.76718
20
-4.82756
11
5.76385
21
-4.8268
0
LINE
8
BLACK
6
CONTINUOUS
10
5.76385
20
-4.8268
11
5.76118
21
-4.82467
0
LINE
8
BLACK
6
CONTINUOUS
10
5.76118
20
-4.82467
11
5.7597
21
-4.8216
0
LINE
8
BLACK
6
CONTINUOUS
10
5.7597
20
-4.8216
11
5.75951
21
-4.81989
0
LINE
8
BLACK
6
CONTINUOUS
10
5.75951
20
-4.81989
11
5.75951
21
-4.79011
0
LINE
8
BLACK
6
CONTINUOUS
10
5.75951
20
-4.79011
11
5.76027
21
-4.78678
0
LINE
8
BLACK
6
CONTINUOUS
10
5.76027
20
-4.78678
11
5.7624
21
-4.78411
0
LINE
8
BLACK
6
CONTINUOUS
10
5.7624
20
-4.78411
11
5.76547
21
-4.78263
0
LINE
8
BLACK
6
CONTINUOUS
10
5.76547
20
-4.78263
11
5.76718
21
-4.78244
0
LINE
8
BLACK
6
CONTINUOUS
10
5.76718
20
-4.78244
11
5.78711
21
-4.78244
0
LINE
8
BLACK
6
CONTINUOUS
10
5.78711
20
-4.78244
11
5.79044
21
-4.7832
0
LINE
8
BLACK
6
CONTINUOUS
10
4.53572
20
-4.74098
11
4.53839
21
-4.7431
0
LINE
8
BLACK
6
CONTINUOUS
10
4.53839
20
-4.7431
11
4.53987
21
-4.74618
0
LINE
8
BLACK
6
CONTINUOUS
10
4.53987
20
-4.74618
11
4.54006
21
-4.74789
0
LINE
8
BLACK
6
CONTINUOUS
10
4.54006
20
-4.74789
11
4.54006
21
-4.76782
0
LINE
8
BLACK
6
CONTINUOUS
10
4.54006
20
-4.76782
11
4.5393
21
-4.77115
0
LINE
8
BLACK
6
CONTINUOUS
10
4.5393
20
-4.77115
11
4.53717
21
-4.77382
0
LINE
8
BLACK
6
CONTINUOUS
10
4.53717
20
-4.77382
11
4.5341
21
-4.7753
0
LINE
8
BLACK
6
CONTINUOUS
10
4.5341
20
-4.7753
11
4.53239
21
-4.77549
0
LINE
8
BLACK
6
CONTINUOUS
10
4.53239
20
-4.77549
11
4.50261
21
-4.77549
0
LINE
8
BLACK
6
CONTINUOUS
10
4.50261
20
-4.77549
11
4.49928
21
-4.77473
0
LINE
8
BLACK
6
CONTINUOUS
10
4.49928
20
-4.77473
11
4.49661
21
-4.7726
0
LINE
8
BLACK
6
CONTINUOUS
10
4.49661
20
-4.7726
11
4.49513
21
-4.76953
0
LINE
8
BLACK
6
CONTINUOUS
10
4.49513
20
-4.76953
11
4.49494
21
-4.76782
0
LINE
8
BLACK
6
CONTINUOUS
10
4.49494
20
-4.76782
11
4.49494
21
-4.74789
0
LINE
8
BLACK
6
CONTINUOUS
10
4.49494
20
-4.74789
11
4.4957
21
-4.74456
0
LINE
8
BLACK
6
CONTINUOUS
10
4.4957
20
-4.74456
11
4.49783
21
-4.74189
0
LINE
8
BLACK
6
CONTINUOUS
10
4.49783
20
-4.74189
11
4.5009
21
-4.74041
0
LINE
8
BLACK
6
CONTINUOUS
10
4.5009
20
-4.74041
11
4.50261
21
-4.74022
0
LINE
8
BLACK
6
CONTINUOUS
10
4.50261
20
-4.74022
11
4.53239
21
-4.74022
0
LINE
8
BLACK
6
CONTINUOUS
10
4.53239
20
-4.74022
11
4.53572
21
-4.74098
0
LINE
8
BLACK
6
CONTINUOUS
10
4.53572
20
-4.66027
11
4.53839
21
-4.6624
0
LINE
8
BLACK
6
CONTINUOUS
10
4.53839
20
-4.6624
11
4.53987
21
-4.66547
0
LINE
8
BLACK
6
CONTINUOUS
10
4.53987
20
-4.66547
11
4.54006
21
-4.66718
0
LINE
8
BLACK
6
CONTINUOUS
10
4.54006
20
-4.66718
11
4.54006
21
-4.68711
0
LINE
8
BLACK
6
CONTINUOUS
10
4.54006
20
-4.68711
11
4.5393
21
-4.69044
0
LINE
8
BLACK
6
CONTINUOUS
10
4.5393
20
-4.69044
11
4.53717
21
-4.69311
0
LINE
8
BLACK
6
CONTINUOUS
10
4.53717
20
-4.69311
11
4.5341
21
-4.69459
0
LINE
8
BLACK
6
CONTINUOUS
10
4.5341
20
-4.69459
11
4.53239
21
-4.69478
0
LINE
8
BLACK
6
CONTINUOUS
10
4.53239
20
-4.69478
11
4.50261
21
-4.69478
0
LINE
8
BLACK
6
CONTINUOUS
10
4.50261
20
-4.69478
11
4.49928
21
-4.69402
0
LINE
8
BLACK
6
CONTINUOUS
10
4.49928
20
-4.69402
11
4.49661
21
-4.6919
0
LINE
8
BLACK
6
CONTINUOUS
10
4.49661
20
-4.6919
11
4.49513
21
-4.68882
0
LINE
8
BLACK
6
CONTINUOUS
10
4.49513
20
-4.68882
11
4.49494
21
-4.68711
0
LINE
8
BLACK
6
CONTINUOUS
10
4.49494
20
-4.68711
11
4.49494
21
-4.66718
0
LINE
8
BLACK
6
CONTINUOUS
10
4.49494
20
-4.66718
11
4.4957
21
-4.66385
0
LINE
8
BLACK
6
CONTINUOUS
10
4.4957
20
-4.66385
11
4.49783
21
-4.66118
0
LINE
8
BLACK
6
CONTINUOUS
10
4.49783
20
-4.66118
11
4.5009
21
-4.6597
0
LINE
8
BLACK
6
CONTINUOUS
10
4.5009
20
-4.6597
11
4.50261
21
-4.65951
0
LINE
8
BLACK
6
CONTINUOUS
10
4.50261
20
-4.65951
11
4.53239
21
-4.65951
0
LINE
8
BLACK
6
CONTINUOUS
10
4.53239
20
-4.65951
11
4.53572
21
-4.66027
0
LINE
8
BLACK
6
CONTINUOUS
10
4.68822
20
-4.64883
11
4.69089
21
-4.65096
0
LINE
8
BLACK
6
CONTINUOUS
10
4.69089
20
-4.65096
11
4.69237
21
-4.65403
0
LINE
8
BLACK
6
CONTINUOUS
10
4.69237
20
-4.65403
11
4.69256
21
-4.65574
0
LINE
8
BLACK
6
CONTINUOUS
10
4.69256
20
-4.65574
11
4.69256
21
-4.67568
0
LINE
8
BLACK
6
CONTINUOUS
10
4.69256
20
-4.67568
11
4.6918
21
-4.67901
0
LINE
8
BLACK
6
CONTINUOUS
10
4.6918
20
-4.67901
11
4.68967
21
-4.68167
0
LINE
8
BLACK
6
CONTINUOUS
10
4.68967
20
-4.68167
11
4.6866
21
-4.68315
0
LINE
8
BLACK
6
CONTINUOUS
10
4.6866
20
-4.68315
11
4.68489
21
-4.68335
0
LINE
8
BLACK
6
CONTINUOUS
10
4.68489
20
-4.68335
11
4.65511
21
-4.68335
0
LINE
8
BLACK
6
CONTINUOUS
10
4.65511
20
-4.68335
11
4.65178
21
-4.68259
0
LINE
8
BLACK
6
CONTINUOUS
10
4.65178
20
-4.68259
11
4.64911
21
-4.68046
0
LINE
8
BLACK
6
CONTINUOUS
10
4.64911
20
-4.68046
11
4.64763
21
-4.67738
0
LINE
8
BLACK
6
CONTINUOUS
10
4.64763
20
-4.67738
11
4.64744
21
-4.67568
0
LINE
8
BLACK
6
CONTINUOUS
10
4.64744
20
-4.67568
11
4.64744
21
-4.65574
0
LINE
8
BLACK
6
CONTINUOUS
10
4.64744
20
-4.65574
11
4.6482
21
-4.65241
0
LINE
8
BLACK
6
CONTINUOUS
10
4.6482
20
-4.65241
11
4.65033
21
-4.64974
0
LINE
8
BLACK
6
CONTINUOUS
10
4.65033
20
-4.64974
11
4.6534
21
-4.64826
0
LINE
8
BLACK
6
CONTINUOUS
10
4.6534
20
-4.64826
11
4.65511
21
-4.64807
0
LINE
8
BLACK
6
CONTINUOUS
10
4.65511
20
-4.64807
11
4.68489
21
-4.64807
0
LINE
8
BLACK
6
CONTINUOUS
10
4.68489
20
-4.64807
11
4.68822
21
-4.64883
0
LINE
8
BLACK
6
CONTINUOUS
10
4.76799
20
-4.68248
11
4.7524
21
-4.68248
0
LINE
8
BLACK
6
CONTINUOUS
10
4.7524
20
-4.68248
11
4.7524
21
-4.65075
0
LINE
8
BLACK
6
CONTINUOUS
10
4.7524
20
-4.65075
11
4.76799
21
-4.65075
0
LINE
8
BLACK
6
CONTINUOUS
10
4.76799
20
-4.65075
11
4.76799
21
-4.68248
0
LINE
8
BLACK
6
CONTINUOUS
10
4.80539
20
-4.68248
11
4.7898
21
-4.68248
0
LINE
8
BLACK
6
CONTINUOUS
10
4.7898
20
-4.68248
11
4.7898
21
-4.65075
0
LINE
8
BLACK
6
CONTINUOUS
10
4.7898
20
-4.65075
11
4.80539
21
-4.65075
0
LINE
8
BLACK
6
CONTINUOUS
10
4.80539
20
-4.65075
11
4.80539
21
-4.68248
0
LINE
8
BLACK
6
CONTINUOUS
10
4.8428
20
-4.68248
11
4.8272
21
-4.68248
0
LINE
8
BLACK
6
CONTINUOUS
10
4.8272
20
-4.68248
11
4.8272
21
-4.65075
0
LINE
8
BLACK
6
CONTINUOUS
10
4.8272
20
-4.65075
11
4.8428
21
-4.65075
0
LINE
8
BLACK
6
CONTINUOUS
10
4.8428
20
-4.65075
11
4.8428
21
-4.68248
0
LINE
8
BLACK
6
CONTINUOUS
10
4.68822
20
-4.56812
11
4.69089
21
-4.57025
0
LINE
8
BLACK
6
CONTINUOUS
10
4.69089
20
-4.57025
11
4.69237
21
-4.57332
0
LINE
8
BLACK
6
CONTINUOUS
10
4.69237
20
-4.57332
11
4.69256
21
-4.57503
0
LINE
8
BLACK
6
CONTINUOUS
10
4.69256
20
-4.57503
11
4.69256
21
-4.59497
0
LINE
8
BLACK
6
CONTINUOUS
10
4.69256
20
-4.59497
11
4.6918
21
-4.5983
0
LINE
8
BLACK
6
CONTINUOUS
10
4.6918
20
-4.5983
11
4.68967
21
-4.60096
0
LINE
8
BLACK
6
CONTINUOUS
10
4.68967
20
-4.60096
11
4.6866
21
-4.60245
0
LINE
8
BLACK
6
CONTINUOUS
10
4.6866
20
-4.60245
11
4.68489
21
-4.60264
0
LINE
8
BLACK
6
CONTINUOUS
10
4.68489
20
-4.60264
11
4.65511
21
-4.60264
0
LINE
8
BLACK
6
CONTINUOUS
10
4.65511
20
-4.60264
11
4.65178
21
-4.60188
0
LINE
8
BLACK
6
CONTINUOUS
10
4.65178
20
-4.60188
11
4.64911
21
-4.59975
0
LINE
8
BLACK
6
CONTINUOUS
10
4.64911
20
-4.59975
11
4.64763
21
-4.59668
0
LINE
8
BLACK
6
CONTINUOUS
10
4.64763
20
-4.59668
11
4.64744
21
-4.59497
0
LINE
8
BLACK
6
CONTINUOUS
10
4.64744
20
-4.59497
11
4.64744
21
-4.57503
0
LINE
8
BLACK
6
CONTINUOUS
10
4.64744
20
-4.57503
11
4.6482
21
-4.5717
0
LINE
8
BLACK
6
CONTINUOUS
10
4.6482
20
-4.5717
11
4.65033
21
-4.56904
0
LINE
8
BLACK
6
CONTINUOUS
10
4.65033
20
-4.56904
11
4.6534
21
-4.56755
0
LINE
8
BLACK
6
CONTINUOUS
10
4.6534
20
-4.56755
11
4.65511
21
-4.56736
0
LINE
8
BLACK
6
CONTINUOUS
10
4.65511
20
-4.56736
11
4.68489
21
-4.56736
0
LINE
8
BLACK
6
CONTINUOUS
10
4.68489
20
-4.56736
11
4.68822
21
-4.56812
0
LINE
8
BLACK
6
CONTINUOUS
10
4.8428
20
-4.59587
11
4.8272
21
-4.59587
0
LINE
8
BLACK
6
CONTINUOUS
10
4.8272
20
-4.59587
11
4.8272
21
-4.56413
0
LINE
8
BLACK
6
CONTINUOUS
10
4.8272
20
-4.56413
11
4.8428
21
-4.56413
0
LINE
8
BLACK
6
CONTINUOUS
10
4.8428
20
-4.56413
11
4.8428
21
-4.59587
0
LINE
8
BLACK
6
CONTINUOUS
10
4.76799
20
-4.59587
11
4.7524
21
-4.59587
0
LINE
8
BLACK
6
CONTINUOUS
10
4.7524
20
-4.59587
11
4.7524
21
-4.56413
0
LINE
8
BLACK
6
CONTINUOUS
10
4.7524
20
-4.56413
11
4.76799
21
-4.56413
0
LINE
8
BLACK
6
CONTINUOUS
10
4.76799
20
-4.56413
11
4.76799
21
-4.59587
0
LINE
8
BLACK
6
CONTINUOUS
10
5.33237
20
-4.54381
11
5.33518
21
-4.54606
0
LINE
8
BLACK
6
CONTINUOUS
10
5.33518
20
-4.54606
11
5.33675
21
-4.5493
0
LINE
8
BLACK
6
CONTINUOUS
10
5.33675
20
-4.5493
11
5.33695
21
-4.5511
0
LINE
8
BLACK
6
CONTINUOUS
10
5.33695
20
-4.5511
11
5.33695
21
-4.58103
0
LINE
8
BLACK
6
CONTINUOUS
10
5.33695
20
-4.58103
11
5.33615
21
-4.58454
0
LINE
8
BLACK
6
CONTINUOUS
10
5.33615
20
-4.58454
11
5.3339
21
-4.58735
0
LINE
8
BLACK
6
CONTINUOUS
10
5.3339
20
-4.58735
11
5.33066
21
-4.58891
0
LINE
8
BLACK
6
CONTINUOUS
10
5.33066
20
-4.58891
11
5.32886
21
-4.58911
0
LINE
8
BLACK
6
CONTINUOUS
10
5.32886
20
-4.58911
11
5.28614
21
-4.58911
0
LINE
8
BLACK
6
CONTINUOUS
10
5.28614
20
-4.58911
11
5.28263
21
-4.58831
0
LINE
8
BLACK
6
CONTINUOUS
10
5.28263
20
-4.58831
11
5.27982
21
-4.58607
0
LINE
8
BLACK
6
CONTINUOUS
10
5.27982
20
-4.58607
11
5.27825
21
-4.58283
0
LINE
8
BLACK
6
CONTINUOUS
10
5.27825
20
-4.58283
11
5.27805
21
-4.58103
0
LINE
8
BLACK
6
CONTINUOUS
10
5.27805
20
-4.58103
11
5.27805
21
-4.5511
0
LINE
8
BLACK
6
CONTINUOUS
10
5.27805
20
-4.5511
11
5.27885
21
-4.54759
0
LINE
8
BLACK
6
CONTINUOUS
10
5.27885
20
-4.54759
11
5.2811
21
-4.54478
0
LINE
8
BLACK
6
CONTINUOUS
10
5.2811
20
-4.54478
11
5.28434
21
-4.54321
0
LINE
8
BLACK
6
CONTINUOUS
10
5.28434
20
-4.54321
11
5.28614
21
-4.54301
0
LINE
8
BLACK
6
CONTINUOUS
10
5.28614
20
-4.54301
11
5.32886
21
-4.54301
0
LINE
8
BLACK
6
CONTINUOUS
10
5.32886
20
-4.54301
11
5.33237
21
-4.54381
0
LINE
8
BLACK
6
CONTINUOUS
10
3.76365
20
-4.4832
11
3.76632
21
-4.48533
0
LINE
8
BLACK
6
CONTINUOUS
10
3.76632
20
-4.48533
11
3.7678
21
-4.4884
0
LINE
8
BLACK
6
CONTINUOUS
10
3.7678
20
-4.4884
11
3.76799
21
-4.49011
0
LINE
8
BLACK
6
CONTINUOUS
10
3.76799
20
-4.49011
11
3.76799
21
-4.51989
0
LINE
8
BLACK
6
CONTINUOUS
10
3.76799
20
-4.51989
11
3.76723
21
-4.52322
0
LINE
8
BLACK
6
CONTINUOUS
10
3.76723
20
-4.52322
11
3.7651
21
-4.52589
0
LINE
8
BLACK
6
CONTINUOUS
10
3.7651
20
-4.52589
11
3.76203
21
-4.52737
0
LINE
8
BLACK
6
CONTINUOUS
10
3.76203
20
-4.52737
11
3.76032
21
-4.52756
0
LINE
8
BLACK
6
CONTINUOUS
10
3.76032
20
-4.52756
11
3.74039
21
-4.52756
0
LINE
8
BLACK
6
CONTINUOUS
10
3.74039
20
-4.52756
11
3.73706
21
-4.5268
0
LINE
8
BLACK
6
CONTINUOUS
10
3.73706
20
-4.5268
11
3.73439
21
-4.52467
0
LINE
8
BLACK
6
CONTINUOUS
10
3.73439
20
-4.52467
11
3.73291
21
-4.5216
0
LINE
8
BLACK
6
CONTINUOUS
10
3.73291
20
-4.5216
11
3.73272
21
-4.51989
0
LINE
8
BLACK
6
CONTINUOUS
10
3.73272
20
-4.51989
11
3.73272
21
-4.49011
0
LINE
8
BLACK
6
CONTINUOUS
10
3.73272
20
-4.49011
11
3.73348
21
-4.48678
0
LINE
8
BLACK
6
CONTINUOUS
10
3.73348
20
-4.48678
11
3.7356
21
-4.48411
0
LINE
8
BLACK
6
CONTINUOUS
10
3.7356
20
-4.48411
11
3.73868
21
-4.48263
0
LINE
8
BLACK
6
CONTINUOUS
10
3.73868
20
-4.48263
11
3.74039
21
-4.48244
0
LINE
8
BLACK
6
CONTINUOUS
10
3.74039
20
-4.48244
11
3.76032
21
-4.48244
0
LINE
8
BLACK
6
CONTINUOUS
10
3.76032
20
-4.48244
11
3.76365
21
-4.4832
0
LINE
8
BLACK
6
CONTINUOUS
10
3.68294
20
-4.4832
11
3.68561
21
-4.48533
0
LINE
8
BLACK
6
CONTINUOUS
10
3.68561
20
-4.48533
11
3.68709
21
-4.4884
0
LINE
8
BLACK
6
CONTINUOUS
10
3.68709
20
-4.4884
11
3.68728
21
-4.49011
0
LINE
8
BLACK
6
CONTINUOUS
10
3.68728
20
-4.49011
11
3.68728
21
-4.51989
0
LINE
8
BLACK
6
CONTINUOUS
10
3.68728
20
-4.51989
11
3.68652
21
-4.52322
0
LINE
8
BLACK
6
CONTINUOUS
10
3.68652
20
-4.52322
11
3.6844
21
-4.52589
0
LINE
8
BLACK
6
CONTINUOUS
10
3.6844
20
-4.52589
11
3.68132
21
-4.52737
0
LINE
8
BLACK
6
CONTINUOUS
10
3.68132
20
-4.52737
11
3.67961
21
-4.52756
0
LINE
8
BLACK
6
CONTINUOUS
10
3.67961
20
-4.52756
11
3.65968
21
-4.52756
0
LINE
8
BLACK
6
CONTINUOUS
10
3.65968
20
-4.52756
11
3.65635
21
-4.5268
0
LINE
8
BLACK
6
CONTINUOUS
10
3.65635
20
-4.5268
11
3.65368
21
-4.52467
0
LINE
8
BLACK
6
CONTINUOUS
10
3.65368
20
-4.52467
11
3.6522
21
-4.5216
0
LINE
8
BLACK
6
CONTINUOUS
10
3.6522
20
-4.5216
11
3.65201
21
-4.51989
0
LINE
8
BLACK
6
CONTINUOUS
10
3.65201
20
-4.51989
11
3.65201
21
-4.49011
0
LINE
8
BLACK
6
CONTINUOUS
10
3.65201
20
-4.49011
11
3.65277
21
-4.48678
0
LINE
8
BLACK
6
CONTINUOUS
10
3.65277
20
-4.48678
11
3.6549
21
-4.48411
0
LINE
8
BLACK
6
CONTINUOUS
10
3.6549
20
-4.48411
11
3.65797
21
-4.48263
0
LINE
8
BLACK
6
CONTINUOUS
10
3.65797
20
-4.48263
11
3.65968
21
-4.48244
0
LINE
8
BLACK
6
CONTINUOUS
10
3.65968
20
-4.48244
11
3.67961
21
-4.48244
0
LINE
8
BLACK
6
CONTINUOUS
10
3.67961
20
-4.48244
11
3.68294
21
-4.4832
0
LINE
8
BLACK
6
CONTINUOUS
10
5.33237
20
-4.42669
11
5.33518
21
-4.42893
0
LINE
8
BLACK
6
CONTINUOUS
10
5.33518
20
-4.42893
11
5.33675
21
-4.43217
0
LINE
8
BLACK
6
CONTINUOUS
10
5.33675
20
-4.43217
11
5.33695
21
-4.43397
0
LINE
8
BLACK
6
CONTINUOUS
10
5.33695
20
-4.43397
11
5.33695
21
-4.4639
0
LINE
8
BLACK
6
CONTINUOUS
10
5.33695
20
-4.4639
11
5.33615
21
-4.46741
0
LINE
8
BLACK
6
CONTINUOUS
10
5.33615
20
-4.46741
11
5.3339
21
-4.47022
0
LINE
8
BLACK
6
CONTINUOUS
10
5.3339
20
-4.47022
11
5.33066
21
-4.47179
0
LINE
8
BLACK
6
CONTINUOUS
10
5.33066
20
-4.47179
11
5.32886
21
-4.47199
0
LINE
8
BLACK
6
CONTINUOUS
10
5.32886
20
-4.47199
11
5.28614
21
-4.47199
0
LINE
8
BLACK
6
CONTINUOUS
10
5.28614
20
-4.47199
11
5.28263
21
-4.47119
0
LINE
8
BLACK
6
CONTINUOUS
10
5.28263
20
-4.47119
11
5.27982
21
-4.46894
0
LINE
8
BLACK
6
CONTINUOUS
10
5.27982
20
-4.46894
11
5.27825
21
-4.4657
0
LINE
8
BLACK
6
CONTINUOUS
10
5.27825
20
-4.4657
11
5.27805
21
-4.4639
0
LINE
8
BLACK
6
CONTINUOUS
10
5.27805
20
-4.4639
11
5.27805
21
-4.43397
0
LINE
8
BLACK
6
CONTINUOUS
10
5.27805
20
-4.43397
11
5.27885
21
-4.43046
0
LINE
8
BLACK
6
CONTINUOUS
10
5.27885
20
-4.43046
11
5.2811
21
-4.42765
0
LINE
8
BLACK
6
CONTINUOUS
10
5.2811
20
-4.42765
11
5.28434
21
-4.42609
0
LINE
8
BLACK
6
CONTINUOUS
10
5.28434
20
-4.42609
11
5.28614
21
-4.42589
0
LINE
8
BLACK
6
CONTINUOUS
10
5.28614
20
-4.42589
11
5.32886
21
-4.42589
0
LINE
8
BLACK
6
CONTINUOUS
10
5.32886
20
-4.42589
11
5.33237
21
-4.42669
0
LINE
8
BLACK
6
CONTINUOUS
10
4.69322
20
-4.39812
11
4.69589
21
-4.40025
0
LINE
8
BLACK
6
CONTINUOUS
10
4.69589
20
-4.40025
11
4.69737
21
-4.40332
0
LINE
8
BLACK
6
CONTINUOUS
10
4.69737
20
-4.40332
11
4.69756
21
-4.40503
0
LINE
8
BLACK
6
CONTINUOUS
10
4.69756
20
-4.40503
11
4.69756
21
-4.42497
0
LINE
8
BLACK
6
CONTINUOUS
10
4.69756
20
-4.42497
11
4.6968
21
-4.4283
0
LINE
8
BLACK
6
CONTINUOUS
10
4.6968
20
-4.4283
11
4.69467
21
-4.43096
0
LINE
8
BLACK
6
CONTINUOUS
10
4.69467
20
-4.43096
11
4.6916
21
-4.43245
0
LINE
8
BLACK
6
CONTINUOUS
10
4.6916
20
-4.43245
11
4.68989
21
-4.43264
0
LINE
8
BLACK
6
CONTINUOUS
10
4.68989
20
-4.43264
11
4.66011
21
-4.43264
0
LINE
8
BLACK
6
CONTINUOUS
10
4.66011
20
-4.43264
11
4.65678
21
-4.43188
0
LINE
8
BLACK
6
CONTINUOUS
10
4.65678
20
-4.43188
11
4.65411
21
-4.42975
0
LINE
8
BLACK
6
CONTINUOUS
10
4.65411
20
-4.42975
11
4.65263
21
-4.42668
0
LINE
8
BLACK
6
CONTINUOUS
10
4.65263
20
-4.42668
11
4.65244
21
-4.42497
0
LINE
8
BLACK
6
CONTINUOUS
10
4.65244
20
-4.42497
11
4.65244
21
-4.40503
0
LINE
8
BLACK
6
CONTINUOUS
10
4.65244
20
-4.40503
11
4.6532
21
-4.4017
0
LINE
8
BLACK
6
CONTINUOUS
10
4.6532
20
-4.4017
11
4.65533
21
-4.39904
0
LINE
8
BLACK
6
CONTINUOUS
10
4.65533
20
-4.39904
11
4.6584
21
-4.39755
0
LINE
8
BLACK
6
CONTINUOUS
10
4.6584
20
-4.39755
11
4.66011
21
-4.39736
0
LINE
8
BLACK
6
CONTINUOUS
10
4.66011
20
-4.39736
11
4.68989
21
-4.39736
0
LINE
8
BLACK
6
CONTINUOUS
10
4.68989
20
-4.39736
11
4.69322
21
-4.39812
0
LINE
8
BLACK
6
CONTINUOUS
10
4.8452
20
-4.43167
11
4.82961
21
-4.43167
0
LINE
8
BLACK
6
CONTINUOUS
10
4.82961
20
-4.43167
11
4.82961
21
-4.39994
0
LINE
8
BLACK
6
CONTINUOUS
10
4.82961
20
-4.39994
11
4.8452
21
-4.39994
0
LINE
8
BLACK
6
CONTINUOUS
10
4.8452
20
-4.39994
11
4.8452
21
-4.43167
0
LINE
8
BLACK
6
CONTINUOUS
10
4.8078
20
-4.43167
11
4.7922
21
-4.43167
0
LINE
8
BLACK
6
CONTINUOUS
10
4.7922
20
-4.43167
11
4.7922
21
-4.39994
0
LINE
8
BLACK
6
CONTINUOUS
10
4.7922
20
-4.39994
11
4.8078
21
-4.39994
0
LINE
8
BLACK
6
CONTINUOUS
10
4.8078
20
-4.39994
11
4.8078
21
-4.43167
0
LINE
8
BLACK
6
CONTINUOUS
10
4.77039
20
-4.43167
11
4.7548
21
-4.43167
0
LINE
8
BLACK
6
CONTINUOUS
10
4.7548
20
-4.43167
11
4.7548
21
-4.39994
0
LINE
8
BLACK
6
CONTINUOUS
10
4.7548
20
-4.39994
11
4.77039
21
-4.39994
0
LINE
8
BLACK
6
CONTINUOUS
10
4.77039
20
-4.39994
11
4.77039
21
-4.43167
0
LINE
8
BLACK
6
CONTINUOUS
10
3.68044
20
-4.3382
11
3.68311
21
-4.34033
0
LINE
8
BLACK
6
CONTINUOUS
10
3.68311
20
-4.34033
11
3.68459
21
-4.3434
0
LINE
8
BLACK
6
CONTINUOUS
10
3.68459
20
-4.3434
11
3.68478
21
-4.34511
0
LINE
8
BLACK
6
CONTINUOUS
10
3.68478
20
-4.34511
11
3.68478
21
-4.37489
0
LINE
8
BLACK
6
CONTINUOUS
10
3.68478
20
-4.37489
11
3.68402
21
-4.37822
0
LINE
8
BLACK
6
CONTINUOUS
10
3.68402
20
-4.37822
11
3.6819
21
-4.38089
0
LINE
8
BLACK
6
CONTINUOUS
10
3.6819
20
-4.38089
11
3.67882
21
-4.38237
0
LINE
8
BLACK
6
CONTINUOUS
10
3.67882
20
-4.38237
11
3.67711
21
-4.38256
0
LINE
8
BLACK
6
CONTINUOUS
10
3.67711
20
-4.38256
11
3.65718
21
-4.38256
0
LINE
8
BLACK
6
CONTINUOUS
10
3.65718
20
-4.38256
11
3.65385
21
-4.3818
0
LINE
8
BLACK
6
CONTINUOUS
10
3.65385
20
-4.3818
11
3.65118
21
-4.37967
0
LINE
8
BLACK
6
CONTINUOUS
10
3.65118
20
-4.37967
11
3.6497
21
-4.3766
0
LINE
8
BLACK
6
CONTINUOUS
10
3.6497
20
-4.3766
11
3.64951
21
-4.37489
0
LINE
8
BLACK
6
CONTINUOUS
10
3.64951
20
-4.37489
11
3.64951
21
-4.34511
0
LINE
8
BLACK
6
CONTINUOUS
10
3.64951
20
-4.34511
11
3.65027
21
-4.34178
0
LINE
8
BLACK
6
CONTINUOUS
10
3.65027
20
-4.34178
11
3.6524
21
-4.33911
0
LINE
8
BLACK
6
CONTINUOUS
10
3.6524
20
-4.33911
11
3.65547
21
-4.33763
0
LINE
8
BLACK
6
CONTINUOUS
10
3.65547
20
-4.33763
11
3.65718
21
-4.33744
0
LINE
8
BLACK
6
CONTINUOUS
10
3.65718
20
-4.33744
11
3.67711
21
-4.33744
0
LINE
8
BLACK
6
CONTINUOUS
10
3.67711
20
-4.33744
11
3.68044
21
-4.3382
0
LINE
8
BLACK
6
CONTINUOUS
10
3.76115
20
-4.3382
11
3.76382
21
-4.34033
0
LINE
8
BLACK
6
CONTINUOUS
10
3.76382
20
-4.34033
11
3.7653
21
-4.3434
0
LINE
8
BLACK
6
CONTINUOUS
10
3.7653
20
-4.3434
11
3.76549
21
-4.34511
0
LINE
8
BLACK
6
CONTINUOUS
10
3.76549
20
-4.34511
11
3.76549
21
-4.37489
0
LINE
8
BLACK
6
CONTINUOUS
10
3.76549
20
-4.37489
11
3.76473
21
-4.37822
0
LINE
8
BLACK
6
CONTINUOUS
10
3.76473
20
-4.37822
11
3.7626
21
-4.38089
0
LINE
8
BLACK
6
CONTINUOUS
10
3.7626
20
-4.38089
11
3.75953
21
-4.38237
0
LINE
8
BLACK
6
CONTINUOUS
10
3.75953
20
-4.38237
11
3.75782
21
-4.38256
0
LINE
8
BLACK
6
CONTINUOUS
10
3.75782
20
-4.38256
11
3.73789
21
-4.38256
0
LINE
8
BLACK
6
CONTINUOUS
10
3.73789
20
-4.38256
11
3.73456
21
-4.3818
0
LINE
8
BLACK
6
CONTINUOUS
10
3.73456
20
-4.3818
11
3.73189
21
-4.37967
0
LINE
8
BLACK
6
CONTINUOUS
10
3.73189
20
-4.37967
11
3.73041
21
-4.3766
0
LINE
8
BLACK
6
CONTINUOUS
10
3.73041
20
-4.3766
11
3.73022
21
-4.37489
0
LINE
8
BLACK
6
CONTINUOUS
10
3.73022
20
-4.37489
11
3.73022
21
-4.34511
0
LINE
8
BLACK
6
CONTINUOUS
10
3.73022
20
-4.34511
11
3.73098
21
-4.34178
0
LINE
8
BLACK
6
CONTINUOUS
10
3.73098
20
-4.34178
11
3.7331
21
-4.33911
0
LINE
8
BLACK
6
CONTINUOUS
10
3.7331
20
-4.33911
11
3.73618
21
-4.33763
0
LINE
8
BLACK
6
CONTINUOUS
10
3.73618
20
-4.33763
11
3.73789
21
-4.33744
0
LINE
8
BLACK
6
CONTINUOUS
10
3.73789
20
-4.33744
11
3.75782
21
-4.33744
0
LINE
8
BLACK
6
CONTINUOUS
10
3.75782
20
-4.33744
11
3.76115
21
-4.3382
0
LINE
8
BLACK
6
CONTINUOUS
10
4.69322
20
-4.31741
11
4.69589
21
-4.31954
0
LINE
8
BLACK
6
CONTINUOUS
10
4.69589
20
-4.31954
11
4.69737
21
-4.32262
0
LINE
8
BLACK
6
CONTINUOUS
10
4.69737
20
-4.32262
11
4.69756
21
-4.32432
0
LINE
8
BLACK
6
CONTINUOUS
10
4.69756
20
-4.32432
11
4.69756
21
-4.34426
0
LINE
8
BLACK
6
CONTINUOUS
10
4.69756
20
-4.34426
11
4.6968
21
-4.34759
0
LINE
8
BLACK
6
CONTINUOUS
10
4.6968
20
-4.34759
11
4.69467
21
-4.35026
0
LINE
8
BLACK
6
CONTINUOUS
10
4.69467
20
-4.35026
11
4.6916
21
-4.35174
0
LINE
8
BLACK
6
CONTINUOUS
10
4.6916
20
-4.35174
11
4.68989
21
-4.35193
0
LINE
8
BLACK
6
CONTINUOUS
10
4.68989
20
-4.35193
11
4.66011
21
-4.35193
0
LINE
8
BLACK
6
CONTINUOUS
10
4.66011
20
-4.35193
11
4.65678
21
-4.35117
0
LINE
8
BLACK
6
CONTINUOUS
10
4.65678
20
-4.35117
11
4.65411
21
-4.34904
0
LINE
8
BLACK
6
CONTINUOUS
10
4.65411
20
-4.34904
11
4.65263
21
-4.34597
0
LINE
8
BLACK
6
CONTINUOUS
10
4.65263
20
-4.34597
11
4.65244
21
-4.34426
0
LINE
8
BLACK
6
CONTINUOUS
10
4.65244
20
-4.34426
11
4.65244
21
-4.32432
0
LINE
8
BLACK
6
CONTINUOUS
10
4.65244
20
-4.32432
11
4.6532
21
-4.32099
0
LINE
8
BLACK
6
CONTINUOUS
10
4.6532
20
-4.32099
11
4.65533
21
-4.31833
0
LINE
8
BLACK
6
CONTINUOUS
10
4.65533
20
-4.31833
11
4.6584
21
-4.31685
0
LINE
8
BLACK
6
CONTINUOUS
10
4.6584
20
-4.31685
11
4.66011
21
-4.31665
0
LINE
8
BLACK
6
CONTINUOUS
10
4.66011
20
-4.31665
11
4.68989
21
-4.31665
0
LINE
8
BLACK
6
CONTINUOUS
10
4.68989
20
-4.31665
11
4.69322
21
-4.31741
0
LINE
8
BLACK
6
CONTINUOUS
10
4.77039
20
-4.34506
11
4.7548
21
-4.34506
0
LINE
8
BLACK
6
CONTINUOUS
10
4.7548
20
-4.34506
11
4.7548
21
-4.31333
0
LINE
8
BLACK
6
CONTINUOUS
10
4.7548
20
-4.31333
11
4.77039
21
-4.31333
0
LINE
8
BLACK
6
CONTINUOUS
10
4.77039
20
-4.31333
11
4.77039
21
-4.34506
0
LINE
8
BLACK
6
CONTINUOUS
10
4.8452
20
-4.34506
11
4.82961
21
-4.34506
0
LINE
8
BLACK
6
CONTINUOUS
10
4.82961
20
-4.34506
11
4.82961
21
-4.31333
0
LINE
8
BLACK
6
CONTINUOUS
10
4.82961
20
-4.31333
11
4.8452
21
-4.31333
0
LINE
8
BLACK
6
CONTINUOUS
10
4.8452
20
-4.31333
11
4.8452
21
-4.34506
0
LINE
8
BLACK
6
CONTINUOUS
10
5.77491
20
-4.19885
11
5.77772
21
-4.2011
0
LINE
8
BLACK
6
CONTINUOUS
10
5.77772
20
-4.2011
11
5.77929
21
-4.20434
0
LINE
8
BLACK
6
CONTINUOUS
10
5.77929
20
-4.20434
11
5.77949
21
-4.20614
0
LINE
8
BLACK
6
CONTINUOUS
10
5.77949
20
-4.20614
11
5.77949
21
-4.24886
0
LINE
8
BLACK
6
CONTINUOUS
10
5.77949
20
-4.24886
11
5.77869
21
-4.25237
0
LINE
8
BLACK
6
CONTINUOUS
10
5.77869
20
-4.25237
11
5.77644
21
-4.25518
0
LINE
8
BLACK
6
CONTINUOUS
10
5.77644
20
-4.25518
11
5.7732
21
-4.25675
0
LINE
8
BLACK
6
CONTINUOUS
10
5.7732
20
-4.25675
11
5.7714
21
-4.25695
0
LINE
8
BLACK
6
CONTINUOUS
10
5.7714
20
-4.25695
11
5.74147
21
-4.25695
0
LINE
8
BLACK
6
CONTINUOUS
10
5.74147
20
-4.25695
11
5.73796
21
-4.25615
0
LINE
8
BLACK
6
CONTINUOUS
10
5.73796
20
-4.25615
11
5.73515
21
-4.2539
0
LINE
8
BLACK
6
CONTINUOUS
10
5.73515
20
-4.2539
11
5.73359
21
-4.25066
0
LINE
8
BLACK
6
CONTINUOUS
10
5.73359
20
-4.25066
11
5.73339
21
-4.24886
0
LINE
8
BLACK
6
CONTINUOUS
10
5.73339
20
-4.24886
11
5.73339
21
-4.20614
0
LINE
8
BLACK
6
CONTINUOUS
10
5.73339
20
-4.20614
11
5.73419
21
-4.20263
0
LINE
8
BLACK
6
CONTINUOUS
10
5.73419
20
-4.20263
11
5.73643
21
-4.19982
0
LINE
8
BLACK
6
CONTINUOUS
10
5.73643
20
-4.19982
11
5.73967
21
-4.19825
0
LINE
8
BLACK
6
CONTINUOUS
10
5.73967
20
-4.19825
11
5.74147
21
-4.19805
0
LINE
8
BLACK
6
CONTINUOUS
10
5.74147
20
-4.19805
11
5.7714
21
-4.19805
0
LINE
8
BLACK
6
CONTINUOUS
10
5.7714
20
-4.19805
11
5.77491
21
-4.19885
0
LINE
8
BLACK
6
CONTINUOUS
10
5.89204
20
-4.19885
11
5.89485
21
-4.2011
0
LINE
8
BLACK
6
CONTINUOUS
10
5.89485
20
-4.2011
11
5.89641
21
-4.20434
0
LINE
8
BLACK
6
CONTINUOUS
10
5.89641
20
-4.20434
11
5.89661
21
-4.20614
0
LINE
8
BLACK
6
CONTINUOUS
10
5.89661
20
-4.20614
11
5.89661
21
-4.24886
0
LINE
8
BLACK
6
CONTINUOUS
10
5.89661
20
-4.24886
11
5.89581
21
-4.25237
0
LINE
8
BLACK
6
CONTINUOUS
10
5.89581
20
-4.25237
11
5.89357
21
-4.25518
0
LINE
8
BLACK
6
CONTINUOUS
10
5.89357
20
-4.25518
11
5.89033
21
-4.25675
0
LINE
8
BLACK
6
CONTINUOUS
10
5.89033
20
-4.25675
11
5.88853
21
-4.25695
0
LINE
8
BLACK
6
CONTINUOUS
10
5.88853
20
-4.25695
11
5.8586
21
-4.25695
0
LINE
8
BLACK
6
CONTINUOUS
10
5.8586
20
-4.25695
11
5.85509
21
-4.25615
0
LINE
8
BLACK
6
CONTINUOUS
10
5.85509
20
-4.25615
11
5.85228
21
-4.2539
0
LINE
8
BLACK
6
CONTINUOUS
10
5.85228
20
-4.2539
11
5.85071
21
-4.25066
0
LINE
8
BLACK
6
CONTINUOUS
10
5.85071
20
-4.25066
11
5.85051
21
-4.24886
0
LINE
8
BLACK
6
CONTINUOUS
10
5.85051
20
-4.24886
11
5.85051
21
-4.20614
0
LINE
8
BLACK
6
CONTINUOUS
10
5.85051
20
-4.20614
11
5.85131
21
-4.20263
0
LINE
8
BLACK
6
CONTINUOUS
10
5.85131
20
-4.20263
11
5.85356
21
-4.19982
0
LINE
8
BLACK
6
CONTINUOUS
10
5.85356
20
-4.19982
11
5.8568
21
-4.19825
0
LINE
8
BLACK
6
CONTINUOUS
10
5.8568
20
-4.19825
11
5.8586
21
-4.19805
0
LINE
8
BLACK
6
CONTINUOUS
10
5.8586
20
-4.19805
11
5.88853
21
-4.19805
0
LINE
8
BLACK
6
CONTINUOUS
10
5.88853
20
-4.19805
11
5.89204
21
-4.19885
0
LINE
8
BLACK
6
CONTINUOUS
10
4.8452
20
-4.23667
11
4.82961
21
-4.23667
0
LINE
8
BLACK
6
CONTINUOUS
10
4.82961
20
-4.23667
11
4.82961
21
-4.20494
0
LINE
8
BLACK
6
CONTINUOUS
10
4.82961
20
-4.20494
11
4.8452
21
-4.20494
0
LINE
8
BLACK
6
CONTINUOUS
10
4.8452
20
-4.20494
11
4.8452
21
-4.23667
0
LINE
8
BLACK
6
CONTINUOUS
10
4.8078
20
-4.23667
11
4.7922
21
-4.23667
0
LINE
8
BLACK
6
CONTINUOUS
10
4.7922
20
-4.23667
11
4.7922
21
-4.20494
0
LINE
8
BLACK
6
CONTINUOUS
10
4.7922
20
-4.20494
11
4.8078
21
-4.20494
0
LINE
8
BLACK
6
CONTINUOUS
10
4.8078
20
-4.20494
11
4.8078
21
-4.23667
0
LINE
8
BLACK
6
CONTINUOUS
10
4.77039
20
-4.23667
11
4.7548
21
-4.23667
0
LINE
8
BLACK
6
CONTINUOUS
10
4.7548
20
-4.23667
11
4.7548
21
-4.20494
0
LINE
8
BLACK
6
CONTINUOUS
10
4.7548
20
-4.20494
11
4.77039
21
-4.20494
0
LINE
8
BLACK
6
CONTINUOUS
10
4.77039
20
-4.20494
11
4.77039
21
-4.23667
0
LINE
8
BLACK
6
CONTINUOUS
10
4.69822
20
-4.19848
11
4.70089
21
-4.2006
0
LINE
8
BLACK
6
CONTINUOUS
10
4.70089
20
-4.2006
11
4.70237
21
-4.20368
0
LINE
8
BLACK
6
CONTINUOUS
10
4.70237
20
-4.20368
11
4.70256
21
-4.20539
0
LINE
8
BLACK
6
CONTINUOUS
10
4.70256
20
-4.20539
11
4.70256
21
-4.22532
0
LINE
8
BLACK
6
CONTINUOUS
10
4.70256
20
-4.22532
11
4.7018
21
-4.22865
0
LINE
8
BLACK
6
CONTINUOUS
10
4.7018
20
-4.22865
11
4.69967
21
-4.23132
0
LINE
8
BLACK
6
CONTINUOUS
10
4.69967
20
-4.23132
11
4.6966
21
-4.2328
0
LINE
8
BLACK
6
CONTINUOUS
10
4.6966
20
-4.2328
11
4.69489
21
-4.23299
0
LINE
8
BLACK
6
CONTINUOUS
10
4.69489
20
-4.23299
11
4.66511
21
-4.23299
0
LINE
8
BLACK
6
CONTINUOUS
10
4.66511
20
-4.23299
11
4.66178
21
-4.23223
0
LINE
8
BLACK
6
CONTINUOUS
10
4.66178
20
-4.23223
11
4.65911
21
-4.2301
0
LINE
8
BLACK
6
CONTINUOUS
10
4.65911
20
-4.2301
11
4.65763
21
-4.22703
0
LINE
8
BLACK
6
CONTINUOUS
10
4.65763
20
-4.22703
11
4.65744
21
-4.22532
0
LINE
8
BLACK
6
CONTINUOUS
10
4.65744
20
-4.22532
11
4.65744
21
-4.20539
0
LINE
8
BLACK
6
CONTINUOUS
10
4.65744
20
-4.20539
11
4.6582
21
-4.20206
0
LINE
8
BLACK
6
CONTINUOUS
10
4.6582
20
-4.20206
11
4.66033
21
-4.19939
0
LINE
8
BLACK
6
CONTINUOUS
10
4.66033
20
-4.19939
11
4.6634
21
-4.19791
0
LINE
8
BLACK
6
CONTINUOUS
10
4.6634
20
-4.19791
11
4.66511
21
-4.19772
0
LINE
8
BLACK
6
CONTINUOUS
10
4.66511
20
-4.19772
11
4.69489
21
-4.19772
0
LINE
8
BLACK
6
CONTINUOUS
10
4.69489
20
-4.19772
11
4.69822
21
-4.19848
0
LINE
8
BLACK
6
CONTINUOUS
10
3.68294
20
-4.1382
11
3.68561
21
-4.14033
0
LINE
8
BLACK
6
CONTINUOUS
10
3.68561
20
-4.14033
11
3.68709
21
-4.1434
0
LINE
8
BLACK
6
CONTINUOUS
10
3.68709
20
-4.1434
11
3.68728
21
-4.14511
0
LINE
8
BLACK
6
CONTINUOUS
10
3.68728
20
-4.14511
11
3.68728
21
-4.17489
0
LINE
8
BLACK
6
CONTINUOUS
10
3.68728
20
-4.17489
11
3.68652
21
-4.17822
0
LINE
8
BLACK
6
CONTINUOUS
10
3.68652
20
-4.17822
11
3.6844
21
-4.18089
0
LINE
8
BLACK
6
CONTINUOUS
10
3.6844
20
-4.18089
11
3.68132
21
-4.18237
0
LINE
8
BLACK
6
CONTINUOUS
10
3.68132
20
-4.18237
11
3.67961
21
-4.18256
0
LINE
8
BLACK
6
CONTINUOUS
10
3.67961
20
-4.18256
11
3.65968
21
-4.18256
0
LINE
8
BLACK
6
CONTINUOUS
10
3.65968
20
-4.18256
11
3.65635
21
-4.1818
0
LINE
8
BLACK
6
CONTINUOUS
10
3.65635
20
-4.1818
11
3.65368
21
-4.17967
0
LINE
8
BLACK
6
CONTINUOUS
10
3.65368
20
-4.17967
11
3.6522
21
-4.1766
0
LINE
8
BLACK
6
CONTINUOUS
10
3.6522
20
-4.1766
11
3.65201
21
-4.17489
0
LINE
8
BLACK
6
CONTINUOUS
10
3.65201
20
-4.17489
11
3.65201
21
-4.14511
0
LINE
8
BLACK
6
CONTINUOUS
10
3.65201
20
-4.14511
11
3.65277
21
-4.14178
0
LINE
8
BLACK
6
CONTINUOUS
10
3.65277
20
-4.14178
11
3.6549
21
-4.13911
0
LINE
8
BLACK
6
CONTINUOUS
10
3.6549
20
-4.13911
11
3.65797
21
-4.13763
0
LINE
8
BLACK
6
CONTINUOUS
10
3.65797
20
-4.13763
11
3.65968
21
-4.13744
0
LINE
8
BLACK
6
CONTINUOUS
10
3.65968
20
-4.13744
11
3.67961
21
-4.13744
0
LINE
8
BLACK
6
CONTINUOUS
10
3.67961
20
-4.13744
11
3.68294
21
-4.1382
0
LINE
8
BLACK
6
CONTINUOUS
10
3.76365
20
-4.1382
11
3.76632
21
-4.14033
0
LINE
8
BLACK
6
CONTINUOUS
10
3.76632
20
-4.14033
11
3.7678
21
-4.1434
0
LINE
8
BLACK
6
CONTINUOUS
10
3.7678
20
-4.1434
11
3.76799
21
-4.14511
0
LINE
8
BLACK
6
CONTINUOUS
10
3.76799
20
-4.14511
11
3.76799
21
-4.17489
0
LINE
8
BLACK
6
CONTINUOUS
10
3.76799
20
-4.17489
11
3.76723
21
-4.17822
0
LINE
8
BLACK
6
CONTINUOUS
10
3.76723
20
-4.17822
11
3.7651
21
-4.18089
0
LINE
8
BLACK
6
CONTINUOUS
10
3.7651
20
-4.18089
11
3.76203
21
-4.18237
0
LINE
8
BLACK
6
CONTINUOUS
10
3.76203
20
-4.18237
11
3.76032
21
-4.18256
0
LINE
8
BLACK
6
CONTINUOUS
10
3.76032
20
-4.18256
11
3.74039
21
-4.18256
0
LINE
8
BLACK
6
CONTINUOUS
10
3.74039
20
-4.18256
11
3.73706
21
-4.1818
0
LINE
8
BLACK
6
CONTINUOUS
10
3.73706
20
-4.1818
11
3.73439
21
-4.17967
0
LINE
8
BLACK
6
CONTINUOUS
10
3.73439
20
-4.17967
11
3.73291
21
-4.1766
0
LINE
8
BLACK
6
CONTINUOUS
10
3.73291
20
-4.1766
11
3.73272
21
-4.17489
0
LINE
8
BLACK
6
CONTINUOUS
10
3.73272
20
-4.17489
11
3.73272
21
-4.14511
0
LINE
8
BLACK
6
CONTINUOUS
10
3.73272
20
-4.14511
11
3.73348
21
-4.14178
0
LINE
8
BLACK
6
CONTINUOUS
10
3.73348
20
-4.14178
11
3.7356
21
-4.13911
0
LINE
8
BLACK
6
CONTINUOUS
10
3.7356
20
-4.13911
11
3.73868
21
-4.13763
0
LINE
8
BLACK
6
CONTINUOUS
10
3.73868
20
-4.13763
11
3.74039
21
-4.13744
0
LINE
8
BLACK
6
CONTINUOUS
10
3.74039
20
-4.13744
11
3.76032
21
-4.13744
0
LINE
8
BLACK
6
CONTINUOUS
10
3.76032
20
-4.13744
11
3.76365
21
-4.1382
0
LINE
8
BLACK
6
CONTINUOUS
10
4.69822
20
-4.11777
11
4.70089
21
-4.1199
0
LINE
8
BLACK
6
CONTINUOUS
10
4.70089
20
-4.1199
11
4.70237
21
-4.12297
0
LINE
8
BLACK
6
CONTINUOUS
10
4.70237
20
-4.12297
11
4.70256
21
-4.12468
0
LINE
8
BLACK
6
CONTINUOUS
10
4.70256
20
-4.12468
11
4.70256
21
-4.14461
0
LINE
8
BLACK
6
CONTINUOUS
10
4.70256
20
-4.14461
11
4.7018
21
-4.14794
0
LINE
8
BLACK
6
CONTINUOUS
10
4.7018
20
-4.14794
11
4.69967
21
-4.15061
0
LINE
8
BLACK
6
CONTINUOUS
10
4.69967
20
-4.15061
11
4.6966
21
-4.15209
0
LINE
8
BLACK
6
CONTINUOUS
10
4.6966
20
-4.15209
11
4.69489
21
-4.15228
0
LINE
8
BLACK
6
CONTINUOUS
10
4.69489
20
-4.15228
11
4.66511
21
-4.15228
0
LINE
8
BLACK
6
CONTINUOUS
10
4.66511
20
-4.15228
11
4.66178
21
-4.15152
0
LINE
8
BLACK
6
CONTINUOUS
10
4.66178
20
-4.15152
11
4.65911
21
-4.1494
0
LINE
8
BLACK
6
CONTINUOUS
10
4.65911
20
-4.1494
11
4.65763
21
-4.14632
0
LINE
8
BLACK
6
CONTINUOUS
10
4.65763
20
-4.14632
11
4.65744
21
-4.14461
0
LINE
8
BLACK
6
CONTINUOUS
10
4.65744
20
-4.14461
11
4.65744
21
-4.12468
0
LINE
8
BLACK
6
CONTINUOUS
10
4.65744
20
-4.12468
11
4.6582
21
-4.12135
0
LINE
8
BLACK
6
CONTINUOUS
10
4.6582
20
-4.12135
11
4.66033
21
-4.11868
0
LINE
8
BLACK
6
CONTINUOUS
10
4.66033
20
-4.11868
11
4.6634
21
-4.1172
0
LINE
8
BLACK
6
CONTINUOUS
10
4.6634
20
-4.1172
11
4.66511
21
-4.11701
0
LINE
8
BLACK
6
CONTINUOUS
10
4.66511
20
-4.11701
11
4.69489
21
-4.11701
0
LINE
8
BLACK
6
CONTINUOUS
10
4.69489
20
-4.11701
11
4.69822
21
-4.11777
0
LINE
8
BLACK
6
CONTINUOUS
10
4.8452
20
-4.15006
11
4.82961
21
-4.15006
0
LINE
8
BLACK
6
CONTINUOUS
10
4.82961
20
-4.15006
11
4.82961
21
-4.11833
0
LINE
8
BLACK
6
CONTINUOUS
10
4.82961
20
-4.11833
11
4.8452
21
-4.11833
0
LINE
8
BLACK
6
CONTINUOUS
10
4.8452
20
-4.11833
11
4.8452
21
-4.15006
0
LINE
8
BLACK
6
CONTINUOUS
10
4.77039
20
-4.15006
11
4.7548
21
-4.15006
0
LINE
8
BLACK
6
CONTINUOUS
10
4.7548
20
-4.15006
11
4.7548
21
-4.11833
0
LINE
8
BLACK
6
CONTINUOUS
10
4.7548
20
-4.11833
11
4.77039
21
-4.11833
0
LINE
8
BLACK
6
CONTINUOUS
10
4.77039
20
-4.11833
11
4.77039
21
-4.15006
0
LINE
8
BLACK
6
CONTINUOUS
10
4.12531
20
-4.14461
11
4.09594
21
-4.14461
0
LINE
8
BLACK
6
CONTINUOUS
10
4.09594
20
-4.14461
11
4.09594
21
-4.10539
0
LINE
8
BLACK
6
CONTINUOUS
10
4.09594
20
-4.10539
11
4.12531
21
-4.10539
0
LINE
8
BLACK
6
CONTINUOUS
10
4.12531
20
-4.10539
11
4.12531
21
-4.14461
0
LINE
8
BLACK
6
CONTINUOUS
10
4.20406
20
-4.14461
11
4.17469
21
-4.14461
0
LINE
8
BLACK
6
CONTINUOUS
10
4.17469
20
-4.14461
11
4.17469
21
-4.10539
0
LINE
8
BLACK
6
CONTINUOUS
10
4.17469
20
-4.10539
11
4.20406
21
-4.10539
0
LINE
8
BLACK
6
CONTINUOUS
10
4.20406
20
-4.10539
11
4.20406
21
-4.14461
0
LINE
8
BLACK
6
CONTINUOUS
10
4.46406
20
-4.12961
11
4.43469
21
-4.12961
0
LINE
8
BLACK
6
CONTINUOUS
10
4.43469
20
-4.12961
11
4.43469
21
-4.09039
0
LINE
8
BLACK
6
CONTINUOUS
10
4.43469
20
-4.09039
11
4.46406
21
-4.09039
0
LINE
8
BLACK
6
CONTINUOUS
10
4.46406
20
-4.09039
11
4.46406
21
-4.12961
0
LINE
8
BLACK
6
CONTINUOUS
10
4.38531
20
-4.12961
11
4.35594
21
-4.12961
0
LINE
8
BLACK
6
CONTINUOUS
10
4.35594
20
-4.12961
11
4.35594
21
-4.09039
0
LINE
8
BLACK
6
CONTINUOUS
10
4.35594
20
-4.09039
11
4.38531
21
-4.09039
0
LINE
8
BLACK
6
CONTINUOUS
10
4.38531
20
-4.09039
11
4.38531
21
-4.12961
0
LINE
8
BLACK
6
CONTINUOUS
10
4.17354
20
-4.02177
11
4.17173
21
-4.02177
0
LINE
8
BLACK
6
CONTINUOUS
10
4.17173
20
-4.02177
11
4.17173
21
-3.97075
0
LINE
8
BLACK
6
CONTINUOUS
10
4.17173
20
-3.97075
11
4.17354
21
-3.97075
0
LINE
8
BLACK
6
CONTINUOUS
10
4.17354
20
-3.97075
11
4.17354
21
-4.02177
0
LINE
8
BLACK
6
CONTINUOUS
10
4.15386
20
-4.02177
11
4.15205
21
-4.02177
0
LINE
8
BLACK
6
CONTINUOUS
10
4.15205
20
-4.02177
11
4.15205
21
-3.97075
0
LINE
8
BLACK
6
CONTINUOUS
10
4.15205
20
-3.97075
11
4.15386
21
-3.97075
0
LINE
8
BLACK
6
CONTINUOUS
10
4.15386
20
-3.97075
11
4.15386
21
-4.02177
0
LINE
8
BLACK
6
CONTINUOUS
10
4.13417
20
-4.02177
11
4.13236
21
-4.02177
0
LINE
8
BLACK
6
CONTINUOUS
10
4.13236
20
-4.02177
11
4.13236
21
-3.97075
0
LINE
8
BLACK
6
CONTINUOUS
10
4.13236
20
-3.97075
11
4.13417
21
-3.97075
0
LINE
8
BLACK
6
CONTINUOUS
10
4.13417
20
-3.97075
11
4.13417
21
-4.02177
0
LINE
8
BLACK
6
CONTINUOUS
10
4.11449
20
-4.02177
11
4.11268
21
-4.02177
0
LINE
8
BLACK
6
CONTINUOUS
10
4.11268
20
-4.02177
11
4.11268
21
-3.97075
0
LINE
8
BLACK
6
CONTINUOUS
10
4.11268
20
-3.97075
11
4.11449
21
-3.97075
0
LINE
8
BLACK
6
CONTINUOUS
10
4.11449
20
-3.97075
11
4.11449
21
-4.02177
0
LINE
8
BLACK
6
CONTINUOUS
10
4.0948
20
-4.02177
11
4.09299
21
-4.02177
0
LINE
8
BLACK
6
CONTINUOUS
10
4.09299
20
-4.02177
11
4.09299
21
-3.97075
0
LINE
8
BLACK
6
CONTINUOUS
10
4.09299
20
-3.97075
11
4.0948
21
-3.97075
0
LINE
8
BLACK
6
CONTINUOUS
10
4.0948
20
-3.97075
11
4.0948
21
-4.02177
0
LINE
8
BLACK
6
CONTINUOUS
10
4.07512
20
-4.02177
11
4.07331
21
-4.02177
0
LINE
8
BLACK
6
CONTINUOUS
10
4.07331
20
-4.02177
11
4.07331
21
-3.97075
0
LINE
8
BLACK
6
CONTINUOUS
10
4.07331
20
-3.97075
11
4.07512
21
-3.97075
0
LINE
8
BLACK
6
CONTINUOUS
10
4.07512
20
-3.97075
11
4.07512
21
-4.02177
0
LINE
8
BLACK
6
CONTINUOUS
10
4.05543
20
-4.02177
11
4.05362
21
-4.02177
0
LINE
8
BLACK
6
CONTINUOUS
10
4.05362
20
-4.02177
11
4.05362
21
-3.97075
0
LINE
8
BLACK
6
CONTINUOUS
10
4.05362
20
-3.97075
11
4.05543
21
-3.97075
0
LINE
8
BLACK
6
CONTINUOUS
10
4.05543
20
-3.97075
11
4.05543
21
-4.02177
0
LINE
8
BLACK
6
CONTINUOUS
10
4.19323
20
-4.02177
11
4.19142
21
-4.02177
0
LINE
8
BLACK
6
CONTINUOUS
10
4.19142
20
-4.02177
11
4.19142
21
-3.97075
0
LINE
8
BLACK
6
CONTINUOUS
10
4.19142
20
-3.97075
11
4.19323
21
-3.97075
0
LINE
8
BLACK
6
CONTINUOUS
10
4.19323
20
-3.97075
11
4.19323
21
-4.02177
0
LINE
8
BLACK
6
CONTINUOUS
10
3.97669
20
-4.02177
11
3.97488
21
-4.02177
0
LINE
8
BLACK
6
CONTINUOUS
10
3.97488
20
-4.02177
11
3.97488
21
-3.97075
0
LINE
8
BLACK
6
CONTINUOUS
10
3.97488
20
-3.97075
11
3.97669
21
-3.97075
0
LINE
8
BLACK
6
CONTINUOUS
10
3.97669
20
-3.97075
11
3.97669
21
-4.02177
0
LINE
8
BLACK
6
CONTINUOUS
10
4.21291
20
-4.02177
11
4.2111
21
-4.02177
0
LINE
8
BLACK
6
CONTINUOUS
10
4.2111
20
-4.02177
11
4.2111
21
-3.97075
0
LINE
8
BLACK
6
CONTINUOUS
10
4.2111
20
-3.97075
11
4.21291
21
-3.97075
0
LINE
8
BLACK
6
CONTINUOUS
10
4.21291
20
-3.97075
11
4.21291
21
-4.02177
0
LINE
8
BLACK
6
CONTINUOUS
10
4.2326
20
-4.02177
11
4.23079
21
-4.02177
0
LINE
8
BLACK
6
CONTINUOUS
10
4.23079
20
-4.02177
11
4.23079
21
-3.97075
0
LINE
8
BLACK
6
CONTINUOUS
10
4.23079
20
-3.97075
11
4.2326
21
-3.97075
0
LINE
8
BLACK
6
CONTINUOUS
10
4.2326
20
-3.97075
11
4.2326
21
-4.02177
0
LINE
8
BLACK
6
CONTINUOUS
10
4.25228
20
-4.02177
11
4.25047
21
-4.02177
0
LINE
8
BLACK
6
CONTINUOUS
10
4.25047
20
-4.02177
11
4.25047
21
-3.97075
0
LINE
8
BLACK
6
CONTINUOUS
10
4.25047
20
-3.97075
11
4.25228
21
-3.97075
0
LINE
8
BLACK
6
CONTINUOUS
10
4.25228
20
-3.97075
11
4.25228
21
-4.02177
0
LINE
8
BLACK
6
CONTINUOUS
10
4.29165
20
-4.02177
11
4.28984
21
-4.02177
0
LINE
8
BLACK
6
CONTINUOUS
10
4.28984
20
-4.02177
11
4.28984
21
-3.97075
0
LINE
8
BLACK
6
CONTINUOUS
10
4.28984
20
-3.97075
11
4.29165
21
-3.97075
0
LINE
8
BLACK
6
CONTINUOUS
10
4.29165
20
-3.97075
11
4.29165
21
-4.02177
0
LINE
8
BLACK
6
CONTINUOUS
10
4.31134
20
-4.02177
11
4.30953
21
-4.02177
0
LINE
8
BLACK
6
CONTINUOUS
10
4.30953
20
-4.02177
11
4.30953
21
-3.97075
0
LINE
8
BLACK
6
CONTINUOUS
10
4.30953
20
-3.97075
11
4.31134
21
-3.97075
0
LINE
8
BLACK
6
CONTINUOUS
10
4.31134
20
-3.97075
11
4.31134
21
-4.02177
0
LINE
8
BLACK
6
CONTINUOUS
10
4.33102
20
-4.02177
11
4.32921
21
-4.02177
0
LINE
8
BLACK
6
CONTINUOUS
10
4.32921
20
-4.02177
11
4.32921
21
-3.97075
0
LINE
8
BLACK
6
CONTINUOUS
10
4.32921
20
-3.97075
11
4.33102
21
-3.97075
0
LINE
8
BLACK
6
CONTINUOUS
10
4.33102
20
-3.97075
11
4.33102
21
-4.02177
0
LINE
8
BLACK
6
CONTINUOUS
10
4.35071
20
-4.02177
11
4.3489
21
-4.02177
0
LINE
8
BLACK
6
CONTINUOUS
10
4.3489
20
-4.02177
11
4.3489
21
-3.97075
0
LINE
8
BLACK
6
CONTINUOUS
10
4.3489
20
-3.97075
11
4.35071
21
-3.97075
0
LINE
8
BLACK
6
CONTINUOUS
10
4.35071
20
-3.97075
11
4.35071
21
-4.02177
0
LINE
8
BLACK
6
CONTINUOUS
10
4.37039
20
-4.02177
11
4.36858
21
-4.02177
0
LINE
8
BLACK
6
CONTINUOUS
10
4.36858
20
-4.02177
11
4.36858
21
-3.97075
0
LINE
8
BLACK
6
CONTINUOUS
10
4.36858
20
-3.97075
11
4.37039
21
-3.97075
0
LINE
8
BLACK
6
CONTINUOUS
10
4.37039
20
-3.97075
11
4.37039
21
-4.02177
0
LINE
8
BLACK
6
CONTINUOUS
10
3.72079
20
-4.02177
11
3.71898
21
-4.02177
0
LINE
8
BLACK
6
CONTINUOUS
10
3.71898
20
-4.02177
11
3.71898
21
-3.97075
0
LINE
8
BLACK
6
CONTINUOUS
10
3.71898
20
-3.97075
11
3.72079
21
-3.97075
0
LINE
8
BLACK
6
CONTINUOUS
10
3.72079
20
-3.97075
11
3.72079
21
-4.02177
0
LINE
8
BLACK
6
CONTINUOUS
10
3.8389
20
-4.02177
11
3.83709
21
-4.02177
0
LINE
8
BLACK
6
CONTINUOUS
10
3.83709
20
-4.02177
11
3.83709
21
-3.97075
0
LINE
8
BLACK
6
CONTINUOUS
10
3.83709
20
-3.97075
11
3.8389
21
-3.97075
0
LINE
8
BLACK
6
CONTINUOUS
10
3.8389
20
-3.97075
11
3.8389
21
-4.02177
0
LINE
8
BLACK
6
CONTINUOUS
10
3.81921
20
-4.02177
11
3.8174
21
-4.02177
0
LINE
8
BLACK
6
CONTINUOUS
10
3.8174
20
-4.02177
11
3.8174
21
-3.97075
0
LINE
8
BLACK
6
CONTINUOUS
10
3.8174
20
-3.97075
11
3.81921
21
-3.97075
0
LINE
8
BLACK
6
CONTINUOUS
10
3.81921
20
-3.97075
11
3.81921
21
-4.02177
0
LINE
8
BLACK
6
CONTINUOUS
10
3.87827
20
-4.02177
11
3.87646
21
-4.02177
0
LINE
8
BLACK
6
CONTINUOUS
10
3.87646
20
-4.02177
11
3.87646
21
-3.97075
0
LINE
8
BLACK
6
CONTINUOUS
10
3.87646
20
-3.97075
11
3.87827
21
-3.97075
0
LINE
8
BLACK
6
CONTINUOUS
10
3.87827
20
-3.97075
11
3.87827
21
-4.02177
0
LINE
8
BLACK
6
CONTINUOUS
10
3.89795
20
-4.02177
11
3.89614
21
-4.02177
0
LINE
8
BLACK
6
CONTINUOUS
10
3.89614
20
-4.02177
11
3.89614
21
-3.97075
0
LINE
8
BLACK
6
CONTINUOUS
10
3.89614
20
-3.97075
11
3.89795
21
-3.97075
0
LINE
8
BLACK
6
CONTINUOUS
10
3.89795
20
-3.97075
11
3.89795
21
-4.02177
0
LINE
8
BLACK
6
CONTINUOUS
10
3.79953
20
-4.02177
11
3.79772
21
-4.02177
0
LINE
8
BLACK
6
CONTINUOUS
10
3.79772
20
-4.02177
11
3.79772
21
-3.97075
0
LINE
8
BLACK
6
CONTINUOUS
10
3.79772
20
-3.97075
11
3.79953
21
-3.97075
0
LINE
8
BLACK
6
CONTINUOUS
10
3.79953
20
-3.97075
11
3.79953
21
-4.02177
0
LINE
8
BLACK
6
CONTINUOUS
10
3.77984
20
-4.02177
11
3.77803
21
-4.02177
0
LINE
8
BLACK
6
CONTINUOUS
10
3.77803
20
-4.02177
11
3.77803
21
-3.97075
0
LINE
8
BLACK
6
CONTINUOUS
10
3.77803
20
-3.97075
11
3.77984
21
-3.97075
0
LINE
8
BLACK
6
CONTINUOUS
10
3.77984
20
-3.97075
11
3.77984
21
-4.02177
0
LINE
8
BLACK
6
CONTINUOUS
10
4.27197
20
-4.02177
11
4.27016
21
-4.02177
0
LINE
8
BLACK
6
CONTINUOUS
10
4.27016
20
-4.02177
11
4.27016
21
-3.97075
0
LINE
8
BLACK
6
CONTINUOUS
10
4.27016
20
-3.97075
11
4.27197
21
-3.97075
0
LINE
8
BLACK
6
CONTINUOUS
10
4.27197
20
-3.97075
11
4.27197
21
-4.02177
0
LINE
8
BLACK
6
CONTINUOUS
10
3.76016
20
-4.02177
11
3.75835
21
-4.02177
0
LINE
8
BLACK
6
CONTINUOUS
10
3.75835
20
-4.02177
11
3.75835
21
-3.97075
0
LINE
8
BLACK
6
CONTINUOUS
10
3.75835
20
-3.97075
11
3.76016
21
-3.97075
0
LINE
8
BLACK
6
CONTINUOUS
10
3.76016
20
-3.97075
11
3.76016
21
-4.02177
0
LINE
8
BLACK
6
CONTINUOUS
10
3.74047
20
-4.02177
11
3.73866
21
-4.02177
0
LINE
8
BLACK
6
CONTINUOUS
10
3.73866
20
-4.02177
11
3.73866
21
-3.97075
0
LINE
8
BLACK
6
CONTINUOUS
10
3.73866
20
-3.97075
11
3.74047
21
-3.97075
0
LINE
8
BLACK
6
CONTINUOUS
10
3.74047
20
-3.97075
11
3.74047
21
-4.02177
0
LINE
8
BLACK
6
CONTINUOUS
10
4.03575
20
-4.02177
11
4.03394
21
-4.02177
0
LINE
8
BLACK
6
CONTINUOUS
10
4.03394
20
-4.02177
11
4.03394
21
-3.97075
0
LINE
8
BLACK
6
CONTINUOUS
10
4.03394
20
-3.97075
11
4.03575
21
-3.97075
0
LINE
8
BLACK
6
CONTINUOUS
10
4.03575
20
-3.97075
11
4.03575
21
-4.02177
0
LINE
8
BLACK
6
CONTINUOUS
10
3.7011
20
-4.02177
11
3.69929
21
-4.02177
0
LINE
8
BLACK
6
CONTINUOUS
10
3.69929
20
-4.02177
11
3.69929
21
-3.97075
0
LINE
8
BLACK
6
CONTINUOUS
10
3.69929
20
-3.97075
11
3.7011
21
-3.97075
0
LINE
8
BLACK
6
CONTINUOUS
10
3.7011
20
-3.97075
11
3.7011
21
-4.02177
0
LINE
8
BLACK
6
CONTINUOUS
10
3.68142
20
-4.02177
11
3.67961
21
-4.02177
0
LINE
8
BLACK
6
CONTINUOUS
10
3.67961
20
-4.02177
11
3.67961
21
-3.97075
0
LINE
8
BLACK
6
CONTINUOUS
10
3.67961
20
-3.97075
11
3.68142
21
-3.97075
0
LINE
8
BLACK
6
CONTINUOUS
10
3.68142
20
-3.97075
11
3.68142
21
-4.02177
0
LINE
8
BLACK
6
CONTINUOUS
10
3.91764
20
-4.02177
11
3.91583
21
-4.02177
0
LINE
8
BLACK
6
CONTINUOUS
10
3.91583
20
-4.02177
11
3.91583
21
-3.97075
0
LINE
8
BLACK
6
CONTINUOUS
10
3.91583
20
-3.97075
11
3.91764
21
-3.97075
0
LINE
8
BLACK
6
CONTINUOUS
10
3.91764
20
-3.97075
11
3.91764
21
-4.02177
0
LINE
8
BLACK
6
CONTINUOUS
10
3.93732
20
-4.02177
11
3.93551
21
-4.02177
0
LINE
8
BLACK
6
CONTINUOUS
10
3.93551
20
-4.02177
11
3.93551
21
-3.97075
0
LINE
8
BLACK
6
CONTINUOUS
10
3.93551
20
-3.97075
11
3.93732
21
-3.97075
0
LINE
8
BLACK
6
CONTINUOUS
10
3.93732
20
-3.97075
11
3.93732
21
-4.02177
0
LINE
8
BLACK
6
CONTINUOUS
10
3.95701
20
-4.02177
11
3.9552
21
-4.02177
0
LINE
8
BLACK
6
CONTINUOUS
10
3.9552
20
-4.02177
11
3.9552
21
-3.97075
0
LINE
8
BLACK
6
CONTINUOUS
10
3.9552
20
-3.97075
11
3.95701
21
-3.97075
0
LINE
8
BLACK
6
CONTINUOUS
10
3.95701
20
-3.97075
11
3.95701
21
-4.02177
0
LINE
8
BLACK
6
CONTINUOUS
10
3.85858
20
-4.02177
11
3.85677
21
-4.02177
0
LINE
8
BLACK
6
CONTINUOUS
10
3.85677
20
-4.02177
11
3.85677
21
-3.97075
0
LINE
8
BLACK
6
CONTINUOUS
10
3.85677
20
-3.97075
11
3.85858
21
-3.97075
0
LINE
8
BLACK
6
CONTINUOUS
10
3.85858
20
-3.97075
11
3.85858
21
-4.02177
0
LINE
8
BLACK
6
CONTINUOUS
10
3.99638
20
-4.02177
11
3.99457
21
-4.02177
0
LINE
8
BLACK
6
CONTINUOUS
10
3.99457
20
-4.02177
11
3.99457
21
-3.97075
0
LINE
8
BLACK
6
CONTINUOUS
10
3.99457
20
-3.97075
11
3.99638
21
-3.97075
0
LINE
8
BLACK
6
CONTINUOUS
10
3.99638
20
-3.97075
11
3.99638
21
-4.02177
0
LINE
8
BLACK
6
CONTINUOUS
10
4.01606
20
-4.02177
11
4.01425
21
-4.02177
0
LINE
8
BLACK
6
CONTINUOUS
10
4.01425
20
-4.02177
11
4.01425
21
-3.97075
0
LINE
8
BLACK
6
CONTINUOUS
10
4.01425
20
-3.97075
11
4.01606
21
-3.97075
0
LINE
8
BLACK
6
CONTINUOUS
10
4.01606
20
-3.97075
11
4.01606
21
-4.02177
0
LINE
8
BLACK
6
CONTINUOUS
10
4.77544
20
-3.9607
11
4.77811
21
-3.96283
0
LINE
8
BLACK
6
CONTINUOUS
10
4.77811
20
-3.96283
11
4.77959
21
-3.9659
0
LINE
8
BLACK
6
CONTINUOUS
10
4.77959
20
-3.9659
11
4.77978
21
-3.96761
0
LINE
8
BLACK
6
CONTINUOUS
10
4.77978
20
-3.96761
11
4.77978
21
-3.99739
0
LINE
8
BLACK
6
CONTINUOUS
10
4.77978
20
-3.99739
11
4.77902
21
-4.00072
0
LINE
8
BLACK
6
CONTINUOUS
10
4.77902
20
-4.00072
11
4.7769
21
-4.00339
0
LINE
8
BLACK
6
CONTINUOUS
10
4.7769
20
-4.00339
11
4.77382
21
-4.00487
0
LINE
8
BLACK
6
CONTINUOUS
10
4.77382
20
-4.00487
11
4.77211
21
-4.00506
0
LINE
8
BLACK
6
CONTINUOUS
10
4.77211
20
-4.00506
11
4.75218
21
-4.00506
0
LINE
8
BLACK
6
CONTINUOUS
10
4.75218
20
-4.00506
11
4.74885
21
-4.0043
0
LINE
8
BLACK
6
CONTINUOUS
10
4.74885
20
-4.0043
11
4.74618
21
-4.00217
0
LINE
8
BLACK
6
CONTINUOUS
10
4.74618
20
-4.00217
11
4.7447
21
-3.9991
0
LINE
8
BLACK
6
CONTINUOUS
10
4.7447
20
-3.9991
11
4.74451
21
-3.99739
0
LINE
8
BLACK
6
CONTINUOUS
10
4.74451
20
-3.99739
11
4.74451
21
-3.96761
0
LINE
8
BLACK
6
CONTINUOUS
10
4.74451
20
-3.96761
11
4.74527
21
-3.96428
0
LINE
8
BLACK
6
CONTINUOUS
10
4.74527
20
-3.96428
11
4.7474
21
-3.96161
0
LINE
8
BLACK
6
CONTINUOUS
10
4.7474
20
-3.96161
11
4.75047
21
-3.96013
0
LINE
8
BLACK
6
CONTINUOUS
10
4.75047
20
-3.96013
11
4.75218
21
-3.95994
0
LINE
8
BLACK
6
CONTINUOUS
10
4.75218
20
-3.95994
11
4.77211
21
-3.95994
0
LINE
8
BLACK
6
CONTINUOUS
10
4.77211
20
-3.95994
11
4.77544
21
-3.9607
0
LINE
8
BLACK
6
CONTINUOUS
10
4.85615
20
-3.9607
11
4.85882
21
-3.96283
0
LINE
8
BLACK
6
CONTINUOUS
10
4.85882
20
-3.96283
11
4.8603
21
-3.9659
0
LINE
8
BLACK
6
CONTINUOUS
10
4.8603
20
-3.9659
11
4.86049
21
-3.96761
0
LINE
8
BLACK
6
CONTINUOUS
10
4.86049
20
-3.96761
11
4.86049
21
-3.99739
0
LINE
8
BLACK
6
CONTINUOUS
10
4.86049
20
-3.99739
11
4.85973
21
-4.00072
0
LINE
8
BLACK
6
CONTINUOUS
10
4.85973
20
-4.00072
11
4.8576
21
-4.00339
0
LINE
8
BLACK
6
CONTINUOUS
10
4.8576
20
-4.00339
11
4.85453
21
-4.00487
0
LINE
8
BLACK
6
CONTINUOUS
10
4.85453
20
-4.00487
11
4.85282
21
-4.00506
0
LINE
8
BLACK
6
CONTINUOUS
10
4.85282
20
-4.00506
11
4.83289
21
-4.00506
0
LINE
8
BLACK
6
CONTINUOUS
10
4.83289
20
-4.00506
11
4.82956
21
-4.0043
0
LINE
8
BLACK
6
CONTINUOUS
10
4.82956
20
-4.0043
11
4.82689
21
-4.00217
0
LINE
8
BLACK
6
CONTINUOUS
10
4.82689
20
-4.00217
11
4.82541
21
-3.9991
0
LINE
8
BLACK
6
CONTINUOUS
10
4.82541
20
-3.9991
11
4.82522
21
-3.99739
0
LINE
8
BLACK
6
CONTINUOUS
10
4.82522
20
-3.99739
11
4.82522
21
-3.96761
0
LINE
8
BLACK
6
CONTINUOUS
10
4.82522
20
-3.96761
11
4.82598
21
-3.96428
0
LINE
8
BLACK
6
CONTINUOUS
10
4.82598
20
-3.96428
11
4.8281
21
-3.96161
0
LINE
8
BLACK
6
CONTINUOUS
10
4.8281
20
-3.96161
11
4.83118
21
-3.96013
0
LINE
8
BLACK
6
CONTINUOUS
10
4.83118
20
-3.96013
11
4.83289
21
-3.95994
0
LINE
8
BLACK
6
CONTINUOUS
10
4.83289
20
-3.95994
11
4.85282
21
-3.95994
0
LINE
8
BLACK
6
CONTINUOUS
10
4.85282
20
-3.95994
11
4.85615
21
-3.9607
0
LINE
8
BLACK
6
CONTINUOUS
10
3.24461
20
-3.96406
11
3.20539
21
-3.96406
0
LINE
8
BLACK
6
CONTINUOUS
10
3.20539
20
-3.96406
11
3.20539
21
-3.93469
0
LINE
8
BLACK
6
CONTINUOUS
10
3.20539
20
-3.93469
11
3.24461
21
-3.93469
0
LINE
8
BLACK
6
CONTINUOUS
10
3.24461
20
-3.93469
11
3.24461
21
-3.96406
0
LINE
8
BLACK
6
CONTINUOUS
10
3.62925
20
-3.92039
11
3.57823
21
-3.92039
0
LINE
8
BLACK
6
CONTINUOUS
10
3.57823
20
-3.92039
11
3.57823
21
-3.91858
0
LINE
8
BLACK
6
CONTINUOUS
10
3.57823
20
-3.91858
11
3.62925
21
-3.91858
0
LINE
8
BLACK
6
CONTINUOUS
10
3.62925
20
-3.91858
11
3.62925
21
-3.92039
0
LINE
8
BLACK
6
CONTINUOUS
10
4.47177
20
-3.92039
11
4.42075
21
-3.92039
0
LINE
8
BLACK
6
CONTINUOUS
10
4.42075
20
-3.92039
11
4.42075
21
-3.91858
0
LINE
8
BLACK
6
CONTINUOUS
10
4.42075
20
-3.91858
11
4.47177
21
-3.91858
0
LINE
8
BLACK
6
CONTINUOUS
10
4.47177
20
-3.91858
11
4.47177
21
-3.92039
0
LINE
8
BLACK
6
CONTINUOUS
10
4.47177
20
-3.90071
11
4.42075
21
-3.90071
0
LINE
8
BLACK
6
CONTINUOUS
10
4.42075
20
-3.90071
11
4.42075
21
-3.8989
0
LINE
8
BLACK
6
CONTINUOUS
10
4.42075
20
-3.8989
11
4.47177
21
-3.8989
0
LINE
8
BLACK
6
CONTINUOUS
10
4.47177
20
-3.8989
11
4.47177
21
-3.90071
0
LINE
8
BLACK
6
CONTINUOUS
10
3.62925
20
-3.90071
11
3.57823
21
-3.90071
0
LINE
8
BLACK
6
CONTINUOUS
10
3.57823
20
-3.90071
11
3.57823
21
-3.8989
0
LINE
8
BLACK
6
CONTINUOUS
10
3.57823
20
-3.8989
11
3.62925
21
-3.8989
0
LINE
8
BLACK
6
CONTINUOUS
10
3.62925
20
-3.8989
11
3.62925
21
-3.90071
0
LINE
8
BLACK
6
CONTINUOUS
10
3.24461
20
-3.88531
11
3.20539
21
-3.88531
0
LINE
8
BLACK
6
CONTINUOUS
10
3.20539
20
-3.88531
11
3.20539
21
-3.85594
0
LINE
8
BLACK
6
CONTINUOUS
10
3.20539
20
-3.85594
11
3.24461
21
-3.85594
0
LINE
8
BLACK
6
CONTINUOUS
10
3.24461
20
-3.85594
11
3.24461
21
-3.88531
0
LINE
8
BLACK
6
CONTINUOUS
10
4.47177
20
-3.88102
11
4.42075
21
-3.88102
0
LINE
8
BLACK
6
CONTINUOUS
10
4.42075
20
-3.88102
11
4.42075
21
-3.87921
0
LINE
8
BLACK
6
CONTINUOUS
10
4.42075
20
-3.87921
11
4.47177
21
-3.87921
0
LINE
8
BLACK
6
CONTINUOUS
10
4.47177
20
-3.87921
11
4.47177
21
-3.88102
0
LINE
8
BLACK
6
CONTINUOUS
10
3.62925
20
-3.88102
11
3.57823
21
-3.88102
0
LINE
8
BLACK
6
CONTINUOUS
10
3.57823
20
-3.88102
11
3.57823
21
-3.87921
0
LINE
8
BLACK
6
CONTINUOUS
10
3.57823
20
-3.87921
11
3.62925
21
-3.87921
0
LINE
8
BLACK
6
CONTINUOUS
10
3.62925
20
-3.87921
11
3.62925
21
-3.88102
0
LINE
8
BLACK
6
CONTINUOUS
10
4.77544
20
-3.8357
11
4.77811
21
-3.83783
0
LINE
8
BLACK
6
CONTINUOUS
10
4.77811
20
-3.83783
11
4.77959
21
-3.8409
0
LINE
8
BLACK
6
CONTINUOUS
10
4.77959
20
-3.8409
11
4.77978
21
-3.84261
0
LINE
8
BLACK
6
CONTINUOUS
10
4.77978
20
-3.84261
11
4.77978
21
-3.87239
0
LINE
8
BLACK
6
CONTINUOUS
10
4.77978
20
-3.87239
11
4.77902
21
-3.87572
0
LINE
8
BLACK
6
CONTINUOUS
10
4.77902
20
-3.87572
11
4.7769
21
-3.87839
0
LINE
8
BLACK
6
CONTINUOUS
10
4.7769
20
-3.87839
11
4.77382
21
-3.87987
0
LINE
8
BLACK
6
CONTINUOUS
10
4.77382
20
-3.87987
11
4.77211
21
-3.88006
0
LINE
8
BLACK
6
CONTINUOUS
10
4.77211
20
-3.88006
11
4.75218
21
-3.88006
0
LINE
8
BLACK
6
CONTINUOUS
10
4.75218
20
-3.88006
11
4.74885
21
-3.8793
0
LINE
8
BLACK
6
CONTINUOUS
10
4.74885
20
-3.8793
11
4.74618
21
-3.87717
0
LINE
8
BLACK
6
CONTINUOUS
10
4.74618
20
-3.87717
11
4.7447
21
-3.8741
0
LINE
8
BLACK
6
CONTINUOUS
10
4.7447
20
-3.8741
11
4.74451
21
-3.87239
0
LINE
8
BLACK
6
CONTINUOUS
10
4.74451
20
-3.87239
11
4.74451
21
-3.84261
0
LINE
8
BLACK
6
CONTINUOUS
10
4.74451
20
-3.84261
11
4.74527
21
-3.83928
0
LINE
8
BLACK
6
CONTINUOUS
10
4.74527
20
-3.83928
11
4.7474
21
-3.83661
0
LINE
8
BLACK
6
CONTINUOUS
10
4.7474
20
-3.83661
11
4.75047
21
-3.83513
0
LINE
8
BLACK
6
CONTINUOUS
10
4.75047
20
-3.83513
11
4.75218
21
-3.83494
0
LINE
8
BLACK
6
CONTINUOUS
10
4.75218
20
-3.83494
11
4.77211
21
-3.83494
0
LINE
8
BLACK
6
CONTINUOUS
10
4.77211
20
-3.83494
11
4.77544
21
-3.8357
0
LINE
8
BLACK
6
CONTINUOUS
10
4.85615
20
-3.8357
11
4.85882
21
-3.83783
0
LINE
8
BLACK
6
CONTINUOUS
10
4.85882
20
-3.83783
11
4.8603
21
-3.8409
0
LINE
8
BLACK
6
CONTINUOUS
10
4.8603
20
-3.8409
11
4.86049
21
-3.84261
0
LINE
8
BLACK
6
CONTINUOUS
10
4.86049
20
-3.84261
11
4.86049
21
-3.87239
0
LINE
8
BLACK
6
CONTINUOUS
10
4.86049
20
-3.87239
11
4.85973
21
-3.87572
0
LINE
8
BLACK
6
CONTINUOUS
10
4.85973
20
-3.87572
11
4.8576
21
-3.87839
0
LINE
8
BLACK
6
CONTINUOUS
10
4.8576
20
-3.87839
11
4.85453
21
-3.87987
0
LINE
8
BLACK
6
CONTINUOUS
10
4.85453
20
-3.87987
11
4.85282
21
-3.88006
0
LINE
8
BLACK
6
CONTINUOUS
10
4.85282
20
-3.88006
11
4.83289
21
-3.88006
0
LINE
8
BLACK
6
CONTINUOUS
10
4.83289
20
-3.88006
11
4.82956
21
-3.8793
0
LINE
8
BLACK
6
CONTINUOUS
10
4.82956
20
-3.8793
11
4.82689
21
-3.87717
0
LINE
8
BLACK
6
CONTINUOUS
10
4.82689
20
-3.87717
11
4.82541
21
-3.8741
0
LINE
8
BLACK
6
CONTINUOUS
10
4.82541
20
-3.8741
11
4.82522
21
-3.87239
0
LINE
8
BLACK
6
CONTINUOUS
10
4.82522
20
-3.87239
11
4.82522
21
-3.84261
0
LINE
8
BLACK
6
CONTINUOUS
10
4.82522
20
-3.84261
11
4.82598
21
-3.83928
0
LINE
8
BLACK
6
CONTINUOUS
10
4.82598
20
-3.83928
11
4.8281
21
-3.83661
0
LINE
8
BLACK
6
CONTINUOUS
10
4.8281
20
-3.83661
11
4.83118
21
-3.83513
0
LINE
8
BLACK
6
CONTINUOUS
10
4.83118
20
-3.83513
11
4.83289
21
-3.83494
0
LINE
8
BLACK
6
CONTINUOUS
10
4.83289
20
-3.83494
11
4.85282
21
-3.83494
0
LINE
8
BLACK
6
CONTINUOUS
10
4.85282
20
-3.83494
11
4.85615
21
-3.8357
0
LINE
8
BLACK
6
CONTINUOUS
10
3.51961
20
-3.87906
11
3.48039
21
-3.87906
0
LINE
8
BLACK
6
CONTINUOUS
10
3.48039
20
-3.87906
11
3.48039
21
-3.84969
0
LINE
8
BLACK
6
CONTINUOUS
10
3.48039
20
-3.84969
11
3.51961
21
-3.84969
0
LINE
8
BLACK
6
CONTINUOUS
10
3.51961
20
-3.84969
11
3.51961
21
-3.87906
0
LINE
8
BLACK
6
CONTINUOUS
10
3.62925
20
-3.86134
11
3.57823
21
-3.86134
0
LINE
8
BLACK
6
CONTINUOUS
10
3.57823
20
-3.86134
11
3.57823
21
-3.85953
0
LINE
8
BLACK
6
CONTINUOUS
10
3.57823
20
-3.85953
11
3.62925
21
-3.85953
0
LINE
8
BLACK
6
CONTINUOUS
10
3.62925
20
-3.85953
11
3.62925
21
-3.86134
0
LINE
8
BLACK
6
CONTINUOUS
10
4.47177
20
-3.86134
11
4.42075
21
-3.86134
0
LINE
8
BLACK
6
CONTINUOUS
10
4.42075
20
-3.86134
11
4.42075
21
-3.85953
0
LINE
8
BLACK
6
CONTINUOUS
10
4.42075
20
-3.85953
11
4.47177
21
-3.85953
0
LINE
8
BLACK
6
CONTINUOUS
10
4.47177
20
-3.85953
11
4.47177
21
-3.86134
0
LINE
8
BLACK
6
CONTINUOUS
10
3.62925
20
-3.84165
11
3.57823
21
-3.84165
0
LINE
8
BLACK
6
CONTINUOUS
10
3.57823
20
-3.84165
11
3.57823
21
-3.83984
0
LINE
8
BLACK
6
CONTINUOUS
10
3.57823
20
-3.83984
11
3.62925
21
-3.83984
0
LINE
8
BLACK
6
CONTINUOUS
10
3.62925
20
-3.83984
11
3.62925
21
-3.84165
0
LINE
8
BLACK
6
CONTINUOUS
10
4.47177
20
-3.84165
11
4.42075
21
-3.84165
0
LINE
8
BLACK
6
CONTINUOUS
10
4.42075
20
-3.84165
11
4.42075
21
-3.83984
0
LINE
8
BLACK
6
CONTINUOUS
10
4.42075
20
-3.83984
11
4.47177
21
-3.83984
0
LINE
8
BLACK
6
CONTINUOUS
10
4.47177
20
-3.83984
11
4.47177
21
-3.84165
0
LINE
8
BLACK
6
CONTINUOUS
10
3.62925
20
-3.82197
11
3.57823
21
-3.82197
0
LINE
8
BLACK
6
CONTINUOUS
10
3.57823
20
-3.82197
11
3.57823
21
-3.82016
0
LINE
8
BLACK
6
CONTINUOUS
10
3.57823
20
-3.82016
11
3.62925
21
-3.82016
0
LINE
8
BLACK
6
CONTINUOUS
10
3.62925
20
-3.82016
11
3.62925
21
-3.82197
0
LINE
8
BLACK
6
CONTINUOUS
10
4.47177
20
-3.82197
11
4.42075
21
-3.82197
0
LINE
8
BLACK
6
CONTINUOUS
10
4.42075
20
-3.82197
11
4.42075
21
-3.82016
0
LINE
8
BLACK
6
CONTINUOUS
10
4.42075
20
-3.82016
11
4.47177
21
-3.82016
0
LINE
8
BLACK
6
CONTINUOUS
10
4.47177
20
-3.82016
11
4.47177
21
-3.82197
0
LINE
8
BLACK
6
CONTINUOUS
10
3.24461
20
-3.81406
11
3.20539
21
-3.81406
0
LINE
8
BLACK
6
CONTINUOUS
10
3.20539
20
-3.81406
11
3.20539
21
-3.78469
0
LINE
8
BLACK
6
CONTINUOUS
10
3.20539
20
-3.78469
11
3.24461
21
-3.78469
0
LINE
8
BLACK
6
CONTINUOUS
10
3.24461
20
-3.78469
11
3.24461
21
-3.81406
0
LINE
8
BLACK
6
CONTINUOUS
10
5.23241
20
-3.74635
11
5.23522
21
-3.7486
0
LINE
8
BLACK
6
CONTINUOUS
10
5.23522
20
-3.7486
11
5.23679
21
-3.75184
0
LINE
8
BLACK
6
CONTINUOUS
10
5.23679
20
-3.75184
11
5.23699
21
-3.75364
0
LINE
8
BLACK
6
CONTINUOUS
10
5.23699
20
-3.75364
11
5.23699
21
-3.79636
0
LINE
8
BLACK
6
CONTINUOUS
10
5.23699
20
-3.79636
11
5.23619
21
-3.79987
0
LINE
8
BLACK
6
CONTINUOUS
10
5.23619
20
-3.79987
11
5.23394
21
-3.80268
0
LINE
8
BLACK
6
CONTINUOUS
10
5.23394
20
-3.80268
11
5.2307
21
-3.80425
0
LINE
8
BLACK
6
CONTINUOUS
10
5.2307
20
-3.80425
11
5.2289
21
-3.80445
0
LINE
8
BLACK
6
CONTINUOUS
10
5.2289
20
-3.80445
11
5.19897
21
-3.80445
0
LINE
8
BLACK
6
CONTINUOUS
10
5.19897
20
-3.80445
11
5.19546
21
-3.80365
0
LINE
8
BLACK
6
CONTINUOUS
10
5.19546
20
-3.80365
11
5.19265
21
-3.8014
0
LINE
8
BLACK
6
CONTINUOUS
10
5.19265
20
-3.8014
11
5.19109
21
-3.79816
0
LINE
8
BLACK
6
CONTINUOUS
10
5.19109
20
-3.79816
11
5.19089
21
-3.79636
0
LINE
8
BLACK
6
CONTINUOUS
10
5.19089
20
-3.79636
11
5.19089
21
-3.75364
0
LINE
8
BLACK
6
CONTINUOUS
10
5.19089
20
-3.75364
11
5.19169
21
-3.75013
0
LINE
8
BLACK
6
CONTINUOUS
10
5.19169
20
-3.75013
11
5.19393
21
-3.74732
0
LINE
8
BLACK
6
CONTINUOUS
10
5.19393
20
-3.74732
11
5.19717
21
-3.74575
0
LINE
8
BLACK
6
CONTINUOUS
10
5.19717
20
-3.74575
11
5.19897
21
-3.74555
0
LINE
8
BLACK
6
CONTINUOUS
10
5.19897
20
-3.74555
11
5.2289
21
-3.74555
0
LINE
8
BLACK
6
CONTINUOUS
10
5.2289
20
-3.74555
11
5.23241
21
-3.74635
0
LINE
8
BLACK
6
CONTINUOUS
10
5.34954
20
-3.74635
11
5.35235
21
-3.7486
0
LINE
8
BLACK
6
CONTINUOUS
10
5.35235
20
-3.7486
11
5.35391
21
-3.75184
0
LINE
8
BLACK
6
CONTINUOUS
10
5.35391
20
-3.75184
11
5.35411
21
-3.75364
0
LINE
8
BLACK
6
CONTINUOUS
10
5.35411
20
-3.75364
11
5.35411
21
-3.79636
0
LINE
8
BLACK
6
CONTINUOUS
10
5.35411
20
-3.79636
11
5.35331
21
-3.79987
0
LINE
8
BLACK
6
CONTINUOUS
10
5.35331
20
-3.79987
11
5.35107
21
-3.80268
0
LINE
8
BLACK
6
CONTINUOUS
10
5.35107
20
-3.80268
11
5.34783
21
-3.80425
0
LINE
8
BLACK
6
CONTINUOUS
10
5.34783
20
-3.80425
11
5.34603
21
-3.80445
0
LINE
8
BLACK
6
CONTINUOUS
10
5.34603
20
-3.80445
11
5.3161
21
-3.80445
0
LINE
8
BLACK
6
CONTINUOUS
10
5.3161
20
-3.80445
11
5.31259
21
-3.80365
0
LINE
8
BLACK
6
CONTINUOUS
10
5.31259
20
-3.80365
11
5.30978
21
-3.8014
0
LINE
8
BLACK
6
CONTINUOUS
10
5.30978
20
-3.8014
11
5.30821
21
-3.79816
0
LINE
8
BLACK
6
CONTINUOUS
10
5.30821
20
-3.79816
11
5.30801
21
-3.79636
0
LINE
8
BLACK
6
CONTINUOUS
10
5.30801
20
-3.79636
11
5.30801
21
-3.75364
0
LINE
8
BLACK
6
CONTINUOUS
10
5.30801
20
-3.75364
11
5.30881
21
-3.75013
0
LINE
8
BLACK
6
CONTINUOUS
10
5.30881
20
-3.75013
11
5.31106
21
-3.74732
0
LINE
8
BLACK
6
CONTINUOUS
10
5.31106
20
-3.74732
11
5.3143
21
-3.74575
0
LINE
8
BLACK
6
CONTINUOUS
10
5.3143
20
-3.74575
11
5.3161
21
-3.74555
0
LINE
8
BLACK
6
CONTINUOUS
10
5.3161
20
-3.74555
11
5.34603
21
-3.74555
0
LINE
8
BLACK
6
CONTINUOUS
10
5.34603
20
-3.74555
11
5.34954
21
-3.74635
0
LINE
8
BLACK
6
CONTINUOUS
10
3.62925
20
-3.80228
11
3.57823
21
-3.80228
0
LINE
8
BLACK
6
CONTINUOUS
10
3.57823
20
-3.80228
11
3.57823
21
-3.80047
0
LINE
8
BLACK
6
CONTINUOUS
10
3.57823
20
-3.80047
11
3.62925
21
-3.80047
0
LINE
8
BLACK
6
CONTINUOUS
10
3.62925
20
-3.80047
11
3.62925
21
-3.80228
0
LINE
8
BLACK
6
CONTINUOUS
10
4.47177
20
-3.80228
11
4.42075
21
-3.80228
0
LINE
8
BLACK
6
CONTINUOUS
10
4.42075
20
-3.80228
11
4.42075
21
-3.80047
0
LINE
8
BLACK
6
CONTINUOUS
10
4.42075
20
-3.80047
11
4.47177
21
-3.80047
0
LINE
8
BLACK
6
CONTINUOUS
10
4.47177
20
-3.80047
11
4.47177
21
-3.80228
0
LINE
8
BLACK
6
CONTINUOUS
10
3.51961
20
-3.80031
11
3.48039
21
-3.80031
0
LINE
8
BLACK
6
CONTINUOUS
10
3.48039
20
-3.80031
11
3.48039
21
-3.77094
0
LINE
8
BLACK
6
CONTINUOUS
10
3.48039
20
-3.77094
11
3.51961
21
-3.77094
0
LINE
8
BLACK
6
CONTINUOUS
10
3.51961
20
-3.77094
11
3.51961
21
-3.80031
0
LINE
8
BLACK
6
CONTINUOUS
10
3.62925
20
-3.7826
11
3.57823
21
-3.7826
0
LINE
8
BLACK
6
CONTINUOUS
10
3.57823
20
-3.7826
11
3.57823
21
-3.78079
0
LINE
8
BLACK
6
CONTINUOUS
10
3.57823
20
-3.78079
11
3.62925
21
-3.78079
0
LINE
8
BLACK
6
CONTINUOUS
10
3.62925
20
-3.78079
11
3.62925
21
-3.7826
0
LINE
8
BLACK
6
CONTINUOUS
10
4.47177
20
-3.7826
11
4.42075
21
-3.7826
0
LINE
8
BLACK
6
CONTINUOUS
10
4.42075
20
-3.7826
11
4.42075
21
-3.78079
0
LINE
8
BLACK
6
CONTINUOUS
10
4.42075
20
-3.78079
11
4.47177
21
-3.78079
0
LINE
8
BLACK
6
CONTINUOUS
10
4.47177
20
-3.78079
11
4.47177
21
-3.7826
0
LINE
8
BLACK
6
CONTINUOUS
10
4.73723
20
-3.75149
11
4.73844
21
-3.75409
0
LINE
8
BLACK
6
CONTINUOUS
10
4.73844
20
-3.75409
11
4.73844
21
-3.76091
0
LINE
8
BLACK
6
CONTINUOUS
10
4.73844
20
-3.76091
11
4.73765
21
-3.76309
0
LINE
8
BLACK
6
CONTINUOUS
10
4.73765
20
-3.76309
11
4.73504
21
-3.76431
0
LINE
8
BLACK
6
CONTINUOUS
10
4.73504
20
-3.76431
11
4.67508
21
-3.76431
0
LINE
8
BLACK
6
CONTINUOUS
10
4.67508
20
-3.76431
11
4.67289
21
-3.76351
0
LINE
8
BLACK
6
CONTINUOUS
10
4.67289
20
-3.76351
11
4.67167
21
-3.76091
0
LINE
8
BLACK
6
CONTINUOUS
10
4.67167
20
-3.76091
11
4.67167
21
-3.75409
0
LINE
8
BLACK
6
CONTINUOUS
10
4.67167
20
-3.75409
11
4.67247
21
-3.75191
0
LINE
8
BLACK
6
CONTINUOUS
10
4.67247
20
-3.75191
11
4.67508
21
-3.75069
0
LINE
8
BLACK
6
CONTINUOUS
10
4.67508
20
-3.75069
11
4.73504
21
-3.75069
0
LINE
8
BLACK
6
CONTINUOUS
10
4.73504
20
-3.75069
11
4.73723
21
-3.75149
0
LINE
8
BLACK
6
CONTINUOUS
10
4.93211
20
-3.75149
11
4.93333
21
-3.75409
0
LINE
8
BLACK
6
CONTINUOUS
10
4.93333
20
-3.75409
11
4.93333
21
-3.76091
0
LINE
8
BLACK
6
CONTINUOUS
10
4.93333
20
-3.76091
11
4.93253
21
-3.76309
0
LINE
8
BLACK
6
CONTINUOUS
10
4.93253
20
-3.76309
11
4.92992
21
-3.76431
0
LINE
8
BLACK
6
CONTINUOUS
10
4.92992
20
-3.76431
11
4.86996
21
-3.76431
0
LINE
8
BLACK
6
CONTINUOUS
10
4.86996
20
-3.76431
11
4.86777
21
-3.76351
0
LINE
8
BLACK
6
CONTINUOUS
10
4.86777
20
-3.76351
11
4.86656
21
-3.76091
0
LINE
8
BLACK
6
CONTINUOUS
10
4.86656
20
-3.76091
11
4.86656
21
-3.75409
0
LINE
8
BLACK
6
CONTINUOUS
10
4.86656
20
-3.75409
11
4.86735
21
-3.75191
0
LINE
8
BLACK
6
CONTINUOUS
10
4.86735
20
-3.75191
11
4.86996
21
-3.75069
0
LINE
8
BLACK
6
CONTINUOUS
10
4.86996
20
-3.75069
11
4.92992
21
-3.75069
0
LINE
8
BLACK
6
CONTINUOUS
10
4.92992
20
-3.75069
11
4.93211
21
-3.75149
0
LINE
8
BLACK
6
CONTINUOUS
10
3.62925
20
-3.76291
11
3.57823
21
-3.76291
0
LINE
8
BLACK
6
CONTINUOUS
10
3.57823
20
-3.76291
11
3.57823
21
-3.7611
0
LINE
8
BLACK
6
CONTINUOUS
10
3.57823
20
-3.7611
11
3.62925
21
-3.7611
0
LINE
8
BLACK
6
CONTINUOUS
10
3.62925
20
-3.7611
11
3.62925
21
-3.76291
0
LINE
8
BLACK
6
CONTINUOUS
10
4.47177
20
-3.76291
11
4.42075
21
-3.76291
0
LINE
8
BLACK
6
CONTINUOUS
10
4.42075
20
-3.76291
11
4.42075
21
-3.7611
0
LINE
8
BLACK
6
CONTINUOUS
10
4.42075
20
-3.7611
11
4.47177
21
-3.7611
0
LINE
8
BLACK
6
CONTINUOUS
10
4.47177
20
-3.7611
11
4.47177
21
-3.76291
0
LINE
8
BLACK
6
CONTINUOUS
10
3.62925
20
-3.74323
11
3.57823
21
-3.74323
0
LINE
8
BLACK
6
CONTINUOUS
10
3.57823
20
-3.74323
11
3.57823
21
-3.74142
0
LINE
8
BLACK
6
CONTINUOUS
10
3.57823
20
-3.74142
11
3.62925
21
-3.74142
0
LINE
8
BLACK
6
CONTINUOUS
10
3.62925
20
-3.74142
11
3.62925
21
-3.74323
0
LINE
8
BLACK
6
CONTINUOUS
10
4.47177
20
-3.74323
11
4.42075
21
-3.74323
0
LINE
8
BLACK
6
CONTINUOUS
10
4.42075
20
-3.74323
11
4.42075
21
-3.74142
0
LINE
8
BLACK
6
CONTINUOUS
10
4.42075
20
-3.74142
11
4.47177
21
-3.74142
0
LINE
8
BLACK
6
CONTINUOUS
10
4.47177
20
-3.74142
11
4.47177
21
-3.74323
0
LINE
8
BLACK
6
CONTINUOUS
10
3.24461
20
-3.73531
11
3.20539
21
-3.73531
0
LINE
8
BLACK
6
CONTINUOUS
10
3.20539
20
-3.73531
11
3.20539
21
-3.70594
0
LINE
8
BLACK
6
CONTINUOUS
10
3.20539
20
-3.70594
11
3.24461
21
-3.70594
0
LINE
8
BLACK
6
CONTINUOUS
10
3.24461
20
-3.70594
11
3.24461
21
-3.73531
0
LINE
8
BLACK
6
CONTINUOUS
10
3.62925
20
-3.72354
11
3.57823
21
-3.72354
0
LINE
8
BLACK
6
CONTINUOUS
10
3.57823
20
-3.72354
11
3.57823
21
-3.72173
0
LINE
8
BLACK
6
CONTINUOUS
10
3.57823
20
-3.72173
11
3.62925
21
-3.72173
0
LINE
8
BLACK
6
CONTINUOUS
10
3.62925
20
-3.72173
11
3.62925
21
-3.72354
0
LINE
8
BLACK
6
CONTINUOUS
10
4.47177
20
-3.72354
11
4.42075
21
-3.72354
0
LINE
8
BLACK
6
CONTINUOUS
10
4.42075
20
-3.72354
11
4.42075
21
-3.72173
0
LINE
8
BLACK
6
CONTINUOUS
10
4.42075
20
-3.72173
11
4.47177
21
-3.72173
0
LINE
8
BLACK
6
CONTINUOUS
10
4.47177
20
-3.72173
11
4.47177
21
-3.72354
0
LINE
8
BLACK
6
CONTINUOUS
10
4.93211
20
-3.70149
11
4.93333
21
-3.70409
0
LINE
8
BLACK
6
CONTINUOUS
10
4.93333
20
-3.70409
11
4.93333
21
-3.71091
0
LINE
8
BLACK
6
CONTINUOUS
10
4.93333
20
-3.71091
11
4.93253
21
-3.71309
0
LINE
8
BLACK
6
CONTINUOUS
10
4.93253
20
-3.71309
11
4.92992
21
-3.71431
0
LINE
8
BLACK
6
CONTINUOUS
10
4.92992
20
-3.71431
11
4.86996
21
-3.71431
0
LINE
8
BLACK
6
CONTINUOUS
10
4.86996
20
-3.71431
11
4.86777
21
-3.71351
0
LINE
8
BLACK
6
CONTINUOUS
10
4.86777
20
-3.71351
11
4.86656
21
-3.71091
0
LINE
8
BLACK
6
CONTINUOUS
10
4.86656
20
-3.71091
11
4.86656
21
-3.70409
0
LINE
8
BLACK
6
CONTINUOUS
10
4.86656
20
-3.70409
11
4.86735
21
-3.70191
0
LINE
8
BLACK
6
CONTINUOUS
10
4.86735
20
-3.70191
11
4.86996
21
-3.70069
0
LINE
8
BLACK
6
CONTINUOUS
10
4.86996
20
-3.70069
11
4.92992
21
-3.70069
0
LINE
8
BLACK
6
CONTINUOUS
10
4.92992
20
-3.70069
11
4.93211
21
-3.70149
0
LINE
8
BLACK
6
CONTINUOUS
10
4.73723
20
-3.70149
11
4.73844
21
-3.70409
0
LINE
8
BLACK
6
CONTINUOUS
10
4.73844
20
-3.70409
11
4.73844
21
-3.71091
0
LINE
8
BLACK
6
CONTINUOUS
10
4.73844
20
-3.71091
11
4.73765
21
-3.71309
0
LINE
8
BLACK
6
CONTINUOUS
10
4.73765
20
-3.71309
11
4.73504
21
-3.71431
0
LINE
8
BLACK
6
CONTINUOUS
10
4.73504
20
-3.71431
11
4.67508
21
-3.71431
0
LINE
8
BLACK
6
CONTINUOUS
10
4.67508
20
-3.71431
11
4.67289
21
-3.71351
0
LINE
8
BLACK
6
CONTINUOUS
10
4.67289
20
-3.71351
11
4.67167
21
-3.71091
0
LINE
8
BLACK
6
CONTINUOUS
10
4.67167
20
-3.71091
11
4.67167
21
-3.70409
0
LINE
8
BLACK
6
CONTINUOUS
10
4.67167
20
-3.70409
11
4.67247
21
-3.70191
0
LINE
8
BLACK
6
CONTINUOUS
10
4.67247
20
-3.70191
11
4.67508
21
-3.70069
0
LINE
8
BLACK
6
CONTINUOUS
10
4.67508
20
-3.70069
11
4.73504
21
-3.70069
0
LINE
8
BLACK
6
CONTINUOUS
10
4.73504
20
-3.70069
11
4.73723
21
-3.70149
0
LINE
8
BLACK
6
CONTINUOUS
10
3.62925
20
-3.70386
11
3.57823
21
-3.70386
0
LINE
8
BLACK
6
CONTINUOUS
10
3.57823
20
-3.70386
11
3.57823
21
-3.70205
0
LINE
8
BLACK
6
CONTINUOUS
10
3.57823
20
-3.70205
11
3.62925
21
-3.70205
0
LINE
8
BLACK
6
CONTINUOUS
10
3.62925
20
-3.70205
11
3.62925
21
-3.70386
0
LINE
8
BLACK
6
CONTINUOUS
10
4.47177
20
-3.70386
11
4.42075
21
-3.70386
0
LINE
8
BLACK
6
CONTINUOUS
10
4.42075
20
-3.70386
11
4.42075
21
-3.70205
0
LINE
8
BLACK
6
CONTINUOUS
10
4.42075
20
-3.70205
11
4.47177
21
-3.70205
0
LINE
8
BLACK
6
CONTINUOUS
10
4.47177
20
-3.70205
11
4.47177
21
-3.70386
0
LINE
8
BLACK
6
CONTINUOUS
10
3.62925
20
-3.68417
11
3.57823
21
-3.68417
0
LINE
8
BLACK
6
CONTINUOUS
10
3.57823
20
-3.68417
11
3.57823
21
-3.68236
0
LINE
8
BLACK
6
CONTINUOUS
10
3.57823
20
-3.68236
11
3.62925
21
-3.68236
0
LINE
8
BLACK
6
CONTINUOUS
10
3.62925
20
-3.68236
11
3.62925
21
-3.68417
0
LINE
8
BLACK
6
CONTINUOUS
10
4.47177
20
-3.68417
11
4.42075
21
-3.68417
0
LINE
8
BLACK
6
CONTINUOUS
10
4.42075
20
-3.68417
11
4.42075
21
-3.68236
0
LINE
8
BLACK
6
CONTINUOUS
10
4.42075
20
-3.68236
11
4.47177
21
-3.68236
0
LINE
8
BLACK
6
CONTINUOUS
10
4.47177
20
-3.68236
11
4.47177
21
-3.68417
0
LINE
8
BLACK
6
CONTINUOUS
10
5.88204
20
-3.61385
11
5.88485
21
-3.6161
0
LINE
8
BLACK
6
CONTINUOUS
10
5.88485
20
-3.6161
11
5.88641
21
-3.61934
0
LINE
8
BLACK
6
CONTINUOUS
10
5.88641
20
-3.61934
11
5.88661
21
-3.62114
0
LINE
8
BLACK
6
CONTINUOUS
10
5.88661
20
-3.62114
11
5.88661
21
-3.66386
0
LINE
8
BLACK
6
CONTINUOUS
10
5.88661
20
-3.66386
11
5.88581
21
-3.66737
0
LINE
8
BLACK
6
CONTINUOUS
10
5.88581
20
-3.66737
11
5.88357
21
-3.67018
0
LINE
8
BLACK
6
CONTINUOUS
10
5.88357
20
-3.67018
11
5.88033
21
-3.67175
0
LINE
8
BLACK
6
CONTINUOUS
10
5.88033
20
-3.67175
11
5.87853
21
-3.67195
0
LINE
8
BLACK
6
CONTINUOUS
10
5.87853
20
-3.67195
11
5.8486
21
-3.67195
0
LINE
8
BLACK
6
CONTINUOUS
10
5.8486
20
-3.67195
11
5.84509
21
-3.67115
0
LINE
8
BLACK
6
CONTINUOUS
10
5.84509
20
-3.67115
11
5.84228
21
-3.6689
0
LINE
8
BLACK
6
CONTINUOUS
10
5.84228
20
-3.6689
11
5.84071
21
-3.66566
0
LINE
8
BLACK
6
CONTINUOUS
10
5.84071
20
-3.66566
11
5.84051
21
-3.66386
0
LINE
8
BLACK
6
CONTINUOUS
10
5.84051
20
-3.66386
11
5.84051
21
-3.62114
0
LINE
8
BLACK
6
CONTINUOUS
10
5.84051
20
-3.62114
11
5.84131
21
-3.61763
0
LINE
8
BLACK
6
CONTINUOUS
10
5.84131
20
-3.61763
11
5.84356
21
-3.61482
0
LINE
8
BLACK
6
CONTINUOUS
10
5.84356
20
-3.61482
11
5.8468
21
-3.61325
0
LINE
8
BLACK
6
CONTINUOUS
10
5.8468
20
-3.61325
11
5.8486
21
-3.61305
0
LINE
8
BLACK
6
CONTINUOUS
10
5.8486
20
-3.61305
11
5.87853
21
-3.61305
0
LINE
8
BLACK
6
CONTINUOUS
10
5.87853
20
-3.61305
11
5.88204
21
-3.61385
0
LINE
8
BLACK
6
CONTINUOUS
10
5.76491
20
-3.61385
11
5.76772
21
-3.6161
0
LINE
8
BLACK
6
CONTINUOUS
10
5.76772
20
-3.6161
11
5.76929
21
-3.61934
0
LINE
8
BLACK
6
CONTINUOUS
10
5.76929
20
-3.61934
11
5.76949
21
-3.62114
0
LINE
8
BLACK
6
CONTINUOUS
10
5.76949
20
-3.62114
11
5.76949
21
-3.66386
0
LINE
8
BLACK
6
CONTINUOUS
10
5.76949
20
-3.66386
11
5.76869
21
-3.66737
0
LINE
8
BLACK
6
CONTINUOUS
10
5.76869
20
-3.66737
11
5.76644
21
-3.67018
0
LINE
8
BLACK
6
CONTINUOUS
10
5.76644
20
-3.67018
11
5.7632
21
-3.67175
0
LINE
8
BLACK
6
CONTINUOUS
10
5.7632
20
-3.67175
11
5.7614
21
-3.67195
0
LINE
8
BLACK
6
CONTINUOUS
10
5.7614
20
-3.67195
11
5.73147
21
-3.67195
0
LINE
8
BLACK
6
CONTINUOUS
10
5.73147
20
-3.67195
11
5.72796
21
-3.67115
0
LINE
8
BLACK
6
CONTINUOUS
10
5.72796
20
-3.67115
11
5.72515
21
-3.6689
0
LINE
8
BLACK
6
CONTINUOUS
10
5.72515
20
-3.6689
11
5.72359
21
-3.66566
0
LINE
8
BLACK
6
CONTINUOUS
10
5.72359
20
-3.66566
11
5.72339
21
-3.66386
0
LINE
8
BLACK
6
CONTINUOUS
10
5.72339
20
-3.66386
11
5.72339
21
-3.62114
0
LINE
8
BLACK
6
CONTINUOUS
10
5.72339
20
-3.62114
11
5.72419
21
-3.61763
0
LINE
8
BLACK
6
CONTINUOUS
10
5.72419
20
-3.61763
11
5.72643
21
-3.61482
0
LINE
8
BLACK
6
CONTINUOUS
10
5.72643
20
-3.61482
11
5.72967
21
-3.61325
0
LINE
8
BLACK
6
CONTINUOUS
10
5.72967
20
-3.61325
11
5.73147
21
-3.61305
0
LINE
8
BLACK
6
CONTINUOUS
10
5.73147
20
-3.61305
11
5.7614
21
-3.61305
0
LINE
8
BLACK
6
CONTINUOUS
10
5.7614
20
-3.61305
11
5.76491
21
-3.61385
0
LINE
8
BLACK
6
CONTINUOUS
10
3.62925
20
-3.66449
11
3.57823
21
-3.66449
0
LINE
8
BLACK
6
CONTINUOUS
10
3.57823
20
-3.66449
11
3.57823
21
-3.66268
0
LINE
8
BLACK
6
CONTINUOUS
10
3.57823
20
-3.66268
11
3.62925
21
-3.66268
0
LINE
8
BLACK
6
CONTINUOUS
10
3.62925
20
-3.66268
11
3.62925
21
-3.66449
0
LINE
8
BLACK
6
CONTINUOUS
10
4.47177
20
-3.66449
11
4.42075
21
-3.66449
0
LINE
8
BLACK
6
CONTINUOUS
10
4.42075
20
-3.66449
11
4.42075
21
-3.66268
0
LINE
8
BLACK
6
CONTINUOUS
10
4.42075
20
-3.66268
11
4.47177
21
-3.66268
0
LINE
8
BLACK
6
CONTINUOUS
10
4.47177
20
-3.66268
11
4.47177
21
-3.66449
0
LINE
8
BLACK
6
CONTINUOUS
10
4.73723
20
-3.65149
11
4.73844
21
-3.65409
0
LINE
8
BLACK
6
CONTINUOUS
10
4.73844
20
-3.65409
11
4.73844
21
-3.66091
0
LINE
8
BLACK
6
CONTINUOUS
10
4.73844
20
-3.66091
11
4.73765
21
-3.66309
0
LINE
8
BLACK
6
CONTINUOUS
10
4.73765
20
-3.66309
11
4.73504
21
-3.66431
0
LINE
8
BLACK
6
CONTINUOUS
10
4.73504
20
-3.66431
11
4.67508
21
-3.66431
0
LINE
8
BLACK
6
CONTINUOUS
10
4.67508
20
-3.66431
11
4.67289
21
-3.66351
0
LINE
8
BLACK
6
CONTINUOUS
10
4.67289
20
-3.66351
11
4.67167
21
-3.66091
0
LINE
8
BLACK
6
CONTINUOUS
10
4.67167
20
-3.66091
11
4.67167
21
-3.65409
0
LINE
8
BLACK
6
CONTINUOUS
10
4.67167
20
-3.65409
11
4.67247
21
-3.65191
0
LINE
8
BLACK
6
CONTINUOUS
10
4.67247
20
-3.65191
11
4.67508
21
-3.65069
0
LINE
8
BLACK
6
CONTINUOUS
10
4.67508
20
-3.65069
11
4.73504
21
-3.65069
0
LINE
8
BLACK
6
CONTINUOUS
10
4.73504
20
-3.65069
11
4.73723
21
-3.65149
0
LINE
8
BLACK
6
CONTINUOUS
10
4.93211
20
-3.65149
11
4.93333
21
-3.65409
0
LINE
8
BLACK
6
CONTINUOUS
10
4.93333
20
-3.65409
11
4.93333
21
-3.66091
0
LINE
8
BLACK
6
CONTINUOUS
10
4.93333
20
-3.66091
11
4.93253
21
-3.66309
0
LINE
8
BLACK
6
CONTINUOUS
10
4.93253
20
-3.66309
11
4.92992
21
-3.66431
0
LINE
8
BLACK
6
CONTINUOUS
10
4.92992
20
-3.66431
11
4.86996
21
-3.66431
0
LINE
8
BLACK
6
CONTINUOUS
10
4.86996
20
-3.66431
11
4.86777
21
-3.66351
0
LINE
8
BLACK
6
CONTINUOUS
10
4.86777
20
-3.66351
11
4.86656
21
-3.66091
0
LINE
8
BLACK
6
CONTINUOUS
10
4.86656
20
-3.66091
11
4.86656
21
-3.65409
0
LINE
8
BLACK
6
CONTINUOUS
10
4.86656
20
-3.65409
11
4.86735
21
-3.65191
0
LINE
8
BLACK
6
CONTINUOUS
10
4.86735
20
-3.65191
11
4.86996
21
-3.65069
0
LINE
8
BLACK
6
CONTINUOUS
10
4.86996
20
-3.65069
11
4.92992
21
-3.65069
0
LINE
8
BLACK
6
CONTINUOUS
10
4.92992
20
-3.65069
11
4.93211
21
-3.65149
0
LINE
8
BLACK
6
CONTINUOUS
10
3.62925
20
-3.6448
11
3.57823
21
-3.6448
0
LINE
8
BLACK
6
CONTINUOUS
10
3.57823
20
-3.6448
11
3.57823
21
-3.64299
0
LINE
8
BLACK
6
CONTINUOUS
10
3.57823
20
-3.64299
11
3.62925
21
-3.64299
0
LINE
8
BLACK
6
CONTINUOUS
10
3.62925
20
-3.64299
11
3.62925
21
-3.6448
0
LINE
8
BLACK
6
CONTINUOUS
10
4.47177
20
-3.6448
11
4.42075
21
-3.6448
0
LINE
8
BLACK
6
CONTINUOUS
10
4.42075
20
-3.6448
11
4.42075
21
-3.64299
0
LINE
8
BLACK
6
CONTINUOUS
10
4.42075
20
-3.64299
11
4.47177
21
-3.64299
0
LINE
8
BLACK
6
CONTINUOUS
10
4.47177
20
-3.64299
11
4.47177
21
-3.6448
0
LINE
8
BLACK
6
CONTINUOUS
10
3.62925
20
-3.62512
11
3.57823
21
-3.62512
0
LINE
8
BLACK
6
CONTINUOUS
10
3.57823
20
-3.62512
11
3.57823
21
-3.62331
0
LINE
8
BLACK
6
CONTINUOUS
10
3.57823
20
-3.62331
11
3.62925
21
-3.62331
0
LINE
8
BLACK
6
CONTINUOUS
10
3.62925
20
-3.62331
11
3.62925
21
-3.62512
0
LINE
8
BLACK
6
CONTINUOUS
10
4.47177
20
-3.62512
11
4.42075
21
-3.62512
0
LINE
8
BLACK
6
CONTINUOUS
10
4.42075
20
-3.62512
11
4.42075
21
-3.62331
0
LINE
8
BLACK
6
CONTINUOUS
10
4.42075
20
-3.62331
11
4.47177
21
-3.62331
0
LINE
8
BLACK
6
CONTINUOUS
10
4.47177
20
-3.62331
11
4.47177
21
-3.62512
0
LINE
8
BLACK
6
CONTINUOUS
10
4.73723
20
-3.60149
11
4.73844
21
-3.60409
0
LINE
8
BLACK
6
CONTINUOUS
10
4.73844
20
-3.60409
11
4.73844
21
-3.61091
0
LINE
8
BLACK
6
CONTINUOUS
10
4.73844
20
-3.61091
11
4.73765
21
-3.61309
0
LINE
8
BLACK
6
CONTINUOUS
10
4.73765
20
-3.61309
11
4.73504
21
-3.61431
0
LINE
8
BLACK
6
CONTINUOUS
10
4.73504
20
-3.61431
11
4.67508
21
-3.61431
0
LINE
8
BLACK
6
CONTINUOUS
10
4.67508
20
-3.61431
11
4.67289
21
-3.61351
0
LINE
8
BLACK
6
CONTINUOUS
10
4.67289
20
-3.61351
11
4.67167
21
-3.61091
0
LINE
8
BLACK
6
CONTINUOUS
10
4.67167
20
-3.61091
11
4.67167
21
-3.60409
0
LINE
8
BLACK
6
CONTINUOUS
10
4.67167
20
-3.60409
11
4.67247
21
-3.60191
0
LINE
8
BLACK
6
CONTINUOUS
10
4.67247
20
-3.60191
11
4.67508
21
-3.60069
0
LINE
8
BLACK
6
CONTINUOUS
10
4.67508
20
-3.60069
11
4.73504
21
-3.60069
0
LINE
8
BLACK
6
CONTINUOUS
10
4.73504
20
-3.60069
11
4.73723
21
-3.60149
0
LINE
8
BLACK
6
CONTINUOUS
10
4.93211
20
-3.60149
11
4.93333
21
-3.60409
0
LINE
8
BLACK
6
CONTINUOUS
10
4.93333
20
-3.60409
11
4.93333
21
-3.61091
0
LINE
8
BLACK
6
CONTINUOUS
10
4.93333
20
-3.61091
11
4.93253
21
-3.61309
0
LINE
8
BLACK
6
CONTINUOUS
10
4.93253
20
-3.61309
11
4.92992
21
-3.61431
0
LINE
8
BLACK
6
CONTINUOUS
10
4.92992
20
-3.61431
11
4.86996
21
-3.61431
0
LINE
8
BLACK
6
CONTINUOUS
10
4.86996
20
-3.61431
11
4.86777
21
-3.61351
0
LINE
8
BLACK
6
CONTINUOUS
10
4.86777
20
-3.61351
11
4.86656
21
-3.61091
0
LINE
8
BLACK
6
CONTINUOUS
10
4.86656
20
-3.61091
11
4.86656
21
-3.60409
0
LINE
8
BLACK
6
CONTINUOUS
10
4.86656
20
-3.60409
11
4.86735
21
-3.60191
0
LINE
8
BLACK
6
CONTINUOUS
10
4.86735
20
-3.60191
11
4.86996
21
-3.60069
0
LINE
8
BLACK
6
CONTINUOUS
10
4.86996
20
-3.60069
11
4.92992
21
-3.60069
0
LINE
8
BLACK
6
CONTINUOUS
10
4.92992
20
-3.60069
11
4.93211
21
-3.60149
0
LINE
8
BLACK
6
CONTINUOUS
10
3.62925
20
-3.60543
11
3.57823
21
-3.60543
0
LINE
8
BLACK
6
CONTINUOUS
10
3.57823
20
-3.60543
11
3.57823
21
-3.60362
0
LINE
8
BLACK
6
CONTINUOUS
10
3.57823
20
-3.60362
11
3.62925
21
-3.60362
0
LINE
8
BLACK
6
CONTINUOUS
10
3.62925
20
-3.60362
11
3.62925
21
-3.60543
0
LINE
8
BLACK
6
CONTINUOUS
10
4.47177
20
-3.60543
11
4.42075
21
-3.60543
0
LINE
8
BLACK
6
CONTINUOUS
10
4.42075
20
-3.60543
11
4.42075
21
-3.60362
0
LINE
8
BLACK
6
CONTINUOUS
10
4.42075
20
-3.60362
11
4.47177
21
-3.60362
0
LINE
8
BLACK
6
CONTINUOUS
10
4.47177
20
-3.60362
11
4.47177
21
-3.60543
0
LINE
8
BLACK
6
CONTINUOUS
10
3.51961
20
-3.60406
11
3.48039
21
-3.60406
0
LINE
8
BLACK
6
CONTINUOUS
10
3.48039
20
-3.60406
11
3.48039
21
-3.57469
0
LINE
8
BLACK
6
CONTINUOUS
10
3.48039
20
-3.57469
11
3.51961
21
-3.57469
0
LINE
8
BLACK
6
CONTINUOUS
10
3.51961
20
-3.57469
11
3.51961
21
-3.60406
0
LINE
8
BLACK
6
CONTINUOUS
10
4.47177
20
-3.58575
11
4.42075
21
-3.58575
0
LINE
8
BLACK
6
CONTINUOUS
10
4.42075
20
-3.58575
11
4.42075
21
-3.58394
0
LINE
8
BLACK
6
CONTINUOUS
10
4.42075
20
-3.58394
11
4.47177
21
-3.58394
0
LINE
8
BLACK
6
CONTINUOUS
10
4.47177
20
-3.58394
11
4.47177
21
-3.58575
0
LINE
8
BLACK
6
CONTINUOUS
10
3.62925
20
-3.58575
11
3.57823
21
-3.58575
0
LINE
8
BLACK
6
CONTINUOUS
10
3.57823
20
-3.58575
11
3.57823
21
-3.58394
0
LINE
8
BLACK
6
CONTINUOUS
10
3.57823
20
-3.58394
11
3.62925
21
-3.58394
0
LINE
8
BLACK
6
CONTINUOUS
10
3.62925
20
-3.58394
11
3.62925
21
-3.58575
0
LINE
8
BLACK
6
CONTINUOUS
10
4.47177
20
-3.56606
11
4.42075
21
-3.56606
0
LINE
8
BLACK
6
CONTINUOUS
10
4.42075
20
-3.56606
11
4.42075
21
-3.56425
0
LINE
8
BLACK
6
CONTINUOUS
10
4.42075
20
-3.56425
11
4.47177
21
-3.56425
0
LINE
8
BLACK
6
CONTINUOUS
10
4.47177
20
-3.56425
11
4.47177
21
-3.56606
0
LINE
8
BLACK
6
CONTINUOUS
10
3.62925
20
-3.56606
11
3.57823
21
-3.56606
0
LINE
8
BLACK
6
CONTINUOUS
10
3.57823
20
-3.56606
11
3.57823
21
-3.56425
0
LINE
8
BLACK
6
CONTINUOUS
10
3.57823
20
-3.56425
11
3.62925
21
-3.56425
0
LINE
8
BLACK
6
CONTINUOUS
10
3.62925
20
-3.56425
11
3.62925
21
-3.56606
0
LINE
8
BLACK
6
CONTINUOUS
10
4.59961
20
-3.55406
11
4.56039
21
-3.55406
0
LINE
8
BLACK
6
CONTINUOUS
10
4.56039
20
-3.55406
11
4.56039
21
-3.52469
0
LINE
8
BLACK
6
CONTINUOUS
10
4.56039
20
-3.52469
11
4.59961
21
-3.52469
0
LINE
8
BLACK
6
CONTINUOUS
10
4.59961
20
-3.52469
11
4.59961
21
-3.55406
0
LINE
8
BLACK
6
CONTINUOUS
10
4.47177
20
-3.54638
11
4.42075
21
-3.54638
0
LINE
8
BLACK
6
CONTINUOUS
10
4.42075
20
-3.54638
11
4.42075
21
-3.54457
0
LINE
8
BLACK
6
CONTINUOUS
10
4.42075
20
-3.54457
11
4.47177
21
-3.54457
0
LINE
8
BLACK
6
CONTINUOUS
10
4.47177
20
-3.54457
11
4.47177
21
-3.54638
0
LINE
8
BLACK
6
CONTINUOUS
10
3.62925
20
-3.54638
11
3.57823
21
-3.54638
0
LINE
8
BLACK
6
CONTINUOUS
10
3.57823
20
-3.54638
11
3.57823
21
-3.54457
0
LINE
8
BLACK
6
CONTINUOUS
10
3.57823
20
-3.54457
11
3.62925
21
-3.54457
0
LINE
8
BLACK
6
CONTINUOUS
10
3.62925
20
-3.54457
11
3.62925
21
-3.54638
0
LINE
8
BLACK
6
CONTINUOUS
10
4.47177
20
-3.52669
11
4.42075
21
-3.52669
0
LINE
8
BLACK
6
CONTINUOUS
10
4.42075
20
-3.52669
11
4.42075
21
-3.52488
0
LINE
8
BLACK
6
CONTINUOUS
10
4.42075
20
-3.52488
11
4.47177
21
-3.52488
0
LINE
8
BLACK
6
CONTINUOUS
10
4.47177
20
-3.52488
11
4.47177
21
-3.52669
0
LINE
8
BLACK
6
CONTINUOUS
10
3.62925
20
-3.52669
11
3.57823
21
-3.52669
0
LINE
8
BLACK
6
CONTINUOUS
10
3.57823
20
-3.52669
11
3.57823
21
-3.52488
0
LINE
8
BLACK
6
CONTINUOUS
10
3.57823
20
-3.52488
11
3.62925
21
-3.52488
0
LINE
8
BLACK
6
CONTINUOUS
10
3.62925
20
-3.52488
11
3.62925
21
-3.52669
0
LINE
8
BLACK
6
CONTINUOUS
10
3.51961
20
-3.52531
11
3.48039
21
-3.52531
0
LINE
8
BLACK
6
CONTINUOUS
10
3.48039
20
-3.52531
11
3.48039
21
-3.49594
0
LINE
8
BLACK
6
CONTINUOUS
10
3.48039
20
-3.49594
11
3.51961
21
-3.49594
0
LINE
8
BLACK
6
CONTINUOUS
10
3.51961
20
-3.49594
11
3.51961
21
-3.52531
0
LINE
8
BLACK
6
CONTINUOUS
10
3.62925
20
-3.50701
11
3.57823
21
-3.50701
0
LINE
8
BLACK
6
CONTINUOUS
10
3.57823
20
-3.50701
11
3.57823
21
-3.5052
0
LINE
8
BLACK
6
CONTINUOUS
10
3.57823
20
-3.5052
11
3.62925
21
-3.5052
0
LINE
8
BLACK
6
CONTINUOUS
10
3.62925
20
-3.5052
11
3.62925
21
-3.50701
0
LINE
8
BLACK
6
CONTINUOUS
10
4.47177
20
-3.50701
11
4.42075
21
-3.50701
0
LINE
8
BLACK
6
CONTINUOUS
10
4.42075
20
-3.50701
11
4.42075
21
-3.5052
0
LINE
8
BLACK
6
CONTINUOUS
10
4.42075
20
-3.5052
11
4.47177
21
-3.5052
0
LINE
8
BLACK
6
CONTINUOUS
10
4.47177
20
-3.5052
11
4.47177
21
-3.50701
0
LINE
8
BLACK
6
CONTINUOUS
10
2.56047
20
-3.44192
11
2.56335
21
-3.44422
0
LINE
8
BLACK
6
CONTINUOUS
10
2.56335
20
-3.44422
11
2.56495
21
-3.44754
0
LINE
8
BLACK
6
CONTINUOUS
10
2.56495
20
-3.44754
11
2.56516
21
-3.44938
0
LINE
8
BLACK
6
CONTINUOUS
10
2.56516
20
-3.44938
11
2.56516
21
-3.48581
0
LINE
8
BLACK
6
CONTINUOUS
10
2.56516
20
-3.48581
11
2.56434
21
-3.48941
0
LINE
8
BLACK
6
CONTINUOUS
10
2.56434
20
-3.48941
11
2.56204
21
-3.49229
0
LINE
8
BLACK
6
CONTINUOUS
10
2.56204
20
-3.49229
11
2.55872
21
-3.49389
0
LINE
8
BLACK
6
CONTINUOUS
10
2.55872
20
-3.49389
11
2.55688
21
-3.49409
0
LINE
8
BLACK
6
CONTINUOUS
10
2.55688
20
-3.49409
11
2.46533
21
-3.49409
0
LINE
8
BLACK
6
CONTINUOUS
10
2.46533
20
-3.49409
11
2.46173
21
-3.49327
0
LINE
8
BLACK
6
CONTINUOUS
10
2.46173
20
-3.49327
11
2.45885
21
-3.49098
0
LINE
8
BLACK
6
CONTINUOUS
10
2.45885
20
-3.49098
11
2.45725
21
-3.48766
0
LINE
8
BLACK
6
CONTINUOUS
10
2.45725
20
-3.48766
11
2.45705
21
-3.48581
0
LINE
8
BLACK
6
CONTINUOUS
10
2.45705
20
-3.48581
11
2.45705
21
-3.44938
0
LINE
8
BLACK
6
CONTINUOUS
10
2.45705
20
-3.44938
11
2.45787
21
-3.44579
0
LINE
8
BLACK
6
CONTINUOUS
10
2.45787
20
-3.44579
11
2.46016
21
-3.44291
0
LINE
8
BLACK
6
CONTINUOUS
10
2.46016
20
-3.44291
11
2.46348
21
-3.44131
0
LINE
8
BLACK
6
CONTINUOUS
10
2.46348
20
-3.44131
11
2.46533
21
-3.4411
0
LINE
8
BLACK
6
CONTINUOUS
10
2.46533
20
-3.4411
11
2.55688
21
-3.4411
0
LINE
8
BLACK
6
CONTINUOUS
10
2.55688
20
-3.4411
11
2.56047
21
-3.44192
0
LINE
8
BLACK
6
CONTINUOUS
10
3.06828
20
-3.44131
11
3.07117
21
-3.44361
0
LINE
8
BLACK
6
CONTINUOUS
10
3.07117
20
-3.44361
11
3.07276
21
-3.44693
0
LINE
8
BLACK
6
CONTINUOUS
10
3.07276
20
-3.44693
11
3.07297
21
-3.44877
0
LINE
8
BLACK
6
CONTINUOUS
10
3.07297
20
-3.44877
11
3.07297
21
-3.4852
0
LINE
8
BLACK
6
CONTINUOUS
10
3.07297
20
-3.4852
11
3.07215
21
-3.4888
0
LINE
8
BLACK
6
CONTINUOUS
10
3.07215
20
-3.4888
11
3.06985
21
-3.49168
0
LINE
8
BLACK
6
CONTINUOUS
10
3.06985
20
-3.49168
11
3.06653
21
-3.49328
0
LINE
8
BLACK
6
CONTINUOUS
10
3.06653
20
-3.49328
11
3.06469
21
-3.49348
0
LINE
8
BLACK
6
CONTINUOUS
10
3.06469
20
-3.49348
11
2.97314
21
-3.49348
0
LINE
8
BLACK
6
CONTINUOUS
10
2.97314
20
-3.49348
11
2.96955
21
-3.49266
0
LINE
8
BLACK
6
CONTINUOUS
10
2.96955
20
-3.49266
11
2.96667
21
-3.49037
0
LINE
8
BLACK
6
CONTINUOUS
10
2.96667
20
-3.49037
11
2.96507
21
-3.48705
0
LINE
8
BLACK
6
CONTINUOUS
10
2.96507
20
-3.48705
11
2.96486
21
-3.4852
0
LINE
8
BLACK
6
CONTINUOUS
10
2.96486
20
-3.4852
11
2.96486
21
-3.44877
0
LINE
8
BLACK
6
CONTINUOUS
10
2.96486
20
-3.44877
11
2.96568
21
-3.44518
0
LINE
8
BLACK
6
CONTINUOUS
10
2.96568
20
-3.44518
11
2.96798
21
-3.4423
0
LINE
8
BLACK
6
CONTINUOUS
10
2.96798
20
-3.4423
11
2.9713
21
-3.4407
0
LINE
8
BLACK
6
CONTINUOUS
10
2.9713
20
-3.4407
11
2.97314
21
-3.44049
0
LINE
8
BLACK
6
CONTINUOUS
10
2.97314
20
-3.44049
11
3.06469
21
-3.44049
0
LINE
8
BLACK
6
CONTINUOUS
10
3.06469
20
-3.44049
11
3.06828
21
-3.44131
0
LINE
8
BLACK
6
CONTINUOUS
10
4.47177
20
-3.48732
11
4.42075
21
-3.48732
0
LINE
8
BLACK
6
CONTINUOUS
10
4.42075
20
-3.48732
11
4.42075
21
-3.48551
0
LINE
8
BLACK
6
CONTINUOUS
10
4.42075
20
-3.48551
11
4.47177
21
-3.48551
0
LINE
8
BLACK
6
CONTINUOUS
10
4.47177
20
-3.48551
11
4.47177
21
-3.48732
0
LINE
8
BLACK
6
CONTINUOUS
10
3.62925
20
-3.48732
11
3.57823
21
-3.48732
0
LINE
8
BLACK
6
CONTINUOUS
10
3.57823
20
-3.48732
11
3.57823
21
-3.48551
0
LINE
8
BLACK
6
CONTINUOUS
10
3.57823
20
-3.48551
11
3.62925
21
-3.48551
0
LINE
8
BLACK
6
CONTINUOUS
10
3.62925
20
-3.48551
11
3.62925
21
-3.48732
0
LINE
8
BLACK
6
CONTINUOUS
10
4.59961
20
-3.47531
11
4.56039
21
-3.47531
0
LINE
8
BLACK
6
CONTINUOUS
10
4.56039
20
-3.47531
11
4.56039
21
-3.44594
0
LINE
8
BLACK
6
CONTINUOUS
10
4.56039
20
-3.44594
11
4.59961
21
-3.44594
0
LINE
8
BLACK
6
CONTINUOUS
10
4.59961
20
-3.44594
11
4.59961
21
-3.47531
0
LINE
8
BLACK
6
CONTINUOUS
10
3.62925
20
-3.46764
11
3.57823
21
-3.46764
0
LINE
8
BLACK
6
CONTINUOUS
10
3.57823
20
-3.46764
11
3.57823
21
-3.46583
0
LINE
8
BLACK
6
CONTINUOUS
10
3.57823
20
-3.46583
11
3.62925
21
-3.46583
0
LINE
8
BLACK
6
CONTINUOUS
10
3.62925
20
-3.46583
11
3.62925
21
-3.46764
0
LINE
8
BLACK
6
CONTINUOUS
10
4.47177
20
-3.46764
11
4.42075
21
-3.46764
0
LINE
8
BLACK
6
CONTINUOUS
10
4.42075
20
-3.46764
11
4.42075
21
-3.46583
0
LINE
8
BLACK
6
CONTINUOUS
10
4.42075
20
-3.46583
11
4.47177
21
-3.46583
0
LINE
8
BLACK
6
CONTINUOUS
10
4.47177
20
-3.46583
11
4.47177
21
-3.46764
0
LINE
8
BLACK
6
CONTINUOUS
10
3.62925
20
-3.44795
11
3.57823
21
-3.44795
0
LINE
8
BLACK
6
CONTINUOUS
10
3.57823
20
-3.44795
11
3.57823
21
-3.44614
0
LINE
8
BLACK
6
CONTINUOUS
10
3.57823
20
-3.44614
11
3.62925
21
-3.44614
0
LINE
8
BLACK
6
CONTINUOUS
10
3.62925
20
-3.44614
11
3.62925
21
-3.44795
0
LINE
8
BLACK
6
CONTINUOUS
10
4.47177
20
-3.44795
11
4.42075
21
-3.44795
0
LINE
8
BLACK
6
CONTINUOUS
10
4.42075
20
-3.44795
11
4.42075
21
-3.44614
0
LINE
8
BLACK
6
CONTINUOUS
10
4.42075
20
-3.44614
11
4.47177
21
-3.44614
0
LINE
8
BLACK
6
CONTINUOUS
10
4.47177
20
-3.44614
11
4.47177
21
-3.44795
0
LINE
8
BLACK
6
CONTINUOUS
10
3.62925
20
-3.42827
11
3.57823
21
-3.42827
0
LINE
8
BLACK
6
CONTINUOUS
10
3.57823
20
-3.42827
11
3.57823
21
-3.42646
0
LINE
8
BLACK
6
CONTINUOUS
10
3.57823
20
-3.42646
11
3.62925
21
-3.42646
0
LINE
8
BLACK
6
CONTINUOUS
10
3.62925
20
-3.42646
11
3.62925
21
-3.42827
0
LINE
8
BLACK
6
CONTINUOUS
10
4.47177
20
-3.42827
11
4.42075
21
-3.42827
0
LINE
8
BLACK
6
CONTINUOUS
10
4.42075
20
-3.42827
11
4.42075
21
-3.42646
0
LINE
8
BLACK
6
CONTINUOUS
10
4.42075
20
-3.42646
11
4.47177
21
-3.42646
0
LINE
8
BLACK
6
CONTINUOUS
10
4.47177
20
-3.42646
11
4.47177
21
-3.42827
0
LINE
8
BLACK
6
CONTINUOUS
10
3.62925
20
-3.40858
11
3.57823
21
-3.40858
0
LINE
8
BLACK
6
CONTINUOUS
10
3.57823
20
-3.40858
11
3.57823
21
-3.40677
0
LINE
8
BLACK
6
CONTINUOUS
10
3.57823
20
-3.40677
11
3.62925
21
-3.40677
0
LINE
8
BLACK
6
CONTINUOUS
10
3.62925
20
-3.40677
11
3.62925
21
-3.40858
0
LINE
8
BLACK
6
CONTINUOUS
10
4.47177
20
-3.40858
11
4.42075
21
-3.40858
0
LINE
8
BLACK
6
CONTINUOUS
10
4.42075
20
-3.40858
11
4.42075
21
-3.40677
0
LINE
8
BLACK
6
CONTINUOUS
10
4.42075
20
-3.40677
11
4.47177
21
-3.40677
0
LINE
8
BLACK
6
CONTINUOUS
10
4.47177
20
-3.40677
11
4.47177
21
-3.40858
0
LINE
8
BLACK
6
CONTINUOUS
10
3.62925
20
-3.3889
11
3.57823
21
-3.3889
0
LINE
8
BLACK
6
CONTINUOUS
10
3.57823
20
-3.3889
11
3.57823
21
-3.38709
0
LINE
8
BLACK
6
CONTINUOUS
10
3.57823
20
-3.38709
11
3.62925
21
-3.38709
0
LINE
8
BLACK
6
CONTINUOUS
10
3.62925
20
-3.38709
11
3.62925
21
-3.3889
0
LINE
8
BLACK
6
CONTINUOUS
10
4.47177
20
-3.3889
11
4.42075
21
-3.3889
0
LINE
8
BLACK
6
CONTINUOUS
10
4.42075
20
-3.3889
11
4.42075
21
-3.38709
0
LINE
8
BLACK
6
CONTINUOUS
10
4.42075
20
-3.38709
11
4.47177
21
-3.38709
0
LINE
8
BLACK
6
CONTINUOUS
10
4.47177
20
-3.38709
11
4.47177
21
-3.3889
0
LINE
8
BLACK
6
CONTINUOUS
10
2.6988
20
-3.35915
11
2.70135
21
-3.36119
0
LINE
8
BLACK
6
CONTINUOUS
10
2.70135
20
-3.36119
11
2.70277
21
-3.36413
0
LINE
8
BLACK
6
CONTINUOUS
10
2.70277
20
-3.36413
11
2.70295
21
-3.36577
0
LINE
8
BLACK
6
CONTINUOUS
10
2.70295
20
-3.36577
11
2.70295
21
-3.38045
0
LINE
8
BLACK
6
CONTINUOUS
10
2.70295
20
-3.38045
11
2.70223
21
-3.38364
0
LINE
8
BLACK
6
CONTINUOUS
10
2.70223
20
-3.38364
11
2.70019
21
-3.38619
0
LINE
8
BLACK
6
CONTINUOUS
10
2.70019
20
-3.38619
11
2.69724
21
-3.38761
0
LINE
8
BLACK
6
CONTINUOUS
10
2.69724
20
-3.38761
11
2.69561
21
-3.3878
0
LINE
8
BLACK
6
CONTINUOUS
10
2.69561
20
-3.3878
11
2.50376
21
-3.3878
0
LINE
8
BLACK
6
CONTINUOUS
10
2.50376
20
-3.3878
11
2.50057
21
-3.38707
0
LINE
8
BLACK
6
CONTINUOUS
10
2.50057
20
-3.38707
11
2.49802
21
-3.38503
0
LINE
8
BLACK
6
CONTINUOUS
10
2.49802
20
-3.38503
11
2.4966
21
-3.38209
0
LINE
8
BLACK
6
CONTINUOUS
10
2.4966
20
-3.38209
11
2.49642
21
-3.38045
0
LINE
8
BLACK
6
CONTINUOUS
10
2.49642
20
-3.38045
11
2.49642
21
-3.36577
0
LINE
8
BLACK
6
CONTINUOUS
10
2.49642
20
-3.36577
11
2.49714
21
-3.36258
0
LINE
8
BLACK
6
CONTINUOUS
10
2.49714
20
-3.36258
11
2.49918
21
-3.36003
0
LINE
8
BLACK
6
CONTINUOUS
10
2.49918
20
-3.36003
11
2.50213
21
-3.35861
0
LINE
8
BLACK
6
CONTINUOUS
10
2.50213
20
-3.35861
11
2.50376
21
-3.35843
0
LINE
8
BLACK
6
CONTINUOUS
10
2.50376
20
-3.35843
11
2.69561
21
-3.35843
0
LINE
8
BLACK
6
CONTINUOUS
10
2.69561
20
-3.35843
11
2.6988
21
-3.35915
0
LINE
8
BLACK
6
CONTINUOUS
10
3.20661
20
-3.35854
11
3.20917
21
-3.36058
0
LINE
8
BLACK
6
CONTINUOUS
10
3.20917
20
-3.36058
11
3.21058
21
-3.36352
0
LINE
8
BLACK
6
CONTINUOUS
10
3.21058
20
-3.36352
11
3.21077
21
-3.36516
0
LINE
8
BLACK
6
CONTINUOUS
10
3.21077
20
-3.36516
11
3.21077
21
-3.37984
0
LINE
8
BLACK
6
CONTINUOUS
10
3.21077
20
-3.37984
11
3.21004
21
-3.38303
0
LINE
8
BLACK
6
CONTINUOUS
10
3.21004
20
-3.38303
11
3.208
21
-3.38558
0
LINE
8
BLACK
6
CONTINUOUS
10
3.208
20
-3.38558
11
3.20506
21
-3.387
0
LINE
8
BLACK
6
CONTINUOUS
10
3.20506
20
-3.387
11
3.20343
21
-3.38719
0
LINE
8
BLACK
6
CONTINUOUS
10
3.20343
20
-3.38719
11
3.01157
21
-3.38719
0
LINE
8
BLACK
6
CONTINUOUS
10
3.01157
20
-3.38719
11
3.00839
21
-3.38646
0
LINE
8
BLACK
6
CONTINUOUS
10
3.00839
20
-3.38646
11
3.00583
21
-3.38442
0
LINE
8
BLACK
6
CONTINUOUS
10
3.00583
20
-3.38442
11
3.00442
21
-3.38148
0
LINE
8
BLACK
6
CONTINUOUS
10
3.00442
20
-3.38148
11
3.00423
21
-3.37984
0
LINE
8
BLACK
6
CONTINUOUS
10
3.00423
20
-3.37984
11
3.00423
21
-3.36516
0
LINE
8
BLACK
6
CONTINUOUS
10
3.00423
20
-3.36516
11
3.00496
21
-3.36197
0
LINE
8
BLACK
6
CONTINUOUS
10
3.00496
20
-3.36197
11
3.007
21
-3.35942
0
LINE
8
BLACK
6
CONTINUOUS
10
3.007
20
-3.35942
11
3.00994
21
-3.358
0
LINE
8
BLACK
6
CONTINUOUS
10
3.00994
20
-3.358
11
3.01157
21
-3.35781
0
LINE
8
BLACK
6
CONTINUOUS
10
3.01157
20
-3.35781
11
3.20343
21
-3.35781
0
LINE
8
BLACK
6
CONTINUOUS
10
3.20343
20
-3.35781
11
3.20661
21
-3.35854
0
LINE
8
BLACK
6
CONTINUOUS
10
3.62925
20
-3.36921
11
3.57823
21
-3.36921
0
LINE
8
BLACK
6
CONTINUOUS
10
3.57823
20
-3.36921
11
3.57823
21
-3.3674
0
LINE
8
BLACK
6
CONTINUOUS
10
3.57823
20
-3.3674
11
3.62925
21
-3.3674
0
LINE
8
BLACK
6
CONTINUOUS
10
3.62925
20
-3.3674
11
3.62925
21
-3.36921
0
LINE
8
BLACK
6
CONTINUOUS
10
4.47177
20
-3.36921
11
4.42075
21
-3.36921
0
LINE
8
BLACK
6
CONTINUOUS
10
4.42075
20
-3.36921
11
4.42075
21
-3.3674
0
LINE
8
BLACK
6
CONTINUOUS
10
4.42075
20
-3.3674
11
4.47177
21
-3.3674
0
LINE
8
BLACK
6
CONTINUOUS
10
4.47177
20
-3.3674
11
4.47177
21
-3.36921
0
LINE
8
BLACK
6
CONTINUOUS
10
3.62925
20
-3.34953
11
3.57823
21
-3.34953
0
LINE
8
BLACK
6
CONTINUOUS
10
3.57823
20
-3.34953
11
3.57823
21
-3.34772
0
LINE
8
BLACK
6
CONTINUOUS
10
3.57823
20
-3.34772
11
3.62925
21
-3.34772
0
LINE
8
BLACK
6
CONTINUOUS
10
3.62925
20
-3.34772
11
3.62925
21
-3.34953
0
LINE
8
BLACK
6
CONTINUOUS
10
4.47177
20
-3.34953
11
4.42075
21
-3.34953
0
LINE
8
BLACK
6
CONTINUOUS
10
4.42075
20
-3.34953
11
4.42075
21
-3.34772
0
LINE
8
BLACK
6
CONTINUOUS
10
4.42075
20
-3.34772
11
4.47177
21
-3.34772
0
LINE
8
BLACK
6
CONTINUOUS
10
4.47177
20
-3.34772
11
4.47177
21
-3.34953
0
LINE
8
BLACK
6
CONTINUOUS
10
4.47177
20
-3.32984
11
4.42075
21
-3.32984
0
LINE
8
BLACK
6
CONTINUOUS
10
4.42075
20
-3.32984
11
4.42075
21
-3.32803
0
LINE
8
BLACK
6
CONTINUOUS
10
4.42075
20
-3.32803
11
4.47177
21
-3.32803
0
LINE
8
BLACK
6
CONTINUOUS
10
4.47177
20
-3.32803
11
4.47177
21
-3.32984
0
LINE
8
BLACK
6
CONTINUOUS
10
3.62925
20
-3.32984
11
3.57823
21
-3.32984
0
LINE
8
BLACK
6
CONTINUOUS
10
3.57823
20
-3.32984
11
3.57823
21
-3.32803
0
LINE
8
BLACK
6
CONTINUOUS
10
3.57823
20
-3.32803
11
3.62925
21
-3.32803
0
LINE
8
BLACK
6
CONTINUOUS
10
3.62925
20
-3.32803
11
3.62925
21
-3.32984
0
LINE
8
BLACK
6
CONTINUOUS
10
3.62925
20
-3.31016
11
3.57823
21
-3.31016
0
LINE
8
BLACK
6
CONTINUOUS
10
3.57823
20
-3.31016
11
3.57823
21
-3.30835
0
LINE
8
BLACK
6
CONTINUOUS
10
3.57823
20
-3.30835
11
3.62925
21
-3.30835
0
LINE
8
BLACK
6
CONTINUOUS
10
3.62925
20
-3.30835
11
3.62925
21
-3.31016
0
LINE
8
BLACK
6
CONTINUOUS
10
4.47177
20
-3.31016
11
4.42075
21
-3.31016
0
LINE
8
BLACK
6
CONTINUOUS
10
4.42075
20
-3.31016
11
4.42075
21
-3.30835
0
LINE
8
BLACK
6
CONTINUOUS
10
4.42075
20
-3.30835
11
4.47177
21
-3.30835
0
LINE
8
BLACK
6
CONTINUOUS
10
4.47177
20
-3.30835
11
4.47177
21
-3.31016
0
LINE
8
BLACK
6
CONTINUOUS
10
2.6988
20
-3.28041
11
2.70135
21
-3.28245
0
LINE
8
BLACK
6
CONTINUOUS
10
2.70135
20
-3.28245
11
2.70277
21
-3.28539
0
LINE
8
BLACK
6
CONTINUOUS
10
2.70277
20
-3.28539
11
2.70295
21
-3.28703
0
LINE
8
BLACK
6
CONTINUOUS
10
2.70295
20
-3.28703
11
2.70295
21
-3.30171
0
LINE
8
BLACK
6
CONTINUOUS
10
2.70295
20
-3.30171
11
2.70223
21
-3.3049
0
LINE
8
BLACK
6
CONTINUOUS
10
2.70223
20
-3.3049
11
2.70019
21
-3.30745
0
LINE
8
BLACK
6
CONTINUOUS
10
2.70019
20
-3.30745
11
2.69724
21
-3.30887
0
LINE
8
BLACK
6
CONTINUOUS
10
2.69724
20
-3.30887
11
2.69561
21
-3.30906
0
LINE
8
BLACK
6
CONTINUOUS
10
2.69561
20
-3.30906
11
2.50376
21
-3.30906
0
LINE
8
BLACK
6
CONTINUOUS
10
2.50376
20
-3.30906
11
2.50057
21
-3.30833
0
LINE
8
BLACK
6
CONTINUOUS
10
2.50057
20
-3.30833
11
2.49802
21
-3.30629
0
LINE
8
BLACK
6
CONTINUOUS
10
2.49802
20
-3.30629
11
2.4966
21
-3.30335
0
LINE
8
BLACK
6
CONTINUOUS
10
2.4966
20
-3.30335
11
2.49642
21
-3.30171
0
LINE
8
BLACK
6
CONTINUOUS
10
2.49642
20
-3.30171
11
2.49642
21
-3.28703
0
LINE
8
BLACK
6
CONTINUOUS
10
2.49642
20
-3.28703
11
2.49714
21
-3.28384
0
LINE
8
BLACK
6
CONTINUOUS
10
2.49714
20
-3.28384
11
2.49918
21
-3.28129
0
LINE
8
BLACK
6
CONTINUOUS
10
2.49918
20
-3.28129
11
2.50213
21
-3.27987
0
LINE
8
BLACK
6
CONTINUOUS
10
2.50213
20
-3.27987
11
2.50376
21
-3.27969
0
LINE
8
BLACK
6
CONTINUOUS
10
2.50376
20
-3.27969
11
2.69561
21
-3.27969
0
LINE
8
BLACK
6
CONTINUOUS
10
2.69561
20
-3.27969
11
2.6988
21
-3.28041
0
LINE
8
BLACK
6
CONTINUOUS
10
3.20661
20
-3.2798
11
3.20917
21
-3.28184
0
LINE
8
BLACK
6
CONTINUOUS
10
3.20917
20
-3.28184
11
3.21058
21
-3.28478
0
LINE
8
BLACK
6
CONTINUOUS
10
3.21058
20
-3.28478
11
3.21077
21
-3.28642
0
LINE
8
BLACK
6
CONTINUOUS
10
3.21077
20
-3.28642
11
3.21077
21
-3.3011
0
LINE
8
BLACK
6
CONTINUOUS
10
3.21077
20
-3.3011
11
3.21004
21
-3.30429
0
LINE
8
BLACK
6
CONTINUOUS
10
3.21004
20
-3.30429
11
3.208
21
-3.30684
0
LINE
8
BLACK
6
CONTINUOUS
10
3.208
20
-3.30684
11
3.20506
21
-3.30826
0
LINE
8
BLACK
6
CONTINUOUS
10
3.20506
20
-3.30826
11
3.20343
21
-3.30844
0
LINE
8
BLACK
6
CONTINUOUS
10
3.20343
20
-3.30844
11
3.01157
21
-3.30844
0
LINE
8
BLACK
6
CONTINUOUS
10
3.01157
20
-3.30844
11
3.00839
21
-3.30772
0
LINE
8
BLACK
6
CONTINUOUS
10
3.00839
20
-3.30772
11
3.00583
21
-3.30568
0
LINE
8
BLACK
6
CONTINUOUS
10
3.00583
20
-3.30568
11
3.00442
21
-3.30274
0
LINE
8
BLACK
6
CONTINUOUS
10
3.00442
20
-3.30274
11
3.00423
21
-3.3011
0
LINE
8
BLACK
6
CONTINUOUS
10
3.00423
20
-3.3011
11
3.00423
21
-3.28642
0
LINE
8
BLACK
6
CONTINUOUS
10
3.00423
20
-3.28642
11
3.00496
21
-3.28323
0
LINE
8
BLACK
6
CONTINUOUS
10
3.00496
20
-3.28323
11
3.007
21
-3.28068
0
LINE
8
BLACK
6
CONTINUOUS
10
3.007
20
-3.28068
11
3.00994
21
-3.27926
0
LINE
8
BLACK
6
CONTINUOUS
10
3.00994
20
-3.27926
11
3.01157
21
-3.27907
0
LINE
8
BLACK
6
CONTINUOUS
10
3.01157
20
-3.27907
11
3.20343
21
-3.27907
0
LINE
8
BLACK
6
CONTINUOUS
10
3.20343
20
-3.27907
11
3.20661
21
-3.2798
0
LINE
8
BLACK
6
CONTINUOUS
10
4.47177
20
-3.29047
11
4.42075
21
-3.29047
0
LINE
8
BLACK
6
CONTINUOUS
10
4.42075
20
-3.29047
11
4.42075
21
-3.28866
0
LINE
8
BLACK
6
CONTINUOUS
10
4.42075
20
-3.28866
11
4.47177
21
-3.28866
0
LINE
8
BLACK
6
CONTINUOUS
10
4.47177
20
-3.28866
11
4.47177
21
-3.29047
0
LINE
8
BLACK
6
CONTINUOUS
10
3.62925
20
-3.29047
11
3.57823
21
-3.29047
0
LINE
8
BLACK
6
CONTINUOUS
10
3.57823
20
-3.29047
11
3.57823
21
-3.28866
0
LINE
8
BLACK
6
CONTINUOUS
10
3.57823
20
-3.28866
11
3.62925
21
-3.28866
0
LINE
8
BLACK
6
CONTINUOUS
10
3.62925
20
-3.28866
11
3.62925
21
-3.29047
0
LINE
8
BLACK
6
CONTINUOUS
10
3.62925
20
-3.27079
11
3.57823
21
-3.27079
0
LINE
8
BLACK
6
CONTINUOUS
10
3.57823
20
-3.27079
11
3.57823
21
-3.26898
0
LINE
8
BLACK
6
CONTINUOUS
10
3.57823
20
-3.26898
11
3.62925
21
-3.26898
0
LINE
8
BLACK
6
CONTINUOUS
10
3.62925
20
-3.26898
11
3.62925
21
-3.27079
0
LINE
8
BLACK
6
CONTINUOUS
10
4.47177
20
-3.27079
11
4.42075
21
-3.27079
0
LINE
8
BLACK
6
CONTINUOUS
10
4.42075
20
-3.27079
11
4.42075
21
-3.26898
0
LINE
8
BLACK
6
CONTINUOUS
10
4.42075
20
-3.26898
11
4.47177
21
-3.26898
0
LINE
8
BLACK
6
CONTINUOUS
10
4.47177
20
-3.26898
11
4.47177
21
-3.27079
0
LINE
8
BLACK
6
CONTINUOUS
10
4.62961
20
-3.26156
11
4.59039
21
-3.26156
0
LINE
8
BLACK
6
CONTINUOUS
10
4.59039
20
-3.26156
11
4.59039
21
-3.23219
0
LINE
8
BLACK
6
CONTINUOUS
10
4.59039
20
-3.23219
11
4.62961
21
-3.23219
0
LINE
8
BLACK
6
CONTINUOUS
10
4.62961
20
-3.23219
11
4.62961
21
-3.26156
0
LINE
8
BLACK
6
CONTINUOUS
10
3.62925
20
-3.2511
11
3.57823
21
-3.2511
0
LINE
8
BLACK
6
CONTINUOUS
10
3.57823
20
-3.2511
11
3.57823
21
-3.24929
0
LINE
8
BLACK
6
CONTINUOUS
10
3.57823
20
-3.24929
11
3.62925
21
-3.24929
0
LINE
8
BLACK
6
CONTINUOUS
10
3.62925
20
-3.24929
11
3.62925
21
-3.2511
0
LINE
8
BLACK
6
CONTINUOUS
10
4.47177
20
-3.2511
11
4.42075
21
-3.2511
0
LINE
8
BLACK
6
CONTINUOUS
10
4.42075
20
-3.2511
11
4.42075
21
-3.24929
0
LINE
8
BLACK
6
CONTINUOUS
10
4.42075
20
-3.24929
11
4.47177
21
-3.24929
0
LINE
8
BLACK
6
CONTINUOUS
10
4.47177
20
-3.24929
11
4.47177
21
-3.2511
0
LINE
8
BLACK
6
CONTINUOUS
10
3.62925
20
-3.23142
11
3.57823
21
-3.23142
0
LINE
8
BLACK
6
CONTINUOUS
10
3.57823
20
-3.23142
11
3.57823
21
-3.22961
0
LINE
8
BLACK
6
CONTINUOUS
10
3.57823
20
-3.22961
11
3.62925
21
-3.22961
0
LINE
8
BLACK
6
CONTINUOUS
10
3.62925
20
-3.22961
11
3.62925
21
-3.23142
0
LINE
8
BLACK
6
CONTINUOUS
10
4.47177
20
-3.23142
11
4.42075
21
-3.23142
0
LINE
8
BLACK
6
CONTINUOUS
10
4.42075
20
-3.23142
11
4.42075
21
-3.22961
0
LINE
8
BLACK
6
CONTINUOUS
10
4.42075
20
-3.22961
11
4.47177
21
-3.22961
0
LINE
8
BLACK
6
CONTINUOUS
10
4.47177
20
-3.22961
11
4.47177
21
-3.23142
0
LINE
8
BLACK
6
CONTINUOUS
10
2.6988
20
-3.20167
11
2.70135
21
-3.20371
0
LINE
8
BLACK
6
CONTINUOUS
10
2.70135
20
-3.20371
11
2.70277
21
-3.20665
0
LINE
8
BLACK
6
CONTINUOUS
10
2.70277
20
-3.20665
11
2.70295
21
-3.20829
0
LINE
8
BLACK
6
CONTINUOUS
10
2.70295
20
-3.20829
11
2.70295
21
-3.22297
0
LINE
8
BLACK
6
CONTINUOUS
10
2.70295
20
-3.22297
11
2.70223
21
-3.22616
0
LINE
8
BLACK
6
CONTINUOUS
10
2.70223
20
-3.22616
11
2.70019
21
-3.22871
0
LINE
8
BLACK
6
CONTINUOUS
10
2.70019
20
-3.22871
11
2.69724
21
-3.23013
0
LINE
8
BLACK
6
CONTINUOUS
10
2.69724
20
-3.23013
11
2.69561
21
-3.23031
0
LINE
8
BLACK
6
CONTINUOUS
10
2.69561
20
-3.23031
11
2.50376
21
-3.23031
0
LINE
8
BLACK
6
CONTINUOUS
10
2.50376
20
-3.23031
11
2.50057
21
-3.22959
0
LINE
8
BLACK
6
CONTINUOUS
10
2.50057
20
-3.22959
11
2.49802
21
-3.22755
0
LINE
8
BLACK
6
CONTINUOUS
10
2.49802
20
-3.22755
11
2.4966
21
-3.22461
0
LINE
8
BLACK
6
CONTINUOUS
10
2.4966
20
-3.22461
11
2.49642
21
-3.22297
0
LINE
8
BLACK
6
CONTINUOUS
10
2.49642
20
-3.22297
11
2.49642
21
-3.20829
0
LINE
8
BLACK
6
CONTINUOUS
10
2.49642
20
-3.20829
11
2.49714
21
-3.2051
0
LINE
8
BLACK
6
CONTINUOUS
10
2.49714
20
-3.2051
11
2.49918
21
-3.20255
0
LINE
8
BLACK
6
CONTINUOUS
10
2.49918
20
-3.20255
11
2.50213
21
-3.20113
0
LINE
8
BLACK
6
CONTINUOUS
10
2.50213
20
-3.20113
11
2.50376
21
-3.20094
0
LINE
8
BLACK
6
CONTINUOUS
10
2.50376
20
-3.20094
11
2.69561
21
-3.20094
0
LINE
8
BLACK
6
CONTINUOUS
10
2.69561
20
-3.20094
11
2.6988
21
-3.20167
0
LINE
8
BLACK
6
CONTINUOUS
10
3.20661
20
-3.20106
11
3.20917
21
-3.2031
0
LINE
8
BLACK
6
CONTINUOUS
10
3.20917
20
-3.2031
11
3.21058
21
-3.20604
0
LINE
8
BLACK
6
CONTINUOUS
10
3.21058
20
-3.20604
11
3.21077
21
-3.20768
0
LINE
8
BLACK
6
CONTINUOUS
10
3.21077
20
-3.20768
11
3.21077
21
-3.22236
0
LINE
8
BLACK
6
CONTINUOUS
10
3.21077
20
-3.22236
11
3.21004
21
-3.22555
0
LINE
8
BLACK
6
CONTINUOUS
10
3.21004
20
-3.22555
11
3.208
21
-3.2281
0
LINE
8
BLACK
6
CONTINUOUS
10
3.208
20
-3.2281
11
3.20506
21
-3.22952
0
LINE
8
BLACK
6
CONTINUOUS
10
3.20506
20
-3.22952
11
3.20343
21
-3.2297
0
LINE
8
BLACK
6
CONTINUOUS
10
3.20343
20
-3.2297
11
3.01157
21
-3.2297
0
LINE
8
BLACK
6
CONTINUOUS
10
3.01157
20
-3.2297
11
3.00839
21
-3.22898
0
LINE
8
BLACK
6
CONTINUOUS
10
3.00839
20
-3.22898
11
3.00583
21
-3.22694
0
LINE
8
BLACK
6
CONTINUOUS
10
3.00583
20
-3.22694
11
3.00442
21
-3.224
0
LINE
8
BLACK
6
CONTINUOUS
10
3.00442
20
-3.224
11
3.00423
21
-3.22236
0
LINE
8
BLACK
6
CONTINUOUS
10
3.00423
20
-3.22236
11
3.00423
21
-3.20768
0
LINE
8
BLACK
6
CONTINUOUS
10
3.00423
20
-3.20768
11
3.00496
21
-3.20449
0
LINE
8
BLACK
6
CONTINUOUS
10
3.00496
20
-3.20449
11
3.007
21
-3.20194
0
LINE
8
BLACK
6
CONTINUOUS
10
3.007
20
-3.20194
11
3.00994
21
-3.20052
0
LINE
8
BLACK
6
CONTINUOUS
10
3.00994
20
-3.20052
11
3.01157
21
-3.20033
0
LINE
8
BLACK
6
CONTINUOUS
10
3.01157
20
-3.20033
11
3.20343
21
-3.20033
0
LINE
8
BLACK
6
CONTINUOUS
10
3.20343
20
-3.20033
11
3.20661
21
-3.20106
0
LINE
8
BLACK
6
CONTINUOUS
10
4.62961
20
-3.18281
11
4.59039
21
-3.18281
0
LINE
8
BLACK
6
CONTINUOUS
10
4.59039
20
-3.18281
11
4.59039
21
-3.15344
0
LINE
8
BLACK
6
CONTINUOUS
10
4.59039
20
-3.15344
11
4.62961
21
-3.15344
0
LINE
8
BLACK
6
CONTINUOUS
10
4.62961
20
-3.15344
11
4.62961
21
-3.18281
0
LINE
8
BLACK
6
CONTINUOUS
10
3.79953
20
-3.17925
11
3.79772
21
-3.17925
0
LINE
8
BLACK
6
CONTINUOUS
10
3.79772
20
-3.17925
11
3.79772
21
-3.12823
0
LINE
8
BLACK
6
CONTINUOUS
10
3.79772
20
-3.12823
11
3.79953
21
-3.12823
0
LINE
8
BLACK
6
CONTINUOUS
10
3.79953
20
-3.12823
11
3.79953
21
-3.17925
0
LINE
8
BLACK
6
CONTINUOUS
10
4.0948
20
-3.17925
11
4.09299
21
-3.17925
0
LINE
8
BLACK
6
CONTINUOUS
10
4.09299
20
-3.17925
11
4.09299
21
-3.12823
0
LINE
8
BLACK
6
CONTINUOUS
10
4.09299
20
-3.12823
11
4.0948
21
-3.12823
0
LINE
8
BLACK
6
CONTINUOUS
10
4.0948
20
-3.12823
11
4.0948
21
-3.17925
0
LINE
8
BLACK
6
CONTINUOUS
10
4.27197
20
-3.17925
11
4.27016
21
-3.17925
0
LINE
8
BLACK
6
CONTINUOUS
10
4.27016
20
-3.17925
11
4.27016
21
-3.12823
0
LINE
8
BLACK
6
CONTINUOUS
10
4.27016
20
-3.12823
11
4.27197
21
-3.12823
0
LINE
8
BLACK
6
CONTINUOUS
10
4.27197
20
-3.12823
11
4.27197
21
-3.17925
0
LINE
8
BLACK
6
CONTINUOUS
10
4.25228
20
-3.17925
11
4.25047
21
-3.17925
0
LINE
8
BLACK
6
CONTINUOUS
10
4.25047
20
-3.17925
11
4.25047
21
-3.12823
0
LINE
8
BLACK
6
CONTINUOUS
10
4.25047
20
-3.12823
11
4.25228
21
-3.12823
0
LINE
8
BLACK
6
CONTINUOUS
10
4.25228
20
-3.12823
11
4.25228
21
-3.17925
0
LINE
8
BLACK
6
CONTINUOUS
10
4.2326
20
-3.17925
11
4.23079
21
-3.17925
0
LINE
8
BLACK
6
CONTINUOUS
10
4.23079
20
-3.17925
11
4.23079
21
-3.12823
0
LINE
8
BLACK
6
CONTINUOUS
10
4.23079
20
-3.12823
11
4.2326
21
-3.12823
0
LINE
8
BLACK
6
CONTINUOUS
10
4.2326
20
-3.12823
11
4.2326
21
-3.17925
0
LINE
8
BLACK
6
CONTINUOUS
10
4.21291
20
-3.17925
11
4.2111
21
-3.17925
0
LINE
8
BLACK
6
CONTINUOUS
10
4.2111
20
-3.17925
11
4.2111
21
-3.12823
0
LINE
8
BLACK
6
CONTINUOUS
10
4.2111
20
-3.12823
11
4.21291
21
-3.12823
0
LINE
8
BLACK
6
CONTINUOUS
10
4.21291
20
-3.12823
11
4.21291
21
-3.17925
0
LINE
8
BLACK
6
CONTINUOUS
10
4.19323
20
-3.17925
11
4.19142
21
-3.17925
0
LINE
8
BLACK
6
CONTINUOUS
10
4.19142
20
-3.17925
11
4.19142
21
-3.12823
0
LINE
8
BLACK
6
CONTINUOUS
10
4.19142
20
-3.12823
11
4.19323
21
-3.12823
0
LINE
8
BLACK
6
CONTINUOUS
10
4.19323
20
-3.12823
11
4.19323
21
-3.17925
0
LINE
8
BLACK
6
CONTINUOUS
10
4.17354
20
-3.17925
11
4.17173
21
-3.17925
0
LINE
8
BLACK
6
CONTINUOUS
10
4.17173
20
-3.17925
11
4.17173
21
-3.12823
0
LINE
8
BLACK
6
CONTINUOUS
10
4.17173
20
-3.12823
11
4.17354
21
-3.12823
0
LINE
8
BLACK
6
CONTINUOUS
10
4.17354
20
-3.12823
11
4.17354
21
-3.17925
0
LINE
8
BLACK
6
CONTINUOUS
10
4.15386
20
-3.17925
11
4.15205
21
-3.17925
0
LINE
8
BLACK
6
CONTINUOUS
10
4.15205
20
-3.17925
11
4.15205
21
-3.12823
0
LINE
8
BLACK
6
CONTINUOUS
10
4.15205
20
-3.12823
11
4.15386
21
-3.12823
0
LINE
8
BLACK
6
CONTINUOUS
10
4.15386
20
-3.12823
11
4.15386
21
-3.17925
0
LINE
8
BLACK
6
CONTINUOUS
10
4.13417
20
-3.17925
11
4.13236
21
-3.17925
0
LINE
8
BLACK
6
CONTINUOUS
10
4.13236
20
-3.17925
11
4.13236
21
-3.12823
0
LINE
8
BLACK
6
CONTINUOUS
10
4.13236
20
-3.12823
11
4.13417
21
-3.12823
0
LINE
8
BLACK
6
CONTINUOUS
10
4.13417
20
-3.12823
11
4.13417
21
-3.17925
0
LINE
8
BLACK
6
CONTINUOUS
10
4.11449
20
-3.17925
11
4.11268
21
-3.17925
0
LINE
8
BLACK
6
CONTINUOUS
10
4.11268
20
-3.17925
11
4.11268
21
-3.12823
0
LINE
8
BLACK
6
CONTINUOUS
10
4.11268
20
-3.12823
11
4.11449
21
-3.12823
0
LINE
8
BLACK
6
CONTINUOUS
10
4.11449
20
-3.12823
11
4.11449
21
-3.17925
0
LINE
8
BLACK
6
CONTINUOUS
10
4.29165
20
-3.17925
11
4.28984
21
-3.17925
0
LINE
8
BLACK
6
CONTINUOUS
10
4.28984
20
-3.17925
11
4.28984
21
-3.12823
0
LINE
8
BLACK
6
CONTINUOUS
10
4.28984
20
-3.12823
11
4.29165
21
-3.12823
0
LINE
8
BLACK
6
CONTINUOUS
10
4.29165
20
-3.12823
11
4.29165
21
-3.17925
0
LINE
8
BLACK
6
CONTINUOUS
10
3.89795
20
-3.17925
11
3.89614
21
-3.17925
0
LINE
8
BLACK
6
CONTINUOUS
10
3.89614
20
-3.17925
11
3.89614
21
-3.12823
0
LINE
8
BLACK
6
CONTINUOUS
10
3.89614
20
-3.12823
11
3.89795
21
-3.12823
0
LINE
8
BLACK
6
CONTINUOUS
10
3.89795
20
-3.12823
11
3.89795
21
-3.17925
0
LINE
8
BLACK
6
CONTINUOUS
10
3.91764
20
-3.17925
11
3.91583
21
-3.17925
0
LINE
8
BLACK
6
CONTINUOUS
10
3.91583
20
-3.17925
11
3.91583
21
-3.12823
0
LINE
8
BLACK
6
CONTINUOUS
10
3.91583
20
-3.12823
11
3.91764
21
-3.12823
0
LINE
8
BLACK
6
CONTINUOUS
10
3.91764
20
-3.12823
11
3.91764
21
-3.17925
0
LINE
8
BLACK
6
CONTINUOUS
10
3.93732
20
-3.17925
11
3.93551
21
-3.17925
0
LINE
8
BLACK
6
CONTINUOUS
10
3.93551
20
-3.17925
11
3.93551
21
-3.12823
0
LINE
8
BLACK
6
CONTINUOUS
10
3.93551
20
-3.12823
11
3.93732
21
-3.12823
0
LINE
8
BLACK
6
CONTINUOUS
10
3.93732
20
-3.12823
11
3.93732
21
-3.17925
0
LINE
8
BLACK
6
CONTINUOUS
10
4.03575
20
-3.17925
11
4.03394
21
-3.17925
0
LINE
8
BLACK
6
CONTINUOUS
10
4.03394
20
-3.17925
11
4.03394
21
-3.12823
0
LINE
8
BLACK
6
CONTINUOUS
10
4.03394
20
-3.12823
11
4.03575
21
-3.12823
0
LINE
8
BLACK
6
CONTINUOUS
10
4.03575
20
-3.12823
11
4.03575
21
-3.17925
0
LINE
8
BLACK
6
CONTINUOUS
10
4.01606
20
-3.17925
11
4.01425
21
-3.17925
0
LINE
8
BLACK
6
CONTINUOUS
10
4.01425
20
-3.17925
11
4.01425
21
-3.12823
0
LINE
8
BLACK
6
CONTINUOUS
10
4.01425
20
-3.12823
11
4.01606
21
-3.12823
0
LINE
8
BLACK
6
CONTINUOUS
10
4.01606
20
-3.12823
11
4.01606
21
-3.17925
0
LINE
8
BLACK
6
CONTINUOUS
10
3.95701
20
-3.17925
11
3.9552
21
-3.17925
0
LINE
8
BLACK
6
CONTINUOUS
10
3.9552
20
-3.17925
11
3.9552
21
-3.12823
0
LINE
8
BLACK
6
CONTINUOUS
10
3.9552
20
-3.12823
11
3.95701
21
-3.12823
0
LINE
8
BLACK
6
CONTINUOUS
10
3.95701
20
-3.12823
11
3.95701
21
-3.17925
0
LINE
8
BLACK
6
CONTINUOUS
10
3.97669
20
-3.17925
11
3.97488
21
-3.17925
0
LINE
8
BLACK
6
CONTINUOUS
10
3.97488
20
-3.17925
11
3.97488
21
-3.12823
0
LINE
8
BLACK
6
CONTINUOUS
10
3.97488
20
-3.12823
11
3.97669
21
-3.12823
0
LINE
8
BLACK
6
CONTINUOUS
10
3.97669
20
-3.12823
11
3.97669
21
-3.17925
0
LINE
8
BLACK
6
CONTINUOUS
10
3.99638
20
-3.17925
11
3.99457
21
-3.17925
0
LINE
8
BLACK
6
CONTINUOUS
10
3.99457
20
-3.17925
11
3.99457
21
-3.12823
0
LINE
8
BLACK
6
CONTINUOUS
10
3.99457
20
-3.12823
11
3.99638
21
-3.12823
0
LINE
8
BLACK
6
CONTINUOUS
10
3.99638
20
-3.12823
11
3.99638
21
-3.17925
0
LINE
8
BLACK
6
CONTINUOUS
10
4.31134
20
-3.17925
11
4.30953
21
-3.17925
0
LINE
8
BLACK
6
CONTINUOUS
10
4.30953
20
-3.17925
11
4.30953
21
-3.12823
0
LINE
8
BLACK
6
CONTINUOUS
10
4.30953
20
-3.12823
11
4.31134
21
-3.12823
0
LINE
8
BLACK
6
CONTINUOUS
10
4.31134
20
-3.12823
11
4.31134
21
-3.17925
0
LINE
8
BLACK
6
CONTINUOUS
10
3.77984
20
-3.17925
11
3.77803
21
-3.17925
0
LINE
8
BLACK
6
CONTINUOUS
10
3.77803
20
-3.17925
11
3.77803
21
-3.12823
0
LINE
8
BLACK
6
CONTINUOUS
10
3.77803
20
-3.12823
11
3.77984
21
-3.12823
0
LINE
8
BLACK
6
CONTINUOUS
10
3.77984
20
-3.12823
11
3.77984
21
-3.17925
0
LINE
8
BLACK
6
CONTINUOUS
10
3.81921
20
-3.17925
11
3.8174
21
-3.17925
0
LINE
8
BLACK
6
CONTINUOUS
10
3.8174
20
-3.17925
11
3.8174
21
-3.12823
0
LINE
8
BLACK
6
CONTINUOUS
10
3.8174
20
-3.12823
11
3.81921
21
-3.12823
0
LINE
8
BLACK
6
CONTINUOUS
10
3.81921
20
-3.12823
11
3.81921
21
-3.17925
0
LINE
8
BLACK
6
CONTINUOUS
10
4.07512
20
-3.17925
11
4.07331
21
-3.17925
0
LINE
8
BLACK
6
CONTINUOUS
10
4.07331
20
-3.17925
11
4.07331
21
-3.12823
0
LINE
8
BLACK
6
CONTINUOUS
10
4.07331
20
-3.12823
11
4.07512
21
-3.12823
0
LINE
8
BLACK
6
CONTINUOUS
10
4.07512
20
-3.12823
11
4.07512
21
-3.17925
0
LINE
8
BLACK
6
CONTINUOUS
10
4.05543
20
-3.17925
11
4.05362
21
-3.17925
0
LINE
8
BLACK
6
CONTINUOUS
10
4.05362
20
-3.17925
11
4.05362
21
-3.12823
0
LINE
8
BLACK
6
CONTINUOUS
10
4.05362
20
-3.12823
11
4.05543
21
-3.12823
0
LINE
8
BLACK
6
CONTINUOUS
10
4.05543
20
-3.12823
11
4.05543
21
-3.17925
0
LINE
8
BLACK
6
CONTINUOUS
10
3.8389
20
-3.17925
11
3.83709
21
-3.17925
0
LINE
8
BLACK
6
CONTINUOUS
10
3.83709
20
-3.17925
11
3.83709
21
-3.12823
0
LINE
8
BLACK
6
CONTINUOUS
10
3.83709
20
-3.12823
11
3.8389
21
-3.12823
0
LINE
8
BLACK
6
CONTINUOUS
10
3.8389
20
-3.12823
11
3.8389
21
-3.17925
0
LINE
8
BLACK
6
CONTINUOUS
10
3.85858
20
-3.17925
11
3.85677
21
-3.17925
0
LINE
8
BLACK
6
CONTINUOUS
10
3.85677
20
-3.17925
11
3.85677
21
-3.12823
0
LINE
8
BLACK
6
CONTINUOUS
10
3.85677
20
-3.12823
11
3.85858
21
-3.12823
0
LINE
8
BLACK
6
CONTINUOUS
10
3.85858
20
-3.12823
11
3.85858
21
-3.17925
0
LINE
8
BLACK
6
CONTINUOUS
10
3.87827
20
-3.17925
11
3.87646
21
-3.17925
0
LINE
8
BLACK
6
CONTINUOUS
10
3.87646
20
-3.17925
11
3.87646
21
-3.12823
0
LINE
8
BLACK
6
CONTINUOUS
10
3.87646
20
-3.12823
11
3.87827
21
-3.12823
0
LINE
8
BLACK
6
CONTINUOUS
10
3.87827
20
-3.12823
11
3.87827
21
-3.17925
0
LINE
8
BLACK
6
CONTINUOUS
10
3.68142
20
-3.17925
11
3.67961
21
-3.17925
0
LINE
8
BLACK
6
CONTINUOUS
10
3.67961
20
-3.17925
11
3.67961
21
-3.12823
0
LINE
8
BLACK
6
CONTINUOUS
10
3.67961
20
-3.12823
11
3.68142
21
-3.12823
0
LINE
8
BLACK
6
CONTINUOUS
10
3.68142
20
-3.12823
11
3.68142
21
-3.17925
0
LINE
8
BLACK
6
CONTINUOUS
10
3.7011
20
-3.17925
11
3.69929
21
-3.17925
0
LINE
8
BLACK
6
CONTINUOUS
10
3.69929
20
-3.17925
11
3.69929
21
-3.12823
0
LINE
8
BLACK
6
CONTINUOUS
10
3.69929
20
-3.12823
11
3.7011
21
-3.12823
0
LINE
8
BLACK
6
CONTINUOUS
10
3.7011
20
-3.12823
11
3.7011
21
-3.17925
0
LINE
8
BLACK
6
CONTINUOUS
10
3.72079
20
-3.17925
11
3.71898
21
-3.17925
0
LINE
8
BLACK
6
CONTINUOUS
10
3.71898
20
-3.17925
11
3.71898
21
-3.12823
0
LINE
8
BLACK
6
CONTINUOUS
10
3.71898
20
-3.12823
11
3.72079
21
-3.12823
0
LINE
8
BLACK
6
CONTINUOUS
10
3.72079
20
-3.12823
11
3.72079
21
-3.17925
0
LINE
8
BLACK
6
CONTINUOUS
10
3.74047
20
-3.17925
11
3.73866
21
-3.17925
0
LINE
8
BLACK
6
CONTINUOUS
10
3.73866
20
-3.17925
11
3.73866
21
-3.12823
0
LINE
8
BLACK
6
CONTINUOUS
10
3.73866
20
-3.12823
11
3.74047
21
-3.12823
0
LINE
8
BLACK
6
CONTINUOUS
10
3.74047
20
-3.12823
11
3.74047
21
-3.17925
0
LINE
8
BLACK
6
CONTINUOUS
10
3.76016
20
-3.17925
11
3.75835
21
-3.17925
0
LINE
8
BLACK
6
CONTINUOUS
10
3.75835
20
-3.17925
11
3.75835
21
-3.12823
0
LINE
8
BLACK
6
CONTINUOUS
10
3.75835
20
-3.12823
11
3.76016
21
-3.12823
0
LINE
8
BLACK
6
CONTINUOUS
10
3.76016
20
-3.12823
11
3.76016
21
-3.17925
0
LINE
8
BLACK
6
CONTINUOUS
10
4.37039
20
-3.17925
11
4.36858
21
-3.17925
0
LINE
8
BLACK
6
CONTINUOUS
10
4.36858
20
-3.17925
11
4.36858
21
-3.12823
0
LINE
8
BLACK
6
CONTINUOUS
10
4.36858
20
-3.12823
11
4.37039
21
-3.12823
0
LINE
8
BLACK
6
CONTINUOUS
10
4.37039
20
-3.12823
11
4.37039
21
-3.17925
0
LINE
8
BLACK
6
CONTINUOUS
10
4.35071
20
-3.17925
11
4.3489
21
-3.17925
0
LINE
8
BLACK
6
CONTINUOUS
10
4.3489
20
-3.17925
11
4.3489
21
-3.12823
0
LINE
8
BLACK
6
CONTINUOUS
10
4.3489
20
-3.12823
11
4.35071
21
-3.12823
0
LINE
8
BLACK
6
CONTINUOUS
10
4.35071
20
-3.12823
11
4.35071
21
-3.17925
0
LINE
8
BLACK
6
CONTINUOUS
10
4.33102
20
-3.17925
11
4.32921
21
-3.17925
0
LINE
8
BLACK
6
CONTINUOUS
10
4.32921
20
-3.17925
11
4.32921
21
-3.12823
0
LINE
8
BLACK
6
CONTINUOUS
10
4.32921
20
-3.12823
11
4.33102
21
-3.12823
0
LINE
8
BLACK
6
CONTINUOUS
10
4.33102
20
-3.12823
11
4.33102
21
-3.17925
0
LINE
8
BLACK
6
CONTINUOUS
10
2.6988
20
-3.12293
11
2.70135
21
-3.12497
0
LINE
8
BLACK
6
CONTINUOUS
10
2.70135
20
-3.12497
11
2.70277
21
-3.12791
0
LINE
8
BLACK
6
CONTINUOUS
10
2.70277
20
-3.12791
11
2.70295
21
-3.12955
0
LINE
8
BLACK
6
CONTINUOUS
10
2.70295
20
-3.12955
11
2.70295
21
-3.14423
0
LINE
8
BLACK
6
CONTINUOUS
10
2.70295
20
-3.14423
11
2.70223
21
-3.14742
0
LINE
8
BLACK
6
CONTINUOUS
10
2.70223
20
-3.14742
11
2.70019
21
-3.14997
0
LINE
8
BLACK
6
CONTINUOUS
10
2.70019
20
-3.14997
11
2.69724
21
-3.15139
0
LINE
8
BLACK
6
CONTINUOUS
10
2.69724
20
-3.15139
11
2.69561
21
-3.15157
0
LINE
8
BLACK
6
CONTINUOUS
10
2.69561
20
-3.15157
11
2.50376
21
-3.15157
0
LINE
8
BLACK
6
CONTINUOUS
10
2.50376
20
-3.15157
11
2.50057
21
-3.15085
0
LINE
8
BLACK
6
CONTINUOUS
10
2.50057
20
-3.15085
11
2.49802
21
-3.14881
0
LINE
8
BLACK
6
CONTINUOUS
10
2.49802
20
-3.14881
11
2.4966
21
-3.14587
0
LINE
8
BLACK
6
CONTINUOUS
10
2.4966
20
-3.14587
11
2.49642
21
-3.14423
0
LINE
8
BLACK
6
CONTINUOUS
10
2.49642
20
-3.14423
11
2.49642
21
-3.12955
0
LINE
8
BLACK
6
CONTINUOUS
10
2.49642
20
-3.12955
11
2.49714
21
-3.12636
0
LINE
8
BLACK
6
CONTINUOUS
10
2.49714
20
-3.12636
11
2.49918
21
-3.12381
0
LINE
8
BLACK
6
CONTINUOUS
10
2.49918
20
-3.12381
11
2.50213
21
-3.12239
0
LINE
8
BLACK
6
CONTINUOUS
10
2.50213
20
-3.12239
11
2.50376
21
-3.1222
0
LINE
8
BLACK
6
CONTINUOUS
10
2.50376
20
-3.1222
11
2.69561
21
-3.1222
0
LINE
8
BLACK
6
CONTINUOUS
10
2.69561
20
-3.1222
11
2.6988
21
-3.12293
0
LINE
8
BLACK
6
CONTINUOUS
10
3.20661
20
-3.12232
11
3.20917
21
-3.12436
0
LINE
8
BLACK
6
CONTINUOUS
10
3.20917
20
-3.12436
11
3.21058
21
-3.1273
0
LINE
8
BLACK
6
CONTINUOUS
10
3.21058
20
-3.1273
11
3.21077
21
-3.12894
0
LINE
8
BLACK
6
CONTINUOUS
10
3.21077
20
-3.12894
11
3.21077
21
-3.14362
0
LINE
8
BLACK
6
CONTINUOUS
10
3.21077
20
-3.14362
11
3.21004
21
-3.14681
0
LINE
8
BLACK
6
CONTINUOUS
10
3.21004
20
-3.14681
11
3.208
21
-3.14936
0
LINE
8
BLACK
6
CONTINUOUS
10
3.208
20
-3.14936
11
3.20506
21
-3.15078
0
LINE
8
BLACK
6
CONTINUOUS
10
3.20506
20
-3.15078
11
3.20343
21
-3.15096
0
LINE
8
BLACK
6
CONTINUOUS
10
3.20343
20
-3.15096
11
3.01157
21
-3.15096
0
LINE
8
BLACK
6
CONTINUOUS
10
3.01157
20
-3.15096
11
3.00839
21
-3.15024
0
LINE
8
BLACK
6
CONTINUOUS
10
3.00839
20
-3.15024
11
3.00583
21
-3.1482
0
LINE
8
BLACK
6
CONTINUOUS
10
3.00583
20
-3.1482
11
3.00442
21
-3.14526
0
LINE
8
BLACK
6
CONTINUOUS
10
3.00442
20
-3.14526
11
3.00423
21
-3.14362
0
LINE
8
BLACK
6
CONTINUOUS
10
3.00423
20
-3.14362
11
3.00423
21
-3.12894
0
LINE
8
BLACK
6
CONTINUOUS
10
3.00423
20
-3.12894
11
3.00496
21
-3.12575
0
LINE
8
BLACK
6
CONTINUOUS
10
3.00496
20
-3.12575
11
3.007
21
-3.1232
0
LINE
8
BLACK
6
CONTINUOUS
10
3.007
20
-3.1232
11
3.00994
21
-3.12178
0
LINE
8
BLACK
6
CONTINUOUS
10
3.00994
20
-3.12178
11
3.01157
21
-3.12159
0
LINE
8
BLACK
6
CONTINUOUS
10
3.01157
20
-3.12159
11
3.20343
21
-3.12159
0
LINE
8
BLACK
6
CONTINUOUS
10
3.20343
20
-3.12159
11
3.20661
21
-3.12232
0
LINE
8
BLACK
6
CONTINUOUS
10
2.56047
20
-3.01673
11
2.56335
21
-3.01902
0
LINE
8
BLACK
6
CONTINUOUS
10
2.56335
20
-3.01902
11
2.56495
21
-3.02234
0
LINE
8
BLACK
6
CONTINUOUS
10
2.56495
20
-3.02234
11
2.56516
21
-3.02419
0
LINE
8
BLACK
6
CONTINUOUS
10
2.56516
20
-3.02419
11
2.56516
21
-3.06062
0
LINE
8
BLACK
6
CONTINUOUS
10
2.56516
20
-3.06062
11
2.56434
21
-3.06421
0
LINE
8
BLACK
6
CONTINUOUS
10
2.56434
20
-3.06421
11
2.56204
21
-3.06709
0
LINE
8
BLACK
6
CONTINUOUS
10
2.56204
20
-3.06709
11
2.55872
21
-3.06869
0
LINE
8
BLACK
6
CONTINUOUS
10
2.55872
20
-3.06869
11
2.55688
21
-3.0689
0
LINE
8
BLACK
6
CONTINUOUS
10
2.55688
20
-3.0689
11
2.46533
21
-3.0689
0
LINE
8
BLACK
6
CONTINUOUS
10
2.46533
20
-3.0689
11
2.46173
21
-3.06808
0
LINE
8
BLACK
6
CONTINUOUS
10
2.46173
20
-3.06808
11
2.45885
21
-3.06578
0
LINE
8
BLACK
6
CONTINUOUS
10
2.45885
20
-3.06578
11
2.45725
21
-3.06246
0
LINE
8
BLACK
6
CONTINUOUS
10
2.45725
20
-3.06246
11
2.45705
21
-3.06062
0
LINE
8
BLACK
6
CONTINUOUS
10
2.45705
20
-3.06062
11
2.45705
21
-3.02419
0
LINE
8
BLACK
6
CONTINUOUS
10
2.45705
20
-3.02419
11
2.45787
21
-3.02059
0
LINE
8
BLACK
6
CONTINUOUS
10
2.45787
20
-3.02059
11
2.46016
21
-3.01771
0
LINE
8
BLACK
6
CONTINUOUS
10
2.46016
20
-3.01771
11
2.46348
21
-3.01611
0
LINE
8
BLACK
6
CONTINUOUS
10
2.46348
20
-3.01611
11
2.46533
21
-3.01591
0
LINE
8
BLACK
6
CONTINUOUS
10
2.46533
20
-3.01591
11
2.55688
21
-3.01591
0
LINE
8
BLACK
6
CONTINUOUS
10
2.55688
20
-3.01591
11
2.56047
21
-3.01673
0
LINE
8
BLACK
6
CONTINUOUS
10
3.06828
20
-3.01612
11
3.07117
21
-3.01841
0
LINE
8
BLACK
6
CONTINUOUS
10
3.07117
20
-3.01841
11
3.07276
21
-3.02173
0
LINE
8
BLACK
6
CONTINUOUS
10
3.07276
20
-3.02173
11
3.07297
21
-3.02358
0
LINE
8
BLACK
6
CONTINUOUS
10
3.07297
20
-3.02358
11
3.07297
21
-3.06001
0
LINE
8
BLACK
6
CONTINUOUS
10
3.07297
20
-3.06001
11
3.07215
21
-3.0636
0
LINE
8
BLACK
6
CONTINUOUS
10
3.07215
20
-3.0636
11
3.06985
21
-3.06648
0
LINE
8
BLACK
6
CONTINUOUS
10
3.06985
20
-3.06648
11
3.06653
21
-3.06808
0
LINE
8
BLACK
6
CONTINUOUS
10
3.06653
20
-3.06808
11
3.06469
21
-3.06829
0
LINE
8
BLACK
6
CONTINUOUS
10
3.06469
20
-3.06829
11
2.97314
21
-3.06829
0
LINE
8
BLACK
6
CONTINUOUS
10
2.97314
20
-3.06829
11
2.96955
21
-3.06747
0
LINE
8
BLACK
6
CONTINUOUS
10
2.96955
20
-3.06747
11
2.96667
21
-3.06517
0
LINE
8
BLACK
6
CONTINUOUS
10
2.96667
20
-3.06517
11
2.96507
21
-3.06185
0
LINE
8
BLACK
6
CONTINUOUS
10
2.96507
20
-3.06185
11
2.96486
21
-3.06001
0
LINE
8
BLACK
6
CONTINUOUS
10
2.96486
20
-3.06001
11
2.96486
21
-3.02358
0
LINE
8
BLACK
6
CONTINUOUS
10
2.96486
20
-3.02358
11
2.96568
21
-3.01998
0
LINE
8
BLACK
6
CONTINUOUS
10
2.96568
20
-3.01998
11
2.96798
21
-3.0171
0
LINE
8
BLACK
6
CONTINUOUS
10
2.96798
20
-3.0171
11
2.9713
21
-3.0155
0
LINE
8
BLACK
6
CONTINUOUS
10
2.9713
20
-3.0155
11
2.97314
21
-3.0153
0
LINE
8
BLACK
6
CONTINUOUS
10
2.97314
20
-3.0153
11
3.06469
21
-3.0153
0
LINE
8
BLACK
6
CONTINUOUS
10
3.06469
20
-3.0153
11
3.06828
21
-3.01612
0
LINE
8
BLACK
6
CONTINUOUS
10
3.92461
20
-3.04906
11
3.88539
21
-3.04906
0
LINE
8
BLACK
6
CONTINUOUS
10
3.88539
20
-3.04906
11
3.88539
21
-3.01969
0
LINE
8
BLACK
6
CONTINUOUS
10
3.88539
20
-3.01969
11
3.92461
21
-3.01969
0
LINE
8
BLACK
6
CONTINUOUS
10
3.92461
20
-3.01969
11
3.92461
21
-3.04906
0
LINE
8
BLACK
6
CONTINUOUS
10
4.16294
20
-2.9782
11
4.16561
21
-2.98033
0
LINE
8
BLACK
6
CONTINUOUS
10
4.16561
20
-2.98033
11
4.16709
21
-2.9834
0
LINE
8
BLACK
6
CONTINUOUS
10
4.16709
20
-2.9834
11
4.16728
21
-2.98511
0
LINE
8
BLACK
6
CONTINUOUS
10
4.16728
20
-2.98511
11
4.16728
21
-3.01489
0
LINE
8
BLACK
6
CONTINUOUS
10
4.16728
20
-3.01489
11
4.16652
21
-3.01822
0
LINE
8
BLACK
6
CONTINUOUS
10
4.16652
20
-3.01822
11
4.1644
21
-3.02089
0
LINE
8
BLACK
6
CONTINUOUS
10
4.1644
20
-3.02089
11
4.16132
21
-3.02237
0
LINE
8
BLACK
6
CONTINUOUS
10
4.16132
20
-3.02237
11
4.15961
21
-3.02256
0
LINE
8
BLACK
6
CONTINUOUS
10
4.15961
20
-3.02256
11
4.13968
21
-3.02256
0
LINE
8
BLACK
6
CONTINUOUS
10
4.13968
20
-3.02256
11
4.13635
21
-3.0218
0
LINE
8
BLACK
6
CONTINUOUS
10
4.13635
20
-3.0218
11
4.13368
21
-3.01967
0
LINE
8
BLACK
6
CONTINUOUS
10
4.13368
20
-3.01967
11
4.1322
21
-3.0166
0
LINE
8
BLACK
6
CONTINUOUS
10
4.1322
20
-3.0166
11
4.13201
21
-3.01489
0
LINE
8
BLACK
6
CONTINUOUS
10
4.13201
20
-3.01489
11
4.13201
21
-2.98511
0
LINE
8
BLACK
6
CONTINUOUS
10
4.13201
20
-2.98511
11
4.13277
21
-2.98178
0
LINE
8
BLACK
6
CONTINUOUS
10
4.13277
20
-2.98178
11
4.1349
21
-2.97911
0
LINE
8
BLACK
6
CONTINUOUS
10
4.1349
20
-2.97911
11
4.13797
21
-2.97763
0
LINE
8
BLACK
6
CONTINUOUS
10
4.13797
20
-2.97763
11
4.13968
21
-2.97744
0
LINE
8
BLACK
6
CONTINUOUS
10
4.13968
20
-2.97744
11
4.15961
21
-2.97744
0
LINE
8
BLACK
6
CONTINUOUS
10
4.15961
20
-2.97744
11
4.16294
21
-2.9782
0
LINE
8
BLACK
6
CONTINUOUS
10
4.24365
20
-2.9782
11
4.24632
21
-2.98033
0
LINE
8
BLACK
6
CONTINUOUS
10
4.24632
20
-2.98033
11
4.2478
21
-2.9834
0
LINE
8
BLACK
6
CONTINUOUS
10
4.2478
20
-2.9834
11
4.24799
21
-2.98511
0
LINE
8
BLACK
6
CONTINUOUS
10
4.24799
20
-2.98511
11
4.24799
21
-3.01489
0
LINE
8
BLACK
6
CONTINUOUS
10
4.24799
20
-3.01489
11
4.24723
21
-3.01822
0
LINE
8
BLACK
6
CONTINUOUS
10
4.24723
20
-3.01822
11
4.2451
21
-3.02089
0
LINE
8
BLACK
6
CONTINUOUS
10
4.2451
20
-3.02089
11
4.24203
21
-3.02237
0
LINE
8
BLACK
6
CONTINUOUS
10
4.24203
20
-3.02237
11
4.24032
21
-3.02256
0
LINE
8
BLACK
6
CONTINUOUS
10
4.24032
20
-3.02256
11
4.22039
21
-3.02256
0
LINE
8
BLACK
6
CONTINUOUS
10
4.22039
20
-3.02256
11
4.21706
21
-3.0218
0
LINE
8
BLACK
6
CONTINUOUS
10
4.21706
20
-3.0218
11
4.21439
21
-3.01967
0
LINE
8
BLACK
6
CONTINUOUS
10
4.21439
20
-3.01967
11
4.21291
21
-3.0166
0
LINE
8
BLACK
6
CONTINUOUS
10
4.21291
20
-3.0166
11
4.21272
21
-3.01489
0
LINE
8
BLACK
6
CONTINUOUS
10
4.21272
20
-3.01489
11
4.21272
21
-2.98511
0
LINE
8
BLACK
6
CONTINUOUS
10
4.21272
20
-2.98511
11
4.21348
21
-2.98178
0
LINE
8
BLACK
6
CONTINUOUS
10
4.21348
20
-2.98178
11
4.2156
21
-2.97911
0
LINE
8
BLACK
6
CONTINUOUS
10
4.2156
20
-2.97911
11
4.21868
21
-2.97763
0
LINE
8
BLACK
6
CONTINUOUS
10
4.21868
20
-2.97763
11
4.22039
21
-2.97744
0
LINE
8
BLACK
6
CONTINUOUS
10
4.22039
20
-2.97744
11
4.24032
21
-2.97744
0
LINE
8
BLACK
6
CONTINUOUS
10
4.24032
20
-2.97744
11
4.24365
21
-2.9782
0
LINE
8
BLACK
6
CONTINUOUS
10
4.53138
20
-2.97559
11
4.51382
21
-2.97559
0
LINE
8
BLACK
6
CONTINUOUS
10
4.51382
20
-2.97559
11
4.51382
21
-2.93441
0
LINE
8
BLACK
6
CONTINUOUS
10
4.51382
20
-2.93441
11
4.53138
21
-2.93441
0
LINE
8
BLACK
6
CONTINUOUS
10
4.53138
20
-2.93441
11
4.53138
21
-2.97559
0
LINE
8
BLACK
6
CONTINUOUS
10
4.60618
20
-2.97559
11
4.58862
21
-2.97559
0
LINE
8
BLACK
6
CONTINUOUS
10
4.58862
20
-2.97559
11
4.58862
21
-2.93441
0
LINE
8
BLACK
6
CONTINUOUS
10
4.58862
20
-2.93441
11
4.60618
21
-2.93441
0
LINE
8
BLACK
6
CONTINUOUS
10
4.60618
20
-2.93441
11
4.60618
21
-2.97559
0
LINE
8
BLACK
6
CONTINUOUS
10
3.92461
20
-2.97031
11
3.88539
21
-2.97031
0
LINE
8
BLACK
6
CONTINUOUS
10
3.88539
20
-2.97031
11
3.88539
21
-2.94094
0
LINE
8
BLACK
6
CONTINUOUS
10
3.88539
20
-2.94094
11
3.92461
21
-2.94094
0
LINE
8
BLACK
6
CONTINUOUS
10
3.92461
20
-2.94094
11
3.92461
21
-2.97031
0
LINE
8
BLACK
6
CONTINUOUS
10
4.53531
20
-2.88461
11
4.50594
21
-2.88461
0
LINE
8
BLACK
6
CONTINUOUS
10
4.50594
20
-2.88461
11
4.50594
21
-2.84539
0
LINE
8
BLACK
6
CONTINUOUS
10
4.50594
20
-2.84539
11
4.53531
21
-2.84539
0
LINE
8
BLACK
6
CONTINUOUS
10
4.53531
20
-2.84539
11
4.53531
21
-2.88461
0
LINE
8
BLACK
6
CONTINUOUS
10
4.61406
20
-2.88461
11
4.58469
21
-2.88461
0
LINE
8
BLACK
6
CONTINUOUS
10
4.58469
20
-2.88461
11
4.58469
21
-2.84539
0
LINE
8
BLACK
6
CONTINUOUS
10
4.58469
20
-2.84539
11
4.61406
21
-2.84539
0
LINE
8
BLACK
6
CONTINUOUS
10
4.61406
20
-2.84539
11
4.61406
21
-2.88461
0
LINE
8
BLACK
6
CONTINUOUS
10
4.63374
20
-2.7515
11
4.60437
21
-2.7515
0
LINE
8
BLACK
6
CONTINUOUS
10
4.60437
20
-2.7515
11
4.60437
21
-2.6985
0
LINE
8
BLACK
6
CONTINUOUS
10
4.60437
20
-2.6985
11
4.63374
21
-2.6985
0
LINE
8
BLACK
6
CONTINUOUS
10
4.63374
20
-2.6985
11
4.63374
21
-2.7515
0
LINE
8
BLACK
6
CONTINUOUS
10
4.51563
20
-2.7515
11
4.48626
21
-2.7515
0
LINE
8
BLACK
6
CONTINUOUS
10
4.48626
20
-2.7515
11
4.48626
21
-2.6985
0
LINE
8
BLACK
6
CONTINUOUS
10
4.48626
20
-2.6985
11
4.51563
21
-2.6985
0
LINE
8
BLACK
6
CONTINUOUS
10
4.51563
20
-2.6985
11
4.51563
21
-2.7515
0
LINE
8
BLACK
6
CONTINUOUS
10
4.34638
20
-2.74559
11
4.32882
21
-2.74559
0
LINE
8
BLACK
6
CONTINUOUS
10
4.32882
20
-2.74559
11
4.32882
21
-2.70441
0
LINE
8
BLACK
6
CONTINUOUS
10
4.32882
20
-2.70441
11
4.34638
21
-2.70441
0
LINE
8
BLACK
6
CONTINUOUS
10
4.34638
20
-2.70441
11
4.34638
21
-2.74559
0
LINE
8
BLACK
6
CONTINUOUS
10
4.42118
20
-2.74559
11
4.40362
21
-2.74559
0
LINE
8
BLACK
6
CONTINUOUS
10
4.40362
20
-2.74559
11
4.40362
21
-2.70441
0
LINE
8
BLACK
6
CONTINUOUS
10
4.40362
20
-2.70441
11
4.42118
21
-2.70441
0
LINE
8
BLACK
6
CONTINUOUS
10
4.42118
20
-2.70441
11
4.42118
21
-2.74559
0
LINE
8
BLACK
6
CONTINUOUS
10
5.52089
20
-2.69758
11
5.45215
21
-2.69758
0
LINE
8
BLACK
6
CONTINUOUS
10
5.45215
20
-2.69758
11
5.45215
21
-2.64852
0
LINE
8
BLACK
6
CONTINUOUS
10
5.45215
20
-2.64852
11
5.52089
21
-2.64852
0
LINE
8
BLACK
6
CONTINUOUS
10
5.52089
20
-2.64852
11
5.52089
21
-2.69758
0
LINE
8
BLACK
6
CONTINUOUS
10
5.76237
20
-2.64738
11
5.76518
21
-2.64962
0
LINE
8
BLACK
6
CONTINUOUS
10
5.76518
20
-2.64962
11
5.76675
21
-2.65286
0
LINE
8
BLACK
6
CONTINUOUS
10
5.76675
20
-2.65286
11
5.76695
21
-2.65466
0
LINE
8
BLACK
6
CONTINUOUS
10
5.76695
20
-2.65466
11
5.76695
21
-2.68459
0
LINE
8
BLACK
6
CONTINUOUS
10
5.76695
20
-2.68459
11
5.76615
21
-2.6881
0
LINE
8
BLACK
6
CONTINUOUS
10
5.76615
20
-2.6881
11
5.7639
21
-2.69091
0
LINE
8
BLACK
6
CONTINUOUS
10
5.7639
20
-2.69091
11
5.76066
21
-2.69247
0
LINE
8
BLACK
6
CONTINUOUS
10
5.76066
20
-2.69247
11
5.75886
21
-2.69268
0
LINE
8
BLACK
6
CONTINUOUS
10
5.75886
20
-2.69268
11
5.71614
21
-2.69268
0
LINE
8
BLACK
6
CONTINUOUS
10
5.71614
20
-2.69268
11
5.71263
21
-2.69188
0
LINE
8
BLACK
6
CONTINUOUS
10
5.71263
20
-2.69188
11
5.70982
21
-2.68963
0
LINE
8
BLACK
6
CONTINUOUS
10
5.70982
20
-2.68963
11
5.70825
21
-2.68639
0
LINE
8
BLACK
6
CONTINUOUS
10
5.70825
20
-2.68639
11
5.70805
21
-2.68459
0
LINE
8
BLACK
6
CONTINUOUS
10
5.70805
20
-2.68459
11
5.70805
21
-2.65466
0
LINE
8
BLACK
6
CONTINUOUS
10
5.70805
20
-2.65466
11
5.70885
21
-2.65115
0
LINE
8
BLACK
6
CONTINUOUS
10
5.70885
20
-2.65115
11
5.7111
21
-2.64834
0
LINE
8
BLACK
6
CONTINUOUS
10
5.7111
20
-2.64834
11
5.71434
21
-2.64678
0
LINE
8
BLACK
6
CONTINUOUS
10
5.71434
20
-2.64678
11
5.71614
21
-2.64657
0
LINE
8
BLACK
6
CONTINUOUS
10
5.71614
20
-2.64657
11
5.75886
21
-2.64657
0
LINE
8
BLACK
6
CONTINUOUS
10
5.75886
20
-2.64657
11
5.76237
21
-2.64738
0
LINE
8
BLACK
6
CONTINUOUS
10
5.27285
20
-2.6523
11
5.20411
21
-2.6523
0
LINE
8
BLACK
6
CONTINUOUS
10
5.20411
20
-2.6523
11
5.20411
21
-2.5127
0
LINE
8
BLACK
6
CONTINUOUS
10
5.20411
20
-2.5127
11
5.27285
21
-2.5127
0
LINE
8
BLACK
6
CONTINUOUS
10
5.27285
20
-2.5127
11
5.27285
21
-2.6523
0
LINE
8
BLACK
6
CONTINUOUS
10
4.27961
20
-2.64906
11
4.24039
21
-2.64906
0
LINE
8
BLACK
6
CONTINUOUS
10
4.24039
20
-2.64906
11
4.24039
21
-2.61969
0
LINE
8
BLACK
6
CONTINUOUS
10
4.24039
20
-2.61969
11
4.27961
21
-2.61969
0
LINE
8
BLACK
6
CONTINUOUS
10
4.27961
20
-2.61969
11
4.27961
21
-2.64906
0
LINE
8
BLACK
6
CONTINUOUS
10
5.63711
20
-2.64906
11
5.59789
21
-2.64906
0
LINE
8
BLACK
6
CONTINUOUS
10
5.59789
20
-2.64906
11
5.59789
21
-2.61969
0
LINE
8
BLACK
6
CONTINUOUS
10
5.59789
20
-2.61969
11
5.63711
21
-2.61969
0
LINE
8
BLACK
6
CONTINUOUS
10
5.63711
20
-2.61969
11
5.63711
21
-2.64906
0
LINE
8
BLACK
6
CONTINUOUS
10
4.58815
20
-2.63709
11
4.56665
21
-2.63709
0
LINE
8
BLACK
6
CONTINUOUS
10
4.56665
20
-2.63709
11
4.56665
21
-2.61165
0
LINE
8
BLACK
6
CONTINUOUS
10
4.56665
20
-2.61165
11
4.58815
21
-2.61165
0
LINE
8
BLACK
6
CONTINUOUS
10
4.58815
20
-2.61165
11
4.58815
21
-2.63709
0
LINE
8
BLACK
6
CONTINUOUS
10
4.51335
20
-2.63709
11
4.49185
21
-2.63709
0
LINE
8
BLACK
6
CONTINUOUS
10
4.49185
20
-2.63709
11
4.49185
21
-2.61165
0
LINE
8
BLACK
6
CONTINUOUS
10
4.49185
20
-2.61165
11
4.51335
21
-2.61165
0
LINE
8
BLACK
6
CONTINUOUS
10
4.51335
20
-2.61165
11
4.51335
21
-2.63709
0
LINE
8
BLACK
6
CONTINUOUS
10
4.71031
20
-2.61961
11
4.68094
21
-2.61961
0
LINE
8
BLACK
6
CONTINUOUS
10
4.68094
20
-2.61961
11
4.68094
21
-2.58039
0
LINE
8
BLACK
6
CONTINUOUS
10
4.68094
20
-2.58039
11
4.71031
21
-2.58039
0
LINE
8
BLACK
6
CONTINUOUS
10
4.71031
20
-2.58039
11
4.71031
21
-2.61961
0
LINE
8
BLACK
6
CONTINUOUS
10
4.78906
20
-2.61961
11
4.75969
21
-2.61961
0
LINE
8
BLACK
6
CONTINUOUS
10
4.75969
20
-2.61961
11
4.75969
21
-2.58039
0
LINE
8
BLACK
6
CONTINUOUS
10
4.75969
20
-2.58039
11
4.78906
21
-2.58039
0
LINE
8
BLACK
6
CONTINUOUS
10
4.78906
20
-2.58039
11
4.78906
21
-2.61961
0
LINE
8
BLACK
6
CONTINUOUS
10
5.52089
20
-2.60703
11
5.45215
21
-2.60703
0
LINE
8
BLACK
6
CONTINUOUS
10
5.45215
20
-2.60703
11
5.45215
21
-2.55797
0
LINE
8
BLACK
6
CONTINUOUS
10
5.45215
20
-2.55797
11
5.52089
21
-2.55797
0
LINE
8
BLACK
6
CONTINUOUS
10
5.52089
20
-2.55797
11
5.52089
21
-2.60703
0
LINE
8
BLACK
6
CONTINUOUS
10
3.76825
20
-2.58374
11
3.74675
21
-2.58374
0
LINE
8
BLACK
6
CONTINUOUS
10
3.74675
20
-2.58374
11
3.74675
21
-2.43626
0
LINE
8
BLACK
6
CONTINUOUS
10
3.74675
20
-2.43626
11
3.76825
21
-2.43626
0
LINE
8
BLACK
6
CONTINUOUS
10
3.76825
20
-2.43626
11
3.76825
21
-2.58374
0
LINE
8
BLACK
6
CONTINUOUS
10
3.81825
20
-2.58374
11
3.79675
21
-2.58374
0
LINE
8
BLACK
6
CONTINUOUS
10
3.79675
20
-2.58374
11
3.79675
21
-2.43626
0
LINE
8
BLACK
6
CONTINUOUS
10
3.79675
20
-2.43626
11
3.81825
21
-2.43626
0
LINE
8
BLACK
6
CONTINUOUS
10
3.81825
20
-2.43626
11
3.81825
21
-2.58374
0
LINE
8
BLACK
6
CONTINUOUS
10
3.86825
20
-2.58374
11
3.84675
21
-2.58374
0
LINE
8
BLACK
6
CONTINUOUS
10
3.84675
20
-2.58374
11
3.84675
21
-2.43626
0
LINE
8
BLACK
6
CONTINUOUS
10
3.84675
20
-2.43626
11
3.86825
21
-2.43626
0
LINE
8
BLACK
6
CONTINUOUS
10
3.86825
20
-2.43626
11
3.86825
21
-2.58374
0
LINE
8
BLACK
6
CONTINUOUS
10
3.91825
20
-2.58374
11
3.89675
21
-2.58374
0
LINE
8
BLACK
6
CONTINUOUS
10
3.89675
20
-2.58374
11
3.89675
21
-2.43626
0
LINE
8
BLACK
6
CONTINUOUS
10
3.89675
20
-2.43626
11
3.91825
21
-2.43626
0
LINE
8
BLACK
6
CONTINUOUS
10
3.91825
20
-2.43626
11
3.91825
21
-2.58374
0
LINE
8
BLACK
6
CONTINUOUS
10
3.96825
20
-2.58374
11
3.94675
21
-2.58374
0
LINE
8
BLACK
6
CONTINUOUS
10
3.94675
20
-2.58374
11
3.94675
21
-2.43626
0
LINE
8
BLACK
6
CONTINUOUS
10
3.94675
20
-2.43626
11
3.96825
21
-2.43626
0
LINE
8
BLACK
6
CONTINUOUS
10
3.96825
20
-2.43626
11
3.96825
21
-2.58374
0
LINE
8
BLACK
6
CONTINUOUS
10
4.11825
20
-2.58374
11
4.09675
21
-2.58374
0
LINE
8
BLACK
6
CONTINUOUS
10
4.09675
20
-2.58374
11
4.09675
21
-2.43626
0
LINE
8
BLACK
6
CONTINUOUS
10
4.09675
20
-2.43626
11
4.11825
21
-2.43626
0
LINE
8
BLACK
6
CONTINUOUS
10
4.11825
20
-2.43626
11
4.11825
21
-2.58374
0
LINE
8
BLACK
6
CONTINUOUS
10
4.01825
20
-2.58374
11
3.99675
21
-2.58374
0
LINE
8
BLACK
6
CONTINUOUS
10
3.99675
20
-2.58374
11
3.99675
21
-2.43626
0
LINE
8
BLACK
6
CONTINUOUS
10
3.99675
20
-2.43626
11
4.01825
21
-2.43626
0
LINE
8
BLACK
6
CONTINUOUS
10
4.01825
20
-2.43626
11
4.01825
21
-2.58374
0
LINE
8
BLACK
6
CONTINUOUS
10
4.06825
20
-2.58374
11
4.04675
21
-2.58374
0
LINE
8
BLACK
6
CONTINUOUS
10
4.04675
20
-2.58374
11
4.04675
21
-2.43626
0
LINE
8
BLACK
6
CONTINUOUS
10
4.04675
20
-2.43626
11
4.06825
21
-2.43626
0
LINE
8
BLACK
6
CONTINUOUS
10
4.06825
20
-2.43626
11
4.06825
21
-2.58374
0
LINE
8
BLACK
6
CONTINUOUS
10
5.76237
20
-2.53025
11
5.76518
21
-2.53249
0
LINE
8
BLACK
6
CONTINUOUS
10
5.76518
20
-2.53249
11
5.76675
21
-2.53574
0
LINE
8
BLACK
6
CONTINUOUS
10
5.76675
20
-2.53574
11
5.76695
21
-2.53754
0
LINE
8
BLACK
6
CONTINUOUS
10
5.76695
20
-2.53754
11
5.76695
21
-2.56746
0
LINE
8
BLACK
6
CONTINUOUS
10
5.76695
20
-2.56746
11
5.76615
21
-2.57097
0
LINE
8
BLACK
6
CONTINUOUS
10
5.76615
20
-2.57097
11
5.7639
21
-2.57379
0
LINE
8
BLACK
6
CONTINUOUS
10
5.7639
20
-2.57379
11
5.76066
21
-2.57535
0
LINE
8
BLACK
6
CONTINUOUS
10
5.76066
20
-2.57535
11
5.75886
21
-2.57555
0
LINE
8
BLACK
6
CONTINUOUS
10
5.75886
20
-2.57555
11
5.71614
21
-2.57555
0
LINE
8
BLACK
6
CONTINUOUS
10
5.71614
20
-2.57555
11
5.71263
21
-2.57475
0
LINE
8
BLACK
6
CONTINUOUS
10
5.71263
20
-2.57475
11
5.70982
21
-2.57251
0
LINE
8
BLACK
6
CONTINUOUS
10
5.70982
20
-2.57251
11
5.70825
21
-2.56926
0
LINE
8
BLACK
6
CONTINUOUS
10
5.70825
20
-2.56926
11
5.70805
21
-2.56746
0
LINE
8
BLACK
6
CONTINUOUS
10
5.70805
20
-2.56746
11
5.70805
21
-2.53754
0
LINE
8
BLACK
6
CONTINUOUS
10
5.70805
20
-2.53754
11
5.70885
21
-2.53403
0
LINE
8
BLACK
6
CONTINUOUS
10
5.70885
20
-2.53403
11
5.7111
21
-2.53121
0
LINE
8
BLACK
6
CONTINUOUS
10
5.7111
20
-2.53121
11
5.71434
21
-2.52965
0
LINE
8
BLACK
6
CONTINUOUS
10
5.71434
20
-2.52965
11
5.71614
21
-2.52945
0
LINE
8
BLACK
6
CONTINUOUS
10
5.71614
20
-2.52945
11
5.75886
21
-2.52945
0
LINE
8
BLACK
6
CONTINUOUS
10
5.75886
20
-2.52945
11
5.76237
21
-2.53025
0
LINE
8
BLACK
6
CONTINUOUS
10
5.63711
20
-2.57031
11
5.59789
21
-2.57031
0
LINE
8
BLACK
6
CONTINUOUS
10
5.59789
20
-2.57031
11
5.59789
21
-2.54094
0
LINE
8
BLACK
6
CONTINUOUS
10
5.59789
20
-2.54094
11
5.63711
21
-2.54094
0
LINE
8
BLACK
6
CONTINUOUS
10
5.63711
20
-2.54094
11
5.63711
21
-2.57031
0
LINE
8
BLACK
6
CONTINUOUS
10
4.27961
20
-2.57031
11
4.24039
21
-2.57031
0
LINE
8
BLACK
6
CONTINUOUS
10
4.24039
20
-2.57031
11
4.24039
21
-2.54094
0
LINE
8
BLACK
6
CONTINUOUS
10
4.24039
20
-2.54094
11
4.27961
21
-2.54094
0
LINE
8
BLACK
6
CONTINUOUS
10
4.27961
20
-2.54094
11
4.27961
21
-2.57031
0
LINE
8
BLACK
6
CONTINUOUS
10
4.55075
20
-2.55835
11
4.52925
21
-2.55835
0
LINE
8
BLACK
6
CONTINUOUS
10
4.52925
20
-2.55835
11
4.52925
21
-2.53291
0
LINE
8
BLACK
6
CONTINUOUS
10
4.52925
20
-2.53291
11
4.55075
21
-2.53291
0
LINE
8
BLACK
6
CONTINUOUS
10
4.55075
20
-2.53291
11
4.55075
21
-2.55835
0
LINE
8
BLACK
6
CONTINUOUS
10
5.52089
20
-2.51648
11
5.45215
21
-2.51648
0
LINE
8
BLACK
6
CONTINUOUS
10
5.45215
20
-2.51648
11
5.45215
21
-2.46742
0
LINE
8
BLACK
6
CONTINUOUS
10
5.45215
20
-2.46742
11
5.52089
21
-2.46742
0
LINE
8
BLACK
6
CONTINUOUS
10
5.52089
20
-2.46742
11
5.52089
21
-2.51648
0
LINE
8
BLACK
6
CONTINUOUS
10
4.28618
20
-2.47433
11
4.24106
21
-2.47433
0
LINE
8
BLACK
6
CONTINUOUS
10
4.24106
20
-2.47433
11
4.24106
21
-2.34654
0
LINE
8
BLACK
6
CONTINUOUS
10
4.24106
20
-2.34654
11
4.28618
21
-2.34654
0
LINE
8
BLACK
6
CONTINUOUS
10
4.28618
20
-2.34654
11
4.28618
21
-2.47433
0
LINE
8
BLACK
6
CONTINUOUS
10
4.46335
20
-2.47433
11
4.41823
21
-2.47433
0
LINE
8
BLACK
6
CONTINUOUS
10
4.41823
20
-2.47433
11
4.41823
21
-2.34654
0
LINE
8
BLACK
6
CONTINUOUS
10
4.41823
20
-2.34654
11
4.46335
21
-2.34654
0
LINE
8
BLACK
6
CONTINUOUS
10
4.46335
20
-2.34654
11
4.46335
21
-2.47433
0
LINE
8
BLACK
6
CONTINUOUS
10
4.67177
20
-2.47248
11
4.62665
21
-2.47248
0
LINE
8
BLACK
6
CONTINUOUS
10
4.62665
20
-2.47248
11
4.62665
21
-2.34469
0
LINE
8
BLACK
6
CONTINUOUS
10
4.62665
20
-2.34469
11
4.67177
21
-2.34469
0
LINE
8
BLACK
6
CONTINUOUS
10
4.67177
20
-2.34469
11
4.67177
21
-2.47248
0
LINE
8
BLACK
6
CONTINUOUS
10
4.84894
20
-2.47248
11
4.80382
21
-2.47248
0
LINE
8
BLACK
6
CONTINUOUS
10
4.80382
20
-2.47248
11
4.80382
21
-2.34469
0
LINE
8
BLACK
6
CONTINUOUS
10
4.80382
20
-2.34469
11
4.84894
21
-2.34469
0
LINE
8
BLACK
6
CONTINUOUS
10
4.84894
20
-2.34469
11
4.84894
21
-2.47248
0
LINE
8
BLACK
6
CONTINUOUS
10
5.419
20
-2.40374
11
5.366
21
-2.40374
0
LINE
8
BLACK
6
CONTINUOUS
10
5.366
20
-2.40374
11
5.366
21
-2.37437
0
LINE
8
BLACK
6
CONTINUOUS
10
5.366
20
-2.37437
11
5.419
21
-2.37437
0
LINE
8
BLACK
6
CONTINUOUS
10
5.419
20
-2.37437
11
5.419
21
-2.40374
0
LINE
8
BLACK
6
CONTINUOUS
10
3.24059
20
-2.36618
11
3.19941
21
-2.36618
0
LINE
8
BLACK
6
CONTINUOUS
10
3.19941
20
-2.36618
11
3.19941
21
-2.34862
0
LINE
8
BLACK
6
CONTINUOUS
10
3.19941
20
-2.34862
11
3.24059
21
-2.34862
0
LINE
8
BLACK
6
CONTINUOUS
10
3.24059
20
-2.34862
11
3.24059
21
-2.36618
0
LINE
8
BLACK
6
CONTINUOUS
10
3.34059
20
-2.36618
11
3.29941
21
-2.36618
0
LINE
8
BLACK
6
CONTINUOUS
10
3.29941
20
-2.36618
11
3.29941
21
-2.34862
0
LINE
8
BLACK
6
CONTINUOUS
10
3.29941
20
-2.34862
11
3.34059
21
-2.34862
0
LINE
8
BLACK
6
CONTINUOUS
10
3.34059
20
-2.34862
11
3.34059
21
-2.36618
0
LINE
8
BLACK
6
CONTINUOUS
10
3.43559
20
-2.36618
11
3.39441
21
-2.36618
0
LINE
8
BLACK
6
CONTINUOUS
10
3.39441
20
-2.36618
11
3.39441
21
-2.34862
0
LINE
8
BLACK
6
CONTINUOUS
10
3.39441
20
-2.34862
11
3.43559
21
-2.34862
0
LINE
8
BLACK
6
CONTINUOUS
10
3.43559
20
-2.34862
11
3.43559
21
-2.36618
0
LINE
8
BLACK
6
CONTINUOUS
10
3.53059
20
-2.36618
11
3.48941
21
-2.36618
0
LINE
8
BLACK
6
CONTINUOUS
10
3.48941
20
-2.36618
11
3.48941
21
-2.34862
0
LINE
8
BLACK
6
CONTINUOUS
10
3.48941
20
-2.34862
11
3.53059
21
-2.34862
0
LINE
8
BLACK
6
CONTINUOUS
10
3.53059
20
-2.34862
11
3.53059
21
-2.36618
0
LINE
8
BLACK
6
CONTINUOUS
10
3.24059
20
-2.29138
11
3.19941
21
-2.29138
0
LINE
8
BLACK
6
CONTINUOUS
10
3.19941
20
-2.29138
11
3.19941
21
-2.27382
0
LINE
8
BLACK
6
CONTINUOUS
10
3.19941
20
-2.27382
11
3.24059
21
-2.27382
0
LINE
8
BLACK
6
CONTINUOUS
10
3.24059
20
-2.27382
11
3.24059
21
-2.29138
0
LINE
8
BLACK
6
CONTINUOUS
10
3.34059
20
-2.29138
11
3.29941
21
-2.29138
0
LINE
8
BLACK
6
CONTINUOUS
10
3.29941
20
-2.29138
11
3.29941
21
-2.27382
0
LINE
8
BLACK
6
CONTINUOUS
10
3.29941
20
-2.27382
11
3.34059
21
-2.27382
0
LINE
8
BLACK
6
CONTINUOUS
10
3.34059
20
-2.27382
11
3.34059
21
-2.29138
0
LINE
8
BLACK
6
CONTINUOUS
10
3.43559
20
-2.29138
11
3.39441
21
-2.29138
0
LINE
8
BLACK
6
CONTINUOUS
10
3.39441
20
-2.29138
11
3.39441
21
-2.27382
0
LINE
8
BLACK
6
CONTINUOUS
10
3.39441
20
-2.27382
11
3.43559
21
-2.27382
0
LINE
8
BLACK
6
CONTINUOUS
10
3.43559
20
-2.27382
11
3.43559
21
-2.29138
0
LINE
8
BLACK
6
CONTINUOUS
10
3.53059
20
-2.29138
11
3.48941
21
-2.29138
0
LINE
8
BLACK
6
CONTINUOUS
10
3.48941
20
-2.29138
11
3.48941
21
-2.27382
0
LINE
8
BLACK
6
CONTINUOUS
10
3.48941
20
-2.27382
11
3.53059
21
-2.27382
0
LINE
8
BLACK
6
CONTINUOUS
10
3.53059
20
-2.27382
11
3.53059
21
-2.29138
0
LINE
8
BLACK
6
CONTINUOUS
10
5.419
20
-2.28563
11
5.366
21
-2.28563
0
LINE
8
BLACK
6
CONTINUOUS
10
5.366
20
-2.28563
11
5.366
21
-2.25626
0
LINE
8
BLACK
6
CONTINUOUS
10
5.366
20
-2.25626
11
5.419
21
-2.25626
0
LINE
8
BLACK
6
CONTINUOUS
10
5.419
20
-2.25626
11
5.419
21
-2.28563
0
LINE
8
BLACK
6
CONTINUOUS
10
5.18268
20
-2.21327
11
5.17496
21
-2.21327
0
LINE
8
BLACK
6
CONTINUOUS
10
5.17496
20
-2.21327
11
5.17496
21
-2.0902
0
LINE
8
BLACK
6
CONTINUOUS
10
5.17496
20
-2.0902
11
5.18268
21
-2.0902
0
LINE
8
BLACK
6
CONTINUOUS
10
5.18268
20
-2.0902
11
5.18268
21
-2.21327
0
LINE
8
BLACK
6
CONTINUOUS
10
5.23386
20
-2.21327
11
5.22614
21
-2.21327
0
LINE
8
BLACK
6
CONTINUOUS
10
5.22614
20
-2.21327
11
5.22614
21
-2.0902
0
LINE
8
BLACK
6
CONTINUOUS
10
5.22614
20
-2.0902
11
5.23386
21
-2.0902
0
LINE
8
BLACK
6
CONTINUOUS
10
5.23386
20
-2.0902
11
5.23386
21
-2.21327
0
LINE
8
BLACK
6
CONTINUOUS
10
5.20827
20
-2.21327
11
5.20055
21
-2.21327
0
LINE
8
BLACK
6
CONTINUOUS
10
5.20055
20
-2.21327
11
5.20055
21
-2.0902
0
LINE
8
BLACK
6
CONTINUOUS
10
5.20055
20
-2.0902
11
5.20827
21
-2.0902
0
LINE
8
BLACK
6
CONTINUOUS
10
5.20827
20
-2.0902
11
5.20827
21
-2.21327
0
LINE
8
BLACK
6
CONTINUOUS
10
5.28504
20
-2.21327
11
5.27732
21
-2.21327
0
LINE
8
BLACK
6
CONTINUOUS
10
5.27732
20
-2.21327
11
5.27732
21
-2.0902
0
LINE
8
BLACK
6
CONTINUOUS
10
5.27732
20
-2.0902
11
5.28504
21
-2.0902
0
LINE
8
BLACK
6
CONTINUOUS
10
5.28504
20
-2.0902
11
5.28504
21
-2.21327
0
LINE
8
BLACK
6
CONTINUOUS
10
5.25945
20
-2.21327
11
5.25173
21
-2.21327
0
LINE
8
BLACK
6
CONTINUOUS
10
5.25173
20
-2.21327
11
5.25173
21
-2.0902
0
LINE
8
BLACK
6
CONTINUOUS
10
5.25173
20
-2.0902
11
5.25945
21
-2.0902
0
LINE
8
BLACK
6
CONTINUOUS
10
5.25945
20
-2.0902
11
5.25945
21
-2.21327
0
LINE
8
BLACK
6
CONTINUOUS
10
5.37224
20
-2.14555
11
5.32398
21
-2.14555
0
LINE
8
BLACK
6
CONTINUOUS
10
5.32398
20
-2.14555
11
5.32398
21
-2.07287
0
LINE
8
BLACK
6
CONTINUOUS
10
5.32398
20
-2.07287
11
5.37224
21
-2.07287
0
LINE
8
BLACK
6
CONTINUOUS
10
5.37224
20
-2.07287
11
5.37224
21
-2.14555
0
LINE
8
BLACK
6
CONTINUOUS
10
5.13602
20
-2.14555
11
5.08776
21
-2.14555
0
LINE
8
BLACK
6
CONTINUOUS
10
5.08776
20
-2.14555
11
5.08776
21
-2.07287
0
LINE
8
BLACK
6
CONTINUOUS
10
5.08776
20
-2.07287
11
5.13602
21
-2.07287
0
LINE
8
BLACK
6
CONTINUOUS
10
5.13602
20
-2.07287
11
5.13602
21
-2.14555
0
LINE
8
BLACK
6
CONTINUOUS
10
4.46335
20
-2.10031
11
4.41823
21
-2.10031
0
LINE
8
BLACK
6
CONTINUOUS
10
4.41823
20
-2.10031
11
4.41823
21
-1.97252
0
LINE
8
BLACK
6
CONTINUOUS
10
4.41823
20
-1.97252
11
4.46335
21
-1.97252
0
LINE
8
BLACK
6
CONTINUOUS
10
4.46335
20
-1.97252
11
4.46335
21
-2.10031
0
LINE
8
BLACK
6
CONTINUOUS
10
4.28618
20
-2.10031
11
4.24106
21
-2.10031
0
LINE
8
BLACK
6
CONTINUOUS
10
4.24106
20
-2.10031
11
4.24106
21
-1.97252
0
LINE
8
BLACK
6
CONTINUOUS
10
4.24106
20
-1.97252
11
4.28618
21
-1.97252
0
LINE
8
BLACK
6
CONTINUOUS
10
4.28618
20
-1.97252
11
4.28618
21
-2.10031
0
LINE
8
BLACK
6
CONTINUOUS
10
4.84894
20
-2.09846
11
4.80382
21
-2.09846
0
LINE
8
BLACK
6
CONTINUOUS
10
4.80382
20
-2.09846
11
4.80382
21
-1.97067
0
LINE
8
BLACK
6
CONTINUOUS
10
4.80382
20
-1.97067
11
4.84894
21
-1.97067
0
LINE
8
BLACK
6
CONTINUOUS
10
4.84894
20
-1.97067
11
4.84894
21
-2.09846
0
LINE
8
BLACK
6
CONTINUOUS
10
4.67177
20
-2.09846
11
4.62665
21
-2.09846
0
LINE
8
BLACK
6
CONTINUOUS
10
4.62665
20
-2.09846
11
4.62665
21
-1.97067
0
LINE
8
BLACK
6
CONTINUOUS
10
4.62665
20
-1.97067
11
4.67177
21
-1.97067
0
LINE
8
BLACK
6
CONTINUOUS
10
4.67177
20
-1.97067
11
4.67177
21
-2.09846
0
LINE
8
BLACK
6
CONTINUOUS
10
3.21693
20
-2.09362
11
3.17969
21
-2.09362
0
LINE
8
BLACK
6
CONTINUOUS
10
3.17969
20
-2.09362
11
3.17969
21
-2.05638
0
LINE
8
BLACK
6
CONTINUOUS
10
3.17969
20
-2.05638
11
3.21693
21
-2.05638
0
LINE
8
BLACK
6
CONTINUOUS
10
3.21693
20
-2.05638
11
3.21693
21
-2.09362
0
LINE
8
BLACK
6
CONTINUOUS
10
3.13031
20
-2.09362
11
3.09307
21
-2.09362
0
LINE
8
BLACK
6
CONTINUOUS
10
3.09307
20
-2.09362
11
3.09307
21
-2.05638
0
LINE
8
BLACK
6
CONTINUOUS
10
3.09307
20
-2.05638
11
3.13031
21
-2.05638
0
LINE
8
BLACK
6
CONTINUOUS
10
3.13031
20
-2.05638
11
3.13031
21
-2.09362
0
LINE
8
BLACK
6
CONTINUOUS
10
3.05193
20
-2.09362
11
3.01469
21
-2.09362
0
LINE
8
BLACK
6
CONTINUOUS
10
3.01469
20
-2.09362
11
3.01469
21
-2.05638
0
LINE
8
BLACK
6
CONTINUOUS
10
3.01469
20
-2.05638
11
3.05193
21
-2.05638
0
LINE
8
BLACK
6
CONTINUOUS
10
3.05193
20
-2.05638
11
3.05193
21
-2.09362
0
LINE
8
BLACK
6
CONTINUOUS
10
2.96531
20
-2.09362
11
2.92807
21
-2.09362
0
LINE
8
BLACK
6
CONTINUOUS
10
2.92807
20
-2.09362
11
2.92807
21
-2.05638
0
LINE
8
BLACK
6
CONTINUOUS
10
2.92807
20
-2.05638
11
2.96531
21
-2.05638
0
LINE
8
BLACK
6
CONTINUOUS
10
2.96531
20
-2.05638
11
2.96531
21
-2.09362
0
LINE
8
BLACK
6
CONTINUOUS
10
3.29531
20
-2.09362
11
3.25807
21
-2.09362
0
LINE
8
BLACK
6
CONTINUOUS
10
3.25807
20
-2.09362
11
3.25807
21
-2.05638
0
LINE
8
BLACK
6
CONTINUOUS
10
3.25807
20
-2.05638
11
3.29531
21
-2.05638
0
LINE
8
BLACK
6
CONTINUOUS
10
3.29531
20
-2.05638
11
3.29531
21
-2.09362
0
LINE
8
BLACK
6
CONTINUOUS
10
3.38193
20
-2.09362
11
3.34469
21
-2.09362
0
LINE
8
BLACK
6
CONTINUOUS
10
3.34469
20
-2.09362
11
3.34469
21
-2.05638
0
LINE
8
BLACK
6
CONTINUOUS
10
3.34469
20
-2.05638
11
3.38193
21
-2.05638
0
LINE
8
BLACK
6
CONTINUOUS
10
3.38193
20
-2.05638
11
3.38193
21
-2.09362
0
LINE
8
BLACK
6
CONTINUOUS
10
3.46031
20
-2.09362
11
3.42307
21
-2.09362
0
LINE
8
BLACK
6
CONTINUOUS
10
3.42307
20
-2.09362
11
3.42307
21
-2.05638
0
LINE
8
BLACK
6
CONTINUOUS
10
3.42307
20
-2.05638
11
3.46031
21
-2.05638
0
LINE
8
BLACK
6
CONTINUOUS
10
3.46031
20
-2.05638
11
3.46031
21
-2.09362
0
LINE
8
BLACK
6
CONTINUOUS
10
3.54693
20
-2.09362
11
3.50969
21
-2.09362
0
LINE
8
BLACK
6
CONTINUOUS
10
3.50969
20
-2.09362
11
3.50969
21
-2.05638
0
LINE
8
BLACK
6
CONTINUOUS
10
3.50969
20
-2.05638
11
3.54693
21
-2.05638
0
LINE
8
BLACK
6
CONTINUOUS
10
3.54693
20
-2.05638
11
3.54693
21
-2.09362
0
LINE
8
BLACK
6
CONTINUOUS
10
5.13406
20
-2.04319
11
5.05035
21
-2.04319
0
LINE
8
BLACK
6
CONTINUOUS
10
5.05035
20
-2.04319
11
5.05035
21
-1.97839
0
LINE
8
BLACK
6
CONTINUOUS
10
5.05035
20
-1.97839
11
5.13406
21
-1.97839
0
LINE
8
BLACK
6
CONTINUOUS
10
5.13406
20
-1.97839
11
5.13406
21
-2.04319
0
LINE
8
BLACK
6
CONTINUOUS
10
5.40965
20
-2.04319
11
5.32594
21
-2.04319
0
LINE
8
BLACK
6
CONTINUOUS
10
5.32594
20
-2.04319
11
5.32594
21
-1.97839
0
LINE
8
BLACK
6
CONTINUOUS
10
5.32594
20
-1.97839
11
5.40965
21
-1.97839
0
LINE
8
BLACK
6
CONTINUOUS
10
5.40965
20
-1.97839
11
5.40965
21
-2.04319
0
LINE
8
BLACK
6
CONTINUOUS
10
5.21516
20
-2.04004
11
5.1787
21
-2.04004
0
LINE
8
BLACK
6
CONTINUOUS
10
5.1787
20
-2.04004
11
5.1787
21
-1.97524
0
LINE
8
BLACK
6
CONTINUOUS
10
5.1787
20
-1.97524
11
5.21516
21
-1.97524
0
LINE
8
BLACK
6
CONTINUOUS
10
5.21516
20
-1.97524
11
5.21516
21
-2.04004
0
LINE
8
BLACK
6
CONTINUOUS
10
5.2813
20
-2.04004
11
5.24484
21
-2.04004
0
LINE
8
BLACK
6
CONTINUOUS
10
5.24484
20
-2.04004
11
5.24484
21
-1.97524
0
LINE
8
BLACK
6
CONTINUOUS
10
5.24484
20
-1.97524
11
5.2813
21
-1.97524
0
LINE
8
BLACK
6
CONTINUOUS
10
5.2813
20
-1.97524
11
5.2813
21
-2.04004
  0
ENDSEC
  0
EOF
