G04 #@! TF.GenerationSoftware,KiCad,Pcbnew,5.1.6-c6e7f7d~87~ubuntu18.04.1*
G04 #@! TF.CreationDate,2020-08-03T14:56:27+01:00*
G04 #@! TF.ProjectId,garden,67617264-656e-42e6-9b69-6361645f7063,rev?*
G04 #@! TF.SameCoordinates,Original*
G04 #@! TF.FileFunction,Copper,L4,Bot*
G04 #@! TF.FilePolarity,Positive*
%FSLAX46Y46*%
G04 Gerber Fmt 4.6, Leading zero omitted, Abs format (unit mm)*
G04 Created by KiCad (PCBNEW 5.1.6-c6e7f7d~87~ubuntu18.04.1) date 2020-08-03 14:56:27*
%MOMM*%
%LPD*%
G01*
G04 APERTURE LIST*
G04 #@! TA.AperFunction,ComponentPad*
%ADD10C,2.800000*%
G04 #@! TD*
G04 #@! TA.AperFunction,ComponentPad*
%ADD11C,2.600000*%
G04 #@! TD*
G04 #@! TA.AperFunction,ComponentPad*
%ADD12R,2.600000X2.600000*%
G04 #@! TD*
G04 #@! TA.AperFunction,ComponentPad*
%ADD13O,1.905000X2.000000*%
G04 #@! TD*
G04 #@! TA.AperFunction,ComponentPad*
%ADD14R,1.905000X2.000000*%
G04 #@! TD*
G04 #@! TA.AperFunction,ComponentPad*
%ADD15C,1.500000*%
G04 #@! TD*
G04 #@! TA.AperFunction,ComponentPad*
%ADD16R,1.500000X1.500000*%
G04 #@! TD*
G04 #@! TA.AperFunction,ComponentPad*
%ADD17O,1.900000X1.200000*%
G04 #@! TD*
G04 #@! TA.AperFunction,ComponentPad*
%ADD18C,1.450000*%
G04 #@! TD*
G04 #@! TA.AperFunction,ComponentPad*
%ADD19C,2.200000*%
G04 #@! TD*
G04 #@! TA.AperFunction,ComponentPad*
%ADD20R,2.200000X2.200000*%
G04 #@! TD*
G04 #@! TA.AperFunction,ViaPad*
%ADD21C,1.016000*%
G04 #@! TD*
G04 #@! TA.AperFunction,ViaPad*
%ADD22C,4.064000*%
G04 #@! TD*
G04 #@! TA.AperFunction,ViaPad*
%ADD23C,2.032000*%
G04 #@! TD*
G04 #@! TA.AperFunction,ViaPad*
%ADD24C,0.600000*%
G04 #@! TD*
G04 #@! TA.AperFunction,Conductor*
%ADD25C,5.080000*%
G04 #@! TD*
G04 #@! TA.AperFunction,Conductor*
%ADD26C,1.270000*%
G04 #@! TD*
G04 #@! TA.AperFunction,Conductor*
%ADD27C,2.540000*%
G04 #@! TD*
G04 #@! TA.AperFunction,Conductor*
%ADD28C,0.635000*%
G04 #@! TD*
G04 #@! TA.AperFunction,Conductor*
%ADD29C,0.304800*%
G04 #@! TD*
G04 #@! TA.AperFunction,Conductor*
%ADD30C,0.203200*%
G04 #@! TD*
G04 APERTURE END LIST*
D10*
X137076000Y-76708000D03*
X131826000Y-76708000D03*
X105918000Y-78486000D03*
X102870000Y-144526000D03*
X130810000Y-87122000D03*
X122936000Y-87630000D03*
X91694000Y-130556000D03*
X75438000Y-130048000D03*
X122936000Y-93726000D03*
X112268000Y-130302000D03*
X120904000Y-130302000D03*
X101854000Y-123444000D03*
X98552000Y-117602000D03*
D11*
X61722000Y-130810000D03*
X61722000Y-125730000D03*
X61722000Y-120650000D03*
X61722000Y-115570000D03*
X61722000Y-110490000D03*
X61722000Y-105410000D03*
X61722000Y-100330000D03*
X61722000Y-95250000D03*
D12*
X61722000Y-90170000D03*
D13*
X96012000Y-90170000D03*
X93472000Y-90170000D03*
D14*
X90932000Y-90170000D03*
D15*
X76559000Y-97415000D03*
X76559000Y-94875000D03*
X76559000Y-92335000D03*
D16*
X76559000Y-89795000D03*
D17*
X57309500Y-83764000D03*
X57309500Y-76764000D03*
D18*
X60009500Y-82764000D03*
X60009500Y-77764000D03*
D11*
X148082000Y-87122000D03*
D12*
X148082000Y-82042000D03*
D19*
X94615000Y-144526000D03*
X92075000Y-144526000D03*
X89535000Y-144526000D03*
D20*
X86995000Y-144526000D03*
D19*
X81534000Y-144526000D03*
X78994000Y-144526000D03*
X76454000Y-144526000D03*
D20*
X73914000Y-144526000D03*
D11*
X147955000Y-131318000D03*
D12*
X147955000Y-126238000D03*
D11*
X147955000Y-117348000D03*
D12*
X147955000Y-112268000D03*
D11*
X147955000Y-102552500D03*
D12*
X147955000Y-97472500D03*
D11*
X148082000Y-74295000D03*
D12*
X148082000Y-69215000D03*
D21*
X61849000Y-82296000D03*
X59309000Y-74676000D03*
X65532000Y-73787000D03*
X62357000Y-85979000D03*
X138430000Y-132842000D03*
X127508000Y-145542000D03*
X127508000Y-139446000D03*
D22*
X93726000Y-100838000D03*
X91440000Y-96266000D03*
D21*
X106934000Y-94234000D03*
X100330000Y-90170000D03*
X106172000Y-89916000D03*
X111252000Y-92202000D03*
X108204000Y-74930000D03*
X110236000Y-66167000D03*
D23*
X74676000Y-56642000D03*
X104902000Y-57912000D03*
X84915274Y-77213057D03*
D22*
X90170000Y-65785999D03*
D24*
X121158000Y-136906000D03*
D21*
X125730000Y-144018000D03*
X118110000Y-139700000D03*
X107188000Y-102616000D03*
X113284000Y-104140000D03*
X112268000Y-140462000D03*
X108712000Y-81534000D03*
X113030000Y-119634000D03*
X104648000Y-115570000D03*
X131318000Y-68580000D03*
X133350000Y-59436000D03*
D22*
X131572000Y-110236000D03*
D24*
X129032000Y-127762000D03*
X123952000Y-126746000D03*
X100076000Y-112776000D03*
X67945000Y-80391000D03*
X64262000Y-79629000D03*
X64262000Y-79629000D03*
D23*
X121793000Y-120904000D03*
D21*
X82931000Y-136271000D03*
X78105000Y-134874000D03*
X64516000Y-75057000D03*
D23*
X111435113Y-53849172D03*
X74676000Y-59436000D03*
D21*
X129794000Y-66294000D03*
D24*
X128270000Y-66294000D03*
X130556000Y-54610000D03*
X131826000Y-129794000D03*
X124460000Y-125984000D03*
X100076000Y-113792000D03*
X90932000Y-110236000D03*
D23*
X106045000Y-109347000D03*
D21*
X64993601Y-83219731D03*
D24*
X72263000Y-75184000D03*
D22*
X152527000Y-106934000D03*
D21*
X125984000Y-140970000D03*
X135890000Y-136144000D03*
X120650000Y-140716000D03*
X68580000Y-84455000D03*
X74422000Y-85090000D03*
D24*
X114554000Y-100838000D03*
X120904000Y-100838000D03*
X114554000Y-116332000D03*
X122428000Y-116332000D03*
X88183108Y-82281927D03*
X88392000Y-103632000D03*
X77978000Y-81026000D03*
D21*
X122174000Y-63246000D03*
X128016000Y-62992000D03*
D24*
X82042000Y-86360000D03*
X113792000Y-84328000D03*
X116586000Y-87122000D03*
X109474000Y-123444000D03*
X107696000Y-122682000D03*
D21*
X84328000Y-86106000D03*
D24*
X78740000Y-80264000D03*
X115570000Y-84328000D03*
X117856000Y-86360000D03*
X107188000Y-123444000D03*
X108712000Y-124460000D03*
X115824000Y-124460000D03*
X117856000Y-124460000D03*
X63373000Y-79629000D03*
X63754000Y-80899000D03*
X67183000Y-72517000D03*
X66675000Y-73914000D03*
X68485600Y-75184000D03*
X101854000Y-62484000D03*
X68453000Y-76073000D03*
X105664000Y-61214000D03*
X85090000Y-83058000D03*
X85344000Y-95250000D03*
X87630000Y-83058000D03*
X87630000Y-102616000D03*
X73914000Y-79756000D03*
X72390000Y-82296000D03*
X66802000Y-99568000D03*
X66802000Y-101346000D03*
X66802000Y-104648000D03*
X66802000Y-106426000D03*
X102870000Y-68326000D03*
X102108000Y-77978000D03*
X96520000Y-83566000D03*
X84582000Y-88138000D03*
X84074000Y-99314000D03*
X91186000Y-86741000D03*
X101854000Y-69088000D03*
X102108000Y-76708000D03*
X90170000Y-83312000D03*
X89916000Y-87122000D03*
X83312000Y-87122000D03*
X83312000Y-98552000D03*
X112014000Y-83312000D03*
X113030000Y-89154000D03*
X89154000Y-81788000D03*
X89154000Y-102870000D03*
X86106000Y-83058000D03*
X86106000Y-95758000D03*
D21*
X80327500Y-140017500D03*
X87630000Y-140081000D03*
D24*
X86868000Y-96266000D03*
X86614000Y-82296000D03*
D21*
X79502000Y-83820000D03*
D24*
X75692000Y-80772000D03*
X118872000Y-85344000D03*
X114808000Y-81788000D03*
X118872000Y-125730000D03*
X115570000Y-125730000D03*
X107696000Y-125476000D03*
X106426000Y-124206000D03*
X74676000Y-80772000D03*
X73660000Y-82804000D03*
X67818000Y-99568000D03*
X67818000Y-101346000D03*
X67818000Y-104648000D03*
X67818000Y-106426000D03*
X75692000Y-82042000D03*
X74422000Y-83566000D03*
X68580000Y-99314000D03*
D21*
X62357000Y-78867000D03*
X66421000Y-84074000D03*
D25*
X148082000Y-74295000D02*
X152527000Y-78740000D01*
X152527000Y-78740000D02*
X152527000Y-84963000D01*
X150368000Y-87122000D02*
X148082000Y-87122000D01*
X152527000Y-84963000D02*
X150368000Y-87122000D01*
X148082000Y-87122000D02*
X139954000Y-87122000D01*
X139954000Y-87122000D02*
X131572000Y-95504000D01*
X131572000Y-95504000D02*
X131572000Y-110236000D01*
D26*
X121920000Y-120904000D02*
X121793000Y-120904000D01*
D25*
X127254000Y-120904000D02*
X121920000Y-120904000D01*
X131572000Y-116586000D02*
X127254000Y-120904000D01*
X131572000Y-110236000D02*
X131572000Y-116586000D01*
D27*
X135890000Y-113030000D02*
X141986000Y-106934000D01*
X141986000Y-106934000D02*
X152527000Y-106934000D01*
D26*
X132270500Y-141160500D02*
X126174500Y-141160500D01*
X135890000Y-137541000D02*
X132270500Y-141160500D01*
D28*
X126174500Y-141160500D02*
X125984000Y-140970000D01*
D26*
X135890000Y-113030000D02*
X135890000Y-136144000D01*
X135890000Y-136144000D02*
X135890000Y-137541000D01*
D29*
X125730000Y-140716000D02*
X125984000Y-140970000D01*
X120650000Y-140716000D02*
X125730000Y-140716000D01*
D28*
X68580000Y-84455000D02*
X73787000Y-84455000D01*
X73787000Y-84455000D02*
X74422000Y-85090000D01*
D29*
X114554000Y-100838000D02*
X120904000Y-100838000D01*
X114554000Y-116332000D02*
X122428000Y-116332000D01*
D30*
X88183108Y-82281927D02*
X88392000Y-82490819D01*
X88392000Y-82490819D02*
X88392000Y-103632000D01*
X82550000Y-84582000D02*
X78994000Y-81026000D01*
X78994000Y-81026000D02*
X77978000Y-81026000D01*
D29*
X122174000Y-63246000D02*
X127762000Y-63246000D01*
X127762000Y-63246000D02*
X128016000Y-62992000D01*
D30*
X82550000Y-84582000D02*
X82550000Y-85852000D01*
X82550000Y-85852000D02*
X82042000Y-86360000D01*
X113792000Y-84328000D02*
X116586000Y-87122000D01*
X109474000Y-123444000D02*
X108458000Y-123444000D01*
X108458000Y-123444000D02*
X107696000Y-122682000D01*
X117094000Y-87630000D02*
X116586000Y-87122000D01*
X122936000Y-87630000D02*
X117094000Y-87630000D01*
X79204420Y-80264000D02*
X78740000Y-80264000D01*
X84328000Y-86106000D02*
X84328000Y-85387580D01*
X84328000Y-85387580D02*
X79204420Y-80264000D01*
X115570000Y-84328000D02*
X117602000Y-86360000D01*
X117602000Y-86360000D02*
X117856000Y-86360000D01*
X107188000Y-123444000D02*
X107696000Y-123444000D01*
X107696000Y-123444000D02*
X108712000Y-124460000D01*
X115824000Y-124460000D02*
X117856000Y-124460000D01*
X117856000Y-86360000D02*
X119634000Y-86360000D01*
X119634000Y-86360000D02*
X121412000Y-84582000D01*
X128270000Y-84582000D02*
X130810000Y-87122000D01*
X121412000Y-84582000D02*
X128270000Y-84582000D01*
X63373000Y-79629000D02*
X63373000Y-80518000D01*
X63373000Y-80518000D02*
X63627000Y-80772000D01*
X63627000Y-80772000D02*
X63754000Y-80899000D01*
X67183000Y-72517000D02*
X67183000Y-73406000D01*
X67183000Y-73406000D02*
X66675000Y-73914000D01*
X68485600Y-75184000D02*
X68485600Y-66769400D01*
X68485600Y-66769400D02*
X70358000Y-64897000D01*
X70358000Y-64897000D02*
X70358000Y-64770000D01*
X70358000Y-64770000D02*
X73406000Y-61722000D01*
X73406000Y-61722000D02*
X101092000Y-61722000D01*
X101092000Y-61722000D02*
X101854000Y-62484000D01*
X100558599Y-63474599D02*
X103403401Y-63474599D01*
X69469000Y-75057000D02*
X69469000Y-66929000D01*
X69469000Y-66929000D02*
X74168000Y-62230000D01*
X103403401Y-63474599D02*
X105664000Y-61214000D01*
X74168000Y-62230000D02*
X99314000Y-62230000D01*
X68453000Y-76073000D02*
X69469000Y-75057000D01*
X99314000Y-62230000D02*
X100558599Y-63474599D01*
X85090000Y-83058000D02*
X85344000Y-83312000D01*
X85344000Y-83312000D02*
X85344000Y-95250000D01*
X87630000Y-83058000D02*
X87630000Y-102616000D01*
X73914000Y-79756000D02*
X73914000Y-80772000D01*
X73914000Y-80772000D02*
X72390000Y-82296000D01*
X66802000Y-99568000D02*
X66802000Y-101346000D01*
X66802000Y-104648000D02*
X66802000Y-106426000D01*
X102870000Y-68326000D02*
X102870000Y-77216000D01*
X102870000Y-77216000D02*
X102108000Y-77978000D01*
X84582000Y-88138000D02*
X84074000Y-88646000D01*
X84074000Y-88646000D02*
X84074000Y-99314000D01*
X93345000Y-86741000D02*
X96520000Y-83566000D01*
X91186000Y-86741000D02*
X93345000Y-86741000D01*
X101854000Y-69088000D02*
X101854000Y-76454000D01*
X101854000Y-76454000D02*
X102108000Y-76708000D01*
X90170000Y-83312000D02*
X90170000Y-86868000D01*
X90170000Y-86868000D02*
X89916000Y-87122000D01*
X83312000Y-87122000D02*
X83312000Y-98552000D01*
X112014000Y-83312000D02*
X112014000Y-88138000D01*
X112014000Y-88138000D02*
X113030000Y-89154000D01*
X89108001Y-81833999D02*
X89154000Y-81788000D01*
X89108001Y-83865999D02*
X89108001Y-100284001D01*
X89108001Y-83865999D02*
X89108001Y-81833999D01*
X89108001Y-100284001D02*
X89108001Y-102824001D01*
X89108001Y-102824001D02*
X89154000Y-102870000D01*
D28*
X80295866Y-141668500D02*
X90805000Y-141668500D01*
X78994000Y-144526000D02*
X78994000Y-142970366D01*
X78994000Y-142970366D02*
X80295866Y-141668500D01*
X90805000Y-141700366D02*
X90805000Y-141668500D01*
X92075000Y-142970366D02*
X90805000Y-141700366D01*
X92075000Y-144526000D02*
X92075000Y-142970366D01*
D30*
X86106000Y-83058000D02*
X86106000Y-95758000D01*
D28*
X80327500Y-140017500D02*
X87566500Y-140017500D01*
X87566500Y-140017500D02*
X87630000Y-140081000D01*
D30*
X86868000Y-96266000D02*
X86868000Y-82550000D01*
X86868000Y-82550000D02*
X86614000Y-82296000D01*
X79502000Y-83820000D02*
X78740000Y-83820000D01*
X78740000Y-83820000D02*
X75692000Y-80772000D01*
X118872000Y-85344000D02*
X118364000Y-85344000D01*
X118364000Y-85344000D02*
X114808000Y-81788000D01*
X118872000Y-125730000D02*
X115570000Y-125730000D01*
X107696000Y-125476000D02*
X106426000Y-124206000D01*
X74676000Y-80772000D02*
X74676000Y-81788000D01*
X74676000Y-81788000D02*
X73660000Y-82804000D01*
X67818000Y-99568000D02*
X67818000Y-101346000D01*
X67818000Y-104648000D02*
X67818000Y-106426000D01*
X75692000Y-82042000D02*
X74422000Y-83312000D01*
X74422000Y-83312000D02*
X74422000Y-83566000D01*
X68580000Y-99314000D02*
X68580000Y-102870000D01*
X68580000Y-102870000D02*
X68326000Y-103124000D01*
X68326000Y-103124000D02*
X66548000Y-103124000D01*
X66548000Y-103124000D02*
X65786000Y-103886000D01*
X65786000Y-106426000D02*
X61722000Y-110490000D01*
X65786000Y-103886000D02*
X65786000Y-106426000D01*
D29*
X62357000Y-78867000D02*
X63924698Y-78867000D01*
X63924698Y-78867000D02*
X65659000Y-78867000D01*
X65659000Y-78867000D02*
X66421000Y-79629000D01*
X66421000Y-79629000D02*
X66421000Y-84074000D01*
M02*
