G04 #@! TF.GenerationSoftware,KiCad,Pcbnew,5.1.6-c6e7f7d~87~ubuntu18.04.1*
G04 #@! TF.CreationDate,2020-08-03T14:56:27+01:00*
G04 #@! TF.ProjectId,garden,67617264-656e-42e6-9b69-6361645f7063,rev?*
G04 #@! TF.SameCoordinates,Original*
G04 #@! TF.FileFunction,Paste,Top*
G04 #@! TF.FilePolarity,Positive*
%FSLAX46Y46*%
G04 Gerber Fmt 4.6, Leading zero omitted, Abs format (unit mm)*
G04 Created by KiCad (PCBNEW 5.1.6-c6e7f7d~87~ubuntu18.04.1) date 2020-08-03 14:56:27*
%MOMM*%
%LPD*%
G01*
G04 APERTURE LIST*
%ADD10R,3.500000X2.200000*%
%ADD11R,0.500000X0.500000*%
%ADD12R,2.000000X0.900000*%
%ADD13R,0.900000X2.000000*%
%ADD14R,5.000000X5.000000*%
%ADD15R,1.060000X0.650000*%
%ADD16R,2.500000X1.800000*%
%ADD17R,3.050000X2.750000*%
%ADD18R,2.200000X1.200000*%
%ADD19R,0.750000X1.000000*%
%ADD20R,0.800000X0.900000*%
%ADD21R,1.900000X1.500000*%
%ADD22R,1.350000X0.400000*%
%ADD23R,1.200000X0.900000*%
G04 APERTURE END LIST*
D10*
X101600000Y-105820000D03*
X101600000Y-99920000D03*
D11*
X64940000Y-85598000D03*
X67140000Y-85598000D03*
G36*
G01*
X63564000Y-77678500D02*
X63564000Y-78023500D01*
G75*
G02*
X63416500Y-78171000I-147500J0D01*
G01*
X63121500Y-78171000D01*
G75*
G02*
X62974000Y-78023500I0J147500D01*
G01*
X62974000Y-77678500D01*
G75*
G02*
X63121500Y-77531000I147500J0D01*
G01*
X63416500Y-77531000D01*
G75*
G02*
X63564000Y-77678500I0J-147500D01*
G01*
G37*
G36*
G01*
X64534000Y-77678500D02*
X64534000Y-78023500D01*
G75*
G02*
X64386500Y-78171000I-147500J0D01*
G01*
X64091500Y-78171000D01*
G75*
G02*
X63944000Y-78023500I0J147500D01*
G01*
X63944000Y-77678500D01*
G75*
G02*
X64091500Y-77531000I147500J0D01*
G01*
X64386500Y-77531000D01*
G75*
G02*
X64534000Y-77678500I0J-147500D01*
G01*
G37*
G36*
G01*
X72435500Y-76518000D02*
X72090500Y-76518000D01*
G75*
G02*
X71943000Y-76370500I0J147500D01*
G01*
X71943000Y-76075500D01*
G75*
G02*
X72090500Y-75928000I147500J0D01*
G01*
X72435500Y-75928000D01*
G75*
G02*
X72583000Y-76075500I0J-147500D01*
G01*
X72583000Y-76370500D01*
G75*
G02*
X72435500Y-76518000I-147500J0D01*
G01*
G37*
G36*
G01*
X72435500Y-77488000D02*
X72090500Y-77488000D01*
G75*
G02*
X71943000Y-77340500I0J147500D01*
G01*
X71943000Y-77045500D01*
G75*
G02*
X72090500Y-76898000I147500J0D01*
G01*
X72435500Y-76898000D01*
G75*
G02*
X72583000Y-77045500I0J-147500D01*
G01*
X72583000Y-77340500D01*
G75*
G02*
X72435500Y-77488000I-147500J0D01*
G01*
G37*
G36*
G01*
X68615000Y-81736000D02*
X68615000Y-81286000D01*
G75*
G02*
X68840000Y-81061000I225000J0D01*
G01*
X69290000Y-81061000D01*
G75*
G02*
X69515000Y-81286000I0J-225000D01*
G01*
X69515000Y-81736000D01*
G75*
G02*
X69290000Y-81961000I-225000J0D01*
G01*
X68840000Y-81961000D01*
G75*
G02*
X68615000Y-81736000I0J225000D01*
G01*
G37*
G36*
G01*
X68615000Y-80616000D02*
X68615000Y-80166000D01*
G75*
G02*
X68840000Y-79941000I225000J0D01*
G01*
X69290000Y-79941000D01*
G75*
G02*
X69515000Y-80166000I0J-225000D01*
G01*
X69515000Y-80616000D01*
G75*
G02*
X69290000Y-80841000I-225000J0D01*
G01*
X68840000Y-80841000D01*
G75*
G02*
X68615000Y-80616000I0J225000D01*
G01*
G37*
G36*
G01*
X68615000Y-79496000D02*
X68615000Y-79046000D01*
G75*
G02*
X68840000Y-78821000I225000J0D01*
G01*
X69290000Y-78821000D01*
G75*
G02*
X69515000Y-79046000I0J-225000D01*
G01*
X69515000Y-79496000D01*
G75*
G02*
X69290000Y-79721000I-225000J0D01*
G01*
X68840000Y-79721000D01*
G75*
G02*
X68615000Y-79496000I0J225000D01*
G01*
G37*
G36*
G01*
X67495000Y-81736000D02*
X67495000Y-81286000D01*
G75*
G02*
X67720000Y-81061000I225000J0D01*
G01*
X68170000Y-81061000D01*
G75*
G02*
X68395000Y-81286000I0J-225000D01*
G01*
X68395000Y-81736000D01*
G75*
G02*
X68170000Y-81961000I-225000J0D01*
G01*
X67720000Y-81961000D01*
G75*
G02*
X67495000Y-81736000I0J225000D01*
G01*
G37*
G36*
G01*
X67495000Y-80616000D02*
X67495000Y-80166000D01*
G75*
G02*
X67720000Y-79941000I225000J0D01*
G01*
X68170000Y-79941000D01*
G75*
G02*
X68395000Y-80166000I0J-225000D01*
G01*
X68395000Y-80616000D01*
G75*
G02*
X68170000Y-80841000I-225000J0D01*
G01*
X67720000Y-80841000D01*
G75*
G02*
X67495000Y-80616000I0J225000D01*
G01*
G37*
G36*
G01*
X67495000Y-79496000D02*
X67495000Y-79046000D01*
G75*
G02*
X67720000Y-78821000I225000J0D01*
G01*
X68170000Y-78821000D01*
G75*
G02*
X68395000Y-79046000I0J-225000D01*
G01*
X68395000Y-79496000D01*
G75*
G02*
X68170000Y-79721000I-225000J0D01*
G01*
X67720000Y-79721000D01*
G75*
G02*
X67495000Y-79496000I0J225000D01*
G01*
G37*
G36*
G01*
X66375000Y-81736000D02*
X66375000Y-81286000D01*
G75*
G02*
X66600000Y-81061000I225000J0D01*
G01*
X67050000Y-81061000D01*
G75*
G02*
X67275000Y-81286000I0J-225000D01*
G01*
X67275000Y-81736000D01*
G75*
G02*
X67050000Y-81961000I-225000J0D01*
G01*
X66600000Y-81961000D01*
G75*
G02*
X66375000Y-81736000I0J225000D01*
G01*
G37*
G36*
G01*
X66375000Y-80616000D02*
X66375000Y-80166000D01*
G75*
G02*
X66600000Y-79941000I225000J0D01*
G01*
X67050000Y-79941000D01*
G75*
G02*
X67275000Y-80166000I0J-225000D01*
G01*
X67275000Y-80616000D01*
G75*
G02*
X67050000Y-80841000I-225000J0D01*
G01*
X66600000Y-80841000D01*
G75*
G02*
X66375000Y-80616000I0J225000D01*
G01*
G37*
G36*
G01*
X66375000Y-79496000D02*
X66375000Y-79046000D01*
G75*
G02*
X66600000Y-78821000I225000J0D01*
G01*
X67050000Y-78821000D01*
G75*
G02*
X67275000Y-79046000I0J-225000D01*
G01*
X67275000Y-79496000D01*
G75*
G02*
X67050000Y-79721000I-225000J0D01*
G01*
X66600000Y-79721000D01*
G75*
G02*
X66375000Y-79496000I0J225000D01*
G01*
G37*
G36*
G01*
X66320000Y-78278500D02*
X66320000Y-77603500D01*
G75*
G02*
X66382500Y-77541000I62500J0D01*
G01*
X66507500Y-77541000D01*
G75*
G02*
X66570000Y-77603500I0J-62500D01*
G01*
X66570000Y-78278500D01*
G75*
G02*
X66507500Y-78341000I-62500J0D01*
G01*
X66382500Y-78341000D01*
G75*
G02*
X66320000Y-78278500I0J62500D01*
G01*
G37*
G36*
G01*
X66820000Y-78278500D02*
X66820000Y-77603500D01*
G75*
G02*
X66882500Y-77541000I62500J0D01*
G01*
X67007500Y-77541000D01*
G75*
G02*
X67070000Y-77603500I0J-62500D01*
G01*
X67070000Y-78278500D01*
G75*
G02*
X67007500Y-78341000I-62500J0D01*
G01*
X66882500Y-78341000D01*
G75*
G02*
X66820000Y-78278500I0J62500D01*
G01*
G37*
G36*
G01*
X67320000Y-78278500D02*
X67320000Y-77603500D01*
G75*
G02*
X67382500Y-77541000I62500J0D01*
G01*
X67507500Y-77541000D01*
G75*
G02*
X67570000Y-77603500I0J-62500D01*
G01*
X67570000Y-78278500D01*
G75*
G02*
X67507500Y-78341000I-62500J0D01*
G01*
X67382500Y-78341000D01*
G75*
G02*
X67320000Y-78278500I0J62500D01*
G01*
G37*
G36*
G01*
X67820000Y-78278500D02*
X67820000Y-77603500D01*
G75*
G02*
X67882500Y-77541000I62500J0D01*
G01*
X68007500Y-77541000D01*
G75*
G02*
X68070000Y-77603500I0J-62500D01*
G01*
X68070000Y-78278500D01*
G75*
G02*
X68007500Y-78341000I-62500J0D01*
G01*
X67882500Y-78341000D01*
G75*
G02*
X67820000Y-78278500I0J62500D01*
G01*
G37*
G36*
G01*
X68320000Y-78278500D02*
X68320000Y-77603500D01*
G75*
G02*
X68382500Y-77541000I62500J0D01*
G01*
X68507500Y-77541000D01*
G75*
G02*
X68570000Y-77603500I0J-62500D01*
G01*
X68570000Y-78278500D01*
G75*
G02*
X68507500Y-78341000I-62500J0D01*
G01*
X68382500Y-78341000D01*
G75*
G02*
X68320000Y-78278500I0J62500D01*
G01*
G37*
G36*
G01*
X68820000Y-78278500D02*
X68820000Y-77603500D01*
G75*
G02*
X68882500Y-77541000I62500J0D01*
G01*
X69007500Y-77541000D01*
G75*
G02*
X69070000Y-77603500I0J-62500D01*
G01*
X69070000Y-78278500D01*
G75*
G02*
X69007500Y-78341000I-62500J0D01*
G01*
X68882500Y-78341000D01*
G75*
G02*
X68820000Y-78278500I0J62500D01*
G01*
G37*
G36*
G01*
X69320000Y-78278500D02*
X69320000Y-77603500D01*
G75*
G02*
X69382500Y-77541000I62500J0D01*
G01*
X69507500Y-77541000D01*
G75*
G02*
X69570000Y-77603500I0J-62500D01*
G01*
X69570000Y-78278500D01*
G75*
G02*
X69507500Y-78341000I-62500J0D01*
G01*
X69382500Y-78341000D01*
G75*
G02*
X69320000Y-78278500I0J62500D01*
G01*
G37*
G36*
G01*
X69995000Y-78953500D02*
X69995000Y-78828500D01*
G75*
G02*
X70057500Y-78766000I62500J0D01*
G01*
X70732500Y-78766000D01*
G75*
G02*
X70795000Y-78828500I0J-62500D01*
G01*
X70795000Y-78953500D01*
G75*
G02*
X70732500Y-79016000I-62500J0D01*
G01*
X70057500Y-79016000D01*
G75*
G02*
X69995000Y-78953500I0J62500D01*
G01*
G37*
G36*
G01*
X69995000Y-79453500D02*
X69995000Y-79328500D01*
G75*
G02*
X70057500Y-79266000I62500J0D01*
G01*
X70732500Y-79266000D01*
G75*
G02*
X70795000Y-79328500I0J-62500D01*
G01*
X70795000Y-79453500D01*
G75*
G02*
X70732500Y-79516000I-62500J0D01*
G01*
X70057500Y-79516000D01*
G75*
G02*
X69995000Y-79453500I0J62500D01*
G01*
G37*
G36*
G01*
X69995000Y-79953500D02*
X69995000Y-79828500D01*
G75*
G02*
X70057500Y-79766000I62500J0D01*
G01*
X70732500Y-79766000D01*
G75*
G02*
X70795000Y-79828500I0J-62500D01*
G01*
X70795000Y-79953500D01*
G75*
G02*
X70732500Y-80016000I-62500J0D01*
G01*
X70057500Y-80016000D01*
G75*
G02*
X69995000Y-79953500I0J62500D01*
G01*
G37*
G36*
G01*
X69995000Y-80453500D02*
X69995000Y-80328500D01*
G75*
G02*
X70057500Y-80266000I62500J0D01*
G01*
X70732500Y-80266000D01*
G75*
G02*
X70795000Y-80328500I0J-62500D01*
G01*
X70795000Y-80453500D01*
G75*
G02*
X70732500Y-80516000I-62500J0D01*
G01*
X70057500Y-80516000D01*
G75*
G02*
X69995000Y-80453500I0J62500D01*
G01*
G37*
G36*
G01*
X69995000Y-80953500D02*
X69995000Y-80828500D01*
G75*
G02*
X70057500Y-80766000I62500J0D01*
G01*
X70732500Y-80766000D01*
G75*
G02*
X70795000Y-80828500I0J-62500D01*
G01*
X70795000Y-80953500D01*
G75*
G02*
X70732500Y-81016000I-62500J0D01*
G01*
X70057500Y-81016000D01*
G75*
G02*
X69995000Y-80953500I0J62500D01*
G01*
G37*
G36*
G01*
X69995000Y-81453500D02*
X69995000Y-81328500D01*
G75*
G02*
X70057500Y-81266000I62500J0D01*
G01*
X70732500Y-81266000D01*
G75*
G02*
X70795000Y-81328500I0J-62500D01*
G01*
X70795000Y-81453500D01*
G75*
G02*
X70732500Y-81516000I-62500J0D01*
G01*
X70057500Y-81516000D01*
G75*
G02*
X69995000Y-81453500I0J62500D01*
G01*
G37*
G36*
G01*
X69995000Y-81953500D02*
X69995000Y-81828500D01*
G75*
G02*
X70057500Y-81766000I62500J0D01*
G01*
X70732500Y-81766000D01*
G75*
G02*
X70795000Y-81828500I0J-62500D01*
G01*
X70795000Y-81953500D01*
G75*
G02*
X70732500Y-82016000I-62500J0D01*
G01*
X70057500Y-82016000D01*
G75*
G02*
X69995000Y-81953500I0J62500D01*
G01*
G37*
G36*
G01*
X69320000Y-83178500D02*
X69320000Y-82503500D01*
G75*
G02*
X69382500Y-82441000I62500J0D01*
G01*
X69507500Y-82441000D01*
G75*
G02*
X69570000Y-82503500I0J-62500D01*
G01*
X69570000Y-83178500D01*
G75*
G02*
X69507500Y-83241000I-62500J0D01*
G01*
X69382500Y-83241000D01*
G75*
G02*
X69320000Y-83178500I0J62500D01*
G01*
G37*
G36*
G01*
X68820000Y-83178500D02*
X68820000Y-82503500D01*
G75*
G02*
X68882500Y-82441000I62500J0D01*
G01*
X69007500Y-82441000D01*
G75*
G02*
X69070000Y-82503500I0J-62500D01*
G01*
X69070000Y-83178500D01*
G75*
G02*
X69007500Y-83241000I-62500J0D01*
G01*
X68882500Y-83241000D01*
G75*
G02*
X68820000Y-83178500I0J62500D01*
G01*
G37*
G36*
G01*
X68320000Y-83178500D02*
X68320000Y-82503500D01*
G75*
G02*
X68382500Y-82441000I62500J0D01*
G01*
X68507500Y-82441000D01*
G75*
G02*
X68570000Y-82503500I0J-62500D01*
G01*
X68570000Y-83178500D01*
G75*
G02*
X68507500Y-83241000I-62500J0D01*
G01*
X68382500Y-83241000D01*
G75*
G02*
X68320000Y-83178500I0J62500D01*
G01*
G37*
G36*
G01*
X67820000Y-83178500D02*
X67820000Y-82503500D01*
G75*
G02*
X67882500Y-82441000I62500J0D01*
G01*
X68007500Y-82441000D01*
G75*
G02*
X68070000Y-82503500I0J-62500D01*
G01*
X68070000Y-83178500D01*
G75*
G02*
X68007500Y-83241000I-62500J0D01*
G01*
X67882500Y-83241000D01*
G75*
G02*
X67820000Y-83178500I0J62500D01*
G01*
G37*
G36*
G01*
X67320000Y-83178500D02*
X67320000Y-82503500D01*
G75*
G02*
X67382500Y-82441000I62500J0D01*
G01*
X67507500Y-82441000D01*
G75*
G02*
X67570000Y-82503500I0J-62500D01*
G01*
X67570000Y-83178500D01*
G75*
G02*
X67507500Y-83241000I-62500J0D01*
G01*
X67382500Y-83241000D01*
G75*
G02*
X67320000Y-83178500I0J62500D01*
G01*
G37*
G36*
G01*
X66820000Y-83178500D02*
X66820000Y-82503500D01*
G75*
G02*
X66882500Y-82441000I62500J0D01*
G01*
X67007500Y-82441000D01*
G75*
G02*
X67070000Y-82503500I0J-62500D01*
G01*
X67070000Y-83178500D01*
G75*
G02*
X67007500Y-83241000I-62500J0D01*
G01*
X66882500Y-83241000D01*
G75*
G02*
X66820000Y-83178500I0J62500D01*
G01*
G37*
G36*
G01*
X66320000Y-83178500D02*
X66320000Y-82503500D01*
G75*
G02*
X66382500Y-82441000I62500J0D01*
G01*
X66507500Y-82441000D01*
G75*
G02*
X66570000Y-82503500I0J-62500D01*
G01*
X66570000Y-83178500D01*
G75*
G02*
X66507500Y-83241000I-62500J0D01*
G01*
X66382500Y-83241000D01*
G75*
G02*
X66320000Y-83178500I0J62500D01*
G01*
G37*
G36*
G01*
X65095000Y-81953500D02*
X65095000Y-81828500D01*
G75*
G02*
X65157500Y-81766000I62500J0D01*
G01*
X65832500Y-81766000D01*
G75*
G02*
X65895000Y-81828500I0J-62500D01*
G01*
X65895000Y-81953500D01*
G75*
G02*
X65832500Y-82016000I-62500J0D01*
G01*
X65157500Y-82016000D01*
G75*
G02*
X65095000Y-81953500I0J62500D01*
G01*
G37*
G36*
G01*
X65095000Y-81453500D02*
X65095000Y-81328500D01*
G75*
G02*
X65157500Y-81266000I62500J0D01*
G01*
X65832500Y-81266000D01*
G75*
G02*
X65895000Y-81328500I0J-62500D01*
G01*
X65895000Y-81453500D01*
G75*
G02*
X65832500Y-81516000I-62500J0D01*
G01*
X65157500Y-81516000D01*
G75*
G02*
X65095000Y-81453500I0J62500D01*
G01*
G37*
G36*
G01*
X65095000Y-80953500D02*
X65095000Y-80828500D01*
G75*
G02*
X65157500Y-80766000I62500J0D01*
G01*
X65832500Y-80766000D01*
G75*
G02*
X65895000Y-80828500I0J-62500D01*
G01*
X65895000Y-80953500D01*
G75*
G02*
X65832500Y-81016000I-62500J0D01*
G01*
X65157500Y-81016000D01*
G75*
G02*
X65095000Y-80953500I0J62500D01*
G01*
G37*
G36*
G01*
X65095000Y-80453500D02*
X65095000Y-80328500D01*
G75*
G02*
X65157500Y-80266000I62500J0D01*
G01*
X65832500Y-80266000D01*
G75*
G02*
X65895000Y-80328500I0J-62500D01*
G01*
X65895000Y-80453500D01*
G75*
G02*
X65832500Y-80516000I-62500J0D01*
G01*
X65157500Y-80516000D01*
G75*
G02*
X65095000Y-80453500I0J62500D01*
G01*
G37*
G36*
G01*
X65095000Y-79953500D02*
X65095000Y-79828500D01*
G75*
G02*
X65157500Y-79766000I62500J0D01*
G01*
X65832500Y-79766000D01*
G75*
G02*
X65895000Y-79828500I0J-62500D01*
G01*
X65895000Y-79953500D01*
G75*
G02*
X65832500Y-80016000I-62500J0D01*
G01*
X65157500Y-80016000D01*
G75*
G02*
X65095000Y-79953500I0J62500D01*
G01*
G37*
G36*
G01*
X65095000Y-79453500D02*
X65095000Y-79328500D01*
G75*
G02*
X65157500Y-79266000I62500J0D01*
G01*
X65832500Y-79266000D01*
G75*
G02*
X65895000Y-79328500I0J-62500D01*
G01*
X65895000Y-79453500D01*
G75*
G02*
X65832500Y-79516000I-62500J0D01*
G01*
X65157500Y-79516000D01*
G75*
G02*
X65095000Y-79453500I0J62500D01*
G01*
G37*
G36*
G01*
X65095000Y-78953500D02*
X65095000Y-78828500D01*
G75*
G02*
X65157500Y-78766000I62500J0D01*
G01*
X65832500Y-78766000D01*
G75*
G02*
X65895000Y-78828500I0J-62500D01*
G01*
X65895000Y-78953500D01*
G75*
G02*
X65832500Y-79016000I-62500J0D01*
G01*
X65157500Y-79016000D01*
G75*
G02*
X65095000Y-78953500I0J62500D01*
G01*
G37*
D12*
X99686000Y-57277000D03*
X99686000Y-58547000D03*
X99686000Y-59817000D03*
X99686000Y-61087000D03*
X99686000Y-62357000D03*
X99686000Y-63627000D03*
X99686000Y-64897000D03*
X99686000Y-66167000D03*
X99686000Y-67437000D03*
X99686000Y-68707000D03*
X99686000Y-69977000D03*
X99686000Y-71247000D03*
X99686000Y-72517000D03*
X99686000Y-73787000D03*
D13*
X96901000Y-74787000D03*
X95631000Y-74787000D03*
X94361000Y-74787000D03*
X93091000Y-74787000D03*
X91821000Y-74787000D03*
X90551000Y-74787000D03*
X89281000Y-74787000D03*
X88011000Y-74787000D03*
X86741000Y-74787000D03*
X85471000Y-74787000D03*
D12*
X82686000Y-73787000D03*
X82686000Y-72517000D03*
X82686000Y-71247000D03*
X82686000Y-69977000D03*
X82686000Y-68707000D03*
X82686000Y-67437000D03*
X82686000Y-66167000D03*
X82686000Y-64897000D03*
X82686000Y-63627000D03*
X82686000Y-62357000D03*
X82686000Y-61087000D03*
X82686000Y-59817000D03*
X82686000Y-58547000D03*
X82686000Y-57277000D03*
D14*
X90186000Y-64777000D03*
G36*
G01*
X99232500Y-113094000D02*
X98887500Y-113094000D01*
G75*
G02*
X98740000Y-112946500I0J147500D01*
G01*
X98740000Y-112651500D01*
G75*
G02*
X98887500Y-112504000I147500J0D01*
G01*
X99232500Y-112504000D01*
G75*
G02*
X99380000Y-112651500I0J-147500D01*
G01*
X99380000Y-112946500D01*
G75*
G02*
X99232500Y-113094000I-147500J0D01*
G01*
G37*
G36*
G01*
X99232500Y-114064000D02*
X98887500Y-114064000D01*
G75*
G02*
X98740000Y-113916500I0J147500D01*
G01*
X98740000Y-113621500D01*
G75*
G02*
X98887500Y-113474000I147500J0D01*
G01*
X99232500Y-113474000D01*
G75*
G02*
X99380000Y-113621500I0J-147500D01*
G01*
X99380000Y-113916500D01*
G75*
G02*
X99232500Y-114064000I-147500J0D01*
G01*
G37*
G36*
G01*
X96471000Y-110073000D02*
X96471000Y-109923000D01*
G75*
G02*
X96546000Y-109848000I75000J0D01*
G01*
X97846000Y-109848000D01*
G75*
G02*
X97921000Y-109923000I0J-75000D01*
G01*
X97921000Y-110073000D01*
G75*
G02*
X97846000Y-110148000I-75000J0D01*
G01*
X96546000Y-110148000D01*
G75*
G02*
X96471000Y-110073000I0J75000D01*
G01*
G37*
G36*
G01*
X96471000Y-110573000D02*
X96471000Y-110423000D01*
G75*
G02*
X96546000Y-110348000I75000J0D01*
G01*
X97846000Y-110348000D01*
G75*
G02*
X97921000Y-110423000I0J-75000D01*
G01*
X97921000Y-110573000D01*
G75*
G02*
X97846000Y-110648000I-75000J0D01*
G01*
X96546000Y-110648000D01*
G75*
G02*
X96471000Y-110573000I0J75000D01*
G01*
G37*
G36*
G01*
X96471000Y-111073000D02*
X96471000Y-110923000D01*
G75*
G02*
X96546000Y-110848000I75000J0D01*
G01*
X97846000Y-110848000D01*
G75*
G02*
X97921000Y-110923000I0J-75000D01*
G01*
X97921000Y-111073000D01*
G75*
G02*
X97846000Y-111148000I-75000J0D01*
G01*
X96546000Y-111148000D01*
G75*
G02*
X96471000Y-111073000I0J75000D01*
G01*
G37*
G36*
G01*
X96471000Y-111573000D02*
X96471000Y-111423000D01*
G75*
G02*
X96546000Y-111348000I75000J0D01*
G01*
X97846000Y-111348000D01*
G75*
G02*
X97921000Y-111423000I0J-75000D01*
G01*
X97921000Y-111573000D01*
G75*
G02*
X97846000Y-111648000I-75000J0D01*
G01*
X96546000Y-111648000D01*
G75*
G02*
X96471000Y-111573000I0J75000D01*
G01*
G37*
G36*
G01*
X96471000Y-112073000D02*
X96471000Y-111923000D01*
G75*
G02*
X96546000Y-111848000I75000J0D01*
G01*
X97846000Y-111848000D01*
G75*
G02*
X97921000Y-111923000I0J-75000D01*
G01*
X97921000Y-112073000D01*
G75*
G02*
X97846000Y-112148000I-75000J0D01*
G01*
X96546000Y-112148000D01*
G75*
G02*
X96471000Y-112073000I0J75000D01*
G01*
G37*
G36*
G01*
X92071000Y-112073000D02*
X92071000Y-111923000D01*
G75*
G02*
X92146000Y-111848000I75000J0D01*
G01*
X93446000Y-111848000D01*
G75*
G02*
X93521000Y-111923000I0J-75000D01*
G01*
X93521000Y-112073000D01*
G75*
G02*
X93446000Y-112148000I-75000J0D01*
G01*
X92146000Y-112148000D01*
G75*
G02*
X92071000Y-112073000I0J75000D01*
G01*
G37*
G36*
G01*
X92071000Y-111573000D02*
X92071000Y-111423000D01*
G75*
G02*
X92146000Y-111348000I75000J0D01*
G01*
X93446000Y-111348000D01*
G75*
G02*
X93521000Y-111423000I0J-75000D01*
G01*
X93521000Y-111573000D01*
G75*
G02*
X93446000Y-111648000I-75000J0D01*
G01*
X92146000Y-111648000D01*
G75*
G02*
X92071000Y-111573000I0J75000D01*
G01*
G37*
G36*
G01*
X92071000Y-111073000D02*
X92071000Y-110923000D01*
G75*
G02*
X92146000Y-110848000I75000J0D01*
G01*
X93446000Y-110848000D01*
G75*
G02*
X93521000Y-110923000I0J-75000D01*
G01*
X93521000Y-111073000D01*
G75*
G02*
X93446000Y-111148000I-75000J0D01*
G01*
X92146000Y-111148000D01*
G75*
G02*
X92071000Y-111073000I0J75000D01*
G01*
G37*
G36*
G01*
X92071000Y-110573000D02*
X92071000Y-110423000D01*
G75*
G02*
X92146000Y-110348000I75000J0D01*
G01*
X93446000Y-110348000D01*
G75*
G02*
X93521000Y-110423000I0J-75000D01*
G01*
X93521000Y-110573000D01*
G75*
G02*
X93446000Y-110648000I-75000J0D01*
G01*
X92146000Y-110648000D01*
G75*
G02*
X92071000Y-110573000I0J75000D01*
G01*
G37*
G36*
G01*
X92071000Y-110073000D02*
X92071000Y-109923000D01*
G75*
G02*
X92146000Y-109848000I75000J0D01*
G01*
X93446000Y-109848000D01*
G75*
G02*
X93521000Y-109923000I0J-75000D01*
G01*
X93521000Y-110073000D01*
G75*
G02*
X93446000Y-110148000I-75000J0D01*
G01*
X92146000Y-110148000D01*
G75*
G02*
X92071000Y-110073000I0J75000D01*
G01*
G37*
G36*
G01*
X101463000Y-108953000D02*
X100213000Y-108953000D01*
G75*
G02*
X99963000Y-108703000I0J250000D01*
G01*
X99963000Y-107953000D01*
G75*
G02*
X100213000Y-107703000I250000J0D01*
G01*
X101463000Y-107703000D01*
G75*
G02*
X101713000Y-107953000I0J-250000D01*
G01*
X101713000Y-108703000D01*
G75*
G02*
X101463000Y-108953000I-250000J0D01*
G01*
G37*
G36*
G01*
X101463000Y-111753000D02*
X100213000Y-111753000D01*
G75*
G02*
X99963000Y-111503000I0J250000D01*
G01*
X99963000Y-110753000D01*
G75*
G02*
X100213000Y-110503000I250000J0D01*
G01*
X101463000Y-110503000D01*
G75*
G02*
X101713000Y-110753000I0J-250000D01*
G01*
X101713000Y-111503000D01*
G75*
G02*
X101463000Y-111753000I-250000J0D01*
G01*
G37*
G36*
G01*
X129999000Y-126329000D02*
X129999000Y-126179000D01*
G75*
G02*
X130074000Y-126104000I75000J0D01*
G01*
X131374000Y-126104000D01*
G75*
G02*
X131449000Y-126179000I0J-75000D01*
G01*
X131449000Y-126329000D01*
G75*
G02*
X131374000Y-126404000I-75000J0D01*
G01*
X130074000Y-126404000D01*
G75*
G02*
X129999000Y-126329000I0J75000D01*
G01*
G37*
G36*
G01*
X129999000Y-126829000D02*
X129999000Y-126679000D01*
G75*
G02*
X130074000Y-126604000I75000J0D01*
G01*
X131374000Y-126604000D01*
G75*
G02*
X131449000Y-126679000I0J-75000D01*
G01*
X131449000Y-126829000D01*
G75*
G02*
X131374000Y-126904000I-75000J0D01*
G01*
X130074000Y-126904000D01*
G75*
G02*
X129999000Y-126829000I0J75000D01*
G01*
G37*
G36*
G01*
X129999000Y-127329000D02*
X129999000Y-127179000D01*
G75*
G02*
X130074000Y-127104000I75000J0D01*
G01*
X131374000Y-127104000D01*
G75*
G02*
X131449000Y-127179000I0J-75000D01*
G01*
X131449000Y-127329000D01*
G75*
G02*
X131374000Y-127404000I-75000J0D01*
G01*
X130074000Y-127404000D01*
G75*
G02*
X129999000Y-127329000I0J75000D01*
G01*
G37*
G36*
G01*
X129999000Y-127829000D02*
X129999000Y-127679000D01*
G75*
G02*
X130074000Y-127604000I75000J0D01*
G01*
X131374000Y-127604000D01*
G75*
G02*
X131449000Y-127679000I0J-75000D01*
G01*
X131449000Y-127829000D01*
G75*
G02*
X131374000Y-127904000I-75000J0D01*
G01*
X130074000Y-127904000D01*
G75*
G02*
X129999000Y-127829000I0J75000D01*
G01*
G37*
G36*
G01*
X129999000Y-128329000D02*
X129999000Y-128179000D01*
G75*
G02*
X130074000Y-128104000I75000J0D01*
G01*
X131374000Y-128104000D01*
G75*
G02*
X131449000Y-128179000I0J-75000D01*
G01*
X131449000Y-128329000D01*
G75*
G02*
X131374000Y-128404000I-75000J0D01*
G01*
X130074000Y-128404000D01*
G75*
G02*
X129999000Y-128329000I0J75000D01*
G01*
G37*
G36*
G01*
X125599000Y-128329000D02*
X125599000Y-128179000D01*
G75*
G02*
X125674000Y-128104000I75000J0D01*
G01*
X126974000Y-128104000D01*
G75*
G02*
X127049000Y-128179000I0J-75000D01*
G01*
X127049000Y-128329000D01*
G75*
G02*
X126974000Y-128404000I-75000J0D01*
G01*
X125674000Y-128404000D01*
G75*
G02*
X125599000Y-128329000I0J75000D01*
G01*
G37*
G36*
G01*
X125599000Y-127829000D02*
X125599000Y-127679000D01*
G75*
G02*
X125674000Y-127604000I75000J0D01*
G01*
X126974000Y-127604000D01*
G75*
G02*
X127049000Y-127679000I0J-75000D01*
G01*
X127049000Y-127829000D01*
G75*
G02*
X126974000Y-127904000I-75000J0D01*
G01*
X125674000Y-127904000D01*
G75*
G02*
X125599000Y-127829000I0J75000D01*
G01*
G37*
G36*
G01*
X125599000Y-127329000D02*
X125599000Y-127179000D01*
G75*
G02*
X125674000Y-127104000I75000J0D01*
G01*
X126974000Y-127104000D01*
G75*
G02*
X127049000Y-127179000I0J-75000D01*
G01*
X127049000Y-127329000D01*
G75*
G02*
X126974000Y-127404000I-75000J0D01*
G01*
X125674000Y-127404000D01*
G75*
G02*
X125599000Y-127329000I0J75000D01*
G01*
G37*
G36*
G01*
X125599000Y-126829000D02*
X125599000Y-126679000D01*
G75*
G02*
X125674000Y-126604000I75000J0D01*
G01*
X126974000Y-126604000D01*
G75*
G02*
X127049000Y-126679000I0J-75000D01*
G01*
X127049000Y-126829000D01*
G75*
G02*
X126974000Y-126904000I-75000J0D01*
G01*
X125674000Y-126904000D01*
G75*
G02*
X125599000Y-126829000I0J75000D01*
G01*
G37*
G36*
G01*
X125599000Y-126329000D02*
X125599000Y-126179000D01*
G75*
G02*
X125674000Y-126104000I75000J0D01*
G01*
X126974000Y-126104000D01*
G75*
G02*
X127049000Y-126179000I0J-75000D01*
G01*
X127049000Y-126329000D01*
G75*
G02*
X126974000Y-126404000I-75000J0D01*
G01*
X125674000Y-126404000D01*
G75*
G02*
X125599000Y-126329000I0J75000D01*
G01*
G37*
G36*
G01*
X134559000Y-72037001D02*
X134559000Y-69186999D01*
G75*
G02*
X134808999Y-68937000I249999J0D01*
G01*
X135659001Y-68937000D01*
G75*
G02*
X135909000Y-69186999I0J-249999D01*
G01*
X135909000Y-72037001D01*
G75*
G02*
X135659001Y-72287000I-249999J0D01*
G01*
X134808999Y-72287000D01*
G75*
G02*
X134559000Y-72037001I0J249999D01*
G01*
G37*
G36*
G01*
X128759000Y-72037001D02*
X128759000Y-69186999D01*
G75*
G02*
X129008999Y-68937000I249999J0D01*
G01*
X129859001Y-68937000D01*
G75*
G02*
X130109000Y-69186999I0J-249999D01*
G01*
X130109000Y-72037001D01*
G75*
G02*
X129859001Y-72287000I-249999J0D01*
G01*
X129008999Y-72287000D01*
G75*
G02*
X128759000Y-72037001I0J249999D01*
G01*
G37*
G36*
G01*
X133259000Y-64975000D02*
X133409000Y-64975000D01*
G75*
G02*
X133484000Y-65050000I0J-75000D01*
G01*
X133484000Y-66350000D01*
G75*
G02*
X133409000Y-66425000I-75000J0D01*
G01*
X133259000Y-66425000D01*
G75*
G02*
X133184000Y-66350000I0J75000D01*
G01*
X133184000Y-65050000D01*
G75*
G02*
X133259000Y-64975000I75000J0D01*
G01*
G37*
G36*
G01*
X132759000Y-64975000D02*
X132909000Y-64975000D01*
G75*
G02*
X132984000Y-65050000I0J-75000D01*
G01*
X132984000Y-66350000D01*
G75*
G02*
X132909000Y-66425000I-75000J0D01*
G01*
X132759000Y-66425000D01*
G75*
G02*
X132684000Y-66350000I0J75000D01*
G01*
X132684000Y-65050000D01*
G75*
G02*
X132759000Y-64975000I75000J0D01*
G01*
G37*
G36*
G01*
X132259000Y-64975000D02*
X132409000Y-64975000D01*
G75*
G02*
X132484000Y-65050000I0J-75000D01*
G01*
X132484000Y-66350000D01*
G75*
G02*
X132409000Y-66425000I-75000J0D01*
G01*
X132259000Y-66425000D01*
G75*
G02*
X132184000Y-66350000I0J75000D01*
G01*
X132184000Y-65050000D01*
G75*
G02*
X132259000Y-64975000I75000J0D01*
G01*
G37*
G36*
G01*
X131759000Y-64975000D02*
X131909000Y-64975000D01*
G75*
G02*
X131984000Y-65050000I0J-75000D01*
G01*
X131984000Y-66350000D01*
G75*
G02*
X131909000Y-66425000I-75000J0D01*
G01*
X131759000Y-66425000D01*
G75*
G02*
X131684000Y-66350000I0J75000D01*
G01*
X131684000Y-65050000D01*
G75*
G02*
X131759000Y-64975000I75000J0D01*
G01*
G37*
G36*
G01*
X131259000Y-64975000D02*
X131409000Y-64975000D01*
G75*
G02*
X131484000Y-65050000I0J-75000D01*
G01*
X131484000Y-66350000D01*
G75*
G02*
X131409000Y-66425000I-75000J0D01*
G01*
X131259000Y-66425000D01*
G75*
G02*
X131184000Y-66350000I0J75000D01*
G01*
X131184000Y-65050000D01*
G75*
G02*
X131259000Y-64975000I75000J0D01*
G01*
G37*
G36*
G01*
X131259000Y-60575000D02*
X131409000Y-60575000D01*
G75*
G02*
X131484000Y-60650000I0J-75000D01*
G01*
X131484000Y-61950000D01*
G75*
G02*
X131409000Y-62025000I-75000J0D01*
G01*
X131259000Y-62025000D01*
G75*
G02*
X131184000Y-61950000I0J75000D01*
G01*
X131184000Y-60650000D01*
G75*
G02*
X131259000Y-60575000I75000J0D01*
G01*
G37*
G36*
G01*
X131759000Y-60575000D02*
X131909000Y-60575000D01*
G75*
G02*
X131984000Y-60650000I0J-75000D01*
G01*
X131984000Y-61950000D01*
G75*
G02*
X131909000Y-62025000I-75000J0D01*
G01*
X131759000Y-62025000D01*
G75*
G02*
X131684000Y-61950000I0J75000D01*
G01*
X131684000Y-60650000D01*
G75*
G02*
X131759000Y-60575000I75000J0D01*
G01*
G37*
G36*
G01*
X132259000Y-60575000D02*
X132409000Y-60575000D01*
G75*
G02*
X132484000Y-60650000I0J-75000D01*
G01*
X132484000Y-61950000D01*
G75*
G02*
X132409000Y-62025000I-75000J0D01*
G01*
X132259000Y-62025000D01*
G75*
G02*
X132184000Y-61950000I0J75000D01*
G01*
X132184000Y-60650000D01*
G75*
G02*
X132259000Y-60575000I75000J0D01*
G01*
G37*
G36*
G01*
X132759000Y-60575000D02*
X132909000Y-60575000D01*
G75*
G02*
X132984000Y-60650000I0J-75000D01*
G01*
X132984000Y-61950000D01*
G75*
G02*
X132909000Y-62025000I-75000J0D01*
G01*
X132759000Y-62025000D01*
G75*
G02*
X132684000Y-61950000I0J75000D01*
G01*
X132684000Y-60650000D01*
G75*
G02*
X132759000Y-60575000I75000J0D01*
G01*
G37*
G36*
G01*
X133259000Y-60575000D02*
X133409000Y-60575000D01*
G75*
G02*
X133484000Y-60650000I0J-75000D01*
G01*
X133484000Y-61950000D01*
G75*
G02*
X133409000Y-62025000I-75000J0D01*
G01*
X133259000Y-62025000D01*
G75*
G02*
X133184000Y-61950000I0J75000D01*
G01*
X133184000Y-60650000D01*
G75*
G02*
X133259000Y-60575000I75000J0D01*
G01*
G37*
G36*
G01*
X130383500Y-56324000D02*
X130728500Y-56324000D01*
G75*
G02*
X130876000Y-56471500I0J-147500D01*
G01*
X130876000Y-56766500D01*
G75*
G02*
X130728500Y-56914000I-147500J0D01*
G01*
X130383500Y-56914000D01*
G75*
G02*
X130236000Y-56766500I0J147500D01*
G01*
X130236000Y-56471500D01*
G75*
G02*
X130383500Y-56324000I147500J0D01*
G01*
G37*
G36*
G01*
X130383500Y-55354000D02*
X130728500Y-55354000D01*
G75*
G02*
X130876000Y-55501500I0J-147500D01*
G01*
X130876000Y-55796500D01*
G75*
G02*
X130728500Y-55944000I-147500J0D01*
G01*
X130383500Y-55944000D01*
G75*
G02*
X130236000Y-55796500I0J147500D01*
G01*
X130236000Y-55501500D01*
G75*
G02*
X130383500Y-55354000I147500J0D01*
G01*
G37*
G36*
G01*
X126556000Y-66121500D02*
X126556000Y-66466500D01*
G75*
G02*
X126408500Y-66614000I-147500J0D01*
G01*
X126113500Y-66614000D01*
G75*
G02*
X125966000Y-66466500I0J147500D01*
G01*
X125966000Y-66121500D01*
G75*
G02*
X126113500Y-65974000I147500J0D01*
G01*
X126408500Y-65974000D01*
G75*
G02*
X126556000Y-66121500I0J-147500D01*
G01*
G37*
G36*
G01*
X127526000Y-66121500D02*
X127526000Y-66466500D01*
G75*
G02*
X127378500Y-66614000I-147500J0D01*
G01*
X127083500Y-66614000D01*
G75*
G02*
X126936000Y-66466500I0J147500D01*
G01*
X126936000Y-66121500D01*
G75*
G02*
X127083500Y-65974000I147500J0D01*
G01*
X127378500Y-65974000D01*
G75*
G02*
X127526000Y-66121500I0J-147500D01*
G01*
G37*
G36*
G01*
X126556000Y-64597500D02*
X126556000Y-64942500D01*
G75*
G02*
X126408500Y-65090000I-147500J0D01*
G01*
X126113500Y-65090000D01*
G75*
G02*
X125966000Y-64942500I0J147500D01*
G01*
X125966000Y-64597500D01*
G75*
G02*
X126113500Y-64450000I147500J0D01*
G01*
X126408500Y-64450000D01*
G75*
G02*
X126556000Y-64597500I0J-147500D01*
G01*
G37*
G36*
G01*
X127526000Y-64597500D02*
X127526000Y-64942500D01*
G75*
G02*
X127378500Y-65090000I-147500J0D01*
G01*
X127083500Y-65090000D01*
G75*
G02*
X126936000Y-64942500I0J147500D01*
G01*
X126936000Y-64597500D01*
G75*
G02*
X127083500Y-64450000I147500J0D01*
G01*
X127378500Y-64450000D01*
G75*
G02*
X127526000Y-64597500I0J-147500D01*
G01*
G37*
D15*
X113114000Y-100904000D03*
X113114000Y-102804000D03*
X110914000Y-102804000D03*
X110914000Y-101854000D03*
X110914000Y-100904000D03*
X113114000Y-116398000D03*
X113114000Y-118298000D03*
X110914000Y-118298000D03*
X110914000Y-117348000D03*
X110914000Y-116398000D03*
X124036000Y-141544000D03*
X124036000Y-143444000D03*
X121836000Y-143444000D03*
X121836000Y-142494000D03*
X121836000Y-141544000D03*
G36*
G01*
X110808000Y-120223500D02*
X110808000Y-120568500D01*
G75*
G02*
X110660500Y-120716000I-147500J0D01*
G01*
X110365500Y-120716000D01*
G75*
G02*
X110218000Y-120568500I0J147500D01*
G01*
X110218000Y-120223500D01*
G75*
G02*
X110365500Y-120076000I147500J0D01*
G01*
X110660500Y-120076000D01*
G75*
G02*
X110808000Y-120223500I0J-147500D01*
G01*
G37*
G36*
G01*
X111778000Y-120223500D02*
X111778000Y-120568500D01*
G75*
G02*
X111630500Y-120716000I-147500J0D01*
G01*
X111335500Y-120716000D01*
G75*
G02*
X111188000Y-120568500I0J147500D01*
G01*
X111188000Y-120223500D01*
G75*
G02*
X111335500Y-120076000I147500J0D01*
G01*
X111630500Y-120076000D01*
G75*
G02*
X111778000Y-120223500I0J-147500D01*
G01*
G37*
G36*
G01*
X110680000Y-81706500D02*
X110680000Y-81361500D01*
G75*
G02*
X110827500Y-81214000I147500J0D01*
G01*
X111122500Y-81214000D01*
G75*
G02*
X111270000Y-81361500I0J-147500D01*
G01*
X111270000Y-81706500D01*
G75*
G02*
X111122500Y-81854000I-147500J0D01*
G01*
X110827500Y-81854000D01*
G75*
G02*
X110680000Y-81706500I0J147500D01*
G01*
G37*
G36*
G01*
X109710000Y-81706500D02*
X109710000Y-81361500D01*
G75*
G02*
X109857500Y-81214000I147500J0D01*
G01*
X110152500Y-81214000D01*
G75*
G02*
X110300000Y-81361500I0J-147500D01*
G01*
X110300000Y-81706500D01*
G75*
G02*
X110152500Y-81854000I-147500J0D01*
G01*
X109857500Y-81854000D01*
G75*
G02*
X109710000Y-81706500I0J147500D01*
G01*
G37*
G36*
G01*
X112095500Y-142453000D02*
X112440500Y-142453000D01*
G75*
G02*
X112588000Y-142600500I0J-147500D01*
G01*
X112588000Y-142895500D01*
G75*
G02*
X112440500Y-143043000I-147500J0D01*
G01*
X112095500Y-143043000D01*
G75*
G02*
X111948000Y-142895500I0J147500D01*
G01*
X111948000Y-142600500D01*
G75*
G02*
X112095500Y-142453000I147500J0D01*
G01*
G37*
G36*
G01*
X112095500Y-141483000D02*
X112440500Y-141483000D01*
G75*
G02*
X112588000Y-141630500I0J-147500D01*
G01*
X112588000Y-141925500D01*
G75*
G02*
X112440500Y-142073000I-147500J0D01*
G01*
X112095500Y-142073000D01*
G75*
G02*
X111948000Y-141925500I0J147500D01*
G01*
X111948000Y-141630500D01*
G75*
G02*
X112095500Y-141483000I147500J0D01*
G01*
G37*
G36*
G01*
X106484000Y-116383750D02*
X106484000Y-117296250D01*
G75*
G02*
X106240250Y-117540000I-243750J0D01*
G01*
X105752750Y-117540000D01*
G75*
G02*
X105509000Y-117296250I0J243750D01*
G01*
X105509000Y-116383750D01*
G75*
G02*
X105752750Y-116140000I243750J0D01*
G01*
X106240250Y-116140000D01*
G75*
G02*
X106484000Y-116383750I0J-243750D01*
G01*
G37*
G36*
G01*
X108359000Y-116383750D02*
X108359000Y-117296250D01*
G75*
G02*
X108115250Y-117540000I-243750J0D01*
G01*
X107627750Y-117540000D01*
G75*
G02*
X107384000Y-117296250I0J243750D01*
G01*
X107384000Y-116383750D01*
G75*
G02*
X107627750Y-116140000I243750J0D01*
G01*
X108115250Y-116140000D01*
G75*
G02*
X108359000Y-116383750I0J-243750D01*
G01*
G37*
G36*
G01*
X106584000Y-114297750D02*
X106584000Y-114810250D01*
G75*
G02*
X106365250Y-115029000I-218750J0D01*
G01*
X105927750Y-115029000D01*
G75*
G02*
X105709000Y-114810250I0J218750D01*
G01*
X105709000Y-114297750D01*
G75*
G02*
X105927750Y-114079000I218750J0D01*
G01*
X106365250Y-114079000D01*
G75*
G02*
X106584000Y-114297750I0J-218750D01*
G01*
G37*
G36*
G01*
X108159000Y-114297750D02*
X108159000Y-114810250D01*
G75*
G02*
X107940250Y-115029000I-218750J0D01*
G01*
X107502750Y-115029000D01*
G75*
G02*
X107284000Y-114810250I0J218750D01*
G01*
X107284000Y-114297750D01*
G75*
G02*
X107502750Y-114079000I218750J0D01*
G01*
X107940250Y-114079000D01*
G75*
G02*
X108159000Y-114297750I0J-218750D01*
G01*
G37*
G36*
G01*
X108770000Y-98335750D02*
X108770000Y-99248250D01*
G75*
G02*
X108526250Y-99492000I-243750J0D01*
G01*
X108038750Y-99492000D01*
G75*
G02*
X107795000Y-99248250I0J243750D01*
G01*
X107795000Y-98335750D01*
G75*
G02*
X108038750Y-98092000I243750J0D01*
G01*
X108526250Y-98092000D01*
G75*
G02*
X108770000Y-98335750I0J-243750D01*
G01*
G37*
G36*
G01*
X110645000Y-98335750D02*
X110645000Y-99248250D01*
G75*
G02*
X110401250Y-99492000I-243750J0D01*
G01*
X109913750Y-99492000D01*
G75*
G02*
X109670000Y-99248250I0J243750D01*
G01*
X109670000Y-98335750D01*
G75*
G02*
X109913750Y-98092000I243750J0D01*
G01*
X110401250Y-98092000D01*
G75*
G02*
X110645000Y-98335750I0J-243750D01*
G01*
G37*
G36*
G01*
X107854000Y-100581750D02*
X107854000Y-101094250D01*
G75*
G02*
X107635250Y-101313000I-218750J0D01*
G01*
X107197750Y-101313000D01*
G75*
G02*
X106979000Y-101094250I0J218750D01*
G01*
X106979000Y-100581750D01*
G75*
G02*
X107197750Y-100363000I218750J0D01*
G01*
X107635250Y-100363000D01*
G75*
G02*
X107854000Y-100581750I0J-218750D01*
G01*
G37*
G36*
G01*
X109429000Y-100581750D02*
X109429000Y-101094250D01*
G75*
G02*
X109210250Y-101313000I-218750J0D01*
G01*
X108772750Y-101313000D01*
G75*
G02*
X108554000Y-101094250I0J218750D01*
G01*
X108554000Y-100581750D01*
G75*
G02*
X108772750Y-100363000I218750J0D01*
G01*
X109210250Y-100363000D01*
G75*
G02*
X109429000Y-100581750I0J-218750D01*
G01*
G37*
G36*
G01*
X118343500Y-143053750D02*
X118343500Y-143966250D01*
G75*
G02*
X118099750Y-144210000I-243750J0D01*
G01*
X117612250Y-144210000D01*
G75*
G02*
X117368500Y-143966250I0J243750D01*
G01*
X117368500Y-143053750D01*
G75*
G02*
X117612250Y-142810000I243750J0D01*
G01*
X118099750Y-142810000D01*
G75*
G02*
X118343500Y-143053750I0J-243750D01*
G01*
G37*
G36*
G01*
X120218500Y-143053750D02*
X120218500Y-143966250D01*
G75*
G02*
X119974750Y-144210000I-243750J0D01*
G01*
X119487250Y-144210000D01*
G75*
G02*
X119243500Y-143966250I0J243750D01*
G01*
X119243500Y-143053750D01*
G75*
G02*
X119487250Y-142810000I243750J0D01*
G01*
X119974750Y-142810000D01*
G75*
G02*
X120218500Y-143053750I0J-243750D01*
G01*
G37*
G36*
G01*
X118522000Y-141221750D02*
X118522000Y-141734250D01*
G75*
G02*
X118303250Y-141953000I-218750J0D01*
G01*
X117865750Y-141953000D01*
G75*
G02*
X117647000Y-141734250I0J218750D01*
G01*
X117647000Y-141221750D01*
G75*
G02*
X117865750Y-141003000I218750J0D01*
G01*
X118303250Y-141003000D01*
G75*
G02*
X118522000Y-141221750I0J-218750D01*
G01*
G37*
G36*
G01*
X120097000Y-141221750D02*
X120097000Y-141734250D01*
G75*
G02*
X119878250Y-141953000I-218750J0D01*
G01*
X119440750Y-141953000D01*
G75*
G02*
X119222000Y-141734250I0J218750D01*
G01*
X119222000Y-141221750D01*
G75*
G02*
X119440750Y-141003000I218750J0D01*
G01*
X119878250Y-141003000D01*
G75*
G02*
X120097000Y-141221750I0J-218750D01*
G01*
G37*
G36*
G01*
X121330500Y-134938000D02*
X120985500Y-134938000D01*
G75*
G02*
X120838000Y-134790500I0J147500D01*
G01*
X120838000Y-134495500D01*
G75*
G02*
X120985500Y-134348000I147500J0D01*
G01*
X121330500Y-134348000D01*
G75*
G02*
X121478000Y-134495500I0J-147500D01*
G01*
X121478000Y-134790500D01*
G75*
G02*
X121330500Y-134938000I-147500J0D01*
G01*
G37*
G36*
G01*
X121330500Y-135908000D02*
X120985500Y-135908000D01*
G75*
G02*
X120838000Y-135760500I0J147500D01*
G01*
X120838000Y-135465500D01*
G75*
G02*
X120985500Y-135318000I147500J0D01*
G01*
X121330500Y-135318000D01*
G75*
G02*
X121478000Y-135465500I0J-147500D01*
G01*
X121478000Y-135760500D01*
G75*
G02*
X121330500Y-135908000I-147500J0D01*
G01*
G37*
G36*
G01*
X97454500Y-103442000D02*
X97109500Y-103442000D01*
G75*
G02*
X96962000Y-103294500I0J147500D01*
G01*
X96962000Y-102999500D01*
G75*
G02*
X97109500Y-102852000I147500J0D01*
G01*
X97454500Y-102852000D01*
G75*
G02*
X97602000Y-102999500I0J-147500D01*
G01*
X97602000Y-103294500D01*
G75*
G02*
X97454500Y-103442000I-147500J0D01*
G01*
G37*
G36*
G01*
X97454500Y-104412000D02*
X97109500Y-104412000D01*
G75*
G02*
X96962000Y-104264500I0J147500D01*
G01*
X96962000Y-103969500D01*
G75*
G02*
X97109500Y-103822000I147500J0D01*
G01*
X97454500Y-103822000D01*
G75*
G02*
X97602000Y-103969500I0J-147500D01*
G01*
X97602000Y-104264500D01*
G75*
G02*
X97454500Y-104412000I-147500J0D01*
G01*
G37*
G36*
G01*
X91250000Y-92791500D02*
X91250000Y-93136500D01*
G75*
G02*
X91102500Y-93284000I-147500J0D01*
G01*
X90807500Y-93284000D01*
G75*
G02*
X90660000Y-93136500I0J147500D01*
G01*
X90660000Y-92791500D01*
G75*
G02*
X90807500Y-92644000I147500J0D01*
G01*
X91102500Y-92644000D01*
G75*
G02*
X91250000Y-92791500I0J-147500D01*
G01*
G37*
G36*
G01*
X92220000Y-92791500D02*
X92220000Y-93136500D01*
G75*
G02*
X92072500Y-93284000I-147500J0D01*
G01*
X91777500Y-93284000D01*
G75*
G02*
X91630000Y-93136500I0J147500D01*
G01*
X91630000Y-92791500D01*
G75*
G02*
X91777500Y-92644000I147500J0D01*
G01*
X92072500Y-92644000D01*
G75*
G02*
X92220000Y-92791500I0J-147500D01*
G01*
G37*
G36*
G01*
X95054000Y-92761750D02*
X95054000Y-93674250D01*
G75*
G02*
X94810250Y-93918000I-243750J0D01*
G01*
X94322750Y-93918000D01*
G75*
G02*
X94079000Y-93674250I0J243750D01*
G01*
X94079000Y-92761750D01*
G75*
G02*
X94322750Y-92518000I243750J0D01*
G01*
X94810250Y-92518000D01*
G75*
G02*
X95054000Y-92761750I0J-243750D01*
G01*
G37*
G36*
G01*
X96929000Y-92761750D02*
X96929000Y-93674250D01*
G75*
G02*
X96685250Y-93918000I-243750J0D01*
G01*
X96197750Y-93918000D01*
G75*
G02*
X95954000Y-93674250I0J243750D01*
G01*
X95954000Y-92761750D01*
G75*
G02*
X96197750Y-92518000I243750J0D01*
G01*
X96685250Y-92518000D01*
G75*
G02*
X96929000Y-92761750I0J-243750D01*
G01*
G37*
G36*
G01*
X107506000Y-68153500D02*
X107506000Y-68498500D01*
G75*
G02*
X107358500Y-68646000I-147500J0D01*
G01*
X107063500Y-68646000D01*
G75*
G02*
X106916000Y-68498500I0J147500D01*
G01*
X106916000Y-68153500D01*
G75*
G02*
X107063500Y-68006000I147500J0D01*
G01*
X107358500Y-68006000D01*
G75*
G02*
X107506000Y-68153500I0J-147500D01*
G01*
G37*
G36*
G01*
X108476000Y-68153500D02*
X108476000Y-68498500D01*
G75*
G02*
X108328500Y-68646000I-147500J0D01*
G01*
X108033500Y-68646000D01*
G75*
G02*
X107886000Y-68498500I0J147500D01*
G01*
X107886000Y-68153500D01*
G75*
G02*
X108033500Y-68006000I147500J0D01*
G01*
X108328500Y-68006000D01*
G75*
G02*
X108476000Y-68153500I0J-147500D01*
G01*
G37*
G36*
G01*
X76626500Y-57976000D02*
X76281500Y-57976000D01*
G75*
G02*
X76134000Y-57828500I0J147500D01*
G01*
X76134000Y-57533500D01*
G75*
G02*
X76281500Y-57386000I147500J0D01*
G01*
X76626500Y-57386000D01*
G75*
G02*
X76774000Y-57533500I0J-147500D01*
G01*
X76774000Y-57828500D01*
G75*
G02*
X76626500Y-57976000I-147500J0D01*
G01*
G37*
G36*
G01*
X76626500Y-58946000D02*
X76281500Y-58946000D01*
G75*
G02*
X76134000Y-58798500I0J147500D01*
G01*
X76134000Y-58503500D01*
G75*
G02*
X76281500Y-58356000I147500J0D01*
G01*
X76626500Y-58356000D01*
G75*
G02*
X76774000Y-58503500I0J-147500D01*
G01*
X76774000Y-58798500D01*
G75*
G02*
X76626500Y-58946000I-147500J0D01*
G01*
G37*
G36*
G01*
X78150500Y-57999000D02*
X77805500Y-57999000D01*
G75*
G02*
X77658000Y-57851500I0J147500D01*
G01*
X77658000Y-57556500D01*
G75*
G02*
X77805500Y-57409000I147500J0D01*
G01*
X78150500Y-57409000D01*
G75*
G02*
X78298000Y-57556500I0J-147500D01*
G01*
X78298000Y-57851500D01*
G75*
G02*
X78150500Y-57999000I-147500J0D01*
G01*
G37*
G36*
G01*
X78150500Y-58969000D02*
X77805500Y-58969000D01*
G75*
G02*
X77658000Y-58821500I0J147500D01*
G01*
X77658000Y-58526500D01*
G75*
G02*
X77805500Y-58379000I147500J0D01*
G01*
X78150500Y-58379000D01*
G75*
G02*
X78298000Y-58526500I0J-147500D01*
G01*
X78298000Y-58821500D01*
G75*
G02*
X78150500Y-58969000I-147500J0D01*
G01*
G37*
G36*
G01*
X115308000Y-73815000D02*
X117808000Y-73815000D01*
G75*
G02*
X118058000Y-74065000I0J-250000D01*
G01*
X118058000Y-75165000D01*
G75*
G02*
X117808000Y-75415000I-250000J0D01*
G01*
X115308000Y-75415000D01*
G75*
G02*
X115058000Y-75165000I0J250000D01*
G01*
X115058000Y-74065000D01*
G75*
G02*
X115308000Y-73815000I250000J0D01*
G01*
G37*
G36*
G01*
X115308000Y-63015000D02*
X117808000Y-63015000D01*
G75*
G02*
X118058000Y-63265000I0J-250000D01*
G01*
X118058000Y-64365000D01*
G75*
G02*
X117808000Y-64615000I-250000J0D01*
G01*
X115308000Y-64615000D01*
G75*
G02*
X115058000Y-64365000I0J250000D01*
G01*
X115058000Y-63265000D01*
G75*
G02*
X115308000Y-63015000I250000J0D01*
G01*
G37*
G36*
G01*
X111808000Y-71715000D02*
X116808000Y-71715000D01*
G75*
G02*
X117058000Y-71965000I0J-250000D01*
G01*
X117058000Y-72465000D01*
G75*
G02*
X116808000Y-72715000I-250000J0D01*
G01*
X111808000Y-72715000D01*
G75*
G02*
X111558000Y-72465000I0J250000D01*
G01*
X111558000Y-71965000D01*
G75*
G02*
X111808000Y-71715000I250000J0D01*
G01*
G37*
G36*
G01*
X111808000Y-69715000D02*
X116808000Y-69715000D01*
G75*
G02*
X117058000Y-69965000I0J-250000D01*
G01*
X117058000Y-70465000D01*
G75*
G02*
X116808000Y-70715000I-250000J0D01*
G01*
X111808000Y-70715000D01*
G75*
G02*
X111558000Y-70465000I0J250000D01*
G01*
X111558000Y-69965000D01*
G75*
G02*
X111808000Y-69715000I250000J0D01*
G01*
G37*
G36*
G01*
X111808000Y-67715000D02*
X116808000Y-67715000D01*
G75*
G02*
X117058000Y-67965000I0J-250000D01*
G01*
X117058000Y-68465000D01*
G75*
G02*
X116808000Y-68715000I-250000J0D01*
G01*
X111808000Y-68715000D01*
G75*
G02*
X111558000Y-68465000I0J250000D01*
G01*
X111558000Y-67965000D01*
G75*
G02*
X111808000Y-67715000I250000J0D01*
G01*
G37*
G36*
G01*
X111808000Y-65715000D02*
X116808000Y-65715000D01*
G75*
G02*
X117058000Y-65965000I0J-250000D01*
G01*
X117058000Y-66465000D01*
G75*
G02*
X116808000Y-66715000I-250000J0D01*
G01*
X111808000Y-66715000D01*
G75*
G02*
X111558000Y-66465000I0J250000D01*
G01*
X111558000Y-65965000D01*
G75*
G02*
X111808000Y-65715000I250000J0D01*
G01*
G37*
G36*
G01*
X108031500Y-70802000D02*
X108376500Y-70802000D01*
G75*
G02*
X108524000Y-70949500I0J-147500D01*
G01*
X108524000Y-71244500D01*
G75*
G02*
X108376500Y-71392000I-147500J0D01*
G01*
X108031500Y-71392000D01*
G75*
G02*
X107884000Y-71244500I0J147500D01*
G01*
X107884000Y-70949500D01*
G75*
G02*
X108031500Y-70802000I147500J0D01*
G01*
G37*
G36*
G01*
X108031500Y-69832000D02*
X108376500Y-69832000D01*
G75*
G02*
X108524000Y-69979500I0J-147500D01*
G01*
X108524000Y-70274500D01*
G75*
G02*
X108376500Y-70422000I-147500J0D01*
G01*
X108031500Y-70422000D01*
G75*
G02*
X107884000Y-70274500I0J147500D01*
G01*
X107884000Y-69979500D01*
G75*
G02*
X108031500Y-69832000I147500J0D01*
G01*
G37*
G36*
G01*
X108031500Y-73238000D02*
X108376500Y-73238000D01*
G75*
G02*
X108524000Y-73385500I0J-147500D01*
G01*
X108524000Y-73680500D01*
G75*
G02*
X108376500Y-73828000I-147500J0D01*
G01*
X108031500Y-73828000D01*
G75*
G02*
X107884000Y-73680500I0J147500D01*
G01*
X107884000Y-73385500D01*
G75*
G02*
X108031500Y-73238000I147500J0D01*
G01*
G37*
G36*
G01*
X108031500Y-72268000D02*
X108376500Y-72268000D01*
G75*
G02*
X108524000Y-72415500I0J-147500D01*
G01*
X108524000Y-72710500D01*
G75*
G02*
X108376500Y-72858000I-147500J0D01*
G01*
X108031500Y-72858000D01*
G75*
G02*
X107884000Y-72710500I0J147500D01*
G01*
X107884000Y-72415500D01*
G75*
G02*
X108031500Y-72268000I147500J0D01*
G01*
G37*
G36*
G01*
X127158000Y-53718750D02*
X127158000Y-54231250D01*
G75*
G02*
X126939250Y-54450000I-218750J0D01*
G01*
X126501750Y-54450000D01*
G75*
G02*
X126283000Y-54231250I0J218750D01*
G01*
X126283000Y-53718750D01*
G75*
G02*
X126501750Y-53500000I218750J0D01*
G01*
X126939250Y-53500000D01*
G75*
G02*
X127158000Y-53718750I0J-218750D01*
G01*
G37*
G36*
G01*
X128733000Y-53718750D02*
X128733000Y-54231250D01*
G75*
G02*
X128514250Y-54450000I-218750J0D01*
G01*
X128076750Y-54450000D01*
G75*
G02*
X127858000Y-54231250I0J218750D01*
G01*
X127858000Y-53718750D01*
G75*
G02*
X128076750Y-53500000I218750J0D01*
G01*
X128514250Y-53500000D01*
G75*
G02*
X128733000Y-53718750I0J-218750D01*
G01*
G37*
G36*
G01*
X122967000Y-53718750D02*
X122967000Y-54231250D01*
G75*
G02*
X122748250Y-54450000I-218750J0D01*
G01*
X122310750Y-54450000D01*
G75*
G02*
X122092000Y-54231250I0J218750D01*
G01*
X122092000Y-53718750D01*
G75*
G02*
X122310750Y-53500000I218750J0D01*
G01*
X122748250Y-53500000D01*
G75*
G02*
X122967000Y-53718750I0J-218750D01*
G01*
G37*
G36*
G01*
X124542000Y-53718750D02*
X124542000Y-54231250D01*
G75*
G02*
X124323250Y-54450000I-218750J0D01*
G01*
X123885750Y-54450000D01*
G75*
G02*
X123667000Y-54231250I0J218750D01*
G01*
X123667000Y-53718750D01*
G75*
G02*
X123885750Y-53500000I218750J0D01*
G01*
X124323250Y-53500000D01*
G75*
G02*
X124542000Y-53718750I0J-218750D01*
G01*
G37*
G36*
G01*
X127401100Y-57110000D02*
X127056100Y-57110000D01*
G75*
G02*
X126908600Y-56962500I0J147500D01*
G01*
X126908600Y-56667500D01*
G75*
G02*
X127056100Y-56520000I147500J0D01*
G01*
X127401100Y-56520000D01*
G75*
G02*
X127548600Y-56667500I0J-147500D01*
G01*
X127548600Y-56962500D01*
G75*
G02*
X127401100Y-57110000I-147500J0D01*
G01*
G37*
G36*
G01*
X127401100Y-58080000D02*
X127056100Y-58080000D01*
G75*
G02*
X126908600Y-57932500I0J147500D01*
G01*
X126908600Y-57637500D01*
G75*
G02*
X127056100Y-57490000I147500J0D01*
G01*
X127401100Y-57490000D01*
G75*
G02*
X127548600Y-57637500I0J-147500D01*
G01*
X127548600Y-57932500D01*
G75*
G02*
X127401100Y-58080000I-147500J0D01*
G01*
G37*
G36*
G01*
X123591100Y-57112400D02*
X123246100Y-57112400D01*
G75*
G02*
X123098600Y-56964900I0J147500D01*
G01*
X123098600Y-56669900D01*
G75*
G02*
X123246100Y-56522400I147500J0D01*
G01*
X123591100Y-56522400D01*
G75*
G02*
X123738600Y-56669900I0J-147500D01*
G01*
X123738600Y-56964900D01*
G75*
G02*
X123591100Y-57112400I-147500J0D01*
G01*
G37*
G36*
G01*
X123591100Y-58082400D02*
X123246100Y-58082400D01*
G75*
G02*
X123098600Y-57934900I0J147500D01*
G01*
X123098600Y-57639900D01*
G75*
G02*
X123246100Y-57492400I147500J0D01*
G01*
X123591100Y-57492400D01*
G75*
G02*
X123738600Y-57639900I0J-147500D01*
G01*
X123738600Y-57934900D01*
G75*
G02*
X123591100Y-58082400I-147500J0D01*
G01*
G37*
G36*
G01*
X119450900Y-57290200D02*
X119105900Y-57290200D01*
G75*
G02*
X118958400Y-57142700I0J147500D01*
G01*
X118958400Y-56847700D01*
G75*
G02*
X119105900Y-56700200I147500J0D01*
G01*
X119450900Y-56700200D01*
G75*
G02*
X119598400Y-56847700I0J-147500D01*
G01*
X119598400Y-57142700D01*
G75*
G02*
X119450900Y-57290200I-147500J0D01*
G01*
G37*
G36*
G01*
X119450900Y-58260200D02*
X119105900Y-58260200D01*
G75*
G02*
X118958400Y-58112700I0J147500D01*
G01*
X118958400Y-57817700D01*
G75*
G02*
X119105900Y-57670200I147500J0D01*
G01*
X119450900Y-57670200D01*
G75*
G02*
X119598400Y-57817700I0J-147500D01*
G01*
X119598400Y-58112700D01*
G75*
G02*
X119450900Y-58260200I-147500J0D01*
G01*
G37*
G36*
G01*
X115336100Y-57391800D02*
X114991100Y-57391800D01*
G75*
G02*
X114843600Y-57244300I0J147500D01*
G01*
X114843600Y-56949300D01*
G75*
G02*
X114991100Y-56801800I147500J0D01*
G01*
X115336100Y-56801800D01*
G75*
G02*
X115483600Y-56949300I0J-147500D01*
G01*
X115483600Y-57244300D01*
G75*
G02*
X115336100Y-57391800I-147500J0D01*
G01*
G37*
G36*
G01*
X115336100Y-58361800D02*
X114991100Y-58361800D01*
G75*
G02*
X114843600Y-58214300I0J147500D01*
G01*
X114843600Y-57919300D01*
G75*
G02*
X114991100Y-57771800I147500J0D01*
G01*
X115336100Y-57771800D01*
G75*
G02*
X115483600Y-57919300I0J-147500D01*
G01*
X115483600Y-58214300D01*
G75*
G02*
X115336100Y-58361800I-147500J0D01*
G01*
G37*
G36*
G01*
X118776000Y-53718750D02*
X118776000Y-54231250D01*
G75*
G02*
X118557250Y-54450000I-218750J0D01*
G01*
X118119750Y-54450000D01*
G75*
G02*
X117901000Y-54231250I0J218750D01*
G01*
X117901000Y-53718750D01*
G75*
G02*
X118119750Y-53500000I218750J0D01*
G01*
X118557250Y-53500000D01*
G75*
G02*
X118776000Y-53718750I0J-218750D01*
G01*
G37*
G36*
G01*
X120351000Y-53718750D02*
X120351000Y-54231250D01*
G75*
G02*
X120132250Y-54450000I-218750J0D01*
G01*
X119694750Y-54450000D01*
G75*
G02*
X119476000Y-54231250I0J218750D01*
G01*
X119476000Y-53718750D01*
G75*
G02*
X119694750Y-53500000I218750J0D01*
G01*
X120132250Y-53500000D01*
G75*
G02*
X120351000Y-53718750I0J-218750D01*
G01*
G37*
G36*
G01*
X114585000Y-53718750D02*
X114585000Y-54231250D01*
G75*
G02*
X114366250Y-54450000I-218750J0D01*
G01*
X113928750Y-54450000D01*
G75*
G02*
X113710000Y-54231250I0J218750D01*
G01*
X113710000Y-53718750D01*
G75*
G02*
X113928750Y-53500000I218750J0D01*
G01*
X114366250Y-53500000D01*
G75*
G02*
X114585000Y-53718750I0J-218750D01*
G01*
G37*
G36*
G01*
X116160000Y-53718750D02*
X116160000Y-54231250D01*
G75*
G02*
X115941250Y-54450000I-218750J0D01*
G01*
X115503750Y-54450000D01*
G75*
G02*
X115285000Y-54231250I0J218750D01*
G01*
X115285000Y-53718750D01*
G75*
G02*
X115503750Y-53500000I218750J0D01*
G01*
X115941250Y-53500000D01*
G75*
G02*
X116160000Y-53718750I0J-218750D01*
G01*
G37*
G36*
G01*
X103696000Y-61041500D02*
X103696000Y-61386500D01*
G75*
G02*
X103548500Y-61534000I-147500J0D01*
G01*
X103253500Y-61534000D01*
G75*
G02*
X103106000Y-61386500I0J147500D01*
G01*
X103106000Y-61041500D01*
G75*
G02*
X103253500Y-60894000I147500J0D01*
G01*
X103548500Y-60894000D01*
G75*
G02*
X103696000Y-61041500I0J-147500D01*
G01*
G37*
G36*
G01*
X104666000Y-61041500D02*
X104666000Y-61386500D01*
G75*
G02*
X104518500Y-61534000I-147500J0D01*
G01*
X104223500Y-61534000D01*
G75*
G02*
X104076000Y-61386500I0J147500D01*
G01*
X104076000Y-61041500D01*
G75*
G02*
X104223500Y-60894000I147500J0D01*
G01*
X104518500Y-60894000D01*
G75*
G02*
X104666000Y-61041500I0J-147500D01*
G01*
G37*
G36*
G01*
X71709500Y-96710000D02*
X72054500Y-96710000D01*
G75*
G02*
X72202000Y-96857500I0J-147500D01*
G01*
X72202000Y-97152500D01*
G75*
G02*
X72054500Y-97300000I-147500J0D01*
G01*
X71709500Y-97300000D01*
G75*
G02*
X71562000Y-97152500I0J147500D01*
G01*
X71562000Y-96857500D01*
G75*
G02*
X71709500Y-96710000I147500J0D01*
G01*
G37*
G36*
G01*
X71709500Y-95740000D02*
X72054500Y-95740000D01*
G75*
G02*
X72202000Y-95887500I0J-147500D01*
G01*
X72202000Y-96182500D01*
G75*
G02*
X72054500Y-96330000I-147500J0D01*
G01*
X71709500Y-96330000D01*
G75*
G02*
X71562000Y-96182500I0J147500D01*
G01*
X71562000Y-95887500D01*
G75*
G02*
X71709500Y-95740000I147500J0D01*
G01*
G37*
G36*
G01*
X81706500Y-97092000D02*
X81361500Y-97092000D01*
G75*
G02*
X81214000Y-96944500I0J147500D01*
G01*
X81214000Y-96649500D01*
G75*
G02*
X81361500Y-96502000I147500J0D01*
G01*
X81706500Y-96502000D01*
G75*
G02*
X81854000Y-96649500I0J-147500D01*
G01*
X81854000Y-96944500D01*
G75*
G02*
X81706500Y-97092000I-147500J0D01*
G01*
G37*
G36*
G01*
X81706500Y-98062000D02*
X81361500Y-98062000D01*
G75*
G02*
X81214000Y-97914500I0J147500D01*
G01*
X81214000Y-97619500D01*
G75*
G02*
X81361500Y-97472000I147500J0D01*
G01*
X81706500Y-97472000D01*
G75*
G02*
X81854000Y-97619500I0J-147500D01*
G01*
X81854000Y-97914500D01*
G75*
G02*
X81706500Y-98062000I-147500J0D01*
G01*
G37*
G36*
G01*
X101935500Y-90614000D02*
X102280500Y-90614000D01*
G75*
G02*
X102428000Y-90761500I0J-147500D01*
G01*
X102428000Y-91056500D01*
G75*
G02*
X102280500Y-91204000I-147500J0D01*
G01*
X101935500Y-91204000D01*
G75*
G02*
X101788000Y-91056500I0J147500D01*
G01*
X101788000Y-90761500D01*
G75*
G02*
X101935500Y-90614000I147500J0D01*
G01*
G37*
G36*
G01*
X101935500Y-89644000D02*
X102280500Y-89644000D01*
G75*
G02*
X102428000Y-89791500I0J-147500D01*
G01*
X102428000Y-90086500D01*
G75*
G02*
X102280500Y-90234000I-147500J0D01*
G01*
X101935500Y-90234000D01*
G75*
G02*
X101788000Y-90086500I0J147500D01*
G01*
X101788000Y-89791500D01*
G75*
G02*
X101935500Y-89644000I147500J0D01*
G01*
G37*
D16*
X95028000Y-96266000D03*
X99028000Y-96266000D03*
G36*
G01*
X103028000Y-96517750D02*
X103028000Y-97030250D01*
G75*
G02*
X102809250Y-97249000I-218750J0D01*
G01*
X102371750Y-97249000D01*
G75*
G02*
X102153000Y-97030250I0J218750D01*
G01*
X102153000Y-96517750D01*
G75*
G02*
X102371750Y-96299000I218750J0D01*
G01*
X102809250Y-96299000D01*
G75*
G02*
X103028000Y-96517750I0J-218750D01*
G01*
G37*
G36*
G01*
X104603000Y-96517750D02*
X104603000Y-97030250D01*
G75*
G02*
X104384250Y-97249000I-218750J0D01*
G01*
X103946750Y-97249000D01*
G75*
G02*
X103728000Y-97030250I0J218750D01*
G01*
X103728000Y-96517750D01*
G75*
G02*
X103946750Y-96299000I218750J0D01*
G01*
X104384250Y-96299000D01*
G75*
G02*
X104603000Y-96517750I0J-218750D01*
G01*
G37*
D15*
X102786000Y-93726000D03*
X102786000Y-94676000D03*
X102786000Y-92776000D03*
X104986000Y-92776000D03*
X104986000Y-93726000D03*
X104986000Y-94676000D03*
G36*
G01*
X107444250Y-91344000D02*
X106931750Y-91344000D01*
G75*
G02*
X106713000Y-91125250I0J218750D01*
G01*
X106713000Y-90687750D01*
G75*
G02*
X106931750Y-90469000I218750J0D01*
G01*
X107444250Y-90469000D01*
G75*
G02*
X107663000Y-90687750I0J-218750D01*
G01*
X107663000Y-91125250D01*
G75*
G02*
X107444250Y-91344000I-218750J0D01*
G01*
G37*
G36*
G01*
X107444250Y-92919000D02*
X106931750Y-92919000D01*
G75*
G02*
X106713000Y-92700250I0J218750D01*
G01*
X106713000Y-92262750D01*
G75*
G02*
X106931750Y-92044000I218750J0D01*
G01*
X107444250Y-92044000D01*
G75*
G02*
X107663000Y-92262750I0J-218750D01*
G01*
X107663000Y-92700250D01*
G75*
G02*
X107444250Y-92919000I-218750J0D01*
G01*
G37*
G36*
G01*
X109284000Y-93553500D02*
X109284000Y-93898500D01*
G75*
G02*
X109136500Y-94046000I-147500J0D01*
G01*
X108841500Y-94046000D01*
G75*
G02*
X108694000Y-93898500I0J147500D01*
G01*
X108694000Y-93553500D01*
G75*
G02*
X108841500Y-93406000I147500J0D01*
G01*
X109136500Y-93406000D01*
G75*
G02*
X109284000Y-93553500I0J-147500D01*
G01*
G37*
G36*
G01*
X110254000Y-93553500D02*
X110254000Y-93898500D01*
G75*
G02*
X110106500Y-94046000I-147500J0D01*
G01*
X109811500Y-94046000D01*
G75*
G02*
X109664000Y-93898500I0J147500D01*
G01*
X109664000Y-93553500D01*
G75*
G02*
X109811500Y-93406000I147500J0D01*
G01*
X110106500Y-93406000D01*
G75*
G02*
X110254000Y-93553500I0J-147500D01*
G01*
G37*
G36*
G01*
X109664000Y-92374500D02*
X109664000Y-92029500D01*
G75*
G02*
X109811500Y-91882000I147500J0D01*
G01*
X110106500Y-91882000D01*
G75*
G02*
X110254000Y-92029500I0J-147500D01*
G01*
X110254000Y-92374500D01*
G75*
G02*
X110106500Y-92522000I-147500J0D01*
G01*
X109811500Y-92522000D01*
G75*
G02*
X109664000Y-92374500I0J147500D01*
G01*
G37*
G36*
G01*
X108694000Y-92374500D02*
X108694000Y-92029500D01*
G75*
G02*
X108841500Y-91882000I147500J0D01*
G01*
X109136500Y-91882000D01*
G75*
G02*
X109284000Y-92029500I0J-147500D01*
G01*
X109284000Y-92374500D01*
G75*
G02*
X109136500Y-92522000I-147500J0D01*
G01*
X108841500Y-92522000D01*
G75*
G02*
X108694000Y-92374500I0J147500D01*
G01*
G37*
G36*
G01*
X100786250Y-92006000D02*
X99873750Y-92006000D01*
G75*
G02*
X99630000Y-91762250I0J243750D01*
G01*
X99630000Y-91274750D01*
G75*
G02*
X99873750Y-91031000I243750J0D01*
G01*
X100786250Y-91031000D01*
G75*
G02*
X101030000Y-91274750I0J-243750D01*
G01*
X101030000Y-91762250D01*
G75*
G02*
X100786250Y-92006000I-243750J0D01*
G01*
G37*
G36*
G01*
X100786250Y-93881000D02*
X99873750Y-93881000D01*
G75*
G02*
X99630000Y-93637250I0J243750D01*
G01*
X99630000Y-93149750D01*
G75*
G02*
X99873750Y-92906000I243750J0D01*
G01*
X100786250Y-92906000D01*
G75*
G02*
X101030000Y-93149750I0J-243750D01*
G01*
X101030000Y-93637250D01*
G75*
G02*
X100786250Y-93881000I-243750J0D01*
G01*
G37*
G36*
G01*
X133728750Y-126969000D02*
X134241250Y-126969000D01*
G75*
G02*
X134460000Y-127187750I0J-218750D01*
G01*
X134460000Y-127625250D01*
G75*
G02*
X134241250Y-127844000I-218750J0D01*
G01*
X133728750Y-127844000D01*
G75*
G02*
X133510000Y-127625250I0J218750D01*
G01*
X133510000Y-127187750D01*
G75*
G02*
X133728750Y-126969000I218750J0D01*
G01*
G37*
G36*
G01*
X133728750Y-125394000D02*
X134241250Y-125394000D01*
G75*
G02*
X134460000Y-125612750I0J-218750D01*
G01*
X134460000Y-126050250D01*
G75*
G02*
X134241250Y-126269000I-218750J0D01*
G01*
X133728750Y-126269000D01*
G75*
G02*
X133510000Y-126050250I0J218750D01*
G01*
X133510000Y-125612750D01*
G75*
G02*
X133728750Y-125394000I218750J0D01*
G01*
G37*
G36*
G01*
X132760500Y-128334000D02*
X132415500Y-128334000D01*
G75*
G02*
X132268000Y-128186500I0J147500D01*
G01*
X132268000Y-127891500D01*
G75*
G02*
X132415500Y-127744000I147500J0D01*
G01*
X132760500Y-127744000D01*
G75*
G02*
X132908000Y-127891500I0J-147500D01*
G01*
X132908000Y-128186500D01*
G75*
G02*
X132760500Y-128334000I-147500J0D01*
G01*
G37*
G36*
G01*
X132760500Y-129304000D02*
X132415500Y-129304000D01*
G75*
G02*
X132268000Y-129156500I0J147500D01*
G01*
X132268000Y-128861500D01*
G75*
G02*
X132415500Y-128714000I147500J0D01*
G01*
X132760500Y-128714000D01*
G75*
G02*
X132908000Y-128861500I0J-147500D01*
G01*
X132908000Y-129156500D01*
G75*
G02*
X132760500Y-129304000I-147500J0D01*
G01*
G37*
G36*
G01*
X127121500Y-135892250D02*
X127121500Y-135379750D01*
G75*
G02*
X127340250Y-135161000I218750J0D01*
G01*
X127777750Y-135161000D01*
G75*
G02*
X127996500Y-135379750I0J-218750D01*
G01*
X127996500Y-135892250D01*
G75*
G02*
X127777750Y-136111000I-218750J0D01*
G01*
X127340250Y-136111000D01*
G75*
G02*
X127121500Y-135892250I0J218750D01*
G01*
G37*
G36*
G01*
X125546500Y-135892250D02*
X125546500Y-135379750D01*
G75*
G02*
X125765250Y-135161000I218750J0D01*
G01*
X126202750Y-135161000D01*
G75*
G02*
X126421500Y-135379750I0J-218750D01*
G01*
X126421500Y-135892250D01*
G75*
G02*
X126202750Y-136111000I-218750J0D01*
G01*
X125765250Y-136111000D01*
G75*
G02*
X125546500Y-135892250I0J218750D01*
G01*
G37*
G36*
G01*
X136157000Y-133467000D02*
X136157000Y-132217000D01*
G75*
G02*
X136407000Y-131967000I250000J0D01*
G01*
X137157000Y-131967000D01*
G75*
G02*
X137407000Y-132217000I0J-250000D01*
G01*
X137407000Y-133467000D01*
G75*
G02*
X137157000Y-133717000I-250000J0D01*
G01*
X136407000Y-133717000D01*
G75*
G02*
X136157000Y-133467000I0J250000D01*
G01*
G37*
G36*
G01*
X133357000Y-133467000D02*
X133357000Y-132217000D01*
G75*
G02*
X133607000Y-131967000I250000J0D01*
G01*
X134357000Y-131967000D01*
G75*
G02*
X134607000Y-132217000I0J-250000D01*
G01*
X134607000Y-133467000D01*
G75*
G02*
X134357000Y-133717000I-250000J0D01*
G01*
X133607000Y-133717000D01*
G75*
G02*
X133357000Y-133467000I0J250000D01*
G01*
G37*
G36*
G01*
X127020500Y-138378250D02*
X127020500Y-137465750D01*
G75*
G02*
X127264250Y-137222000I243750J0D01*
G01*
X127751750Y-137222000D01*
G75*
G02*
X127995500Y-137465750I0J-243750D01*
G01*
X127995500Y-138378250D01*
G75*
G02*
X127751750Y-138622000I-243750J0D01*
G01*
X127264250Y-138622000D01*
G75*
G02*
X127020500Y-138378250I0J243750D01*
G01*
G37*
G36*
G01*
X125145500Y-138378250D02*
X125145500Y-137465750D01*
G75*
G02*
X125389250Y-137222000I243750J0D01*
G01*
X125876750Y-137222000D01*
G75*
G02*
X126120500Y-137465750I0J-243750D01*
G01*
X126120500Y-138378250D01*
G75*
G02*
X125876750Y-138622000I-243750J0D01*
G01*
X125389250Y-138622000D01*
G75*
G02*
X125145500Y-138378250I0J243750D01*
G01*
G37*
G36*
G01*
X131774250Y-131884000D02*
X130861750Y-131884000D01*
G75*
G02*
X130618000Y-131640250I0J243750D01*
G01*
X130618000Y-131152750D01*
G75*
G02*
X130861750Y-130909000I243750J0D01*
G01*
X131774250Y-130909000D01*
G75*
G02*
X132018000Y-131152750I0J-243750D01*
G01*
X132018000Y-131640250D01*
G75*
G02*
X131774250Y-131884000I-243750J0D01*
G01*
G37*
G36*
G01*
X131774250Y-133759000D02*
X130861750Y-133759000D01*
G75*
G02*
X130618000Y-133515250I0J243750D01*
G01*
X130618000Y-133027750D01*
G75*
G02*
X130861750Y-132784000I243750J0D01*
G01*
X131774250Y-132784000D01*
G75*
G02*
X132018000Y-133027750I0J-243750D01*
G01*
X132018000Y-133515250D01*
G75*
G02*
X131774250Y-133759000I-243750J0D01*
G01*
G37*
X127846000Y-131638000D03*
X127846000Y-133538000D03*
X125646000Y-133538000D03*
X125646000Y-132588000D03*
X125646000Y-131638000D03*
D11*
X130980000Y-135636000D03*
X133180000Y-135636000D03*
X133180000Y-137922000D03*
X130980000Y-137922000D03*
D17*
X134791000Y-144527000D03*
X138141000Y-141477000D03*
X134791000Y-141477000D03*
X138141000Y-144527000D03*
D18*
X130166000Y-145282000D03*
X130166000Y-140722000D03*
D19*
X58069000Y-73485000D03*
X61819000Y-73485000D03*
X61819000Y-67485000D03*
X58069000Y-67485000D03*
G36*
G01*
X63182000Y-75356500D02*
X63182000Y-75011500D01*
G75*
G02*
X63329500Y-74864000I147500J0D01*
G01*
X63624500Y-74864000D01*
G75*
G02*
X63772000Y-75011500I0J-147500D01*
G01*
X63772000Y-75356500D01*
G75*
G02*
X63624500Y-75504000I-147500J0D01*
G01*
X63329500Y-75504000D01*
G75*
G02*
X63182000Y-75356500I0J147500D01*
G01*
G37*
G36*
G01*
X62212000Y-75356500D02*
X62212000Y-75011500D01*
G75*
G02*
X62359500Y-74864000I147500J0D01*
G01*
X62654500Y-74864000D01*
G75*
G02*
X62802000Y-75011500I0J-147500D01*
G01*
X62802000Y-75356500D01*
G75*
G02*
X62654500Y-75504000I-147500J0D01*
G01*
X62359500Y-75504000D01*
G75*
G02*
X62212000Y-75356500I0J147500D01*
G01*
G37*
G36*
G01*
X68770000Y-73959500D02*
X68770000Y-73614500D01*
G75*
G02*
X68917500Y-73467000I147500J0D01*
G01*
X69212500Y-73467000D01*
G75*
G02*
X69360000Y-73614500I0J-147500D01*
G01*
X69360000Y-73959500D01*
G75*
G02*
X69212500Y-74107000I-147500J0D01*
G01*
X68917500Y-74107000D01*
G75*
G02*
X68770000Y-73959500I0J147500D01*
G01*
G37*
G36*
G01*
X67800000Y-73959500D02*
X67800000Y-73614500D01*
G75*
G02*
X67947500Y-73467000I147500J0D01*
G01*
X68242500Y-73467000D01*
G75*
G02*
X68390000Y-73614500I0J-147500D01*
G01*
X68390000Y-73959500D01*
G75*
G02*
X68242500Y-74107000I-147500J0D01*
G01*
X67947500Y-74107000D01*
G75*
G02*
X67800000Y-73959500I0J147500D01*
G01*
G37*
G36*
G01*
X68390000Y-72344500D02*
X68390000Y-72689500D01*
G75*
G02*
X68242500Y-72837000I-147500J0D01*
G01*
X67947500Y-72837000D01*
G75*
G02*
X67800000Y-72689500I0J147500D01*
G01*
X67800000Y-72344500D01*
G75*
G02*
X67947500Y-72197000I147500J0D01*
G01*
X68242500Y-72197000D01*
G75*
G02*
X68390000Y-72344500I0J-147500D01*
G01*
G37*
G36*
G01*
X69360000Y-72344500D02*
X69360000Y-72689500D01*
G75*
G02*
X69212500Y-72837000I-147500J0D01*
G01*
X68917500Y-72837000D01*
G75*
G02*
X68770000Y-72689500I0J147500D01*
G01*
X68770000Y-72344500D01*
G75*
G02*
X68917500Y-72197000I147500J0D01*
G01*
X69212500Y-72197000D01*
G75*
G02*
X69360000Y-72344500I0J-147500D01*
G01*
G37*
D20*
X66294000Y-68977000D03*
X67244000Y-70977000D03*
X65344000Y-70977000D03*
X71120000Y-68977000D03*
X72070000Y-70977000D03*
X70170000Y-70977000D03*
D21*
X57309500Y-79264000D03*
D22*
X60009500Y-80264000D03*
X60009500Y-80914000D03*
X60009500Y-81564000D03*
X60009500Y-78964000D03*
X60009500Y-79614000D03*
D21*
X57309500Y-81264000D03*
G36*
G01*
X64198000Y-73959500D02*
X64198000Y-73614500D01*
G75*
G02*
X64345500Y-73467000I147500J0D01*
G01*
X64640500Y-73467000D01*
G75*
G02*
X64788000Y-73614500I0J-147500D01*
G01*
X64788000Y-73959500D01*
G75*
G02*
X64640500Y-74107000I-147500J0D01*
G01*
X64345500Y-74107000D01*
G75*
G02*
X64198000Y-73959500I0J147500D01*
G01*
G37*
G36*
G01*
X63228000Y-73959500D02*
X63228000Y-73614500D01*
G75*
G02*
X63375500Y-73467000I147500J0D01*
G01*
X63670500Y-73467000D01*
G75*
G02*
X63818000Y-73614500I0J-147500D01*
G01*
X63818000Y-73959500D01*
G75*
G02*
X63670500Y-74107000I-147500J0D01*
G01*
X63375500Y-74107000D01*
G75*
G02*
X63228000Y-73959500I0J147500D01*
G01*
G37*
G36*
G01*
X63454500Y-82994000D02*
X63799500Y-82994000D01*
G75*
G02*
X63947000Y-83141500I0J-147500D01*
G01*
X63947000Y-83436500D01*
G75*
G02*
X63799500Y-83584000I-147500J0D01*
G01*
X63454500Y-83584000D01*
G75*
G02*
X63307000Y-83436500I0J147500D01*
G01*
X63307000Y-83141500D01*
G75*
G02*
X63454500Y-82994000I147500J0D01*
G01*
G37*
G36*
G01*
X63454500Y-82024000D02*
X63799500Y-82024000D01*
G75*
G02*
X63947000Y-82171500I0J-147500D01*
G01*
X63947000Y-82466500D01*
G75*
G02*
X63799500Y-82614000I-147500J0D01*
G01*
X63454500Y-82614000D01*
G75*
G02*
X63307000Y-82466500I0J147500D01*
G01*
X63307000Y-82171500D01*
G75*
G02*
X63454500Y-82024000I147500J0D01*
G01*
G37*
G36*
G01*
X62184500Y-84518000D02*
X62529500Y-84518000D01*
G75*
G02*
X62677000Y-84665500I0J-147500D01*
G01*
X62677000Y-84960500D01*
G75*
G02*
X62529500Y-85108000I-147500J0D01*
G01*
X62184500Y-85108000D01*
G75*
G02*
X62037000Y-84960500I0J147500D01*
G01*
X62037000Y-84665500D01*
G75*
G02*
X62184500Y-84518000I147500J0D01*
G01*
G37*
G36*
G01*
X62184500Y-83548000D02*
X62529500Y-83548000D01*
G75*
G02*
X62677000Y-83695500I0J-147500D01*
G01*
X62677000Y-83990500D01*
G75*
G02*
X62529500Y-84138000I-147500J0D01*
G01*
X62184500Y-84138000D01*
G75*
G02*
X62037000Y-83990500I0J147500D01*
G01*
X62037000Y-83695500D01*
G75*
G02*
X62184500Y-83548000I147500J0D01*
G01*
G37*
G36*
G01*
X80527800Y-134132100D02*
X80527800Y-133787100D01*
G75*
G02*
X80675300Y-133639600I147500J0D01*
G01*
X80970300Y-133639600D01*
G75*
G02*
X81117800Y-133787100I0J-147500D01*
G01*
X81117800Y-134132100D01*
G75*
G02*
X80970300Y-134279600I-147500J0D01*
G01*
X80675300Y-134279600D01*
G75*
G02*
X80527800Y-134132100I0J147500D01*
G01*
G37*
G36*
G01*
X79557800Y-134132100D02*
X79557800Y-133787100D01*
G75*
G02*
X79705300Y-133639600I147500J0D01*
G01*
X80000300Y-133639600D01*
G75*
G02*
X80147800Y-133787100I0J-147500D01*
G01*
X80147800Y-134132100D01*
G75*
G02*
X80000300Y-134279600I-147500J0D01*
G01*
X79705300Y-134279600D01*
G75*
G02*
X79557800Y-134132100I0J147500D01*
G01*
G37*
G36*
G01*
X84312400Y-134132100D02*
X84312400Y-133787100D01*
G75*
G02*
X84459900Y-133639600I147500J0D01*
G01*
X84754900Y-133639600D01*
G75*
G02*
X84902400Y-133787100I0J-147500D01*
G01*
X84902400Y-134132100D01*
G75*
G02*
X84754900Y-134279600I-147500J0D01*
G01*
X84459900Y-134279600D01*
G75*
G02*
X84312400Y-134132100I0J147500D01*
G01*
G37*
G36*
G01*
X83342400Y-134132100D02*
X83342400Y-133787100D01*
G75*
G02*
X83489900Y-133639600I147500J0D01*
G01*
X83784900Y-133639600D01*
G75*
G02*
X83932400Y-133787100I0J-147500D01*
G01*
X83932400Y-134132100D01*
G75*
G02*
X83784900Y-134279600I-147500J0D01*
G01*
X83489900Y-134279600D01*
G75*
G02*
X83342400Y-134132100I0J147500D01*
G01*
G37*
D17*
X129076000Y-119635000D03*
X132426000Y-116585000D03*
X129076000Y-116585000D03*
X132426000Y-119635000D03*
D18*
X124451000Y-120390000D03*
X124451000Y-115830000D03*
D17*
X127552000Y-104522000D03*
X130902000Y-101472000D03*
X127552000Y-101472000D03*
X130902000Y-104522000D03*
D18*
X122927000Y-105277000D03*
X122927000Y-100717000D03*
D23*
X136271000Y-119252000D03*
X136271000Y-115952000D03*
X135890000Y-104393000D03*
X135890000Y-101093000D03*
G36*
G01*
X131254000Y-67736500D02*
X131254000Y-67391500D01*
G75*
G02*
X131401500Y-67244000I147500J0D01*
G01*
X131696500Y-67244000D01*
G75*
G02*
X131844000Y-67391500I0J-147500D01*
G01*
X131844000Y-67736500D01*
G75*
G02*
X131696500Y-67884000I-147500J0D01*
G01*
X131401500Y-67884000D01*
G75*
G02*
X131254000Y-67736500I0J147500D01*
G01*
G37*
G36*
G01*
X130284000Y-67736500D02*
X130284000Y-67391500D01*
G75*
G02*
X130431500Y-67244000I147500J0D01*
G01*
X130726500Y-67244000D01*
G75*
G02*
X130874000Y-67391500I0J-147500D01*
G01*
X130874000Y-67736500D01*
G75*
G02*
X130726500Y-67884000I-147500J0D01*
G01*
X130431500Y-67884000D01*
G75*
G02*
X130284000Y-67736500I0J147500D01*
G01*
G37*
M02*
