M48
; DRILL file {KiCad 5.1.6-c6e7f7d~87~ubuntu18.04.1} date Mon Aug  3 14:55:23 2020
; FORMAT={-:-/ absolute / inch / decimal}
; #@! TF.CreationDate,2020-08-03T14:55:23+01:00
; #@! TF.GenerationSoftware,Kicad,Pcbnew,5.1.6-c6e7f7d~87~ubuntu18.04.1
; #@! TF.FileFunction,Plated,1,4,PTH
FMAT,2
INCH
T1C0.0138
T2C0.0236
T3C0.0250
T4C0.0315
T5C0.0335
T6C0.0433
T7C0.0500
T8C0.0512
T9C0.0551
T10C0.1000
%
G90
G05
T1
X2.495Y-3.135
X2.51Y-3.185
X2.53Y-3.135
X2.53Y-3.135
X2.625Y-2.91
X2.63Y-3.92
X2.63Y-3.99
X2.63Y-4.12
X2.63Y-4.19
X2.645Y-2.855
X2.67Y-3.92
X2.67Y-3.99
X2.67Y-4.12
X2.67Y-4.19
X2.675Y-3.165
X2.695Y-2.995
X2.6963Y-2.96
X2.7Y-3.91
X2.845Y-2.96
X2.85Y-3.24
X2.9Y-3.26
X2.91Y-3.14
X2.93Y-3.29
X2.94Y-3.18
X2.98Y-3.18
X2.98Y-3.23
X3.07Y-3.19
X3.1Y-3.16
X3.23Y-3.4
X3.28Y-3.43
X3.28Y-3.88
X3.31Y-3.91
X3.33Y-3.47
X3.35Y-3.27
X3.36Y-3.75
X3.39Y-3.27
X3.39Y-3.77
X3.41Y-3.24
X3.42Y-3.79
X3.45Y-3.27
X3.45Y-4.04
X3.4718Y-3.2394
X3.48Y-4.08
X3.51Y-3.22
X3.51Y-4.05
X3.54Y-3.43
X3.55Y-3.28
X3.58Y-4.34
X3.59Y-3.415
X3.8Y-3.29
X3.94Y-4.44
X3.94Y-4.48
X4.01Y-2.46
X4.01Y-2.72
X4.02Y-3.02
X4.02Y-3.07
X4.05Y-2.69
X4.16Y-2.41
X4.19Y-4.89
X4.22Y-4.86
X4.24Y-4.83
X4.24Y-4.94
X4.28Y-4.9
X4.31Y-4.86
X4.41Y-3.28
X4.45Y-3.51
X4.48Y-3.32
X4.51Y-3.97
X4.51Y-4.58
X4.52Y-3.22
X4.55Y-3.32
X4.55Y-4.95
X4.56Y-4.9
X4.59Y-3.43
X4.64Y-3.4
X4.64Y-4.9
X4.68Y-3.36
X4.68Y-4.95
X4.76Y-3.97
X4.77Y-5.39
X4.82Y-4.58
X4.88Y-4.99
X4.9Y-4.96
X5.05Y-2.61
X5.08Y-5.03
X5.14Y-2.15
X5.19Y-5.11
T3
X2.335Y-2.94
X2.435Y-3.24
X2.455Y-3.105
X2.455Y-3.385
X2.54Y-2.955
X2.5588Y-3.2764
X2.58Y-2.905
X2.615Y-3.31
X2.7Y-3.325
X2.93Y-3.35
X3.075Y-5.31
X3.13Y-3.3
X3.1625Y-5.5125
X3.265Y-5.365
X3.32Y-3.39
X3.45Y-5.515
X3.95Y-3.55
X4.12Y-4.55
X4.18Y-3.54
X4.21Y-3.71
X4.22Y-4.04
X4.26Y-2.95
X4.28Y-3.21
X4.34Y-2.605
X4.38Y-3.63
X4.42Y-5.53
X4.45Y-4.71
X4.46Y-4.1
X4.65Y-5.5
X4.75Y-5.54
X4.81Y-2.49
X4.95Y-5.67
X4.96Y-5.55
X5.02Y-5.49
X5.02Y-5.73
X5.04Y-2.48
X5.11Y-2.61
X5.17Y-2.7
X5.25Y-2.34
X5.35Y-5.36
X5.45Y-5.23
T4
X3.0141Y-3.5352
X3.0141Y-3.6352
X3.0141Y-3.7352
X3.0141Y-3.8352
T5
X2.3626Y-3.0616
X2.3626Y-3.2584
T6
X3.58Y-3.55
X3.68Y-3.55
X3.78Y-3.55
X2.91Y-5.69
X3.01Y-5.69
X3.11Y-5.69
X3.21Y-5.69
X3.425Y-5.69
X3.525Y-5.69
X3.625Y-5.69
X3.725Y-5.69
T7
X2.94Y-2.23
X2.94Y-2.34
X3.3431Y-3.0399
X4.13Y-2.28
X4.175Y-4.305
X4.3872Y-2.12
X4.795Y-4.76
T8
X5.825Y-4.97
X5.825Y-5.17
X5.83Y-3.23
X5.83Y-3.43
X5.825Y-3.8375
X5.825Y-4.0375
X5.825Y-4.42
X5.825Y-4.62
X5.83Y-2.725
X5.83Y-2.925
X2.43Y-3.55
X2.43Y-3.75
X2.43Y-3.95
X2.43Y-4.15
X2.43Y-4.35
X2.43Y-4.55
X2.43Y-4.75
X2.43Y-4.95
X2.43Y-5.15
T9
X4.76Y-5.13
X5.3967Y-3.02
X4.42Y-5.13
X4.84Y-3.69
X2.97Y-5.12
X5.19Y-3.02
X4.17Y-3.09
X4.01Y-4.86
X3.88Y-4.63
X5.15Y-3.43
X4.05Y-5.69
X4.84Y-3.45
X3.61Y-5.14
T10
X3.55Y-2.59
X3.6Y-3.79
X3.69Y-3.97
X5.18Y-4.34
X6.005Y-4.21
T2
G00X2.2425Y-3.0222
M15
G01X2.2701Y-3.0222
M16
G05
G00X2.2701Y-3.2978
M15
G01X2.2425Y-3.2978
M16
G05
T0
M30
