G04 #@! TF.GenerationSoftware,KiCad,Pcbnew,5.1.6-c6e7f7d~87~ubuntu18.04.1*
G04 #@! TF.CreationDate,2020-08-03T14:56:27+01:00*
G04 #@! TF.ProjectId,garden,67617264-656e-42e6-9b69-6361645f7063,rev?*
G04 #@! TF.SameCoordinates,Original*
G04 #@! TF.FileFunction,Soldermask,Bot*
G04 #@! TF.FilePolarity,Negative*
%FSLAX46Y46*%
G04 Gerber Fmt 4.6, Leading zero omitted, Abs format (unit mm)*
G04 Created by KiCad (PCBNEW 5.1.6-c6e7f7d~87~ubuntu18.04.1) date 2020-08-03 14:56:27*
%MOMM*%
%LPD*%
G01*
G04 APERTURE LIST*
%ADD10C,3.200000*%
%ADD11C,3.000000*%
%ADD12R,3.000000X3.000000*%
%ADD13O,2.305000X2.400000*%
%ADD14R,2.305000X2.400000*%
%ADD15C,1.900000*%
%ADD16R,1.900000X1.900000*%
%ADD17O,2.300000X1.600000*%
%ADD18C,1.850000*%
%ADD19C,2.600000*%
%ADD20R,2.600000X2.600000*%
%ADD21C,6.800000*%
%ADD22C,0.254000*%
G04 APERTURE END LIST*
D10*
X137076000Y-76708000D03*
X131826000Y-76708000D03*
X105918000Y-78486000D03*
X102870000Y-144526000D03*
X130810000Y-87122000D03*
X122936000Y-87630000D03*
X91694000Y-130556000D03*
X75438000Y-130048000D03*
X122936000Y-93726000D03*
X112268000Y-130302000D03*
X120904000Y-130302000D03*
X101854000Y-123444000D03*
X98552000Y-117602000D03*
D11*
X61722000Y-130810000D03*
X61722000Y-125730000D03*
X61722000Y-120650000D03*
X61722000Y-115570000D03*
X61722000Y-110490000D03*
X61722000Y-105410000D03*
X61722000Y-100330000D03*
X61722000Y-95250000D03*
D12*
X61722000Y-90170000D03*
D13*
X96012000Y-90170000D03*
X93472000Y-90170000D03*
D14*
X90932000Y-90170000D03*
D15*
X76559000Y-97415000D03*
X76559000Y-94875000D03*
X76559000Y-92335000D03*
D16*
X76559000Y-89795000D03*
D17*
X57309500Y-83764000D03*
X57309500Y-76764000D03*
D18*
X60009500Y-82764000D03*
X60009500Y-77764000D03*
D11*
X148082000Y-87122000D03*
D12*
X148082000Y-82042000D03*
D19*
X94615000Y-144526000D03*
X92075000Y-144526000D03*
X89535000Y-144526000D03*
D20*
X86995000Y-144526000D03*
D19*
X81534000Y-144526000D03*
X78994000Y-144526000D03*
X76454000Y-144526000D03*
D20*
X73914000Y-144526000D03*
D11*
X147955000Y-131318000D03*
D12*
X147955000Y-126238000D03*
D11*
X147955000Y-117348000D03*
D12*
X147955000Y-112268000D03*
D11*
X147955000Y-102552500D03*
D12*
X147955000Y-97472500D03*
D11*
X148082000Y-74295000D03*
D12*
X148082000Y-69215000D03*
D21*
X63500000Y-141605000D03*
X147955000Y-141605000D03*
X147828000Y-57150000D03*
X63500000Y-57150000D03*
D22*
G36*
X93599000Y-68199000D02*
G01*
X86995000Y-68199000D01*
X86995000Y-62611000D01*
X93599000Y-62611000D01*
X93599000Y-68199000D01*
G37*
X93599000Y-68199000D02*
X86995000Y-68199000D01*
X86995000Y-62611000D01*
X93599000Y-62611000D01*
X93599000Y-68199000D01*
M02*
