G04 #@! TF.GenerationSoftware,KiCad,Pcbnew,5.1.6-c6e7f7d~87~ubuntu18.04.1*
G04 #@! TF.CreationDate,2020-08-03T14:56:27+01:00*
G04 #@! TF.ProjectId,garden,67617264-656e-42e6-9b69-6361645f7063,rev?*
G04 #@! TF.SameCoordinates,Original*
G04 #@! TF.FileFunction,Soldermask,Top*
G04 #@! TF.FilePolarity,Negative*
%FSLAX46Y46*%
G04 Gerber Fmt 4.6, Leading zero omitted, Abs format (unit mm)*
G04 Created by KiCad (PCBNEW 5.1.6-c6e7f7d~87~ubuntu18.04.1) date 2020-08-03 14:56:27*
%MOMM*%
%LPD*%
G01*
G04 APERTURE LIST*
%ADD10R,3.900000X2.600000*%
%ADD11R,0.900000X0.900000*%
%ADD12R,3.750000X3.750000*%
%ADD13C,3.200000*%
%ADD14R,2.400000X1.300000*%
%ADD15R,1.300000X2.400000*%
%ADD16R,5.400000X5.400000*%
%ADD17C,0.100000*%
%ADD18C,3.000000*%
%ADD19R,3.000000X3.000000*%
%ADD20R,1.460000X1.050000*%
%ADD21O,2.305000X2.400000*%
%ADD22R,2.305000X2.400000*%
%ADD23C,1.900000*%
%ADD24R,1.900000X1.900000*%
%ADD25R,2.900000X2.200000*%
%ADD26R,6.800000X6.200000*%
%ADD27R,2.600000X1.600000*%
%ADD28R,1.150000X1.400000*%
%ADD29R,1.200000X1.300000*%
%ADD30R,2.300000X1.600000*%
%ADD31O,2.300000X1.600000*%
%ADD32R,2.300000X1.900000*%
%ADD33C,1.850000*%
%ADD34R,1.750000X0.800000*%
%ADD35R,1.600000X1.300000*%
%ADD36C,2.600000*%
%ADD37R,2.600000X2.600000*%
%ADD38C,6.800000*%
G04 APERTURE END LIST*
D10*
X101600000Y-105820000D03*
X101600000Y-99920000D03*
D11*
X64940000Y-85598000D03*
X67140000Y-85598000D03*
G36*
G01*
X63764000Y-77578500D02*
X63764000Y-78123500D01*
G75*
G02*
X63516500Y-78371000I-247500J0D01*
G01*
X63021500Y-78371000D01*
G75*
G02*
X62774000Y-78123500I0J247500D01*
G01*
X62774000Y-77578500D01*
G75*
G02*
X63021500Y-77331000I247500J0D01*
G01*
X63516500Y-77331000D01*
G75*
G02*
X63764000Y-77578500I0J-247500D01*
G01*
G37*
G36*
G01*
X64734000Y-77578500D02*
X64734000Y-78123500D01*
G75*
G02*
X64486500Y-78371000I-247500J0D01*
G01*
X63991500Y-78371000D01*
G75*
G02*
X63744000Y-78123500I0J247500D01*
G01*
X63744000Y-77578500D01*
G75*
G02*
X63991500Y-77331000I247500J0D01*
G01*
X64486500Y-77331000D01*
G75*
G02*
X64734000Y-77578500I0J-247500D01*
G01*
G37*
G36*
G01*
X72535500Y-76718000D02*
X71990500Y-76718000D01*
G75*
G02*
X71743000Y-76470500I0J247500D01*
G01*
X71743000Y-75975500D01*
G75*
G02*
X71990500Y-75728000I247500J0D01*
G01*
X72535500Y-75728000D01*
G75*
G02*
X72783000Y-75975500I0J-247500D01*
G01*
X72783000Y-76470500D01*
G75*
G02*
X72535500Y-76718000I-247500J0D01*
G01*
G37*
G36*
G01*
X72535500Y-77688000D02*
X71990500Y-77688000D01*
G75*
G02*
X71743000Y-77440500I0J247500D01*
G01*
X71743000Y-76945500D01*
G75*
G02*
X71990500Y-76698000I247500J0D01*
G01*
X72535500Y-76698000D01*
G75*
G02*
X72783000Y-76945500I0J-247500D01*
G01*
X72783000Y-77440500D01*
G75*
G02*
X72535500Y-77688000I-247500J0D01*
G01*
G37*
D12*
X67945000Y-80391000D03*
G36*
G01*
X66120000Y-78378500D02*
X66120000Y-77503500D01*
G75*
G02*
X66282500Y-77341000I162500J0D01*
G01*
X66607500Y-77341000D01*
G75*
G02*
X66770000Y-77503500I0J-162500D01*
G01*
X66770000Y-78378500D01*
G75*
G02*
X66607500Y-78541000I-162500J0D01*
G01*
X66282500Y-78541000D01*
G75*
G02*
X66120000Y-78378500I0J162500D01*
G01*
G37*
G36*
G01*
X66620000Y-78378500D02*
X66620000Y-77503500D01*
G75*
G02*
X66782500Y-77341000I162500J0D01*
G01*
X67107500Y-77341000D01*
G75*
G02*
X67270000Y-77503500I0J-162500D01*
G01*
X67270000Y-78378500D01*
G75*
G02*
X67107500Y-78541000I-162500J0D01*
G01*
X66782500Y-78541000D01*
G75*
G02*
X66620000Y-78378500I0J162500D01*
G01*
G37*
G36*
G01*
X67120000Y-78378500D02*
X67120000Y-77503500D01*
G75*
G02*
X67282500Y-77341000I162500J0D01*
G01*
X67607500Y-77341000D01*
G75*
G02*
X67770000Y-77503500I0J-162500D01*
G01*
X67770000Y-78378500D01*
G75*
G02*
X67607500Y-78541000I-162500J0D01*
G01*
X67282500Y-78541000D01*
G75*
G02*
X67120000Y-78378500I0J162500D01*
G01*
G37*
G36*
G01*
X67620000Y-78378500D02*
X67620000Y-77503500D01*
G75*
G02*
X67782500Y-77341000I162500J0D01*
G01*
X68107500Y-77341000D01*
G75*
G02*
X68270000Y-77503500I0J-162500D01*
G01*
X68270000Y-78378500D01*
G75*
G02*
X68107500Y-78541000I-162500J0D01*
G01*
X67782500Y-78541000D01*
G75*
G02*
X67620000Y-78378500I0J162500D01*
G01*
G37*
G36*
G01*
X68120000Y-78378500D02*
X68120000Y-77503500D01*
G75*
G02*
X68282500Y-77341000I162500J0D01*
G01*
X68607500Y-77341000D01*
G75*
G02*
X68770000Y-77503500I0J-162500D01*
G01*
X68770000Y-78378500D01*
G75*
G02*
X68607500Y-78541000I-162500J0D01*
G01*
X68282500Y-78541000D01*
G75*
G02*
X68120000Y-78378500I0J162500D01*
G01*
G37*
G36*
G01*
X68620000Y-78378500D02*
X68620000Y-77503500D01*
G75*
G02*
X68782500Y-77341000I162500J0D01*
G01*
X69107500Y-77341000D01*
G75*
G02*
X69270000Y-77503500I0J-162500D01*
G01*
X69270000Y-78378500D01*
G75*
G02*
X69107500Y-78541000I-162500J0D01*
G01*
X68782500Y-78541000D01*
G75*
G02*
X68620000Y-78378500I0J162500D01*
G01*
G37*
G36*
G01*
X69120000Y-78378500D02*
X69120000Y-77503500D01*
G75*
G02*
X69282500Y-77341000I162500J0D01*
G01*
X69607500Y-77341000D01*
G75*
G02*
X69770000Y-77503500I0J-162500D01*
G01*
X69770000Y-78378500D01*
G75*
G02*
X69607500Y-78541000I-162500J0D01*
G01*
X69282500Y-78541000D01*
G75*
G02*
X69120000Y-78378500I0J162500D01*
G01*
G37*
G36*
G01*
X69795000Y-79053500D02*
X69795000Y-78728500D01*
G75*
G02*
X69957500Y-78566000I162500J0D01*
G01*
X70832500Y-78566000D01*
G75*
G02*
X70995000Y-78728500I0J-162500D01*
G01*
X70995000Y-79053500D01*
G75*
G02*
X70832500Y-79216000I-162500J0D01*
G01*
X69957500Y-79216000D01*
G75*
G02*
X69795000Y-79053500I0J162500D01*
G01*
G37*
G36*
G01*
X69795000Y-79553500D02*
X69795000Y-79228500D01*
G75*
G02*
X69957500Y-79066000I162500J0D01*
G01*
X70832500Y-79066000D01*
G75*
G02*
X70995000Y-79228500I0J-162500D01*
G01*
X70995000Y-79553500D01*
G75*
G02*
X70832500Y-79716000I-162500J0D01*
G01*
X69957500Y-79716000D01*
G75*
G02*
X69795000Y-79553500I0J162500D01*
G01*
G37*
G36*
G01*
X69795000Y-80053500D02*
X69795000Y-79728500D01*
G75*
G02*
X69957500Y-79566000I162500J0D01*
G01*
X70832500Y-79566000D01*
G75*
G02*
X70995000Y-79728500I0J-162500D01*
G01*
X70995000Y-80053500D01*
G75*
G02*
X70832500Y-80216000I-162500J0D01*
G01*
X69957500Y-80216000D01*
G75*
G02*
X69795000Y-80053500I0J162500D01*
G01*
G37*
G36*
G01*
X69795000Y-80553500D02*
X69795000Y-80228500D01*
G75*
G02*
X69957500Y-80066000I162500J0D01*
G01*
X70832500Y-80066000D01*
G75*
G02*
X70995000Y-80228500I0J-162500D01*
G01*
X70995000Y-80553500D01*
G75*
G02*
X70832500Y-80716000I-162500J0D01*
G01*
X69957500Y-80716000D01*
G75*
G02*
X69795000Y-80553500I0J162500D01*
G01*
G37*
G36*
G01*
X69795000Y-81053500D02*
X69795000Y-80728500D01*
G75*
G02*
X69957500Y-80566000I162500J0D01*
G01*
X70832500Y-80566000D01*
G75*
G02*
X70995000Y-80728500I0J-162500D01*
G01*
X70995000Y-81053500D01*
G75*
G02*
X70832500Y-81216000I-162500J0D01*
G01*
X69957500Y-81216000D01*
G75*
G02*
X69795000Y-81053500I0J162500D01*
G01*
G37*
G36*
G01*
X69795000Y-81553500D02*
X69795000Y-81228500D01*
G75*
G02*
X69957500Y-81066000I162500J0D01*
G01*
X70832500Y-81066000D01*
G75*
G02*
X70995000Y-81228500I0J-162500D01*
G01*
X70995000Y-81553500D01*
G75*
G02*
X70832500Y-81716000I-162500J0D01*
G01*
X69957500Y-81716000D01*
G75*
G02*
X69795000Y-81553500I0J162500D01*
G01*
G37*
G36*
G01*
X69795000Y-82053500D02*
X69795000Y-81728500D01*
G75*
G02*
X69957500Y-81566000I162500J0D01*
G01*
X70832500Y-81566000D01*
G75*
G02*
X70995000Y-81728500I0J-162500D01*
G01*
X70995000Y-82053500D01*
G75*
G02*
X70832500Y-82216000I-162500J0D01*
G01*
X69957500Y-82216000D01*
G75*
G02*
X69795000Y-82053500I0J162500D01*
G01*
G37*
G36*
G01*
X69120000Y-83278500D02*
X69120000Y-82403500D01*
G75*
G02*
X69282500Y-82241000I162500J0D01*
G01*
X69607500Y-82241000D01*
G75*
G02*
X69770000Y-82403500I0J-162500D01*
G01*
X69770000Y-83278500D01*
G75*
G02*
X69607500Y-83441000I-162500J0D01*
G01*
X69282500Y-83441000D01*
G75*
G02*
X69120000Y-83278500I0J162500D01*
G01*
G37*
G36*
G01*
X68620000Y-83278500D02*
X68620000Y-82403500D01*
G75*
G02*
X68782500Y-82241000I162500J0D01*
G01*
X69107500Y-82241000D01*
G75*
G02*
X69270000Y-82403500I0J-162500D01*
G01*
X69270000Y-83278500D01*
G75*
G02*
X69107500Y-83441000I-162500J0D01*
G01*
X68782500Y-83441000D01*
G75*
G02*
X68620000Y-83278500I0J162500D01*
G01*
G37*
G36*
G01*
X68120000Y-83278500D02*
X68120000Y-82403500D01*
G75*
G02*
X68282500Y-82241000I162500J0D01*
G01*
X68607500Y-82241000D01*
G75*
G02*
X68770000Y-82403500I0J-162500D01*
G01*
X68770000Y-83278500D01*
G75*
G02*
X68607500Y-83441000I-162500J0D01*
G01*
X68282500Y-83441000D01*
G75*
G02*
X68120000Y-83278500I0J162500D01*
G01*
G37*
G36*
G01*
X67620000Y-83278500D02*
X67620000Y-82403500D01*
G75*
G02*
X67782500Y-82241000I162500J0D01*
G01*
X68107500Y-82241000D01*
G75*
G02*
X68270000Y-82403500I0J-162500D01*
G01*
X68270000Y-83278500D01*
G75*
G02*
X68107500Y-83441000I-162500J0D01*
G01*
X67782500Y-83441000D01*
G75*
G02*
X67620000Y-83278500I0J162500D01*
G01*
G37*
G36*
G01*
X67120000Y-83278500D02*
X67120000Y-82403500D01*
G75*
G02*
X67282500Y-82241000I162500J0D01*
G01*
X67607500Y-82241000D01*
G75*
G02*
X67770000Y-82403500I0J-162500D01*
G01*
X67770000Y-83278500D01*
G75*
G02*
X67607500Y-83441000I-162500J0D01*
G01*
X67282500Y-83441000D01*
G75*
G02*
X67120000Y-83278500I0J162500D01*
G01*
G37*
G36*
G01*
X66620000Y-83278500D02*
X66620000Y-82403500D01*
G75*
G02*
X66782500Y-82241000I162500J0D01*
G01*
X67107500Y-82241000D01*
G75*
G02*
X67270000Y-82403500I0J-162500D01*
G01*
X67270000Y-83278500D01*
G75*
G02*
X67107500Y-83441000I-162500J0D01*
G01*
X66782500Y-83441000D01*
G75*
G02*
X66620000Y-83278500I0J162500D01*
G01*
G37*
G36*
G01*
X66120000Y-83278500D02*
X66120000Y-82403500D01*
G75*
G02*
X66282500Y-82241000I162500J0D01*
G01*
X66607500Y-82241000D01*
G75*
G02*
X66770000Y-82403500I0J-162500D01*
G01*
X66770000Y-83278500D01*
G75*
G02*
X66607500Y-83441000I-162500J0D01*
G01*
X66282500Y-83441000D01*
G75*
G02*
X66120000Y-83278500I0J162500D01*
G01*
G37*
G36*
G01*
X64895000Y-82053500D02*
X64895000Y-81728500D01*
G75*
G02*
X65057500Y-81566000I162500J0D01*
G01*
X65932500Y-81566000D01*
G75*
G02*
X66095000Y-81728500I0J-162500D01*
G01*
X66095000Y-82053500D01*
G75*
G02*
X65932500Y-82216000I-162500J0D01*
G01*
X65057500Y-82216000D01*
G75*
G02*
X64895000Y-82053500I0J162500D01*
G01*
G37*
G36*
G01*
X64895000Y-81553500D02*
X64895000Y-81228500D01*
G75*
G02*
X65057500Y-81066000I162500J0D01*
G01*
X65932500Y-81066000D01*
G75*
G02*
X66095000Y-81228500I0J-162500D01*
G01*
X66095000Y-81553500D01*
G75*
G02*
X65932500Y-81716000I-162500J0D01*
G01*
X65057500Y-81716000D01*
G75*
G02*
X64895000Y-81553500I0J162500D01*
G01*
G37*
G36*
G01*
X64895000Y-81053500D02*
X64895000Y-80728500D01*
G75*
G02*
X65057500Y-80566000I162500J0D01*
G01*
X65932500Y-80566000D01*
G75*
G02*
X66095000Y-80728500I0J-162500D01*
G01*
X66095000Y-81053500D01*
G75*
G02*
X65932500Y-81216000I-162500J0D01*
G01*
X65057500Y-81216000D01*
G75*
G02*
X64895000Y-81053500I0J162500D01*
G01*
G37*
G36*
G01*
X64895000Y-80553500D02*
X64895000Y-80228500D01*
G75*
G02*
X65057500Y-80066000I162500J0D01*
G01*
X65932500Y-80066000D01*
G75*
G02*
X66095000Y-80228500I0J-162500D01*
G01*
X66095000Y-80553500D01*
G75*
G02*
X65932500Y-80716000I-162500J0D01*
G01*
X65057500Y-80716000D01*
G75*
G02*
X64895000Y-80553500I0J162500D01*
G01*
G37*
G36*
G01*
X64895000Y-80053500D02*
X64895000Y-79728500D01*
G75*
G02*
X65057500Y-79566000I162500J0D01*
G01*
X65932500Y-79566000D01*
G75*
G02*
X66095000Y-79728500I0J-162500D01*
G01*
X66095000Y-80053500D01*
G75*
G02*
X65932500Y-80216000I-162500J0D01*
G01*
X65057500Y-80216000D01*
G75*
G02*
X64895000Y-80053500I0J162500D01*
G01*
G37*
G36*
G01*
X64895000Y-79553500D02*
X64895000Y-79228500D01*
G75*
G02*
X65057500Y-79066000I162500J0D01*
G01*
X65932500Y-79066000D01*
G75*
G02*
X66095000Y-79228500I0J-162500D01*
G01*
X66095000Y-79553500D01*
G75*
G02*
X65932500Y-79716000I-162500J0D01*
G01*
X65057500Y-79716000D01*
G75*
G02*
X64895000Y-79553500I0J162500D01*
G01*
G37*
G36*
G01*
X64895000Y-79053500D02*
X64895000Y-78728500D01*
G75*
G02*
X65057500Y-78566000I162500J0D01*
G01*
X65932500Y-78566000D01*
G75*
G02*
X66095000Y-78728500I0J-162500D01*
G01*
X66095000Y-79053500D01*
G75*
G02*
X65932500Y-79216000I-162500J0D01*
G01*
X65057500Y-79216000D01*
G75*
G02*
X64895000Y-79053500I0J162500D01*
G01*
G37*
D13*
X137076000Y-76708000D03*
X131826000Y-76708000D03*
X105918000Y-78486000D03*
X102870000Y-144526000D03*
X130810000Y-87122000D03*
X122936000Y-87630000D03*
X91694000Y-130556000D03*
X75438000Y-130048000D03*
X122936000Y-93726000D03*
X112268000Y-130302000D03*
X120904000Y-130302000D03*
X101854000Y-123444000D03*
X98552000Y-117602000D03*
D14*
X99686000Y-57277000D03*
X99686000Y-58547000D03*
X99686000Y-59817000D03*
X99686000Y-61087000D03*
X99686000Y-62357000D03*
X99686000Y-63627000D03*
X99686000Y-64897000D03*
X99686000Y-66167000D03*
X99686000Y-67437000D03*
X99686000Y-68707000D03*
X99686000Y-69977000D03*
X99686000Y-71247000D03*
X99686000Y-72517000D03*
X99686000Y-73787000D03*
D15*
X96901000Y-74787000D03*
X95631000Y-74787000D03*
X94361000Y-74787000D03*
X93091000Y-74787000D03*
X91821000Y-74787000D03*
X90551000Y-74787000D03*
X89281000Y-74787000D03*
X88011000Y-74787000D03*
X86741000Y-74787000D03*
X85471000Y-74787000D03*
D14*
X82686000Y-73787000D03*
X82686000Y-72517000D03*
X82686000Y-71247000D03*
X82686000Y-69977000D03*
X82686000Y-68707000D03*
X82686000Y-67437000D03*
X82686000Y-66167000D03*
X82686000Y-64897000D03*
X82686000Y-63627000D03*
X82686000Y-62357000D03*
X82686000Y-61087000D03*
X82686000Y-59817000D03*
X82686000Y-58547000D03*
X82686000Y-57277000D03*
D16*
X90186000Y-64777000D03*
D17*
G36*
X104796112Y-110175602D02*
G01*
X104814534Y-110175602D01*
X104834140Y-110176565D01*
X104882971Y-110181375D01*
X104902380Y-110184254D01*
X104950505Y-110193826D01*
X104969548Y-110198596D01*
X105016503Y-110212840D01*
X105034980Y-110219451D01*
X105080313Y-110238228D01*
X105098061Y-110246623D01*
X105141334Y-110269754D01*
X105158162Y-110279840D01*
X105198961Y-110307100D01*
X105214730Y-110318795D01*
X105252659Y-110349923D01*
X105267200Y-110363103D01*
X105301897Y-110397800D01*
X105315077Y-110412341D01*
X105346205Y-110450270D01*
X105357900Y-110466039D01*
X105385160Y-110506838D01*
X105395246Y-110523666D01*
X105418377Y-110566939D01*
X105426772Y-110584687D01*
X105445549Y-110630020D01*
X105452160Y-110648497D01*
X105466404Y-110695452D01*
X105471174Y-110714495D01*
X105480746Y-110762620D01*
X105483625Y-110782029D01*
X105488435Y-110830860D01*
X105489398Y-110850466D01*
X105489398Y-110868888D01*
X105490000Y-110875000D01*
X105490000Y-111375000D01*
X105489398Y-111381112D01*
X105489398Y-111399534D01*
X105488435Y-111419140D01*
X105483625Y-111467971D01*
X105480746Y-111487380D01*
X105471174Y-111535505D01*
X105466404Y-111554548D01*
X105452160Y-111601503D01*
X105445549Y-111619980D01*
X105426772Y-111665313D01*
X105418377Y-111683061D01*
X105395246Y-111726334D01*
X105385160Y-111743162D01*
X105357900Y-111783961D01*
X105346205Y-111799730D01*
X105315077Y-111837659D01*
X105301897Y-111852200D01*
X105267200Y-111886897D01*
X105252659Y-111900077D01*
X105214730Y-111931205D01*
X105198961Y-111942900D01*
X105158162Y-111970160D01*
X105141334Y-111980246D01*
X105098061Y-112003377D01*
X105080313Y-112011772D01*
X105034980Y-112030549D01*
X105016503Y-112037160D01*
X104969548Y-112051404D01*
X104950505Y-112056174D01*
X104902380Y-112065746D01*
X104882971Y-112068625D01*
X104834140Y-112073435D01*
X104814534Y-112074398D01*
X104796112Y-112074398D01*
X104790000Y-112075000D01*
X104290000Y-112075000D01*
X104250982Y-112071157D01*
X104213463Y-112059776D01*
X104178886Y-112041294D01*
X104148579Y-112016421D01*
X104123706Y-111986114D01*
X104105224Y-111951537D01*
X104093843Y-111914018D01*
X104090000Y-111875000D01*
X104090000Y-110375000D01*
X104093843Y-110335982D01*
X104105224Y-110298463D01*
X104123706Y-110263886D01*
X104148579Y-110233579D01*
X104178886Y-110208706D01*
X104213463Y-110190224D01*
X104250982Y-110178843D01*
X104290000Y-110175000D01*
X104790000Y-110175000D01*
X104796112Y-110175602D01*
G37*
G36*
X104029018Y-110178843D02*
G01*
X104066537Y-110190224D01*
X104101114Y-110208706D01*
X104131421Y-110233579D01*
X104156294Y-110263886D01*
X104174776Y-110298463D01*
X104186157Y-110335982D01*
X104190000Y-110375000D01*
X104190000Y-111875000D01*
X104186157Y-111914018D01*
X104174776Y-111951537D01*
X104156294Y-111986114D01*
X104131421Y-112016421D01*
X104101114Y-112041294D01*
X104066537Y-112059776D01*
X104029018Y-112071157D01*
X103990000Y-112075000D01*
X103490000Y-112075000D01*
X103483888Y-112074398D01*
X103465466Y-112074398D01*
X103445860Y-112073435D01*
X103397029Y-112068625D01*
X103377620Y-112065746D01*
X103329495Y-112056174D01*
X103310452Y-112051404D01*
X103263497Y-112037160D01*
X103245020Y-112030549D01*
X103199687Y-112011772D01*
X103181939Y-112003377D01*
X103138666Y-111980246D01*
X103121838Y-111970160D01*
X103081039Y-111942900D01*
X103065270Y-111931205D01*
X103027341Y-111900077D01*
X103012800Y-111886897D01*
X102978103Y-111852200D01*
X102964923Y-111837659D01*
X102933795Y-111799730D01*
X102922100Y-111783961D01*
X102894840Y-111743162D01*
X102884754Y-111726334D01*
X102861623Y-111683061D01*
X102853228Y-111665313D01*
X102834451Y-111619980D01*
X102827840Y-111601503D01*
X102813596Y-111554548D01*
X102808826Y-111535505D01*
X102799254Y-111487380D01*
X102796375Y-111467971D01*
X102791565Y-111419140D01*
X102790602Y-111399534D01*
X102790602Y-111381112D01*
X102790000Y-111375000D01*
X102790000Y-110875000D01*
X102790602Y-110868888D01*
X102790602Y-110850466D01*
X102791565Y-110830860D01*
X102796375Y-110782029D01*
X102799254Y-110762620D01*
X102808826Y-110714495D01*
X102813596Y-110695452D01*
X102827840Y-110648497D01*
X102834451Y-110630020D01*
X102853228Y-110584687D01*
X102861623Y-110566939D01*
X102884754Y-110523666D01*
X102894840Y-110506838D01*
X102922100Y-110466039D01*
X102933795Y-110450270D01*
X102964923Y-110412341D01*
X102978103Y-110397800D01*
X103012800Y-110363103D01*
X103027341Y-110349923D01*
X103065270Y-110318795D01*
X103081039Y-110307100D01*
X103121838Y-110279840D01*
X103138666Y-110269754D01*
X103181939Y-110246623D01*
X103199687Y-110238228D01*
X103245020Y-110219451D01*
X103263497Y-110212840D01*
X103310452Y-110198596D01*
X103329495Y-110193826D01*
X103377620Y-110184254D01*
X103397029Y-110181375D01*
X103445860Y-110176565D01*
X103465466Y-110175602D01*
X103483888Y-110175602D01*
X103490000Y-110175000D01*
X103990000Y-110175000D01*
X104029018Y-110178843D01*
G37*
D18*
X61722000Y-130810000D03*
X61722000Y-125730000D03*
X61722000Y-120650000D03*
X61722000Y-115570000D03*
X61722000Y-110490000D03*
X61722000Y-105410000D03*
X61722000Y-100330000D03*
X61722000Y-95250000D03*
D19*
X61722000Y-90170000D03*
G36*
G01*
X99332500Y-113294000D02*
X98787500Y-113294000D01*
G75*
G02*
X98540000Y-113046500I0J247500D01*
G01*
X98540000Y-112551500D01*
G75*
G02*
X98787500Y-112304000I247500J0D01*
G01*
X99332500Y-112304000D01*
G75*
G02*
X99580000Y-112551500I0J-247500D01*
G01*
X99580000Y-113046500D01*
G75*
G02*
X99332500Y-113294000I-247500J0D01*
G01*
G37*
G36*
G01*
X99332500Y-114264000D02*
X98787500Y-114264000D01*
G75*
G02*
X98540000Y-114016500I0J247500D01*
G01*
X98540000Y-113521500D01*
G75*
G02*
X98787500Y-113274000I247500J0D01*
G01*
X99332500Y-113274000D01*
G75*
G02*
X99580000Y-113521500I0J-247500D01*
G01*
X99580000Y-114016500D01*
G75*
G02*
X99332500Y-114264000I-247500J0D01*
G01*
G37*
G36*
G01*
X96271000Y-110173000D02*
X96271000Y-109823000D01*
G75*
G02*
X96446000Y-109648000I175000J0D01*
G01*
X97946000Y-109648000D01*
G75*
G02*
X98121000Y-109823000I0J-175000D01*
G01*
X98121000Y-110173000D01*
G75*
G02*
X97946000Y-110348000I-175000J0D01*
G01*
X96446000Y-110348000D01*
G75*
G02*
X96271000Y-110173000I0J175000D01*
G01*
G37*
G36*
G01*
X96271000Y-110673000D02*
X96271000Y-110323000D01*
G75*
G02*
X96446000Y-110148000I175000J0D01*
G01*
X97946000Y-110148000D01*
G75*
G02*
X98121000Y-110323000I0J-175000D01*
G01*
X98121000Y-110673000D01*
G75*
G02*
X97946000Y-110848000I-175000J0D01*
G01*
X96446000Y-110848000D01*
G75*
G02*
X96271000Y-110673000I0J175000D01*
G01*
G37*
G36*
G01*
X96271000Y-111173000D02*
X96271000Y-110823000D01*
G75*
G02*
X96446000Y-110648000I175000J0D01*
G01*
X97946000Y-110648000D01*
G75*
G02*
X98121000Y-110823000I0J-175000D01*
G01*
X98121000Y-111173000D01*
G75*
G02*
X97946000Y-111348000I-175000J0D01*
G01*
X96446000Y-111348000D01*
G75*
G02*
X96271000Y-111173000I0J175000D01*
G01*
G37*
G36*
G01*
X96271000Y-111673000D02*
X96271000Y-111323000D01*
G75*
G02*
X96446000Y-111148000I175000J0D01*
G01*
X97946000Y-111148000D01*
G75*
G02*
X98121000Y-111323000I0J-175000D01*
G01*
X98121000Y-111673000D01*
G75*
G02*
X97946000Y-111848000I-175000J0D01*
G01*
X96446000Y-111848000D01*
G75*
G02*
X96271000Y-111673000I0J175000D01*
G01*
G37*
G36*
G01*
X96271000Y-112173000D02*
X96271000Y-111823000D01*
G75*
G02*
X96446000Y-111648000I175000J0D01*
G01*
X97946000Y-111648000D01*
G75*
G02*
X98121000Y-111823000I0J-175000D01*
G01*
X98121000Y-112173000D01*
G75*
G02*
X97946000Y-112348000I-175000J0D01*
G01*
X96446000Y-112348000D01*
G75*
G02*
X96271000Y-112173000I0J175000D01*
G01*
G37*
G36*
G01*
X91871000Y-112173000D02*
X91871000Y-111823000D01*
G75*
G02*
X92046000Y-111648000I175000J0D01*
G01*
X93546000Y-111648000D01*
G75*
G02*
X93721000Y-111823000I0J-175000D01*
G01*
X93721000Y-112173000D01*
G75*
G02*
X93546000Y-112348000I-175000J0D01*
G01*
X92046000Y-112348000D01*
G75*
G02*
X91871000Y-112173000I0J175000D01*
G01*
G37*
G36*
G01*
X91871000Y-111673000D02*
X91871000Y-111323000D01*
G75*
G02*
X92046000Y-111148000I175000J0D01*
G01*
X93546000Y-111148000D01*
G75*
G02*
X93721000Y-111323000I0J-175000D01*
G01*
X93721000Y-111673000D01*
G75*
G02*
X93546000Y-111848000I-175000J0D01*
G01*
X92046000Y-111848000D01*
G75*
G02*
X91871000Y-111673000I0J175000D01*
G01*
G37*
G36*
G01*
X91871000Y-111173000D02*
X91871000Y-110823000D01*
G75*
G02*
X92046000Y-110648000I175000J0D01*
G01*
X93546000Y-110648000D01*
G75*
G02*
X93721000Y-110823000I0J-175000D01*
G01*
X93721000Y-111173000D01*
G75*
G02*
X93546000Y-111348000I-175000J0D01*
G01*
X92046000Y-111348000D01*
G75*
G02*
X91871000Y-111173000I0J175000D01*
G01*
G37*
G36*
G01*
X91871000Y-110673000D02*
X91871000Y-110323000D01*
G75*
G02*
X92046000Y-110148000I175000J0D01*
G01*
X93546000Y-110148000D01*
G75*
G02*
X93721000Y-110323000I0J-175000D01*
G01*
X93721000Y-110673000D01*
G75*
G02*
X93546000Y-110848000I-175000J0D01*
G01*
X92046000Y-110848000D01*
G75*
G02*
X91871000Y-110673000I0J175000D01*
G01*
G37*
G36*
G01*
X91871000Y-110173000D02*
X91871000Y-109823000D01*
G75*
G02*
X92046000Y-109648000I175000J0D01*
G01*
X93546000Y-109648000D01*
G75*
G02*
X93721000Y-109823000I0J-175000D01*
G01*
X93721000Y-110173000D01*
G75*
G02*
X93546000Y-110348000I-175000J0D01*
G01*
X92046000Y-110348000D01*
G75*
G02*
X91871000Y-110173000I0J175000D01*
G01*
G37*
G36*
G01*
X101583000Y-109153000D02*
X100093000Y-109153000D01*
G75*
G02*
X99763000Y-108823000I0J330000D01*
G01*
X99763000Y-107833000D01*
G75*
G02*
X100093000Y-107503000I330000J0D01*
G01*
X101583000Y-107503000D01*
G75*
G02*
X101913000Y-107833000I0J-330000D01*
G01*
X101913000Y-108823000D01*
G75*
G02*
X101583000Y-109153000I-330000J0D01*
G01*
G37*
G36*
G01*
X101583000Y-111953000D02*
X100093000Y-111953000D01*
G75*
G02*
X99763000Y-111623000I0J330000D01*
G01*
X99763000Y-110633000D01*
G75*
G02*
X100093000Y-110303000I330000J0D01*
G01*
X101583000Y-110303000D01*
G75*
G02*
X101913000Y-110633000I0J-330000D01*
G01*
X101913000Y-111623000D01*
G75*
G02*
X101583000Y-111953000I-330000J0D01*
G01*
G37*
G36*
G01*
X129799000Y-126429000D02*
X129799000Y-126079000D01*
G75*
G02*
X129974000Y-125904000I175000J0D01*
G01*
X131474000Y-125904000D01*
G75*
G02*
X131649000Y-126079000I0J-175000D01*
G01*
X131649000Y-126429000D01*
G75*
G02*
X131474000Y-126604000I-175000J0D01*
G01*
X129974000Y-126604000D01*
G75*
G02*
X129799000Y-126429000I0J175000D01*
G01*
G37*
G36*
G01*
X129799000Y-126929000D02*
X129799000Y-126579000D01*
G75*
G02*
X129974000Y-126404000I175000J0D01*
G01*
X131474000Y-126404000D01*
G75*
G02*
X131649000Y-126579000I0J-175000D01*
G01*
X131649000Y-126929000D01*
G75*
G02*
X131474000Y-127104000I-175000J0D01*
G01*
X129974000Y-127104000D01*
G75*
G02*
X129799000Y-126929000I0J175000D01*
G01*
G37*
G36*
G01*
X129799000Y-127429000D02*
X129799000Y-127079000D01*
G75*
G02*
X129974000Y-126904000I175000J0D01*
G01*
X131474000Y-126904000D01*
G75*
G02*
X131649000Y-127079000I0J-175000D01*
G01*
X131649000Y-127429000D01*
G75*
G02*
X131474000Y-127604000I-175000J0D01*
G01*
X129974000Y-127604000D01*
G75*
G02*
X129799000Y-127429000I0J175000D01*
G01*
G37*
G36*
G01*
X129799000Y-127929000D02*
X129799000Y-127579000D01*
G75*
G02*
X129974000Y-127404000I175000J0D01*
G01*
X131474000Y-127404000D01*
G75*
G02*
X131649000Y-127579000I0J-175000D01*
G01*
X131649000Y-127929000D01*
G75*
G02*
X131474000Y-128104000I-175000J0D01*
G01*
X129974000Y-128104000D01*
G75*
G02*
X129799000Y-127929000I0J175000D01*
G01*
G37*
G36*
G01*
X129799000Y-128429000D02*
X129799000Y-128079000D01*
G75*
G02*
X129974000Y-127904000I175000J0D01*
G01*
X131474000Y-127904000D01*
G75*
G02*
X131649000Y-128079000I0J-175000D01*
G01*
X131649000Y-128429000D01*
G75*
G02*
X131474000Y-128604000I-175000J0D01*
G01*
X129974000Y-128604000D01*
G75*
G02*
X129799000Y-128429000I0J175000D01*
G01*
G37*
G36*
G01*
X125399000Y-128429000D02*
X125399000Y-128079000D01*
G75*
G02*
X125574000Y-127904000I175000J0D01*
G01*
X127074000Y-127904000D01*
G75*
G02*
X127249000Y-128079000I0J-175000D01*
G01*
X127249000Y-128429000D01*
G75*
G02*
X127074000Y-128604000I-175000J0D01*
G01*
X125574000Y-128604000D01*
G75*
G02*
X125399000Y-128429000I0J175000D01*
G01*
G37*
G36*
G01*
X125399000Y-127929000D02*
X125399000Y-127579000D01*
G75*
G02*
X125574000Y-127404000I175000J0D01*
G01*
X127074000Y-127404000D01*
G75*
G02*
X127249000Y-127579000I0J-175000D01*
G01*
X127249000Y-127929000D01*
G75*
G02*
X127074000Y-128104000I-175000J0D01*
G01*
X125574000Y-128104000D01*
G75*
G02*
X125399000Y-127929000I0J175000D01*
G01*
G37*
G36*
G01*
X125399000Y-127429000D02*
X125399000Y-127079000D01*
G75*
G02*
X125574000Y-126904000I175000J0D01*
G01*
X127074000Y-126904000D01*
G75*
G02*
X127249000Y-127079000I0J-175000D01*
G01*
X127249000Y-127429000D01*
G75*
G02*
X127074000Y-127604000I-175000J0D01*
G01*
X125574000Y-127604000D01*
G75*
G02*
X125399000Y-127429000I0J175000D01*
G01*
G37*
G36*
G01*
X125399000Y-126929000D02*
X125399000Y-126579000D01*
G75*
G02*
X125574000Y-126404000I175000J0D01*
G01*
X127074000Y-126404000D01*
G75*
G02*
X127249000Y-126579000I0J-175000D01*
G01*
X127249000Y-126929000D01*
G75*
G02*
X127074000Y-127104000I-175000J0D01*
G01*
X125574000Y-127104000D01*
G75*
G02*
X125399000Y-126929000I0J175000D01*
G01*
G37*
G36*
G01*
X125399000Y-126429000D02*
X125399000Y-126079000D01*
G75*
G02*
X125574000Y-125904000I175000J0D01*
G01*
X127074000Y-125904000D01*
G75*
G02*
X127249000Y-126079000I0J-175000D01*
G01*
X127249000Y-126429000D01*
G75*
G02*
X127074000Y-126604000I-175000J0D01*
G01*
X125574000Y-126604000D01*
G75*
G02*
X125399000Y-126429000I0J175000D01*
G01*
G37*
G36*
G01*
X134359000Y-72162927D02*
X134359000Y-69061073D01*
G75*
G02*
X134683073Y-68737000I324073J0D01*
G01*
X135784927Y-68737000D01*
G75*
G02*
X136109000Y-69061073I0J-324073D01*
G01*
X136109000Y-72162927D01*
G75*
G02*
X135784927Y-72487000I-324073J0D01*
G01*
X134683073Y-72487000D01*
G75*
G02*
X134359000Y-72162927I0J324073D01*
G01*
G37*
G36*
G01*
X128559000Y-72162927D02*
X128559000Y-69061073D01*
G75*
G02*
X128883073Y-68737000I324073J0D01*
G01*
X129984927Y-68737000D01*
G75*
G02*
X130309000Y-69061073I0J-324073D01*
G01*
X130309000Y-72162927D01*
G75*
G02*
X129984927Y-72487000I-324073J0D01*
G01*
X128883073Y-72487000D01*
G75*
G02*
X128559000Y-72162927I0J324073D01*
G01*
G37*
G36*
G01*
X133159000Y-64775000D02*
X133509000Y-64775000D01*
G75*
G02*
X133684000Y-64950000I0J-175000D01*
G01*
X133684000Y-66450000D01*
G75*
G02*
X133509000Y-66625000I-175000J0D01*
G01*
X133159000Y-66625000D01*
G75*
G02*
X132984000Y-66450000I0J175000D01*
G01*
X132984000Y-64950000D01*
G75*
G02*
X133159000Y-64775000I175000J0D01*
G01*
G37*
G36*
G01*
X132659000Y-64775000D02*
X133009000Y-64775000D01*
G75*
G02*
X133184000Y-64950000I0J-175000D01*
G01*
X133184000Y-66450000D01*
G75*
G02*
X133009000Y-66625000I-175000J0D01*
G01*
X132659000Y-66625000D01*
G75*
G02*
X132484000Y-66450000I0J175000D01*
G01*
X132484000Y-64950000D01*
G75*
G02*
X132659000Y-64775000I175000J0D01*
G01*
G37*
G36*
G01*
X132159000Y-64775000D02*
X132509000Y-64775000D01*
G75*
G02*
X132684000Y-64950000I0J-175000D01*
G01*
X132684000Y-66450000D01*
G75*
G02*
X132509000Y-66625000I-175000J0D01*
G01*
X132159000Y-66625000D01*
G75*
G02*
X131984000Y-66450000I0J175000D01*
G01*
X131984000Y-64950000D01*
G75*
G02*
X132159000Y-64775000I175000J0D01*
G01*
G37*
G36*
G01*
X131659000Y-64775000D02*
X132009000Y-64775000D01*
G75*
G02*
X132184000Y-64950000I0J-175000D01*
G01*
X132184000Y-66450000D01*
G75*
G02*
X132009000Y-66625000I-175000J0D01*
G01*
X131659000Y-66625000D01*
G75*
G02*
X131484000Y-66450000I0J175000D01*
G01*
X131484000Y-64950000D01*
G75*
G02*
X131659000Y-64775000I175000J0D01*
G01*
G37*
G36*
G01*
X131159000Y-64775000D02*
X131509000Y-64775000D01*
G75*
G02*
X131684000Y-64950000I0J-175000D01*
G01*
X131684000Y-66450000D01*
G75*
G02*
X131509000Y-66625000I-175000J0D01*
G01*
X131159000Y-66625000D01*
G75*
G02*
X130984000Y-66450000I0J175000D01*
G01*
X130984000Y-64950000D01*
G75*
G02*
X131159000Y-64775000I175000J0D01*
G01*
G37*
G36*
G01*
X131159000Y-60375000D02*
X131509000Y-60375000D01*
G75*
G02*
X131684000Y-60550000I0J-175000D01*
G01*
X131684000Y-62050000D01*
G75*
G02*
X131509000Y-62225000I-175000J0D01*
G01*
X131159000Y-62225000D01*
G75*
G02*
X130984000Y-62050000I0J175000D01*
G01*
X130984000Y-60550000D01*
G75*
G02*
X131159000Y-60375000I175000J0D01*
G01*
G37*
G36*
G01*
X131659000Y-60375000D02*
X132009000Y-60375000D01*
G75*
G02*
X132184000Y-60550000I0J-175000D01*
G01*
X132184000Y-62050000D01*
G75*
G02*
X132009000Y-62225000I-175000J0D01*
G01*
X131659000Y-62225000D01*
G75*
G02*
X131484000Y-62050000I0J175000D01*
G01*
X131484000Y-60550000D01*
G75*
G02*
X131659000Y-60375000I175000J0D01*
G01*
G37*
G36*
G01*
X132159000Y-60375000D02*
X132509000Y-60375000D01*
G75*
G02*
X132684000Y-60550000I0J-175000D01*
G01*
X132684000Y-62050000D01*
G75*
G02*
X132509000Y-62225000I-175000J0D01*
G01*
X132159000Y-62225000D01*
G75*
G02*
X131984000Y-62050000I0J175000D01*
G01*
X131984000Y-60550000D01*
G75*
G02*
X132159000Y-60375000I175000J0D01*
G01*
G37*
G36*
G01*
X132659000Y-60375000D02*
X133009000Y-60375000D01*
G75*
G02*
X133184000Y-60550000I0J-175000D01*
G01*
X133184000Y-62050000D01*
G75*
G02*
X133009000Y-62225000I-175000J0D01*
G01*
X132659000Y-62225000D01*
G75*
G02*
X132484000Y-62050000I0J175000D01*
G01*
X132484000Y-60550000D01*
G75*
G02*
X132659000Y-60375000I175000J0D01*
G01*
G37*
G36*
G01*
X133159000Y-60375000D02*
X133509000Y-60375000D01*
G75*
G02*
X133684000Y-60550000I0J-175000D01*
G01*
X133684000Y-62050000D01*
G75*
G02*
X133509000Y-62225000I-175000J0D01*
G01*
X133159000Y-62225000D01*
G75*
G02*
X132984000Y-62050000I0J175000D01*
G01*
X132984000Y-60550000D01*
G75*
G02*
X133159000Y-60375000I175000J0D01*
G01*
G37*
G36*
G01*
X130283500Y-56124000D02*
X130828500Y-56124000D01*
G75*
G02*
X131076000Y-56371500I0J-247500D01*
G01*
X131076000Y-56866500D01*
G75*
G02*
X130828500Y-57114000I-247500J0D01*
G01*
X130283500Y-57114000D01*
G75*
G02*
X130036000Y-56866500I0J247500D01*
G01*
X130036000Y-56371500D01*
G75*
G02*
X130283500Y-56124000I247500J0D01*
G01*
G37*
G36*
G01*
X130283500Y-55154000D02*
X130828500Y-55154000D01*
G75*
G02*
X131076000Y-55401500I0J-247500D01*
G01*
X131076000Y-55896500D01*
G75*
G02*
X130828500Y-56144000I-247500J0D01*
G01*
X130283500Y-56144000D01*
G75*
G02*
X130036000Y-55896500I0J247500D01*
G01*
X130036000Y-55401500D01*
G75*
G02*
X130283500Y-55154000I247500J0D01*
G01*
G37*
G36*
G01*
X126756000Y-66021500D02*
X126756000Y-66566500D01*
G75*
G02*
X126508500Y-66814000I-247500J0D01*
G01*
X126013500Y-66814000D01*
G75*
G02*
X125766000Y-66566500I0J247500D01*
G01*
X125766000Y-66021500D01*
G75*
G02*
X126013500Y-65774000I247500J0D01*
G01*
X126508500Y-65774000D01*
G75*
G02*
X126756000Y-66021500I0J-247500D01*
G01*
G37*
G36*
G01*
X127726000Y-66021500D02*
X127726000Y-66566500D01*
G75*
G02*
X127478500Y-66814000I-247500J0D01*
G01*
X126983500Y-66814000D01*
G75*
G02*
X126736000Y-66566500I0J247500D01*
G01*
X126736000Y-66021500D01*
G75*
G02*
X126983500Y-65774000I247500J0D01*
G01*
X127478500Y-65774000D01*
G75*
G02*
X127726000Y-66021500I0J-247500D01*
G01*
G37*
G36*
G01*
X126756000Y-64497500D02*
X126756000Y-65042500D01*
G75*
G02*
X126508500Y-65290000I-247500J0D01*
G01*
X126013500Y-65290000D01*
G75*
G02*
X125766000Y-65042500I0J247500D01*
G01*
X125766000Y-64497500D01*
G75*
G02*
X126013500Y-64250000I247500J0D01*
G01*
X126508500Y-64250000D01*
G75*
G02*
X126756000Y-64497500I0J-247500D01*
G01*
G37*
G36*
G01*
X127726000Y-64497500D02*
X127726000Y-65042500D01*
G75*
G02*
X127478500Y-65290000I-247500J0D01*
G01*
X126983500Y-65290000D01*
G75*
G02*
X126736000Y-65042500I0J247500D01*
G01*
X126736000Y-64497500D01*
G75*
G02*
X126983500Y-64250000I247500J0D01*
G01*
X127478500Y-64250000D01*
G75*
G02*
X127726000Y-64497500I0J-247500D01*
G01*
G37*
D20*
X113114000Y-100904000D03*
X113114000Y-102804000D03*
X110914000Y-102804000D03*
X110914000Y-101854000D03*
X110914000Y-100904000D03*
X113114000Y-116398000D03*
X113114000Y-118298000D03*
X110914000Y-118298000D03*
X110914000Y-117348000D03*
X110914000Y-116398000D03*
X124036000Y-141544000D03*
X124036000Y-143444000D03*
X121836000Y-143444000D03*
X121836000Y-142494000D03*
X121836000Y-141544000D03*
G36*
G01*
X111008000Y-120123500D02*
X111008000Y-120668500D01*
G75*
G02*
X110760500Y-120916000I-247500J0D01*
G01*
X110265500Y-120916000D01*
G75*
G02*
X110018000Y-120668500I0J247500D01*
G01*
X110018000Y-120123500D01*
G75*
G02*
X110265500Y-119876000I247500J0D01*
G01*
X110760500Y-119876000D01*
G75*
G02*
X111008000Y-120123500I0J-247500D01*
G01*
G37*
G36*
G01*
X111978000Y-120123500D02*
X111978000Y-120668500D01*
G75*
G02*
X111730500Y-120916000I-247500J0D01*
G01*
X111235500Y-120916000D01*
G75*
G02*
X110988000Y-120668500I0J247500D01*
G01*
X110988000Y-120123500D01*
G75*
G02*
X111235500Y-119876000I247500J0D01*
G01*
X111730500Y-119876000D01*
G75*
G02*
X111978000Y-120123500I0J-247500D01*
G01*
G37*
G36*
G01*
X110480000Y-81806500D02*
X110480000Y-81261500D01*
G75*
G02*
X110727500Y-81014000I247500J0D01*
G01*
X111222500Y-81014000D01*
G75*
G02*
X111470000Y-81261500I0J-247500D01*
G01*
X111470000Y-81806500D01*
G75*
G02*
X111222500Y-82054000I-247500J0D01*
G01*
X110727500Y-82054000D01*
G75*
G02*
X110480000Y-81806500I0J247500D01*
G01*
G37*
G36*
G01*
X109510000Y-81806500D02*
X109510000Y-81261500D01*
G75*
G02*
X109757500Y-81014000I247500J0D01*
G01*
X110252500Y-81014000D01*
G75*
G02*
X110500000Y-81261500I0J-247500D01*
G01*
X110500000Y-81806500D01*
G75*
G02*
X110252500Y-82054000I-247500J0D01*
G01*
X109757500Y-82054000D01*
G75*
G02*
X109510000Y-81806500I0J247500D01*
G01*
G37*
G36*
G01*
X111995500Y-142253000D02*
X112540500Y-142253000D01*
G75*
G02*
X112788000Y-142500500I0J-247500D01*
G01*
X112788000Y-142995500D01*
G75*
G02*
X112540500Y-143243000I-247500J0D01*
G01*
X111995500Y-143243000D01*
G75*
G02*
X111748000Y-142995500I0J247500D01*
G01*
X111748000Y-142500500D01*
G75*
G02*
X111995500Y-142253000I247500J0D01*
G01*
G37*
G36*
G01*
X111995500Y-141283000D02*
X112540500Y-141283000D01*
G75*
G02*
X112788000Y-141530500I0J-247500D01*
G01*
X112788000Y-142025500D01*
G75*
G02*
X112540500Y-142273000I-247500J0D01*
G01*
X111995500Y-142273000D01*
G75*
G02*
X111748000Y-142025500I0J247500D01*
G01*
X111748000Y-141530500D01*
G75*
G02*
X111995500Y-141283000I247500J0D01*
G01*
G37*
G36*
G01*
X106684000Y-116283750D02*
X106684000Y-117396250D01*
G75*
G02*
X106340250Y-117740000I-343750J0D01*
G01*
X105652750Y-117740000D01*
G75*
G02*
X105309000Y-117396250I0J343750D01*
G01*
X105309000Y-116283750D01*
G75*
G02*
X105652750Y-115940000I343750J0D01*
G01*
X106340250Y-115940000D01*
G75*
G02*
X106684000Y-116283750I0J-343750D01*
G01*
G37*
G36*
G01*
X108559000Y-116283750D02*
X108559000Y-117396250D01*
G75*
G02*
X108215250Y-117740000I-343750J0D01*
G01*
X107527750Y-117740000D01*
G75*
G02*
X107184000Y-117396250I0J343750D01*
G01*
X107184000Y-116283750D01*
G75*
G02*
X107527750Y-115940000I343750J0D01*
G01*
X108215250Y-115940000D01*
G75*
G02*
X108559000Y-116283750I0J-343750D01*
G01*
G37*
G36*
G01*
X106784000Y-114197750D02*
X106784000Y-114910250D01*
G75*
G02*
X106465250Y-115229000I-318750J0D01*
G01*
X105827750Y-115229000D01*
G75*
G02*
X105509000Y-114910250I0J318750D01*
G01*
X105509000Y-114197750D01*
G75*
G02*
X105827750Y-113879000I318750J0D01*
G01*
X106465250Y-113879000D01*
G75*
G02*
X106784000Y-114197750I0J-318750D01*
G01*
G37*
G36*
G01*
X108359000Y-114197750D02*
X108359000Y-114910250D01*
G75*
G02*
X108040250Y-115229000I-318750J0D01*
G01*
X107402750Y-115229000D01*
G75*
G02*
X107084000Y-114910250I0J318750D01*
G01*
X107084000Y-114197750D01*
G75*
G02*
X107402750Y-113879000I318750J0D01*
G01*
X108040250Y-113879000D01*
G75*
G02*
X108359000Y-114197750I0J-318750D01*
G01*
G37*
G36*
G01*
X108970000Y-98235750D02*
X108970000Y-99348250D01*
G75*
G02*
X108626250Y-99692000I-343750J0D01*
G01*
X107938750Y-99692000D01*
G75*
G02*
X107595000Y-99348250I0J343750D01*
G01*
X107595000Y-98235750D01*
G75*
G02*
X107938750Y-97892000I343750J0D01*
G01*
X108626250Y-97892000D01*
G75*
G02*
X108970000Y-98235750I0J-343750D01*
G01*
G37*
G36*
G01*
X110845000Y-98235750D02*
X110845000Y-99348250D01*
G75*
G02*
X110501250Y-99692000I-343750J0D01*
G01*
X109813750Y-99692000D01*
G75*
G02*
X109470000Y-99348250I0J343750D01*
G01*
X109470000Y-98235750D01*
G75*
G02*
X109813750Y-97892000I343750J0D01*
G01*
X110501250Y-97892000D01*
G75*
G02*
X110845000Y-98235750I0J-343750D01*
G01*
G37*
G36*
G01*
X108054000Y-100481750D02*
X108054000Y-101194250D01*
G75*
G02*
X107735250Y-101513000I-318750J0D01*
G01*
X107097750Y-101513000D01*
G75*
G02*
X106779000Y-101194250I0J318750D01*
G01*
X106779000Y-100481750D01*
G75*
G02*
X107097750Y-100163000I318750J0D01*
G01*
X107735250Y-100163000D01*
G75*
G02*
X108054000Y-100481750I0J-318750D01*
G01*
G37*
G36*
G01*
X109629000Y-100481750D02*
X109629000Y-101194250D01*
G75*
G02*
X109310250Y-101513000I-318750J0D01*
G01*
X108672750Y-101513000D01*
G75*
G02*
X108354000Y-101194250I0J318750D01*
G01*
X108354000Y-100481750D01*
G75*
G02*
X108672750Y-100163000I318750J0D01*
G01*
X109310250Y-100163000D01*
G75*
G02*
X109629000Y-100481750I0J-318750D01*
G01*
G37*
G36*
G01*
X118543500Y-142953750D02*
X118543500Y-144066250D01*
G75*
G02*
X118199750Y-144410000I-343750J0D01*
G01*
X117512250Y-144410000D01*
G75*
G02*
X117168500Y-144066250I0J343750D01*
G01*
X117168500Y-142953750D01*
G75*
G02*
X117512250Y-142610000I343750J0D01*
G01*
X118199750Y-142610000D01*
G75*
G02*
X118543500Y-142953750I0J-343750D01*
G01*
G37*
G36*
G01*
X120418500Y-142953750D02*
X120418500Y-144066250D01*
G75*
G02*
X120074750Y-144410000I-343750J0D01*
G01*
X119387250Y-144410000D01*
G75*
G02*
X119043500Y-144066250I0J343750D01*
G01*
X119043500Y-142953750D01*
G75*
G02*
X119387250Y-142610000I343750J0D01*
G01*
X120074750Y-142610000D01*
G75*
G02*
X120418500Y-142953750I0J-343750D01*
G01*
G37*
G36*
G01*
X118722000Y-141121750D02*
X118722000Y-141834250D01*
G75*
G02*
X118403250Y-142153000I-318750J0D01*
G01*
X117765750Y-142153000D01*
G75*
G02*
X117447000Y-141834250I0J318750D01*
G01*
X117447000Y-141121750D01*
G75*
G02*
X117765750Y-140803000I318750J0D01*
G01*
X118403250Y-140803000D01*
G75*
G02*
X118722000Y-141121750I0J-318750D01*
G01*
G37*
G36*
G01*
X120297000Y-141121750D02*
X120297000Y-141834250D01*
G75*
G02*
X119978250Y-142153000I-318750J0D01*
G01*
X119340750Y-142153000D01*
G75*
G02*
X119022000Y-141834250I0J318750D01*
G01*
X119022000Y-141121750D01*
G75*
G02*
X119340750Y-140803000I318750J0D01*
G01*
X119978250Y-140803000D01*
G75*
G02*
X120297000Y-141121750I0J-318750D01*
G01*
G37*
G36*
G01*
X121430500Y-135138000D02*
X120885500Y-135138000D01*
G75*
G02*
X120638000Y-134890500I0J247500D01*
G01*
X120638000Y-134395500D01*
G75*
G02*
X120885500Y-134148000I247500J0D01*
G01*
X121430500Y-134148000D01*
G75*
G02*
X121678000Y-134395500I0J-247500D01*
G01*
X121678000Y-134890500D01*
G75*
G02*
X121430500Y-135138000I-247500J0D01*
G01*
G37*
G36*
G01*
X121430500Y-136108000D02*
X120885500Y-136108000D01*
G75*
G02*
X120638000Y-135860500I0J247500D01*
G01*
X120638000Y-135365500D01*
G75*
G02*
X120885500Y-135118000I247500J0D01*
G01*
X121430500Y-135118000D01*
G75*
G02*
X121678000Y-135365500I0J-247500D01*
G01*
X121678000Y-135860500D01*
G75*
G02*
X121430500Y-136108000I-247500J0D01*
G01*
G37*
G36*
G01*
X97554500Y-103642000D02*
X97009500Y-103642000D01*
G75*
G02*
X96762000Y-103394500I0J247500D01*
G01*
X96762000Y-102899500D01*
G75*
G02*
X97009500Y-102652000I247500J0D01*
G01*
X97554500Y-102652000D01*
G75*
G02*
X97802000Y-102899500I0J-247500D01*
G01*
X97802000Y-103394500D01*
G75*
G02*
X97554500Y-103642000I-247500J0D01*
G01*
G37*
G36*
G01*
X97554500Y-104612000D02*
X97009500Y-104612000D01*
G75*
G02*
X96762000Y-104364500I0J247500D01*
G01*
X96762000Y-103869500D01*
G75*
G02*
X97009500Y-103622000I247500J0D01*
G01*
X97554500Y-103622000D01*
G75*
G02*
X97802000Y-103869500I0J-247500D01*
G01*
X97802000Y-104364500D01*
G75*
G02*
X97554500Y-104612000I-247500J0D01*
G01*
G37*
D21*
X96012000Y-90170000D03*
X93472000Y-90170000D03*
D22*
X90932000Y-90170000D03*
G36*
G01*
X91450000Y-92691500D02*
X91450000Y-93236500D01*
G75*
G02*
X91202500Y-93484000I-247500J0D01*
G01*
X90707500Y-93484000D01*
G75*
G02*
X90460000Y-93236500I0J247500D01*
G01*
X90460000Y-92691500D01*
G75*
G02*
X90707500Y-92444000I247500J0D01*
G01*
X91202500Y-92444000D01*
G75*
G02*
X91450000Y-92691500I0J-247500D01*
G01*
G37*
G36*
G01*
X92420000Y-92691500D02*
X92420000Y-93236500D01*
G75*
G02*
X92172500Y-93484000I-247500J0D01*
G01*
X91677500Y-93484000D01*
G75*
G02*
X91430000Y-93236500I0J247500D01*
G01*
X91430000Y-92691500D01*
G75*
G02*
X91677500Y-92444000I247500J0D01*
G01*
X92172500Y-92444000D01*
G75*
G02*
X92420000Y-92691500I0J-247500D01*
G01*
G37*
G36*
G01*
X95254000Y-92661750D02*
X95254000Y-93774250D01*
G75*
G02*
X94910250Y-94118000I-343750J0D01*
G01*
X94222750Y-94118000D01*
G75*
G02*
X93879000Y-93774250I0J343750D01*
G01*
X93879000Y-92661750D01*
G75*
G02*
X94222750Y-92318000I343750J0D01*
G01*
X94910250Y-92318000D01*
G75*
G02*
X95254000Y-92661750I0J-343750D01*
G01*
G37*
G36*
G01*
X97129000Y-92661750D02*
X97129000Y-93774250D01*
G75*
G02*
X96785250Y-94118000I-343750J0D01*
G01*
X96097750Y-94118000D01*
G75*
G02*
X95754000Y-93774250I0J343750D01*
G01*
X95754000Y-92661750D01*
G75*
G02*
X96097750Y-92318000I343750J0D01*
G01*
X96785250Y-92318000D01*
G75*
G02*
X97129000Y-92661750I0J-343750D01*
G01*
G37*
G36*
G01*
X107706000Y-68053500D02*
X107706000Y-68598500D01*
G75*
G02*
X107458500Y-68846000I-247500J0D01*
G01*
X106963500Y-68846000D01*
G75*
G02*
X106716000Y-68598500I0J247500D01*
G01*
X106716000Y-68053500D01*
G75*
G02*
X106963500Y-67806000I247500J0D01*
G01*
X107458500Y-67806000D01*
G75*
G02*
X107706000Y-68053500I0J-247500D01*
G01*
G37*
G36*
G01*
X108676000Y-68053500D02*
X108676000Y-68598500D01*
G75*
G02*
X108428500Y-68846000I-247500J0D01*
G01*
X107933500Y-68846000D01*
G75*
G02*
X107686000Y-68598500I0J247500D01*
G01*
X107686000Y-68053500D01*
G75*
G02*
X107933500Y-67806000I247500J0D01*
G01*
X108428500Y-67806000D01*
G75*
G02*
X108676000Y-68053500I0J-247500D01*
G01*
G37*
G36*
G01*
X76726500Y-58176000D02*
X76181500Y-58176000D01*
G75*
G02*
X75934000Y-57928500I0J247500D01*
G01*
X75934000Y-57433500D01*
G75*
G02*
X76181500Y-57186000I247500J0D01*
G01*
X76726500Y-57186000D01*
G75*
G02*
X76974000Y-57433500I0J-247500D01*
G01*
X76974000Y-57928500D01*
G75*
G02*
X76726500Y-58176000I-247500J0D01*
G01*
G37*
G36*
G01*
X76726500Y-59146000D02*
X76181500Y-59146000D01*
G75*
G02*
X75934000Y-58898500I0J247500D01*
G01*
X75934000Y-58403500D01*
G75*
G02*
X76181500Y-58156000I247500J0D01*
G01*
X76726500Y-58156000D01*
G75*
G02*
X76974000Y-58403500I0J-247500D01*
G01*
X76974000Y-58898500D01*
G75*
G02*
X76726500Y-59146000I-247500J0D01*
G01*
G37*
G36*
G01*
X78250500Y-58199000D02*
X77705500Y-58199000D01*
G75*
G02*
X77458000Y-57951500I0J247500D01*
G01*
X77458000Y-57456500D01*
G75*
G02*
X77705500Y-57209000I247500J0D01*
G01*
X78250500Y-57209000D01*
G75*
G02*
X78498000Y-57456500I0J-247500D01*
G01*
X78498000Y-57951500D01*
G75*
G02*
X78250500Y-58199000I-247500J0D01*
G01*
G37*
G36*
G01*
X78250500Y-59169000D02*
X77705500Y-59169000D01*
G75*
G02*
X77458000Y-58921500I0J247500D01*
G01*
X77458000Y-58426500D01*
G75*
G02*
X77705500Y-58179000I247500J0D01*
G01*
X78250500Y-58179000D01*
G75*
G02*
X78498000Y-58426500I0J-247500D01*
G01*
X78498000Y-58921500D01*
G75*
G02*
X78250500Y-59169000I-247500J0D01*
G01*
G37*
G36*
G01*
X115170500Y-73615000D02*
X117945500Y-73615000D01*
G75*
G02*
X118258000Y-73927500I0J-312500D01*
G01*
X118258000Y-75302500D01*
G75*
G02*
X117945500Y-75615000I-312500J0D01*
G01*
X115170500Y-75615000D01*
G75*
G02*
X114858000Y-75302500I0J312500D01*
G01*
X114858000Y-73927500D01*
G75*
G02*
X115170500Y-73615000I312500J0D01*
G01*
G37*
G36*
G01*
X115170500Y-62815000D02*
X117945500Y-62815000D01*
G75*
G02*
X118258000Y-63127500I0J-312500D01*
G01*
X118258000Y-64502500D01*
G75*
G02*
X117945500Y-64815000I-312500J0D01*
G01*
X115170500Y-64815000D01*
G75*
G02*
X114858000Y-64502500I0J312500D01*
G01*
X114858000Y-63127500D01*
G75*
G02*
X115170500Y-62815000I312500J0D01*
G01*
G37*
G36*
G01*
X111708000Y-71515000D02*
X116908000Y-71515000D01*
G75*
G02*
X117258000Y-71865000I0J-350000D01*
G01*
X117258000Y-72565000D01*
G75*
G02*
X116908000Y-72915000I-350000J0D01*
G01*
X111708000Y-72915000D01*
G75*
G02*
X111358000Y-72565000I0J350000D01*
G01*
X111358000Y-71865000D01*
G75*
G02*
X111708000Y-71515000I350000J0D01*
G01*
G37*
G36*
G01*
X111708000Y-69515000D02*
X116908000Y-69515000D01*
G75*
G02*
X117258000Y-69865000I0J-350000D01*
G01*
X117258000Y-70565000D01*
G75*
G02*
X116908000Y-70915000I-350000J0D01*
G01*
X111708000Y-70915000D01*
G75*
G02*
X111358000Y-70565000I0J350000D01*
G01*
X111358000Y-69865000D01*
G75*
G02*
X111708000Y-69515000I350000J0D01*
G01*
G37*
G36*
G01*
X111708000Y-67515000D02*
X116908000Y-67515000D01*
G75*
G02*
X117258000Y-67865000I0J-350000D01*
G01*
X117258000Y-68565000D01*
G75*
G02*
X116908000Y-68915000I-350000J0D01*
G01*
X111708000Y-68915000D01*
G75*
G02*
X111358000Y-68565000I0J350000D01*
G01*
X111358000Y-67865000D01*
G75*
G02*
X111708000Y-67515000I350000J0D01*
G01*
G37*
G36*
G01*
X111708000Y-65515000D02*
X116908000Y-65515000D01*
G75*
G02*
X117258000Y-65865000I0J-350000D01*
G01*
X117258000Y-66565000D01*
G75*
G02*
X116908000Y-66915000I-350000J0D01*
G01*
X111708000Y-66915000D01*
G75*
G02*
X111358000Y-66565000I0J350000D01*
G01*
X111358000Y-65865000D01*
G75*
G02*
X111708000Y-65515000I350000J0D01*
G01*
G37*
G36*
G01*
X107931500Y-70602000D02*
X108476500Y-70602000D01*
G75*
G02*
X108724000Y-70849500I0J-247500D01*
G01*
X108724000Y-71344500D01*
G75*
G02*
X108476500Y-71592000I-247500J0D01*
G01*
X107931500Y-71592000D01*
G75*
G02*
X107684000Y-71344500I0J247500D01*
G01*
X107684000Y-70849500D01*
G75*
G02*
X107931500Y-70602000I247500J0D01*
G01*
G37*
G36*
G01*
X107931500Y-69632000D02*
X108476500Y-69632000D01*
G75*
G02*
X108724000Y-69879500I0J-247500D01*
G01*
X108724000Y-70374500D01*
G75*
G02*
X108476500Y-70622000I-247500J0D01*
G01*
X107931500Y-70622000D01*
G75*
G02*
X107684000Y-70374500I0J247500D01*
G01*
X107684000Y-69879500D01*
G75*
G02*
X107931500Y-69632000I247500J0D01*
G01*
G37*
G36*
G01*
X107931500Y-73038000D02*
X108476500Y-73038000D01*
G75*
G02*
X108724000Y-73285500I0J-247500D01*
G01*
X108724000Y-73780500D01*
G75*
G02*
X108476500Y-74028000I-247500J0D01*
G01*
X107931500Y-74028000D01*
G75*
G02*
X107684000Y-73780500I0J247500D01*
G01*
X107684000Y-73285500D01*
G75*
G02*
X107931500Y-73038000I247500J0D01*
G01*
G37*
G36*
G01*
X107931500Y-72068000D02*
X108476500Y-72068000D01*
G75*
G02*
X108724000Y-72315500I0J-247500D01*
G01*
X108724000Y-72810500D01*
G75*
G02*
X108476500Y-73058000I-247500J0D01*
G01*
X107931500Y-73058000D01*
G75*
G02*
X107684000Y-72810500I0J247500D01*
G01*
X107684000Y-72315500D01*
G75*
G02*
X107931500Y-72068000I247500J0D01*
G01*
G37*
G36*
G01*
X127358000Y-53618750D02*
X127358000Y-54331250D01*
G75*
G02*
X127039250Y-54650000I-318750J0D01*
G01*
X126401750Y-54650000D01*
G75*
G02*
X126083000Y-54331250I0J318750D01*
G01*
X126083000Y-53618750D01*
G75*
G02*
X126401750Y-53300000I318750J0D01*
G01*
X127039250Y-53300000D01*
G75*
G02*
X127358000Y-53618750I0J-318750D01*
G01*
G37*
G36*
G01*
X128933000Y-53618750D02*
X128933000Y-54331250D01*
G75*
G02*
X128614250Y-54650000I-318750J0D01*
G01*
X127976750Y-54650000D01*
G75*
G02*
X127658000Y-54331250I0J318750D01*
G01*
X127658000Y-53618750D01*
G75*
G02*
X127976750Y-53300000I318750J0D01*
G01*
X128614250Y-53300000D01*
G75*
G02*
X128933000Y-53618750I0J-318750D01*
G01*
G37*
G36*
G01*
X123167000Y-53618750D02*
X123167000Y-54331250D01*
G75*
G02*
X122848250Y-54650000I-318750J0D01*
G01*
X122210750Y-54650000D01*
G75*
G02*
X121892000Y-54331250I0J318750D01*
G01*
X121892000Y-53618750D01*
G75*
G02*
X122210750Y-53300000I318750J0D01*
G01*
X122848250Y-53300000D01*
G75*
G02*
X123167000Y-53618750I0J-318750D01*
G01*
G37*
G36*
G01*
X124742000Y-53618750D02*
X124742000Y-54331250D01*
G75*
G02*
X124423250Y-54650000I-318750J0D01*
G01*
X123785750Y-54650000D01*
G75*
G02*
X123467000Y-54331250I0J318750D01*
G01*
X123467000Y-53618750D01*
G75*
G02*
X123785750Y-53300000I318750J0D01*
G01*
X124423250Y-53300000D01*
G75*
G02*
X124742000Y-53618750I0J-318750D01*
G01*
G37*
G36*
G01*
X127501100Y-57310000D02*
X126956100Y-57310000D01*
G75*
G02*
X126708600Y-57062500I0J247500D01*
G01*
X126708600Y-56567500D01*
G75*
G02*
X126956100Y-56320000I247500J0D01*
G01*
X127501100Y-56320000D01*
G75*
G02*
X127748600Y-56567500I0J-247500D01*
G01*
X127748600Y-57062500D01*
G75*
G02*
X127501100Y-57310000I-247500J0D01*
G01*
G37*
G36*
G01*
X127501100Y-58280000D02*
X126956100Y-58280000D01*
G75*
G02*
X126708600Y-58032500I0J247500D01*
G01*
X126708600Y-57537500D01*
G75*
G02*
X126956100Y-57290000I247500J0D01*
G01*
X127501100Y-57290000D01*
G75*
G02*
X127748600Y-57537500I0J-247500D01*
G01*
X127748600Y-58032500D01*
G75*
G02*
X127501100Y-58280000I-247500J0D01*
G01*
G37*
G36*
G01*
X123691100Y-57312400D02*
X123146100Y-57312400D01*
G75*
G02*
X122898600Y-57064900I0J247500D01*
G01*
X122898600Y-56569900D01*
G75*
G02*
X123146100Y-56322400I247500J0D01*
G01*
X123691100Y-56322400D01*
G75*
G02*
X123938600Y-56569900I0J-247500D01*
G01*
X123938600Y-57064900D01*
G75*
G02*
X123691100Y-57312400I-247500J0D01*
G01*
G37*
G36*
G01*
X123691100Y-58282400D02*
X123146100Y-58282400D01*
G75*
G02*
X122898600Y-58034900I0J247500D01*
G01*
X122898600Y-57539900D01*
G75*
G02*
X123146100Y-57292400I247500J0D01*
G01*
X123691100Y-57292400D01*
G75*
G02*
X123938600Y-57539900I0J-247500D01*
G01*
X123938600Y-58034900D01*
G75*
G02*
X123691100Y-58282400I-247500J0D01*
G01*
G37*
G36*
G01*
X119550900Y-57490200D02*
X119005900Y-57490200D01*
G75*
G02*
X118758400Y-57242700I0J247500D01*
G01*
X118758400Y-56747700D01*
G75*
G02*
X119005900Y-56500200I247500J0D01*
G01*
X119550900Y-56500200D01*
G75*
G02*
X119798400Y-56747700I0J-247500D01*
G01*
X119798400Y-57242700D01*
G75*
G02*
X119550900Y-57490200I-247500J0D01*
G01*
G37*
G36*
G01*
X119550900Y-58460200D02*
X119005900Y-58460200D01*
G75*
G02*
X118758400Y-58212700I0J247500D01*
G01*
X118758400Y-57717700D01*
G75*
G02*
X119005900Y-57470200I247500J0D01*
G01*
X119550900Y-57470200D01*
G75*
G02*
X119798400Y-57717700I0J-247500D01*
G01*
X119798400Y-58212700D01*
G75*
G02*
X119550900Y-58460200I-247500J0D01*
G01*
G37*
G36*
G01*
X115436100Y-57591800D02*
X114891100Y-57591800D01*
G75*
G02*
X114643600Y-57344300I0J247500D01*
G01*
X114643600Y-56849300D01*
G75*
G02*
X114891100Y-56601800I247500J0D01*
G01*
X115436100Y-56601800D01*
G75*
G02*
X115683600Y-56849300I0J-247500D01*
G01*
X115683600Y-57344300D01*
G75*
G02*
X115436100Y-57591800I-247500J0D01*
G01*
G37*
G36*
G01*
X115436100Y-58561800D02*
X114891100Y-58561800D01*
G75*
G02*
X114643600Y-58314300I0J247500D01*
G01*
X114643600Y-57819300D01*
G75*
G02*
X114891100Y-57571800I247500J0D01*
G01*
X115436100Y-57571800D01*
G75*
G02*
X115683600Y-57819300I0J-247500D01*
G01*
X115683600Y-58314300D01*
G75*
G02*
X115436100Y-58561800I-247500J0D01*
G01*
G37*
G36*
G01*
X118976000Y-53618750D02*
X118976000Y-54331250D01*
G75*
G02*
X118657250Y-54650000I-318750J0D01*
G01*
X118019750Y-54650000D01*
G75*
G02*
X117701000Y-54331250I0J318750D01*
G01*
X117701000Y-53618750D01*
G75*
G02*
X118019750Y-53300000I318750J0D01*
G01*
X118657250Y-53300000D01*
G75*
G02*
X118976000Y-53618750I0J-318750D01*
G01*
G37*
G36*
G01*
X120551000Y-53618750D02*
X120551000Y-54331250D01*
G75*
G02*
X120232250Y-54650000I-318750J0D01*
G01*
X119594750Y-54650000D01*
G75*
G02*
X119276000Y-54331250I0J318750D01*
G01*
X119276000Y-53618750D01*
G75*
G02*
X119594750Y-53300000I318750J0D01*
G01*
X120232250Y-53300000D01*
G75*
G02*
X120551000Y-53618750I0J-318750D01*
G01*
G37*
G36*
G01*
X114785000Y-53618750D02*
X114785000Y-54331250D01*
G75*
G02*
X114466250Y-54650000I-318750J0D01*
G01*
X113828750Y-54650000D01*
G75*
G02*
X113510000Y-54331250I0J318750D01*
G01*
X113510000Y-53618750D01*
G75*
G02*
X113828750Y-53300000I318750J0D01*
G01*
X114466250Y-53300000D01*
G75*
G02*
X114785000Y-53618750I0J-318750D01*
G01*
G37*
G36*
G01*
X116360000Y-53618750D02*
X116360000Y-54331250D01*
G75*
G02*
X116041250Y-54650000I-318750J0D01*
G01*
X115403750Y-54650000D01*
G75*
G02*
X115085000Y-54331250I0J318750D01*
G01*
X115085000Y-53618750D01*
G75*
G02*
X115403750Y-53300000I318750J0D01*
G01*
X116041250Y-53300000D01*
G75*
G02*
X116360000Y-53618750I0J-318750D01*
G01*
G37*
G36*
G01*
X103896000Y-60941500D02*
X103896000Y-61486500D01*
G75*
G02*
X103648500Y-61734000I-247500J0D01*
G01*
X103153500Y-61734000D01*
G75*
G02*
X102906000Y-61486500I0J247500D01*
G01*
X102906000Y-60941500D01*
G75*
G02*
X103153500Y-60694000I247500J0D01*
G01*
X103648500Y-60694000D01*
G75*
G02*
X103896000Y-60941500I0J-247500D01*
G01*
G37*
G36*
G01*
X104866000Y-60941500D02*
X104866000Y-61486500D01*
G75*
G02*
X104618500Y-61734000I-247500J0D01*
G01*
X104123500Y-61734000D01*
G75*
G02*
X103876000Y-61486500I0J247500D01*
G01*
X103876000Y-60941500D01*
G75*
G02*
X104123500Y-60694000I247500J0D01*
G01*
X104618500Y-60694000D01*
G75*
G02*
X104866000Y-60941500I0J-247500D01*
G01*
G37*
G36*
G01*
X71609500Y-96510000D02*
X72154500Y-96510000D01*
G75*
G02*
X72402000Y-96757500I0J-247500D01*
G01*
X72402000Y-97252500D01*
G75*
G02*
X72154500Y-97500000I-247500J0D01*
G01*
X71609500Y-97500000D01*
G75*
G02*
X71362000Y-97252500I0J247500D01*
G01*
X71362000Y-96757500D01*
G75*
G02*
X71609500Y-96510000I247500J0D01*
G01*
G37*
G36*
G01*
X71609500Y-95540000D02*
X72154500Y-95540000D01*
G75*
G02*
X72402000Y-95787500I0J-247500D01*
G01*
X72402000Y-96282500D01*
G75*
G02*
X72154500Y-96530000I-247500J0D01*
G01*
X71609500Y-96530000D01*
G75*
G02*
X71362000Y-96282500I0J247500D01*
G01*
X71362000Y-95787500D01*
G75*
G02*
X71609500Y-95540000I247500J0D01*
G01*
G37*
D23*
X76559000Y-97415000D03*
X76559000Y-94875000D03*
X76559000Y-92335000D03*
D24*
X76559000Y-89795000D03*
G36*
G01*
X81806500Y-97292000D02*
X81261500Y-97292000D01*
G75*
G02*
X81014000Y-97044500I0J247500D01*
G01*
X81014000Y-96549500D01*
G75*
G02*
X81261500Y-96302000I247500J0D01*
G01*
X81806500Y-96302000D01*
G75*
G02*
X82054000Y-96549500I0J-247500D01*
G01*
X82054000Y-97044500D01*
G75*
G02*
X81806500Y-97292000I-247500J0D01*
G01*
G37*
G36*
G01*
X81806500Y-98262000D02*
X81261500Y-98262000D01*
G75*
G02*
X81014000Y-98014500I0J247500D01*
G01*
X81014000Y-97519500D01*
G75*
G02*
X81261500Y-97272000I247500J0D01*
G01*
X81806500Y-97272000D01*
G75*
G02*
X82054000Y-97519500I0J-247500D01*
G01*
X82054000Y-98014500D01*
G75*
G02*
X81806500Y-98262000I-247500J0D01*
G01*
G37*
G36*
G01*
X101835500Y-90414000D02*
X102380500Y-90414000D01*
G75*
G02*
X102628000Y-90661500I0J-247500D01*
G01*
X102628000Y-91156500D01*
G75*
G02*
X102380500Y-91404000I-247500J0D01*
G01*
X101835500Y-91404000D01*
G75*
G02*
X101588000Y-91156500I0J247500D01*
G01*
X101588000Y-90661500D01*
G75*
G02*
X101835500Y-90414000I247500J0D01*
G01*
G37*
G36*
G01*
X101835500Y-89444000D02*
X102380500Y-89444000D01*
G75*
G02*
X102628000Y-89691500I0J-247500D01*
G01*
X102628000Y-90186500D01*
G75*
G02*
X102380500Y-90434000I-247500J0D01*
G01*
X101835500Y-90434000D01*
G75*
G02*
X101588000Y-90186500I0J247500D01*
G01*
X101588000Y-89691500D01*
G75*
G02*
X101835500Y-89444000I247500J0D01*
G01*
G37*
D25*
X95028000Y-96266000D03*
X99028000Y-96266000D03*
G36*
G01*
X103228000Y-96417750D02*
X103228000Y-97130250D01*
G75*
G02*
X102909250Y-97449000I-318750J0D01*
G01*
X102271750Y-97449000D01*
G75*
G02*
X101953000Y-97130250I0J318750D01*
G01*
X101953000Y-96417750D01*
G75*
G02*
X102271750Y-96099000I318750J0D01*
G01*
X102909250Y-96099000D01*
G75*
G02*
X103228000Y-96417750I0J-318750D01*
G01*
G37*
G36*
G01*
X104803000Y-96417750D02*
X104803000Y-97130250D01*
G75*
G02*
X104484250Y-97449000I-318750J0D01*
G01*
X103846750Y-97449000D01*
G75*
G02*
X103528000Y-97130250I0J318750D01*
G01*
X103528000Y-96417750D01*
G75*
G02*
X103846750Y-96099000I318750J0D01*
G01*
X104484250Y-96099000D01*
G75*
G02*
X104803000Y-96417750I0J-318750D01*
G01*
G37*
D20*
X102786000Y-93726000D03*
X102786000Y-94676000D03*
X102786000Y-92776000D03*
X104986000Y-92776000D03*
X104986000Y-93726000D03*
X104986000Y-94676000D03*
G36*
G01*
X107544250Y-91544000D02*
X106831750Y-91544000D01*
G75*
G02*
X106513000Y-91225250I0J318750D01*
G01*
X106513000Y-90587750D01*
G75*
G02*
X106831750Y-90269000I318750J0D01*
G01*
X107544250Y-90269000D01*
G75*
G02*
X107863000Y-90587750I0J-318750D01*
G01*
X107863000Y-91225250D01*
G75*
G02*
X107544250Y-91544000I-318750J0D01*
G01*
G37*
G36*
G01*
X107544250Y-93119000D02*
X106831750Y-93119000D01*
G75*
G02*
X106513000Y-92800250I0J318750D01*
G01*
X106513000Y-92162750D01*
G75*
G02*
X106831750Y-91844000I318750J0D01*
G01*
X107544250Y-91844000D01*
G75*
G02*
X107863000Y-92162750I0J-318750D01*
G01*
X107863000Y-92800250D01*
G75*
G02*
X107544250Y-93119000I-318750J0D01*
G01*
G37*
G36*
G01*
X109484000Y-93453500D02*
X109484000Y-93998500D01*
G75*
G02*
X109236500Y-94246000I-247500J0D01*
G01*
X108741500Y-94246000D01*
G75*
G02*
X108494000Y-93998500I0J247500D01*
G01*
X108494000Y-93453500D01*
G75*
G02*
X108741500Y-93206000I247500J0D01*
G01*
X109236500Y-93206000D01*
G75*
G02*
X109484000Y-93453500I0J-247500D01*
G01*
G37*
G36*
G01*
X110454000Y-93453500D02*
X110454000Y-93998500D01*
G75*
G02*
X110206500Y-94246000I-247500J0D01*
G01*
X109711500Y-94246000D01*
G75*
G02*
X109464000Y-93998500I0J247500D01*
G01*
X109464000Y-93453500D01*
G75*
G02*
X109711500Y-93206000I247500J0D01*
G01*
X110206500Y-93206000D01*
G75*
G02*
X110454000Y-93453500I0J-247500D01*
G01*
G37*
G36*
G01*
X109464000Y-92474500D02*
X109464000Y-91929500D01*
G75*
G02*
X109711500Y-91682000I247500J0D01*
G01*
X110206500Y-91682000D01*
G75*
G02*
X110454000Y-91929500I0J-247500D01*
G01*
X110454000Y-92474500D01*
G75*
G02*
X110206500Y-92722000I-247500J0D01*
G01*
X109711500Y-92722000D01*
G75*
G02*
X109464000Y-92474500I0J247500D01*
G01*
G37*
G36*
G01*
X108494000Y-92474500D02*
X108494000Y-91929500D01*
G75*
G02*
X108741500Y-91682000I247500J0D01*
G01*
X109236500Y-91682000D01*
G75*
G02*
X109484000Y-91929500I0J-247500D01*
G01*
X109484000Y-92474500D01*
G75*
G02*
X109236500Y-92722000I-247500J0D01*
G01*
X108741500Y-92722000D01*
G75*
G02*
X108494000Y-92474500I0J247500D01*
G01*
G37*
G36*
G01*
X100886250Y-92206000D02*
X99773750Y-92206000D01*
G75*
G02*
X99430000Y-91862250I0J343750D01*
G01*
X99430000Y-91174750D01*
G75*
G02*
X99773750Y-90831000I343750J0D01*
G01*
X100886250Y-90831000D01*
G75*
G02*
X101230000Y-91174750I0J-343750D01*
G01*
X101230000Y-91862250D01*
G75*
G02*
X100886250Y-92206000I-343750J0D01*
G01*
G37*
G36*
G01*
X100886250Y-94081000D02*
X99773750Y-94081000D01*
G75*
G02*
X99430000Y-93737250I0J343750D01*
G01*
X99430000Y-93049750D01*
G75*
G02*
X99773750Y-92706000I343750J0D01*
G01*
X100886250Y-92706000D01*
G75*
G02*
X101230000Y-93049750I0J-343750D01*
G01*
X101230000Y-93737250D01*
G75*
G02*
X100886250Y-94081000I-343750J0D01*
G01*
G37*
G36*
G01*
X133628750Y-126769000D02*
X134341250Y-126769000D01*
G75*
G02*
X134660000Y-127087750I0J-318750D01*
G01*
X134660000Y-127725250D01*
G75*
G02*
X134341250Y-128044000I-318750J0D01*
G01*
X133628750Y-128044000D01*
G75*
G02*
X133310000Y-127725250I0J318750D01*
G01*
X133310000Y-127087750D01*
G75*
G02*
X133628750Y-126769000I318750J0D01*
G01*
G37*
G36*
G01*
X133628750Y-125194000D02*
X134341250Y-125194000D01*
G75*
G02*
X134660000Y-125512750I0J-318750D01*
G01*
X134660000Y-126150250D01*
G75*
G02*
X134341250Y-126469000I-318750J0D01*
G01*
X133628750Y-126469000D01*
G75*
G02*
X133310000Y-126150250I0J318750D01*
G01*
X133310000Y-125512750D01*
G75*
G02*
X133628750Y-125194000I318750J0D01*
G01*
G37*
G36*
G01*
X132860500Y-128534000D02*
X132315500Y-128534000D01*
G75*
G02*
X132068000Y-128286500I0J247500D01*
G01*
X132068000Y-127791500D01*
G75*
G02*
X132315500Y-127544000I247500J0D01*
G01*
X132860500Y-127544000D01*
G75*
G02*
X133108000Y-127791500I0J-247500D01*
G01*
X133108000Y-128286500D01*
G75*
G02*
X132860500Y-128534000I-247500J0D01*
G01*
G37*
G36*
G01*
X132860500Y-129504000D02*
X132315500Y-129504000D01*
G75*
G02*
X132068000Y-129256500I0J247500D01*
G01*
X132068000Y-128761500D01*
G75*
G02*
X132315500Y-128514000I247500J0D01*
G01*
X132860500Y-128514000D01*
G75*
G02*
X133108000Y-128761500I0J-247500D01*
G01*
X133108000Y-129256500D01*
G75*
G02*
X132860500Y-129504000I-247500J0D01*
G01*
G37*
G36*
G01*
X126921500Y-135992250D02*
X126921500Y-135279750D01*
G75*
G02*
X127240250Y-134961000I318750J0D01*
G01*
X127877750Y-134961000D01*
G75*
G02*
X128196500Y-135279750I0J-318750D01*
G01*
X128196500Y-135992250D01*
G75*
G02*
X127877750Y-136311000I-318750J0D01*
G01*
X127240250Y-136311000D01*
G75*
G02*
X126921500Y-135992250I0J318750D01*
G01*
G37*
G36*
G01*
X125346500Y-135992250D02*
X125346500Y-135279750D01*
G75*
G02*
X125665250Y-134961000I318750J0D01*
G01*
X126302750Y-134961000D01*
G75*
G02*
X126621500Y-135279750I0J-318750D01*
G01*
X126621500Y-135992250D01*
G75*
G02*
X126302750Y-136311000I-318750J0D01*
G01*
X125665250Y-136311000D01*
G75*
G02*
X125346500Y-135992250I0J318750D01*
G01*
G37*
G36*
G01*
X135957000Y-133587000D02*
X135957000Y-132097000D01*
G75*
G02*
X136287000Y-131767000I330000J0D01*
G01*
X137277000Y-131767000D01*
G75*
G02*
X137607000Y-132097000I0J-330000D01*
G01*
X137607000Y-133587000D01*
G75*
G02*
X137277000Y-133917000I-330000J0D01*
G01*
X136287000Y-133917000D01*
G75*
G02*
X135957000Y-133587000I0J330000D01*
G01*
G37*
G36*
G01*
X133157000Y-133587000D02*
X133157000Y-132097000D01*
G75*
G02*
X133487000Y-131767000I330000J0D01*
G01*
X134477000Y-131767000D01*
G75*
G02*
X134807000Y-132097000I0J-330000D01*
G01*
X134807000Y-133587000D01*
G75*
G02*
X134477000Y-133917000I-330000J0D01*
G01*
X133487000Y-133917000D01*
G75*
G02*
X133157000Y-133587000I0J330000D01*
G01*
G37*
G36*
G01*
X126820500Y-138478250D02*
X126820500Y-137365750D01*
G75*
G02*
X127164250Y-137022000I343750J0D01*
G01*
X127851750Y-137022000D01*
G75*
G02*
X128195500Y-137365750I0J-343750D01*
G01*
X128195500Y-138478250D01*
G75*
G02*
X127851750Y-138822000I-343750J0D01*
G01*
X127164250Y-138822000D01*
G75*
G02*
X126820500Y-138478250I0J343750D01*
G01*
G37*
G36*
G01*
X124945500Y-138478250D02*
X124945500Y-137365750D01*
G75*
G02*
X125289250Y-137022000I343750J0D01*
G01*
X125976750Y-137022000D01*
G75*
G02*
X126320500Y-137365750I0J-343750D01*
G01*
X126320500Y-138478250D01*
G75*
G02*
X125976750Y-138822000I-343750J0D01*
G01*
X125289250Y-138822000D01*
G75*
G02*
X124945500Y-138478250I0J343750D01*
G01*
G37*
G36*
G01*
X131874250Y-132084000D02*
X130761750Y-132084000D01*
G75*
G02*
X130418000Y-131740250I0J343750D01*
G01*
X130418000Y-131052750D01*
G75*
G02*
X130761750Y-130709000I343750J0D01*
G01*
X131874250Y-130709000D01*
G75*
G02*
X132218000Y-131052750I0J-343750D01*
G01*
X132218000Y-131740250D01*
G75*
G02*
X131874250Y-132084000I-343750J0D01*
G01*
G37*
G36*
G01*
X131874250Y-133959000D02*
X130761750Y-133959000D01*
G75*
G02*
X130418000Y-133615250I0J343750D01*
G01*
X130418000Y-132927750D01*
G75*
G02*
X130761750Y-132584000I343750J0D01*
G01*
X131874250Y-132584000D01*
G75*
G02*
X132218000Y-132927750I0J-343750D01*
G01*
X132218000Y-133615250D01*
G75*
G02*
X131874250Y-133959000I-343750J0D01*
G01*
G37*
X127846000Y-131638000D03*
X127846000Y-133538000D03*
X125646000Y-133538000D03*
X125646000Y-132588000D03*
X125646000Y-131638000D03*
D11*
X130980000Y-135636000D03*
X133180000Y-135636000D03*
X133180000Y-137922000D03*
X130980000Y-137922000D03*
D26*
X136466000Y-143002000D03*
D27*
X130166000Y-145282000D03*
X130166000Y-140722000D03*
D28*
X58069000Y-73485000D03*
X61819000Y-73485000D03*
X61819000Y-67485000D03*
X58069000Y-67485000D03*
G36*
G01*
X62982000Y-75456500D02*
X62982000Y-74911500D01*
G75*
G02*
X63229500Y-74664000I247500J0D01*
G01*
X63724500Y-74664000D01*
G75*
G02*
X63972000Y-74911500I0J-247500D01*
G01*
X63972000Y-75456500D01*
G75*
G02*
X63724500Y-75704000I-247500J0D01*
G01*
X63229500Y-75704000D01*
G75*
G02*
X62982000Y-75456500I0J247500D01*
G01*
G37*
G36*
G01*
X62012000Y-75456500D02*
X62012000Y-74911500D01*
G75*
G02*
X62259500Y-74664000I247500J0D01*
G01*
X62754500Y-74664000D01*
G75*
G02*
X63002000Y-74911500I0J-247500D01*
G01*
X63002000Y-75456500D01*
G75*
G02*
X62754500Y-75704000I-247500J0D01*
G01*
X62259500Y-75704000D01*
G75*
G02*
X62012000Y-75456500I0J247500D01*
G01*
G37*
G36*
G01*
X68570000Y-74059500D02*
X68570000Y-73514500D01*
G75*
G02*
X68817500Y-73267000I247500J0D01*
G01*
X69312500Y-73267000D01*
G75*
G02*
X69560000Y-73514500I0J-247500D01*
G01*
X69560000Y-74059500D01*
G75*
G02*
X69312500Y-74307000I-247500J0D01*
G01*
X68817500Y-74307000D01*
G75*
G02*
X68570000Y-74059500I0J247500D01*
G01*
G37*
G36*
G01*
X67600000Y-74059500D02*
X67600000Y-73514500D01*
G75*
G02*
X67847500Y-73267000I247500J0D01*
G01*
X68342500Y-73267000D01*
G75*
G02*
X68590000Y-73514500I0J-247500D01*
G01*
X68590000Y-74059500D01*
G75*
G02*
X68342500Y-74307000I-247500J0D01*
G01*
X67847500Y-74307000D01*
G75*
G02*
X67600000Y-74059500I0J247500D01*
G01*
G37*
G36*
G01*
X68590000Y-72244500D02*
X68590000Y-72789500D01*
G75*
G02*
X68342500Y-73037000I-247500J0D01*
G01*
X67847500Y-73037000D01*
G75*
G02*
X67600000Y-72789500I0J247500D01*
G01*
X67600000Y-72244500D01*
G75*
G02*
X67847500Y-71997000I247500J0D01*
G01*
X68342500Y-71997000D01*
G75*
G02*
X68590000Y-72244500I0J-247500D01*
G01*
G37*
G36*
G01*
X69560000Y-72244500D02*
X69560000Y-72789500D01*
G75*
G02*
X69312500Y-73037000I-247500J0D01*
G01*
X68817500Y-73037000D01*
G75*
G02*
X68570000Y-72789500I0J247500D01*
G01*
X68570000Y-72244500D01*
G75*
G02*
X68817500Y-71997000I247500J0D01*
G01*
X69312500Y-71997000D01*
G75*
G02*
X69560000Y-72244500I0J-247500D01*
G01*
G37*
D29*
X66294000Y-68977000D03*
X67244000Y-70977000D03*
X65344000Y-70977000D03*
X71120000Y-68977000D03*
X72070000Y-70977000D03*
X70170000Y-70977000D03*
D30*
X57309500Y-77364000D03*
X57309500Y-83164000D03*
D31*
X57309500Y-83764000D03*
X57309500Y-76764000D03*
D32*
X57309500Y-79264000D03*
D33*
X60009500Y-82764000D03*
D34*
X60009500Y-80264000D03*
X60009500Y-80914000D03*
X60009500Y-81564000D03*
X60009500Y-78964000D03*
X60009500Y-79614000D03*
D33*
X60009500Y-77764000D03*
D32*
X57309500Y-81264000D03*
G36*
G01*
X63998000Y-74059500D02*
X63998000Y-73514500D01*
G75*
G02*
X64245500Y-73267000I247500J0D01*
G01*
X64740500Y-73267000D01*
G75*
G02*
X64988000Y-73514500I0J-247500D01*
G01*
X64988000Y-74059500D01*
G75*
G02*
X64740500Y-74307000I-247500J0D01*
G01*
X64245500Y-74307000D01*
G75*
G02*
X63998000Y-74059500I0J247500D01*
G01*
G37*
G36*
G01*
X63028000Y-74059500D02*
X63028000Y-73514500D01*
G75*
G02*
X63275500Y-73267000I247500J0D01*
G01*
X63770500Y-73267000D01*
G75*
G02*
X64018000Y-73514500I0J-247500D01*
G01*
X64018000Y-74059500D01*
G75*
G02*
X63770500Y-74307000I-247500J0D01*
G01*
X63275500Y-74307000D01*
G75*
G02*
X63028000Y-74059500I0J247500D01*
G01*
G37*
G36*
G01*
X63354500Y-82794000D02*
X63899500Y-82794000D01*
G75*
G02*
X64147000Y-83041500I0J-247500D01*
G01*
X64147000Y-83536500D01*
G75*
G02*
X63899500Y-83784000I-247500J0D01*
G01*
X63354500Y-83784000D01*
G75*
G02*
X63107000Y-83536500I0J247500D01*
G01*
X63107000Y-83041500D01*
G75*
G02*
X63354500Y-82794000I247500J0D01*
G01*
G37*
G36*
G01*
X63354500Y-81824000D02*
X63899500Y-81824000D01*
G75*
G02*
X64147000Y-82071500I0J-247500D01*
G01*
X64147000Y-82566500D01*
G75*
G02*
X63899500Y-82814000I-247500J0D01*
G01*
X63354500Y-82814000D01*
G75*
G02*
X63107000Y-82566500I0J247500D01*
G01*
X63107000Y-82071500D01*
G75*
G02*
X63354500Y-81824000I247500J0D01*
G01*
G37*
G36*
G01*
X62084500Y-84318000D02*
X62629500Y-84318000D01*
G75*
G02*
X62877000Y-84565500I0J-247500D01*
G01*
X62877000Y-85060500D01*
G75*
G02*
X62629500Y-85308000I-247500J0D01*
G01*
X62084500Y-85308000D01*
G75*
G02*
X61837000Y-85060500I0J247500D01*
G01*
X61837000Y-84565500D01*
G75*
G02*
X62084500Y-84318000I247500J0D01*
G01*
G37*
G36*
G01*
X62084500Y-83348000D02*
X62629500Y-83348000D01*
G75*
G02*
X62877000Y-83595500I0J-247500D01*
G01*
X62877000Y-84090500D01*
G75*
G02*
X62629500Y-84338000I-247500J0D01*
G01*
X62084500Y-84338000D01*
G75*
G02*
X61837000Y-84090500I0J247500D01*
G01*
X61837000Y-83595500D01*
G75*
G02*
X62084500Y-83348000I247500J0D01*
G01*
G37*
G36*
G01*
X80327800Y-134232100D02*
X80327800Y-133687100D01*
G75*
G02*
X80575300Y-133439600I247500J0D01*
G01*
X81070300Y-133439600D01*
G75*
G02*
X81317800Y-133687100I0J-247500D01*
G01*
X81317800Y-134232100D01*
G75*
G02*
X81070300Y-134479600I-247500J0D01*
G01*
X80575300Y-134479600D01*
G75*
G02*
X80327800Y-134232100I0J247500D01*
G01*
G37*
G36*
G01*
X79357800Y-134232100D02*
X79357800Y-133687100D01*
G75*
G02*
X79605300Y-133439600I247500J0D01*
G01*
X80100300Y-133439600D01*
G75*
G02*
X80347800Y-133687100I0J-247500D01*
G01*
X80347800Y-134232100D01*
G75*
G02*
X80100300Y-134479600I-247500J0D01*
G01*
X79605300Y-134479600D01*
G75*
G02*
X79357800Y-134232100I0J247500D01*
G01*
G37*
G36*
G01*
X84112400Y-134232100D02*
X84112400Y-133687100D01*
G75*
G02*
X84359900Y-133439600I247500J0D01*
G01*
X84854900Y-133439600D01*
G75*
G02*
X85102400Y-133687100I0J-247500D01*
G01*
X85102400Y-134232100D01*
G75*
G02*
X84854900Y-134479600I-247500J0D01*
G01*
X84359900Y-134479600D01*
G75*
G02*
X84112400Y-134232100I0J247500D01*
G01*
G37*
G36*
G01*
X83142400Y-134232100D02*
X83142400Y-133687100D01*
G75*
G02*
X83389900Y-133439600I247500J0D01*
G01*
X83884900Y-133439600D01*
G75*
G02*
X84132400Y-133687100I0J-247500D01*
G01*
X84132400Y-134232100D01*
G75*
G02*
X83884900Y-134479600I-247500J0D01*
G01*
X83389900Y-134479600D01*
G75*
G02*
X83142400Y-134232100I0J247500D01*
G01*
G37*
D26*
X130751000Y-118110000D03*
D27*
X124451000Y-120390000D03*
X124451000Y-115830000D03*
D26*
X129227000Y-102997000D03*
D27*
X122927000Y-105277000D03*
X122927000Y-100717000D03*
D35*
X136271000Y-119252000D03*
X136271000Y-115952000D03*
X135890000Y-104393000D03*
X135890000Y-101093000D03*
D18*
X148082000Y-87122000D03*
D19*
X148082000Y-82042000D03*
G36*
G01*
X131054000Y-67836500D02*
X131054000Y-67291500D01*
G75*
G02*
X131301500Y-67044000I247500J0D01*
G01*
X131796500Y-67044000D01*
G75*
G02*
X132044000Y-67291500I0J-247500D01*
G01*
X132044000Y-67836500D01*
G75*
G02*
X131796500Y-68084000I-247500J0D01*
G01*
X131301500Y-68084000D01*
G75*
G02*
X131054000Y-67836500I0J247500D01*
G01*
G37*
G36*
G01*
X130084000Y-67836500D02*
X130084000Y-67291500D01*
G75*
G02*
X130331500Y-67044000I247500J0D01*
G01*
X130826500Y-67044000D01*
G75*
G02*
X131074000Y-67291500I0J-247500D01*
G01*
X131074000Y-67836500D01*
G75*
G02*
X130826500Y-68084000I-247500J0D01*
G01*
X130331500Y-68084000D01*
G75*
G02*
X130084000Y-67836500I0J247500D01*
G01*
G37*
D36*
X94615000Y-144526000D03*
X92075000Y-144526000D03*
X89535000Y-144526000D03*
D37*
X86995000Y-144526000D03*
D36*
X81534000Y-144526000D03*
X78994000Y-144526000D03*
X76454000Y-144526000D03*
D37*
X73914000Y-144526000D03*
D18*
X147955000Y-131318000D03*
D19*
X147955000Y-126238000D03*
D18*
X147955000Y-117348000D03*
D19*
X147955000Y-112268000D03*
D18*
X147955000Y-102552500D03*
D19*
X147955000Y-97472500D03*
D18*
X148082000Y-74295000D03*
D19*
X148082000Y-69215000D03*
D38*
X63500000Y-141605000D03*
X147955000Y-141605000D03*
X147828000Y-57150000D03*
X63500000Y-57150000D03*
M02*
